<svg xmlns="http://www.w3.org/2000/svg" xmlns:xlink="http://www.w3.org/1999/xlink" width="200" zoomAndPan="magnify" viewBox="0 0 150 149.999998" height="200" preserveAspectRatio="xMidYMid meet" version="1.0"><defs><g/><clipPath id="0dc85124de"><path d="M 8.550781 81 L 127 81 L 127 150 L 8.550781 150 Z M 8.550781 81 " clip-rule="nonzero"/></clipPath><clipPath id="7048077275"><path d="M 8.550781 0 L 141.300781 0 L 141.300781 150 L 8.550781 150 Z M 8.550781 0 " clip-rule="nonzero"/></clipPath><clipPath id="c3b8930f25"><path d="M 6 1 L 8.320312 1 L 8.320312 5 L 6 5 Z M 6 1 " clip-rule="nonzero"/></clipPath><clipPath id="7cdefce034"><rect x="0" width="9" y="0" height="5"/></clipPath></defs><path fill="#472726" d="M 140.28125 112.359375 C 140.3125 108.867188 139.046875 105.371094 136.851562 102.660156 C 136.488281 100.132812 135.617188 97.722656 133.933594 95.824219 C 132.878906 94.621094 131.554688 93.71875 130.261719 92.753906 C 128.335938 91.339844 126.441406 89.804688 124.816406 88.027344 C 124.488281 86.28125 124.246094 84.503906 123.855469 82.785156 C 122.890625 78.691406 120.757812 74.894531 117.808594 71.882812 C 117.476562 68.992188 116.847656 66.164062 115.371094 63.632812 C 113.988281 61.222656 111.914062 59.296875 110.136719 57.160156 C 109.175781 56.015625 108.273438 54.777344 107.609375 53.453125 C 108.210938 48.453125 106.917969 44.871094 102.617188 37.882812 C 98.375 30.957031 99.246094 26.019531 97.832031 18.640625 C 96.359375 11.292969 87.394531 0.664062 72.472656 0.453125 C 57.550781 0.242188 49.039062 8.703125 45.878906 12.257812 C 42.601562 14.335938 37.304688 24.84375 34.75 26.652344 C 34.75 26.652344 35.800781 27.433594 36.886719 26.953125 C 36.433594 28.128906 35.863281 30.929688 35.679688 32.164062 C 35.652344 32.285156 35.800781 32.34375 35.863281 32.253906 C 36.375 31.53125 37.304688 30.535156 37.726562 30.085938 C 35.953125 32.074219 35.378906 37.882812 35.921875 40.535156 L 35.589844 43.09375 L 36.402344 42.972656 C 37.214844 46.074219 36.523438 49.539062 34.597656 52.097656 C 33.847656 53.09375 32.914062 53.9375 32.28125 54.988281 C 31.167969 56.828125 31.019531 59.054688 31.378906 61.164062 C 30.238281 64.113281 30.144531 67.457031 31.140625 70.4375 C 31.859375 72.636719 33.183594 74.714844 33.90625 76.882812 C 33.394531 77.9375 32.703125 78.960938 31.953125 79.894531 C 30.328125 81.914062 28.429688 83.660156 26.925781 85.796875 C 24.910156 88.6875 23.796875 92.183594 23.769531 95.675781 L 27.859375 98.324219 C 31.078125 104.5 69.644531 127.054688 126.320312 140.214844 C 131.015625 138.679688 135.828125 136.902344 140.761719 134.914062 C 138.144531 129.496094 140.25 116.335938 140.28125 112.359375 Z M 34.597656 75.167969 C 34.269531 74.261719 33.847656 73.390625 33.425781 72.546875 C 32.492188 70.589844 31.5 68.601562 31.347656 66.433594 C 31.289062 65.410156 31.410156 64.324219 31.921875 63.421875 C 32.460938 65.167969 33.214844 66.824219 33.875 68.542969 C 34.417969 69.957031 34.898438 71.433594 34.929688 72.96875 C 34.929688 73.691406 34.808594 74.445312 34.597656 75.167969 Z M 109.414062 64.234375 C 107.789062 61.945312 107.371094 58.722656 107.429688 55.742188 C 108.300781 57.25 109.324219 58.664062 110.5 59.957031 C 111.28125 60.863281 112.152344 61.707031 112.84375 62.699219 C 113.867188 64.175781 114.5 65.890625 114.980469 67.636719 C 115.191406 68.390625 115.371094 69.113281 115.523438 69.867188 C 113.355469 68.089844 111.039062 66.492188 109.414062 64.234375 Z M 126.5625 93.117188 C 126.351562 92.785156 126.171875 92.421875 126.019531 92.089844 C 128.335938 93.898438 130.894531 95.523438 132.730469 97.785156 C 133.300781 98.476562 133.78125 99.257812 134.203125 100.070312 C 131.496094 97.875 128.367188 96.097656 126.5625 93.117188 Z M 126.5625 93.117188 " fill-opacity="1" fill-rule="nonzero"/><g clip-path="url(#0dc85124de)"><path fill="#8c5d58" d="M 126.351562 140.246094 C 51.625 165 8.996094 136.8125 8.996094 136.8125 C 11.3125 119.226562 24.28125 92.632812 27.949219 90.617188 C 32.433594 87.664062 41.488281 85.316406 46.480469 83.808594 L 81.347656 81.851562 C 82.609375 85.253906 85.5 88.929688 89.710938 89.289062 C 95.605469 89.773438 97.53125 82.09375 99.488281 82.09375 C 103.941406 83.207031 108.089844 84.953125 110.289062 86.609375 C 114.800781 89.984375 120.183594 98.957031 122.472656 111.574219 C 125.207031 125.609375 126.351562 140.246094 126.351562 140.246094 Z M 84.925781 81.671875 L 83.574219 81.761719 C 84.386719 83.75 85.679688 85.765625 87.515625 86.792969 C 86.3125 85.585938 85.527344 83.597656 84.925781 81.671875 Z M 94.222656 81.160156 L 86.160156 81.613281 C 87.0625 84.203125 88.6875 86.972656 91.425781 87.242188 C 93.890625 86.25 95.304688 82.515625 97.503906 81.671875 C 96.417969 81.460938 95.304688 81.28125 94.222656 81.160156 Z M 94.222656 81.160156 " fill-opacity="1" fill-rule="nonzero"/></g><path fill="#f2aea2" d="M 87.125 88.628906 C 79.089844 97.121094 66.726562 110.460938 63.269531 115.28125 C 63.269531 115.28125 44.375 87.574219 46.480469 83.839844 C 46.480469 83.839844 56.4375 81.007812 58.125 79.625 C 59.71875 78.328125 58.574219 72.667969 58.574219 72.667969 C 58.574219 72.667969 57.550781 72.578125 56.136719 72.335938 C 53.339844 71.855469 42.929688 62.035156 42.570312 59.355469 C 42.328125 57.460938 40.496094 47.941406 39.503906 42.855469 C 43.261719 43.273438 47.445312 39.539062 48.074219 36.015625 C 48.707031 32.492188 48.195312 31.320312 49.070312 30.234375 C 49.910156 29.179688 52.347656 27.976562 52.347656 27.976562 L 51.957031 29.152344 C 52.136719 29.089844 55.808594 27.253906 55.808594 27.253906 L 54.753906 28.96875 L 59.628906 26.800781 L 58.453125 28.246094 L 62.035156 26.589844 C 63.175781 32.164062 65.464844 38.546875 71.75 39.421875 C 73.253906 40.382812 75.78125 40.867188 77.074219 40.234375 C 79 42.070312 81.949219 41.769531 81.949219 41.769531 C 81.078125 40.804688 80.414062 39.121094 80.414062 39.121094 C 80.414062 39.121094 84.988281 44.359375 89.46875 45.171875 C 89.46875 45.171875 94.765625 48.90625 89.558594 54.777344 C 86.582031 58.121094 81.679688 60.019531 80.234375 61.824219 C 78.789062 63.632812 78.007812 75.5 79.511719 77.394531 C 79.753906 77.695312 80.113281 77.96875 80.59375 78.207031 C 80.566406 81.28125 82.882812 86.699219 87.125 88.628906 Z M 85.621094 79.804688 C 86.191406 82.003906 87.273438 84.925781 89.257812 86.398438 C 92.238281 83.238281 94.222656 81.191406 94.222656 81.191406 C 92.6875 81.007812 88.957031 80.558594 85.621094 79.804688 Z M 84.324219 79.472656 C 83.785156 79.324219 83.242188 79.171875 82.761719 79.023438 C 83.273438 81.582031 84.835938 85.226562 87.515625 86.761719 C 85.832031 85.105469 84.988281 81.941406 84.324219 79.472656 Z M 84.324219 79.472656 " fill-opacity="1" fill-rule="nonzero"/><path fill="#f3eff9" d="M 39.742188 88.175781 L 62.726562 90.316406 L 62.457031 92.964844 L 60.890625 92.8125 L 55.507812 124.164062 C 46.542969 125.667969 40.707031 122.6875 40.707031 122.6875 L 39.832031 90.855469 L 38.480469 90.738281 L 38.75 88.085938 L 39.742188 88.175781 C 40.433594 83.386719 44.554688 78.839844 51.085938 79.414062 C 60.46875 80.226562 61.492188 87.394531 61.554688 90.132812 Z M 69.253906 45.234375 C 69.253906 45.234375 66.394531 45.863281 65.285156 46.796875 C 64.171875 47.730469 62.9375 49.71875 62.90625 50.050781 C 62.875 50.382812 62.90625 51.558594 62.90625 51.558594 C 67.238281 52.941406 75.933594 51.527344 76.503906 46.105469 C 76.503906 46.105469 74.007812 44.511719 69.253906 45.234375 Z M 53.730469 52.371094 C 53.730469 52.371094 54.304688 51.285156 54.03125 49.417969 C 54.03125 49.417969 51.894531 45.925781 47.023438 45.65625 C 42.148438 45.382812 42.480469 47.128906 42.480469 47.128906 C 42.480469 47.128906 44.074219 52.882812 53.730469 52.371094 Z M 53.730469 52.371094 " fill-opacity="1" fill-rule="nonzero"/><path fill="#8c5d58" d="M 33.335938 77.996094 C 31.832031 80.796875 27.921875 88.660156 28.429688 93.777344 C 28.582031 95.164062 28.101562 96.609375 27.257812 97.964844 L 23.796875 95.707031 C 23.828125 92.183594 24.972656 88.6875 26.957031 85.828125 C 28.429688 83.71875 30.355469 81.941406 31.980469 79.925781 C 32.460938 79.324219 32.945312 78.660156 33.335938 77.996094 Z M 33.9375 76.945312 L 34.628906 75.167969 C 34.296875 74.261719 33.875 73.390625 33.457031 72.546875 C 32.523438 70.589844 31.53125 68.601562 31.378906 66.433594 C 31.320312 65.410156 31.441406 64.324219 31.953125 63.421875 C 32.492188 65.167969 33.246094 66.824219 33.90625 68.542969 C 34.449219 69.957031 34.929688 71.433594 34.960938 72.96875 C 34.960938 73.511719 34.898438 74.054688 34.777344 74.566406 C 36.375 67.425781 33.484375 61.40625 33.664062 59.328125 C 33.847656 57.1875 36.824219 51.585938 36.765625 46.558594 L 36.734375 46.558594 C 36.554688 48.546875 35.832031 50.503906 34.628906 52.097656 C 33.875 53.09375 32.945312 53.9375 32.3125 54.988281 C 31.199219 56.828125 31.046875 59.054688 31.410156 61.164062 C 30.265625 64.113281 30.175781 67.457031 31.167969 70.4375 C 31.890625 72.699219 33.183594 74.777344 33.9375 76.945312 C 33.9375 76.972656 33.90625 76.972656 33.90625 77.003906 C 33.90625 76.972656 33.9375 76.945312 33.9375 76.945312 Z M 41.878906 26.078125 L 38.78125 28.457031 C 38.78125 28.457031 40.675781 23.820312 44.015625 19.152344 C 44.226562 19.183594 44.4375 19.273438 44.617188 19.425781 C 45.007812 19.785156 45.21875 20.328125 45.339844 20.839844 C 45.457031 21.351562 45.578125 21.894531 45.878906 22.34375 C 46.121094 22.738281 46.511719 23.007812 46.8125 23.371094 C 47.5625 24.242188 48.347656 25.808594 47.957031 26.921875 C 48.136719 26.589844 48.226562 26.230469 48.316406 25.867188 C 48.796875 24.09375 49.789062 22.40625 51.113281 21.109375 C 51.777344 20.476562 52.617188 20.027344 53.519531 19.816406 C 52.257812 19.785156 51.054688 18.761719 50.8125 17.496094 C 50.722656 16.984375 50.753906 16.414062 50.511719 15.929688 C 50.332031 15.539062 49.972656 15.269531 49.761719 14.90625 C 49.371094 14.304688 49.460938 13.460938 49.878906 12.890625 C 51.925781 11.292969 54.242188 10.148438 56.738281 9.847656 C 56.738281 9.847656 54.964844 9.277344 53.492188 9.484375 C 53.492188 9.484375 63.117188 1.234375 77.285156 0.902344 C 75.753906 0.632812 74.15625 0.480469 72.503906 0.453125 C 57.550781 0.242188 49.070312 8.703125 45.910156 12.257812 C 42.628906 14.335938 37.335938 24.84375 34.777344 26.652344 C 34.777344 26.652344 35.832031 27.433594 36.914062 26.953125 C 36.464844 28.128906 35.890625 30.929688 35.710938 32.164062 C 35.679688 32.285156 35.832031 32.34375 35.890625 32.253906 C 36.402344 31.53125 37.335938 30.535156 37.757812 30.085938 C 36.042969 32.011719 35.472656 37.402344 35.890625 40.171875 C 35.953125 40.144531 35.980469 40.113281 36.042969 40.054688 C 36.734375 39.449219 37.726562 37.914062 37.726562 37.914062 C 38.179688 36.199219 39.503906 28.128906 41.878906 26.078125 Z M 40.644531 45.59375 C 40.433594 45.625 40.253906 45.625 40.074219 45.625 C 39.894531 44.628906 39.710938 43.695312 39.53125 42.855469 C 43.292969 43.273438 47.472656 39.539062 48.105469 36.015625 C 48.558594 33.609375 48.4375 32.285156 48.617188 31.351562 C 48.917969 33.96875 49.128906 44.78125 40.644531 45.59375 Z M 57.914062 100.855469 C 57.972656 100.914062 57.972656 101.035156 57.914062 101.097656 C 57.433594 101.699219 55.175781 104.5 53.429688 105.492188 C 51.476562 106.605469 40.824219 101.847656 41.519531 99.953125 C 42.210938 98.085938 46.03125 97.601562 47.867188 98.386719 C 49.730469 99.136719 52.167969 99.199219 53.429688 99.078125 C 54.664062 98.925781 56.558594 99.019531 57.914062 100.855469 Z M 96.871094 20.660156 C 96.601562 19.996094 96 19.484375 95.304688 19.332031 C 94.492188 19.152344 93.621094 19.484375 93.109375 20.148438 C 92.6875 20.71875 92.539062 21.441406 92.148438 22.042969 C 91.636719 22.796875 90.734375 23.160156 90.011719 23.699219 C 89.289062 24.242188 88.628906 25.265625 88.988281 26.109375 C 87.273438 20.929688 81.648438 15.480469 81.648438 15.480469 C 82.582031 15.480469 83.421875 15.660156 84.296875 15.960938 C 85.167969 16.261719 86.222656 16.382812 86.941406 15.839844 C 87.335938 15.539062 87.574219 15.058594 87.9375 14.695312 C 88.417969 14.183594 89.109375 13.882812 89.800781 13.851562 C 90.042969 13.851562 90.28125 13.882812 90.523438 13.824219 C 91.066406 13.703125 91.484375 13.21875 91.667969 12.679688 C 91.847656 12.136719 91.816406 11.5625 91.785156 11.023438 C 94.101562 13.671875 95.789062 17.226562 96.871094 20.660156 Z M 96.960938 20.960938 C 96.929688 20.871094 96.902344 20.75 96.871094 20.660156 C 96.902344 20.75 96.929688 20.871094 96.960938 20.960938 Z M 79.574219 17.585938 C 82.007812 20.296875 84.808594 23.097656 86.039062 26.53125 C 85.226562 26.921875 84.445312 27.34375 83.542969 27.523438 C 81.949219 27.855469 80.144531 27.433594 78.699219 28.246094 C 78.039062 28.609375 77.527344 29.210938 76.894531 29.632812 C 76.59375 29.179688 76.265625 28.761719 75.902344 28.367188 C 75.453125 27.855469 75 27.523438 74.730469 26.921875 C 74.820312 28.007812 75.03125 29.089844 75.332031 30.175781 C 74.308594 30.207031 73.253906 29.875 72.234375 29.996094 C 71.390625 30.113281 70.609375 30.535156 69.765625 30.6875 C 68.863281 30.835938 67.960938 30.6875 67.058594 30.476562 C 66.636719 30.386719 66.246094 30.265625 65.824219 30.324219 C 65.402344 30.386719 65.164062 30.71875 65.042969 31.140625 C 64.441406 30.535156 64.140625 29.664062 63.898438 28.851562 C 63.449219 27.3125 63.085938 25.75 62.785156 24.183594 C 63.359375 24.511719 64.019531 24.332031 64.621094 24.0625 C 64.984375 23.882812 65.3125 23.609375 65.644531 23.371094 C 66.605469 22.765625 67.78125 22.707031 68.894531 22.765625 C 69.734375 22.828125 70.609375 22.976562 71.449219 22.796875 C 73.042969 22.40625 74.15625 20.839844 75.753906 20.476562 C 76.804688 20.238281 78.070312 20.507812 78.851562 19.753906 C 79.421875 19.183594 79.511719 18.339844 79.574219 17.585938 Z M 79.574219 17.585938 " fill-opacity="1" fill-rule="nonzero"/><path fill="#f2aea2" d="M 56.828125 106.9375 L 57.371094 104.167969 C 57.492188 103.898438 57.550781 103.625 57.550781 103.324219 L 58.003906 100.976562 C 57.25 99.289062 55.324219 100.28125 53.25 101.15625 C 53.21875 101.15625 53.160156 101.15625 53.128906 101.15625 C 51.714844 101.066406 49.429688 101.097656 47.472656 101.15625 C 45.789062 100.132812 44.34375 98.746094 41.488281 99.980469 L 41.519531 101.699219 C 40.765625 101.847656 40.195312 102 40.195312 102 L 40.195312 99.980469 C 40.195312 99.980469 43.652344 98.324219 46.902344 97.996094 C 50.8125 97.601562 51.144531 95.917969 51.144531 95.132812 C 51.144531 94.351562 50.484375 93.929688 47.324219 94.167969 C 45.878906 94.289062 41.097656 95.195312 38.539062 96.007812 C 35.980469 96.820312 34.085938 98.957031 33.035156 100.011719 C 31.980469 101.066406 31.351562 102.570312 31.289062 104.257812 C 31.078125 104.710938 30.027344 107.058594 28.613281 110.28125 C 27.078125 118.683594 35.441406 122.960938 38.570312 121.875 C 40.132812 121.363281 41.335938 120.609375 42.121094 120.007812 C 42.421875 121.152344 43.351562 122.027344 44.554688 122.207031 C 46.332031 122.507812 48.828125 122.808594 51.234375 122.839844 C 52.679688 122.839844 53.941406 121.816406 54.210938 120.398438 L 56.257812 109.980469 C 57.039062 109.558594 57.550781 109.015625 57.550781 108.414062 C 57.550781 107.660156 57.433594 107.210938 56.828125 106.9375 Z M 41.667969 106.605469 L 41.667969 107.089844 C 40.734375 107.179688 39.921875 107.300781 39.921875 107.300781 C 39.921875 107.300781 40.734375 106.90625 41.667969 106.605469 Z M 41.820312 111.9375 L 41.820312 112.417969 C 41.609375 112.179688 41.488281 111.996094 41.488281 111.996094 C 41.488281 111.996094 41.609375 111.96875 41.820312 111.9375 Z M 41.820312 111.9375 " fill-opacity="1" fill-rule="nonzero"/><path fill="#8c5d58" d="M 83.0625 57.367188 C 82.429688 57.671875 81.648438 57.699219 81.046875 57.308594 C 80.386719 56.886719 80.144531 55.984375 80.324219 55.199219 C 80.503906 54.417969 81.015625 53.785156 81.527344 53.183594 C 82.070312 52.582031 82.640625 52.039062 83.003906 51.347656 C 83.542969 50.351562 83.632812 49.179688 84.117188 48.152344 C 84.597656 47.128906 85.621094 46.4375 86.761719 46.558594 C 88.867188 46.828125 90.554688 49.78125 88.148438 52.703125 C 85.738281 55.621094 84.597656 56.617188 83.0625 57.367188 Z M 72.625 68.332031 C 70.097656 70.199219 62.183594 72.394531 58.574219 72.667969 C 58.574219 72.667969 59.6875 78.148438 58.183594 79.5625 C 64.289062 78.75 72.625 68.332031 72.625 68.332031 Z M 39.53125 112.390625 C 39.53125 112.390625 40.886719 113.503906 44.34375 113.804688 C 44.34375 113.804688 42.210938 113.625 41.488281 112.027344 Z M 39.320312 100.222656 C 39.320312 100.222656 36.132812 103.445312 36.042969 103.6875 C 35.921875 103.925781 36.765625 103.445312 36.765625 103.445312 C 37.816406 103.175781 40.222656 101.96875 40.222656 101.96875 L 40.222656 99.953125 Z M 39.320312 100.222656 " fill-opacity="1" fill-rule="nonzero"/><path fill="#472726" d="M 67.691406 45.59375 L 71.78125 45.050781 C 72.683594 45.984375 73.136719 50.320312 71.722656 51.164062 C 70.308594 51.675781 67.839844 51.949219 67.839844 51.949219 C 66.515625 51.226562 65.792969 46.769531 67.691406 45.59375 Z M 52.828125 52.398438 C 53.339844 51.4375 53.550781 49.992188 53.191406 48.363281 C 52.257812 47.429688 50.574219 46.136719 47.957031 45.746094 C 47.234375 46.558594 47.234375 50.292969 48.949219 52.039062 C 50.03125 52.28125 51.324219 52.429688 52.828125 52.398438 Z M 57.882812 53.484375 L 56.199219 55.710938 L 57.28125 55.984375 Z M 58.574219 72.335938 L 58.574219 72.9375 C 60.742188 72.910156 66.695312 71.253906 66.9375 71.191406 C 66.96875 71.191406 60.679688 72.304688 58.574219 72.335938 Z M 31.980469 108.292969 C 31.980469 108.292969 31.800781 106.066406 31.742188 105.25 C 31.710938 104.769531 31.679688 104.347656 31.558594 104.078125 L 31.019531 104.316406 C 31.109375 104.5 31.140625 104.890625 31.167969 105.3125 C 31.199219 106.15625 31.289062 107.328125 31.980469 108.292969 Z M 35.351562 112.296875 C 35.199219 112.207031 35.078125 112.117188 34.988281 112.027344 C 34.839844 111.878906 34.75 111.667969 34.660156 111.457031 L 33.90625 111.273438 L 34.085938 111.695312 C 34.207031 111.9375 34.328125 112.207031 34.539062 112.417969 C 34.6875 112.570312 34.871094 112.691406 35.019531 112.78125 C 35.078125 112.8125 35.140625 112.839844 35.199219 112.902344 C 35.53125 113.113281 36.523438 113.472656 36.523438 113.472656 C 36.285156 113.050781 35.953125 112.660156 35.53125 112.390625 C 35.472656 112.359375 35.410156 112.328125 35.351562 112.296875 Z M 39.320312 112.417969 C 39.320312 112.417969 40.585938 112.539062 41.578125 112.296875 L 41.425781 111.726562 C 40.375 111.96875 39.351562 112.390625 39.320312 112.417969 Z M 39.410156 100.464844 C 39.5625 100.402344 39.953125 100.28125 40.253906 100.253906 L 40.164062 99.652344 C 39.710938 99.710938 39.140625 99.921875 39.140625 99.921875 L 39.050781 99.953125 L 38.992188 100.011719 C 38.992188 100.011719 36.792969 102.242188 36.792969 102.242188 C 38.179688 101.910156 39.171875 100.765625 39.410156 100.464844 Z M 39.953125 102.359375 C 40.105469 102.300781 40.222656 102.269531 40.3125 102.242188 L 40.105469 101.667969 C 40.011719 101.699219 39.894531 101.757812 39.742188 101.789062 C 38.960938 102.058594 37.695312 102.511719 36.914062 102.933594 C 36.101562 103.382812 33.875 104.890625 33.425781 105.460938 C 33.425781 105.460938 36.253906 103.988281 37.1875 103.445312 C 37.9375 103.082031 39.203125 102.632812 39.953125 102.359375 Z M 38.449219 99.257812 C 38.449219 99.257812 37.546875 97.753906 37.488281 97.03125 L 36.886719 97.089844 C 36.976562 98.023438 37.605469 98.867188 38.449219 99.257812 Z M 47.535156 94.289062 L 46.933594 94.199219 C 46.84375 94.773438 47.023438 95.375 47.382812 95.855469 C 47.414062 95.855469 47.472656 94.710938 47.535156 94.289062 Z M 43.414062 104.078125 C 43.535156 104.4375 43.714844 104.769531 43.953125 105.070312 C 43.953125 105.070312 43.953125 103.898438 43.863281 103.445312 C 43.804688 103.113281 43.261719 102.300781 43.261719 102.300781 C 43.171875 102.871094 43.234375 103.503906 43.414062 104.078125 Z M 53.820312 102.210938 C 53.550781 102.359375 53.429688 102.632812 53.429688 103.054688 C 53.429688 103.625 53.519531 104.167969 53.761719 104.710938 C 53.761719 104.710938 54.03125 103.535156 54.03125 103.082031 C 54.03125 102.84375 53.820312 102.210938 53.820312 102.210938 Z M 46.210938 110.613281 C 46.210938 110.613281 46.03125 109.769531 45.941406 108.957031 C 45.910156 108.566406 45.308594 107.871094 45.308594 107.871094 C 45.1875 108.835938 45.550781 109.890625 46.210938 110.613281 Z M 54.273438 109.617188 C 54.273438 109.617188 54.394531 108.625 54.304688 108.292969 C 54.273438 108.113281 54.003906 107.300781 54.003906 107.300781 C 53.703125 107.511719 53.609375 107.933594 53.730469 108.445312 C 53.820312 108.867188 54.003906 109.257812 54.273438 109.617188 Z M 48.195312 116.695312 L 48.558594 115.792969 L 47.773438 115.28125 L 48.015625 116.152344 Z M 72.234375 87.363281 C 72.234375 87.363281 73.617188 85.375 75.992188 84.953125 C 77.796875 84.625 82.492188 83.808594 82.492188 83.808594 C 80.203125 83.839844 77.738281 84.019531 75.902344 84.382812 C 73.195312 84.863281 72.535156 86.671875 72.261719 87.363281 Z M 60.621094 85.886719 C 62.367188 85.859375 64.289062 87.574219 64.289062 87.574219 C 63.75 85.949219 62.636719 85.253906 60.621094 85.285156 Z M 61.644531 63.152344 C 62.9375 62.699219 64.078125 61.917969 65.011719 60.890625 C 65.011719 60.890625 62.605469 62.128906 61.402344 62.578125 C 60.410156 62.941406 58.242188 63.632812 58.242188 63.632812 C 58.425781 63.632812 58.574219 63.664062 58.753906 63.664062 C 59.75 63.664062 60.710938 63.480469 61.644531 63.152344 Z M 100.03125 109.378906 C 100.03125 109.378906 104.84375 143.316406 103.640625 146.269531 L 104.179688 146.507812 C 105.503906 143.378906 101.863281 114.226562 100.03125 109.378906 Z M 102.136719 83.058594 C 94.585938 88.355469 71.539062 112.148438 69.585938 117.296875 C 67.507812 122.839844 63.777344 147.535156 64.589844 150.335938 L 64.019531 150.515625 C 63.898438 150.0625 63.871094 149.039062 63.929688 147.652344 C 63.269531 147.683594 62.457031 147.683594 61.613281 147.683594 C 60.078125 147.683594 58.515625 147.652344 57.882812 147.625 C 57.824219 149.191406 57.824219 150.125 57.824219 150.125 L 57.222656 150.125 C 57.222656 150.09375 57.222656 146.328125 57.671875 141.148438 C 58.003906 137.503906 59.6875 127.6875 61.222656 121.121094 C 59.777344 120.1875 58.242188 118.863281 56.527344 117.058594 L 56.769531 116.816406 C 57.191406 115.339844 59.355469 110.640625 59.597656 110.070312 L 60.140625 110.3125 C 59.417969 111.847656 57.582031 115.914062 57.3125 116.996094 C 57.941406 117.660156 58.574219 118.230469 59.175781 118.773438 C 59.597656 117.207031 61.070312 113.140625 61.253906 112.628906 L 61.824219 112.839844 C 61.042969 115.039062 59.867188 118.382812 59.6875 119.226562 C 60.257812 119.707031 60.832031 120.128906 61.34375 120.488281 C 61.945312 117.929688 62.546875 115.914062 62.96875 115.128906 L 63.507812 115.429688 C 63.476562 115.460938 63.476562 115.519531 63.449219 115.550781 C 63.988281 115.792969 66.96875 117.148438 68.773438 117.75 C 68.863281 117.507812 68.921875 117.269531 69.011719 117.058594 C 69.222656 116.515625 69.617188 115.820312 70.15625 114.980469 C 68.742188 114.074219 65.703125 112.269531 65.675781 112.238281 L 65.976562 111.726562 C 66.003906 111.757812 69.074219 113.5625 70.488281 114.496094 C 71.027344 113.746094 71.660156 112.871094 72.414062 111.9375 C 71.660156 110.371094 69.105469 108.234375 69.074219 108.203125 L 69.464844 107.75 C 69.585938 107.839844 71.871094 109.800781 72.804688 111.425781 C 73.4375 110.640625 74.128906 109.800781 74.878906 108.925781 C 73.855469 107.933594 71.421875 105.613281 71.390625 105.582031 L 71.8125 105.132812 C 71.839844 105.160156 74.25 107.449219 75.300781 108.472656 C 75.960938 107.691406 76.683594 106.910156 77.40625 106.09375 C 76.292969 104.921875 73.796875 103.023438 73.796875 102.992188 L 74.15625 102.511719 C 74.277344 102.601562 76.65625 104.4375 77.828125 105.644531 C 78.582031 104.800781 79.363281 103.957031 80.175781 103.113281 C 78.640625 101.726562 76.414062 100.191406 76.414062 100.191406 L 76.746094 99.679688 C 76.835938 99.742188 79.03125 101.246094 80.59375 102.660156 C 81.4375 101.757812 82.308594 100.855469 83.183594 99.953125 C 81.828125 98.746094 79.332031 97.089844 79.300781 97.0625 L 79.632812 96.546875 C 79.753906 96.609375 82.191406 98.296875 83.574219 99.5 C 84.445312 98.597656 85.347656 97.664062 86.25 96.789062 C 85.5 96.035156 83.09375 94.5625 82.160156 94.019531 L 82.460938 93.507812 C 82.820312 93.71875 85.679688 95.402344 86.671875 96.367188 C 87.542969 95.496094 88.417969 94.621094 89.289062 93.746094 C 88.175781 92.722656 84.988281 91.066406 84.957031 91.039062 L 85.226562 90.496094 C 85.378906 90.554688 88.539062 92.210938 89.742188 93.328125 C 90.613281 92.453125 91.484375 91.640625 92.328125 90.828125 C 91.246094 90.105469 90.3125 89.59375 90.28125 89.5625 L 90.582031 89.050781 C 90.582031 89.050781 91.605469 89.652344 92.78125 90.40625 C 93.621094 89.59375 94.464844 88.808594 95.277344 88.085938 L 94.613281 87.484375 L 95.035156 87.03125 L 95.726562 87.664062 C 96.929688 86.550781 98.074219 85.558594 99.066406 84.714844 C 98.734375 84.382812 98.285156 84.050781 97.714844 83.691406 L 98.042969 83.175781 C 98.675781 83.570312 99.15625 83.960938 99.546875 84.320312 C 100.421875 83.597656 101.203125 82.996094 101.835938 82.546875 Z M 62.273438 119.464844 C 63.628906 120.070312 66.636719 121.273438 67.871094 121.332031 C 68.140625 120.160156 68.382812 119.136719 68.621094 118.320312 C 66.816406 117.6875 63.839844 116.363281 63.238281 116.09375 C 62.96875 116.875 62.605469 118.050781 62.273438 119.464844 Z M 66.15625 130.277344 C 66.035156 130.277344 65.914062 130.277344 65.792969 130.277344 C 63.75 130.277344 61.160156 129.253906 60.257812 128.863281 C 59.988281 130.246094 59.75 131.601562 59.507812 132.925781 C 60.230469 133.289062 62.875 134.613281 65.464844 134.613281 C 65.675781 133.167969 65.914062 131.722656 66.15625 130.277344 Z M 64.773438 139.523438 C 64.53125 139.554688 64.261719 139.582031 63.988281 139.582031 C 62.09375 139.582031 59.628906 138.738281 58.636719 138.410156 C 58.484375 139.554688 58.363281 140.515625 58.304688 141.210938 C 58.273438 141.601562 58.242188 141.992188 58.214844 142.382812 C 59.175781 142.535156 62.484375 143.078125 64.382812 142.925781 C 64.472656 141.839844 64.621094 140.695312 64.773438 139.523438 Z M 65.375 135.214844 C 62.847656 135.1875 60.351562 134.042969 59.417969 133.558594 C 59.144531 135.097656 58.9375 136.511719 58.753906 137.777344 C 59.75 138.136719 63.117188 139.3125 64.890625 138.890625 C 65.011719 137.714844 65.191406 136.480469 65.375 135.214844 Z M 67.027344 125.429688 C 64.5 125.21875 62.066406 124.433594 61.222656 124.132812 C 60.953125 125.460938 60.652344 126.875 60.378906 128.289062 C 61.191406 128.652344 64.230469 129.886719 66.277344 129.675781 C 66.488281 128.199219 66.757812 126.753906 67.027344 125.429688 Z M 67.117188 124.828125 C 67.328125 123.800781 67.507812 122.839844 67.71875 121.9375 C 66.214844 121.785156 63.117188 120.488281 62.09375 120.070312 C 61.824219 121.121094 61.582031 122.296875 61.3125 123.53125 C 62.09375 123.800781 64.589844 124.644531 67.117188 124.828125 Z M 63.988281 147.019531 C 64.050781 145.996094 64.171875 144.824219 64.289062 143.527344 C 64.050781 143.558594 63.808594 143.558594 63.539062 143.558594 C 61.582031 143.558594 59.054688 143.136719 58.152344 142.984375 C 58.035156 144.523438 57.972656 145.878906 57.914062 146.992188 C 58.9375 147.019531 62.246094 147.113281 63.988281 147.019531 Z M 96.839844 143.707031 C 95.789062 144.613281 93.441406 146.359375 93.441406 146.359375 C 94.765625 145.878906 96.027344 145.183594 97.109375 144.28125 C 98.375 143.226562 99.457031 141.933594 100.210938 140.488281 C 100.238281 140.457031 98.015625 142.714844 96.839844 143.707031 Z M 38.808594 121.632812 L 38.296875 121.9375 C 38.871094 122.988281 38.539062 126.332031 37.9375 126.785156 C 37.90625 126.8125 37.277344 127.265625 35.953125 127.144531 C 35.953125 127.117188 35.980469 127.085938 35.980469 127.023438 C 36.253906 126.183594 36.824219 124.433594 36.792969 121.875 C 36.792969 121.875 35.679688 126.03125 35.410156 126.84375 C 35.378906 126.933594 35.351562 126.996094 35.351562 127.054688 C 34.6875 126.933594 33.90625 126.664062 32.972656 126.183594 C 33.0625 125.1875 33.96875 120.882812 33.96875 120.882812 C 33.484375 121.332031 32.644531 124.554688 32.402344 125.878906 C 32.253906 125.789062 32.070312 125.699219 31.890625 125.578125 C 31.289062 125.21875 30.746094 124.796875 30.238281 124.34375 C 30.238281 123.289062 31.53125 119.105469 31.53125 119.105469 C 30.898438 119.617188 29.9375 122.355469 29.695312 123.800781 C 29.152344 123.230469 28.671875 122.660156 28.25 122.027344 C 28.222656 120.792969 29.605469 116.816406 29.605469 116.816406 C 28.914062 117.117188 28.039062 119.617188 27.738281 121.183594 C 27.289062 120.371094 26.957031 119.585938 26.71875 118.804688 C 26.65625 117.417969 28.402344 112.75 28.402344 112.75 C 28.25 112.75 28.128906 112.8125 28.011719 112.960938 C 27.527344 113.472656 26.71875 115.582031 26.324219 117.238281 C 26.234375 116.695312 26.207031 116.214844 26.207031 115.820312 C 26.207031 114.679688 28.640625 109.859375 28.640625 109.859375 C 28.460938 109.800781 28.28125 109.859375 28.101562 110.011719 C 27.167969 110.734375 25.722656 114.46875 25.632812 115.703125 C 23.859375 117.6875 18.171875 124.945312 14.414062 139.761719 L 14.984375 139.914062 C 18.445312 126.242188 23.527344 119.105469 25.632812 116.605469 C 25.875 119.316406 27.5 123.59375 31.558594 126.0625 C 33.664062 127.355469 35.261719 127.71875 36.34375 127.71875 C 37.003906 127.71875 37.457031 127.597656 37.789062 127.476562 C 37.789062 129.253906 37.457031 135.9375 33.847656 146.269531 L 34.417969 146.480469 C 38.390625 135.1875 38.417969 128.167969 38.390625 127.117188 C 39.203125 126.242188 39.472656 122.839844 38.808594 121.632812 Z M 93.773438 85.347656 L 91.757812 83.71875 L 91.367188 84.203125 L 93.382812 85.828125 Z M 96.601562 81.972656 L 94.613281 80.917969 L 94.34375 81.460938 L 96.328125 82.515625 Z M 53.882812 120.25 C 53.640625 121.542969 52.496094 122.449219 51.203125 122.449219 C 48.796875 122.417969 46.269531 122.085938 44.585938 121.816406 C 43.535156 121.632812 42.660156 120.851562 42.390625 119.828125 L 41.820312 119.976562 C 42.148438 121.242188 43.203125 122.207031 44.496094 122.417969 C 46.210938 122.6875 48.769531 123.019531 51.203125 123.050781 C 51.203125 123.050781 51.234375 123.050781 51.234375 123.050781 C 52.800781 123.050781 54.183594 121.933594 54.484375 120.371094 L 56.527344 109.949219 L 55.925781 109.828125 Z M 41.847656 101.636719 L 41.820312 100.132812 C 44.015625 99.257812 45.308594 100.070312 46.660156 100.945312 C 46.871094 101.097656 47.113281 101.246094 47.355469 101.367188 L 47.65625 100.855469 C 47.445312 100.734375 47.203125 100.585938 46.992188 100.433594 C 45.519531 99.5 44.015625 98.507812 41.398438 99.652344 L 41.21875 99.742188 L 41.277344 101.636719 Z M 56.527344 106.878906 L 57.128906 107 L 57.671875 104.257812 L 57.070312 104.136719 Z M 80.867188 57.578125 C 81.226562 57.789062 81.589844 57.882812 81.980469 57.882812 C 82.402344 57.882812 82.820312 57.789062 83.152344 57.671875 C 83.152344 57.671875 81.769531 57.429688 81.199219 57.066406 C 80.625 56.707031 80.476562 55.894531 80.625 55.292969 C 80.804688 54.566406 81.289062 53.9375 81.769531 53.394531 C 81.859375 53.273438 81.949219 53.183594 82.070312 53.0625 C 82.519531 52.582031 82.972656 52.070312 83.304688 51.464844 C 83.605469 50.894531 83.785156 50.261719 83.964844 49.660156 C 84.117188 49.179688 84.234375 48.695312 84.417969 48.246094 C 85.078125 46.769531 86.972656 46.558594 86.972656 46.558594 C 85.738281 46.136719 84.386719 46.828125 83.875 48.003906 C 83.664062 48.484375 83.515625 48.996094 83.363281 49.507812 C 83.214844 50.109375 83.03125 50.683594 82.761719 51.195312 C 82.460938 51.738281 82.039062 52.1875 81.617188 52.671875 C 81.527344 52.792969 81.40625 52.882812 81.316406 53.003906 C 80.804688 53.574219 80.234375 54.296875 80.023438 55.140625 C 79.785156 56.132812 80.144531 57.128906 80.867188 57.578125 Z M 78.097656 61.011719 C 78.609375 61.34375 79.273438 61.585938 79.964844 61.585938 C 80.566406 61.585938 81.167969 61.40625 81.648438 60.984375 L 81.257812 60.53125 C 80.503906 61.195312 79.242188 61.042969 78.460938 60.5 C 78.21875 60.351562 77.316406 59.144531 77.316406 59.144531 C 77.074219 59.808594 77.375 60.5 78.097656 61.011719 Z M 51.234375 98.867188 L 50.964844 99.410156 C 51.265625 99.558594 51.925781 99.5 53.160156 99.410156 C 53.550781 99.378906 53.972656 99.347656 54.363281 99.320312 C 54.996094 99.289062 55.746094 99.46875 56.410156 99.769531 C 55.597656 99.832031 54.632812 100.253906 53.671875 100.644531 C 53.492188 100.703125 53.339844 100.792969 53.160156 100.855469 L 53.402344 101.398438 C 53.582031 101.335938 53.761719 101.246094 53.910156 101.1875 C 55.867188 100.34375 57.128906 99.890625 57.703125 100.976562 L 57.25 103.234375 L 57.851562 103.355469 L 58.335938 100.914062 L 58.304688 100.824219 C 57.824219 99.46875 55.835938 98.625 54.363281 98.71875 C 53.972656 98.746094 53.550781 98.777344 53.160156 98.808594 C 52.40625 98.867188 51.445312 98.925781 51.234375 98.867188 Z M 51.234375 98.867188 " fill-opacity="1" fill-rule="nonzero"/><path fill="#f3eff9" d="M 50.964844 50.292969 C 49.25 50.292969 47.867188 48.847656 47.867188 47.039062 C 47.867188 46.585938 47.957031 46.167969 48.105469 45.746094 C 50.601562 46.167969 52.257812 47.402344 53.160156 48.335938 C 53.21875 48.605469 53.25 48.847656 53.28125 49.117188 C 52.738281 49.839844 51.894531 50.292969 50.964844 50.292969 Z M 72.023438 45.414062 C 71.933594 45.261719 71.871094 45.140625 71.78125 45.050781 L 67.691406 45.59375 C 67.148438 45.925781 66.847656 46.527344 66.667969 47.21875 C 67.058594 48.335938 68.109375 49.148438 69.34375 49.148438 C 70.910156 49.148438 72.171875 47.882812 72.171875 46.316406 C 72.171875 45.984375 72.140625 45.683594 72.023438 45.414062 Z M 72.023438 45.414062 " fill-opacity="1" fill-rule="nonzero"/><g clip-path="url(#7048077275)"><path fill="#110c0e" d="M 50.484375 120.488281 C 50.484375 119.617188 51.175781 118.925781 52.046875 118.925781 C 52.917969 118.925781 53.609375 119.617188 53.609375 120.488281 C 53.609375 121.363281 52.917969 122.054688 52.046875 122.054688 C 51.175781 122.054688 50.484375 121.363281 50.484375 120.488281 Z M 48.46875 122.175781 C 49.339844 122.175781 50.03125 121.484375 50.03125 120.609375 C 50.03125 119.738281 49.339844 119.042969 48.46875 119.042969 C 47.59375 119.042969 46.902344 119.738281 46.902344 120.609375 C 46.902344 121.484375 47.59375 122.175781 48.46875 122.175781 Z M 44.855469 121.785156 C 45.730469 121.785156 46.421875 121.09375 46.421875 120.21875 C 46.421875 119.34375 45.730469 118.652344 44.855469 118.652344 C 43.984375 118.652344 43.292969 119.34375 43.292969 120.21875 C 43.292969 121.09375 43.984375 121.785156 44.855469 121.785156 Z M 141.183594 135.125 L 140.882812 135.246094 C 121.78125 142.925781 102.949219 147.835938 84.925781 149.761719 C 78.941406 150.394531 73.015625 150.726562 67.207031 150.726562 C 59.054688 150.726562 51.113281 150.09375 43.441406 148.828125 C 21.152344 145.125 8.90625 137.171875 8.789062 137.082031 L 8.667969 136.964844 L 8.695312 136.78125 C 10.382812 123.894531 18.113281 105.433594 23.496094 96.097656 C 23.558594 92.363281 24.761719 88.476562 26.71875 85.648438 C 27.589844 84.382812 28.640625 83.238281 29.664062 82.125 C 30.355469 81.339844 31.078125 80.558594 31.742188 79.746094 C 32.523438 78.78125 33.15625 77.816406 33.605469 76.914062 C 33.394531 76.25 32.34375 73.992188 31.859375 73 C 31.710938 72.699219 31.621094 72.488281 31.558594 72.367188 C 31.257812 71.703125 30.746094 70.226562 30.65625 69.898438 L 30.65625 69.867188 C 30.355469 68.84375 29.515625 65.230469 31.109375 61.285156 C 30.808594 59.539062 30.746094 57.007812 32.042969 54.839844 C 32.460938 54.175781 32.972656 53.574219 33.484375 53.003906 C 33.785156 52.640625 34.117188 52.28125 34.386719 51.917969 C 36.191406 49.539062 36.886719 46.285156 36.222656 43.335938 C 36.042969 43.367188 35.863281 43.367188 35.652344 43.394531 L 35.289062 43.425781 L 35.652344 40.566406 C 35.289062 38.605469 35.441406 34.84375 36.34375 32.164062 C 36.253906 32.285156 36.164062 32.402344 36.074219 32.523438 C 35.980469 32.675781 35.800781 32.734375 35.621094 32.675781 C 35.472656 32.613281 35.351562 32.433594 35.410156 32.253906 C 35.621094 31.167969 36.074219 28.761719 36.433594 27.433594 C 35.410156 27.554688 34.597656 26.953125 34.539062 26.921875 L 34.207031 26.683594 L 34.539062 26.441406 C 35.679688 25.628906 37.394531 22.976562 39.261719 20.175781 C 41.519531 16.742188 43.835938 13.21875 45.667969 12.046875 C 52.707031 4.125 61.972656 0 72.472656 0.152344 C 81.046875 0.269531 86.972656 3.734375 90.402344 6.625 C 94.433594 10 97.320312 14.484375 98.105469 18.609375 C 98.523438 20.808594 98.734375 22.765625 98.976562 24.632812 C 99.488281 29.089844 99.910156 32.945312 102.855469 37.765625 C 107.308594 45.023438 108.421875 48.515625 107.910156 53.363281 C 107.910156 53.453125 107.882812 53.542969 107.882812 53.605469 C 108.152344 54.027344 109.414062 55.953125 111.160156 57.882812 C 111.402344 58.152344 111.671875 58.453125 111.972656 58.753906 C 114.078125 60.953125 117.238281 64.234375 118.109375 71.734375 C 121.058594 74.777344 123.132812 78.570312 124.125 82.664062 C 124.367188 83.71875 124.578125 84.832031 124.726562 85.886719 C 124.847656 86.550781 124.96875 87.242188 125.089844 87.9375 C 125.390625 88.265625 127.042969 90.074219 130.050781 92.210938 C 133.363281 94.589844 136.398438 97.152344 136.972656 102.332031 C 139.257812 105.101562 140.582031 108.746094 140.550781 112.328125 C 140.550781 113.292969 140.402344 114.828125 140.25 116.574219 C 139.769531 122.207031 139.046875 130.730469 141.03125 134.765625 Z M 24.160156 95.011719 C 25.664062 92.511719 26.957031 90.828125 27.800781 90.375 C 30.238281 88.75 34.058594 87.332031 37.605469 86.1875 C 41.1875 82.546875 44.074219 73.84375 43.984375 71.460938 C 43.804688 70.199219 43.5625 68.992188 43.324219 67.910156 C 42.75 65.078125 42.300781 62.820312 43.203125 61.375 C 42.660156 60.589844 42.300781 59.898438 42.238281 59.417969 C 42.121094 58.394531 41.519531 55.140625 40.824219 51.527344 C 40.585938 52.070312 40.222656 52.609375 39.832031 53.242188 C 38.601562 55.171875 36.375 62.097656 36.375 62.097656 C 36.3125 57.671875 38.058594 54.929688 39.320312 52.941406 C 40.011719 51.859375 40.554688 50.984375 40.585938 50.203125 C 40.3125 48.847656 40.074219 47.492188 39.832031 46.195312 C 39.621094 45.082031 39.410156 44.027344 39.230469 43.09375 L 38.839844 42.882812 C 38.539062 42.972656 37.695312 43.183594 36.765625 43.335938 C 37.457031 46.40625 36.734375 49.839844 34.808594 52.371094 C 34.507812 52.761719 34.175781 53.121094 33.875 53.484375 C 33.363281 54.054688 32.882812 54.628906 32.492188 55.261719 C 31.257812 57.277344 31.347656 59.6875 31.652344 61.375 L 31.679688 61.464844 L 31.652344 61.554688 C 30.085938 65.347656 30.898438 68.84375 31.199219 69.804688 L 31.199219 69.835938 C 31.289062 70.136719 31.800781 71.582031 32.070312 72.214844 C 32.132812 72.335938 32.222656 72.578125 32.371094 72.847656 C 33.183594 74.566406 34.058594 76.460938 34.175781 76.972656 L 34.207031 77.0625 L 34.148438 77.15625 C 33.664062 78.148438 33.003906 79.171875 32.160156 80.195312 C 31.5 81.039062 30.746094 81.824219 30.054688 82.605469 C 29.0625 83.691406 28.011719 84.832031 27.167969 86.070312 C 25.511719 88.449219 24.402344 91.730469 24.160156 95.011719 Z M 41.667969 43.09375 L 41.847656 42.945312 C 41.277344 43.09375 40.707031 43.183594 40.164062 43.183594 C 40.074219 43.183594 40.011719 43.183594 39.921875 43.183594 C 40.074219 44.058594 40.285156 45.023438 40.464844 46.046875 C 40.675781 47.128906 40.886719 48.246094 41.097656 49.359375 C 41.1875 49.597656 41.246094 49.871094 41.246094 50.113281 C 42.027344 54.207031 42.75 58.152344 42.902344 59.296875 C 43.113281 60.953125 47.65625 65.769531 51.566406 69.023438 L 51.6875 68.058594 C 51.835938 67.246094 52.890625 66.976562 53.851562 67.125 C 54.875 67.308594 55.476562 67.878906 55.386719 68.542969 L 54.996094 71.492188 C 55.597656 71.824219 55.957031 71.945312 56.167969 71.976562 C 57.550781 72.214844 58.574219 72.304688 58.574219 72.304688 L 58.785156 72.335938 L 58.816406 72.546875 C 58.9375 73.148438 59.929688 78.417969 58.273438 79.804688 C 57.972656 80.046875 57.433594 80.347656 56.648438 80.679688 C 60.980469 83.117188 61.703125 87.632812 61.792969 89.894531 L 62.996094 90.015625 L 62.667969 93.265625 L 61.101562 93.117188 L 58.605469 107.660156 C 60.800781 111.09375 62.605469 113.804688 63.238281 114.738281 C 67.027344 109.589844 79.300781 96.398438 86.582031 88.6875 C 81.226562 85.648438 80.324219 79.414062 80.203125 78.300781 C 79.753906 78.027344 79.453125 77.785156 79.242188 77.515625 C 77.585938 75.40625 78.488281 63.453125 79.964844 61.585938 C 80.566406 60.800781 81.707031 60.140625 83.121094 59.296875 C 85.136719 58.089844 87.664062 56.554688 89.621094 54.117188 C 91.003906 52.371094 91.605469 50.683594 91.394531 49.058594 C 91.125 46.980469 89.589844 45.683594 89.289062 45.445312 C 86.160156 44.8125 83.183594 42.339844 81.5 40.714844 C 81.679688 41.015625 81.890625 41.289062 82.101562 41.527344 L 82.519531 41.980469 L 81.917969 42.039062 C 81.800781 42.039062 78.941406 42.339844 76.957031 40.566406 C 75.480469 41.136719 73.015625 40.59375 71.601562 39.691406 C 65.074219 38.726562 62.847656 32.101562 61.761719 27.011719 L 57.371094 29.0625 L 58.574219 27.554688 L 53.972656 29.601562 L 54.964844 27.976562 C 53.792969 28.578125 52.136719 29.390625 52.015625 29.421875 L 51.445312 29.632812 L 51.804688 28.609375 C 51.054688 29.03125 49.820312 29.785156 49.308594 30.445312 C 48.886719 30.988281 48.828125 31.589844 48.769531 32.675781 C 48.707031 33.488281 48.648438 34.601562 48.375 36.109375 C 48.046875 37.855469 46.871094 39.691406 45.277344 41.078125 C 52.078125 41.316406 53.972656 41.46875 53.972656 41.46875 C 53.582031 42.28125 52.046875 43.0625 51.714844 43.035156 C 51.386719 43.003906 44.074219 42.492188 43.503906 42.550781 C 42.929688 42.550781 42 42.882812 41.667969 43.09375 Z M 60.679688 25.960938 L 60.378906 26.320312 C 60.5 26.5 60.621094 26.683594 60.679688 26.832031 L 61.222656 26.589844 C 60.558594 25.085938 57.640625 22.527344 54.996094 21.894531 C 54.695312 21.953125 54.421875 22.015625 54.121094 22.132812 C 53.941406 22.195312 53.730469 22.285156 53.550781 22.375 C 55.898438 22.164062 59.027344 24.574219 60.230469 26.140625 Z M 51.355469 24.210938 C 51.175781 24.453125 50.992188 24.695312 50.84375 24.964844 C 52.136719 24.511719 54.210938 24.816406 56.136719 25.75 C 56.980469 26.167969 57.671875 26.621094 58.125 27.101562 L 58.695312 26.832031 C 58.183594 26.261719 57.371094 25.6875 56.378906 25.207031 C 54.964844 24.511719 52.980469 23.941406 51.355469 24.210938 Z M 49.941406 26.832031 C 49.851562 27.074219 49.761719 27.285156 49.699219 27.523438 C 51.777344 26.863281 53.402344 27.253906 54.304688 27.644531 C 54.542969 27.523438 54.753906 27.40625 54.996094 27.3125 C 54.121094 26.832031 52.347656 26.199219 49.941406 26.832031 Z M 38.449219 121.515625 C 41.546875 120.488281 43.113281 118.59375 43.113281 118.5625 L 43.140625 118.53125 C 44.042969 117.6875 46.78125 117.328125 49.429688 116.964844 C 50.8125 116.785156 52.105469 116.605469 52.828125 116.394531 C 54.003906 116.0625 54.453125 114.980469 54.273438 114.347656 C 54.210938 114.105469 54.03125 113.835938 53.550781 113.925781 C 49.339844 114.796875 44.675781 114.195312 43.382812 113.925781 L 43.351562 113.925781 C 42.210938 113.535156 41.277344 112.238281 41.246094 112.179688 L 41.007812 111.816406 L 41.425781 111.726562 C 41.488281 111.726562 42.871094 111.363281 43.804688 111.246094 C 44.828125 111.09375 50.84375 110.460938 53.160156 110.371094 C 55.386719 110.28125 57.191406 109.378906 57.222656 108.355469 C 57.222656 107.871094 57.160156 107.632812 57.011719 107.449219 C 56.621094 107.058594 55.566406 106.878906 53.582031 106.878906 C 50.722656 106.878906 46.722656 107.089844 44.585938 107.210938 C 44.074219 107.238281 43.652344 107.269531 43.441406 107.269531 C 42.328125 107.328125 40.011719 107.601562 39.984375 107.601562 L 37.996094 107.839844 L 39.832031 107.027344 C 39.921875 107 41.847656 106.125 43.171875 105.976562 C 44.316406 105.855469 47.503906 105.523438 52.4375 105.492188 C 54.84375 105.460938 56.378906 105.070312 56.980469 104.316406 C 57.28125 103.925781 57.339844 103.445312 57.191406 102.8125 C 56.949219 101.726562 55.988281 101.636719 53.882812 101.519531 C 53.640625 101.519531 53.402344 101.488281 53.128906 101.488281 C 50.8125 101.335938 46.058594 101.519531 44.496094 101.578125 L 44.253906 101.578125 C 42.929688 101.636719 40.3125 102.269531 40.285156 102.300781 L 39.921875 102.390625 L 39.921875 99.800781 L 40.105469 99.710938 C 40.253906 99.652344 43.652344 98.023438 46.902344 97.691406 C 49.519531 97.421875 50.875 96.546875 50.875 95.132812 C 50.875 94.953125 50.84375 94.832031 50.722656 94.742188 C 50.363281 94.410156 49.277344 94.320312 47.355469 94.46875 C 45.910156 94.589844 41.15625 95.523438 38.660156 96.308594 C 36.433594 97 34.660156 98.808594 33.605469 99.890625 C 33.484375 100.011719 33.363281 100.132812 33.273438 100.222656 C 32.28125 101.214844 31.679688 102.691406 31.621094 104.257812 L 31.621094 104.316406 L 31.078125 105.523438 C 30.597656 106.605469 29.84375 108.292969 28.914062 110.371094 C 28.039062 115.160156 30.539062 118.109375 32.070312 119.4375 C 34.328125 121.304688 37.09375 121.964844 38.449219 121.515625 L 38.539062 121.785156 Z M 39.53125 90.464844 L 48.527344 91.308594 L 48.796875 89.351562 L 39.019531 88.449219 L 38.808594 90.496094 L 39.53125 90.554688 Z M 44.496094 80.527344 C 46.089844 79.59375 47.984375 79.050781 50.179688 79.082031 L 51.445312 69.746094 C 48.859375 67.636719 45.457031 64.355469 43.59375 61.886719 C 42.992188 63.152344 43.382812 65.230469 43.894531 67.757812 C 44.105469 68.722656 44.285156 69.777344 44.464844 70.859375 C 44.496094 70.980469 44.527344 71.101562 44.527344 71.28125 C 45.007812 74.023438 45.1875 77.125 44.496094 80.527344 Z M 44.285156 73.75 C 43.503906 77.246094 41.308594 82.726562 38.75 85.828125 C 39.261719 85.675781 39.742188 85.527344 40.222656 85.375 C 40.976562 83.691406 42.179688 82.125 43.773438 81.007812 C 44.40625 78.390625 44.464844 75.980469 44.285156 73.75 Z M 40.074219 87.90625 L 48.859375 88.71875 L 49.878906 81.308594 C 49.1875 81.039062 48.828125 80.738281 48.796875 80.707031 L 49.1875 80.257812 C 49.1875 80.257812 49.460938 80.46875 49.972656 80.707031 L 50.121094 79.714844 C 44.4375 79.625 40.824219 83.691406 40.074219 87.90625 Z M 40.132812 91.1875 L 40.253906 95.164062 C 42.839844 94.53125 46.121094 93.898438 47.292969 93.808594 C 47.625 93.777344 47.925781 93.777344 48.195312 93.746094 L 48.4375 91.941406 Z M 47.59375 98.175781 C 47.382812 98.203125 47.171875 98.234375 46.960938 98.265625 C 44.226562 98.535156 41.277344 99.832031 40.523438 100.164062 L 40.523438 101.609375 C 41.308594 101.425781 43.140625 101.003906 44.253906 100.976562 L 44.496094 100.976562 C 45.128906 100.945312 46.121094 100.914062 47.234375 100.886719 Z M 40.945312 121.03125 L 40.976562 122.507812 C 41.96875 122.960938 47.382812 125.15625 55.234375 123.921875 L 60.53125 93.085938 L 52.289062 92.332031 L 51.175781 100.792969 C 51.894531 100.792969 52.589844 100.824219 53.128906 100.855469 C 53.402344 100.886719 53.640625 100.886719 53.882812 100.886719 C 55.898438 100.976562 57.371094 101.066406 57.734375 102.660156 C 57.914062 103.503906 57.824219 104.167969 57.402344 104.679688 C 56.679688 105.582031 55.054688 106.035156 52.40625 106.066406 C 47.503906 106.125 44.34375 106.425781 43.203125 106.546875 C 42.960938 106.578125 42.691406 106.636719 42.390625 106.699219 C 42.75 106.667969 43.113281 106.636719 43.382812 106.636719 C 43.59375 106.636719 44.015625 106.605469 44.527344 106.578125 C 46.691406 106.457031 50.691406 106.246094 53.550781 106.246094 C 55.808594 106.246094 56.890625 106.457031 57.402344 107 C 57.761719 107.390625 57.824219 107.871094 57.792969 108.324219 C 57.761719 109.707031 55.777344 110.824219 53.160156 110.914062 C 50.722656 111.003906 44.738281 111.667969 43.863281 111.785156 C 43.261719 111.878906 42.480469 112.058594 42 112.179688 C 42.328125 112.539062 42.871094 113.113281 43.503906 113.324219 C 44.796875 113.59375 49.339844 114.164062 53.429688 113.324219 C 54.152344 113.171875 54.695312 113.503906 54.875 114.164062 C 55.117188 115.160156 54.421875 116.515625 53.007812 116.9375 C 52.679688 117.027344 52.289062 117.117188 51.804688 117.207031 C 51.867188 117.386719 51.925781 117.570312 51.925781 117.78125 C 51.925781 118.652344 51.234375 119.34375 50.363281 119.34375 C 49.488281 119.34375 48.796875 118.652344 48.796875 117.78125 C 48.796875 117.71875 48.796875 117.6875 48.796875 117.628906 C 48.675781 117.660156 48.558594 117.660156 48.4375 117.6875 C 48.40625 118.53125 47.714844 119.195312 46.871094 119.195312 C 46.210938 119.195312 45.667969 118.773438 45.429688 118.203125 C 44.585938 118.410156 43.894531 118.652344 43.5625 118.925781 C 43.441406 119.105469 42.601562 120.097656 40.945312 121.03125 Z M 54.875 81.429688 C 54.453125 81.550781 54.0625 81.613281 53.703125 81.671875 L 52.738281 89.050781 L 61.253906 89.832031 C 61.132812 87.304688 60.140625 81.941406 53.910156 80.195312 L 53.792969 81.039062 C 54.09375 80.980469 54.394531 80.917969 54.722656 80.828125 Z M 56.019531 80.347656 C 57.222656 79.835938 57.734375 79.535156 57.941406 79.351562 C 59.085938 78.417969 58.636719 74.566406 58.335938 72.910156 C 57.941406 72.878906 57.128906 72.789062 56.109375 72.605469 C 55.808594 72.546875 55.417969 72.394531 54.933594 72.15625 L 53.972656 79.59375 C 54.722656 79.804688 55.386719 80.074219 56.019531 80.347656 Z M 54.421875 68.570312 C 54.03125 68.664062 53.519531 68.601562 53.25 68.570312 C 52.828125 68.511719 52.496094 68.332031 52.46875 68.332031 C 52.46875 68.332031 52.558594 69.054688 53.101562 69.144531 C 53.25 69.175781 53.429688 69.175781 53.609375 69.175781 C 53.851562 69.203125 54.421875 68.570312 54.421875 68.570312 Z M 52.40625 91.640625 L 61.28125 92.453125 L 61.28125 92.511719 L 62.214844 92.605469 L 62.425781 90.554688 L 52.679688 89.652344 Z M 126.019531 140.035156 C 125.871094 138.226562 124.816406 126.453125 122.140625 111.636719 C 119.882812 99.046875 114.4375 90.105469 110.078125 86.851562 C 107.910156 85.226562 103.757812 83.480469 99.488281 82.425781 C 99.15625 82.546875 98.617188 82.90625 97.621094 84.261719 L 97.414062 84.5625 C 96.328125 86.070312 95.097656 87.785156 93.5625 88.660156 C 92.75 89.109375 89.980469 90.464844 87.183594 88.988281 C 79.753906 96.851562 67 110.582031 63.539062 115.429688 L 63.296875 115.792969 L 63.058594 115.429688 C 63.027344 115.402344 61.070312 112.507812 58.515625 108.566406 L 55.777344 124.433594 L 55.566406 124.464844 C 53.730469 124.765625 52.015625 124.886719 50.453125 124.886719 C 44.464844 124.886719 40.765625 123.050781 40.585938 122.960938 L 40.433594 122.871094 L 40.40625 121.332031 C 39.894531 121.605469 39.320312 121.84375 38.691406 122.054688 C 38.328125 122.175781 37.9375 122.238281 37.488281 122.238281 C 35.742188 122.238281 33.457031 121.304688 31.679688 119.796875 C 30.027344 118.382812 27.378906 115.21875 28.3125 110.128906 L 28.613281 110.191406 L 28.339844 110.070312 C 29.273438 107.992188 30.027344 106.277344 30.507812 105.191406 L 30.988281 104.109375 C 31.078125 102.390625 31.742188 100.824219 32.824219 99.742188 C 32.914062 99.652344 33.035156 99.53125 33.15625 99.410156 C 34.238281 98.296875 36.074219 96.429688 38.449219 95.675781 C 38.808594 95.554688 39.230469 95.433594 39.652344 95.34375 L 39.53125 91.15625 L 38.148438 91.039062 L 38.480469 87.785156 L 39.472656 87.875 C 39.5625 87.273438 39.742188 86.671875 39.953125 86.097656 C 35.890625 87.332031 31.019531 88.988281 28.128906 90.886719 C 24.761719 92.722656 11.765625 118.683594 9.328125 136.660156 C 10.832031 137.59375 22.804688 144.761719 43.625 148.226562 C 61.703125 151.238281 89.953125 151.898438 126.019531 140.035156 Z M 135.167969 127.117188 C 135.167969 127.117188 138.386719 132.476562 140.128906 134.164062 C 138.566406 129.707031 139.226562 121.875 139.679688 116.574219 C 139.828125 114.828125 139.949219 113.292969 139.949219 112.359375 C 139.980469 108.894531 138.6875 105.371094 136.460938 102.691406 L 136.398438 102.632812 L 136.398438 102.542969 C 135.886719 97.511719 133.0625 95.132812 129.722656 92.753906 C 126.320312 90.34375 124.667969 88.386719 124.578125 88.328125 L 124.515625 88.265625 L 124.488281 88.175781 C 124.335938 87.484375 124.214844 86.730469 124.097656 86.039062 C 123.914062 84.984375 123.734375 83.898438 123.496094 82.875 C 122.53125 78.839844 120.484375 75.136719 117.566406 72.15625 L 117.507812 72.09375 L 117.507812 72.003906 C 116.695312 64.65625 113.597656 61.40625 111.519531 59.265625 C 111.21875 58.964844 110.949219 58.664062 110.679688 58.363281 C 108.691406 56.132812 107.28125 53.9375 107.28125 53.90625 L 107.21875 53.816406 L 107.21875 53.726562 C 107.21875 53.605469 107.25 53.484375 107.25 53.363281 C 107.761719 48.664062 106.648438 45.261719 102.285156 38.125 C 99.246094 33.1875 98.824219 29.273438 98.316406 24.753906 C 98.105469 22.886719 97.894531 20.929688 97.472656 18.761719 C 96.691406 14.785156 93.890625 10.417969 89.953125 7.105469 C 86.640625 4.277344 80.867188 0.875 72.441406 0.753906 C 62.847656 0.632812 54.273438 4.125 47.535156 10.933594 C 49.21875 10 51.203125 9.214844 54.363281 9.394531 C 54.363281 9.394531 48.585938 10.992188 46.542969 12.226562 C 46.359375 12.347656 46.179688 12.4375 46.03125 12.558594 C 44.316406 13.640625 41.910156 17.316406 39.773438 20.539062 C 38.089844 23.128906 36.464844 25.566406 35.261719 26.652344 C 35.589844 26.800781 36.101562 26.953125 36.644531 26.773438 C 37.578125 24.484375 41.035156 21.621094 41.035156 21.621094 C 41.007812 21.652344 37.96875 24.90625 37.15625 27.132812 C 36.855469 27.917969 36.433594 30.085938 36.164062 31.441406 C 36.644531 30.867188 37.1875 30.296875 37.488281 29.964844 C 37.546875 29.875 37.636719 29.8125 37.726562 29.722656 C 39.53125 27.222656 42.628906 25.417969 42.628906 25.417969 C 42.601562 25.445312 39.921875 27.707031 38.148438 30.113281 C 38.148438 30.113281 38.058594 30.207031 37.90625 30.355469 C 36.464844 32.011719 35.832031 36.558594 36.042969 39.421875 C 36.765625 38.09375 38.296875 35.957031 40.375 33.125 C 42 30.929688 44.617188 28.066406 44.617188 28.066406 C 44.042969 29.179688 42.511719 31.257812 40.886719 33.488281 C 38.871094 36.257812 36.34375 39.691406 36.222656 40.625 L 35.953125 42.792969 C 37.246094 42.644531 38.570312 42.28125 38.78125 42.222656 C 41.488281 40.835938 45.007812 34.421875 45.007812 34.421875 C 44.554688 35.503906 42.179688 40.683594 39.503906 42.492188 L 39.621094 42.550781 C 43.261719 42.914062 47.234375 39.179688 47.804688 35.957031 C 48.074219 34.480469 48.136719 33.425781 48.195312 32.585938 C 48.226562 32.285156 48.226562 32.011719 48.257812 31.769531 C 48.527344 28.609375 49.640625 23.039062 53.941406 21.5625 C 57.402344 20.359375 60.050781 22.496094 61.253906 23.761719 C 61.191406 23.308594 61.101562 22.886719 61.042969 22.464844 C 60.953125 21.832031 60.859375 21.261719 60.769531 20.71875 C 60.769531 20.71875 61.371094 22.707031 61.855469 24.421875 C 61.945312 24.542969 62.003906 24.605469 62.003906 24.632812 L 61.914062 24.695312 C 62.066406 25.238281 62.183594 25.71875 62.273438 26.109375 L 62.367188 26.472656 C 63.328125 31.109375 65.191406 37.28125 70.636719 38.816406 C 67.902344 36.078125 67.027344 30.113281 67.027344 30.113281 C 67.78125 32.433594 70.125 38.578125 71.871094 39.058594 L 71.902344 39.058594 L 71.960938 39.089844 C 73.285156 39.933594 75.300781 40.324219 76.535156 40.023438 C 73.976562 37.492188 71.601562 31.5 71.511719 31.230469 C 71.511719 31.230469 74.609375 37.492188 77.167969 39.78125 L 77.316406 39.933594 C 78.609375 41.199219 80.445312 41.378906 81.347656 41.40625 C 80.714844 40.535156 80.265625 39.421875 80.175781 39.179688 C 77.4375 36.015625 75.359375 27.675781 75.269531 27.3125 C 75.269531 27.3125 78.007812 35.808594 80.65625 38.816406 C 80.6875 38.878906 84.835938 43.695312 89.199219 44.722656 L 89.199219 44.691406 C 90.011719 44.871094 90.765625 44.902344 91.457031 44.78125 C 92.085938 44.601562 92.660156 44.417969 93.019531 44.328125 C 92.296875 43.035156 91.667969 40.625 90.914062 37.675781 C 90.3125 35.265625 89.621094 32.613281 88.75 30.054688 C 87.636719 26.742188 84.71875 21.109375 84.71875 21.109375 C 88.296875 24.964844 90.070312 31.921875 91.484375 37.523438 C 92.269531 40.625 92.960938 43.273438 93.710938 44.359375 L 93.953125 44.722656 L 93.53125 44.839844 C 93.53125 44.839844 92.660156 45.082031 91.574219 45.414062 L 91.546875 45.414062 C 91.246094 45.472656 90.914062 45.503906 90.582031 45.503906 C 90.492188 45.503906 90.402344 45.503906 90.28125 45.503906 C 90.914062 46.167969 91.785156 47.339844 91.996094 48.96875 C 92.238281 50.773438 91.605469 52.609375 90.101562 54.476562 C 88.085938 57.007812 85.5 58.542969 83.421875 59.808594 C 82.101562 60.589844 80.988281 61.285156 80.445312 61.976562 C 79.121094 63.664062 78.277344 75.316406 79.722656 77.15625 C 79.902344 77.394531 80.234375 77.636719 80.65625 77.878906 L 80.804688 77.96875 L 80.804688 78.117188 C 80.804688 78.179688 81.347656 85.285156 87.214844 88.355469 C 89.800781 89.832031 92.449219 88.566406 93.199219 88.148438 C 94.613281 87.332031 95.816406 85.675781 96.871094 84.230469 L 97.082031 83.929688 C 98.253906 82.304688 98.855469 81.972656 99.335938 81.824219 L 99.425781 81.792969 L 99.519531 81.824219 C 103.941406 82.9375 108.121094 84.683594 110.40625 86.371094 C 114.558594 89.472656 120.246094 97.902344 122.710938 111.515625 C 125.328125 126 126.382812 137.566406 126.5625 139.824219 C 128.820312 139.070312 131.105469 138.289062 133.390625 137.445312 C 131.917969 134.222656 132.609375 128.230469 133.242188 122.417969 C 133.8125 117.359375 133.902344 110.101562 133.902344 110.101562 C 134.957031 112.449219 134.414062 117.328125 133.84375 122.476562 C 133.179688 128.230469 132.519531 134.164062 133.964844 137.234375 C 135.917969 136.511719 137.902344 135.757812 139.917969 134.945312 C 138.144531 133.953125 135.46875 130.730469 135.167969 127.117188 Z M 87.453125 86.308594 C 87.574219 86.429688 87.574219 86.640625 87.453125 86.761719 C 87.394531 86.851562 87.273438 86.882812 87.183594 86.882812 C 87.125 86.882812 87.0625 86.851562 87.003906 86.820312 C 84.6875 85.375 82.972656 82.484375 82.429688 79.050781 L 82.339844 78.507812 L 82.820312 78.71875 C 83.121094 78.839844 83.484375 78.960938 83.90625 79.082031 C 83.785156 78.269531 83.695312 77.394531 83.632812 76.433594 C 83.453125 74.261719 83.242188 71.824219 82.460938 69.957031 C 82.460938 69.957031 83.964844 71.914062 84.234375 76.371094 C 84.296875 77.484375 84.417969 78.539062 84.566406 79.414062 C 84.65625 79.714844 85.832031 84.5625 87.453125 86.308594 Z M 86.070312 85.316406 C 84.988281 83.296875 84.234375 80.496094 84.054688 79.773438 C 83.722656 79.683594 83.394531 79.59375 83.121094 79.503906 C 83.605469 81.851562 84.65625 83.929688 86.070312 85.316406 Z M 41.035156 45.203125 C 41.035156 45.203125 42.628906 45.050781 45.15625 44.929688 C 47.355469 44.839844 51.746094 45.414062 53.460938 48.0625 C 53.460938 48.0625 53.460938 48.0625 53.460938 48.09375 C 53.703125 48.484375 53.910156 48.9375 54.03125 49.417969 C 53.910156 49.207031 53.761719 48.996094 53.582031 48.816406 C 53.792969 50.683594 53.429688 51.828125 53.21875 52.308594 C 53.550781 52.339844 53.730469 52.371094 53.730469 52.371094 C 53.730469 52.371094 53.191406 52.730469 52.496094 52.730469 C 51.746094 52.730469 50.722656 52.730469 49.671875 52.550781 C 46.960938 52.097656 45.851562 50.894531 45.851562 50.894531 C 45.851562 50.894531 47.023438 51.285156 48.226562 51.617188 C 47.625 50.683594 46.753906 48.816406 47.445312 46.378906 C 45.457031 46.195312 43.535156 46.4375 42.511719 47.128906 C 41.21875 46.738281 41.035156 45.203125 41.035156 45.203125 Z M 48.167969 47.039062 C 48.167969 48.664062 49.429688 49.992188 50.964844 49.992188 C 51.746094 49.992188 52.496094 49.628906 53.007812 49.027344 C 52.980469 48.757812 52.949219 48.484375 52.890625 48.183594 C 51.6875 47.28125 49.941406 46.707031 48.226562 46.4375 C 48.167969 46.648438 48.167969 46.859375 48.167969 47.039062 Z M 47.804688 48.363281 C 47.894531 50.320312 48.949219 51.617188 49.128906 51.796875 C 49.398438 51.859375 49.640625 51.886719 49.878906 51.917969 C 50.902344 52.039062 51.867188 52.160156 52.617188 52.25 L 52.589844 52.25 C 52.589844 52.25 53.070312 51.464844 53.070312 49.839844 C 52.617188 50.203125 52.105469 50.441406 51.566406 50.53125 C 51.503906 50.804688 51.355469 51.164062 50.875 51.253906 C 50.242188 51.375 49.761719 50.835938 49.699219 50.320312 C 48.828125 49.960938 48.136719 49.238281 47.804688 48.363281 Z M 75.992188 44.449219 L 77.074219 44.117188 L 76.503906 46.105469 C 76.503906 46.105469 74.757812 45.5625 72.414062 45.503906 C 72.835938 46.496094 73.042969 48.125 72.894531 49.480469 C 72.835938 49.871094 72.742188 50.230469 72.625 50.53125 C 73.527344 50.171875 74.25 49.839844 74.25 49.839844 C 74.25 49.839844 73.40625 50.742188 71.960938 51.4375 C 71.933594 51.464844 71.902344 51.464844 71.871094 51.496094 L 71.871094 51.464844 C 71.449219 51.675781 70.96875 51.859375 70.457031 51.976562 C 69.253906 52.28125 68.171875 52.398438 67.300781 52.398438 C 66.15625 52.398438 65.375 51.976562 65.375 51.976562 C 65.375 51.976562 66.09375 52.007812 67.207031 51.886719 C 66.636719 51.164062 66.277344 49.871094 66.246094 48.757812 C 66.214844 47.941406 66.304688 47.21875 66.515625 46.648438 C 65.132812 47.339844 63.871094 48.425781 62.875 50.019531 C 63.117188 47.3125 65.914062 43.035156 75.992188 44.449219 Z M 67 47.21875 C 67.359375 48.214844 68.292969 48.847656 69.34375 48.847656 C 70.667969 48.847656 71.960938 47.492188 71.960938 46.046875 C 71.902344 45.835938 71.8125 45.625 71.722656 45.472656 C 70.335938 45.503906 68.832031 45.683594 67.390625 46.257812 C 67.207031 46.527344 67.089844 46.859375 67 47.21875 Z M 72.261719 47.402344 C 71.933594 48.09375 71.390625 48.695312 70.757812 49.058594 C 70.820312 49.386719 70.847656 49.960938 70.308594 50.140625 C 69.644531 50.382812 69.011719 49.929688 68.921875 49.417969 C 68.082031 49.296875 67.328125 48.875 66.847656 48.214844 C 66.847656 48.394531 66.847656 48.574219 66.847656 48.757812 C 66.90625 50.171875 67.417969 51.527344 67.992188 51.828125 C 68.5625 51.769531 69.195312 51.648438 69.855469 51.496094 C 70.308594 51.40625 70.96875 51.164062 71.660156 50.894531 C 71.960938 50.652344 72.171875 50.109375 72.261719 49.386719 C 72.351562 48.757812 72.351562 48.0625 72.261719 47.402344 Z M 85.4375 35.925781 C 86.492188 38.878906 87.726562 42.222656 88.988281 43.09375 C 88.988281 43.09375 87.003906 38.457031 86.011719 35.714844 C 85.347656 33.878906 84.777344 32.285156 84.296875 31.621094 C 84.265625 31.621094 84.808594 34.210938 85.4375 35.925781 Z M 74.277344 12.527344 C 71.449219 11.324219 68.019531 10.570312 64.050781 11.023438 C 64.050781 11.023438 71.421875 11.925781 74.1875 13.128906 C 79.542969 15.449219 83.0625 19.152344 83.0625 19.152344 C 83.003906 19.09375 79.84375 14.9375 74.277344 12.527344 Z M 62.515625 14.574219 C 62.425781 14.785156 62.515625 16.382812 62.695312 17.949219 C 62.816406 19.121094 62.996094 20.265625 63.175781 20.808594 C 63.175781 20.808594 63.417969 19.03125 63.296875 17.980469 C 63.148438 16.503906 62.515625 14.574219 62.515625 14.574219 Z M 64.230469 13.128906 C 64.230469 13.128906 65.554688 14.757812 67.238281 16.53125 C 68.019531 17.375 69.945312 19.183594 69.945312 19.183594 C 69.316406 18.039062 68.53125 17.046875 67.71875 16.203125 C 66.035156 14.335938 64.351562 13.21875 64.230469 13.128906 Z M 63.449219 5.570312 C 61.460938 7.289062 60.800781 8.972656 60.769531 9.09375 C 60.769531 9.09375 61.945312 7.738281 63.75 6.113281 C 64.921875 5.089844 66.546875 4.003906 68.863281 3.253906 C 68.894531 3.253906 64.652344 4.515625 63.449219 5.570312 Z M 78.671875 7.015625 C 78.640625 7.015625 78.582031 6.988281 78.550781 6.988281 C 78.640625 7.015625 78.671875 7.015625 78.671875 7.015625 Z M 78.550781 6.988281 C 78.398438 6.957031 78.21875 6.894531 78.070312 6.867188 C 78.277344 6.925781 78.429688 6.988281 78.550781 6.988281 Z M 65.101562 8.882812 C 66.09375 8.402344 68.53125 7.378906 71.511719 6.835938 C 73.527344 6.476562 75.8125 6.382812 78.070312 6.867188 C 76.746094 6.566406 73.554688 5.902344 71.871094 6.171875 C 68.59375 6.65625 65.074219 8.882812 65.074219 8.882812 Z M 104.542969 63.179688 C 105.292969 68.148438 106.617188 72.246094 110.046875 76.101562 C 110.046875 76.101562 106.769531 70.136719 105.925781 66.945312 C 105.113281 63.8125 104.753906 60.351562 104.359375 56.316406 C 104.179688 54.660156 104.03125 52.910156 103.789062 51.074219 C 103.066406 44.992188 100.933594 41.105469 99.035156 37.675781 C 97.472656 34.84375 95.1875 29.300781 95.1875 29.300781 C 95.546875 32.585938 96.992188 35.203125 98.523438 37.945312 C 100.390625 41.316406 102.496094 45.140625 103.1875 51.105469 C 103.398438 52.941406 103.578125 54.660156 103.757812 56.34375 C 103.878906 57.429688 103.96875 58.484375 104.089844 59.507812 C 104.179688 60.199219 104.058594 61.523438 103.941406 63.179688 C 103.578125 67.878906 102.976562 75.738281 105.835938 81.21875 C 105.835938 81.21875 104.480469 75.40625 104.300781 72.394531 C 104.089844 68.992188 104.332031 65.679688 104.542969 63.210938 C 104.542969 63.242188 104.542969 63.210938 104.542969 63.179688 Z M 118.289062 86.460938 C 118.050781 90.34375 120.425781 93.777344 122.773438 97.03125 C 127.222656 103.203125 127.976562 107.148438 127.976562 107.148438 C 128.066406 103.082031 125.449219 99.5 123.253906 96.667969 C 119.34375 91.550781 118.289062 86.460938 118.289062 86.460938 Z M 34.328125 75.289062 C 33.996094 74.382812 33.546875 73.449219 33.183594 72.667969 L 33.09375 72.488281 C 32.160156 70.558594 31.199219 68.570312 31.046875 66.433594 C 30.957031 65.230469 31.167969 64.113281 31.652344 63.242188 L 31.980469 62.609375 L 32.191406 63.300781 C 32.554688 64.476562 33.035156 65.621094 33.484375 66.734375 C 33.726562 67.277344 33.9375 67.847656 34.148438 68.390625 C 34.6875 69.804688 35.199219 71.34375 35.199219 72.9375 C 35.199219 73.691406 35.078125 74.472656 34.871094 75.257812 L 34.628906 76.160156 Z M 33.726562 72.425781 C 33.996094 72.96875 34.269531 73.570312 34.539062 74.171875 C 34.597656 73.75 34.628906 73.359375 34.628906 72.96875 C 34.628906 71.460938 34.148438 70.015625 33.605469 68.632812 C 33.394531 68.089844 33.15625 67.519531 32.945312 66.976562 C 32.582031 66.101562 32.222656 65.167969 31.890625 64.265625 C 31.679688 64.898438 31.621094 65.621094 31.679688 66.402344 C 31.832031 68.453125 32.761719 70.378906 33.664062 72.246094 Z M 115.824219 69.804688 L 116.003906 70.648438 L 115.339844 70.109375 C 114.921875 69.777344 114.5 69.445312 114.078125 69.113281 C 112.332031 67.730469 110.5 66.28125 109.175781 64.445312 C 107.371094 61.917969 107.070312 58.332031 107.128906 55.773438 L 107.160156 54.71875 L 107.699219 55.621094 C 108.601562 57.128906 109.597656 58.542969 110.738281 59.808594 C 110.949219 60.050781 111.160156 60.289062 111.371094 60.53125 C 111.972656 61.164062 112.574219 61.824219 113.085938 62.578125 C 114.257812 64.234375 114.859375 66.132812 115.28125 67.609375 C 115.460938 68.269531 115.640625 69.023438 115.824219 69.804688 Z M 115.039062 69.082031 C 114.921875 68.601562 114.800781 68.148438 114.679688 67.699219 C 114.289062 66.28125 113.6875 64.414062 112.574219 62.851562 C 112.09375 62.15625 111.492188 61.496094 110.917969 60.863281 C 110.707031 60.621094 110.46875 60.378906 110.257812 60.140625 C 109.324219 59.085938 108.484375 57.972656 107.730469 56.765625 C 107.761719 59.117188 108.183594 61.976562 109.65625 64.054688 C 110.917969 65.863281 112.722656 67.246094 114.4375 68.601562 C 114.648438 68.78125 114.859375 68.933594 115.039062 69.082031 Z M 134.445312 99.953125 L 135.078125 101.214844 L 133.992188 100.3125 C 133.332031 99.769531 132.609375 99.230469 131.917969 98.71875 C 129.839844 97.152344 127.675781 95.554688 126.320312 93.296875 C 126.140625 92.964844 125.960938 92.632812 125.75 92.242188 L 125.238281 91.128906 L 126.230469 91.878906 C 126.773438 92.300781 127.34375 92.722656 127.886719 93.117188 C 129.691406 94.46875 131.554688 95.855469 133 97.632812 C 133.542969 98.324219 134.023438 99.109375 134.445312 99.953125 Z M 133.152344 98.898438 C 132.941406 98.597656 132.730469 98.296875 132.488281 97.996094 C 131.105469 96.277344 129.269531 94.921875 127.496094 93.597656 C 127.316406 93.476562 127.132812 93.328125 126.953125 93.207031 C 128.246094 95.253906 130.203125 96.730469 132.277344 98.265625 C 132.550781 98.445312 132.851562 98.65625 133.152344 98.898438 Z M 94.253906 80.859375 C 95.304688 80.980469 96.417969 81.160156 97.5625 81.371094 L 97.503906 81.972656 C 96.902344 81.972656 95.699219 83.417969 95.003906 84.292969 C 94.792969 84.53125 94.613281 84.773438 94.464844 84.953125 C 94.375 85.042969 94.285156 85.195312 94.164062 85.347656 C 93.621094 86.039062 92.808594 87.0625 91.574219 87.542969 L 91.515625 87.574219 L 91.425781 87.574219 C 86.792969 86.910156 85.410156 80.195312 85.347656 79.894531 L 85.257812 79.441406 L 85.710938 79.535156 C 86.550781 79.714844 87.484375 79.863281 88.449219 80.046875 C 87.214844 78.089844 87.636719 74.683594 88.085938 70.800781 C 88.117188 70.5 88.148438 70.199219 88.207031 69.867188 C 88.449219 67.425781 84.175781 59.75 84.117188 59.6875 C 84.117188 59.6875 87.425781 64.386719 88.449219 67.699219 C 88.75 64.386719 88.417969 57.699219 88.417969 57.699219 C 89.769531 61.824219 89.199219 66.644531 88.71875 70.890625 C 88.238281 75.015625 87.816406 78.601562 89.351562 80.226562 C 90.914062 80.40625 92.660156 80.648438 94.253906 80.859375 Z M 89.230469 85.949219 L 93.589844 81.371094 C 91.035156 81.039062 88.265625 80.648438 86.011719 80.195312 C 86.3125 81.339844 87.242188 84.351562 89.230469 85.949219 Z M 94.34375 81.460938 L 89.742188 86.28125 C 90.222656 86.582031 90.792969 86.820312 91.394531 86.910156 C 92.449219 86.460938 93.171875 85.558594 93.652344 84.925781 C 93.773438 84.773438 93.890625 84.625 93.984375 84.53125 C 94.132812 84.351562 94.3125 84.140625 94.523438 83.898438 C 95.246094 83.027344 95.90625 82.242188 96.507812 81.792969 C 95.789062 81.671875 95.035156 81.550781 94.34375 81.460938 Z M 64.261719 42.972656 C 68.832031 41.949219 73.136719 41.617188 73.976562 41.800781 C 74.820312 41.980469 75.691406 42.011719 75.691406 42.011719 C 75.691406 42.011719 73.675781 40.292969 72.113281 40.203125 C 70.546875 40.113281 62.246094 41.4375 62.246094 41.4375 C 62.246094 41.4375 62.636719 42.671875 64.261719 42.972656 Z M 64.261719 42.972656 " fill-opacity="1" fill-rule="nonzero"/></g><g transform="matrix(1, 0, 0, 1, 74, 145)"><g clip-path="url(#7cdefce034)"><g fill="#58677e" fill-opacity="1"><g transform="translate(0.999997, 4.067974)"><g><path d="M 2.5 -1.21875 C 2.5 -0.925781 2.445312 -0.679688 2.34375 -0.484375 C 2.25 -0.296875 2.101562 -0.160156 1.90625 -0.078125 L 2.484375 0.578125 L 1.828125 0.578125 L 1.390625 0.03125 L 1.34375 0.03125 C 0.976562 0.03125 0.695312 -0.0703125 0.5 -0.28125 C 0.300781 -0.5 0.203125 -0.8125 0.203125 -1.21875 C 0.203125 -1.625 0.300781 -1.929688 0.5 -2.140625 C 0.695312 -2.347656 0.984375 -2.453125 1.359375 -2.453125 C 1.722656 -2.453125 2.003906 -2.34375 2.203125 -2.125 C 2.398438 -1.914062 2.5 -1.613281 2.5 -1.21875 Z M 0.734375 -1.21875 C 0.734375 -0.945312 0.785156 -0.738281 0.890625 -0.59375 C 0.992188 -0.457031 1.144531 -0.390625 1.34375 -0.390625 C 1.757812 -0.390625 1.96875 -0.664062 1.96875 -1.21875 C 1.96875 -1.757812 1.765625 -2.03125 1.359375 -2.03125 C 1.148438 -2.03125 0.992188 -1.960938 0.890625 -1.828125 C 0.785156 -1.691406 0.734375 -1.488281 0.734375 -1.21875 Z M 0.734375 -1.21875 "/></g></g></g><g fill="#58677e" fill-opacity="1"><g transform="translate(3.694763, 4.067974)"><g><path d="M 1.78125 0 L 1.609375 -0.578125 L 0.734375 -0.578125 L 0.546875 0 L 0 0 L 0.859375 -2.4375 L 1.484375 -2.4375 L 2.34375 0 Z M 1.484375 -1 C 1.328125 -1.53125 1.238281 -1.828125 1.21875 -1.890625 C 1.195312 -1.960938 1.179688 -2.015625 1.171875 -2.046875 C 1.128906 -1.910156 1.023438 -1.5625 0.859375 -1 Z M 1.484375 -1 "/></g></g></g><g clip-path="url(#c3b8930f25)"><g fill="#58677e" fill-opacity="1"><g transform="translate(6.030779, 4.067974)"><g><path d="M 0.296875 -2.421875 L 1.0625 -2.421875 C 1.40625 -2.421875 1.648438 -2.367188 1.796875 -2.265625 C 1.953125 -2.171875 2.03125 -2.019531 2.03125 -1.8125 C 2.03125 -1.664062 1.992188 -1.546875 1.921875 -1.453125 C 1.859375 -1.359375 1.773438 -1.300781 1.671875 -1.28125 L 1.671875 -1.265625 C 1.816406 -1.234375 1.921875 -1.171875 1.984375 -1.078125 C 2.054688 -0.984375 2.09375 -0.859375 2.09375 -0.703125 C 2.09375 -0.484375 2.015625 -0.3125 1.859375 -0.1875 C 1.703125 -0.0625 1.484375 0 1.203125 0 L 0.296875 0 Z M 0.8125 -1.46875 L 1.109375 -1.46875 C 1.253906 -1.46875 1.359375 -1.488281 1.421875 -1.53125 C 1.484375 -1.570312 1.515625 -1.640625 1.515625 -1.734375 C 1.515625 -1.828125 1.476562 -1.894531 1.40625 -1.9375 C 1.34375 -1.976562 1.238281 -2 1.09375 -2 L 0.8125 -2 Z M 0.8125 -1.046875 L 0.8125 -0.421875 L 1.15625 -0.421875 C 1.289062 -0.421875 1.390625 -0.445312 1.453125 -0.5 C 1.523438 -0.5625 1.5625 -0.644531 1.5625 -0.75 C 1.5625 -0.945312 1.421875 -1.046875 1.140625 -1.046875 Z M 0.8125 -1.046875 "/></g></g></g></g></g></g></svg>