<svg xmlns="http://www.w3.org/2000/svg" xmlns:xlink="http://www.w3.org/1999/xlink" width="200" zoomAndPan="magnify" viewBox="0 0 150 149.999998" height="200" preserveAspectRatio="xMidYMid meet" version="1.0"><defs><g/><clipPath id="11264ab43b"><path d="M 19.332031 30 L 92 30 L 92 150 L 19.332031 150 Z M 19.332031 30 " clip-rule="nonzero"/></clipPath><clipPath id="f65b5adbb6"><path d="M 40 18.109375 L 144 18.109375 L 144 149 L 40 149 Z M 40 18.109375 " clip-rule="nonzero"/></clipPath><clipPath id="28312968be"><path d="M 39 18.109375 L 145.332031 18.109375 L 145.332031 150 L 39 150 Z M 39 18.109375 " clip-rule="nonzero"/></clipPath><clipPath id="74b20216e9"><path d="M 6 1 L 8.320312 1 L 8.320312 5 L 6 5 Z M 6 1 " clip-rule="nonzero"/></clipPath><clipPath id="d0dc85a24d"><rect x="0" width="9" y="0" height="5"/></clipPath></defs><path fill="#a34030" d="M 56.988281 149.367188 L 90.386719 149.042969 C 90.386719 149.042969 88.816406 141.996094 85.667969 136.300781 C 74.074219 115.316406 30.785156 67.890625 54.261719 46.984375 C 54.261719 46.984375 49.667969 41.40625 39.664062 31.726562 C 39.664062 31.726562 20.148438 59.128906 20.148438 106.382812 C 20.148438 132.765625 23.625 142.371094 25.78125 149.367188 L 56.988281 149.367188 " fill-opacity="1" fill-rule="nonzero"/><g clip-path="url(#11264ab43b)"><path fill="#231f20" d="M 56.988281 149.367188 L 56.996094 150.105469 L 91.304688 149.773438 L 91.105469 148.882812 C 91.101562 148.867188 90.707031 147.085938 89.910156 144.585938 C 89.117188 142.082031 87.925781 138.859375 86.3125 135.945312 C 83.988281 131.734375 80.4375 126.53125 76.417969 120.707031 C 70.386719 111.976562 63.296875 101.851562 57.726562 91.742188 C 54.941406 86.6875 52.535156 81.636719 50.832031 76.777344 C 49.128906 71.917969 48.128906 67.246094 48.128906 62.957031 C 48.128906 59.960938 48.617188 57.152344 49.679688 54.574219 C 50.746094 51.992188 52.394531 49.636719 54.75 47.535156 L 55.28125 47.0625 L 54.832031 46.515625 C 54.8125 46.496094 50.203125 40.894531 40.179688 31.195312 L 39.5625 30.597656 L 39.0625 31.296875 C 39.035156 31.339844 34.125 38.242188 29.21875 51.070312 C 24.3125 63.898438 19.410156 82.652344 19.410156 106.382812 C 19.410156 119.605469 20.28125 128.648438 21.429688 135.269531 C 22.574219 141.890625 24.003906 146.101562 25.078125 149.585938 L 25.238281 150.105469 L 56.996094 150.105469 L 56.988281 149.367188 L 56.988281 148.628906 L 25.78125 148.628906 L 25.78125 149.367188 L 26.488281 149.148438 C 25.402344 145.636719 24.015625 141.546875 22.882812 135.019531 C 21.753906 128.496094 20.886719 119.542969 20.886719 106.382812 C 20.886719 82.859375 25.746094 64.285156 30.597656 51.597656 C 33.023438 45.253906 35.445312 40.382812 37.261719 37.101562 C 38.167969 35.460938 38.925781 34.222656 39.449219 33.390625 C 39.714844 32.976562 39.917969 32.664062 40.058594 32.457031 C 40.128906 32.355469 40.179688 32.277344 40.214844 32.226562 L 40.253906 32.171875 L 40.265625 32.152344 L 39.664062 31.726562 L 39.152344 32.257812 C 44.144531 37.085938 47.785156 40.890625 50.171875 43.484375 C 51.367188 44.78125 52.25 45.777344 52.832031 46.445312 C 53.121094 46.78125 53.335938 47.035156 53.480469 47.203125 C 53.550781 47.285156 53.605469 47.351562 53.640625 47.394531 L 53.679688 47.4375 L 53.691406 47.453125 L 54.261719 46.984375 L 53.769531 46.433594 C 51.253906 48.671875 49.464844 51.226562 48.316406 54.007812 C 47.164062 56.792969 46.652344 59.800781 46.652344 62.957031 C 46.65625 68.980469 48.507812 75.542969 51.402344 82.277344 C 55.742188 92.375 62.441406 102.863281 68.910156 112.394531 C 72.144531 117.15625 75.320312 121.679688 78.113281 125.785156 C 80.910156 129.890625 83.320312 133.578125 85.023438 136.660156 C 86.558594 139.441406 87.726562 142.589844 88.503906 145.03125 C 88.894531 146.253906 89.183594 147.300781 89.375 148.042969 C 89.472656 148.410156 89.546875 148.703125 89.59375 148.902344 C 89.617188 149.003906 89.636719 149.078125 89.648438 149.128906 L 89.660156 149.1875 L 89.664062 149.203125 L 90.386719 149.042969 L 90.378906 148.304688 L 56.980469 148.628906 L 56.988281 148.628906 L 56.988281 149.367188 " fill-opacity="1" fill-rule="nonzero"/></g><path fill="#231f20" d="M 75.558594 80.367188 C 75.335938 82.1875 75.179688 84.003906 75.070312 85.820312 C 74.976562 87.636719 74.925781 89.453125 74.984375 91.261719 C 75.027344 93.074219 75.171875 94.882812 75.425781 96.675781 C 75.683594 98.46875 76.070312 100.246094 76.59375 102.007812 C 75.75 100.371094 75.179688 98.59375 74.796875 96.789062 C 74.40625 94.980469 74.222656 93.132812 74.164062 91.285156 C 74.121094 89.441406 74.207031 87.589844 74.4375 85.761719 C 74.664062 83.9375 75.003906 82.121094 75.558594 80.367188 " fill-opacity="1" fill-rule="nonzero"/><path fill="#fab790" d="M 73.6875 140.269531 C 77.386719 139.84375 88.761719 130.6875 88.761719 130.6875 C 105.519531 115.386719 106.757812 101.417969 105.621094 90.003906 C 104.910156 82.878906 103.261719 66.332031 103.261719 66.332031 C 101.003906 42.121094 75.335938 41.859375 71.617188 41.835938 L 71.582031 41.835938 C 71.296875 41.835938 70.859375 41.847656 70.320312 41.871094 C 69.78125 41.847656 69.34375 41.835938 69.058594 41.835938 L 69.023438 41.835938 C 65.304688 41.859375 39.429688 42.332031 37.167969 66.542969 C 37.167969 66.542969 35.226562 88.539062 35.894531 95.671875 C 37.808594 116.085938 42.976562 120.054688 52.914062 130.6875 C 52.914062 130.6875 63.28125 140.042969 67.152344 140.042969 C 67.152344 140.042969 69.261719 140.785156 73.6875 140.269531 " fill-opacity="1" fill-rule="nonzero"/><path fill="#231f20" d="M 73.6875 140.269531 L 73.785156 141.125 C 74.394531 141.054688 75.03125 140.832031 75.742188 140.523438 C 76.980469 139.980469 78.421875 139.144531 79.914062 138.1875 C 84.382812 135.316406 89.285156 131.367188 89.300781 131.359375 L 89.320312 131.339844 L 89.339844 131.324219 C 96.414062 124.867188 100.789062 118.605469 103.382812 112.644531 C 105.980469 106.683594 106.792969 101.035156 106.789062 95.839844 C 106.789062 93.796875 106.664062 91.820312 106.476562 89.917969 C 106.121094 86.355469 105.53125 80.4375 105.03125 75.410156 C 104.78125 72.894531 104.554688 70.605469 104.386719 68.941406 C 104.304688 68.113281 104.238281 67.4375 104.191406 66.972656 C 104.144531 66.503906 104.117188 66.246094 104.117188 66.246094 L 104.117188 66.25 C 103.542969 60.050781 101.445312 55.308594 98.554688 51.75 C 96.386719 49.078125 93.785156 47.074219 91.070312 45.566406 C 86.996094 43.308594 82.667969 42.171875 79.089844 41.589844 C 75.519531 41.007812 72.679688 40.980469 71.621094 40.972656 L 71.574219 40.972656 C 71.277344 40.976562 70.832031 40.984375 70.28125 41.011719 L 70.320312 41.871094 L 70.355469 41.011719 C 69.808594 40.984375 69.363281 40.976562 69.066406 40.972656 L 69.019531 40.972656 C 68.070312 40.980469 65.710938 41.015625 62.675781 41.449219 C 58.117188 42.101562 52.007812 43.640625 46.761719 47.390625 C 44.140625 49.265625 41.738281 51.699219 39.890625 54.835938 C 38.039062 57.972656 36.746094 61.8125 36.3125 66.464844 L 36.3125 66.46875 C 36.3125 66.472656 35.957031 70.480469 35.601562 75.632812 C 35.25 80.789062 34.894531 87.085938 34.894531 91.691406 C 34.894531 93.277344 34.9375 94.664062 35.039062 95.753906 C 35.519531 100.890625 36.207031 105.011719 37.132812 108.484375 C 38.515625 113.6875 40.453125 117.429688 42.976562 120.832031 C 45.496094 124.234375 48.574219 127.300781 52.289062 131.277344 L 52.339844 131.328125 C 52.347656 131.335938 54.953125 133.6875 58.0625 136.050781 C 59.617188 137.234375 61.296875 138.421875 62.867188 139.324219 C 63.648438 139.78125 64.40625 140.164062 65.117188 140.441406 C 65.832031 140.71875 66.5 140.902344 67.152344 140.902344 L 67.152344 140.042969 L 66.867188 140.855469 C 66.957031 140.886719 68.21875 141.3125 70.726562 141.3125 C 71.59375 141.3125 72.617188 141.261719 73.785156 141.125 L 73.6875 140.269531 L 73.589844 139.417969 C 72.480469 139.542969 71.527344 139.589844 70.726562 139.589844 C 69.570312 139.589844 68.726562 139.492188 68.183594 139.398438 C 67.910156 139.351562 67.714844 139.308594 67.59375 139.273438 C 67.53125 139.257812 67.488281 139.246094 67.460938 139.238281 L 67.4375 139.230469 L 67.265625 139.722656 L 67.441406 139.230469 L 67.4375 139.230469 L 67.265625 139.722656 L 67.441406 139.230469 L 67.300781 139.183594 L 67.152344 139.183594 C 66.84375 139.183594 66.339844 139.074219 65.742188 138.839844 C 64.699219 138.429688 63.375 137.675781 62.019531 136.769531 C 59.976562 135.414062 57.835938 133.726562 56.214844 132.386719 C 55.402344 131.714844 54.722656 131.128906 54.242188 130.710938 C 54.003906 130.503906 53.8125 130.335938 53.6875 130.222656 C 53.621094 130.164062 53.574219 130.121094 53.539062 130.09375 C 53.507812 130.0625 53.492188 130.050781 53.492188 130.050781 L 52.914062 130.6875 L 53.542969 130.097656 C 51.050781 127.433594 48.871094 125.195312 46.980469 123.035156 C 44.144531 119.789062 41.96875 116.738281 40.296875 112.597656 C 38.628906 108.457031 37.464844 103.199219 36.75 95.59375 C 36.65625 94.589844 36.613281 93.246094 36.613281 91.691406 C 36.613281 87.167969 36.96875 80.886719 37.320312 75.753906 C 37.496094 73.183594 37.671875 70.898438 37.804688 69.257812 C 37.871094 68.4375 37.929688 67.777344 37.964844 67.324219 C 38.003906 66.867188 38.027344 66.621094 38.027344 66.617188 L 38.027344 66.625 C 38.582031 60.722656 40.550781 56.335938 43.246094 53.015625 C 45.265625 50.523438 47.703125 48.636719 50.28125 47.199219 C 54.144531 45.042969 58.324219 43.914062 61.789062 43.328125 C 65.257812 42.746094 68.003906 42.703125 69.027344 42.695312 L 69.023438 42.695312 L 69.058594 42.695312 L 69.050781 42.695312 C 69.328125 42.699219 69.753906 42.707031 70.28125 42.730469 L 70.355469 42.730469 C 70.886719 42.707031 71.3125 42.699219 71.589844 42.695312 L 71.582031 42.695312 L 71.617188 42.695312 L 71.609375 42.695312 C 72.527344 42.703125 74.785156 42.722656 77.695312 43.121094 C 82.058594 43.714844 87.871094 45.171875 92.738281 48.648438 C 95.171875 50.386719 97.375 52.621094 99.078125 55.519531 C 100.78125 58.417969 101.992188 61.984375 102.40625 66.410156 L 102.40625 66.417969 C 102.40625 66.417969 104.050781 82.960938 104.765625 90.089844 C 104.949219 91.945312 105.070312 93.867188 105.070312 95.839844 C 105.070312 100.859375 104.292969 106.238281 101.808594 111.953125 C 99.316406 117.667969 95.105469 123.726562 88.179688 130.050781 L 88.761719 130.6875 L 88.222656 130.015625 C 88.222656 130.015625 88.179688 130.050781 88.09375 130.117188 C 87.472656 130.613281 84.613281 132.875 81.492188 135.050781 C 79.9375 136.140625 78.3125 137.203125 76.882812 138.011719 C 76.171875 138.417969 75.507812 138.753906 74.9375 138.996094 C 74.367188 139.242188 73.886719 139.382812 73.589844 139.417969 L 73.6875 140.269531 " fill-opacity="1" fill-rule="nonzero"/><path fill="#ffffff" d="M 63.132812 85.28125 C 63.132812 85.28125 59.570312 89.777344 53.394531 88.804688 C 47.03125 87.804688 45.96875 85.183594 45.96875 85.183594 C 45.96875 85.183594 49.582031 81.570312 53.527344 81.753906 C 56.839844 81.910156 58.980469 84.273438 63.132812 85.28125 " fill-opacity="1" fill-rule="nonzero"/><path fill="#80cc28" d="M 51.714844 82.371094 C 50.097656 83.394531 49.621094 85.539062 50.644531 87.152344 C 51.667969 88.769531 53.804688 89.25 55.421875 88.226562 C 57.039062 87.203125 57.519531 85.058594 56.496094 83.445312 C 55.472656 81.828125 53.332031 81.347656 51.714844 82.371094 " fill-opacity="1" fill-rule="nonzero"/><path fill="#231f20" d="M 51.714844 82.371094 C 52.476562 81.875 53.433594 81.691406 54.339844 81.859375 C 55.246094 82.019531 56.113281 82.554688 56.667969 83.328125 C 57.242188 84.117188 57.480469 85.148438 57.292969 86.136719 C 57.199219 86.625 57.011719 87.105469 56.726562 87.523438 C 56.441406 87.933594 56.058594 88.304688 55.652344 88.566406 C 55.203125 88.84375 54.730469 89.019531 54.230469 89.101562 C 53.730469 89.179688 53.21875 89.144531 52.734375 89.023438 C 51.761719 88.769531 50.929688 88.105469 50.46875 87.261719 C 50 86.417969 49.890625 85.414062 50.132812 84.523438 C 50.371094 83.636719 50.941406 82.847656 51.714844 82.371094 Z M 51.714844 82.371094 C 51.335938 82.617188 51.003906 82.9375 50.75 83.3125 C 50.496094 83.683594 50.332031 84.113281 50.246094 84.550781 C 50.082031 85.433594 50.304688 86.351562 50.816406 87.042969 C 51.320312 87.738281 52.085938 88.195312 52.886719 88.335938 C 53.6875 88.484375 54.539062 88.3125 55.195312 87.886719 C 55.894531 87.453125 56.386719 86.769531 56.601562 85.980469 C 56.820312 85.195312 56.730469 84.300781 56.324219 83.558594 C 55.914062 82.796875 55.183594 82.203125 54.316406 81.972656 C 53.882812 81.863281 53.425781 81.828125 52.980469 81.898438 C 52.535156 81.96875 52.101562 82.132812 51.714844 82.371094 " fill-opacity="1" fill-rule="nonzero"/><path fill="#231f20" d="M 52.746094 83.996094 C 52.027344 84.453125 51.816406 85.402344 52.269531 86.121094 C 52.722656 86.839844 53.675781 87.054688 54.390625 86.597656 C 55.109375 86.144531 55.324219 85.191406 54.867188 84.476562 C 54.414062 83.757812 53.464844 83.542969 52.746094 83.996094 " fill-opacity="1" fill-rule="nonzero"/><path fill="#231f20" d="M 63.160156 85.28125 C 62.320312 85.347656 61.480469 85.214844 60.660156 84.992188 C 60.246094 84.875 59.84375 84.726562 59.449219 84.542969 C 59.253906 84.449219 59.054688 84.347656 58.875 84.246094 L 58.355469 83.960938 C 56.992188 83.226562 55.570312 82.675781 54.113281 82.480469 C 52.660156 82.28125 51.183594 82.460938 49.773438 83.003906 C 48.351562 83.535156 47.019531 84.417969 45.683594 85.394531 C 46.503906 83.957031 47.6875 82.6875 49.203125 81.8125 C 50.707031 80.9375 52.566406 80.558594 54.332031 80.796875 C 56.101562 81.023438 57.738281 81.785156 59.097656 82.789062 C 59.269531 82.914062 59.4375 83.042969 59.597656 83.171875 C 59.753906 83.296875 59.894531 83.414062 60.050781 83.527344 C 60.355469 83.757812 60.675781 83.972656 61.007812 84.179688 C 61.675781 84.59375 62.398438 84.945312 63.160156 85.28125 " fill-opacity="1" fill-rule="nonzero"/><path fill="#231f20" d="M 59.191406 88 C 58.113281 88.574219 56.914062 88.914062 55.695312 89.097656 C 54.476562 89.277344 53.214844 89.265625 51.984375 89.042969 C 51.371094 88.925781 50.765625 88.757812 50.183594 88.535156 C 49.601562 88.304688 49.035156 88.035156 48.515625 87.691406 C 47.460938 87.019531 46.5625 86.136719 45.898438 85.113281 C 46.820312 85.910156 47.785156 86.605469 48.832031 87.132812 C 49.878906 87.660156 50.988281 88.035156 52.132812 88.238281 C 53.277344 88.457031 54.457031 88.507812 55.636719 88.460938 C 56.816406 88.402344 58.003906 88.253906 59.191406 88 " fill-opacity="1" fill-rule="nonzero"/><path fill="#231f20" d="M 51.636719 81.921875 C 51.230469 82.199219 50.699219 82.265625 50.207031 82.203125 C 49.703125 82.144531 49.222656 81.9375 48.816406 81.652344 C 48.410156 81.363281 48.070312 80.996094 47.8125 80.585938 C 47.550781 80.179688 47.363281 79.734375 47.285156 79.253906 C 47.660156 79.566406 47.980469 79.882812 48.304688 80.175781 C 48.632812 80.46875 48.949219 80.742188 49.289062 80.980469 C 49.625 81.21875 49.980469 81.417969 50.363281 81.585938 C 50.746094 81.742188 51.160156 81.863281 51.636719 81.921875 " fill-opacity="1" fill-rule="nonzero"/><path fill="#231f20" d="M 46.414062 79.605469 C 47.042969 80.222656 47.570312 80.757812 48.175781 81.203125 C 48.472656 81.421875 48.785156 81.625 49.125 81.804688 C 49.464844 81.988281 49.828125 82.144531 50.238281 82.328125 C 49.394531 82.636719 48.40625 82.402344 47.6875 81.863281 C 47.320312 81.589844 47.019531 81.246094 46.796875 80.863281 C 46.578125 80.480469 46.421875 80.054688 46.414062 79.605469 " fill-opacity="1" fill-rule="nonzero"/><path fill="#231f20" d="M 49.652344 82.511719 C 49.257812 82.742188 48.792969 82.816406 48.332031 82.796875 C 47.875 82.769531 47.40625 82.632812 47 82.378906 C 46.179688 81.875 45.683594 80.9375 45.738281 80.039062 C 46.035156 80.382812 46.289062 80.703125 46.5625 80.980469 C 46.835938 81.253906 47.121094 81.484375 47.433594 81.679688 C 48.058594 82.074219 48.785156 82.300781 49.652344 82.511719 " fill-opacity="1" fill-rule="nonzero"/><path fill="#231f20" d="M 49.078125 82.597656 C 48.679688 82.941406 48.171875 83.132812 47.640625 83.199219 C 47.109375 83.273438 46.539062 83.191406 46.035156 82.960938 C 45.527344 82.730469 45.09375 82.347656 44.800781 81.902344 C 44.503906 81.457031 44.320312 80.957031 44.277344 80.4375 C 44.628906 80.820312 44.949219 81.179688 45.289062 81.484375 C 45.632812 81.789062 45.988281 82.035156 46.375 82.214844 C 47.152344 82.578125 48.054688 82.648438 49.078125 82.597656 " fill-opacity="1" fill-rule="nonzero"/><path fill="#231f20" d="M 48.695312 82.964844 C 48.226562 83.296875 47.671875 83.480469 47.097656 83.5625 C 46.523438 83.644531 45.917969 83.605469 45.339844 83.410156 C 44.769531 83.214844 44.238281 82.847656 43.875 82.367188 C 43.507812 81.890625 43.296875 81.324219 43.265625 80.753906 C 43.621094 81.203125 43.957031 81.605469 44.34375 81.925781 C 44.726562 82.242188 45.148438 82.472656 45.605469 82.632812 C 46.066406 82.792969 46.558594 82.875 47.078125 82.921875 C 47.59375 82.964844 48.128906 82.96875 48.695312 82.964844 " fill-opacity="1" fill-rule="nonzero"/><path fill="#231f20" d="M 47.773438 83.53125 C 47.3125 83.886719 46.757812 84.097656 46.175781 84.195312 C 45.59375 84.300781 44.96875 84.273438 44.378906 84.070312 C 43.792969 83.871094 43.257812 83.476562 42.910156 82.972656 C 42.554688 82.476562 42.363281 81.898438 42.34375 81.320312 C 42.6875 81.789062 43.015625 82.214844 43.390625 82.550781 C 43.769531 82.886719 44.1875 83.132812 44.648438 83.292969 C 45.109375 83.453125 45.609375 83.527344 46.132812 83.558594 C 46.660156 83.582031 47.199219 83.566406 47.773438 83.53125 " fill-opacity="1" fill-rule="nonzero"/><path fill="#231f20" d="M 47.121094 84.109375 C 46.671875 84.492188 46.113281 84.738281 45.527344 84.859375 C 44.9375 84.980469 44.289062 84.960938 43.691406 84.742188 C 43.089844 84.53125 42.5625 84.101562 42.230469 83.582031 C 41.886719 83.070312 41.710938 82.484375 41.691406 81.898438 C 42.03125 82.375 42.351562 82.820312 42.726562 83.179688 C 43.101562 83.535156 43.511719 83.804688 43.96875 83.972656 C 44.429688 84.140625 44.933594 84.210938 45.460938 84.222656 C 45.992188 84.226562 46.539062 84.179688 47.121094 84.109375 " fill-opacity="1" fill-rule="nonzero"/><path fill="#231f20" d="M 46.464844 84.664062 C 45.992188 85.074219 45.425781 85.355469 44.816406 85.535156 C 44.210938 85.710938 43.539062 85.773438 42.867188 85.597656 C 42.199219 85.429688 41.582031 84.9375 41.292969 84.324219 C 40.992188 83.722656 40.933594 83.066406 41.035156 82.453125 C 41.269531 83.027344 41.507812 83.566406 41.835938 83.988281 C 42.171875 84.402344 42.589844 84.671875 43.082031 84.804688 C 43.578125 84.9375 44.132812 84.945312 44.703125 84.90625 C 45.269531 84.859375 45.851562 84.765625 46.464844 84.664062 " fill-opacity="1" fill-rule="nonzero"/><path fill="#ffffff" d="M 52.726562 83.515625 C 53.089844 83.746094 53.199219 84.230469 52.96875 84.597656 C 52.738281 84.960938 52.253906 85.070312 51.886719 84.839844 C 51.523438 84.605469 51.414062 84.121094 51.644531 83.757812 C 51.875 83.394531 52.359375 83.285156 52.726562 83.515625 " fill-opacity="1" fill-rule="nonzero"/><path fill="#ffffff" d="M 51.542969 82.78125 C 51.703125 82.878906 51.75 83.09375 51.644531 83.25 C 51.546875 83.410156 51.335938 83.457031 51.175781 83.355469 C 51.015625 83.257812 50.972656 83.046875 51.070312 82.886719 C 51.171875 82.726562 51.382812 82.679688 51.542969 82.78125 " fill-opacity="1" fill-rule="nonzero"/><path fill="#231f20" d="M 65.195312 74.199219 C 65.195312 74.199219 65.617188 76.539062 64.449219 77.175781 C 64.449219 77.175781 51.910156 73.136719 45.324219 75.476562 C 45.324219 75.476562 42.347656 76.644531 41.710938 80.363281 C 41.710938 80.363281 41.394531 72.710938 49.042969 71.648438 C 49.042969 71.648438 56.691406 71.328125 65.195312 74.199219 " fill-opacity="1" fill-rule="nonzero"/><path fill="#231f20" d="M 59.003906 81.710938 C 57.960938 80.984375 56.800781 80.453125 55.601562 80.101562 C 54.402344 79.757812 53.144531 79.625 51.910156 79.769531 C 50.679688 79.902344 49.480469 80.3125 48.382812 80.902344 C 47.28125 81.5 46.269531 82.269531 45.332031 83.128906 C 46.148438 82.15625 47.109375 81.28125 48.21875 80.617188 C 49.316406 79.945312 50.570312 79.492188 51.863281 79.34375 C 53.160156 79.203125 54.480469 79.363281 55.699219 79.785156 C 56.921875 80.203125 58.058594 80.851562 59.003906 81.710938 " fill-opacity="1" fill-rule="nonzero"/><path fill="#ffffff" d="M 78.007812 85.28125 C 78.007812 85.28125 81.570312 89.777344 87.746094 88.804688 C 94.113281 87.804688 95.175781 85.183594 95.175781 85.183594 C 95.175781 85.183594 91.5625 81.570312 87.617188 81.753906 C 84.304688 81.910156 82.160156 84.273438 78.007812 85.28125 " fill-opacity="1" fill-rule="nonzero"/><path fill="#80cc28" d="M 89.425781 82.371094 C 91.042969 83.394531 91.523438 85.539062 90.5 87.152344 C 89.476562 88.769531 87.335938 89.25 85.71875 88.226562 C 84.105469 87.203125 83.625 85.058594 84.644531 83.445312 C 85.671875 81.828125 87.808594 81.347656 89.425781 82.371094 " fill-opacity="1" fill-rule="nonzero"/><path fill="#231f20" d="M 89.425781 82.371094 C 89.039062 82.132812 88.609375 81.96875 88.164062 81.898438 C 87.71875 81.828125 87.257812 81.863281 86.828125 81.972656 C 85.960938 82.203125 85.226562 82.796875 84.820312 83.558594 C 84.410156 84.300781 84.320312 85.195312 84.539062 85.980469 C 84.753906 86.769531 85.25 87.453125 85.949219 87.886719 C 86.601562 88.3125 87.453125 88.484375 88.253906 88.335938 C 89.058594 88.195312 89.820312 87.738281 90.328125 87.042969 C 90.835938 86.355469 91.058594 85.433594 90.898438 84.550781 C 90.8125 84.113281 90.648438 83.683594 90.394531 83.3125 C 90.136719 82.9375 89.804688 82.617188 89.425781 82.371094 Z M 89.425781 82.371094 C 90.199219 82.847656 90.773438 83.636719 91.007812 84.527344 C 91.25 85.417969 91.140625 86.417969 90.671875 87.261719 C 90.210938 88.105469 89.378906 88.773438 88.40625 89.023438 C 87.925781 89.144531 87.414062 89.179688 86.914062 89.101562 C 86.410156 89.019531 85.941406 88.84375 85.492188 88.566406 C 85.085938 88.304688 84.699219 87.933594 84.417969 87.523438 C 84.128906 87.105469 83.945312 86.625 83.847656 86.136719 C 83.660156 85.148438 83.902344 84.117188 84.476562 83.328125 C 85.03125 82.554688 85.894531 82.019531 86.800781 81.859375 C 87.707031 81.691406 88.664062 81.875 89.425781 82.371094 " fill-opacity="1" fill-rule="nonzero"/><path fill="#231f20" d="M 88.398438 83.996094 C 89.113281 84.453125 89.328125 85.402344 88.875 86.121094 C 88.417969 86.839844 87.46875 87.054688 86.75 86.597656 C 86.03125 86.144531 85.816406 85.191406 86.273438 84.476562 C 86.726562 83.757812 87.679688 83.542969 88.398438 83.996094 " fill-opacity="1" fill-rule="nonzero"/><path fill="#231f20" d="M 77.980469 85.28125 C 78.746094 84.945312 79.464844 84.59375 80.132812 84.179688 C 80.46875 83.972656 80.789062 83.757812 81.09375 83.527344 C 81.246094 83.414062 81.386719 83.296875 81.542969 83.171875 C 81.707031 83.042969 81.875 82.914062 82.042969 82.789062 C 83.40625 81.785156 85.039062 81.023438 86.808594 80.796875 C 88.574219 80.558594 90.433594 80.9375 91.941406 81.8125 C 93.453125 82.6875 94.640625 83.957031 95.457031 85.394531 C 94.125 84.417969 92.792969 83.535156 91.371094 83.003906 C 89.957031 82.460938 88.484375 82.28125 87.027344 82.480469 C 85.574219 82.675781 84.152344 83.226562 82.785156 83.960938 L 82.265625 84.246094 C 82.089844 84.347656 81.886719 84.449219 81.691406 84.542969 C 81.300781 84.726562 80.894531 84.878906 80.484375 84.992188 C 79.660156 85.214844 78.820312 85.347656 77.980469 85.28125 " fill-opacity="1" fill-rule="nonzero"/><path fill="#231f20" d="M 81.953125 88 C 83.140625 88.253906 84.324219 88.402344 85.503906 88.460938 C 86.6875 88.507812 87.863281 88.457031 89.007812 88.238281 C 90.152344 88.035156 91.265625 87.660156 92.308594 87.132812 C 93.355469 86.605469 94.324219 85.910156 95.246094 85.113281 C 94.582031 86.136719 93.679688 87.019531 92.628906 87.691406 C 92.109375 88.035156 91.539062 88.304688 90.960938 88.535156 C 90.375 88.757812 89.769531 88.925781 89.15625 89.042969 C 87.925781 89.265625 86.667969 89.277344 85.445312 89.097656 C 84.226562 88.914062 83.027344 88.574219 81.953125 88 " fill-opacity="1" fill-rule="nonzero"/><path fill="#231f20" d="M 89.503906 81.921875 C 89.980469 81.863281 90.394531 81.742188 90.78125 81.585938 C 91.164062 81.417969 91.515625 81.21875 91.851562 80.980469 C 92.191406 80.742188 92.511719 80.46875 92.835938 80.175781 C 93.164062 79.882812 93.480469 79.566406 93.855469 79.253906 C 93.777344 79.734375 93.589844 80.179688 93.328125 80.585938 C 93.074219 80.996094 92.730469 81.363281 92.324219 81.648438 C 91.917969 81.9375 91.4375 82.144531 90.9375 82.203125 C 90.441406 82.265625 89.914062 82.199219 89.503906 81.921875 " fill-opacity="1" fill-rule="nonzero"/><path fill="#231f20" d="M 94.726562 79.605469 C 94.722656 80.054688 94.566406 80.476562 94.347656 80.863281 C 94.121094 81.246094 93.820312 81.589844 93.457031 81.863281 C 92.734375 82.402344 91.746094 82.636719 90.90625 82.328125 C 91.3125 82.144531 91.675781 81.988281 92.015625 81.804688 C 92.355469 81.625 92.667969 81.421875 92.96875 81.203125 C 93.570312 80.757812 94.101562 80.222656 94.726562 79.605469 " fill-opacity="1" fill-rule="nonzero"/><path fill="#231f20" d="M 91.488281 82.511719 C 92.359375 82.300781 93.082031 82.074219 93.707031 81.679688 C 94.019531 81.484375 94.304688 81.253906 94.578125 80.980469 C 94.855469 80.703125 95.109375 80.382812 95.40625 80.039062 C 95.460938 80.9375 94.960938 81.875 94.140625 82.378906 C 93.734375 82.632812 93.269531 82.769531 92.808594 82.796875 C 92.347656 82.816406 91.886719 82.742188 91.488281 82.511719 " fill-opacity="1" fill-rule="nonzero"/><path fill="#231f20" d="M 92.0625 82.597656 C 93.085938 82.648438 93.988281 82.578125 94.765625 82.214844 C 95.15625 82.035156 95.511719 81.789062 95.855469 81.484375 C 96.195312 81.179688 96.511719 80.820312 96.867188 80.4375 C 96.824219 80.957031 96.640625 81.457031 96.34375 81.902344 C 96.046875 82.347656 95.617188 82.730469 95.109375 82.960938 C 94.601562 83.191406 94.03125 83.273438 93.5 83.199219 C 92.96875 83.132812 92.460938 82.941406 92.0625 82.597656 " fill-opacity="1" fill-rule="nonzero"/><path fill="#231f20" d="M 92.445312 82.964844 C 93.015625 82.96875 93.550781 82.960938 94.066406 82.921875 C 94.582031 82.875 95.078125 82.792969 95.535156 82.632812 C 95.996094 82.472656 96.414062 82.242188 96.800781 81.925781 C 97.183594 81.605469 97.523438 81.203125 97.875 80.753906 C 97.84375 81.324219 97.632812 81.890625 97.265625 82.367188 C 96.90625 82.847656 96.375 83.214844 95.800781 83.410156 C 95.226562 83.605469 94.617188 83.644531 94.046875 83.5625 C 93.472656 83.480469 92.917969 83.296875 92.445312 82.964844 " fill-opacity="1" fill-rule="nonzero"/><path fill="#231f20" d="M 93.367188 83.53125 C 93.941406 83.566406 94.484375 83.582031 95.007812 83.558594 C 95.53125 83.527344 96.03125 83.453125 96.492188 83.292969 C 96.953125 83.132812 97.371094 82.886719 97.75 82.550781 C 98.128906 82.214844 98.453125 81.789062 98.796875 81.320312 C 98.777344 81.898438 98.585938 82.476562 98.234375 82.972656 C 97.882812 83.476562 97.351562 83.871094 96.761719 84.070312 C 96.171875 84.273438 95.546875 84.300781 94.96875 84.195312 C 94.386719 84.097656 93.828125 83.886719 93.367188 83.53125 " fill-opacity="1" fill-rule="nonzero"/><path fill="#231f20" d="M 94.023438 84.109375 C 94.601562 84.179688 95.148438 84.226562 95.679688 84.222656 C 96.207031 84.210938 96.710938 84.140625 97.171875 83.972656 C 97.632812 83.804688 98.042969 83.535156 98.417969 83.179688 C 98.789062 82.820312 99.109375 82.375 99.453125 81.898438 C 99.433594 82.484375 99.253906 83.070312 98.914062 83.582031 C 98.578125 84.101562 98.054688 84.53125 97.453125 84.742188 C 96.851562 84.960938 96.207031 84.980469 95.617188 84.859375 C 95.027344 84.738281 94.472656 84.492188 94.023438 84.109375 " fill-opacity="1" fill-rule="nonzero"/><path fill="#231f20" d="M 94.675781 84.664062 C 95.289062 84.765625 95.871094 84.859375 96.441406 84.90625 C 97.011719 84.945312 97.5625 84.9375 98.058594 84.804688 C 98.550781 84.671875 98.96875 84.402344 99.304688 83.988281 C 99.636719 83.566406 99.871094 83.027344 100.109375 82.453125 C 100.207031 83.066406 100.148438 83.722656 99.847656 84.324219 C 99.558594 84.9375 98.941406 85.429688 98.273438 85.597656 C 97.605469 85.773438 96.929688 85.710938 96.324219 85.535156 C 95.71875 85.355469 95.148438 85.074219 94.675781 84.664062 " fill-opacity="1" fill-rule="nonzero"/><path fill="#ffffff" d="M 88.417969 83.515625 C 88.050781 83.746094 87.941406 84.230469 88.171875 84.597656 C 88.40625 84.960938 88.890625 85.070312 89.253906 84.839844 C 89.621094 84.605469 89.730469 84.121094 89.5 83.757812 C 89.265625 83.394531 88.78125 83.285156 88.417969 83.515625 " fill-opacity="1" fill-rule="nonzero"/><path fill="#ffffff" d="M 89.601562 82.78125 C 89.441406 82.878906 89.394531 83.09375 89.496094 83.25 C 89.597656 83.410156 89.804688 83.457031 89.96875 83.355469 C 90.125 83.257812 90.171875 83.046875 90.070312 82.886719 C 89.972656 82.726562 89.761719 82.679688 89.601562 82.78125 " fill-opacity="1" fill-rule="nonzero"/><path fill="#231f20" d="M 75.949219 74.199219 C 75.949219 74.199219 75.523438 76.539062 76.691406 77.175781 C 76.691406 77.175781 89.230469 73.136719 95.820312 75.476562 C 95.820312 75.476562 98.792969 76.644531 99.429688 80.363281 C 99.429688 80.363281 99.75 72.710938 92.097656 71.648438 C 92.097656 71.648438 84.449219 71.328125 75.949219 74.199219 " fill-opacity="1" fill-rule="nonzero"/><path fill="#231f20" d="M 82.140625 81.710938 C 83.082031 80.851562 84.222656 80.203125 85.441406 79.785156 C 86.664062 79.363281 87.984375 79.203125 89.277344 79.34375 C 90.574219 79.492188 91.824219 79.945312 92.925781 80.617188 C 94.03125 81.28125 94.992188 82.15625 95.8125 83.128906 C 94.871094 82.269531 93.859375 81.5 92.761719 80.902344 C 91.660156 80.3125 90.464844 79.902344 89.230469 79.769531 C 88 79.625 86.742188 79.757812 85.539062 80.101562 C 84.34375 80.453125 83.183594 80.984375 82.140625 81.710938 " fill-opacity="1" fill-rule="nonzero"/><path fill="#231f20" d="M 76.96875 105.242188 C 77.363281 105.453125 77.679688 105.808594 77.898438 106.210938 C 78.117188 106.617188 78.234375 107.085938 78.230469 107.554688 C 78.234375 108.019531 78.125 108.476562 77.945312 108.894531 C 77.765625 109.308594 77.519531 109.6875 77.207031 110.007812 C 77.347656 109.582031 77.492188 109.179688 77.59375 108.773438 C 77.699219 108.367188 77.753906 107.957031 77.753906 107.554688 C 77.761719 106.746094 77.488281 105.953125 76.96875 105.242188 " fill-opacity="1" fill-rule="nonzero"/><path fill="#231f20" d="M 72.59375 110.257812 C 72.59375 110.257812 73.824219 107.96875 75.730469 108.386719 C 77.019531 108.667969 75.984375 109.996094 74.753906 109.679688 C 73.640625 109.398438 73.242188 109.789062 72.59375 110.257812 " fill-opacity="1" fill-rule="nonzero"/><path fill="#231f20" d="M 64.746094 105.242188 C 64.222656 105.953125 63.953125 106.746094 63.957031 107.554688 C 63.957031 107.957031 64.015625 108.367188 64.117188 108.773438 C 64.222656 109.179688 64.363281 109.582031 64.507812 110.007812 C 64.195312 109.6875 63.945312 109.308594 63.765625 108.894531 C 63.589844 108.476562 63.480469 108.019531 63.480469 107.554688 C 63.480469 107.085938 63.59375 106.617188 63.816406 106.210938 C 64.03125 105.808594 64.347656 105.453125 64.746094 105.242188 " fill-opacity="1" fill-rule="nonzero"/><path fill="#231f20" d="M 69.542969 110.1875 C 69.542969 110.1875 68.3125 107.898438 66.40625 108.316406 C 65.117188 108.601562 66.152344 109.925781 67.382812 109.609375 C 68.496094 109.324219 68.894531 109.71875 69.542969 110.1875 " fill-opacity="1" fill-rule="nonzero"/><path fill="#ee1796" d="M 59.039062 119.398438 L 59.039062 119.394531 C 59.066406 119.390625 61.128906 119.15625 63.984375 116.929688 C 64.765625 116.324219 65.339844 115.882812 66.5 115.875 C 68.597656 115.863281 69.945312 116.960938 70.539062 116.964844 L 70.542969 116.953125 L 70.664062 116.960938 L 70.816406 116.949219 L 70.816406 116.957031 C 71.402344 116.945312 72.953125 115.835938 74.933594 115.824219 C 76.308594 115.816406 77.042969 116.25 77.835938 116.851562 C 80.726562 119.039062 82.308594 119.25 82.339844 119.253906 L 82.339844 119.261719 L 82.53125 119.253906 L 82.421875 119.453125 C 82.382812 119.519531 78.644531 126.207031 71.8125 126.242188 C 71.472656 126.246094 71.121094 126.230469 70.757812 126.195312 C 70.375 126.234375 70.027344 126.257812 69.683594 126.257812 C 62.847656 126.296875 59 119.660156 58.960938 119.59375 L 58.847656 119.394531 L 59.039062 119.398438 " fill-opacity="1" fill-rule="nonzero"/><path fill="#231f20" d="M 59.039062 119.398438 L 59.332031 119.398438 L 59.332031 119.394531 L 59.039062 119.394531 L 59.078125 119.679688 L 59.058594 119.535156 L 59.078125 119.679688 L 59.058594 119.535156 L 59.078125 119.679688 C 59.171875 119.671875 61.285156 119.402344 64.164062 117.160156 C 64.554688 116.855469 64.878906 116.609375 65.230469 116.4375 C 65.578125 116.269531 65.957031 116.167969 66.503906 116.164062 L 66.539062 116.164062 C 67.523438 116.164062 68.335938 116.421875 68.988281 116.6875 C 69.3125 116.820312 69.597656 116.953125 69.84375 117.058594 C 70.097656 117.164062 70.304688 117.246094 70.539062 117.253906 C 70.679688 117.253906 70.800781 117.152344 70.824219 117.011719 L 70.828125 117 L 70.542969 116.953125 L 70.523438 117.242188 L 70.644531 117.25 L 70.683594 117.25 L 70.835938 117.238281 L 70.816406 116.949219 L 70.527344 116.949219 L 70.527344 116.957031 C 70.527344 117.035156 70.558594 117.113281 70.613281 117.167969 C 70.667969 117.21875 70.746094 117.25 70.824219 117.25 C 70.941406 117.246094 71.050781 117.21875 71.164062 117.183594 C 71.566406 117.058594 72.082031 116.792969 72.726562 116.558594 C 73.363281 116.324219 74.113281 116.121094 74.933594 116.117188 L 74.96875 116.117188 C 75.617188 116.117188 76.09375 116.214844 76.507812 116.382812 C 76.921875 116.550781 77.273438 116.789062 77.660156 117.082031 C 80.585938 119.296875 82.214844 119.535156 82.304688 119.542969 L 82.339844 119.253906 L 82.046875 119.253906 L 82.046875 119.261719 C 82.046875 119.339844 82.078125 119.414062 82.136719 119.46875 C 82.191406 119.523438 82.265625 119.554688 82.34375 119.550781 L 82.539062 119.546875 L 82.53125 119.253906 L 82.273438 119.117188 L 82.167969 119.316406 L 82.421875 119.453125 L 82.167969 119.3125 C 82.15625 119.332031 81.226562 120.992188 79.464844 122.648438 C 77.703125 124.300781 75.128906 125.9375 71.8125 125.953125 L 71.753906 125.953125 C 71.441406 125.953125 71.117188 125.9375 70.785156 125.90625 L 70.730469 125.90625 C 70.351562 125.945312 70.015625 125.964844 69.679688 125.96875 L 69.683594 125.96875 L 69.625 125.96875 C 66.324219 125.96875 63.734375 124.363281 61.953125 122.734375 C 61.066406 121.921875 60.378906 121.105469 59.917969 120.488281 C 59.6875 120.179688 59.511719 119.921875 59.394531 119.738281 C 59.335938 119.648438 59.289062 119.578125 59.257812 119.527344 C 59.226562 119.476562 59.214844 119.453125 59.207031 119.445312 L 58.960938 119.59375 L 59.210938 119.449219 L 59.097656 119.25 L 58.847656 119.394531 L 58.84375 119.6875 L 59.035156 119.6875 C 59.113281 119.691406 59.1875 119.660156 59.246094 119.605469 C 59.300781 119.550781 59.332031 119.476562 59.332031 119.398438 L 59.039062 119.398438 L 59.042969 119.109375 L 58.851562 119.105469 C 58.746094 119.105469 58.648438 119.15625 58.597656 119.246094 C 58.542969 119.335938 58.542969 119.449219 58.59375 119.539062 L 58.707031 119.738281 L 58.710938 119.742188 C 58.769531 119.839844 59.761719 121.527344 61.605469 123.203125 C 63.445312 124.878906 66.152344 126.546875 69.625 126.546875 L 69.6875 126.546875 C 70.039062 126.546875 70.398438 126.523438 70.789062 126.484375 L 70.757812 126.195312 L 70.730469 126.484375 C 71.078125 126.519531 71.421875 126.535156 71.753906 126.535156 L 71.816406 126.535156 C 75.328125 126.511719 78.039062 124.785156 79.863281 123.070312 C 81.691406 121.355469 82.648438 119.644531 82.675781 119.597656 L 82.675781 119.59375 L 82.785156 119.394531 C 82.835938 119.300781 82.832031 119.191406 82.777344 119.105469 C 82.722656 119.015625 82.628906 118.960938 82.523438 118.964844 L 82.332031 118.96875 L 82.339844 119.261719 L 82.628906 119.261719 L 82.628906 119.253906 C 82.628906 119.109375 82.519531 118.984375 82.371094 118.964844 C 82.304688 118.957031 80.78125 118.714844 78.011719 116.617188 C 77.613281 116.316406 77.210938 116.039062 76.722656 115.84375 C 76.242188 115.648438 75.675781 115.535156 74.96875 115.535156 L 74.925781 115.535156 L 74.929688 115.535156 C 73.886719 115.542969 72.96875 115.835938 72.246094 116.121094 C 71.882812 116.265625 71.570312 116.40625 71.316406 116.507812 C 71.195312 116.5625 71.082031 116.601562 70.996094 116.628906 C 70.90625 116.65625 70.839844 116.667969 70.8125 116.667969 L 70.816406 116.957031 L 71.109375 116.957031 L 71.109375 116.949219 C 71.109375 116.867188 71.074219 116.792969 71.015625 116.738281 C 70.957031 116.683594 70.878906 116.652344 70.796875 116.660156 L 70.660156 116.667969 L 70.558594 116.660156 C 70.410156 116.652344 70.28125 116.757812 70.253906 116.902344 L 70.253906 116.914062 L 70.539062 116.964844 L 70.542969 116.671875 C 70.480469 116.675781 70.300781 116.625 70.070312 116.523438 C 69.371094 116.226562 68.167969 115.582031 66.539062 115.585938 L 66.496094 115.585938 L 66.5 115.585938 C 65.882812 115.585938 65.394531 115.710938 64.972656 115.917969 C 64.550781 116.121094 64.199219 116.398438 63.808594 116.703125 C 62.402344 117.796875 61.195312 118.398438 60.347656 118.722656 C 59.921875 118.886719 59.585938 118.984375 59.355469 119.039062 C 59.242188 119.066406 59.152344 119.082031 59.09375 119.089844 C 59.03125 119.101562 59.007812 119.105469 59.003906 119.105469 C 58.859375 119.125 58.75 119.246094 58.75 119.394531 L 58.75 119.398438 L 59.039062 119.398438 L 59.042969 119.109375 L 59.039062 119.398438 " fill-opacity="1" fill-rule="nonzero"/><path fill="#c51379" d="M 69.683594 125.96875 L 69.625 125.96875 C 66.324219 125.96875 63.734375 124.363281 61.953125 122.734375 C 61.066406 121.921875 60.378906 121.105469 59.917969 120.488281 C 59.6875 120.179688 59.511719 119.921875 59.394531 119.738281 C 59.367188 119.703125 59.347656 119.667969 59.328125 119.636719 C 59.976562 119.503906 61.816406 118.988281 64.164062 117.160156 C 64.554688 116.855469 64.878906 116.609375 65.230469 116.4375 C 65.578125 116.269531 65.957031 116.167969 66.503906 116.164062 L 66.539062 116.164062 C 66.671875 116.164062 66.800781 116.167969 66.925781 116.179688 C 65.003906 116.773438 62.703125 118.210938 63.1875 120.230469 C 63.882812 123.132812 67.097656 124.179688 69.707031 124.703125 C 70.945312 124.953125 72.339844 125.105469 73.753906 125.105469 C 74.554688 125.105469 75.359375 125.058594 76.144531 124.949219 C 74.882812 125.546875 73.4375 125.945312 71.8125 125.953125 L 71.753906 125.953125 C 71.441406 125.953125 71.117188 125.9375 70.785156 125.90625 L 70.730469 125.90625 C 70.351562 125.945312 70.015625 125.964844 69.679688 125.96875 L 69.683594 125.96875 " fill-opacity="1" fill-rule="nonzero"/><path fill="#231f20" d="M 69.625 126.257812 C 62.828125 126.257812 59 119.65625 58.960938 119.59375 L 58.847656 119.394531 L 59.039062 119.398438 L 59.039062 119.394531 C 59.066406 119.390625 61.128906 119.15625 63.984375 116.929688 C 64.765625 116.324219 65.339844 115.882812 66.5 115.875 C 66.511719 115.875 66.523438 115.875 66.535156 115.875 C 66.9375 115.875 67.304688 115.921875 67.652344 115.988281 C 67.421875 116.039062 67.175781 116.101562 66.925781 116.179688 C 66.800781 116.167969 66.671875 116.164062 66.539062 116.164062 L 66.503906 116.164062 C 65.957031 116.167969 65.578125 116.269531 65.230469 116.4375 C 64.878906 116.609375 64.554688 116.855469 64.164062 117.160156 C 61.816406 118.988281 59.976562 119.503906 59.328125 119.636719 C 59.347656 119.667969 59.367188 119.703125 59.394531 119.738281 C 59.511719 119.921875 59.6875 120.179688 59.917969 120.488281 C 60.378906 121.105469 61.066406 121.921875 61.953125 122.734375 C 63.734375 124.363281 66.324219 125.96875 69.625 125.96875 L 69.683594 125.96875 L 69.679688 125.96875 C 70.015625 125.964844 70.351562 125.945312 70.730469 125.90625 L 70.785156 125.90625 C 71.117188 125.9375 71.441406 125.953125 71.753906 125.953125 L 71.8125 125.953125 C 73.4375 125.945312 74.882812 125.546875 76.144531 124.949219 C 76.445312 124.910156 76.746094 124.859375 77.042969 124.800781 C 75.578125 125.632812 73.835938 126.234375 71.8125 126.242188 C 71.792969 126.242188 71.773438 126.242188 71.753906 126.242188 C 71.429688 126.242188 71.097656 126.230469 70.757812 126.195312 C 70.375 126.234375 70.027344 126.257812 69.683594 126.257812 C 69.664062 126.257812 69.644531 126.257812 69.625 126.257812 " fill-opacity="1" fill-rule="nonzero"/><path fill="#ffffff" d="M 63.28125 119.195312 C 63.300781 119.195312 64.578125 119.101562 66.355469 118.265625 C 66.839844 118.035156 67.195312 117.867188 67.917969 117.863281 C 69.21875 117.855469 70.054688 118.265625 70.421875 118.265625 L 70.421875 118.261719 L 70.5 118.265625 L 70.59375 118.261719 L 70.59375 118.265625 C 70.957031 118.257812 71.921875 117.839844 73.148438 117.832031 C 74.003906 117.828125 74.460938 117.988281 74.949219 118.210938 C 76.742188 119.027344 77.722656 119.101562 77.738281 119.105469 L 77.859375 119.105469 L 77.792969 119.179688 C 77.769531 119.203125 75.433594 121.710938 71.195312 121.738281 C 70.980469 121.742188 70.761719 121.734375 70.539062 121.722656 C 70.304688 121.738281 70.085938 121.746094 69.871094 121.746094 C 65.628906 121.773438 63.253906 119.292969 63.230469 119.269531 L 63.160156 119.195312 L 63.28125 119.195312 " fill-opacity="1" fill-rule="nonzero"/><path fill="#231f20" d="M 63.28125 119.195312 L 63.53125 119.195312 L 63.28125 119.195312 L 63.289062 119.445312 L 63.320312 119.441406 C 63.503906 119.425781 64.761719 119.292969 66.460938 118.492188 C 66.953125 118.265625 67.238281 118.125 67.917969 118.117188 L 67.921875 118.117188 L 67.957031 118.113281 C 68.570312 118.113281 69.070312 118.210938 69.472656 118.308594 C 69.671875 118.355469 69.847656 118.40625 70 118.445312 C 70.15625 118.484375 70.285156 118.515625 70.421875 118.515625 C 70.53125 118.515625 70.632812 118.441406 70.664062 118.335938 L 70.664062 118.332031 L 70.421875 118.261719 L 70.410156 118.511719 L 70.484375 118.515625 L 70.507812 118.515625 L 70.605469 118.511719 L 70.59375 118.261719 L 70.34375 118.261719 L 70.34375 118.265625 C 70.34375 118.332031 70.371094 118.394531 70.417969 118.441406 C 70.464844 118.488281 70.53125 118.515625 70.597656 118.515625 C 70.734375 118.511719 70.867188 118.480469 71.035156 118.4375 C 71.527344 118.3125 72.269531 118.089844 73.152344 118.082031 L 73.1875 118.082031 C 73.988281 118.085938 74.375 118.226562 74.84375 118.441406 C 76.664062 119.265625 77.671875 119.351562 77.722656 119.355469 L 77.738281 119.105469 L 77.488281 119.105469 C 77.488281 119.175781 77.515625 119.238281 77.5625 119.285156 C 77.613281 119.332031 77.679688 119.359375 77.746094 119.359375 L 77.863281 119.355469 L 77.859375 119.105469 L 77.671875 118.9375 L 77.601562 119.011719 L 77.792969 119.179688 L 77.613281 119.003906 L 77.601562 119.015625 C 77.53125 119.085938 76.929688 119.699219 75.847656 120.296875 C 74.761719 120.894531 73.199219 121.476562 71.191406 121.484375 L 71.105469 121.488281 C 70.925781 121.488281 70.742188 121.480469 70.554688 121.472656 L 70.523438 121.472656 C 70.289062 121.488281 70.078125 121.496094 69.871094 121.496094 L 69.804688 121.496094 C 67.753906 121.496094 66.160156 120.898438 65.074219 120.296875 C 64.53125 119.996094 64.113281 119.695312 63.835938 119.472656 C 63.554688 119.246094 63.410156 119.09375 63.410156 119.09375 L 63.230469 119.269531 L 63.414062 119.097656 L 63.347656 119.023438 L 63.160156 119.195312 L 63.15625 119.445312 L 63.277344 119.449219 C 63.34375 119.449219 63.410156 119.421875 63.457031 119.375 C 63.503906 119.328125 63.53125 119.265625 63.53125 119.195312 L 63.28125 119.195312 L 63.285156 118.945312 L 63.164062 118.941406 C 63.0625 118.941406 62.972656 119 62.933594 119.09375 C 62.890625 119.183594 62.90625 119.292969 62.976562 119.363281 L 63.046875 119.441406 L 63.050781 119.445312 C 63.070312 119.46875 63.683594 120.105469 64.832031 120.738281 C 65.976562 121.371094 67.65625 121.996094 69.804688 121.996094 L 69.871094 121.996094 C 70.09375 121.996094 70.316406 121.988281 70.554688 121.972656 L 70.539062 121.722656 L 70.527344 121.972656 C 70.722656 121.984375 70.914062 121.988281 71.105469 121.988281 L 71.195312 121.988281 C 73.367188 121.976562 75.050781 121.328125 76.199219 120.675781 C 76.769531 120.351562 77.207031 120.027344 77.507812 119.78125 C 77.65625 119.65625 77.769531 119.550781 77.847656 119.476562 C 77.886719 119.441406 77.917969 119.410156 77.9375 119.386719 L 77.96875 119.355469 L 77.957031 119.34375 L 77.96875 119.355469 L 77.957031 119.34375 L 77.96875 119.355469 L 77.976562 119.347656 L 78.046875 119.269531 C 78.113281 119.195312 78.128906 119.089844 78.085938 119 C 78.042969 118.90625 77.953125 118.851562 77.851562 118.851562 L 77.734375 118.855469 L 77.738281 119.105469 L 77.992188 119.105469 C 77.992188 118.972656 77.890625 118.863281 77.757812 118.851562 L 77.71875 118.847656 C 77.519531 118.824219 76.597656 118.683594 75.054688 117.980469 C 74.5625 117.753906 74.046875 117.578125 73.1875 117.578125 L 73.144531 117.582031 L 73.148438 117.582031 C 72.507812 117.585938 71.9375 117.695312 71.488281 117.804688 C 71.265625 117.859375 71.070312 117.910156 70.914062 117.953125 C 70.757812 117.992188 70.636719 118.011719 70.589844 118.011719 L 70.59375 118.265625 L 70.84375 118.265625 L 70.84375 118.261719 C 70.84375 118.191406 70.816406 118.125 70.769531 118.078125 C 70.71875 118.03125 70.648438 118.003906 70.582031 118.011719 L 70.433594 118.011719 C 70.320312 118.003906 70.214844 118.078125 70.183594 118.191406 L 70.421875 118.265625 L 70.421875 118.015625 C 70.375 118.015625 70.265625 117.996094 70.125 117.957031 C 69.691406 117.847656 68.953125 117.613281 67.957031 117.613281 L 67.914062 117.613281 L 67.917969 117.613281 C 67.15625 117.613281 66.726562 117.808594 66.246094 118.039062 C 65.375 118.445312 64.628906 118.671875 64.101562 118.796875 C 63.835938 118.859375 63.625 118.894531 63.484375 118.917969 C 63.410156 118.929688 63.355469 118.933594 63.320312 118.9375 L 63.277344 118.941406 L 63.265625 118.941406 L 63.277344 119.125 L 63.269531 118.941406 L 63.265625 118.941406 L 63.277344 119.125 L 63.269531 118.941406 C 63.136719 118.949219 63.027344 119.058594 63.027344 119.195312 L 63.28125 119.195312 L 63.285156 118.945312 L 63.28125 119.195312 " fill-opacity="1" fill-rule="nonzero"/><path fill="#ffffff" d="M 61.929688 121.597656 C 61.929688 121.597656 62.25 123.230469 65.78125 124.8125 C 67.128906 125.417969 70.753906 126.207031 70.78125 125.246094 C 70.800781 124.601562 68.660156 124.835938 66.40625 124.167969 C 63.050781 123.175781 61.929688 121.597656 61.929688 121.597656 " fill-opacity="1" fill-rule="nonzero"/><path fill="#ffffff" d="M 77.882812 120.097656 C 77.882812 120.097656 77.6875 121.097656 75.523438 122.066406 C 74.695312 122.441406 72.472656 122.921875 72.457031 122.335938 C 72.445312 121.9375 73.757812 122.082031 75.140625 121.675781 C 77.195312 121.066406 77.882812 120.097656 77.882812 120.097656 " fill-opacity="1" fill-rule="nonzero"/><g clip-path="url(#f65b5adbb6)"><path fill="#a34030" d="M 89.390625 148.628906 C 85.738281 145.46875 84.921875 141.488281 84.757812 140.328125 C 83.375 130.507812 89.28125 119.046875 94.492188 108.9375 C 98.105469 101.921875 101.230469 95.863281 101.65625 91.109375 C 102.925781 76.851562 92.257812 74.183594 92.148438 74.160156 L 92.113281 74.152344 L 92.074219 74.144531 C 74.617188 71.882812 64.078125 64.65625 58.3125 58.988281 C 52.097656 52.878906 49.972656 47.277344 49.949219 47.21875 L 49.84375 46.925781 L 49.554688 46.800781 C 40.761719 42.9375 40.191406 32.695312 40.160156 31.058594 C 41.269531 29.601562 50.511719 18.84375 81.15625 18.84375 C 97.449219 18.84375 108.722656 33.511719 115.316406 45.816406 C 123.085938 60.324219 127.402344 77.457031 127.652344 86.878906 C 127.769531 91.476562 127.238281 96.289062 126.671875 101.378906 C 124.941406 116.960938 123.152344 133.074219 139.753906 145.535156 C 140.980469 146.453125 142.207031 147.492188 143.414062 148.628906 L 89.390625 148.628906 " fill-opacity="1" fill-rule="nonzero"/></g><g clip-path="url(#28312968be)"><path fill="#231f20" d="M 81.15625 18.105469 C 47.539062 18.105469 39.417969 30.824219 39.417969 30.824219 C 39.417969 30.824219 39.171875 43.046875 49.257812 47.476562 C 49.257812 47.476562 57.785156 70.449219 91.980469 74.878906 C 91.980469 74.878906 102.148438 77.257812 100.917969 91.042969 C 99.890625 102.5625 81.664062 123.664062 84.027344 140.429688 C 84.339844 142.660156 85.589844 146.429688 89.117188 149.367188 L 145.226562 149.367188 C 143.632812 147.753906 141.960938 146.265625 140.195312 144.941406 C 118.546875 128.699219 128.878906 105.5625 128.386719 86.859375 C 127.898438 68.152344 111.496094 18.105469 81.15625 18.105469 Z M 81.15625 19.582031 C 87.863281 19.582031 94.304688 22.191406 100.304688 27.339844 C 105.550781 31.839844 110.382812 38.171875 114.664062 46.164062 C 122.382812 60.570312 126.667969 77.558594 126.914062 86.898438 C 127.03125 91.449219 126.5 96.230469 125.9375 101.296875 C 124.265625 116.351562 122.371094 133.414062 139.3125 146.125 C 140.039062 146.671875 140.769531 147.261719 141.496094 147.890625 L 89.667969 147.890625 C 86.382812 144.929688 85.640625 141.300781 85.488281 140.226562 C 84.136719 130.636719 89.984375 119.289062 95.148438 109.273438 C 98.796875 102.191406 101.953125 96.074219 102.386719 91.171875 C 103.078125 83.472656 100.347656 79.070312 97.9375 76.730469 C 95.289062 74.15625 92.4375 73.46875 92.316406 73.441406 L 92.246094 73.421875 L 92.167969 73.414062 C 84.578125 72.429688 77.667969 70.425781 71.636719 67.457031 C 66.828125 65.085938 62.558594 62.101562 58.949219 58.578125 C 52.796875 52.574219 50.660156 47.015625 50.644531 46.964844 L 50.425781 46.375 L 49.851562 46.125 C 46.09375 44.476562 43.449219 41.441406 41.988281 37.109375 C 41.117188 34.539062 40.941406 32.234375 40.90625 31.296875 C 42.4375 29.382812 51.742188 19.582031 81.15625 19.582031 " fill-opacity="1" fill-rule="nonzero"/></g><path fill="#231f20" d="M 55.902344 45.753906 C 56.300781 46.5625 56.777344 47.324219 57.277344 48.066406 C 57.773438 48.808594 58.304688 49.53125 58.863281 50.230469 C 59.976562 51.625 61.179688 52.9375 62.480469 54.148438 C 65.0625 56.589844 67.980469 58.640625 71.089844 60.304688 C 74.210938 61.953125 77.511719 63.246094 80.929688 64.132812 C 82.636719 64.578125 84.355469 64.957031 86.109375 65.242188 C 87.910156 65.539062 89.714844 65.9375 91.484375 66.472656 C 94.996094 67.570312 98.445312 69.222656 101.25 71.773438 C 102.640625 73.046875 103.847656 74.53125 104.789062 76.167969 C 105.742188 77.800781 106.410156 79.585938 106.8125 81.40625 C 107.21875 83.230469 107.390625 85.089844 107.351562 86.929688 C 107.308594 88.773438 107.085938 90.597656 106.726562 92.386719 C 105.980469 95.957031 104.742188 99.386719 103.132812 102.609375 C 104.335938 99.21875 105.3125 95.75 105.773438 92.222656 C 106.25 88.714844 106.214844 85.125 105.324219 81.773438 C 104.871094 80.105469 104.195312 78.507812 103.308594 77.050781 C 102.417969 75.589844 101.292969 74.285156 100.007812 73.160156 C 97.433594 70.894531 94.246094 69.359375 90.90625 68.355469 C 89.234375 67.832031 87.527344 67.441406 85.78125 67.132812 C 83.992188 66.820312 82.191406 66.433594 80.433594 65.925781 C 76.921875 64.898438 73.496094 63.511719 70.34375 61.640625 C 67.179688 59.792969 64.285156 57.492188 61.800781 54.828125 C 60.566406 53.484375 59.425781 52.0625 58.421875 50.546875 C 57.425781 49.035156 56.535156 47.445312 55.902344 45.753906 " fill-opacity="1" fill-rule="nonzero"/><path fill="#231f20" d="M 59.097656 36.648438 C 60.40625 40.394531 62.160156 43.976562 64.351562 47.25 C 66.519531 50.523438 69.152344 53.507812 72.289062 55.804688 C 73.859375 56.945312 75.554688 57.902344 77.339844 58.636719 C 79.121094 59.367188 80.996094 59.851562 82.910156 60.09375 C 86.835938 60.613281 90.796875 61.09375 94.726562 61.925781 C 96.6875 62.355469 98.636719 62.886719 100.539062 63.589844 C 102.441406 64.296875 104.300781 65.179688 105.988281 66.359375 C 107.675781 67.53125 109.1875 69 110.351562 70.710938 C 111.523438 72.417969 112.332031 74.351562 112.820312 76.328125 C 113.808594 80.3125 113.625 84.410156 113.027344 88.351562 C 112.710938 90.328125 112.28125 92.277344 111.773438 94.203125 C 111.519531 95.164062 111.25 96.121094 110.957031 97.074219 C 110.660156 98.019531 110.347656 98.964844 110.019531 99.902344 C 110.277344 98.941406 110.519531 97.980469 110.742188 97.011719 C 110.976562 96.050781 111.195312 95.082031 111.394531 94.113281 C 111.789062 92.171875 112.105469 90.21875 112.308594 88.257812 C 112.523438 86.300781 112.628906 84.332031 112.550781 82.375 C 112.46875 80.425781 112.234375 78.484375 111.710938 76.625 C 111.1875 74.769531 110.390625 73.003906 109.289062 71.453125 C 108.191406 69.898438 106.789062 68.574219 105.199219 67.511719 C 103.613281 66.441406 101.863281 65.605469 100.042969 64.945312 C 98.21875 64.28125 96.328125 63.78125 94.414062 63.371094 C 90.582031 62.527344 86.652344 62.042969 82.722656 61.472656 C 78.675781 60.90625 74.792969 59.222656 71.601562 56.722656 C 68.382812 54.238281 65.804688 51.058594 63.742188 47.632812 C 62.71875 45.910156 61.824219 44.121094 61.042969 42.289062 C 60.257812 40.457031 59.585938 38.574219 59.097656 36.648438 " fill-opacity="1" fill-rule="nonzero"/><path fill="#231f20" d="M 40.402344 48.214844 C 40.050781 48.664062 39.757812 49.152344 39.484375 49.644531 C 39.207031 50.136719 38.949219 50.640625 38.714844 51.152344 C 38.242188 52.175781 37.824219 53.222656 37.460938 54.289062 C 36.71875 56.417969 36.15625 58.601562 35.6875 60.804688 C 35.234375 63.007812 34.851562 65.230469 34.585938 67.46875 C 34.300781 69.703125 34.082031 71.949219 33.945312 74.203125 C 33.785156 76.453125 33.699219 78.710938 33.652344 80.972656 C 33.585938 83.234375 33.601562 85.496094 33.613281 87.761719 C 33.65625 92.292969 33.839844 96.824219 34.007812 101.378906 C 33.226562 96.890625 32.726562 92.355469 32.460938 87.800781 C 32.3125 85.523438 32.269531 83.242188 32.253906 80.957031 C 32.257812 78.671875 32.335938 76.386719 32.472656 74.105469 C 32.640625 71.824219 32.867188 69.542969 33.203125 67.277344 C 33.554688 65.011719 33.976562 62.753906 34.570312 60.539062 C 35.144531 58.316406 35.871094 56.132812 36.789062 54.027344 C 37.257812 52.980469 37.765625 51.949219 38.355469 50.960938 C 38.945312 49.980469 39.59375 49.019531 40.402344 48.214844 " fill-opacity="1" fill-rule="nonzero"/><path fill="#be4c3a" d="M 74.113281 22.652344 C 74.113281 22.652344 98.128906 22.652344 111.941406 46.253906 C 111.941406 46.253906 106.203125 40.089844 98.765625 39.664062 C 98.765625 39.664062 108.753906 43.492188 114.492188 62.203125 C 114.492188 62.203125 104.078125 42 81.550781 35.199219 C 81.550781 35.199219 90.050781 32.554688 97.066406 34.300781 C 97.066406 34.300781 81.125 23.714844 74.113281 22.652344 " fill-opacity="1" fill-rule="nonzero"/><path fill="#be4c3a" d="M 110.523438 144.328125 C 103.203125 145.707031 96.148438 141.101562 96.148438 141.101562 C 98.738281 143.757812 101.40625 145.945312 104.085938 147.75 L 121.101562 147.75 C 125.210938 146.390625 128.304688 144.519531 128.304688 144.519531 C 104.804688 143.335938 89.839844 126.234375 89.839844 126.234375 C 99.90625 143.015625 110.523438 144.328125 110.523438 144.328125 " fill-opacity="1" fill-rule="nonzero"/><path fill="#be4c3a" d="M 31.945312 148.671875 C 28.980469 141.019531 26.683594 130.40625 26.683594 130.40625 C 30.492188 136.550781 38.429688 140.585938 38.429688 140.585938 C 27.023438 119.992188 33.632812 98.25 33.632812 98.25 C 24.707031 115.664062 29.199219 125.378906 29.199219 125.378906 C 24.164062 119.882812 24.347656 111.460938 24.347656 111.460938 C 20.140625 128.53125 25.753906 141.550781 30.296875 148.671875 L 31.945312 148.671875 " fill-opacity="1" fill-rule="nonzero"/><g transform="matrix(1, 0, 0, 1, 74, 145)"><g clip-path="url(#d0dc85a24d)"><g fill="#58677e" fill-opacity="1"><g transform="translate(0.999997, 4.067974)"><g><path d="M 2.5 -1.21875 C 2.5 -0.925781 2.445312 -0.679688 2.34375 -0.484375 C 2.25 -0.296875 2.101562 -0.160156 1.90625 -0.078125 L 2.484375 0.578125 L 1.828125 0.578125 L 1.390625 0.03125 L 1.34375 0.03125 C 0.976562 0.03125 0.695312 -0.0703125 0.5 -0.28125 C 0.300781 -0.5 0.203125 -0.8125 0.203125 -1.21875 C 0.203125 -1.625 0.300781 -1.929688 0.5 -2.140625 C 0.695312 -2.347656 0.984375 -2.453125 1.359375 -2.453125 C 1.722656 -2.453125 2.003906 -2.34375 2.203125 -2.125 C 2.398438 -1.914062 2.5 -1.613281 2.5 -1.21875 Z M 0.734375 -1.21875 C 0.734375 -0.945312 0.785156 -0.738281 0.890625 -0.59375 C 0.992188 -0.457031 1.144531 -0.390625 1.34375 -0.390625 C 1.757812 -0.390625 1.96875 -0.664062 1.96875 -1.21875 C 1.96875 -1.757812 1.765625 -2.03125 1.359375 -2.03125 C 1.148438 -2.03125 0.992188 -1.960938 0.890625 -1.828125 C 0.785156 -1.691406 0.734375 -1.488281 0.734375 -1.21875 Z M 0.734375 -1.21875 "/></g></g></g><g fill="#58677e" fill-opacity="1"><g transform="translate(3.694763, 4.067974)"><g><path d="M 1.78125 0 L 1.609375 -0.578125 L 0.734375 -0.578125 L 0.546875 0 L 0 0 L 0.859375 -2.4375 L 1.484375 -2.4375 L 2.34375 0 Z M 1.484375 -1 C 1.328125 -1.53125 1.238281 -1.828125 1.21875 -1.890625 C 1.195312 -1.960938 1.179688 -2.015625 1.171875 -2.046875 C 1.128906 -1.910156 1.023438 -1.5625 0.859375 -1 Z M 1.484375 -1 "/></g></g></g><g clip-path="url(#74b20216e9)"><g fill="#58677e" fill-opacity="1"><g transform="translate(6.030779, 4.067974)"><g><path d="M 0.296875 -2.421875 L 1.0625 -2.421875 C 1.40625 -2.421875 1.648438 -2.367188 1.796875 -2.265625 C 1.953125 -2.171875 2.03125 -2.019531 2.03125 -1.8125 C 2.03125 -1.664062 1.992188 -1.546875 1.921875 -1.453125 C 1.859375 -1.359375 1.773438 -1.300781 1.671875 -1.28125 L 1.671875 -1.265625 C 1.816406 -1.234375 1.921875 -1.171875 1.984375 -1.078125 C 2.054688 -0.984375 2.09375 -0.859375 2.09375 -0.703125 C 2.09375 -0.484375 2.015625 -0.3125 1.859375 -0.1875 C 1.703125 -0.0625 1.484375 0 1.203125 0 L 0.296875 0 Z M 0.8125 -1.46875 L 1.109375 -1.46875 C 1.253906 -1.46875 1.359375 -1.488281 1.421875 -1.53125 C 1.484375 -1.570312 1.515625 -1.640625 1.515625 -1.734375 C 1.515625 -1.828125 1.476562 -1.894531 1.40625 -1.9375 C 1.34375 -1.976562 1.238281 -2 1.09375 -2 L 0.8125 -2 Z M 0.8125 -1.046875 L 0.8125 -0.421875 L 1.15625 -0.421875 C 1.289062 -0.421875 1.390625 -0.445312 1.453125 -0.5 C 1.523438 -0.5625 1.5625 -0.644531 1.5625 -0.75 C 1.5625 -0.945312 1.421875 -1.046875 1.140625 -1.046875 Z M 0.8125 -1.046875 "/></g></g></g></g></g></g></svg>