<svg xmlns="http://www.w3.org/2000/svg" xmlns:xlink="http://www.w3.org/1999/xlink" width="200" zoomAndPan="magnify" viewBox="0 0 150 149.999998" height="200" preserveAspectRatio="xMidYMid meet" version="1.0"><defs><g/><clipPath id="6c9ae3d579"><path d="M 6 1 L 8.320312 1 L 8.320312 5 L 6 5 Z M 6 1 " clip-rule="nonzero"/></clipPath><clipPath id="4f74ffa1f0"><rect x="0" width="9" y="0" height="5"/></clipPath></defs><path fill="#fbcb98" d="M 42.992188 50.472656 C 41.980469 49.367188 40.421875 48.835938 39.546875 50.359375 C 38.285156 52.542969 38.417969 55.464844 38.597656 57.882812 C 38.75 59.839844 38.988281 61.796875 39.5 63.691406 C 39.941406 65.332031 40.550781 67.59375 42.015625 68.617188 C 42.351562 68.851562 42.808594 69.078125 43.226562 69.167969 C 43.460938 69.21875 44.859375 69.242188 44.386719 68.636719 " fill-opacity="1" fill-rule="nonzero"/><path fill="#fbcb98" d="M 111.328125 50.472656 C 112.339844 49.367188 113.894531 48.835938 114.773438 50.359375 C 116.035156 52.542969 115.902344 55.464844 115.722656 57.882812 C 115.570312 59.839844 115.332031 61.796875 114.820312 63.691406 C 114.375 65.332031 113.769531 67.59375 112.304688 68.617188 C 111.96875 68.851562 111.511719 69.078125 111.09375 69.167969 C 110.859375 69.21875 109.460938 69.242188 109.933594 68.636719 " fill-opacity="1" fill-rule="nonzero"/><path fill="#fbcb98" d="M 154.128906 149.789062 C 154.242188 149.660156 154.363281 149.539062 154.46875 149.40625 C 149.875 137.679688 140.105469 128.324219 127.515625 124.472656 L 107.308594 117.027344 C 99.183594 114.378906 98.757812 109.316406 98.757812 100.785156 L 98.757812 82.671875 L 55.6875 82.671875 L 55.6875 100.792969 C 55.6875 109.316406 56.054688 113.785156 47.945312 116.445312 L 26.96875 124.488281 C 14.363281 128.324219 4.585938 137.683594 -0.0234375 149.414062 C 0.0859375 149.539062 0.203125 149.664062 0.3125 149.789062 Z M 154.128906 149.789062 " fill-opacity="1" fill-rule="nonzero"/><path fill="#5d281b" d="M 154.128906 149.789062 C 154.242188 149.660156 154.363281 149.539062 154.46875 149.40625 C 149.875 137.679688 140.105469 128.324219 127.515625 124.472656 L 107.308594 117.027344 C 105.539062 116.445312 104.144531 115.746094 103.035156 114.925781 C 102.679688 115.132812 102.265625 115.433594 101.804688 115.804688 C 87.429688 127.289062 66.785156 126.394531 53.34375 113.832031 C 53.261719 113.753906 53.175781 113.675781 53.09375 113.601562 C 51.953125 114.738281 50.308594 115.667969 47.945312 116.453125 L 26.96875 124.496094 C 14.363281 128.332031 4.585938 137.691406 -0.0234375 149.417969 C 0.0859375 149.542969 0.203125 149.671875 0.3125 149.796875 L 154.128906 149.796875 Z M 154.128906 149.789062 " fill-opacity="1" fill-rule="nonzero"/><path fill="#fbcb98" d="M 111.507812 46.78125 C 111.421875 22.507812 96.328125 9.601562 77.082031 9.601562 C 77.070312 9.601562 77.09375 9.601562 77.082031 9.601562 C 77.070312 9.601562 75.628906 8.011719 75.617188 8.011719 C 56.371094 8.011719 43.082031 22.507812 43 46.78125 C 42.957031 57.84375 43.339844 65.136719 44.46875 73.167969 C 47.976562 98.132812 71.003906 105.132812 77.21875 105.132812 C 84.832031 105.132812 106.535156 98.132812 110.042969 73.167969 C 111.164062 65.136719 111.546875 57.847656 111.507812 46.78125 Z M 111.507812 46.78125 " fill-opacity="1" fill-rule="nonzero"/><path fill="#8e4a33" d="M 111.507812 46.78125 C 111.46875 35.921875 108.460938 26.441406 103.429688 19.265625 C 102.242188 21.988281 101.023438 24.703125 99.742188 27.382812 C 99.832031 34.859375 99.851562 43.179688 104.734375 49.242188 C 107.152344 52.25 110.042969 54.425781 110.9375 58.410156 C 111.105469 59.15625 111.109375 60.007812 111.0625 60.894531 C 111.121094 60.816406 111.175781 60.730469 111.230469 60.648438 C 111.445312 56.566406 111.523438 52.113281 111.507812 46.78125 Z M 111.507812 46.78125 " fill-opacity="1" fill-rule="nonzero"/><path fill="#8e4a33" d="M 46.601562 54.492188 C 47.527344 51.835938 48.878906 49.339844 50.9375 47.359375 C 53.105469 45.28125 55.957031 43.859375 57.585938 41.339844 C 58.785156 39.480469 59.1875 37.234375 59.410156 35.035156 C 59.824219 30.984375 59.734375 26.878906 59.144531 22.84375 C 58.742188 20.082031 58.753906 15.910156 56.214844 14.195312 C 54.757812 13.207031 52.800781 13.152344 51.136719 13.730469 C 49.472656 14.304688 48.054688 15.441406 46.824219 16.707031 C 42.925781 20.710938 40.609375 26.210938 40.464844 31.792969 C 40.320312 37.441406 43.09375 45.023438 42.980469 50.464844 C 42.914062 53.613281 42.992188 56.746094 43.179688 59.886719 C 43.261719 61.304688 43.179688 62.511719 43.03125 63.871094 C 42.902344 64.96875 43.082031 66.394531 43.433594 67.425781 C 45.640625 65.65625 45.070312 60.234375 45.703125 57.574219 C 45.960938 56.535156 46.253906 55.503906 46.601562 54.492188 Z M 46.601562 54.492188 " fill-opacity="1" fill-rule="nonzero"/><path fill="#9f533a" d="M 91.578125 73.8125 C 87.644531 72.1875 84.894531 69.074219 81.25 67.042969 C 77.035156 64.6875 72.921875 66.449219 69.171875 68.808594 C 65.371094 71.207031 61.570312 73.667969 56.898438 73.679688 C 52.46875 73.695312 48.300781 71.765625 45.089844 68.804688 C 44.554688 68.3125 44.050781 67.785156 43.5625 67.246094 C 43.769531 69.425781 44.019531 71.570312 44.328125 73.777344 C 47.832031 98.742188 70.859375 105.742188 77.074219 105.742188 C 84.691406 105.742188 106.390625 98.742188 109.898438 73.777344 C 110.042969 72.769531 111.25 66.921875 111.367188 65.933594 C 106.214844 70.375 98.253906 76.574219 91.578125 73.8125 Z M 81.0625 90.820312 C 81.0625 89.945312 80.355469 89.238281 79.476562 89.238281 L 74.6875 89.238281 C 73.808594 89.238281 73.101562 89.945312 73.101562 90.820312 L 73.101562 90.953125 C 73.101562 91.953125 72.128906 92.660156 71.171875 92.367188 C 67.847656 91.355469 64.363281 89.328125 60.863281 85.835938 C 60.863281 85.835938 73.570312 86.175781 77.085938 75.082031 C 77.085938 75.082031 81.027344 85.734375 93.761719 85.835938 C 93.761719 85.835938 89.457031 90.222656 83.015625 92.230469 C 82.042969 92.527344 81.0625 91.828125 81.0625 90.820312 Z M 81.0625 90.820312 " fill-opacity="1" fill-rule="nonzero"/><path fill="#ffffff" d="M 64.90625 49.417969 L 57.445312 49.417969 C 62.246094 54.203125 67.042969 58.992188 71.839844 63.78125 C 72.410156 63.03125 72.820312 62.144531 73 61.167969 L 73.570312 58.050781 C 70.691406 55.164062 67.804688 52.289062 64.90625 49.417969 Z M 64.90625 49.417969 " fill-opacity="0.42" fill-rule="nonzero"/><path fill="#ffffff" d="M 53.640625 49.777344 C 51.460938 50.507812 49.789062 52.28125 49.171875 54.457031 L 60.953125 66.214844 L 66.929688 66.214844 C 67.851562 66.214844 68.742188 66.011719 69.535156 65.640625 Z M 53.640625 49.777344 " fill-opacity="0.42" fill-rule="nonzero"/><path fill="#000000" d="M 66.933594 66.953125 L 55.753906 66.953125 C 52.414062 66.953125 49.554688 64.574219 48.957031 61.292969 L 48.300781 57.722656 C 47.886719 55.480469 48.492188 53.1875 49.957031 51.4375 C 51.425781 49.6875 53.574219 48.679688 55.863281 48.679688 L 66.832031 48.679688 C 69.121094 48.679688 71.269531 49.6875 72.734375 51.4375 C 74.199219 53.1875 74.800781 55.480469 74.390625 57.722656 L 73.738281 61.292969 C 73.125 64.574219 70.265625 66.953125 66.933594 66.953125 Z M 55.855469 50.148438 C 54.007812 50.148438 52.269531 50.957031 51.085938 52.378906 C 49.90625 53.792969 49.417969 55.644531 49.75 57.460938 L 50.402344 61.03125 C 50.878906 63.609375 53.125 65.476562 55.746094 65.476562 L 66.929688 65.476562 C 69.550781 65.476562 71.804688 63.609375 72.273438 61.03125 L 72.925781 57.460938 C 73.257812 55.644531 72.769531 53.792969 71.585938 52.378906 C 70.40625 50.960938 68.664062 50.148438 66.820312 50.148438 Z M 55.855469 50.148438 " fill-opacity="1" fill-rule="nonzero"/><path fill="#ffffff" d="M 96.652344 49.417969 L 89.191406 49.417969 C 93.992188 54.203125 98.789062 58.992188 103.585938 63.78125 C 104.15625 63.03125 104.566406 62.144531 104.746094 61.167969 L 105.316406 58.050781 C 102.441406 55.164062 99.550781 52.289062 96.652344 49.417969 Z M 96.652344 49.417969 " fill-opacity="0.42" fill-rule="nonzero"/><path fill="#ffffff" d="M 85.390625 49.777344 C 83.210938 50.507812 81.542969 52.28125 80.925781 54.457031 L 92.707031 66.214844 L 98.679688 66.214844 C 99.605469 66.214844 100.492188 66.011719 101.285156 65.640625 Z M 85.390625 49.777344 " fill-opacity="0.42" fill-rule="nonzero"/><path fill="#000000" d="M 98.679688 66.953125 L 87.5 66.953125 C 84.160156 66.953125 81.304688 64.574219 80.703125 61.292969 L 80.046875 57.722656 C 79.632812 55.480469 80.242188 53.1875 81.707031 51.4375 C 83.171875 49.6875 85.320312 48.679688 87.609375 48.679688 L 98.578125 48.679688 C 100.867188 48.679688 103.015625 49.6875 104.480469 51.4375 C 105.945312 53.1875 106.546875 55.480469 106.136719 57.722656 L 105.484375 61.292969 C 104.878906 64.574219 102.019531 66.953125 98.679688 66.953125 Z M 87.609375 50.148438 C 85.757812 50.148438 84.023438 50.957031 82.839844 52.378906 C 81.65625 53.792969 81.171875 55.644531 81.5 57.460938 L 82.15625 61.03125 C 82.628906 63.609375 84.875 65.476562 87.5 65.476562 L 98.679688 65.476562 C 101.304688 65.476562 103.554688 63.609375 104.023438 61.03125 L 104.679688 57.460938 C 105.007812 55.644531 104.523438 53.792969 103.339844 52.378906 C 102.15625 50.960938 100.421875 50.148438 98.574219 50.148438 Z M 87.609375 50.148438 " fill-opacity="1" fill-rule="nonzero"/><path fill="#000000" d="M 73.574219 53.078125 L 81.230469 53.078125 L 81.230469 57.992188 L 73.574219 57.992188 Z M 73.574219 53.078125 " fill-opacity="1" fill-rule="nonzero"/><path fill="#9f533a" d="M 58.625 5.363281 C 53.6875 9.175781 53.214844 15.789062 55.363281 21.269531 C 59.601562 32.0625 72.636719 39.667969 83.039062 43.484375 C 83.796875 43.757812 92.5625 46.136719 92.574219 45.875 C 92.710938 42.410156 92.539062 39.457031 96.175781 42.613281 C 98.253906 44.417969 100.601562 45.910156 103.113281 47.042969 C 104.367188 47.605469 105.664062 48.09375 106.984375 48.464844 C 108.824219 48.972656 108.882812 49.027344 109.910156 47.511719 C 113.109375 42.765625 114.3125 36.027344 114.394531 30.417969 C 114.519531 22.238281 109.574219 11.265625 100.265625 10.164062 C 98.253906 9.925781 96.34375 10.3125 94.261719 9.816406 C 93.914062 9.730469 93.472656 9.425781 93.679688 9.132812 C 97.523438 8.71875 101.246094 7.195312 104.277344 4.800781 C 97.148438 5.375 89.867188 5.074219 82.757812 4.609375 C 75.339844 4.117188 65.300781 0.210938 58.625 5.363281 Z M 58.625 5.363281 " fill-opacity="1" fill-rule="nonzero"/><path fill="#000000" d="M 49.171875 55.195312 C 49.035156 55.195312 48.894531 55.15625 48.777344 55.074219 L 42.597656 51.089844 C 42.253906 50.867188 42.160156 50.410156 42.382812 50.070312 C 42.601562 49.726562 43.054688 49.632812 43.402344 49.855469 L 49.582031 53.839844 C 49.921875 54.0625 50.019531 54.515625 49.796875 54.859375 C 49.652344 55.074219 49.414062 55.195312 49.171875 55.195312 Z M 49.171875 55.195312 " fill-opacity="1" fill-rule="nonzero"/><path fill="#000000" d="M 105.628906 55.195312 C 105.394531 55.195312 105.164062 55.085938 105.023438 54.882812 C 104.789062 54.546875 104.871094 54.089844 105.203125 53.855469 L 110.898438 49.871094 C 111.230469 49.636719 111.691406 49.722656 111.925781 50.050781 C 112.160156 50.386719 112.078125 50.84375 111.746094 51.078125 L 106.046875 55.0625 C 105.921875 55.144531 105.773438 55.195312 105.628906 55.195312 Z M 105.628906 55.195312 " fill-opacity="1" fill-rule="nonzero"/><g transform="matrix(1, 0, 0, 1, 74, 145)"><g clip-path="url(#4f74ffa1f0)"><g fill="#58677e" fill-opacity="1"><g transform="translate(0.999997, 4.067974)"><g><path d="M 2.5 -1.21875 C 2.5 -0.925781 2.445312 -0.679688 2.34375 -0.484375 C 2.25 -0.296875 2.101562 -0.160156 1.90625 -0.078125 L 2.484375 0.578125 L 1.828125 0.578125 L 1.390625 0.03125 L 1.34375 0.03125 C 0.976562 0.03125 0.695312 -0.0703125 0.5 -0.28125 C 0.300781 -0.5 0.203125 -0.8125 0.203125 -1.21875 C 0.203125 -1.625 0.300781 -1.929688 0.5 -2.140625 C 0.695312 -2.347656 0.984375 -2.453125 1.359375 -2.453125 C 1.722656 -2.453125 2.003906 -2.34375 2.203125 -2.125 C 2.398438 -1.914062 2.5 -1.613281 2.5 -1.21875 Z M 0.734375 -1.21875 C 0.734375 -0.945312 0.785156 -0.738281 0.890625 -0.59375 C 0.992188 -0.457031 1.144531 -0.390625 1.34375 -0.390625 C 1.757812 -0.390625 1.96875 -0.664062 1.96875 -1.21875 C 1.96875 -1.757812 1.765625 -2.03125 1.359375 -2.03125 C 1.148438 -2.03125 0.992188 -1.960938 0.890625 -1.828125 C 0.785156 -1.691406 0.734375 -1.488281 0.734375 -1.21875 Z M 0.734375 -1.21875 "/></g></g></g><g fill="#58677e" fill-opacity="1"><g transform="translate(3.694763, 4.067974)"><g><path d="M 1.78125 0 L 1.609375 -0.578125 L 0.734375 -0.578125 L 0.546875 0 L 0 0 L 0.859375 -2.4375 L 1.484375 -2.4375 L 2.34375 0 Z M 1.484375 -1 C 1.328125 -1.53125 1.238281 -1.828125 1.21875 -1.890625 C 1.195312 -1.960938 1.179688 -2.015625 1.171875 -2.046875 C 1.128906 -1.910156 1.023438 -1.5625 0.859375 -1 Z M 1.484375 -1 "/></g></g></g><g clip-path="url(#6c9ae3d579)"><g fill="#58677e" fill-opacity="1"><g transform="translate(6.030779, 4.067974)"><g><path d="M 0.296875 -2.421875 L 1.0625 -2.421875 C 1.40625 -2.421875 1.648438 -2.367188 1.796875 -2.265625 C 1.953125 -2.171875 2.03125 -2.019531 2.03125 -1.8125 C 2.03125 -1.664062 1.992188 -1.546875 1.921875 -1.453125 C 1.859375 -1.359375 1.773438 -1.300781 1.671875 -1.28125 L 1.671875 -1.265625 C 1.816406 -1.234375 1.921875 -1.171875 1.984375 -1.078125 C 2.054688 -0.984375 2.09375 -0.859375 2.09375 -0.703125 C 2.09375 -0.484375 2.015625 -0.3125 1.859375 -0.1875 C 1.703125 -0.0625 1.484375 0 1.203125 0 L 0.296875 0 Z M 0.8125 -1.46875 L 1.109375 -1.46875 C 1.253906 -1.46875 1.359375 -1.488281 1.421875 -1.53125 C 1.484375 -1.570312 1.515625 -1.640625 1.515625 -1.734375 C 1.515625 -1.828125 1.476562 -1.894531 1.40625 -1.9375 C 1.34375 -1.976562 1.238281 -2 1.09375 -2 L 0.8125 -2 Z M 0.8125 -1.046875 L 0.8125 -0.421875 L 1.15625 -0.421875 C 1.289062 -0.421875 1.390625 -0.445312 1.453125 -0.5 C 1.523438 -0.5625 1.5625 -0.644531 1.5625 -0.75 C 1.5625 -0.945312 1.421875 -1.046875 1.140625 -1.046875 Z M 0.8125 -1.046875 "/></g></g></g></g></g></g></svg>