<svg xmlns="http://www.w3.org/2000/svg" xmlns:xlink="http://www.w3.org/1999/xlink" width="200" zoomAndPan="magnify" viewBox="0 0 150 149.999998" height="200" preserveAspectRatio="xMidYMid meet" version="1.0"><defs><g/><clipPath id="1d64c9709f"><path d="M 6.683594 13 L 143.183594 13 L 143.183594 150 L 6.683594 150 Z M 6.683594 13 " clip-rule="nonzero"/></clipPath><clipPath id="5ca6075fce"><path d="M 6 1 L 8.320312 1 L 8.320312 5 L 6 5 Z M 6 1 " clip-rule="nonzero"/></clipPath><clipPath id="b2b75afed3"><rect x="0" width="9" y="0" height="5"/></clipPath></defs><g clip-path="url(#1d64c9709f)"><path fill="#190662" d="M 143.183594 81.609375 C 143.183594 82.730469 143.152344 83.851562 143.09375 84.972656 C 143.035156 86.09375 142.945312 87.21875 142.859375 88.308594 C 142.738281 89.429688 142.621094 90.523438 142.445312 91.644531 C 142.269531 92.734375 142.089844 93.855469 141.882812 94.949219 C 141.679688 96.039062 141.414062 97.132812 141.148438 98.222656 C 140.882812 99.316406 140.585938 100.378906 140.261719 101.46875 C 139.9375 102.53125 139.585938 103.59375 139.203125 104.65625 C 138.820312 105.71875 138.433594 106.753906 137.992188 107.785156 C 137.550781 108.816406 137.109375 109.851562 136.636719 110.855469 C 136.164062 111.855469 135.664062 112.859375 135.132812 113.863281 C 134.601562 114.835938 134.042969 115.8125 133.480469 116.785156 C 132.921875 117.757812 132.304688 118.703125 131.683594 119.617188 C 131.066406 120.5625 130.417969 121.449219 129.769531 122.363281 C 129.089844 123.246094 128.410156 124.132812 127.703125 125.019531 C 126.996094 125.875 126.257812 126.730469 125.523438 127.554688 C 124.785156 128.382812 123.988281 129.207031 123.222656 129.976562 C 122.425781 130.773438 121.628906 131.539062 120.804688 132.277344 C 119.980469 133.015625 119.125 133.753906 118.269531 134.460938 C 117.414062 135.167969 116.53125 135.847656 115.617188 136.527344 C 114.730469 137.207031 113.816406 137.824219 112.875 138.445312 C 111.929688 139.066406 111.015625 139.65625 110.042969 140.246094 C 109.101562 140.804688 108.128906 141.367188 107.125 141.898438 C 106.152344 142.429688 105.152344 142.929688 104.117188 143.402344 C 103.117188 143.875 102.085938 144.347656 101.050781 144.761719 C 100.019531 145.171875 98.988281 145.585938 97.925781 145.96875 C 96.867188 146.355469 95.804688 146.707031 94.742188 147.03125 C 93.683594 147.355469 92.589844 147.652344 91.5 147.917969 C 90.410156 148.183594 89.320312 148.449219 88.226562 148.65625 C 87.136719 148.863281 86.046875 149.070312 84.925781 149.214844 C 83.835938 149.394531 82.714844 149.511719 81.59375 149.628906 C 80.472656 149.746094 79.382812 149.835938 78.261719 149.867188 C 77.144531 149.925781 76.023438 149.953125 74.902344 149.953125 C 73.78125 149.953125 72.660156 149.925781 71.542969 149.867188 C 70.421875 149.804688 69.300781 149.71875 68.210938 149.628906 C 67.089844 149.511719 66 149.394531 64.878906 149.214844 C 63.789062 149.039062 62.667969 148.863281 61.578125 148.65625 C 60.484375 148.449219 59.394531 148.183594 58.304688 147.917969 C 57.214844 147.652344 56.152344 147.355469 55.089844 147.03125 C 54.03125 146.707031 52.96875 146.355469 51.90625 145.96875 C 50.84375 145.585938 49.8125 145.203125 48.78125 144.761719 C 47.75 144.316406 46.71875 143.875 45.714844 143.402344 C 44.714844 142.929688 43.710938 142.429688 42.738281 141.898438 C 41.765625 141.367188 40.792969 140.804688 39.820312 140.246094 C 38.875 139.683594 37.933594 139.066406 36.988281 138.445312 C 36.046875 137.824219 35.160156 137.175781 34.246094 136.527344 C 33.363281 135.847656 32.476562 135.167969 31.59375 134.460938 C 30.738281 133.753906 29.882812 133.015625 29.058594 132.277344 C 28.234375 131.539062 27.40625 130.742188 26.640625 129.976562 C 25.84375 129.179688 25.078125 128.382812 24.339844 127.554688 C 23.605469 126.730469 22.867188 125.875 22.160156 125.019531 C 21.453125 124.164062 20.773438 123.277344 20.097656 122.363281 C 19.417969 121.476562 18.796875 120.5625 18.179688 119.617188 C 17.558594 118.675781 16.972656 117.730469 16.382812 116.785156 C 15.820312 115.839844 15.261719 114.867188 14.730469 113.863281 C 14.199219 112.890625 13.699219 111.886719 13.226562 110.855469 C 12.753906 109.851562 12.285156 108.816406 11.871094 107.785156 C 11.429688 106.753906 11.046875 105.71875 10.660156 104.65625 C 10.277344 103.59375 9.925781 102.53125 9.601562 101.46875 C 9.277344 100.40625 8.980469 99.316406 8.714844 98.222656 C 8.449219 97.132812 8.214844 96.039062 7.980469 94.949219 C 7.773438 93.855469 7.566406 92.734375 7.417969 91.644531 C 7.242188 90.523438 7.125 89.429688 7.007812 88.308594 C 6.886719 87.1875 6.800781 86.066406 6.769531 84.972656 C 6.710938 83.851562 6.683594 82.730469 6.683594 81.609375 C 6.683594 80.488281 6.710938 79.367188 6.769531 78.246094 C 6.828125 77.125 6.917969 76.003906 7.007812 74.910156 C 7.125 73.789062 7.242188 72.699219 7.417969 71.578125 C 7.597656 70.457031 7.773438 69.363281 7.980469 68.273438 C 8.183594 67.179688 8.449219 66.089844 8.714844 64.996094 C 8.980469 63.90625 9.277344 62.84375 9.601562 61.75 C 9.925781 60.6875 10.277344 59.625 10.660156 58.5625 C 11.046875 57.5 11.429688 56.46875 11.871094 55.433594 C 12.285156 54.402344 12.753906 53.371094 13.226562 52.367188 C 13.699219 51.363281 14.199219 50.359375 14.730469 49.355469 C 15.261719 48.382812 15.820312 47.410156 16.382812 46.433594 C 16.941406 45.492188 17.558594 44.515625 18.179688 43.601562 C 18.796875 42.65625 19.449219 41.773438 20.097656 40.859375 C 20.773438 39.972656 21.453125 39.085938 22.160156 38.203125 C 22.867188 37.347656 23.605469 36.488281 24.339844 35.664062 C 25.078125 34.835938 25.875 34.011719 26.640625 33.242188 C 27.4375 32.449219 28.234375 31.679688 29.058594 30.941406 C 29.882812 30.203125 30.738281 29.46875 31.59375 28.757812 C 32.449219 28.050781 33.332031 27.371094 34.246094 26.691406 C 35.132812 26.015625 36.046875 25.394531 36.988281 24.773438 C 37.933594 24.15625 38.847656 23.566406 39.820312 22.976562 C 40.761719 22.414062 41.734375 21.851562 42.738281 21.320312 C 43.710938 20.792969 44.714844 20.289062 45.714844 19.816406 C 46.71875 19.34375 47.75 18.871094 48.78125 18.460938 C 49.8125 18.046875 50.84375 17.632812 51.90625 17.25 C 52.96875 16.867188 54.03125 16.511719 55.089844 16.1875 C 56.152344 15.863281 57.242188 15.566406 58.304688 15.300781 C 59.394531 15.035156 60.484375 14.769531 61.578125 14.566406 C 62.667969 14.359375 63.757812 14.152344 64.878906 14.003906 C 66 13.828125 67.089844 13.707031 68.210938 13.589844 C 69.332031 13.472656 70.421875 13.382812 71.542969 13.355469 C 72.660156 13.296875 73.78125 13.265625 74.902344 13.265625 C 76.023438 13.265625 77.144531 13.296875 78.261719 13.355469 C 79.382812 13.414062 80.503906 13.503906 81.59375 13.589844 C 82.714844 13.707031 83.804688 13.828125 84.925781 14.003906 C 86.046875 14.179688 87.136719 14.359375 88.226562 14.566406 C 89.320312 14.769531 90.410156 15.035156 91.5 15.300781 C 92.589844 15.566406 93.652344 15.863281 94.742188 16.1875 C 95.804688 16.511719 96.867188 16.867188 97.925781 17.25 C 98.988281 17.632812 100.019531 18.015625 101.050781 18.460938 C 102.085938 18.902344 103.117188 19.34375 104.117188 19.816406 C 105.121094 20.289062 106.125 20.792969 107.125 21.320312 C 108.097656 21.851562 109.070312 22.414062 110.042969 22.976562 C 110.988281 23.535156 111.929688 24.15625 112.875 24.773438 C 113.816406 25.394531 114.703125 26.042969 115.617188 26.691406 C 116.5 27.371094 117.386719 28.050781 118.269531 28.757812 C 119.125 29.46875 119.980469 30.203125 120.804688 30.941406 C 121.628906 31.679688 122.425781 32.476562 123.222656 33.242188 C 124.019531 34.039062 124.785156 34.835938 125.523438 35.664062 C 126.257812 36.488281 126.996094 37.347656 127.703125 38.203125 C 128.410156 39.058594 129.089844 39.941406 129.769531 40.859375 C 130.445312 41.742188 131.066406 42.65625 131.683594 43.601562 C 132.304688 44.546875 132.894531 45.492188 133.480469 46.433594 C 134.070312 47.378906 134.601562 48.351562 135.132812 49.355469 C 135.664062 50.328125 136.164062 51.332031 136.636719 52.367188 C 137.109375 53.371094 137.582031 54.402344 137.992188 55.433594 C 138.40625 56.46875 138.820312 57.5 139.203125 58.5625 C 139.585938 59.625 139.9375 60.6875 140.261719 61.75 C 140.585938 62.8125 140.882812 63.90625 141.148438 64.996094 C 141.414062 66.089844 141.679688 67.179688 141.882812 68.273438 C 142.089844 69.363281 142.296875 70.484375 142.445312 71.578125 C 142.621094 72.667969 142.738281 73.789062 142.859375 74.910156 C 142.976562 76.03125 143.0625 77.152344 143.09375 78.246094 C 143.152344 79.367188 143.183594 80.488281 143.183594 81.609375 Z M 143.183594 81.609375 " fill-opacity="1" fill-rule="nonzero"/></g><path fill="#4d94fa" d="M 140.96875 81.609375 C 140.96875 82.703125 140.941406 83.765625 140.882812 84.855469 C 140.824219 85.949219 140.765625 87.011719 140.644531 88.101562 C 140.527344 89.164062 140.410156 90.257812 140.261719 91.320312 C 140.117188 92.382812 139.910156 93.445312 139.703125 94.503906 C 139.496094 95.566406 139.261719 96.628906 138.996094 97.664062 C 138.730469 98.726562 138.433594 99.757812 138.140625 100.792969 C 137.816406 101.824219 137.492188 102.855469 137.136719 103.859375 C 136.785156 104.863281 136.371094 105.894531 135.957031 106.898438 C 135.546875 107.902344 135.105469 108.875 134.632812 109.878906 C 134.160156 110.855469 133.6875 111.828125 133.1875 112.773438 C 132.6875 113.714844 132.15625 114.660156 131.59375 115.605469 C 131.035156 116.519531 130.476562 117.433594 129.855469 118.347656 C 129.265625 119.234375 128.617188 120.121094 128 121.003906 C 127.351562 121.859375 126.703125 122.71875 125.992188 123.574219 C 125.316406 124.398438 124.609375 125.226562 123.871094 126.023438 C 123.132812 126.820312 122.398438 127.617188 121.628906 128.382812 C 120.863281 129.148438 120.097656 129.886719 119.273438 130.625 C 118.476562 131.363281 117.652344 132.070312 116.824219 132.75 C 116 133.429688 115.144531 134.109375 114.261719 134.757812 C 113.40625 135.40625 112.519531 136.027344 111.605469 136.617188 C 110.722656 137.207031 109.808594 137.796875 108.863281 138.355469 C 107.953125 138.917969 107.007812 139.449219 106.035156 139.949219 C 105.089844 140.453125 104.117188 140.953125 103.144531 141.394531 C 102.171875 141.867188 101.171875 142.3125 100.167969 142.722656 C 99.164062 143.136719 98.164062 143.519531 97.132812 143.90625 C 96.101562 144.257812 95.097656 144.613281 94.066406 144.90625 C 93.035156 145.234375 92 145.5 90.941406 145.765625 C 89.878906 146.027344 88.847656 146.265625 87.785156 146.472656 C 86.722656 146.679688 85.664062 146.855469 84.601562 147.03125 C 83.539062 147.179688 82.449219 147.328125 81.386719 147.417969 C 80.328125 147.535156 79.234375 147.59375 78.144531 147.652344 C 77.054688 147.710938 75.992188 147.742188 74.902344 147.742188 C 73.8125 147.742188 72.75 147.710938 71.660156 147.652344 C 70.570312 147.59375 69.507812 147.535156 68.417969 147.417969 C 67.355469 147.296875 66.265625 147.179688 65.203125 147.03125 C 64.140625 146.886719 63.082031 146.679688 62.019531 146.472656 C 60.957031 146.265625 59.894531 146.027344 58.863281 145.765625 C 57.804688 145.5 56.769531 145.203125 55.738281 144.90625 C 54.707031 144.582031 53.675781 144.257812 52.671875 143.90625 C 51.640625 143.550781 50.640625 143.136719 49.636719 142.722656 C 48.632812 142.3125 47.660156 141.867188 46.660156 141.394531 C 45.6875 140.925781 44.714844 140.453125 43.769531 139.949219 C 42.828125 139.449219 41.882812 138.917969 40.941406 138.355469 C 40.027344 137.796875 39.113281 137.234375 38.199219 136.617188 C 37.285156 136.027344 36.429688 135.375 35.542969 134.757812 C 34.6875 134.109375 33.835938 133.457031 32.980469 132.75 C 32.152344 132.070312 31.328125 131.363281 30.53125 130.625 C 29.738281 129.886719 28.941406 129.148438 28.175781 128.382812 C 27.40625 127.617188 26.671875 126.847656 25.933594 126.023438 C 25.195312 125.226562 24.488281 124.398438 23.8125 123.574219 C 23.132812 122.746094 22.453125 121.890625 21.804688 121.003906 C 21.15625 120.148438 20.539062 119.265625 19.949219 118.347656 C 19.359375 117.433594 18.769531 116.550781 18.210938 115.605469 C 17.648438 114.691406 17.117188 113.746094 16.617188 112.773438 C 16.117188 111.828125 15.613281 110.855469 15.171875 109.878906 C 14.699219 108.90625 14.257812 107.902344 13.847656 106.898438 C 13.433594 105.894531 13.050781 104.894531 12.667969 103.859375 C 12.3125 102.828125 11.960938 101.824219 11.664062 100.792969 C 11.339844 99.757812 11.074219 98.726562 10.808594 97.664062 C 10.542969 96.601562 10.308594 95.566406 10.101562 94.503906 C 9.894531 93.445312 9.71875 92.382812 9.542969 91.320312 C 9.394531 90.257812 9.246094 89.164062 9.160156 88.101562 C 9.039062 87.011719 8.980469 85.949219 8.921875 84.855469 C 8.863281 83.765625 8.835938 82.703125 8.835938 81.609375 C 8.835938 80.519531 8.863281 79.457031 8.921875 78.363281 C 8.980469 77.273438 9.039062 76.210938 9.160156 75.117188 C 9.277344 74.054688 9.394531 72.964844 9.542969 71.902344 C 9.6875 70.839844 9.894531 69.777344 10.101562 68.714844 C 10.308594 67.652344 10.542969 66.589844 10.808594 65.558594 C 11.074219 64.496094 11.371094 63.460938 11.664062 62.429688 C 11.988281 61.394531 12.3125 60.363281 12.667969 59.359375 C 13.019531 58.328125 13.433594 57.324219 13.847656 56.320312 C 14.257812 55.316406 14.699219 54.34375 15.171875 53.339844 C 15.644531 52.367188 16.117188 51.390625 16.617188 50.449219 C 17.117188 49.503906 17.648438 48.558594 18.210938 47.613281 C 18.769531 46.699219 19.328125 45.785156 19.949219 44.871094 C 20.539062 43.984375 21.15625 43.101562 21.804688 42.214844 C 22.453125 41.359375 23.101562 40.503906 23.8125 39.648438 C 24.488281 38.820312 25.195312 37.996094 25.933594 37.199219 C 26.671875 36.402344 27.40625 35.605469 28.175781 34.835938 C 28.941406 34.070312 29.707031 33.332031 30.53125 32.59375 C 31.328125 31.855469 32.152344 31.148438 32.980469 30.46875 C 33.804688 29.792969 34.660156 29.113281 35.542969 28.464844 C 36.398438 27.8125 37.285156 27.195312 38.199219 26.605469 C 39.082031 26.015625 39.996094 25.425781 40.941406 24.863281 C 41.851562 24.300781 42.796875 23.773438 43.769531 23.269531 C 44.714844 22.769531 45.6875 22.265625 46.660156 21.824219 C 47.632812 21.351562 48.632812 20.910156 49.636719 20.496094 C 50.640625 20.082031 51.640625 19.699219 52.671875 19.316406 C 53.703125 18.960938 54.707031 18.605469 55.738281 18.3125 C 56.769531 17.988281 57.804688 17.722656 58.863281 17.457031 C 59.925781 17.191406 60.957031 16.953125 62.019531 16.75 C 63.082031 16.542969 64.140625 16.363281 65.203125 16.1875 C 66.265625 16.039062 67.355469 15.890625 68.417969 15.804688 C 69.507812 15.6875 70.570312 15.625 71.660156 15.566406 C 72.75 15.507812 73.8125 15.480469 74.902344 15.480469 C 75.992188 15.480469 77.054688 15.507812 78.144531 15.566406 C 79.234375 15.625 80.296875 15.714844 81.386719 15.804688 C 82.480469 15.921875 83.539062 16.039062 84.601562 16.1875 C 85.664062 16.335938 86.722656 16.542969 87.785156 16.75 C 88.847656 16.953125 89.910156 17.191406 90.941406 17.457031 C 92 17.722656 93.035156 18.015625 94.066406 18.3125 C 95.097656 18.636719 96.128906 18.960938 97.132812 19.316406 C 98.164062 19.667969 99.164062 20.082031 100.167969 20.496094 C 101.171875 20.910156 102.144531 21.351562 103.144531 21.824219 C 104.117188 22.296875 105.089844 22.769531 106.035156 23.269531 C 106.976562 23.773438 107.921875 24.300781 108.863281 24.863281 C 109.777344 25.425781 110.691406 25.984375 111.605469 26.605469 C 112.492188 27.195312 113.375 27.84375 114.261719 28.464844 C 115.117188 29.113281 115.96875 29.761719 116.824219 30.46875 C 117.652344 31.148438 118.476562 31.855469 119.273438 32.59375 C 120.066406 33.332031 120.863281 34.070312 121.628906 34.835938 C 122.398438 35.605469 123.132812 36.371094 123.871094 37.199219 C 124.609375 37.996094 125.316406 38.820312 125.992188 39.648438 C 126.671875 40.472656 127.351562 41.328125 128 42.214844 C 128.648438 43.070312 129.265625 43.957031 129.855469 44.871094 C 130.445312 45.785156 131.035156 46.671875 131.59375 47.613281 C 132.15625 48.558594 132.6875 49.472656 133.1875 50.449219 C 133.6875 51.390625 134.191406 52.367188 134.632812 53.339844 C 135.105469 54.3125 135.546875 55.316406 135.957031 56.320312 C 136.371094 57.324219 136.753906 58.328125 137.136719 59.359375 C 137.519531 60.394531 137.84375 61.394531 138.140625 62.429688 C 138.464844 63.460938 138.730469 64.496094 138.996094 65.558594 C 139.261719 66.621094 139.496094 67.652344 139.703125 68.714844 C 139.910156 69.777344 140.085938 70.839844 140.261719 71.902344 C 140.410156 72.964844 140.558594 74.054688 140.644531 75.117188 C 140.765625 76.210938 140.824219 77.273438 140.882812 78.363281 C 140.941406 79.425781 140.96875 80.519531 140.96875 81.609375 Z M 140.96875 81.609375 " fill-opacity="1" fill-rule="nonzero"/><path fill="#190662" d="M 74.933594 15.480469 C 73.753906 15.480469 72.601562 15.507812 71.453125 15.566406 C 106.300781 17.367188 134.011719 46.257812 134.011719 81.609375 C 134.011719 116.960938 106.300781 145.851562 71.453125 147.652344 C 72.601562 147.710938 73.753906 147.742188 74.933594 147.742188 C 111.402344 147.742188 140.96875 118.144531 140.96875 81.609375 C 140.96875 45.078125 111.402344 15.480469 74.933594 15.480469 Z M 74.933594 15.480469 " fill-opacity="0.2" fill-rule="nonzero"/><path fill="#190662" d="M 16.324219 84.5625 C 16.324219 48.058594 45.890625 18.429688 82.359375 18.429688 C 89.40625 18.429688 96.246094 19.523438 102.9375 21.707031 C 98.546875 19.640625 94.007812 18.105469 89.289062 17.042969 C 84.574219 15.980469 79.796875 15.480469 74.933594 15.480469 C 38.464844 15.480469 8.894531 45.078125 8.894531 81.609375 C 8.894531 110.941406 27.96875 135.789062 54.355469 144.464844 C 31.886719 133.902344 16.324219 111.0625 16.324219 84.5625 Z M 16.324219 84.5625 " fill-opacity="0.2" fill-rule="nonzero"/><path fill="#190662" d="M 110.457031 81.460938 L 110.515625 81.375 C 110.78125 81.019531 116.824219 72.992188 123.605469 72.992188 C 125.257812 72.992188 126.582031 73.996094 127.261719 75.765625 C 128.617188 79.367188 127.261719 86.007812 126.347656 89.667969 C 125.257812 93.914062 123.371094 99.464844 121.601562 101.027344 C 120.714844 101.792969 118.417969 103.179688 108.394531 106.308594 C 103.027344 107.992188 97.925781 109.40625 97.867188 109.40625 L 93.859375 110.5 Z M 110.457031 81.460938 " fill-opacity="1" fill-rule="nonzero"/><path fill="#ffc2ad" d="M 111.902344 82.40625 C 111.902344 82.40625 117.589844 74.734375 123.636719 74.734375 C 129.648438 74.734375 123.3125 97.21875 120.511719 99.730469 C 117.679688 102.207031 97.484375 107.753906 97.484375 107.753906 Z M 111.902344 82.40625 " fill-opacity="1" fill-rule="nonzero"/><path fill="#190662" d="M 51.964844 109.378906 C 51.90625 109.378906 46.804688 107.960938 41.441406 106.28125 C 31.445312 103.152344 29.117188 101.765625 28.234375 100.996094 C 26.464844 99.433594 24.578125 93.914062 23.488281 89.636719 C 22.574219 86.007812 21.214844 79.367188 22.574219 75.738281 C 23.222656 73.96875 24.578125 72.964844 26.226562 72.964844 C 33.007812 72.964844 39.082031 81.019531 39.316406 81.34375 L 39.378906 81.433594 L 55.945312 110.46875 Z M 51.964844 109.378906 " fill-opacity="1" fill-rule="nonzero"/><path fill="#ffc2ad" d="M 52.40625 107.726562 C 52.40625 107.726562 39.730469 104.242188 33.039062 101.558594 C 31.300781 100.851562 29.941406 100.199219 29.351562 99.699219 C 26.523438 97.21875 20.214844 74.734375 26.226562 74.734375 C 28.851562 74.734375 31.417969 76.179688 33.449219 77.832031 C 35.132812 79.191406 36.605469 80.726562 37.933594 82.40625 Z M 52.40625 107.726562 " fill-opacity="1" fill-rule="nonzero"/><path fill="#190662" d="M 32.09375 100.996094 C 32.273438 101.085938 32.597656 101.292969 33.039062 101.558594 C 31.300781 100.851562 29.941406 100.199219 29.351562 99.699219 C 26.523438 97.21875 20.214844 74.703125 26.226562 74.703125 C 28.851562 74.703125 31.417969 76.152344 33.449219 77.804688 C 30.089844 76.652344 27.140625 76.445312 26.109375 79.25 C 25.226562 81.699219 30.828125 100.320312 32.09375 100.996094 Z M 32.09375 100.996094 " fill-opacity="0.2" fill-rule="nonzero"/><path fill="#190662" d="M 117.945312 100.996094 C 117.769531 101.085938 117.445312 101.292969 117.003906 101.558594 C 118.742188 100.851562 120.097656 100.199219 120.6875 99.699219 C 123.515625 97.21875 129.828125 74.703125 123.8125 74.703125 C 121.1875 74.703125 118.625 76.152344 116.589844 77.804688 C 119.949219 76.652344 122.898438 76.445312 123.929688 79.25 C 124.816406 81.699219 119.214844 100.320312 117.945312 100.996094 Z M 117.945312 100.996094 " fill-opacity="0.2" fill-rule="nonzero"/><path fill="#190662" d="M 39.847656 87.335938 C 39.640625 87.128906 34.75 82.113281 30.296875 72.285156 C 27.644531 66.355469 25.757812 60.214844 24.636719 53.8125 C 23.191406 45.695312 22.925781 37.109375 23.8125 28.285156 L 23.988281 26.457031 L 25.609375 27.3125 C 25.667969 27.34375 32.742188 30.882812 44.035156 30.882812 C 52.347656 30.882812 60.808594 29.023438 69.210938 25.304688 C 67.265625 25.097656 65.230469 25.011719 63.109375 25.011719 C 56.476562 25.039062 49.960938 25.867188 43.503906 27.402344 L 39.9375 28.34375 L 42.175781 25.425781 C 42.296875 25.277344 44.949219 21.851562 50.640625 18.429688 C 55.828125 15.300781 64.671875 11.585938 77.289062 11.585938 C 84.277344 11.585938 91.765625 12.734375 99.578125 14.949219 C 88.550781 7.867188 68.742188 4.296875 68.59375 4.265625 C 68.683594 4.265625 76.847656 3.027344 79.914062 3.027344 C 84.777344 3.027344 92.089844 3.378906 99.253906 5.152344 C 108.039062 7.304688 114.320312 10.992188 117.855469 16.097656 C 122.042969 22.117188 122.425781 29.96875 118.949219 39.5 L 116.558594 38.761719 C 117.796875 33.746094 117.121094 28.996094 114.554688 24.628906 C 114.464844 24.480469 114.378906 24.332031 114.289062 24.183594 C 114.730469 25.511719 115.234375 27.078125 115.824219 28.9375 L 113.671875 30.117188 C 107.066406 22.207031 96.363281 20.554688 88.582031 20.554688 C 86.902344 20.554688 85.28125 20.644531 83.777344 20.761719 C 87.519531 21.382812 90.734375 22.03125 90.96875 22.089844 L 93.035156 22.503906 L 91.675781 24.125 C 91.589844 24.242188 89.289062 26.929688 83.511719 29.792969 C 80.121094 31.472656 74.992188 33.449219 67.828125 34.867188 L 69.066406 34.867188 C 71.21875 34.867188 72.574219 34.835938 72.574219 34.835938 L 72.957031 37.285156 C 65.410156 39.234375 57.742188 40.238281 49.960938 40.296875 C 43.414062 40.296875 37.578125 39.441406 32.65625 37.757812 C 30.652344 50.09375 33.097656 62.25 35.542969 70.425781 C 38.34375 79.632812 41.734375 85.828125 41.765625 85.890625 Z M 39.847656 87.335938 " fill-opacity="1" fill-rule="nonzero"/><path fill="#190662" d="M 74.546875 136.496094 C 62.933594 133.78125 54.207031 129.710938 47.839844 124.015625 C 42.53125 119.292969 38.847656 113.363281 36.605469 105.925781 C 32.773438 93.265625 31.09375 53.371094 31.035156 51.65625 L 30.976562 50.242188 L 74.933594 39.5 L 118.890625 50.242188 L 118.828125 51.65625 C 118.769531 53.339844 117.089844 93.265625 113.257812 105.925781 C 111.015625 113.363281 107.332031 119.265625 102.027344 124.015625 C 95.65625 129.679688 86.929688 133.78125 75.316406 136.496094 L 74.933594 136.585938 Z M 74.546875 136.496094 " fill-opacity="1" fill-rule="nonzero"/><path fill="#ffc2ad" d="M 117.121094 51.597656 C 117.121094 51.597656 117.089844 52.394531 117.03125 53.78125 C 116.617188 62.457031 114.910156 94.59375 111.636719 105.425781 C 109.21875 113.449219 104.796875 120.859375 95.65625 126.671875 C 90.4375 129.976562 83.71875 132.75 74.960938 134.816406 C 68.859375 133.398438 63.757812 131.628906 59.453125 129.5625 C 46.71875 123.453125 41.117188 114.867188 38.285156 105.453125 C 34.484375 92.851562 32.773438 51.628906 32.773438 51.628906 L 53.085938 46.671875 L 74.933594 41.328125 Z M 117.121094 51.597656 " fill-opacity="1" fill-rule="nonzero"/><path fill="#190662" d="M 90.203125 103.625 C 90.378906 104.390625 90.378906 105.160156 90.203125 105.925781 C 90.027344 106.722656 89.703125 107.460938 89.261719 108.140625 C 88.816406 108.816406 88.316406 109.4375 87.757812 110 C 87.609375 110.144531 87.460938 110.265625 87.3125 110.410156 L 86.871094 110.796875 C 86.722656 110.914062 86.578125 111.03125 86.398438 111.148438 C 86.253906 111.265625 86.074219 111.386719 85.929688 111.503906 C 85.28125 111.945312 84.632812 112.359375 83.921875 112.742188 C 83.246094 113.097656 82.539062 113.421875 81.800781 113.714844 C 80.355469 114.277344 78.882812 114.71875 77.378906 115.015625 C 74.371094 115.605469 71.363281 115.753906 68.328125 115.457031 C 66.824219 115.308594 65.351562 115.042969 63.875 114.660156 C 63.140625 114.453125 62.429688 114.246094 61.722656 113.980469 C 61.015625 113.714844 60.339844 113.421875 59.660156 113.066406 C 62.667969 113.097656 65.527344 113.097656 68.355469 112.890625 C 71.15625 112.714844 73.929688 112.328125 76.699219 111.796875 C 78.058594 111.53125 79.414062 111.179688 80.738281 110.796875 C 81.386719 110.589844 82.035156 110.382812 82.683594 110.144531 C 83.335938 109.910156 83.953125 109.644531 84.574219 109.347656 C 85.808594 108.789062 86.929688 108.050781 87.960938 107.164062 C 88.492188 106.722656 88.9375 106.222656 89.289062 105.628906 C 89.730469 104.980469 90.027344 104.332031 90.203125 103.625 Z M 90.203125 103.625 " fill-opacity="1" fill-rule="nonzero"/><path fill="#190662" d="M 74.933594 81.550781 L 74.933594 98.695312 L 78.558594 102.796875 L 70.628906 99.375 Z M 74.933594 81.550781 " fill-opacity="1" fill-rule="nonzero"/><path fill="#190662" d="M 59.425781 129.5625 C 46.6875 123.453125 41.085938 114.867188 38.257812 105.453125 C 34.453125 92.851562 32.742188 51.628906 32.742188 51.628906 L 53.054688 46.671875 C 48.605469 62.339844 41.175781 93.828125 47.191406 112.269531 C 49.726562 119.941406 54.292969 125.519531 59.425781 129.5625 Z M 59.425781 129.5625 " fill-opacity="0.2" fill-rule="nonzero"/><path fill="#ffffff" d="M 117.003906 53.78125 C 116.589844 62.457031 114.878906 94.59375 111.605469 105.425781 C 109.191406 113.449219 104.765625 120.859375 95.628906 126.671875 C 102.351562 119.410156 108.894531 111.121094 109.839844 105.542969 C 111.902344 93.589844 111.785156 56.675781 111.785156 56.675781 C 111.785156 56.675781 114.023438 55.375 117.003906 53.78125 Z M 117.003906 53.78125 " fill-opacity="1" fill-rule="nonzero"/><path fill="#190662" d="M 112.136719 84.914062 C 103.941406 74.378906 108.601562 49.769531 108.6875 49.207031 C 108.480469 49.800781 103.617188 62.929688 73.488281 61.394531 C 83.984375 54.964844 84.75 49.652344 84.75 49.652344 C 84.75 49.652344 64.289062 64.050781 47.21875 47.144531 C 50.492188 60.777344 40.703125 86.390625 40.703125 86.390625 C 40.703125 86.390625 21.128906 66.589844 25.019531 28.375 C 25.019531 28.375 45.363281 38.878906 73.515625 24.628906 C 58.980469 21.972656 43.179688 26.191406 43.179688 26.191406 C 43.179688 26.191406 61.457031 2.378906 106.035156 18.371094 C 94.300781 7.394531 74.933594 4.441406 74.933594 4.441406 C 74.933594 4.441406 132.007812 0.046875 117.769531 39.027344 C 128.265625 42.804688 126.230469 64.878906 112.136719 84.914062 Z M 112.136719 84.914062 " fill-opacity="1" fill-rule="nonzero"/><path fill="#7113c1" d="M 117.769531 39.027344 C 120.953125 26.132812 111.105469 18.488281 110.929688 18.371094 C 110.957031 18.429688 111.871094 20.613281 114.613281 29.289062 C 101.699219 13.855469 74.546875 20.878906 74.546875 20.878906 C 79.882812 21.085938 90.703125 23.269531 90.703125 23.269531 C 90.703125 23.269531 82.097656 33.597656 54.5 35.191406 C 63.316406 36.402344 72.660156 36.019531 72.660156 36.019531 C 72.660156 36.019531 48.929688 42.6875 31.710938 36.019531 C 26.847656 61.335938 40.703125 86.421875 40.703125 86.421875 C 40.703125 86.421875 21.128906 66.589844 25.019531 28.375 C 25.019531 28.375 45.363281 38.878906 73.515625 24.628906 C 58.980469 21.972656 43.179688 26.191406 43.179688 26.191406 C 43.179688 26.191406 61.457031 2.378906 106.035156 18.371094 C 94.300781 7.394531 74.933594 4.441406 74.933594 4.441406 C 74.933594 4.441406 132.007812 0.046875 117.769531 39.027344 Z M 117.769531 39.027344 " fill-opacity="1" fill-rule="nonzero"/><path fill="#7113c1" d="M 112.136719 84.914062 C 103.941406 74.378906 108.601562 49.769531 108.6875 49.207031 C 108.6875 49.207031 109.042969 73.257812 112.933594 79.664062 C 119.242188 67.445312 123.546875 48.707031 117.769531 39.027344 C 128.265625 42.804688 126.230469 64.878906 112.136719 84.914062 Z M 112.136719 84.914062 " fill-opacity="1" fill-rule="nonzero"/><path fill="#190662" d="M 99.195312 100.996094 C 97.21875 100.996094 95.273438 100.730469 93.359375 100.171875 C 91.441406 99.609375 89.671875 98.8125 87.992188 97.78125 C 86.371094 96.777344 84.898438 95.539062 83.628906 94.121094 C 82.359375 92.707031 81.269531 91.140625 80.414062 89.429688 C 80.238281 89.046875 80.003906 88.691406 79.738281 88.398438 C 79.472656 88.074219 79.148438 87.808594 78.792969 87.601562 C 78.441406 87.363281 78.058594 87.1875 77.671875 87.070312 C 77.261719 86.953125 76.847656 86.890625 76.433594 86.890625 L 73.515625 86.890625 C 73.105469 86.890625 72.691406 86.953125 72.277344 87.070312 C 71.867188 87.1875 71.484375 87.363281 71.128906 87.601562 C 70.773438 87.835938 70.449219 88.101562 70.183594 88.398438 C 69.921875 88.722656 69.683594 89.046875 69.507812 89.429688 C 68.652344 91.140625 67.589844 92.707031 66.292969 94.121094 C 64.996094 95.539062 63.550781 96.75 61.929688 97.78125 C 60.25 98.84375 58.453125 99.640625 56.566406 100.171875 C 54.648438 100.703125 52.703125 100.996094 50.726562 100.996094 C 39.171875 100.996094 29.796875 91.730469 29.796875 80.339844 C 29.796875 68.949219 39.199219 59.683594 50.726562 59.683594 L 99.253906 59.683594 C 110.8125 59.683594 120.1875 68.949219 120.1875 80.339844 C 120.128906 91.730469 110.722656 100.996094 99.195312 100.996094 Z M 99.195312 100.996094 " fill-opacity="1" fill-rule="nonzero"/><path fill="#7113c1" d="M 99.195312 60.925781 L 50.667969 60.925781 C 39.789062 60.925781 30.976562 69.628906 30.976562 80.339844 C 30.976562 91.054688 39.789062 99.757812 50.667969 99.757812 C 51.582031 99.757812 52.496094 99.699219 53.378906 99.582031 C 54.292969 99.464844 55.179688 99.285156 56.0625 99.019531 C 56.949219 98.785156 57.804688 98.460938 58.628906 98.105469 C 59.453125 97.75 60.28125 97.308594 61.046875 96.835938 C 61.8125 96.363281 62.550781 95.832031 63.257812 95.242188 C 63.964844 94.652344 64.613281 94.035156 65.230469 93.355469 C 65.851562 92.675781 66.410156 91.96875 66.941406 91.230469 C 67.472656 90.492188 67.914062 89.695312 68.328125 88.871094 C 68.5625 88.398438 68.859375 87.953125 69.210938 87.542969 C 69.566406 87.128906 69.980469 86.804688 70.421875 86.507812 C 70.863281 86.214844 71.363281 86.007812 71.867188 85.859375 C 72.367188 85.710938 72.898438 85.625 73.429688 85.625 L 76.347656 85.625 C 76.878906 85.625 77.410156 85.710938 77.910156 85.859375 C 78.410156 86.007812 78.910156 86.214844 79.355469 86.507812 C 79.796875 86.804688 80.210938 87.128906 80.5625 87.542969 C 80.917969 87.953125 81.210938 88.367188 81.445312 88.871094 C 81.859375 89.695312 82.332031 90.464844 82.832031 91.230469 C 83.363281 91.96875 83.921875 92.707031 84.542969 93.355469 C 85.160156 94.035156 85.808594 94.652344 86.519531 95.242188 C 87.226562 95.832031 87.960938 96.363281 88.730469 96.835938 C 89.496094 97.308594 90.320312 97.722656 91.148438 98.105469 C 91.972656 98.460938 92.828125 98.785156 93.710938 99.019531 C 94.597656 99.257812 95.480469 99.464844 96.394531 99.582031 C 97.308594 99.699219 98.191406 99.757812 99.105469 99.757812 C 109.984375 99.757812 118.800781 91.082031 118.800781 80.339844 C 118.890625 69.601562 110.074219 60.925781 99.195312 60.925781 Z M 99.195312 60.925781 " fill-opacity="1" fill-rule="nonzero"/><path fill="#190662" d="M 57.035156 77.035156 L 54.472656 77.035156 L 54.472656 74.4375 C 54.472656 74.234375 54.441406 74.027344 54.414062 73.789062 C 54.382812 73.582031 54.324219 73.378906 54.234375 73.171875 C 54.148438 72.964844 54.058594 72.785156 53.941406 72.609375 C 53.824219 72.433594 53.703125 72.253906 53.558594 72.109375 C 53.410156 71.960938 53.261719 71.8125 53.085938 71.695312 C 52.910156 71.578125 52.730469 71.457031 52.527344 71.371094 C 52.320312 71.28125 52.140625 71.222656 51.9375 71.164062 C 51.730469 71.105469 51.523438 71.074219 51.316406 71.074219 C 51.082031 71.074219 50.875 71.074219 50.667969 71.105469 C 50.460938 71.132812 50.226562 71.191406 50.019531 71.28125 C 49.8125 71.371094 49.605469 71.457031 49.429688 71.578125 C 49.253906 71.695312 49.078125 71.84375 48.898438 71.988281 C 48.753906 72.136719 48.605469 72.316406 48.488281 72.492188 C 48.367188 72.667969 48.25 72.875 48.164062 73.082031 C 48.074219 73.289062 48.015625 73.496094 47.957031 73.703125 C 47.898438 73.90625 47.898438 74.144531 47.898438 74.351562 L 47.898438 77.007812 L 45.332031 77.007812 C 45.125 77.007812 44.917969 77.035156 44.683594 77.066406 C 44.476562 77.09375 44.269531 77.152344 44.066406 77.242188 C 43.859375 77.332031 43.679688 77.417969 43.503906 77.539062 C 43.328125 77.65625 43.152344 77.773438 43.003906 77.921875 C 42.855469 78.070312 42.707031 78.214844 42.589844 78.394531 C 42.472656 78.570312 42.355469 78.746094 42.265625 78.953125 C 42.175781 79.160156 42.117188 79.339844 42.058594 79.542969 C 42 79.75 41.972656 79.957031 41.972656 80.164062 C 41.972656 80.398438 41.972656 80.605469 42 80.8125 C 42.03125 81.019531 42.089844 81.257812 42.175781 81.460938 C 42.265625 81.667969 42.355469 81.875 42.472656 82.054688 C 42.589844 82.230469 42.738281 82.40625 42.886719 82.582031 C 43.03125 82.730469 43.210938 82.878906 43.386719 82.996094 C 43.5625 83.113281 43.769531 83.234375 43.976562 83.320312 C 44.183594 83.410156 44.390625 83.46875 44.59375 83.527344 C 44.800781 83.585938 45.039062 83.585938 45.242188 83.585938 L 47.898438 83.585938 L 47.898438 86.15625 C 47.898438 86.359375 47.925781 86.566406 47.957031 86.804688 C 47.984375 87.039062 48.042969 87.21875 48.132812 87.421875 C 48.222656 87.628906 48.308594 87.808594 48.429688 87.984375 C 48.546875 88.160156 48.664062 88.339844 48.8125 88.484375 C 48.957031 88.632812 49.105469 88.78125 49.28125 88.898438 C 49.460938 89.015625 49.636719 89.136719 49.84375 89.222656 C 50.050781 89.3125 50.226562 89.371094 50.433594 89.429688 C 50.640625 89.488281 50.84375 89.519531 51.050781 89.519531 C 51.257812 89.519531 51.492188 89.519531 51.699219 89.488281 C 51.90625 89.460938 52.140625 89.402344 52.347656 89.3125 C 52.554688 89.222656 52.761719 89.136719 52.9375 89.015625 C 53.117188 88.898438 53.292969 88.75 53.46875 88.605469 C 53.617188 88.457031 53.765625 88.277344 53.882812 88.101562 C 54 87.925781 54.117188 87.71875 54.207031 87.511719 C 54.292969 87.304688 54.355469 87.097656 54.414062 86.890625 C 54.441406 86.6875 54.472656 86.449219 54.472656 86.242188 L 54.472656 83.585938 L 57.125 83.585938 C 57.332031 83.585938 57.566406 83.558594 57.773438 83.527344 C 57.980469 83.46875 58.1875 83.410156 58.394531 83.320312 C 58.597656 83.234375 58.777344 83.113281 58.980469 82.996094 C 59.160156 82.878906 59.335938 82.730469 59.484375 82.582031 C 59.628906 82.4375 59.777344 82.257812 59.894531 82.054688 C 60.015625 81.875 60.101562 81.667969 60.191406 81.460938 C 60.28125 81.257812 60.339844 81.050781 60.367188 80.8125 C 60.398438 80.605469 60.425781 80.371094 60.398438 80.164062 C 60.398438 79.957031 60.367188 79.75 60.308594 79.542969 C 60.25 79.339844 60.191406 79.132812 60.101562 78.953125 C 60.015625 78.746094 59.894531 78.570312 59.777344 78.394531 C 59.660156 78.214844 59.511719 78.070312 59.367188 77.921875 C 59.21875 77.773438 59.042969 77.65625 58.863281 77.539062 C 58.6875 77.417969 58.511719 77.332031 58.304688 77.242188 C 58.097656 77.152344 57.890625 77.09375 57.683594 77.066406 C 57.449219 77.066406 57.242188 77.035156 57.035156 77.035156 Z M 57.035156 77.035156 " fill-opacity="1" fill-rule="nonzero"/><path fill="#190662" d="M 104.738281 73.050781 C 104.738281 73.316406 104.707031 73.613281 104.648438 73.878906 C 104.589844 74.144531 104.5 74.410156 104.414062 74.675781 C 104.296875 74.941406 104.175781 75.175781 104.03125 75.414062 C 103.882812 75.648438 103.707031 75.855469 103.5 76.0625 C 103.292969 76.269531 103.085938 76.445312 102.851562 76.59375 C 102.613281 76.742188 102.378906 76.886719 102.113281 76.976562 C 101.847656 77.09375 101.582031 77.152344 101.316406 77.214844 C 101.050781 77.273438 100.789062 77.300781 100.492188 77.300781 C 100.226562 77.300781 99.933594 77.273438 99.667969 77.214844 C 99.402344 77.152344 99.136719 77.066406 98.871094 76.976562 C 98.605469 76.859375 98.371094 76.742188 98.132812 76.59375 C 97.898438 76.445312 97.691406 76.269531 97.484375 76.0625 C 97.277344 75.855469 97.101562 75.648438 96.953125 75.414062 C 96.808594 75.175781 96.660156 74.941406 96.570312 74.675781 C 96.453125 74.410156 96.394531 74.144531 96.335938 73.878906 C 96.277344 73.613281 96.246094 73.316406 96.246094 73.050781 C 96.246094 72.785156 96.277344 72.492188 96.335938 72.226562 C 96.394531 71.960938 96.484375 71.695312 96.570312 71.429688 C 96.6875 71.164062 96.808594 70.925781 96.953125 70.691406 C 97.101562 70.457031 97.277344 70.25 97.484375 70.042969 C 97.691406 69.835938 97.898438 69.660156 98.132812 69.511719 C 98.371094 69.363281 98.605469 69.214844 98.871094 69.128906 C 99.136719 69.007812 99.402344 68.949219 99.667969 68.890625 C 99.933594 68.832031 100.199219 68.804688 100.492188 68.804688 C 100.757812 68.804688 101.050781 68.832031 101.316406 68.890625 C 101.582031 68.949219 101.847656 69.039062 102.113281 69.128906 C 102.378906 69.246094 102.613281 69.363281 102.851562 69.511719 C 103.085938 69.660156 103.292969 69.835938 103.5 70.042969 C 103.707031 70.25 103.882812 70.457031 104.03125 70.691406 C 104.175781 70.925781 104.324219 71.164062 104.414062 71.429688 C 104.53125 71.695312 104.589844 71.960938 104.648438 72.226562 C 104.707031 72.519531 104.738281 72.785156 104.738281 73.050781 Z M 104.738281 73.050781 " fill-opacity="1" fill-rule="nonzero"/><path fill="#190662" d="M 104.738281 87.601562 C 104.738281 87.867188 104.707031 88.160156 104.648438 88.425781 C 104.589844 88.691406 104.5 88.957031 104.414062 89.222656 C 104.296875 89.488281 104.175781 89.726562 104.03125 89.960938 C 103.882812 90.199219 103.707031 90.402344 103.5 90.609375 C 103.292969 90.816406 103.085938 90.996094 102.851562 91.140625 C 102.613281 91.289062 102.378906 91.4375 102.113281 91.523438 C 101.847656 91.644531 101.582031 91.703125 101.316406 91.761719 C 101.050781 91.820312 100.789062 91.851562 100.492188 91.851562 C 100.226562 91.851562 99.933594 91.820312 99.667969 91.761719 C 99.402344 91.703125 99.136719 91.613281 98.871094 91.523438 C 98.605469 91.40625 98.371094 91.289062 98.132812 91.140625 C 97.898438 90.996094 97.691406 90.816406 97.484375 90.609375 C 97.277344 90.402344 97.101562 90.199219 96.953125 89.960938 C 96.808594 89.726562 96.660156 89.488281 96.570312 89.222656 C 96.453125 88.957031 96.394531 88.691406 96.335938 88.425781 C 96.277344 88.160156 96.246094 87.867188 96.246094 87.601562 C 96.246094 87.335938 96.277344 87.039062 96.335938 86.773438 C 96.394531 86.507812 96.484375 86.242188 96.570312 85.976562 C 96.6875 85.710938 96.808594 85.476562 96.953125 85.238281 C 97.101562 85.003906 97.277344 84.796875 97.484375 84.589844 C 97.691406 84.382812 97.898438 84.207031 98.132812 84.058594 C 98.371094 83.910156 98.605469 83.765625 98.871094 83.675781 C 99.136719 83.558594 99.402344 83.5 99.667969 83.441406 C 99.933594 83.378906 100.199219 83.351562 100.492188 83.351562 C 100.757812 83.351562 101.050781 83.378906 101.316406 83.441406 C 101.582031 83.5 101.847656 83.585938 102.113281 83.675781 C 102.378906 83.792969 102.613281 83.910156 102.851562 84.058594 C 103.085938 84.207031 103.292969 84.382812 103.5 84.589844 C 103.707031 84.796875 103.882812 85.003906 104.03125 85.238281 C 104.175781 85.476562 104.324219 85.710938 104.414062 85.976562 C 104.53125 86.242188 104.589844 86.507812 104.648438 86.773438 C 104.707031 87.039062 104.738281 87.335938 104.738281 87.601562 Z M 104.738281 87.601562 " fill-opacity="1" fill-rule="nonzero"/><path fill="#190662" d="M 97.484375 80.339844 C 97.484375 80.605469 97.457031 80.902344 97.398438 81.167969 C 97.335938 81.433594 97.25 81.699219 97.160156 81.964844 C 97.042969 82.230469 96.925781 82.464844 96.777344 82.703125 C 96.628906 82.9375 96.453125 83.144531 96.246094 83.351562 C 96.039062 83.558594 95.835938 83.734375 95.597656 83.882812 C 95.363281 84.03125 95.125 84.175781 94.863281 84.265625 C 94.597656 84.382812 94.332031 84.441406 94.066406 84.503906 C 93.800781 84.5625 93.503906 84.589844 93.238281 84.589844 C 92.972656 84.589844 92.679688 84.5625 92.414062 84.503906 C 92.148438 84.441406 91.882812 84.355469 91.617188 84.265625 C 91.351562 84.148438 91.117188 84.03125 90.882812 83.882812 C 90.644531 83.734375 90.4375 83.558594 90.234375 83.351562 C 90.027344 83.144531 89.847656 82.9375 89.703125 82.703125 C 89.554688 82.464844 89.40625 82.230469 89.320312 81.964844 C 89.199219 81.699219 89.140625 81.433594 89.082031 81.167969 C 89.023438 80.902344 88.996094 80.636719 88.996094 80.339844 C 88.996094 80.074219 89.023438 79.78125 89.082031 79.515625 C 89.140625 79.25 89.230469 78.984375 89.320312 78.71875 C 89.4375 78.453125 89.554688 78.214844 89.703125 77.980469 C 89.847656 77.746094 90.027344 77.539062 90.234375 77.332031 C 90.4375 77.125 90.644531 76.949219 90.882812 76.800781 C 91.117188 76.652344 91.351562 76.503906 91.617188 76.417969 C 91.882812 76.328125 92.148438 76.238281 92.414062 76.179688 C 92.679688 76.121094 92.972656 76.09375 93.238281 76.09375 C 93.503906 76.09375 93.800781 76.121094 94.066406 76.179688 C 94.332031 76.238281 94.597656 76.328125 94.863281 76.417969 C 95.125 76.535156 95.363281 76.652344 95.597656 76.800781 C 95.835938 76.949219 96.039062 77.125 96.246094 77.332031 C 96.453125 77.539062 96.628906 77.746094 96.777344 77.980469 C 96.925781 78.214844 97.074219 78.453125 97.160156 78.71875 C 97.277344 78.984375 97.335938 79.25 97.398438 79.515625 C 97.457031 79.78125 97.484375 80.046875 97.484375 80.339844 Z M 97.484375 80.339844 " fill-opacity="1" fill-rule="nonzero"/><path fill="#190662" d="M 111.988281 80.339844 C 111.988281 80.605469 111.960938 80.902344 111.902344 81.167969 C 111.84375 81.433594 111.753906 81.699219 111.664062 81.964844 C 111.546875 82.230469 111.429688 82.464844 111.28125 82.703125 C 111.136719 82.9375 110.957031 83.144531 110.753906 83.351562 C 110.546875 83.558594 110.339844 83.734375 110.101562 83.882812 C 109.867188 84.03125 109.632812 84.175781 109.367188 84.265625 C 109.101562 84.382812 108.835938 84.441406 108.570312 84.503906 C 108.304688 84.5625 108.039062 84.589844 107.746094 84.589844 C 107.480469 84.589844 107.183594 84.5625 106.917969 84.503906 C 106.652344 84.441406 106.390625 84.355469 106.125 84.265625 C 105.859375 84.148438 105.621094 84.03125 105.386719 83.882812 C 105.152344 83.734375 104.945312 83.558594 104.738281 83.351562 C 104.53125 83.144531 104.355469 82.9375 104.207031 82.703125 C 104.058594 82.464844 103.914062 82.230469 103.824219 81.964844 C 103.707031 81.699219 103.648438 81.433594 103.589844 81.167969 C 103.527344 80.902344 103.5 80.636719 103.5 80.339844 C 103.5 80.074219 103.527344 79.78125 103.589844 79.515625 C 103.648438 79.25 103.734375 78.984375 103.824219 78.71875 C 103.941406 78.453125 104.058594 78.214844 104.207031 77.980469 C 104.355469 77.746094 104.53125 77.539062 104.738281 77.332031 C 104.945312 77.125 105.152344 76.949219 105.386719 76.800781 C 105.621094 76.652344 105.859375 76.503906 106.125 76.417969 C 106.390625 76.296875 106.652344 76.238281 106.917969 76.179688 C 107.183594 76.121094 107.449219 76.09375 107.746094 76.09375 C 108.011719 76.09375 108.304688 76.121094 108.570312 76.179688 C 108.835938 76.238281 109.101562 76.328125 109.367188 76.417969 C 109.632812 76.535156 109.867188 76.652344 110.101562 76.800781 C 110.339844 76.949219 110.546875 77.125 110.753906 77.332031 C 110.957031 77.539062 111.136719 77.746094 111.28125 77.980469 C 111.429688 78.214844 111.578125 78.453125 111.664062 78.71875 C 111.785156 78.984375 111.84375 79.25 111.902344 79.515625 C 111.960938 79.78125 111.988281 80.046875 111.988281 80.339844 Z M 111.988281 80.339844 " fill-opacity="1" fill-rule="nonzero"/><path fill="#190662" d="M 50.667969 63.640625 L 99.195312 63.640625 C 109.542969 63.640625 118.035156 71.519531 118.828125 81.523438 C 118.859375 81.019531 118.890625 80.519531 118.890625 79.988281 C 118.890625 69.273438 110.074219 60.570312 99.195312 60.570312 L 50.667969 60.570312 C 39.789062 60.570312 30.976562 69.246094 30.976562 79.988281 C 30.976562 80.488281 31.003906 81.019531 31.035156 81.523438 C 31.828125 71.546875 40.320312 63.640625 50.667969 63.640625 Z M 50.667969 63.640625 " fill-opacity="1" fill-rule="nonzero"/><g transform="matrix(1, 0, 0, 1, 74, 145)"><g clip-path="url(#b2b75afed3)"><g fill="#58677e" fill-opacity="1"><g transform="translate(0.999997, 4.067974)"><g><path d="M 2.5 -1.21875 C 2.5 -0.925781 2.445312 -0.679688 2.34375 -0.484375 C 2.25 -0.296875 2.101562 -0.160156 1.90625 -0.078125 L 2.484375 0.578125 L 1.828125 0.578125 L 1.390625 0.03125 L 1.34375 0.03125 C 0.976562 0.03125 0.695312 -0.0703125 0.5 -0.28125 C 0.300781 -0.5 0.203125 -0.8125 0.203125 -1.21875 C 0.203125 -1.625 0.300781 -1.929688 0.5 -2.140625 C 0.695312 -2.347656 0.984375 -2.453125 1.359375 -2.453125 C 1.722656 -2.453125 2.003906 -2.34375 2.203125 -2.125 C 2.398438 -1.914062 2.5 -1.613281 2.5 -1.21875 Z M 0.734375 -1.21875 C 0.734375 -0.945312 0.785156 -0.738281 0.890625 -0.59375 C 0.992188 -0.457031 1.144531 -0.390625 1.34375 -0.390625 C 1.757812 -0.390625 1.96875 -0.664062 1.96875 -1.21875 C 1.96875 -1.757812 1.765625 -2.03125 1.359375 -2.03125 C 1.148438 -2.03125 0.992188 -1.960938 0.890625 -1.828125 C 0.785156 -1.691406 0.734375 -1.488281 0.734375 -1.21875 Z M 0.734375 -1.21875 "/></g></g></g><g fill="#58677e" fill-opacity="1"><g transform="translate(3.694763, 4.067974)"><g><path d="M 1.78125 0 L 1.609375 -0.578125 L 0.734375 -0.578125 L 0.546875 0 L 0 0 L 0.859375 -2.4375 L 1.484375 -2.4375 L 2.34375 0 Z M 1.484375 -1 C 1.328125 -1.53125 1.238281 -1.828125 1.21875 -1.890625 C 1.195312 -1.960938 1.179688 -2.015625 1.171875 -2.046875 C 1.128906 -1.910156 1.023438 -1.5625 0.859375 -1 Z M 1.484375 -1 "/></g></g></g><g clip-path="url(#5ca6075fce)"><g fill="#58677e" fill-opacity="1"><g transform="translate(6.030779, 4.067974)"><g><path d="M 0.296875 -2.421875 L 1.0625 -2.421875 C 1.40625 -2.421875 1.648438 -2.367188 1.796875 -2.265625 C 1.953125 -2.171875 2.03125 -2.019531 2.03125 -1.8125 C 2.03125 -1.664062 1.992188 -1.546875 1.921875 -1.453125 C 1.859375 -1.359375 1.773438 -1.300781 1.671875 -1.28125 L 1.671875 -1.265625 C 1.816406 -1.234375 1.921875 -1.171875 1.984375 -1.078125 C 2.054688 -0.984375 2.09375 -0.859375 2.09375 -0.703125 C 2.09375 -0.484375 2.015625 -0.3125 1.859375 -0.1875 C 1.703125 -0.0625 1.484375 0 1.203125 0 L 0.296875 0 Z M 0.8125 -1.46875 L 1.109375 -1.46875 C 1.253906 -1.46875 1.359375 -1.488281 1.421875 -1.53125 C 1.484375 -1.570312 1.515625 -1.640625 1.515625 -1.734375 C 1.515625 -1.828125 1.476562 -1.894531 1.40625 -1.9375 C 1.34375 -1.976562 1.238281 -2 1.09375 -2 L 0.8125 -2 Z M 0.8125 -1.046875 L 0.8125 -0.421875 L 1.15625 -0.421875 C 1.289062 -0.421875 1.390625 -0.445312 1.453125 -0.5 C 1.523438 -0.5625 1.5625 -0.644531 1.5625 -0.75 C 1.5625 -0.945312 1.421875 -1.046875 1.140625 -1.046875 Z M 0.8125 -1.046875 "/></g></g></g></g></g></g></svg>