<svg xmlns="http://www.w3.org/2000/svg" xmlns:xlink="http://www.w3.org/1999/xlink" width="200" zoomAndPan="magnify" viewBox="0 0 150 149.999998" height="200" preserveAspectRatio="xMidYMid meet" version="1.0"><defs><g/><clipPath id="17e38afffa"><path d="M 6 1 L 8.320312 1 L 8.320312 5 L 6 5 Z M 6 1 " clip-rule="nonzero"/></clipPath><clipPath id="d896256b91"><rect x="0" width="9" y="0" height="5"/></clipPath></defs><path fill="#1e1211" d="M 58.761719 72.636719 L 54.035156 85.234375 L 23.898438 102.796875 C 21.820312 108.800781 20.121094 114.226562 18.800781 119.074219 C 14.632812 133.269531 13.34375 149.8125 14.929688 168.699219 C 16.445312 187.203125 19.921875 196.4375 25.359375 196.402344 L 135.75 195.195312 C 138.113281 192.832031 139.800781 189.707031 140.808594 185.828125 C 143.292969 174.433594 143.5625 159.703125 141.613281 141.636719 C 140.351562 130.496094 136.441406 117.085938 129.882812 101.402344 L 97.957031 85.355469 L 91.796875 72.59375 L 58.804688 72.636719 " fill-opacity="1" fill-rule="nonzero"/><path fill="#89cbe5" d="M 61.234375 83.808594 L 59.664062 98.230469 L 70.1875 128.90625 C 71.671875 147.308594 72.398438 159.546875 72.367188 165.625 C 72.4375 172.589844 71.773438 178.277344 70.378906 182.683594 C 69.453125 185.988281 67.457031 190.417969 64.394531 195.976562 L 94.0625 195.648438 C 90.449219 181.695312 88.363281 170.078125 87.800781 160.800781 C 87.3125 154.390625 87.296875 146.671875 87.757812 137.652344 C 87.953125 133.855469 88.238281 129.796875 88.613281 125.472656 C 88.855469 122.375 89.523438 115.773438 90.609375 105.679688 C 90.78125 103.9375 90.863281 102.65625 90.851562 101.824219 C 90.828125 101.148438 90.757812 100.710938 90.644531 100.507812 C 89.769531 99.78125 87.859375 95.332031 84.917969 87.148438 L 87.097656 84.824219 L 61.25 83.808594 Z M 61.234375 83.808594 " fill-opacity="1" fill-rule="nonzero"/><path fill="#000000" d="M 72.640625 15.027344 C 67.609375 15.070312 63.113281 16.628906 59.152344 19.710938 C 54.726562 23.199219 51.765625 27.386719 50.273438 32.269531 C 49.136719 36.210938 49.308594 40.808594 50.789062 46.070312 C 52.652344 52.273438 55.347656 57.863281 58.871094 62.832031 L 92.433594 61.519531 L 92.464844 61.4375 C 94.679688 51.964844 96.019531 45.277344 96.480469 41.382812 C 97.027344 37.234375 96.894531 34.265625 96.078125 32.476562 C 95.464844 30.835938 93.9375 29.574219 91.492188 28.695312 C 91.355469 24.671875 89.71875 21.582031 86.585938 19.417969 C 82.589844 16.5625 77.945312 15.097656 72.648438 15.027344 " fill-opacity="1" fill-rule="nonzero"/><path fill="#ffcda6" d="M 81.898438 31.425781 C 80.023438 31.210938 73.855469 32.015625 63.394531 33.839844 C 61.15625 34.1875 59.652344 34.699219 58.882812 35.375 C 58.167969 35.957031 57.714844 36.890625 57.519531 38.171875 C 57.429688 38.714844 57.367188 39.367188 57.339844 40.136719 C 57.398438 44.503906 57.339844 47.113281 57.164062 47.964844 C 56.988281 49.695312 56.445312 52.09375 55.527344 55.15625 C 52.5625 54.066406 51.042969 55.078125 50.96875 58.195312 C 50.785156 61.722656 51.21875 64.527344 52.265625 66.613281 C 53.058594 68.351562 54.785156 69.117188 57.441406 68.914062 L 59.519531 74.316406 L 61.328125 83.953125 L 61.375 87.933594 L 72.140625 97.5625 L 75.054688 109.785156 L 80.410156 96.726562 L 85.195312 92.628906 L 84.9375 86.933594 L 90.945312 80.433594 C 90.804688 73.003906 91.023438 68.96875 91.597656 68.324219 C 91.789062 67.894531 92.046875 67.613281 92.367188 67.484375 L 95.195312 67.457031 C 95.800781 67.300781 96.285156 66.960938 96.652344 66.4375 C 97.625 64.984375 98.28125 62.527344 98.632812 59.0625 C 98.960938 55.125 98.457031 52.773438 97.117188 52.015625 C 94.597656 51.265625 92.894531 52.21875 92.007812 54.882812 C 91.828125 52.023438 91.574219 50.035156 91.246094 48.90625 C 91.207031 48.40625 90.570312 46.976562 89.335938 44.613281 C 89.113281 44.042969 88.964844 43.539062 88.890625 43.097656 C 88.796875 42.667969 88.742188 42.117188 88.71875 41.445312 C 88.792969 38.574219 88.789062 36.9375 88.699219 36.535156 C 88.613281 35.492188 88.347656 34.582031 87.914062 33.8125 C 87.0625 32.21875 85.070312 31.421875 81.929688 31.425781 " fill-opacity="1" fill-rule="nonzero"/><path fill="#ff3800" d="M 91.089844 72.257812 C 87.402344 76.625 84.5625 79.539062 82.574219 80.992188 C 80.285156 82.738281 78.089844 83.695312 75.984375 83.855469 C 71.738281 84.195312 66.285156 81.15625 59.625 74.738281 L 77.171875 93.371094 L 91.046875 72.324219 " fill-opacity="0.125" fill-rule="nonzero"/><path fill="#ff3800" d="M 83.382812 68.878906 C 79.898438 69.019531 77.265625 69.207031 75.488281 69.433594 C 73.46875 69.6875 71.222656 70.121094 68.75 70.738281 L 83.359375 68.882812 " fill-opacity="0.443" fill-rule="nonzero"/><path fill="#ff3800" d="M 80.125 62.414062 L 75.769531 64.59375 L 71.34375 64.082031 L 75.230469 66.085938 C 75.328125 66.199219 75.40625 66.269531 75.453125 66.289062 C 75.539062 66.335938 75.640625 66.347656 75.757812 66.320312 C 76.03125 66.269531 76.492188 65.949219 77.132812 65.367188 C 77.703125 64.855469 78.695312 63.875 80.113281 62.425781 " fill-opacity="0.306" fill-rule="nonzero"/><path fill="#000000" d="M 72.945312 48.347656 L 55.277344 49.128906 C 56.128906 53.632812 57.199219 56.589844 58.488281 57.992188 C 59.875 59.65625 61.953125 60.449219 64.722656 60.363281 C 67.769531 60.140625 69.9375 59.105469 71.230469 57.265625 C 72.390625 55.738281 72.960938 52.765625 72.945312 48.351562 " fill-opacity="1" fill-rule="nonzero"/><path fill="#000000" d="M 92.382812 47.46875 L 74.71875 48.265625 C 75.53125 52.582031 76.558594 55.480469 77.796875 56.964844 C 79.1875 58.726562 81.304688 59.570312 84.152344 59.484375 C 87.273438 59.265625 89.488281 58.175781 90.796875 56.210938 C 91.871094 54.632812 92.402344 51.726562 92.382812 47.492188 " fill-opacity="1" fill-rule="nonzero"/><path fill="#000000" d="M 65.78125 47.863281 C 64.601562 47.824219 62.425781 48.335938 59.257812 49.398438 C 58.957031 49.542969 58.761719 49.777344 58.671875 50.105469 C 58.597656 50.433594 58.660156 50.734375 58.863281 51.003906 C 59.128906 51.320312 59.460938 51.453125 59.855469 51.402344 L 62.390625 50.636719 C 62.941406 50.476562 63.421875 50.347656 63.835938 50.253906 C 64.734375 50.042969 65.433594 49.949219 65.933594 49.980469 C 66.289062 49.996094 66.597656 50.082031 66.855469 50.234375 C 66.992188 50.316406 67.140625 50.425781 67.289062 50.570312 L 68.039062 51.359375 C 68.214844 51.488281 68.417969 51.554688 68.652344 51.5625 C 69.074219 51.558594 69.394531 51.363281 69.609375 50.980469 C 69.789062 50.585938 69.753906 50.210938 69.503906 49.863281 C 68.910156 49.132812 68.34375 48.625 67.804688 48.347656 C 67.226562 48.03125 66.554688 47.867188 65.789062 47.863281 " fill-opacity="1" fill-rule="nonzero"/><path fill="#000000" d="M 82.011719 46.652344 C 83.195312 46.648438 85.355469 47.222656 88.496094 48.371094 C 88.789062 48.527344 88.980469 48.765625 89.058594 49.09375 C 89.121094 49.425781 89.050781 49.726562 88.84375 49.988281 C 88.566406 50.296875 88.230469 50.421875 87.839844 50.359375 L 85.324219 49.523438 C 84.78125 49.347656 84.300781 49.207031 83.894531 49.097656 C 83 48.863281 82.304688 48.75 81.804688 48.765625 C 81.449219 48.773438 81.140625 48.851562 80.875 48.996094 C 80.734375 49.070312 80.585938 49.179688 80.429688 49.316406 L 79.660156 50.082031 C 79.480469 50.207031 79.277344 50.269531 79.042969 50.273438 C 78.617188 50.253906 78.304688 50.050781 78.097656 49.664062 C 77.929688 49.261719 77.976562 48.890625 78.238281 48.546875 C 78.851562 47.832031 79.433594 47.34375 79.976562 47.082031 C 80.566406 46.78125 81.242188 46.636719 82.007812 46.652344 " fill-opacity="1" fill-rule="nonzero"/><path fill="#d2c9c9" d="M 121.238281 135.9375 L 120.355469 195.363281 L 128.265625 195.277344 L 121.242188 135.984375 Z M 33.503906 140.679688 L 35.261719 196.292969 L 40.859375 196.234375 L 33.511719 140.726562 Z M 33.503906 140.679688 " fill-opacity="0.071" fill-rule="nonzero"/><path fill="#000000" d="M 80.675781 97.738281 L 77.652344 106.824219 L 83.949219 106.8125 L 82.394531 100.035156 Z M 66.972656 96.425781 L 66.734375 106.824219 L 73.222656 107.390625 L 71.054688 99.75 L 66.980469 96.433594 Z M 66.972656 96.425781 " fill-opacity="0.184" fill-rule="nonzero"/><path fill="#000000" d="M 76.675781 48.699219 L 69.765625 49.066406 L 69.816406 49.976562 L 76.683594 49.613281 C 76.710938 49.613281 76.734375 49.609375 76.753906 49.605469 C 77 49.539062 77.125 49.378906 77.128906 49.125 C 77.085938 48.871094 76.941406 48.730469 76.691406 48.699219 " fill-opacity="1" fill-rule="nonzero"/><path fill="#000000" d="M 75.222656 109.054688 L 75.214844 109.054688 C 74.929688 109.089844 74.777344 109.246094 74.761719 109.523438 L 78.140625 195.824219 L 79.050781 195.816406 L 75.675781 109.507812 C 75.640625 109.226562 75.488281 109.074219 75.222656 109.054688 Z M 75.222656 109.054688 " fill-opacity="0.063" fill-rule="nonzero"/><g transform="matrix(1, 0, 0, 1, 74, 145)"><g clip-path="url(#d896256b91)"><g fill="#58677e" fill-opacity="1"><g transform="translate(0.999997, 4.067974)"><g><path d="M 2.5 -1.21875 C 2.5 -0.925781 2.445312 -0.679688 2.34375 -0.484375 C 2.25 -0.296875 2.101562 -0.160156 1.90625 -0.078125 L 2.484375 0.578125 L 1.828125 0.578125 L 1.390625 0.03125 L 1.34375 0.03125 C 0.976562 0.03125 0.695312 -0.0703125 0.5 -0.28125 C 0.300781 -0.5 0.203125 -0.8125 0.203125 -1.21875 C 0.203125 -1.625 0.300781 -1.929688 0.5 -2.140625 C 0.695312 -2.347656 0.984375 -2.453125 1.359375 -2.453125 C 1.722656 -2.453125 2.003906 -2.34375 2.203125 -2.125 C 2.398438 -1.914062 2.5 -1.613281 2.5 -1.21875 Z M 0.734375 -1.21875 C 0.734375 -0.945312 0.785156 -0.738281 0.890625 -0.59375 C 0.992188 -0.457031 1.144531 -0.390625 1.34375 -0.390625 C 1.757812 -0.390625 1.96875 -0.664062 1.96875 -1.21875 C 1.96875 -1.757812 1.765625 -2.03125 1.359375 -2.03125 C 1.148438 -2.03125 0.992188 -1.960938 0.890625 -1.828125 C 0.785156 -1.691406 0.734375 -1.488281 0.734375 -1.21875 Z M 0.734375 -1.21875 "/></g></g></g><g fill="#58677e" fill-opacity="1"><g transform="translate(3.694763, 4.067974)"><g><path d="M 1.78125 0 L 1.609375 -0.578125 L 0.734375 -0.578125 L 0.546875 0 L 0 0 L 0.859375 -2.4375 L 1.484375 -2.4375 L 2.34375 0 Z M 1.484375 -1 C 1.328125 -1.53125 1.238281 -1.828125 1.21875 -1.890625 C 1.195312 -1.960938 1.179688 -2.015625 1.171875 -2.046875 C 1.128906 -1.910156 1.023438 -1.5625 0.859375 -1 Z M 1.484375 -1 "/></g></g></g><g clip-path="url(#17e38afffa)"><g fill="#58677e" fill-opacity="1"><g transform="translate(6.030779, 4.067974)"><g><path d="M 0.296875 -2.421875 L 1.0625 -2.421875 C 1.40625 -2.421875 1.648438 -2.367188 1.796875 -2.265625 C 1.953125 -2.171875 2.03125 -2.019531 2.03125 -1.8125 C 2.03125 -1.664062 1.992188 -1.546875 1.921875 -1.453125 C 1.859375 -1.359375 1.773438 -1.300781 1.671875 -1.28125 L 1.671875 -1.265625 C 1.816406 -1.234375 1.921875 -1.171875 1.984375 -1.078125 C 2.054688 -0.984375 2.09375 -0.859375 2.09375 -0.703125 C 2.09375 -0.484375 2.015625 -0.3125 1.859375 -0.1875 C 1.703125 -0.0625 1.484375 0 1.203125 0 L 0.296875 0 Z M 0.8125 -1.46875 L 1.109375 -1.46875 C 1.253906 -1.46875 1.359375 -1.488281 1.421875 -1.53125 C 1.484375 -1.570312 1.515625 -1.640625 1.515625 -1.734375 C 1.515625 -1.828125 1.476562 -1.894531 1.40625 -1.9375 C 1.34375 -1.976562 1.238281 -2 1.09375 -2 L 0.8125 -2 Z M 0.8125 -1.046875 L 0.8125 -0.421875 L 1.15625 -0.421875 C 1.289062 -0.421875 1.390625 -0.445312 1.453125 -0.5 C 1.523438 -0.5625 1.5625 -0.644531 1.5625 -0.75 C 1.5625 -0.945312 1.421875 -1.046875 1.140625 -1.046875 Z M 0.8125 -1.046875 "/></g></g></g></g></g></g></svg>