<svg xmlns="http://www.w3.org/2000/svg" xmlns:xlink="http://www.w3.org/1999/xlink" width="200" zoomAndPan="magnify" viewBox="0 0 150 149.999998" height="200" preserveAspectRatio="xMidYMid meet" version="1.0"><defs><g/><clipPath id="762dbfb6f8"><path d="M 6 1 L 8.320312 1 L 8.320312 5 L 6 5 Z M 6 1 " clip-rule="nonzero"/></clipPath><clipPath id="164d4c154f"><rect x="0" width="9" y="0" height="5"/></clipPath></defs><path fill="#d8a088" d="M 91.128906 105.214844 L 95.476562 117.867188 L 99.75 141.386719 L 67.476562 145.109375 L 50.71875 137.363281 L 49.167969 127.460938 L 58.546875 117.867188 L 64.683594 105.214844 L 91.128906 105.214844 " fill-opacity="1" fill-rule="nonzero"/><path fill="#f9b994" d="M 114.8125 61.230469 C 114.8125 88.0625 96.746094 109.808594 74.457031 109.808594 C 52.164062 109.808594 34.105469 88.0625 34.105469 61.230469 C 34.105469 34.40625 52.164062 12.652344 74.457031 12.652344 C 96.746094 12.652344 114.8125 34.40625 114.8125 61.230469 " fill-opacity="1" fill-rule="nonzero"/><path fill="#782e99" d="M 137.871094 151.507812 C 129.605469 121.542969 95.476562 117.867188 95.476562 117.867188 C 54.199219 153.777344 58.546875 117.867188 58.546875 117.867188 C 22.769531 123.8125 16.140625 142.277344 15.128906 151.507812 L 137.871094 151.507812 " fill-opacity="1" fill-rule="nonzero"/><path fill="#656263" d="M 116.507812 64.195312 L 95.199219 64.195312 L 95.199219 56.351562 L 116.507812 56.351562 L 116.507812 64.195312 " fill-opacity="1" fill-rule="nonzero"/><path fill="#4e4b4c" d="M 93.859375 52.722656 L 30.355469 52.722656 C 29.027344 52.722656 27.957031 53.5 27.957031 54.464844 L 27.957031 76.367188 C 27.957031 77.320312 29.027344 78.097656 30.355469 78.097656 L 56.558594 78.097656 L 56.558594 73.019531 C 56.558594 71.699219 57.628906 70.628906 58.957031 70.628906 L 65.257812 70.628906 C 66.582031 70.628906 67.652344 71.699219 67.652344 73.019531 L 67.652344 78.097656 L 93.859375 78.097656 C 95.183594 78.097656 96.261719 77.320312 96.261719 76.367188 L 96.261719 54.464844 C 96.261719 53.5 95.183594 52.722656 93.859375 52.722656 " fill-opacity="1" fill-rule="nonzero"/><path fill="#d8a088" d="M 119.816406 69.660156 C 119.816406 74.851562 116.316406 79.054688 112.007812 79.054688 C 107.695312 79.054688 104.203125 74.851562 104.203125 69.660156 C 104.203125 64.476562 107.695312 60.277344 112.007812 60.277344 C 116.316406 60.277344 119.816406 64.476562 119.816406 69.660156 " fill-opacity="1" fill-rule="nonzero"/><path fill="#d8a088" d="M 61.679688 83.648438 L 55.730469 83.648438 L 61.679688 74.980469 L 64.65625 79.316406 L 67.625 83.648438 L 61.679688 83.648438 " fill-opacity="1" fill-rule="nonzero"/><path fill="#d8a088" d="M 63.34375 95.140625 C 53.988281 95.140625 47.742188 88.777344 47.648438 88.6875 C 47.175781 88.191406 47.1875 87.40625 47.683594 86.933594 C 48.183594 86.457031 48.96875 86.480469 49.445312 86.972656 C 49.945312 87.496094 62.019531 99.683594 77.761719 86.867188 C 78.285156 86.4375 79.074219 86.515625 79.503906 87.042969 C 79.9375 87.574219 79.859375 88.351562 79.328125 88.792969 C 73.480469 93.550781 68.023438 95.140625 63.34375 95.140625 " fill-opacity="1" fill-rule="nonzero"/><path fill="#593014" d="M 99.425781 18.890625 C 100.65625 16.230469 102.855469 14.347656 102.855469 14.347656 C 98.609375 14.660156 95.9375 16.519531 95.9375 16.519531 C 94.511719 11.464844 89.613281 9.597656 89.613281 9.597656 C 90.386719 11.5 90.640625 13.191406 90.621094 14.632812 C 40.113281 0.00390625 28.789062 48.304688 28.789062 48.304688 C 67.683594 55.523438 91.832031 38.289062 91.832031 38.289062 C 100.933594 48.195312 116.507812 53.769531 116.507812 53.769531 C 116.925781 34.894531 105.761719 23.699219 99.425781 18.890625 " fill-opacity="1" fill-rule="nonzero"/><g transform="matrix(1, 0, 0, 1, 74, 145)"><g clip-path="url(#164d4c154f)"><g fill="#58677e" fill-opacity="1"><g transform="translate(0.999997, 4.067974)"><g><path d="M 2.5 -1.21875 C 2.5 -0.925781 2.445312 -0.679688 2.34375 -0.484375 C 2.25 -0.296875 2.101562 -0.160156 1.90625 -0.078125 L 2.484375 0.578125 L 1.828125 0.578125 L 1.390625 0.03125 L 1.34375 0.03125 C 0.976562 0.03125 0.695312 -0.0703125 0.5 -0.28125 C 0.300781 -0.5 0.203125 -0.8125 0.203125 -1.21875 C 0.203125 -1.625 0.300781 -1.929688 0.5 -2.140625 C 0.695312 -2.347656 0.984375 -2.453125 1.359375 -2.453125 C 1.722656 -2.453125 2.003906 -2.34375 2.203125 -2.125 C 2.398438 -1.914062 2.5 -1.613281 2.5 -1.21875 Z M 0.734375 -1.21875 C 0.734375 -0.945312 0.785156 -0.738281 0.890625 -0.59375 C 0.992188 -0.457031 1.144531 -0.390625 1.34375 -0.390625 C 1.757812 -0.390625 1.96875 -0.664062 1.96875 -1.21875 C 1.96875 -1.757812 1.765625 -2.03125 1.359375 -2.03125 C 1.148438 -2.03125 0.992188 -1.960938 0.890625 -1.828125 C 0.785156 -1.691406 0.734375 -1.488281 0.734375 -1.21875 Z M 0.734375 -1.21875 "/></g></g></g><g fill="#58677e" fill-opacity="1"><g transform="translate(3.694763, 4.067974)"><g><path d="M 1.78125 0 L 1.609375 -0.578125 L 0.734375 -0.578125 L 0.546875 0 L 0 0 L 0.859375 -2.4375 L 1.484375 -2.4375 L 2.34375 0 Z M 1.484375 -1 C 1.328125 -1.53125 1.238281 -1.828125 1.21875 -1.890625 C 1.195312 -1.960938 1.179688 -2.015625 1.171875 -2.046875 C 1.128906 -1.910156 1.023438 -1.5625 0.859375 -1 Z M 1.484375 -1 "/></g></g></g><g clip-path="url(#762dbfb6f8)"><g fill="#58677e" fill-opacity="1"><g transform="translate(6.030779, 4.067974)"><g><path d="M 0.296875 -2.421875 L 1.0625 -2.421875 C 1.40625 -2.421875 1.648438 -2.367188 1.796875 -2.265625 C 1.953125 -2.171875 2.03125 -2.019531 2.03125 -1.8125 C 2.03125 -1.664062 1.992188 -1.546875 1.921875 -1.453125 C 1.859375 -1.359375 1.773438 -1.300781 1.671875 -1.28125 L 1.671875 -1.265625 C 1.816406 -1.234375 1.921875 -1.171875 1.984375 -1.078125 C 2.054688 -0.984375 2.09375 -0.859375 2.09375 -0.703125 C 2.09375 -0.484375 2.015625 -0.3125 1.859375 -0.1875 C 1.703125 -0.0625 1.484375 0 1.203125 0 L 0.296875 0 Z M 0.8125 -1.46875 L 1.109375 -1.46875 C 1.253906 -1.46875 1.359375 -1.488281 1.421875 -1.53125 C 1.484375 -1.570312 1.515625 -1.640625 1.515625 -1.734375 C 1.515625 -1.828125 1.476562 -1.894531 1.40625 -1.9375 C 1.34375 -1.976562 1.238281 -2 1.09375 -2 L 0.8125 -2 Z M 0.8125 -1.046875 L 0.8125 -0.421875 L 1.15625 -0.421875 C 1.289062 -0.421875 1.390625 -0.445312 1.453125 -0.5 C 1.523438 -0.5625 1.5625 -0.644531 1.5625 -0.75 C 1.5625 -0.945312 1.421875 -1.046875 1.140625 -1.046875 Z M 0.8125 -1.046875 "/></g></g></g></g></g></g></svg>