<svg xmlns="http://www.w3.org/2000/svg" xmlns:xlink="http://www.w3.org/1999/xlink" width="200" zoomAndPan="magnify" viewBox="0 0 150 149.999998" height="200" preserveAspectRatio="xMidYMid meet" version="1.0"><defs><g/><clipPath id="ad397b60bf"><path d="M 4.265625 113 L 146 113 L 146 150 L 4.265625 150 Z M 4.265625 113 " clip-rule="nonzero"/></clipPath><clipPath id="bab20b58b3"><path d="M 6 1 L 8.320312 1 L 8.320312 5 L 6 5 Z M 6 1 " clip-rule="nonzero"/></clipPath><clipPath id="98f9f30f3c"><rect x="0" width="9" y="0" height="5"/></clipPath></defs><path fill="#fe8f78" d="M 109.621094 53.839844 C 109.386719 53.675781 109.140625 53.546875 108.839844 53.539062 C 106.910156 53.480469 106.980469 53.472656 106.851562 51.558594 C 106.734375 49.78125 106.890625 47.882812 105.980469 46.289062 C 104.167969 43.101562 102.816406 39.738281 101.648438 36.28125 C 101.457031 35.714844 101.253906 35.085938 100.523438 34.9375 C 100.421875 34.941406 100.324219 34.9375 100.226562 34.925781 C 97.558594 29.441406 93.578125 25.230469 87.976562 22.59375 C 87.027344 22.144531 86.09375 22.113281 85.070312 22.292969 C 81.742188 22.890625 78.367188 23.269531 75 22.960938 C 71.429688 22.632812 67.9375 22.800781 64.492188 23.6875 C 64.242188 23.5625 63.992188 23.421875 63.753906 23.253906 C 63.414062 23.195312 63.089844 23.289062 62.773438 23.378906 C 55.414062 25.492188 50.207031 29.824219 48.191406 37.449219 C 47.535156 39.929688 46.710938 42.359375 45.363281 44.554688 C 43.429688 47.695312 43.625 51.125 43.816406 54.574219 C 43.820312 54.601562 43.820312 54.632812 43.824219 54.660156 C 42.707031 54.496094 41.707031 54.039062 40.847656 53.261719 C 40.445312 53.925781 39.808594 53.558594 39.289062 53.578125 C 35.539062 53.699219 32.601562 55.238281 31.15625 58.765625 C 29.410156 63.011719 29.792969 67.21875 32.757812 70.816406 C 35.566406 74.234375 39.359375 75.507812 43.738281 74.589844 C 44.710938 74.382812 45.125 74.664062 45.421875 75.464844 C 47.347656 84.105469 51.703125 91.261719 58.574219 96.878906 C 59.082031 97.292969 59.722656 97.578125 59.972656 98.257812 C 60.832031 99.039062 61.871094 99.46875 62.957031 99.824219 C 65.757812 100.746094 68.617188 101.34375 71.558594 101.601562 C 78.28125 102.191406 84.644531 101.132812 90.546875 97.753906 C 90.898438 97.4375 91.234375 97.101562 91.601562 96.808594 C 99 90.945312 103.394531 83.269531 105.394531 74.136719 C 105.421875 72.097656 105.691406 70.074219 105.789062 68.039062 C 105.878906 66.246094 105.933594 64.441406 106.117188 62.652344 C 106.195312 61.910156 106.304688 61.089844 107.136719 60.742188 C 108.285156 60.261719 109.460938 59.90625 110.738281 60.171875 C 113.460938 60.742188 114.519531 62.800781 113.296875 65.285156 C 112.265625 67.390625 110.503906 68.574219 108.246094 69.089844 C 107.429688 69.273438 106.515625 69.300781 106.113281 70.261719 C 105.585938 71.511719 105.195312 72.765625 105.847656 74.097656 C 108.410156 75.523438 110.984375 75.296875 113.410156 73.875 C 116.535156 72.039062 118.171875 69.105469 119.019531 65.667969 C 120.449219 59.855469 117.195312 53.320312 109.617188 53.839844 Z M 109.621094 53.839844 " fill-opacity="1" fill-rule="nonzero"/><g clip-path="url(#ad397b60bf)"><path fill="#242424" d="M 100.460938 113.59375 C 107.152344 115.226562 113.769531 117.085938 120.074219 119.90625 C 126.269531 122.675781 132.089844 126.027344 136.957031 130.839844 C 141.875 135.695312 145 141.464844 145.769531 148.40625 C 145.871094 149.320312 146.015625 149.96875 144.605469 149.96875 C 98.449219 149.929688 52.300781 149.933594 6.144531 149.933594 C 4.265625 149.933594 4.308594 149.933594 4.511719 148.082031 C 5.402344 139.867188 9.550781 133.507812 15.785156 128.355469 C 22.898438 122.476562 31.21875 118.960938 39.921875 116.214844 C 43.230469 115.171875 46.609375 114.421875 49.96875 113.585938 C 50.890625 113.332031 51.550781 113.476562 52.042969 114.460938 C 54.449219 119.246094 58.207031 122.929688 62.085938 126.496094 C 63.164062 127.488281 64.3125 128.410156 65.5 129.277344 C 66.847656 130.261719 67.1875 130.246094 68.222656 129.015625 C 69.527344 127.457031 70.867188 125.921875 72.207031 124.390625 C 72.714844 123.808594 73.234375 123.285156 73.914062 122.925781 C 74.796875 122.5625 75.667969 122.496094 76.503906 123.039062 C 78.742188 124.675781 80.421875 126.863281 82.226562 128.921875 C 83.351562 130.203125 83.808594 130.269531 85.175781 129.207031 C 90.378906 125.164062 94.871094 120.488281 98.191406 114.757812 C 98.710938 113.863281 99.324219 113.25 100.457031 113.59375 Z M 100.460938 113.59375 " fill-opacity="1" fill-rule="nonzero"/></g><path fill="#242424" d="M 109.621094 53.839844 C 109.179688 54.011719 108.742188 54.195312 108.296875 54.359375 C 106.222656 55.132812 106.210938 55.128906 106.179688 52.964844 C 106.132812 49.710938 105.765625 46.601562 103.878906 43.746094 C 102.199219 41.203125 101.761719 38.074219 100.433594 35.34375 C 99.453125 34.765625 98.949219 33.78125 98.351562 32.882812 C 96.183594 29.613281 93.613281 26.742188 90.289062 24.597656 C 88.40625 23.382812 86.480469 22.761719 84.117188 23.152344 C 80.527344 23.746094 76.894531 24.042969 73.222656 23.5625 C 71.550781 23.34375 69.824219 23.464844 68.121094 23.730469 C 66.644531 23.960938 65.152344 24.519531 63.628906 23.925781 C 56.8125 25.640625 51.578125 29.207031 49.371094 36.222656 C 48.277344 39.710938 47.222656 43.199219 45.226562 46.316406 C 44.957031 46.738281 44.800781 47.289062 44.761719 47.789062 C 44.574219 50.097656 44.109375 52.386719 44.308594 54.71875 C 44.296875 55.140625 44.011719 55.292969 43.65625 55.320312 C 42.5 55.398438 41.144531 54.398438 40.847656 53.265625 C 38.027344 46.445312 37.398438 39.46875 39.378906 32.316406 C 40.082031 29.78125 41.269531 27.472656 42.925781 25.429688 C 43.34375 24.914062 43.417969 24.511719 43.144531 23.910156 C 42.679688 22.875 42.382812 21.785156 42.160156 20.664062 C 41.546875 17.59375 42.253906 14.933594 44.5 12.730469 C 45.410156 11.839844 46.402344 11.027344 47.355469 10.179688 C 48.945312 9.660156 50.152344 8.484375 51.617188 7.71875 C 56.183594 5.324219 61.101562 4.199219 66.09375 3.328125 C 76.277344 1.542969 86.234375 2.496094 95.921875 6.085938 C 99.402344 7.375 102.769531 8.9375 105.457031 11.597656 C 108.558594 14.664062 109.808594 18.191406 108.054688 22.433594 C 107.972656 22.632812 107.925781 22.886719 107.96875 23.125 C 107.046875 24.140625 107.375 24.914062 108.164062 25.957031 C 111.882812 30.871094 112.949219 36.558594 112.605469 42.570312 C 112.378906 46.523438 111.339844 50.277344 109.621094 53.84375 Z M 109.621094 53.839844 " fill-opacity="1" fill-rule="nonzero"/><path fill="#f66857" d="M 76.503906 123.589844 C 75.644531 123.136719 74.777344 123.148438 73.902344 123.558594 C 71.664062 122.664062 69.898438 121.046875 67.980469 119.664062 C 64.746094 117.328125 61.757812 114.703125 58.875 111.949219 C 57.769531 110.890625 56.886719 109.773438 57.976562 108.125 C 58.300781 107.640625 58.378906 106.949219 58.359375 106.335938 C 58.335938 105.371094 58.621094 104.578125 59.371094 103.960938 C 60.085938 103.03125 60.839844 103.628906 61.523438 103.964844 C 64.867188 105.617188 68.378906 106.71875 72.066406 107.261719 C 77.757812 108.09375 83.207031 107.359375 88.382812 104.78125 C 89.265625 104.34375 90.082031 103.734375 91.097656 103.589844 C 91.183594 103.804688 91.273438 104.015625 91.355469 104.226562 C 92.105469 104.828125 92.117188 105.730469 92.253906 106.550781 C 92.394531 107.394531 92.46875 108.242188 92.875 109.015625 C 93.183594 109.597656 92.972656 110.097656 92.648438 110.605469 C 91.84375 111.859375 90.730469 112.832031 89.644531 113.808594 C 86.054688 117.046875 82.242188 120.015625 78.28125 122.792969 C 77.742188 123.171875 77.234375 123.628906 76.503906 123.585938 Z M 76.503906 123.589844 " fill-opacity="1" fill-rule="nonzero"/><path fill="#ececec" d="M 59.378906 104.238281 C 58.90625 105.457031 59.445312 106.957031 58.773438 107.988281 C 57.441406 110.035156 58.894531 110.984375 60.046875 112.089844 C 63.925781 115.816406 68.183594 119.082031 72.589844 122.152344 C 73.125 122.519531 73.78125 122.796875 73.90625 123.558594 C 71.761719 125.777344 69.824219 128.171875 67.886719 130.5625 C 67.429688 131.125 67.085938 131.324219 66.394531 130.816406 C 61.015625 126.851562 56.148438 122.390625 52.492188 116.738281 C 52.007812 115.988281 51.542969 115.195312 51.246094 114.359375 C 51 113.660156 50.589844 113.523438 49.972656 113.582031 C 50.707031 113.328125 51.0625 112.839844 51.25 112.054688 C 51.847656 109.53125 52.851562 107.214844 54.871094 105.425781 C 55.695312 104.699219 56.515625 104.128906 57.644531 104.238281 C 58.558594 104.328125 59.070312 103.894531 59.363281 103.09375 C 59.757812 103.46875 59.625 103.851562 59.378906 104.238281 Z M 59.378906 104.238281 " fill-opacity="1" fill-rule="nonzero"/><path fill="#ececec" d="M 76.503906 123.589844 C 76.734375 122.832031 77.425781 122.535156 77.992188 122.128906 C 82.535156 118.863281 87.003906 115.511719 90.957031 111.527344 C 91.855469 110.617188 92.699219 109.859375 91.871094 108.273438 C 91.265625 107.117188 91.328125 105.609375 91.355469 104.226562 C 95.15625 104.25 97.679688 106.496094 98.847656 110.832031 C 99.128906 111.878906 99.046875 113.183594 100.460938 113.589844 C 99.804688 113.511719 99.484375 113.839844 99.167969 114.414062 C 95.511719 121.0625 90.3125 126.3125 84.257812 130.804688 C 83.46875 131.390625 83.128906 131.039062 82.652344 130.496094 C 80.617188 128.179688 78.558594 125.890625 76.507812 123.585938 Z M 76.503906 123.589844 " fill-opacity="1" fill-rule="nonzero"/><path fill="#f66857" d="M 59.378906 104.238281 L 59.363281 103.09375 C 59.566406 101.484375 59.769531 99.871094 59.972656 98.257812 C 61.488281 98.035156 62.675781 99.007812 64.011719 99.414062 C 72.429688 101.988281 80.644531 101.589844 88.714844 98.058594 C 89.277344 97.808594 89.832031 97.21875 90.550781 97.753906 C 90.464844 99.726562 91.242188 101.617188 91.101562 103.59375 C 91.023438 104.25 90.53125 104.492188 90.011719 104.777344 C 81.554688 109.410156 72.890625 109.210938 64.097656 105.875 C 63.039062 105.476562 62.023438 104.953125 60.996094 104.46875 C 60.476562 104.226562 59.972656 103.949219 59.382812 104.238281 Z M 59.378906 104.238281 " fill-opacity="1" fill-rule="nonzero"/><path fill="#242424" d="M 107.964844 23.121094 C 107.597656 22.695312 107.765625 22.230469 107.859375 21.765625 C 108.792969 17.179688 107.234375 13.328125 103.335938 10.671875 C 97.925781 6.992188 91.824219 5.167969 85.460938 4.019531 C 74.800781 2.097656 64.480469 3.527344 54.398438 7.171875 C 52.445312 7.875 50.527344 8.734375 48.757812 9.867188 C 48.355469 10.125 47.9375 10.609375 47.355469 10.175781 C 50.957031 6.65625 55.425781 4.714844 60.1875 3.457031 C 73.210938 0.0273438 86.042969 0.859375 98.640625 5.484375 C 101.636719 6.585938 104.410156 8.113281 106.78125 10.328125 C 110.457031 13.757812 110.78125 18.738281 107.964844 23.121094 Z M 107.964844 23.121094 " fill-opacity="1" fill-rule="nonzero"/><path fill="#f66857" d="M 105.394531 74.132812 C 104.78125 73.679688 104.710938 73.023438 104.757812 72.347656 C 105.035156 68.625 105.320312 64.902344 105.589844 61.183594 C 105.65625 60.28125 105.789062 59.808594 107.003906 59.839844 C 108.371094 59.871094 109.6875 59.0625 111.179688 59.484375 C 114.207031 60.339844 115.371094 62.660156 114.035156 65.46875 C 112.945312 67.757812 111.117188 69.296875 108.660156 69.699219 C 106.960938 69.976562 106.441406 70.894531 106.21875 72.308594 C 106.125 72.910156 106.230469 73.550781 105.851562 74.097656 C 105.699219 74.109375 105.542969 74.121094 105.394531 74.136719 Z M 105.394531 74.132812 " fill-opacity="1" fill-rule="nonzero"/><path fill="#f6f6f6" d="M 75.265625 80.265625 C 70.292969 80.269531 66.253906 77.59375 64.714844 73.265625 C 64.191406 71.804688 64.328125 71.550781 65.808594 71.542969 C 72.03125 71.515625 78.253906 71.53125 84.476562 71.480469 C 85.726562 71.46875 85.925781 71.910156 85.578125 73.019531 C 84.222656 77.40625 80.195312 80.265625 75.261719 80.269531 Z M 75.265625 80.265625 " fill-opacity="1" fill-rule="nonzero"/><path fill="#242424" d="M 86.792969 41.933594 C 89.925781 42.113281 93.242188 42.777344 96.058594 44.976562 C 97.550781 46.144531 98.644531 47.609375 99.074219 49.492188 C 99.417969 50.992188 98.539062 51.875 97.019531 51.589844 C 96.25 51.445312 95.644531 50.972656 95.007812 50.566406 C 90.984375 48 86.625 46.902344 81.859375 47.527344 C 80.945312 47.644531 79.976562 47.710938 79.53125 46.664062 C 79.113281 45.6875 79.46875 44.820312 80.160156 44.070312 C 81.40625 42.722656 83.726562 41.929688 86.792969 41.9375 Z M 86.792969 41.933594 " fill-opacity="1" fill-rule="nonzero"/><path fill="#242424" d="M 69.304688 47.535156 C 64.011719 46.746094 59.425781 48.050781 55.210938 50.917969 C 54.824219 51.179688 54.378906 51.402344 53.929688 51.519531 C 52.363281 51.917969 51.375 51.027344 51.675781 49.4375 C 52.023438 47.589844 53.046875 46.089844 54.550781 45 C 58.277344 42.289062 62.460938 41.394531 66.976562 42.242188 C 68.550781 42.535156 69.96875 43.269531 70.777344 44.761719 C 71.609375 46.285156 70.785156 47.609375 69.304688 47.539062 Z M 69.304688 47.535156 " fill-opacity="1" fill-rule="nonzero"/><path fill="#f66857" d="M 74.519531 51.292969 C 75.660156 51.214844 76.121094 51.789062 76.21875 52.886719 C 76.5 55.910156 77.128906 58.875 77.867188 61.816406 C 78.136719 62.886719 78.316406 63.953125 78.1875 65.050781 C 77.921875 67.277344 75.847656 68.324219 73.925781 67.226562 C 73.417969 66.347656 73.339844 65.472656 73.5625 64.445312 C 74.382812 60.660156 74.527344 56.820312 74.28125 52.960938 C 74.246094 52.394531 74.140625 51.804688 74.519531 51.292969 Z M 74.519531 51.292969 " fill-opacity="1" fill-rule="nonzero"/><path fill="#242424" d="M 86.941406 60.375 C 85.035156 60.375 83.484375 58.878906 83.4375 56.988281 C 83.394531 55.175781 85.023438 53.5625 86.898438 53.558594 C 88.796875 53.554688 90.394531 55.097656 90.394531 56.941406 C 90.398438 58.796875 88.8125 60.375 86.941406 60.375 Z M 86.941406 60.375 " fill-opacity="1" fill-rule="nonzero"/><path fill="#242424" d="M 63.597656 60.351562 C 61.691406 60.332031 60.199219 58.777344 60.242188 56.867188 C 60.289062 55.03125 61.914062 53.515625 63.800781 53.554688 C 65.695312 53.589844 67.113281 55.015625 67.113281 56.882812 C 67.113281 58.871094 65.589844 60.371094 63.59375 60.351562 Z M 63.597656 60.351562 " fill-opacity="1" fill-rule="nonzero"/><path fill="#f66857" d="M 74.519531 51.292969 C 75.039062 55.441406 74.90625 59.585938 74.300781 63.710938 C 74.132812 64.878906 73.851562 66.03125 73.929688 67.226562 C 72.855469 66.601562 72.636719 65.652344 72.902344 64.527344 C 73.832031 60.625 74.289062 56.6875 73.742188 52.679688 C 73.648438 52.027344 73.972656 51.59375 74.523438 51.296875 Z M 74.519531 51.292969 " fill-opacity="1" fill-rule="nonzero"/><path fill="#f66857" d="M 44.1875 56.277344 C 44.488281 62.066406 44.785156 67.855469 45.105469 74.039062 C 44.027344 72.949219 44.351562 71.949219 44.300781 71.089844 C 44.230469 69.871094 43.855469 69.480469 42.621094 69.871094 C 38.664062 71.121094 34.386719 65.917969 34.886719 62.648438 C 35.132812 61.035156 36.539062 59.769531 38.347656 59.566406 C 39.6875 59.417969 41.003906 59.523438 42.238281 60.144531 C 43.320312 60.6875 43.695312 60.25 43.695312 59.148438 C 43.695312 58.191406 43.558594 57.210938 43.824219 56.273438 C 43.941406 56.273438 44.0625 56.273438 44.183594 56.273438 Z M 44.1875 56.277344 " fill-opacity="1" fill-rule="nonzero"/><g transform="matrix(1, 0, 0, 1, 74, 145)"><g clip-path="url(#98f9f30f3c)"><g fill="#58677e" fill-opacity="1"><g transform="translate(0.999997, 4.067974)"><g><path d="M 2.5 -1.21875 C 2.5 -0.925781 2.445312 -0.679688 2.34375 -0.484375 C 2.25 -0.296875 2.101562 -0.160156 1.90625 -0.078125 L 2.484375 0.578125 L 1.828125 0.578125 L 1.390625 0.03125 L 1.34375 0.03125 C 0.976562 0.03125 0.695312 -0.0703125 0.5 -0.28125 C 0.300781 -0.5 0.203125 -0.8125 0.203125 -1.21875 C 0.203125 -1.625 0.300781 -1.929688 0.5 -2.140625 C 0.695312 -2.347656 0.984375 -2.453125 1.359375 -2.453125 C 1.722656 -2.453125 2.003906 -2.34375 2.203125 -2.125 C 2.398438 -1.914062 2.5 -1.613281 2.5 -1.21875 Z M 0.734375 -1.21875 C 0.734375 -0.945312 0.785156 -0.738281 0.890625 -0.59375 C 0.992188 -0.457031 1.144531 -0.390625 1.34375 -0.390625 C 1.757812 -0.390625 1.96875 -0.664062 1.96875 -1.21875 C 1.96875 -1.757812 1.765625 -2.03125 1.359375 -2.03125 C 1.148438 -2.03125 0.992188 -1.960938 0.890625 -1.828125 C 0.785156 -1.691406 0.734375 -1.488281 0.734375 -1.21875 Z M 0.734375 -1.21875 "/></g></g></g><g fill="#58677e" fill-opacity="1"><g transform="translate(3.694763, 4.067974)"><g><path d="M 1.78125 0 L 1.609375 -0.578125 L 0.734375 -0.578125 L 0.546875 0 L 0 0 L 0.859375 -2.4375 L 1.484375 -2.4375 L 2.34375 0 Z M 1.484375 -1 C 1.328125 -1.53125 1.238281 -1.828125 1.21875 -1.890625 C 1.195312 -1.960938 1.179688 -2.015625 1.171875 -2.046875 C 1.128906 -1.910156 1.023438 -1.5625 0.859375 -1 Z M 1.484375 -1 "/></g></g></g><g clip-path="url(#bab20b58b3)"><g fill="#58677e" fill-opacity="1"><g transform="translate(6.030779, 4.067974)"><g><path d="M 0.296875 -2.421875 L 1.0625 -2.421875 C 1.40625 -2.421875 1.648438 -2.367188 1.796875 -2.265625 C 1.953125 -2.171875 2.03125 -2.019531 2.03125 -1.8125 C 2.03125 -1.664062 1.992188 -1.546875 1.921875 -1.453125 C 1.859375 -1.359375 1.773438 -1.300781 1.671875 -1.28125 L 1.671875 -1.265625 C 1.816406 -1.234375 1.921875 -1.171875 1.984375 -1.078125 C 2.054688 -0.984375 2.09375 -0.859375 2.09375 -0.703125 C 2.09375 -0.484375 2.015625 -0.3125 1.859375 -0.1875 C 1.703125 -0.0625 1.484375 0 1.203125 0 L 0.296875 0 Z M 0.8125 -1.46875 L 1.109375 -1.46875 C 1.253906 -1.46875 1.359375 -1.488281 1.421875 -1.53125 C 1.484375 -1.570312 1.515625 -1.640625 1.515625 -1.734375 C 1.515625 -1.828125 1.476562 -1.894531 1.40625 -1.9375 C 1.34375 -1.976562 1.238281 -2 1.09375 -2 L 0.8125 -2 Z M 0.8125 -1.046875 L 0.8125 -0.421875 L 1.15625 -0.421875 C 1.289062 -0.421875 1.390625 -0.445312 1.453125 -0.5 C 1.523438 -0.5625 1.5625 -0.644531 1.5625 -0.75 C 1.5625 -0.945312 1.421875 -1.046875 1.140625 -1.046875 Z M 0.8125 -1.046875 "/></g></g></g></g></g></g></svg>