<svg xmlns="http://www.w3.org/2000/svg" xmlns:xlink="http://www.w3.org/1999/xlink" width="200" zoomAndPan="magnify" viewBox="0 0 150 149.999998" height="200" preserveAspectRatio="xMidYMid meet" version="1.0"><defs><g/><clipPath id="d535633a61"><path d="M 24.09375 110 L 133.59375 110 L 133.59375 150 L 24.09375 150 Z M 24.09375 110 " clip-rule="nonzero"/></clipPath><clipPath id="5a70ec632c"><path d="M 6 1 L 8.320312 1 L 8.320312 5 L 6 5 Z M 6 1 " clip-rule="nonzero"/></clipPath><clipPath id="7809c58514"><rect x="0" width="9" y="0" height="5"/></clipPath></defs><path fill="#100f0d" d="M 54.214844 46.363281 C 54.214844 50.878906 57.890625 54.546875 62.421875 54.546875 C 66.957031 54.546875 70.632812 50.878906 70.632812 46.363281 L 70.632812 40.910156 L 54.214844 40.910156 L 54.214844 46.363281 " fill-opacity="1" fill-rule="nonzero"/><path fill="#100f0d" d="M 54.214844 58.828125 C 54.214844 62.34375 54.683594 65.839844 55.570312 69.214844 L 60.59375 65.453125 C 62.949219 63.695312 65.867188 62.726562 68.804688 62.726562 L 70.675781 62.726562 C 70.675781 62.632812 70.644531 62.523438 70.65625 62.429688 L 71.296875 56.664062 C 68.902344 58.710938 65.824219 60 62.421875 60 C 59.335938 60 56.511719 58.933594 54.214844 57.199219 L 54.214844 58.828125 " fill-opacity="1" fill-rule="nonzero"/><path fill="#100f0d" d="M 103.472656 32.632812 C 90.078125 31.671875 82.808594 23.808594 79.21875 17.984375 C 73.421875 28.464844 59.578125 33.300781 54.214844 34.835938 L 54.214844 35.453125 L 103.472656 35.453125 L 103.472656 32.632812 " fill-opacity="1" fill-rule="nonzero"/><path fill="#100f0d" d="M 103.472656 40.910156 L 87.054688 40.910156 L 87.054688 46.363281 C 87.054688 50.878906 90.730469 54.546875 95.261719 54.546875 C 99.796875 54.546875 103.472656 50.878906 103.472656 46.363281 L 103.472656 40.910156 " fill-opacity="1" fill-rule="nonzero"/><path fill="#100f0d" d="M 111.683594 62.34375 C 110.804688 62.566406 109.898438 62.726562 108.945312 62.726562 L 108.765625 62.726562 C 108.167969 69.769531 105.976562 76.597656 102.320312 82.679688 L 97.902344 90 L 98 90 L 98 101.589844 C 98 102.945312 99.027344 104.105469 100.375 104.285156 L 122.425781 107.226562 C 123.347656 107.34375 124.242188 107.546875 125.121094 107.800781 C 124.523438 102.59375 122.789062 97.574219 119.980469 93.109375 L 117.90625 89.785156 C 113.832031 83.300781 111.683594 75.832031 111.683594 68.183594 L 111.683594 62.34375 " fill-opacity="1" fill-rule="nonzero"/><path fill="#100f0d" d="M 88.882812 62.726562 C 91.820312 62.726562 94.738281 63.695312 97.089844 65.453125 L 102.117188 69.214844 C 103.003906 65.839844 103.472656 62.34375 103.472656 58.828125 L 103.472656 57.199219 C 101.175781 58.933594 98.351562 60 95.261719 60 C 87.714844 60 81.578125 53.886719 81.578125 46.363281 L 81.578125 40.910156 L 78.554688 40.910156 L 76.425781 60 L 81.578125 60 L 81.578125 62.726562 L 88.882812 62.726562 " fill-opacity="1" fill-rule="nonzero"/><path fill="#100f0d" d="M 48.742188 38.183594 L 48.742188 32.726562 C 48.742188 31.449219 49.628906 30.339844 50.878906 30.0625 C 51.113281 30.011719 73.746094 24.800781 76.148438 10.460938 C 76.351562 9.203125 77.410156 8.257812 78.695312 8.191406 C 79.976562 8.140625 81.121094 8.9375 81.472656 10.164062 C 81.675781 10.84375 86.734375 27.273438 106.210938 27.273438 C 107.71875 27.273438 108.945312 28.496094 108.945312 30 L 108.945312 40.910156 C 109.898438 40.910156 110.804688 41.070312 111.683594 41.292969 L 111.683594 32.726562 C 111.683594 14.679688 96.953125 0 78.84375 0 C 60.734375 0 46.003906 14.679688 46.003906 32.726562 L 46.003906 41.292969 C 46.878906 41.070312 47.789062 40.910156 48.742188 40.910156 L 48.742188 38.183594 " fill-opacity="1" fill-rule="nonzero"/><path fill="#100f0d" d="M 57.3125 104.285156 C 58.660156 104.105469 59.6875 102.945312 59.6875 101.589844 L 59.6875 90 L 59.78125 90 L 55.367188 82.679688 C 51.710938 76.597656 49.519531 69.769531 48.921875 62.726562 L 48.742188 62.726562 C 47.789062 62.726562 46.878906 62.566406 46.003906 62.34375 L 46.003906 68.183594 C 46.003906 75.832031 43.855469 83.300781 39.78125 89.785156 L 37.707031 93.101562 C 34.898438 97.574219 33.164062 102.59375 32.566406 107.800781 C 33.441406 107.546875 34.339844 107.34375 35.261719 107.226562 L 57.3125 104.285156 " fill-opacity="1" fill-rule="nonzero"/><g clip-path="url(#d535633a61)"><path fill="#100f0d" d="M 121.699219 112.628906 L 104.722656 110.371094 L 104.242188 111.488281 C 99.890625 121.628906 89.917969 128.183594 78.84375 128.183594 C 67.769531 128.183594 57.792969 121.628906 53.445312 111.488281 L 52.960938 110.371094 L 35.988281 112.628906 C 29.210938 113.535156 24.109375 119.339844 24.109375 126.148438 L 24.109375 150 L 133.578125 150 L 133.578125 126.148438 C 133.578125 119.339844 128.476562 113.535156 121.699219 112.628906 " fill-opacity="1" fill-rule="nonzero"/></g><path fill="#100f0d" d="M 48.742188 57.273438 L 48.742188 46.363281 C 45.726562 46.363281 43.265625 48.8125 43.265625 51.816406 C 43.265625 54.824219 45.726562 57.273438 48.742188 57.273438 " fill-opacity="1" fill-rule="nonzero"/><path fill="#100f0d" d="M 108.945312 57.273438 C 111.960938 57.273438 114.417969 54.824219 114.417969 51.816406 C 114.417969 48.8125 111.960938 46.363281 108.945312 46.363281 L 108.945312 57.273438 " fill-opacity="1" fill-rule="nonzero"/><path fill="#100f0d" d="M 70.632812 73.636719 L 87.054688 73.636719 L 87.054688 79.089844 L 70.632812 79.089844 Z M 64.613281 87.421875 C 67.597656 92.375 73.050781 95.453125 78.84375 95.453125 C 84.636719 95.453125 90.089844 92.375 93.070312 87.421875 L 97.625 79.867188 C 98.628906 78.183594 99.507812 76.4375 100.265625 74.648438 L 93.796875 69.8125 C 92.386719 68.769531 90.644531 68.183594 88.882812 68.183594 L 68.804688 68.183594 C 67.042969 68.183594 65.300781 68.769531 63.886719 69.8125 L 57.421875 74.648438 C 58.179688 76.4375 59.054688 78.183594 60.0625 79.867188 L 64.613281 87.421875 " fill-opacity="1" fill-rule="nonzero"/><path fill="#100f0d" d="M 78.84375 122.726562 C 87.628906 122.726562 95.542969 117.558594 99.101562 109.570312 C 95.316406 108.792969 92.527344 105.480469 92.527344 101.589844 L 92.527344 96.113281 C 88.679688 99.152344 83.867188 100.910156 78.84375 100.910156 C 73.820312 100.910156 69.007812 99.152344 65.160156 96.113281 L 65.160156 101.589844 C 65.160156 105.480469 62.371094 108.792969 58.585938 109.570312 C 62.144531 117.558594 70.054688 122.726562 78.84375 122.726562 " fill-opacity="1" fill-rule="nonzero"/><g transform="matrix(1, 0, 0, 1, 74, 145)"><g clip-path="url(#7809c58514)"><g fill="#58677e" fill-opacity="1"><g transform="translate(0.999997, 4.067974)"><g><path d="M 2.5 -1.21875 C 2.5 -0.925781 2.445312 -0.679688 2.34375 -0.484375 C 2.25 -0.296875 2.101562 -0.160156 1.90625 -0.078125 L 2.484375 0.578125 L 1.828125 0.578125 L 1.390625 0.03125 L 1.34375 0.03125 C 0.976562 0.03125 0.695312 -0.0703125 0.5 -0.28125 C 0.300781 -0.5 0.203125 -0.8125 0.203125 -1.21875 C 0.203125 -1.625 0.300781 -1.929688 0.5 -2.140625 C 0.695312 -2.347656 0.984375 -2.453125 1.359375 -2.453125 C 1.722656 -2.453125 2.003906 -2.34375 2.203125 -2.125 C 2.398438 -1.914062 2.5 -1.613281 2.5 -1.21875 Z M 0.734375 -1.21875 C 0.734375 -0.945312 0.785156 -0.738281 0.890625 -0.59375 C 0.992188 -0.457031 1.144531 -0.390625 1.34375 -0.390625 C 1.757812 -0.390625 1.96875 -0.664062 1.96875 -1.21875 C 1.96875 -1.757812 1.765625 -2.03125 1.359375 -2.03125 C 1.148438 -2.03125 0.992188 -1.960938 0.890625 -1.828125 C 0.785156 -1.691406 0.734375 -1.488281 0.734375 -1.21875 Z M 0.734375 -1.21875 "/></g></g></g><g fill="#58677e" fill-opacity="1"><g transform="translate(3.694763, 4.067974)"><g><path d="M 1.78125 0 L 1.609375 -0.578125 L 0.734375 -0.578125 L 0.546875 0 L 0 0 L 0.859375 -2.4375 L 1.484375 -2.4375 L 2.34375 0 Z M 1.484375 -1 C 1.328125 -1.53125 1.238281 -1.828125 1.21875 -1.890625 C 1.195312 -1.960938 1.179688 -2.015625 1.171875 -2.046875 C 1.128906 -1.910156 1.023438 -1.5625 0.859375 -1 Z M 1.484375 -1 "/></g></g></g><g clip-path="url(#5a70ec632c)"><g fill="#58677e" fill-opacity="1"><g transform="translate(6.030779, 4.067974)"><g><path d="M 0.296875 -2.421875 L 1.0625 -2.421875 C 1.40625 -2.421875 1.648438 -2.367188 1.796875 -2.265625 C 1.953125 -2.171875 2.03125 -2.019531 2.03125 -1.8125 C 2.03125 -1.664062 1.992188 -1.546875 1.921875 -1.453125 C 1.859375 -1.359375 1.773438 -1.300781 1.671875 -1.28125 L 1.671875 -1.265625 C 1.816406 -1.234375 1.921875 -1.171875 1.984375 -1.078125 C 2.054688 -0.984375 2.09375 -0.859375 2.09375 -0.703125 C 2.09375 -0.484375 2.015625 -0.3125 1.859375 -0.1875 C 1.703125 -0.0625 1.484375 0 1.203125 0 L 0.296875 0 Z M 0.8125 -1.46875 L 1.109375 -1.46875 C 1.253906 -1.46875 1.359375 -1.488281 1.421875 -1.53125 C 1.484375 -1.570312 1.515625 -1.640625 1.515625 -1.734375 C 1.515625 -1.828125 1.476562 -1.894531 1.40625 -1.9375 C 1.34375 -1.976562 1.238281 -2 1.09375 -2 L 0.8125 -2 Z M 0.8125 -1.046875 L 0.8125 -0.421875 L 1.15625 -0.421875 C 1.289062 -0.421875 1.390625 -0.445312 1.453125 -0.5 C 1.523438 -0.5625 1.5625 -0.644531 1.5625 -0.75 C 1.5625 -0.945312 1.421875 -1.046875 1.140625 -1.046875 Z M 0.8125 -1.046875 "/></g></g></g></g></g></g></svg>