<svg xmlns="http://www.w3.org/2000/svg" xmlns:xlink="http://www.w3.org/1999/xlink" width="200" zoomAndPan="magnify" viewBox="0 0 150 149.999998" height="200" preserveAspectRatio="xMidYMid meet" version="1.0"><defs><g/><clipPath id="6373a3d081"><path d="M 10.421875 19 L 139.421875 19 L 139.421875 131 L 10.421875 131 Z M 10.421875 19 " clip-rule="nonzero"/></clipPath><clipPath id="c3971f436a"><path d="M 6 1 L 8.320312 1 L 8.320312 5 L 6 5 Z M 6 1 " clip-rule="nonzero"/></clipPath><clipPath id="fb65febaa3"><rect x="0" width="9" y="0" height="5"/></clipPath></defs><path fill="#b9dc32" d="M 27.585938 125.125 C 27.246094 126.109375 26.324219 127.425781 23.898438 128.285156 C 23.039062 128.59375 22.179688 128.746094 21.320312 128.746094 C 18.863281 128.746094 16.714844 127.398438 15.238281 124.972656 C 14.808594 124.234375 14.410156 123.46875 14.011719 122.730469 C 13.828125 122.394531 13.796875 122.085938 13.765625 121.871094 C 13.765625 121.78125 13.765625 121.6875 13.734375 121.597656 L 13.457031 119.726562 L 15.300781 120.246094 C 16.160156 120.492188 17.019531 120.613281 17.820312 120.613281 C 19.660156 120.613281 21.472656 119.96875 23.285156 118.679688 L 24.144531 118.066406 L 24.882812 118.804688 C 25.035156 118.957031 25.21875 119.109375 25.433594 119.296875 C 25.957031 119.753906 26.539062 120.246094 26.9375 120.953125 C 28.015625 122.792969 27.890625 124.234375 27.585938 125.125 Z M 124.132812 83.757812 C 123.886719 86.734375 123.394531 90.203125 121.953125 93.519531 C 121.582031 94.347656 121.214844 95.207031 120.878906 96.035156 C 120.078125 97.90625 119.28125 99.839844 118.296875 101.679688 C 117.253906 103.582031 115.871094 105.515625 114.089844 107.542969 C 112.492188 109.382812 110.558594 111.53125 108.316406 113.28125 C 104.96875 115.890625 100.976562 118.3125 96.464844 120.460938 C 94.957031 121.167969 93.269531 121.75 91.425781 122.148438 C 86.730469 123.191406 81.816406 123.683594 76.441406 123.683594 C 76.105469 123.683594 75.765625 123.683594 75.457031 123.683594 C 71.34375 123.621094 67.566406 123.375 63.851562 122.976562 C 59.582031 122.488281 55.714844 121.320312 51.414062 119.96875 C 48.464844 119.019531 45.488281 117.699219 42.570312 116.074219 C 38.332031 113.585938 33.113281 109.9375 30.378906 103.765625 C 29.824219 102.570312 29.582031 101.28125 29.304688 100.023438 C 29.179688 99.441406 29.058594 98.859375 28.90625 98.304688 L 28.476562 96.648438 L 30.195312 96.769531 C 30.226562 96.769531 30.226562 96.769531 30.253906 96.769531 C 30.316406 96.769531 30.410156 96.769531 30.472656 96.769531 C 30.59375 96.769531 30.6875 96.769531 30.777344 96.769531 C 31.085938 96.769531 31.546875 96.800781 31.976562 97.109375 C 32.25 97.324219 32.558594 97.414062 33.019531 97.414062 C 33.296875 97.414062 33.601562 97.382812 33.941406 97.355469 C 34.21875 97.324219 34.492188 97.292969 34.769531 97.292969 L 35.628906 97.261719 L 36 98.027344 C 36.027344 98.089844 36.027344 98.121094 36.058594 98.183594 C 36.152344 98.367188 36.242188 98.582031 36.335938 98.886719 C 37.074219 101.527344 38.453125 103.582031 40.480469 104.964844 C 44.503906 107.757812 49.203125 109.261719 54.824219 109.566406 C 55.253906 109.597656 55.714844 109.597656 56.144531 109.597656 C 59.582031 109.597656 62.714844 108.921875 65.480469 107.601562 C 66.523438 107.144531 68.273438 106.007812 68.582031 103.890625 C 68.980469 101.160156 67.90625 98.917969 65.234375 96.984375 C 63.726562 95.910156 61.945312 95.359375 59.828125 95.359375 C 58.722656 95.359375 57.554688 95.480469 56.113281 95.757812 C 54.824219 96.003906 53.316406 96.28125 51.78125 96.28125 C 50.0625 96.28125 48.527344 95.941406 47.113281 95.265625 C 46.714844 95.082031 46.347656 94.898438 45.949219 94.714844 C 45.734375 94.621094 45.519531 94.5 45.273438 94.40625 C 43.828125 93.734375 42.355469 93.027344 40.941406 93.027344 C 40.265625 93.027344 39.621094 93.179688 38.976562 93.519531 L 37.871094 94.070312 L 37.320312 92.964844 C 37.257812 92.8125 37.164062 92.660156 37.105469 92.503906 C 36.859375 92.015625 36.613281 91.523438 36.367188 90.972656 L 35.84375 89.867188 L 36.949219 89.34375 C 37.964844 88.882812 39.007812 88.421875 40.050781 87.964844 C 40.636719 87.71875 41.21875 87.503906 41.800781 87.257812 C 42.785156 86.859375 43.796875 86.460938 44.75 86.0625 C 46.164062 85.445312 47.605469 84.773438 48.957031 84.128906 C 49.664062 83.789062 50.371094 83.484375 51.046875 83.144531 C 51.261719 83.023438 51.476562 82.898438 51.722656 82.746094 C 51.875 82.65625 52.058594 82.53125 52.210938 82.441406 C 52.242188 82.410156 52.273438 82.410156 52.304688 82.378906 C 52.613281 82.195312 53.042969 81.886719 53.59375 81.886719 C 53.65625 81.886719 53.71875 81.886719 53.777344 81.886719 L 53.902344 81.886719 C 54.269531 81.980469 54.636719 82.039062 55.039062 82.101562 C 56.359375 82.347656 57.710938 82.59375 58.9375 83.238281 C 60.964844 84.28125 62.867188 85.570312 64.710938 86.796875 C 65.171875 87.105469 65.664062 87.441406 66.125 87.71875 C 66.585938 87.992188 67.015625 88.332031 67.445312 88.636719 C 67.875 88.945312 68.273438 89.222656 68.671875 89.496094 C 71.191406 91.125 73.769531 92.75 76.289062 94.316406 L 77.761719 95.238281 L 76.410156 96.308594 C 76.195312 96.464844 76.011719 96.648438 75.796875 96.800781 C 75.121094 97.324219 74.445312 97.875 73.707031 98.429688 C 73.15625 98.828125 72.941406 99.316406 73.003906 100.054688 C 73.125 102.171875 73.984375 103.738281 75.703125 104.996094 C 77.238281 106.101562 78.714844 106.652344 80.097656 106.652344 C 80.585938 106.652344 81.109375 106.589844 81.601562 106.4375 C 84.210938 105.671875 85.929688 104.105469 86.699219 101.804688 L 86.914062 101.191406 L 87.527344 101.003906 C 87.835938 100.914062 88.109375 100.789062 88.203125 100.054688 C 88.785156 96.648438 89.402344 93.210938 89.984375 89.867188 C 90.292969 88.179688 90.597656 86.460938 90.875 84.773438 C 91.183594 83.023438 91.457031 81.273438 91.765625 79.523438 C 92.347656 76.085938 92.960938 72.527344 93.546875 69.027344 C 93.851562 67.097656 94.128906 65.101562 94.375 63.167969 C 94.46875 62.460938 94.558594 61.726562 94.652344 61.019531 C 94.988281 58.71875 95.328125 56.355469 95.632812 54.023438 C 95.664062 53.714844 95.726562 53.285156 95.726562 52.980469 L 95.726562 52.917969 C 95.726562 52.425781 95.480469 52.121094 95.113281 52.121094 C 94.988281 52.121094 94.867188 52.152344 94.742188 52.210938 C 94.222656 52.457031 93.636719 52.855469 92.933594 53.441406 C 92.074219 54.144531 91.210938 54.914062 90.382812 55.617188 C 88.941406 56.878906 87.464844 58.164062 85.898438 59.394531 C 83.6875 61.113281 81.417969 62.832031 79.207031 64.457031 C 78.101562 65.285156 76.964844 66.113281 75.859375 66.941406 C 75.152344 67.464844 74.476562 67.984375 73.769531 68.507812 C 72.386719 69.550781 70.976562 70.625 69.5625 71.636719 C 68.640625 72.3125 67.691406 72.957031 66.800781 73.570312 C 65.753906 74.277344 64.679688 75.011719 63.636719 75.78125 C 62.777344 76.394531 61.976562 77.070312 61.117188 77.773438 C 60.839844 78.019531 60.535156 78.234375 60.257812 78.480469 C 59.304688 79.25 58.324219 80.015625 57.339844 80.78125 C 57.15625 80.90625 56.542969 81.304688 55.835938 81.304688 C 51.75 81.242188 48.863281 79.832031 46.714844 76.945312 C 44.71875 74.308594 42.445312 71.761719 40.234375 69.273438 C 39.621094 68.570312 38.976562 67.894531 38.363281 67.1875 C 37.625 66.359375 36.828125 65.53125 36.027344 64.765625 C 35.351562 64.089844 34.679688 63.414062 34.003906 62.707031 C 33.171875 61.785156 32.3125 60.742188 31.421875 59.515625 C 30.960938 58.871094 30.902344 57.921875 31.054688 57.308594 C 31.851562 53.441406 32.925781 50.28125 34.433594 47.363281 L 34.863281 46.535156 L 35.785156 46.71875 C 36.058594 46.78125 36.335938 46.84375 36.613281 46.871094 C 37.410156 47.027344 38.210938 47.179688 39.007812 47.457031 C 39.746094 47.703125 40.390625 48.070312 41.035156 48.4375 C 41.097656 48.46875 41.125 48.5 41.1875 48.53125 C 41.25 48.4375 41.28125 48.347656 41.28125 48.253906 C 41.28125 48.007812 41.035156 47.824219 40.882812 47.730469 C 39.621094 47.027344 38.300781 46.414062 36.917969 45.738281 L 36.828125 45.675781 L 35.445312 45.03125 L 36.367188 43.835938 C 38.394531 41.195312 41.035156 39.292969 44.441406 37.941406 C 46.347656 37.207031 48.433594 36.898438 51.167969 36.898438 C 51.8125 36.898438 52.519531 36.929688 53.410156 36.960938 C 58.660156 37.144531 64.097656 37.328125 69.441406 37.636719 C 71.464844 37.726562 73.492188 37.941406 75.488281 38.15625 C 76.472656 38.25 77.484375 38.371094 78.5 38.464844 C 80.3125 38.617188 82.121094 38.773438 83.875 38.894531 C 84.734375 38.957031 85.59375 39.015625 86.453125 39.109375 C 87.21875 39.171875 87.988281 39.199219 88.753906 39.261719 C 90.320312 39.355469 91.917969 39.414062 93.515625 39.691406 C 95.082031 39.9375 96.617188 40.398438 98.089844 40.859375 C 98.796875 41.074219 99.503906 41.289062 100.210938 41.472656 C 103.28125 42.332031 106.230469 43.804688 109.269531 45.984375 C 112.921875 48.621094 115.6875 51.597656 117.683594 55.160156 C 117.992188 55.710938 118.328125 56.292969 118.664062 56.847656 C 119.402344 58.105469 120.171875 59.394531 120.847656 60.773438 C 121.550781 62.246094 122.105469 63.8125 122.597656 65.316406 L 122.78125 65.898438 C 122.996094 66.511719 122.933594 67.125 122.902344 67.648438 C 122.902344 67.742188 122.902344 67.832031 122.875 67.925781 C 122.84375 68.414062 122.902344 68.539062 123.148438 68.816406 C 124.070312 69.796875 124.253906 71.363281 124.285156 72.25 C 124.285156 72.835938 124.316406 73.449219 124.347656 74.03125 C 124.285156 77.253906 124.378906 80.535156 124.132812 83.757812 Z M 76.65625 47.117188 C 76.410156 47.085938 76.132812 47.085938 75.890625 47.085938 C 74.628906 47.085938 73.339844 47.394531 71.957031 48.007812 C 70.882812 48.5 69.808594 49.265625 68.796875 49.972656 L 68.425781 50.25 C 68.304688 50.339844 68.210938 50.433594 68.179688 50.464844 C 68.304688 50.648438 68.363281 50.648438 68.394531 50.648438 C 68.425781 50.648438 68.582031 50.648438 68.796875 50.523438 L 68.824219 50.523438 C 69.070312 50.402344 69.316406 50.25 69.5625 50.09375 C 69.746094 49.972656 69.960938 49.851562 70.175781 49.726562 C 70.484375 49.574219 70.792969 49.390625 71.097656 49.207031 C 71.988281 48.683594 72.941406 48.132812 73.984375 47.886719 L 74.046875 47.855469 C 74.722656 47.703125 75.488281 47.515625 76.320312 47.515625 C 77.363281 47.515625 78.253906 47.792969 79.050781 48.375 C 79.851562 48.960938 80.710938 49.449219 81.601562 50.003906 C 80.21875 48.191406 78.621094 47.300781 76.65625 47.117188 Z M 32.128906 109.964844 C 31.578125 108.554688 31.054688 107.113281 30.5625 105.699219 C 29.949219 103.980469 29.304688 102.234375 28.628906 100.484375 C 28.167969 99.285156 27.308594 97.570312 25.558594 96.679688 L 25.035156 96.402344 L 24.511719 96.648438 C 21.871094 97.875 20.796875 99.992188 21.472656 102.601562 C 21.8125 103.828125 22.425781 104.933594 23.039062 106.007812 C 23.160156 106.191406 23.253906 106.375 23.378906 106.558594 C 23.808594 107.328125 23.960938 107.789062 23.867188 108.21875 C 23.191406 107.972656 22.488281 107.847656 21.6875 107.847656 C 21.042969 107.847656 20.335938 107.941406 19.476562 108.125 C 16.34375 108.738281 13.058594 110.027344 12.414062 114.753906 C 12.078125 117.394531 13.089844 119.019531 15.453125 119.511719 C 16.34375 119.695312 17.234375 119.785156 18.15625 119.785156 C 18.585938 119.785156 19.046875 119.753906 19.476562 119.726562 C 21.257812 119.601562 22.425781 118.679688 22.578125 117.269531 L 22.640625 116.75 L 22.332031 116.347656 C 21.964844 115.890625 21.503906 115.613281 20.949219 115.488281 C 21.074219 115.488281 21.226562 115.488281 21.351562 115.460938 L 21.597656 115.460938 C 22.488281 115.460938 23.070312 115.859375 23.347656 116.625 C 23.835938 117.882812 24.667969 118.652344 25.496094 119.265625 C 28.445312 121.445312 28.8125 122.546875 27.890625 126.078125 L 27.613281 127.121094 L 28.628906 127.519531 C 29.242188 127.765625 29.855469 127.855469 30.53125 127.855469 C 34.003906 127.855469 37.042969 124.726562 37.625 120.585938 L 37.6875 120.0625 L 37.378906 119.664062 C 35.324219 116.964844 33.542969 113.679688 32.128906 109.964844 Z M 32.128906 109.964844 " fill-opacity="1" fill-rule="nonzero"/><path fill="#fa9b73" d="M 87.804688 102.265625 C 86.851562 105.179688 84.609375 106.898438 81.878906 107.695312 C 79.421875 108.433594 77.023438 107.601562 74.90625 106.070312 C 72.878906 104.597656 71.835938 102.664062 71.710938 100.207031 C 71.652344 99.101562 71.988281 98.183594 72.910156 97.507812 C 73.832031 96.832031 74.691406 96.125 75.582031 95.421875 C 79.050781 97.539062 82.492188 99.6875 85.992188 101.773438 C 86.542969 102.078125 87.21875 102.109375 87.804688 102.265625 Z M 29.671875 92.320312 C 29.824219 94.222656 29.949219 96.125 30.101562 98.027344 C 30.5 98.058594 30.992188 97.9375 31.238281 98.121094 C 32.375 99.011719 33.632812 98.613281 34.863281 98.550781 C 34.832031 98.367188 34.832031 98.152344 34.800781 97.96875 C 34.554688 94.46875 34.832031 94.070312 38.023438 92.75 C 38.148438 92.6875 38.269531 92.597656 38.394531 92.535156 C 38.085938 91.859375 37.75 91.214844 37.441406 90.542969 C 34.921875 91.09375 32.40625 91.675781 29.671875 92.320312 Z M 29.671875 92.320312 " fill-opacity="1" fill-rule="nonzero"/><path fill="#fadc32" d="M 110.742188 44.203125 C 111.664062 43.835938 112.554688 43.464844 113.476562 43.097656 C 115.625 42.207031 117.867188 41.289062 120.078125 40.429688 C 120.660156 40.183594 121.277344 40.058594 121.921875 39.9375 C 122.226562 39.875 122.535156 39.816406 122.84375 39.753906 L 124.683594 39.324219 L 123.886719 41.042969 C 123.027344 42.914062 122.167969 44.753906 121.367188 46.566406 C 120.476562 48.5 119.585938 50.492188 118.636719 52.519531 L 118.050781 53.746094 L 117.128906 52.765625 L 115.71875 51.292969 C 113.875 49.359375 112.15625 47.546875 110.40625 45.707031 L 109.453125 44.726562 Z M 88.417969 30.394531 C 86.421875 32.449219 84.457031 34.507812 82.398438 36.625 L 81.078125 37.972656 L 82.953125 38.15625 C 85.5 38.433594 87.894531 38.648438 90.230469 38.863281 C 91.152344 38.957031 92.074219 39.015625 92.992188 39.109375 L 93.914062 39.199219 L 94.007812 38.28125 C 94.253906 35.550781 94.5 32.910156 94.742188 30.148438 C 94.867188 28.738281 95.019531 27.292969 95.144531 25.789062 L 95.390625 23.183594 L 93.578125 25.054688 C 91.828125 26.894531 90.105469 28.644531 88.417969 30.394531 Z M 76.964844 27.507812 C 76.71875 25.976562 76.441406 24.441406 76.195312 22.90625 L 75.859375 20.789062 L 74.570312 22.476562 C 72.480469 25.238281 70.914062 28.335938 69.378906 31.34375 C 68.671875 32.757812 67.933594 34.230469 67.136719 35.609375 L 66.429688 36.867188 L 67.84375 36.992188 C 69.777344 37.144531 71.710938 37.296875 73.585938 37.453125 C 74.9375 37.542969 76.226562 37.667969 77.484375 37.757812 L 78.683594 37.882812 L 78.5 36.714844 C 77.976562 33.617188 77.453125 30.578125 76.964844 27.507812 Z M 121.429688 57.644531 L 119.957031 57.523438 L 120.507812 58.902344 C 121.335938 60.929688 122.136719 62.859375 122.933594 64.792969 L 123.394531 65.960938 L 124.347656 65.164062 C 125.605469 64.148438 126.835938 63.136719 128.125 62.0625 C 128.984375 61.359375 129.875 60.652344 130.765625 59.914062 L 132.546875 58.441406 L 130.242188 58.289062 C 127.847656 58.136719 125.574219 57.949219 123.332031 57.796875 Z M 125.789062 69.242188 L 124.378906 68.539062 L 124.4375 70.101562 C 124.59375 73.570312 124.746094 76.761719 124.898438 79.738281 L 124.960938 81.058594 L 126.191406 80.535156 C 127.171875 80.109375 128.15625 79.679688 129.167969 79.25 C 131.472656 78.265625 133.867188 77.253906 136.324219 76.148438 L 137.796875 75.503906 L 136.507812 74.554688 C 134.175781 72.835938 131.6875 71.792969 129.261719 70.746094 C 128.125 70.316406 126.925781 69.796875 125.789062 69.242188 Z M 118.910156 110.027344 C 118.234375 109.046875 117.558594 108.09375 116.886719 107.144531 L 116.210938 106.160156 L 115.441406 107.050781 C 113.90625 108.832031 112.492188 110.488281 111.203125 112.023438 L 110.25 113.128906 L 111.664062 113.496094 L 112.769531 113.773438 C 115.5625 114.507812 118.207031 115.183594 121.121094 115.980469 L 123.546875 116.625 L 122.105469 114.539062 C 121 112.972656 119.957031 111.46875 118.910156 110.027344 Z M 131.101562 103.796875 L 131.101562 103.582031 L 130.917969 103.335938 C 130.828125 103.214844 130.734375 103.0625 130.640625 102.90625 C 130.457031 102.632812 130.273438 102.324219 129.996094 102.050781 C 129.351562 101.40625 128.707031 100.789062 128.09375 100.175781 C 127.480469 99.5625 126.835938 98.949219 126.191406 98.304688 C 125.757812 97.875 125.328125 97.414062 124.871094 96.953125 C 124.378906 96.433594 123.886719 95.910156 123.332031 95.359375 L 122.414062 94.4375 L 121.828125 95.574219 C 120.476562 98.304688 119.1875 100.851562 117.835938 103.582031 L 117.160156 104.902344 L 129.722656 104.902344 L 132.023438 104.964844 L 131.101562 103.796875 C 131.101562 103.828125 131.101562 103.828125 131.101562 103.796875 Z M 107.210938 43.589844 L 107.457031 42.546875 C 107.582031 42.054688 107.703125 41.535156 107.796875 41.042969 C 108.164062 39.445312 108.5625 37.789062 108.960938 36.164062 C 109.300781 34.875 109.667969 33.554688 110.007812 32.265625 C 110.222656 31.46875 110.464844 30.640625 110.683594 29.8125 C 110.742188 29.71875 110.804688 29.597656 110.867188 29.441406 L 111.386719 27.847656 L 109.761719 28.246094 C 109.699219 28.277344 109.636719 28.277344 109.578125 28.308594 C 109.546875 28.308594 109.484375 28.335938 109.453125 28.335938 C 108.960938 28.460938 108.625 28.582031 108.347656 28.796875 L 108.285156 28.859375 C 107.609375 29.410156 106.90625 29.964844 106.230469 30.515625 C 104.355469 32.019531 102.390625 33.585938 100.515625 35.210938 C 99.65625 35.949219 98.890625 36.777344 98.183594 37.574219 C 97.9375 37.851562 97.691406 38.097656 97.445312 38.371094 L 96.523438 39.355469 L 97.785156 39.84375 C 100.671875 41.011719 103.617188 42.179688 106.199219 43.222656 Z M 136.570312 89.773438 C 132.914062 87.472656 129.507812 85.324219 126.097656 83.175781 L 124.992188 82.46875 L 124.714844 83.757812 C 124.007812 86.980469 123.363281 89.988281 122.78125 92.71875 L 122.503906 94.070312 L 123.855469 93.824219 C 127.878906 93.058594 131.902344 92.289062 136.261719 91.460938 L 138.566406 91.03125 Z M 109.269531 115.246094 L 108.992188 113.863281 L 107.824219 114.660156 C 106.503906 115.582031 105.308594 116.441406 104.019531 117.363281 L 103.097656 118.007812 L 101.929688 118.835938 L 103.15625 119.539062 C 104.140625 120.125 105.09375 120.675781 106.015625 121.230469 C 106.964844 121.8125 107.886719 122.332031 108.808594 122.886719 L 109.421875 123.253906 L 110.035156 122.640625 L 110.191406 122.488281 L 110.527344 122.148438 L 110.4375 121.65625 C 110.097656 119.570312 109.699219 117.484375 109.269531 115.246094 Z M 109.269531 115.246094 " fill-opacity="1" fill-rule="nonzero"/><path fill="#ffffff" d="M 42.046875 103.398438 L 42.261719 104.257812 L 41.433594 103.921875 C 41.28125 103.859375 41.125 103.828125 41.003906 103.765625 C 40.664062 103.675781 40.359375 103.582031 40.175781 103.308594 C 39.960938 103 39.714844 102.722656 39.5 102.417969 C 38.546875 101.21875 37.5625 99.992188 37.410156 98.304688 C 37.378906 98.214844 37.378906 98.121094 37.378906 98.027344 C 37.378906 97.96875 37.378906 97.9375 37.378906 97.90625 C 36.980469 95.480469 37.257812 94.960938 39.5 94.222656 L 39.992188 94.070312 L 40.421875 95.972656 C 40.882812 98.367188 41.433594 100.851562 42.046875 103.398438 Z M 48.894531 97.140625 L 48.40625 96.894531 C 47.359375 96.371094 46.347656 95.878906 45.304688 95.390625 C 44.136719 94.835938 42.9375 94.253906 41.679688 93.609375 L 40.820312 93.179688 L 41.035156 94.132812 C 41.433594 95.820312 41.800781 97.414062 42.171875 99.011719 C 42.539062 100.605469 42.90625 102.203125 43.308594 103.890625 L 43.550781 104.902344 L 44.136719 104.042969 C 45.761719 101.679688 47.175781 99.625 48.589844 97.570312 Z M 39.160156 84.003906 L 38.945312 83.515625 C 38.855469 83.328125 38.792969 83.144531 38.699219 82.960938 C 38.546875 82.59375 38.394531 82.253906 38.179688 81.917969 C 37.535156 80.9375 36.828125 79.953125 36.152344 79.003906 C 36 78.757812 35.8125 78.542969 35.660156 78.296875 C 35.722656 78.328125 35.753906 78.328125 35.8125 78.359375 C 36.457031 78.695312 37.105469 79.035156 37.75 79.402344 C 38.761719 79.953125 39.835938 80.535156 40.882812 81.058594 C 40.882812 81.058594 42.324219 81.734375 42.847656 81.152344 C 43.308594 80.660156 43.429688 79.832031 43.367188 79.21875 C 43.308594 78.695312 42.90625 78.175781 42.539062 77.714844 C 42.109375 77.222656 41.710938 76.730469 41.28125 76.242188 C 40.882812 75.75 40.449219 75.289062 40.050781 74.796875 C 39.191406 73.785156 38.332031 72.804688 37.472656 71.820312 C 35.292969 69.335938 33.050781 66.757812 31.023438 64.089844 C 29.765625 62.402344 28.257812 61.019531 26.816406 59.640625 C 26.324219 59.179688 25.804688 58.6875 25.3125 58.195312 L 25.28125 58.164062 C 25.097656 58.011719 24.914062 57.949219 24.636719 57.859375 C 24.511719 57.796875 24.359375 57.765625 24.175781 57.675781 L 22.578125 56.96875 L 24.636719 59.761719 C 26.695312 62.523438 28.628906 65.164062 30.59375 67.769531 C 32.710938 70.53125 34.894531 73.324219 37.011719 76.058594 C 35.109375 75.257812 33.171875 74.460938 31.238281 73.664062 L 30.992188 73.570312 L 30.777344 73.722656 C 29.488281 74.644531 29.519531 75.074219 30.316406 76.179688 C 31.515625 77.804688 32.773438 79.554688 34.402344 81.765625 C 35.046875 82.65625 35.753906 83.574219 36.398438 84.433594 L 36.582031 84.679688 L 36.890625 84.617188 C 37.535156 84.464844 37.996094 84.34375 38.609375 84.15625 Z M 85.4375 88.484375 C 84.027344 85.816406 82.644531 83.144531 81.261719 80.507812 C 79.726562 77.589844 78.222656 74.707031 76.6875 71.792969 L 76.472656 71.390625 L 76.074219 71.605469 C 75.765625 71.761719 75.457031 71.914062 75.152344 72.066406 C 74.539062 72.375 73.984375 72.679688 73.371094 72.957031 L 72.910156 73.171875 L 73.15625 73.601562 C 74.382812 75.6875 75.582031 77.714844 76.78125 79.769531 C 77.914062 81.703125 79.050781 83.605469 80.21875 85.570312 C 80.125 85.632812 80.035156 85.691406 79.972656 85.753906 C 79.726562 85.9375 79.480469 86.121094 79.328125 86.121094 C 78.621094 86.121094 77.855469 86 77.117188 85.875 C 76.902344 85.847656 76.71875 85.816406 76.503906 85.785156 L 73.707031 85.386719 L 73.554688 85.539062 C 73.492188 85.601562 73.433594 85.691406 73.402344 85.722656 L 73.402344 85.753906 L 73.09375 86.0625 L 75.519531 88.699219 L 75.796875 89.160156 C 77.148438 91.492188 78.53125 93.949219 80.832031 95.695312 L 81.355469 96.09375 L 81.570312 95.480469 C 81.660156 95.175781 81.753906 94.714844 81.539062 94.378906 C 81.140625 93.792969 80.742188 93.210938 80.3125 92.628906 C 80.003906 92.199219 79.726562 91.800781 79.421875 91.371094 C 78.835938 90.511719 78.253906 89.652344 77.671875 88.824219 C 80.3125 89.621094 82.765625 89.742188 85.132812 89.128906 L 85.714844 88.976562 Z M 50.0625 99.5 L 49.816406 99.070312 L 49.386719 99.347656 C 48.160156 100.117188 45.363281 104.472656 45.089844 106.070312 L 45.027344 106.40625 L 45.363281 106.558594 C 47.730469 107.632812 50.460938 108.277344 53.960938 108.523438 L 54.792969 108.585938 L 54.421875 107.847656 C 52.949219 105.027344 51.507812 102.265625 50.0625 99.5 Z M 61.792969 96.523438 C 60.289062 96.09375 59.859375 97.382812 59.707031 97.8125 C 58.875 100.421875 58.015625 103 57.09375 105.730469 L 56.050781 108.832031 L 56.789062 108.738281 C 57.1875 108.675781 57.523438 108.648438 57.863281 108.617188 C 58.445312 108.554688 58.96875 108.492188 59.460938 108.371094 C 59.890625 108.246094 60.320312 108.125 60.71875 108.003906 C 62.222656 107.601562 63.789062 107.171875 65.234375 106.53125 C 66.585938 105.945312 67.90625 104.625 67.628906 102.753906 C 67.199219 99.65625 65.109375 97.445312 61.792969 96.523438 Z M 58.753906 97.230469 L 59.03125 96.523438 L 58.261719 96.617188 C 55.957031 96.925781 53.871094 97.199219 51.261719 97.539062 L 50.617188 97.628906 L 50.921875 98.214844 C 51.414062 99.226562 51.9375 100.207031 52.425781 101.191406 C 53.164062 102.664062 53.933594 104.195312 54.761719 105.824219 L 55.253906 106.773438 L 55.621094 105.792969 C 56.144531 104.382812 56.632812 103.03125 57.125 101.710938 C 57.648438 100.207031 58.199219 98.734375 58.753906 97.230469 Z M 58.753906 97.230469 " fill-opacity="1" fill-rule="nonzero"/><g clip-path="url(#6373a3d081)"><path fill="#3c50be" d="M 139.300781 90.601562 C 139.332031 92.351562 139.179688 92.566406 137.582031 93.027344 C 136.691406 93.273438 135.738281 93.394531 134.820312 93.546875 C 131.5625 94.070312 128.308594 94.5625 124.652344 95.113281 C 125.515625 95.972656 126.128906 96.554688 126.742188 97.140625 C 128.800781 99.195312 130.855469 101.25 132.882812 103.335938 C 133.527344 104.011719 134.019531 104.8125 133.527344 105.730469 C 133.070312 106.589844 132.179688 106.652344 131.316406 106.621094 C 129.691406 106.53125 128.0625 106.40625 126.433594 106.375 C 124.410156 106.34375 122.382812 106.375 120.386719 106.40625 C 119.554688 106.40625 118.726562 106.40625 117.898438 106.40625 C 117.867188 106.34375 117.835938 106.285156 117.804688 106.253906 C 117.804688 106.285156 117.777344 106.34375 117.804688 106.34375 C 117.835938 106.375 117.898438 106.375 117.929688 106.375 C 119.28125 108.21875 120.632812 110.089844 121.984375 111.929688 C 122.6875 112.914062 123.457031 113.894531 124.070312 114.9375 C 124.898438 116.410156 124.070312 117.792969 122.382812 117.667969 C 121.0625 117.546875 119.773438 117.238281 118.449219 116.964844 C 116.945312 116.625 115.441406 116.195312 113.9375 115.796875 C 112.953125 115.519531 111.972656 115.246094 110.773438 114.90625 C 110.867188 115.519531 110.867188 115.917969 110.957031 116.347656 C 111.480469 118.496094 112.003906 120.644531 112.523438 122.792969 C 112.617188 123.222656 112.832031 123.683594 112.769531 124.113281 C 112.679688 124.695312 112.554688 125.433594 112.15625 125.769531 C 111.816406 126.046875 110.988281 125.953125 110.558594 125.738281 C 108.902344 124.851562 107.304688 123.898438 105.769531 122.855469 C 104.664062 122.117188 103.648438 121.289062 102.667969 120.429688 C 102.050781 119.910156 101.53125 119.910156 100.945312 120.339844 C 97.691406 122.609375 94.097656 124.144531 90.230469 124.941406 C 87.742188 125.433594 85.253906 126.015625 82.644531 125.832031 C 80.742188 125.679688 78.804688 125.984375 76.902344 125.984375 C 73.679688 125.953125 70.453125 126.046875 67.257812 125.679688 C 63.605469 125.25 60.011719 124.359375 56.390625 123.621094 C 54.945312 123.316406 53.503906 123.039062 52.121094 122.515625 C 50.15625 121.8125 48.21875 120.953125 46.285156 120.125 C 45.210938 119.664062 44.105469 119.234375 43.121094 118.652344 C 41.1875 117.453125 39.34375 116.132812 37.410156 114.875 C 37.042969 114.628906 36.582031 114.539062 36.152344 114.386719 C 36.089844 114.476562 36 114.570312 35.9375 114.691406 C 36.949219 116.289062 37.996094 117.851562 38.945312 119.480469 C 39.34375 120.125 39.652344 120.859375 39.929688 121.566406 C 40.019531 121.8125 39.960938 122.332031 39.804688 122.394531 C 38.300781 123.070312 38.363281 124.726562 37.59375 125.863281 C 35.199219 129.390625 31.453125 130.648438 27.398438 128.777344 C 25.402344 130.1875 23.160156 131.140625 20.582031 130.773438 C 15.976562 129.882812 12.628906 125.28125 12.535156 120.921875 C 12.535156 120.492188 12.476562 119.96875 12.230469 119.664062 C 10.511719 117.484375 10.695312 115.214844 11.429688 112.726562 C 12.105469 110.425781 13.488281 108.832031 15.578125 107.878906 C 16.867188 107.328125 18.28125 107.082031 19.660156 106.742188 C 20.214844 106.589844 20.796875 106.558594 21.441406 106.5 C 21.042969 105.457031 20.765625 104.503906 20.335938 103.644531 C 19.109375 101.21875 20.734375 97.140625 23.808594 95.757812 C 24.699219 95.359375 25.894531 95.695312 27.03125 95.695312 C 26.96875 94.898438 26.9375 93.855469 26.847656 92.71875 C 26.203125 92.8125 25.679688 92.996094 25.15625 92.933594 C 23.714844 92.75 22.609375 92.074219 22.300781 90.542969 C 21.933594 88.609375 21.503906 86.675781 21.226562 84.742188 C 20.644531 80.351562 20.152344 75.933594 19.601562 71.546875 C 19.230469 68.691406 18.800781 65.808594 18.523438 62.953125 C 18.339844 61.113281 18.433594 59.269531 18.339844 57.398438 C 18.21875 55.28125 17.972656 53.195312 17.941406 51.078125 C 17.910156 50.125 18.09375 49.113281 18.402344 48.191406 C 18.863281 46.75 20.582031 46.503906 21.625 47.609375 C 23.5 49.605469 25.433594 51.539062 27.308594 53.53125 C 27.921875 54.175781 28.445312 54.882812 29.121094 55.710938 C 30.039062 53.070312 30.929688 50.617188 31.914062 47.886719 C 31.085938 48.101562 30.472656 48.316406 29.824219 48.53125 C 29.121094 48.777344 28.289062 48.867188 28.015625 48.101562 C 27.859375 47.671875 28.257812 46.871094 28.628906 46.472656 C 29.609375 45.460938 30.808594 44.816406 32.3125 44.847656 C 33.113281 44.878906 33.695312 44.449219 34.1875 43.710938 C 36.058594 40.949219 38.578125 38.800781 41.617188 37.421875 C 44.597656 36.070312 47.820312 35.550781 51.105469 35.671875 C 52.335938 35.703125 53.5625 35.578125 54.761719 35.609375 C 58.109375 35.703125 61.457031 35.855469 65.046875 36.007812 C 65.292969 35.550781 65.664062 34.9375 65.9375 34.261719 C 67.996094 29.503906 70.636719 25.054688 73.402344 20.664062 C 73.617188 20.328125 73.921875 20.082031 74.199219 19.808594 C 75.488281 18.640625 77.269531 19.164062 77.578125 20.851562 C 77.976562 22.9375 78.222656 25.023438 78.53125 27.140625 C 78.929688 29.8125 79.359375 32.511719 79.757812 35.179688 C 79.851562 35.765625 79.820312 36.347656 79.851562 36.929688 C 81.203125 35.519531 82.550781 34.167969 83.875 32.789062 C 87.066406 29.535156 90.261719 26.3125 93.421875 23.058594 C 93.484375 23 93.546875 22.90625 93.636719 22.84375 C 94.5 22.261719 95.359375 21.433594 96.433594 22.109375 C 97.386719 22.691406 97.078125 23.734375 96.953125 24.6875 C 96.585938 28 96.308594 31.34375 95.972656 34.691406 C 95.910156 35.425781 95.757812 36.132812 95.878906 37.054688 C 96.738281 36.253906 97.601562 35.425781 98.492188 34.660156 C 102.328125 31.253906 106.257812 27.9375 110.683594 25.269531 C 111.050781 25.054688 111.511719 24.902344 111.910156 24.871094 C 113.199219 24.777344 113.722656 25.484375 113.324219 26.742188 C 112.894531 28.09375 112.460938 29.472656 112.03125 30.824219 C 110.957031 34.261719 109.914062 37.699219 108.777344 41.105469 C 108.5625 41.777344 107.949219 42.332031 107.394531 43.128906 C 107.765625 43.128906 108.195312 43.25 108.53125 43.097656 C 111.972656 41.71875 115.347656 40.214844 118.789062 38.925781 C 120.476562 38.28125 122.320312 37.941406 124.101562 37.636719 C 125.453125 37.421875 126.589844 38.894531 126.191406 40.246094 C 126.066406 40.613281 125.945312 40.980469 125.757812 41.347656 C 123.886719 45.246094 121.984375 49.144531 120.140625 53.042969 C 119.832031 53.714844 119.554688 54.390625 119.1875 55.34375 C 120.292969 55.589844 121.335938 55.863281 122.382812 56.019531 C 125.113281 56.417969 127.878906 56.292969 130.640625 56.140625 C 131.074219 56.109375 131.53125 56.078125 131.960938 56.140625 C 132.851562 56.261719 133.929688 56.417969 134.050781 57.460938 C 134.144531 58.195312 133.867188 59.179688 133.375 59.730469 C 132.332031 60.898438 131.074219 61.878906 129.875 62.890625 C 128.09375 64.425781 126.28125 65.929688 124.316406 67.585938 C 126.21875 68.386719 127.910156 69.03125 129.535156 69.828125 C 132.148438 71.054688 134.789062 72.3125 137.304688 73.722656 C 137.980469 74.09375 138.8125 75.257812 138.65625 75.78125 C 138.441406 76.578125 137.519531 77.34375 136.691406 77.804688 C 135.371094 78.542969 133.898438 79.035156 132.453125 79.585938 C 130.886719 80.167969 129.320312 80.660156 127.753906 81.210938 C 127.265625 81.394531 126.804688 81.671875 126.160156 81.980469 C 126.621094 82.285156 126.957031 82.46875 127.265625 82.683594 C 130.027344 84.28125 132.851562 85.816406 135.554688 87.535156 C 137.058594 88.332031 138.136719 89.558594 139.300781 90.601562 Z M 130.183594 103.890625 C 129.90625 103.492188 129.660156 103.03125 129.320312 102.695312 C 128.0625 101.433594 126.773438 100.207031 125.515625 98.949219 C 124.59375 98.027344 123.703125 97.046875 122.65625 96.003906 C 121.308594 98.734375 120.046875 101.25 118.667969 104.011719 C 122.503906 104.011719 126.28125 104.011719 130.058594 104.011719 C 130.058594 104.011719 130.367188 104.167969 130.183594 103.890625 Z M 75.828125 88.300781 C 77.300781 90.847656 78.652344 93.488281 81.109375 95.328125 C 81.203125 95.050781 81.230469 94.777344 81.140625 94.621094 C 80.464844 93.609375 79.726562 92.628906 79.050781 91.644531 C 78.191406 90.417969 77.363281 89.191406 76.535156 87.964844 C 79.296875 89.039062 82.09375 89.46875 85.070312 88.730469 C 82.121094 83.113281 79.234375 77.589844 76.320312 72.035156 C 75.398438 72.496094 74.539062 72.957031 73.617188 73.386719 C 76.074219 77.558594 78.4375 81.550781 80.894531 85.722656 C 80.25 86.121094 79.820312 86.613281 79.390625 86.613281 C 78.4375 86.613281 77.453125 86.398438 76.503906 86.246094 C 75.644531 86.121094 74.785156 86 73.921875 85.875 C 73.863281 85.9375 73.832031 86.03125 73.769531 86.089844 C 74.476562 86.796875 75.152344 87.566406 75.828125 88.300781 Z M 109.699219 29.167969 C 109.421875 29.289062 109.117188 29.351562 108.902344 29.535156 C 106.320312 31.621094 103.679688 33.675781 101.160156 35.855469 C 100.054688 36.808594 99.105469 37.972656 98.152344 38.957031 C 101.039062 40.121094 103.957031 41.289062 106.566406 42.332031 C 107.058594 40.246094 107.550781 38.066406 108.101562 35.917969 C 108.65625 33.738281 109.300781 31.558594 109.882812 29.382812 C 109.945312 29.289062 110.007812 29.226562 110.035156 29.136719 C 109.914062 29.136719 109.820312 29.136719 109.699219 29.167969 Z M 34.863281 77.714844 C 35.261719 77.773438 35.691406 77.773438 36.027344 77.960938 C 37.71875 78.847656 39.375 79.800781 41.097656 80.660156 C 41.527344 80.875 42.324219 81.058594 42.507812 80.84375 C 42.847656 80.507812 42.96875 79.800781 42.90625 79.277344 C 42.847656 78.847656 42.476562 78.390625 42.171875 78.019531 C 41.371094 77.039062 40.511719 76.058594 39.683594 75.105469 C 36.644531 71.546875 33.480469 68.078125 30.625 64.363281 C 28.933594 62.1875 26.878906 60.4375 24.972656 58.535156 C 24.789062 58.351562 24.484375 58.320312 23.992188 58.105469 C 26.449219 61.417969 28.691406 64.488281 30.992188 67.496094 C 33.265625 70.472656 35.570312 73.417969 37.871094 76.363281 C 37.78125 76.488281 37.65625 76.640625 37.5625 76.761719 C 35.414062 75.871094 33.265625 74.984375 31.085938 74.09375 C 30.101562 74.828125 30.039062 74.953125 30.714844 75.902344 C 32.066406 77.773438 33.417969 79.648438 34.800781 81.488281 C 35.476562 82.378906 36.152344 83.269531 36.796875 84.15625 C 37.410156 84.003906 37.871094 83.882812 38.515625 83.699219 C 38.238281 83.085938 38.085938 82.59375 37.808594 82.164062 C 36.828125 80.722656 35.785156 79.277344 34.769531 77.835938 C 34.800781 77.804688 34.832031 77.746094 34.863281 77.714844 Z M 121.984375 68.109375 C 121.859375 67.554688 121.523438 66.695312 121.367188 66.207031 C 120.785156 64.519531 120.230469 62.832031 119.464844 61.234375 C 118.542969 59.332031 117.40625 57.550781 116.363281 55.710938 C 114.367188 52.152344 111.574219 49.296875 108.285156 46.933594 C 105.644531 45.03125 102.789062 43.496094 99.625 42.609375 C 97.445312 41.992188 95.296875 41.226562 93.054688 40.859375 C 90.78125 40.460938 88.449219 40.488281 86.113281 40.304688 C 83.441406 40.089844 80.800781 39.90625 78.128906 39.660156 C 75.121094 39.386719 72.140625 39.015625 69.132812 38.832031 C 63.789062 38.527344 58.476562 38.34375 53.132812 38.15625 C 50.277344 38.066406 47.359375 38.035156 44.628906 39.078125 C 41.648438 40.214844 39.070312 41.964844 37.074219 44.570312 C 38.515625 45.308594 39.898438 45.921875 41.21875 46.65625 C 42.632812 47.457031 42.570312 49.144531 41.125 50.003906 C 40.207031 49.542969 39.316406 48.960938 38.363281 48.621094 C 37.347656 48.285156 36.273438 48.132812 35.292969 47.917969 C 33.664062 51.046875 32.683594 54.238281 32.035156 57.550781 C 31.945312 57.949219 32.007812 58.503906 32.222656 58.808594 C 32.988281 59.882812 33.816406 60.929688 34.738281 61.910156 C 36.152344 63.445312 37.71875 64.855469 39.101562 66.421875 C 41.957031 69.644531 44.933594 72.804688 47.515625 76.242188 C 49.664062 79.09375 52.398438 80.046875 55.683594 80.109375 C 55.957031 80.109375 56.265625 79.984375 56.480469 79.800781 C 57.464844 79.0625 58.414062 78.296875 59.367188 77.53125 C 60.503906 76.609375 61.640625 75.65625 62.808594 74.796875 C 64.773438 73.386719 66.800781 72.066406 68.734375 70.65625 C 70.851562 69.121094 72.910156 67.527344 75 65.960938 C 78.34375 63.445312 81.753906 60.988281 85.039062 58.410156 C 87.433594 56.539062 89.675781 54.453125 92.011719 52.488281 C 92.65625 51.96875 93.332031 51.445312 94.097656 51.078125 C 95.480469 50.433594 96.832031 51.324219 96.863281 52.855469 C 96.863281 53.285156 96.832031 53.746094 96.769531 54.175781 C 96.433594 56.507812 96.09375 58.839844 95.789062 61.171875 C 95.417969 63.84375 95.082031 66.542969 94.652344 69.214844 C 93.792969 74.460938 92.902344 79.707031 91.980469 84.957031 C 91.089844 90.050781 90.199219 95.144531 89.308594 100.238281 C 89.214844 101.3125 88.785156 101.988281 87.804688 102.265625 C 87.21875 102.109375 86.542969 102.078125 86.023438 101.773438 C 82.523438 99.6875 79.082031 97.539062 75.613281 95.421875 C 73.0625 93.824219 70.546875 92.230469 67.996094 90.601562 C 67.136719 90.050781 66.308594 89.40625 65.449219 88.851562 C 63.113281 87.351562 60.8125 85.691406 58.355469 84.402344 C 56.941406 83.667969 55.222656 83.542969 53.625 83.175781 C 53.410156 83.113281 53.101562 83.390625 52.828125 83.542969 C 52.398438 83.789062 51.996094 84.066406 51.566406 84.28125 C 49.449219 85.292969 47.328125 86.277344 45.210938 87.226562 C 43.644531 87.902344 42.046875 88.515625 40.480469 89.160156 C 39.46875 89.589844 38.453125 90.050781 37.410156 90.511719 C 34.894531 91.09375 32.40625 91.675781 29.640625 92.320312 C 29.796875 94.222656 29.917969 96.125 30.070312 98.027344 C 30.5 99.777344 30.714844 101.648438 31.453125 103.277344 C 33.816406 108.585938 38.179688 112.113281 43.0625 114.90625 C 45.761719 116.472656 48.679688 117.761719 51.660156 118.710938 C 55.621094 119.96875 59.613281 121.199219 63.851562 121.65625 C 67.691406 122.085938 71.496094 122.332031 75.335938 122.363281 C 80.617188 122.425781 85.871094 121.996094 91.027344 120.859375 C 92.65625 120.492188 94.285156 119.96875 95.820312 119.265625 C 99.933594 117.332031 103.863281 115.03125 107.425781 112.238281 C 109.484375 110.640625 111.296875 108.648438 113.015625 106.652344 C 114.519531 104.902344 115.964844 103.03125 117.070312 101.003906 C 118.480469 98.429688 119.496094 95.636719 120.691406 92.933594 C 122.042969 89.957031 122.503906 86.734375 122.78125 83.574219 C 123.117188 79.800781 122.902344 75.964844 122.8125 72.191406 C 122.597656 70.042969 121.984375 68.109375 121.984375 68.109375 Z M 24.359375 109.875 C 22.917969 108.890625 21.320312 109.015625 19.691406 109.320312 C 16.742188 109.90625 14.132812 110.949219 13.613281 114.90625 C 13.367188 116.808594 13.855469 117.914062 15.699219 118.3125 C 16.898438 118.558594 18.15625 118.621094 19.355469 118.496094 C 20.214844 118.4375 21.226562 118.128906 21.351562 117.117188 C 20.429688 115.949219 18.925781 117.515625 18.09375 116.195312 C 18.554688 114.261719 20.089844 114.292969 21.503906 114.230469 C 22.886719 114.199219 24.023438 114.84375 24.511719 116.195312 C 24.882812 117.148438 25.496094 117.730469 26.261719 118.3125 C 29.640625 120.828125 30.132812 122.457031 29.121094 126.414062 C 32.066406 127.550781 35.8125 124.972656 36.457031 120.460938 C 34.15625 117.421875 32.375 114.015625 30.992188 110.394531 C 29.796875 107.265625 28.71875 104.074219 27.492188 100.945312 C 27 99.6875 26.292969 98.429688 25.003906 97.785156 C 22.945312 98.734375 22.085938 100.207031 22.640625 102.292969 C 22.976562 103.582031 23.746094 104.78125 24.421875 105.976562 C 25.34375 107.574219 25.402344 108.554688 24.359375 109.875 Z M 75.273438 23.058594 C 72.265625 27.019531 70.390625 31.683594 67.933594 36.101562 C 71.28125 36.378906 74.539062 36.625 77.578125 36.867188 C 76.808594 32.265625 76.042969 27.664062 75.273438 23.058594 Z M 94.222656 25.761719 C 90.445312 29.65625 86.851562 33.371094 83.042969 37.296875 C 86.542969 37.636719 89.800781 37.914062 93.054688 38.21875 C 93.453125 34.105469 93.824219 30.117188 94.222656 25.761719 Z M 117.804688 52.121094 C 119.585938 48.191406 121.277344 44.539062 123.058594 40.644531 C 122.011719 40.890625 121.183594 40.980469 120.417969 41.289062 C 117.285156 42.515625 114.183594 43.804688 111.082031 45.0625 C 113.292969 47.363281 115.503906 49.664062 117.804688 52.121094 Z M 14.902344 121.382812 C 14.960938 121.78125 14.960938 121.996094 15.054688 122.148438 C 15.453125 122.886719 15.851562 123.621094 16.285156 124.359375 C 18.035156 127.242188 20.675781 128.164062 23.46875 127.152344 C 26.324219 126.136719 27.429688 124.175781 25.832031 121.566406 C 25.375 120.800781 24.542969 120.246094 23.960938 119.664062 C 21.136719 121.6875 18.21875 122.332031 14.902344 121.382812 Z M 123.671875 92.902344 C 127.695312 92.136719 131.71875 91.371094 136.078125 90.542969 C 132.421875 88.238281 129.015625 86.089844 125.605469 83.945312 C 124.898438 87.105469 124.285156 89.988281 123.671875 92.902344 Z M 135.953125 75.382812 C 132.609375 72.925781 128.890625 71.851562 125.359375 70.101562 C 125.515625 73.507812 125.667969 76.640625 125.820312 79.738281 C 129.105469 78.296875 132.421875 76.886719 135.953125 75.382812 Z M 121.367188 115.121094 C 119.496094 112.421875 117.777344 109.996094 116.148438 107.664062 C 114.703125 109.351562 113.382812 110.949219 111.910156 112.667969 C 115.105469 113.464844 118.050781 114.261719 121.367188 115.121094 Z M 123.792969 64.457031 C 125.882812 62.738281 128 61.019531 130.210938 59.210938 C 127.140625 58.996094 124.285156 58.78125 121.367188 58.566406 C 122.199219 60.589844 122.996094 62.523438 123.792969 64.457031 Z M 103.679688 118.773438 C 105.675781 119.941406 107.488281 121.042969 109.332031 122.117188 C 109.421875 122.027344 109.515625 121.933594 109.605469 121.84375 C 109.207031 119.753906 108.808594 117.667969 108.378906 115.429688 C 106.75 116.5625 105.308594 117.609375 103.679688 118.773438 Z M 34.863281 98.519531 C 34.832031 98.335938 34.832031 98.121094 34.800781 97.9375 C 34.554688 94.4375 34.832031 94.039062 38.023438 92.71875 C 38.148438 92.660156 38.269531 92.566406 38.394531 92.503906 C 41.066406 91.15625 43.429688 92.257812 45.792969 93.363281 C 46.410156 93.640625 47.054688 93.949219 47.667969 94.253906 C 50.371094 95.542969 53.101562 95.207031 55.898438 94.652344 C 59.398438 93.976562 62.867188 93.855469 65.96875 96.066406 C 68.703125 98.027344 70.332031 100.699219 69.808594 104.136719 C 69.5 106.316406 67.90625 107.847656 66 108.769531 C 62.46875 110.425781 58.660156 111.039062 54.761719 110.855469 C 49.355469 110.578125 44.257812 109.167969 39.777344 106.039062 C 37.410156 104.382812 35.90625 102.050781 35.136719 99.257812 C 35.078125 98.980469 34.953125 98.765625 34.863281 98.519531 Z M 56.757812 108.21875 C 57.832031 108.09375 58.628906 108.0625 59.367188 107.847656 C 61.300781 107.296875 63.296875 106.835938 65.109375 106.039062 C 66.371094 105.484375 67.476562 104.351562 67.230469 102.753906 C 66.738281 99.5625 64.527344 97.722656 61.671875 96.925781 C 60.839844 96.679688 60.441406 97.078125 60.164062 97.90625 C 59.089844 101.28125 57.953125 104.625 56.757812 108.21875 Z M 49.695312 99.714844 C 48.589844 100.390625 45.855469 104.566406 45.578125 106.128906 C 48.25 107.359375 51.105469 107.847656 54.023438 108.0625 C 52.582031 105.242188 51.136719 102.480469 49.695312 99.714844 Z M 41.464844 94.007812 C 42.261719 97.382812 42.96875 100.453125 43.738281 103.765625 C 45.363281 101.40625 46.777344 99.347656 48.191406 97.292969 C 46.039062 96.25 43.921875 95.207031 41.464844 94.007812 Z M 55.160156 105.609375 C 56.296875 102.570312 57.28125 99.902344 58.324219 97.046875 C 55.898438 97.382812 53.746094 97.660156 51.320312 97.96875 C 52.582031 100.484375 53.808594 102.90625 55.160156 105.609375 Z M 41.554688 103.523438 C 40.882812 100.453125 40.234375 97.570312 39.589844 94.683594 C 37.59375 95.359375 37.410156 95.664062 37.78125 97.84375 C 37.808594 98 37.78125 98.152344 37.808594 98.273438 C 37.996094 100.269531 39.40625 101.589844 40.511719 103.09375 C 40.664062 103.308594 41.097656 103.335938 41.554688 103.523438 Z M 82.953125 49.605469 C 81.417969 47.546875 79.511719 46.136719 76.808594 45.890625 C 74.90625 45.707031 73.15625 46.136719 71.496094 46.871094 C 70.175781 47.488281 68.949219 48.375 67.75 49.207031 C 67.136719 49.636719 66.644531 50.339844 67.199219 51.136719 C 67.75 51.96875 68.550781 52.058594 69.410156 51.597656 C 69.902344 51.351562 70.332031 51.046875 70.820312 50.769531 C 71.988281 50.15625 73.125 49.328125 74.351562 49.050781 C 75.644531 48.746094 77.085938 48.375 78.4375 49.359375 C 79.664062 50.28125 81.078125 51.046875 82.492188 51.90625 C 83.503906 51.230469 83.628906 50.492188 82.953125 49.605469 Z M 34.863281 77.714844 C 34.769531 77.683594 34.679688 77.683594 34.585938 77.652344 C 34.648438 77.714844 34.707031 77.746094 34.769531 77.804688 C 34.800781 77.804688 34.832031 77.746094 34.863281 77.714844 Z M 34.863281 77.714844 " fill-opacity="1" fill-rule="nonzero"/></g><g transform="matrix(1, 0, 0, 1, 74, 145)"><g clip-path="url(#fb65febaa3)"><g fill="#58677e" fill-opacity="1"><g transform="translate(0.999997, 4.067974)"><g><path d="M 2.5 -1.21875 C 2.5 -0.925781 2.445312 -0.679688 2.34375 -0.484375 C 2.25 -0.296875 2.101562 -0.160156 1.90625 -0.078125 L 2.484375 0.578125 L 1.828125 0.578125 L 1.390625 0.03125 L 1.34375 0.03125 C 0.976562 0.03125 0.695312 -0.0703125 0.5 -0.28125 C 0.300781 -0.5 0.203125 -0.8125 0.203125 -1.21875 C 0.203125 -1.625 0.300781 -1.929688 0.5 -2.140625 C 0.695312 -2.347656 0.984375 -2.453125 1.359375 -2.453125 C 1.722656 -2.453125 2.003906 -2.34375 2.203125 -2.125 C 2.398438 -1.914062 2.5 -1.613281 2.5 -1.21875 Z M 0.734375 -1.21875 C 0.734375 -0.945312 0.785156 -0.738281 0.890625 -0.59375 C 0.992188 -0.457031 1.144531 -0.390625 1.34375 -0.390625 C 1.757812 -0.390625 1.96875 -0.664062 1.96875 -1.21875 C 1.96875 -1.757812 1.765625 -2.03125 1.359375 -2.03125 C 1.148438 -2.03125 0.992188 -1.960938 0.890625 -1.828125 C 0.785156 -1.691406 0.734375 -1.488281 0.734375 -1.21875 Z M 0.734375 -1.21875 "/></g></g></g><g fill="#58677e" fill-opacity="1"><g transform="translate(3.694763, 4.067974)"><g><path d="M 1.78125 0 L 1.609375 -0.578125 L 0.734375 -0.578125 L 0.546875 0 L 0 0 L 0.859375 -2.4375 L 1.484375 -2.4375 L 2.34375 0 Z M 1.484375 -1 C 1.328125 -1.53125 1.238281 -1.828125 1.21875 -1.890625 C 1.195312 -1.960938 1.179688 -2.015625 1.171875 -2.046875 C 1.128906 -1.910156 1.023438 -1.5625 0.859375 -1 Z M 1.484375 -1 "/></g></g></g><g clip-path="url(#c3971f436a)"><g fill="#58677e" fill-opacity="1"><g transform="translate(6.030779, 4.067974)"><g><path d="M 0.296875 -2.421875 L 1.0625 -2.421875 C 1.40625 -2.421875 1.648438 -2.367188 1.796875 -2.265625 C 1.953125 -2.171875 2.03125 -2.019531 2.03125 -1.8125 C 2.03125 -1.664062 1.992188 -1.546875 1.921875 -1.453125 C 1.859375 -1.359375 1.773438 -1.300781 1.671875 -1.28125 L 1.671875 -1.265625 C 1.816406 -1.234375 1.921875 -1.171875 1.984375 -1.078125 C 2.054688 -0.984375 2.09375 -0.859375 2.09375 -0.703125 C 2.09375 -0.484375 2.015625 -0.3125 1.859375 -0.1875 C 1.703125 -0.0625 1.484375 0 1.203125 0 L 0.296875 0 Z M 0.8125 -1.46875 L 1.109375 -1.46875 C 1.253906 -1.46875 1.359375 -1.488281 1.421875 -1.53125 C 1.484375 -1.570312 1.515625 -1.640625 1.515625 -1.734375 C 1.515625 -1.828125 1.476562 -1.894531 1.40625 -1.9375 C 1.34375 -1.976562 1.238281 -2 1.09375 -2 L 0.8125 -2 Z M 0.8125 -1.046875 L 0.8125 -0.421875 L 1.15625 -0.421875 C 1.289062 -0.421875 1.390625 -0.445312 1.453125 -0.5 C 1.523438 -0.5625 1.5625 -0.644531 1.5625 -0.75 C 1.5625 -0.945312 1.421875 -1.046875 1.140625 -1.046875 Z M 0.8125 -1.046875 "/></g></g></g></g></g></g></svg>