<svg xmlns="http://www.w3.org/2000/svg" xmlns:xlink="http://www.w3.org/1999/xlink" width="200" zoomAndPan="magnify" viewBox="0 0 150 149.999998" height="200" preserveAspectRatio="xMidYMid meet" version="1.0"><defs><g/><clipPath id="c754b64b02"><path d="M 6 1 L 8.320312 1 L 8.320312 5 L 6 5 Z M 6 1 " clip-rule="nonzero"/></clipPath><clipPath id="73e767080c"><rect x="0" width="9" y="0" height="5"/></clipPath></defs><path fill="#939192" d="M 123.289062 91.832031 C 113.449219 79.660156 94.128906 78.847656 78.839844 78.796875 C 63.550781 78.847656 44.226562 79.660156 34.390625 91.832031 C 24.460938 104.113281 31.757812 128.605469 30.824219 147.3125 L 126.855469 147.3125 C 125.921875 128.605469 133.21875 104.113281 123.289062 91.832031 " fill-opacity="1" fill-rule="nonzero"/><path fill="#5a5758" d="M 123.289062 91.832031 C 113.449219 79.660156 94.128906 78.847656 78.839844 78.796875 C 77.578125 78.800781 76.285156 78.8125 74.976562 78.828125 L 74.976562 147.3125 L 126.855469 147.3125 C 125.921875 128.605469 133.21875 104.113281 123.289062 91.832031 " fill-opacity="1" fill-rule="nonzero"/><path fill="#1f110a" d="M 33.449219 144.773438 L 124.230469 144.773438 C 124.160156 139.289062 124.652344 133.433594 125.128906 127.746094 C 126.238281 114.570312 127.382812 100.941406 121.304688 93.425781 C 112.371094 82.371094 94.695312 81.386719 78.832031 81.335938 C 62.984375 81.386719 45.308594 82.371094 36.375 93.425781 C 30.296875 100.941406 31.441406 114.566406 32.546875 127.742188 C 33.027344 133.433594 33.515625 139.289062 33.449219 144.773438 Z M 129.535156 149.855469 L 28.140625 149.855469 L 28.277344 147.1875 C 28.570312 141.304688 28.007812 134.625 27.46875 128.164062 C 26.277344 113.992188 25.046875 99.339844 32.402344 90.238281 C 42.746094 77.441406 61.789062 76.3125 78.832031 76.253906 C 95.890625 76.3125 114.933594 77.441406 125.277344 90.238281 C 132.632812 99.339844 131.402344 113.996094 130.210938 128.167969 C 129.671875 134.625 129.109375 141.304688 129.402344 147.1875 L 129.535156 149.855469 " fill-opacity="1" fill-rule="nonzero"/><path fill="#f68c88" d="M 110.636719 47.925781 C 110.636719 47.925781 117.542969 43.128906 117.542969 47.925781 C 117.542969 52.726562 113.257812 66.113281 107.042969 63.65625 L 110.636719 47.925781 " fill-opacity="1" fill-rule="nonzero"/><path fill="#1f110a" d="M 111.765625 48.703125 L 108.574219 62.683594 C 112.550781 62.640625 116.269531 52.527344 116.269531 47.925781 C 116.269531 47.0625 116.074219 47.0625 115.753906 47.0625 C 114.691406 47.0625 112.898438 47.980469 111.765625 48.703125 Z M 108.546875 65.222656 C 107.890625 65.222656 107.226562 65.09375 106.574219 64.835938 L 105.558594 64.433594 L 109.5 47.164062 L 109.90625 46.882812 C 110.253906 46.644531 113.375 44.523438 115.753906 44.523438 C 117.234375 44.523438 118.820312 45.417969 118.820312 47.925781 C 118.820312 52.230469 115.175781 65.222656 108.546875 65.222656 " fill-opacity="1" fill-rule="nonzero"/><path fill="#fcd59a" d="M 42.476562 47.925781 C 42.476562 47.925781 35.570312 43.128906 35.570312 47.925781 C 35.570312 52.726562 39.855469 66.113281 46.070312 63.65625 L 42.476562 47.925781 " fill-opacity="1" fill-rule="nonzero"/><path fill="#1f110a" d="M 37.359375 47.0625 C 37.039062 47.0625 36.84375 47.0625 36.84375 47.925781 C 36.84375 52.527344 40.5625 62.640625 44.539062 62.683594 L 41.347656 48.703125 C 40.210938 47.980469 38.417969 47.0625 37.359375 47.0625 Z M 44.566406 65.222656 C 37.9375 65.222656 34.292969 52.230469 34.292969 47.925781 C 34.292969 45.417969 35.878906 44.523438 37.359375 44.523438 C 39.738281 44.523438 42.859375 46.644531 43.207031 46.882812 L 43.613281 47.164062 L 47.554688 64.433594 L 46.539062 64.835938 C 45.890625 65.09375 45.222656 65.222656 44.566406 65.222656 " fill-opacity="1" fill-rule="nonzero"/><path fill="#1f110a" d="M 46.074219 147.3125 C 45.136719 147.3125 44.375 146.554688 44.375 145.617188 L 44.375 116.863281 C 44.316406 115.816406 43.253906 101.289062 31.628906 101.289062 C 30.691406 101.289062 29.929688 100.53125 29.929688 99.59375 C 29.929688 98.660156 30.691406 97.902344 31.628906 97.902344 C 43.667969 97.902344 47.453125 110.222656 47.773438 116.738281 L 47.777344 145.617188 C 47.777344 146.554688 47.011719 147.3125 46.074219 147.3125 " fill-opacity="1" fill-rule="nonzero"/><path fill="#1f110a" d="M 110.960938 147.3125 C 110.023438 147.3125 109.261719 146.554688 109.261719 145.617188 L 109.261719 116.820312 C 109.582031 110.222656 113.371094 97.902344 125.410156 97.902344 C 126.347656 97.902344 127.105469 98.660156 127.105469 99.59375 C 127.105469 100.53125 126.347656 101.289062 125.410156 101.289062 C 113.5625 101.289062 112.691406 116.265625 112.660156 116.902344 L 112.660156 145.617188 C 112.660156 146.554688 111.898438 147.3125 110.960938 147.3125 " fill-opacity="1" fill-rule="nonzero"/><path fill="#fcd59a" d="M 109.246094 46.980469 C 109.246094 65.726562 94.617188 88.210938 76.578125 88.210938 C 58.535156 88.210938 43.910156 65.726562 43.910156 46.980469 C 43.910156 28.238281 58.535156 13.042969 76.578125 13.042969 C 94.617188 13.042969 109.246094 28.238281 109.246094 46.980469 " fill-opacity="1" fill-rule="nonzero"/><path fill="#f68c88" d="M 74.976562 88.152344 C 75.507812 88.1875 76.039062 88.210938 76.578125 88.210938 C 94.617188 88.210938 109.246094 65.726562 109.246094 46.980469 C 109.246094 45.277344 109.121094 43.601562 108.886719 41.964844 L 74.976562 41.964844 L 74.976562 88.152344 " fill-opacity="1" fill-rule="nonzero"/><path fill="#1f110a" d="M 76.578125 15.582031 C 59.96875 15.582031 46.460938 29.667969 46.460938 46.980469 C 46.460938 64.398438 60.355469 85.671875 76.578125 85.671875 C 92.796875 85.671875 106.695312 64.398438 106.695312 46.980469 C 106.695312 29.667969 93.183594 15.582031 76.578125 15.582031 Z M 76.578125 90.753906 C 57.066406 90.753906 41.359375 66.808594 41.359375 46.980469 C 41.359375 26.867188 57.160156 10.5 76.578125 10.5 C 95.996094 10.5 111.796875 26.867188 111.796875 46.980469 C 111.796875 66.808594 96.085938 90.753906 76.578125 90.753906 " fill-opacity="1" fill-rule="nonzero"/><path fill="#952722" d="M 111.523438 38.609375 C 111.523438 43.441406 110.144531 47.363281 105.292969 47.363281 L 47.777344 47.363281 C 42.925781 47.363281 41.542969 43.441406 41.542969 38.609375 C 41.542969 33.773438 42.925781 29.855469 47.777344 29.855469 L 105.292969 29.855469 C 110.144531 29.855469 111.523438 33.773438 111.523438 38.609375 " fill-opacity="1" fill-rule="nonzero"/><path fill="#952722" d="M 42.535156 32.75 C 42.535156 32.75 41.542969 1.835938 74.976562 1.835938 C 111.808594 1.835938 109.894531 32.75 109.894531 32.75 L 42.535156 32.75 " fill-opacity="1" fill-rule="nonzero"/><path fill="#71241f" d="M 105.292969 47.363281 C 110.144531 47.363281 111.523438 43.441406 111.523438 38.609375 C 111.523438 35.945312 111.101562 33.5625 109.910156 31.960938 C 109.90625 27.128906 108.292969 1.835938 74.976562 1.835938 L 74.976562 47.363281 L 105.292969 47.363281 " fill-opacity="1" fill-rule="nonzero"/><path fill="#1f110a" d="M 44.28125 31.058594 L 108.1875 31.058594 C 108.042969 27.59375 107.023438 19.164062 100.824219 12.621094 C 95.113281 6.585938 86.417969 3.527344 74.976562 3.527344 C 65.164062 3.527344 57.511719 6.285156 52.222656 11.722656 C 45.734375 18.40625 44.507812 27.40625 44.28125 31.058594 Z M 111.492188 34.445312 L 40.890625 34.445312 L 40.835938 32.804688 C 40.820312 32.242188 40.5 18.914062 49.78125 9.367188 C 55.734375 3.242188 64.210938 0.140625 74.976562 0.140625 C 87.410156 0.140625 96.949219 3.566406 103.328125 10.328125 C 112.289062 19.824219 111.625 32.328125 111.59375 32.855469 L 111.492188 34.445312 " fill-opacity="1" fill-rule="nonzero"/><path fill="#1f110a" d="M 48.128906 51.386719 C 48.980469 63.351562 58.226562 66.976562 66.300781 66.976562 C 70.734375 66.976562 72.964844 61.109375 74.027344 56.574219 C 75.019531 56.292969 76.277344 56.195312 77.707031 56.625 C 78.777344 61.15625 81.007812 66.976562 85.421875 66.976562 C 93.5 66.976562 102.742188 63.351562 103.589844 51.386719 L 48.128906 51.386719 " fill-opacity="1" fill-rule="nonzero"/><path fill="#ffffff" d="M 69.167969 58.375 C 69.167969 59.234375 67.421875 59.925781 65.273438 59.925781 C 63.121094 59.925781 61.375 59.234375 61.375 58.375 C 61.375 57.515625 63.121094 56.820312 65.273438 56.820312 C 67.421875 56.820312 69.167969 57.515625 69.167969 58.375 " fill-opacity="1" fill-rule="nonzero"/><path fill="#ffffff" d="M 89 58.375 C 89 59.234375 87.257812 59.925781 85.105469 59.925781 C 82.953125 59.925781 81.207031 59.234375 81.207031 58.375 C 81.207031 57.515625 82.953125 56.820312 85.105469 56.820312 C 87.257812 56.820312 89 57.515625 89 58.375 " fill-opacity="1" fill-rule="nonzero"/><path fill="#1f110a" d="M 124.558594 95.429688 L 32.761719 95.429688 L 38.496094 85.691406 L 119.882812 85.691406 L 124.558594 95.429688 " fill-opacity="1" fill-rule="nonzero"/><path fill="#1f110a" d="M 112.871094 110.679688 L 45.933594 110.679688 L 38.496094 100.9375 L 119.882812 100.9375 L 112.871094 110.679688 " fill-opacity="1" fill-rule="nonzero"/><path fill="#1f110a" d="M 128.382812 118.9375 L 111.382812 118.9375 L 112.445312 109.195312 L 129.65625 109.195312 L 128.382812 118.9375 " fill-opacity="1" fill-rule="nonzero"/><path fill="#1f110a" d="M 128.382812 133.761719 L 111.382812 133.761719 L 112.445312 124.019531 L 129.65625 124.019531 L 128.382812 133.761719 " fill-opacity="1" fill-rule="nonzero"/><path fill="#1f110a" d="M 29.359375 118.9375 L 46.359375 118.9375 L 45.296875 109.195312 L 28.085938 109.195312 L 29.359375 118.9375 " fill-opacity="1" fill-rule="nonzero"/><path fill="#1f110a" d="M 29.359375 133.761719 L 46.359375 133.761719 L 45.296875 124.019531 L 28.085938 124.019531 L 29.359375 133.761719 " fill-opacity="1" fill-rule="nonzero"/><path fill="#1f110a" d="M 111.382812 126.558594 L 45.933594 126.558594 L 46.074219 116.820312 L 111.382812 116.820312 L 111.382812 126.558594 " fill-opacity="1" fill-rule="nonzero"/><path fill="#1f110a" d="M 111.382812 140.960938 L 45.933594 140.960938 L 46.074219 131.21875 L 111.382812 131.21875 L 111.382812 140.960938 " fill-opacity="1" fill-rule="nonzero"/><path fill="#1f110a" d="M 105.292969 45.667969 L 47.777344 45.667969 C 46.421875 45.667969 43.246094 45.667969 43.246094 38.609375 C 43.246094 31.550781 46.421875 31.550781 47.777344 31.550781 L 105.292969 31.550781 C 106.648438 31.550781 109.824219 31.550781 109.824219 38.609375 C 109.824219 45.667969 106.648438 45.667969 105.292969 45.667969 Z M 43.910156 31.058594 L 43.910156 29.070312 C 41.652344 30.300781 39.84375 33.019531 39.84375 38.609375 C 39.84375 47.242188 44.160156 49.054688 47.777344 49.054688 L 105.292969 49.054688 C 108.910156 49.054688 113.226562 47.242188 113.226562 38.609375 C 113.226562 35.039062 112.480469 32.648438 111.359375 31.058594 L 43.910156 31.058594 " fill-opacity="1" fill-rule="nonzero"/><g transform="matrix(1, 0, 0, 1, 74, 145)"><g clip-path="url(#73e767080c)"><g fill="#58677e" fill-opacity="1"><g transform="translate(0.999997, 4.067974)"><g><path d="M 2.5 -1.21875 C 2.5 -0.925781 2.445312 -0.679688 2.34375 -0.484375 C 2.25 -0.296875 2.101562 -0.160156 1.90625 -0.078125 L 2.484375 0.578125 L 1.828125 0.578125 L 1.390625 0.03125 L 1.34375 0.03125 C 0.976562 0.03125 0.695312 -0.0703125 0.5 -0.28125 C 0.300781 -0.5 0.203125 -0.8125 0.203125 -1.21875 C 0.203125 -1.625 0.300781 -1.929688 0.5 -2.140625 C 0.695312 -2.347656 0.984375 -2.453125 1.359375 -2.453125 C 1.722656 -2.453125 2.003906 -2.34375 2.203125 -2.125 C 2.398438 -1.914062 2.5 -1.613281 2.5 -1.21875 Z M 0.734375 -1.21875 C 0.734375 -0.945312 0.785156 -0.738281 0.890625 -0.59375 C 0.992188 -0.457031 1.144531 -0.390625 1.34375 -0.390625 C 1.757812 -0.390625 1.96875 -0.664062 1.96875 -1.21875 C 1.96875 -1.757812 1.765625 -2.03125 1.359375 -2.03125 C 1.148438 -2.03125 0.992188 -1.960938 0.890625 -1.828125 C 0.785156 -1.691406 0.734375 -1.488281 0.734375 -1.21875 Z M 0.734375 -1.21875 "/></g></g></g><g fill="#58677e" fill-opacity="1"><g transform="translate(3.694763, 4.067974)"><g><path d="M 1.78125 0 L 1.609375 -0.578125 L 0.734375 -0.578125 L 0.546875 0 L 0 0 L 0.859375 -2.4375 L 1.484375 -2.4375 L 2.34375 0 Z M 1.484375 -1 C 1.328125 -1.53125 1.238281 -1.828125 1.21875 -1.890625 C 1.195312 -1.960938 1.179688 -2.015625 1.171875 -2.046875 C 1.128906 -1.910156 1.023438 -1.5625 0.859375 -1 Z M 1.484375 -1 "/></g></g></g><g clip-path="url(#c754b64b02)"><g fill="#58677e" fill-opacity="1"><g transform="translate(6.030779, 4.067974)"><g><path d="M 0.296875 -2.421875 L 1.0625 -2.421875 C 1.40625 -2.421875 1.648438 -2.367188 1.796875 -2.265625 C 1.953125 -2.171875 2.03125 -2.019531 2.03125 -1.8125 C 2.03125 -1.664062 1.992188 -1.546875 1.921875 -1.453125 C 1.859375 -1.359375 1.773438 -1.300781 1.671875 -1.28125 L 1.671875 -1.265625 C 1.816406 -1.234375 1.921875 -1.171875 1.984375 -1.078125 C 2.054688 -0.984375 2.09375 -0.859375 2.09375 -0.703125 C 2.09375 -0.484375 2.015625 -0.3125 1.859375 -0.1875 C 1.703125 -0.0625 1.484375 0 1.203125 0 L 0.296875 0 Z M 0.8125 -1.46875 L 1.109375 -1.46875 C 1.253906 -1.46875 1.359375 -1.488281 1.421875 -1.53125 C 1.484375 -1.570312 1.515625 -1.640625 1.515625 -1.734375 C 1.515625 -1.828125 1.476562 -1.894531 1.40625 -1.9375 C 1.34375 -1.976562 1.238281 -2 1.09375 -2 L 0.8125 -2 Z M 0.8125 -1.046875 L 0.8125 -0.421875 L 1.15625 -0.421875 C 1.289062 -0.421875 1.390625 -0.445312 1.453125 -0.5 C 1.523438 -0.5625 1.5625 -0.644531 1.5625 -0.75 C 1.5625 -0.945312 1.421875 -1.046875 1.140625 -1.046875 Z M 0.8125 -1.046875 "/></g></g></g></g></g></g></svg>