<svg xmlns="http://www.w3.org/2000/svg" xmlns:xlink="http://www.w3.org/1999/xlink" width="200" zoomAndPan="magnify" viewBox="0 0 150 149.999998" height="200" preserveAspectRatio="xMidYMid meet" version="1.0"><defs><g/><clipPath id="8d90fbd80b"><path d="M 120 130 L 147.75 130 L 147.75 150 L 120 150 Z M 120 130 " clip-rule="nonzero"/></clipPath><clipPath id="c9ca84a60b"><path d="M 6 1 L 8.320312 1 L 8.320312 5 L 6 5 Z M 6 1 " clip-rule="nonzero"/></clipPath><clipPath id="9140bb073a"><rect x="0" width="9" y="0" height="5"/></clipPath></defs><path fill="#879ea3" d="M 99.515625 150.003906 L 99.515625 123.773438 L 73.882812 116.417969 L 73.882812 116.316406 L 73.703125 116.367188 L 73.523438 116.316406 L 73.523438 116.417969 L 42.933594 125.195312 L 42.933594 150.003906 L 99.515625 150.003906 " fill-opacity="1" fill-rule="nonzero"/><path fill="#101821" d="M 125.972656 150.003906 C 126.011719 138.871094 125.792969 131.3125 125.792969 131.3125 L 90.085938 121.066406 L 90.085938 150.003906 L 125.972656 150.003906 " fill-opacity="1" fill-rule="nonzero"/><path fill="#101821" d="M 60.746094 150.003906 L 60.746094 120.085938 L 21.613281 131.3125 C 21.613281 131.3125 21.394531 138.871094 21.4375 150.003906 L 60.746094 150.003906 " fill-opacity="1" fill-rule="nonzero"/><path fill="#c1815d" d="M 15.730469 150.003906 L 14.0625 146.582031 C 14.0625 146.582031 11.078125 147.050781 8.046875 150.003906 L 15.730469 150.003906 " fill-opacity="1" fill-rule="nonzero"/><path fill="#101821" d="M 26.945312 150.003906 L 25.726562 130.308594 C 25.726562 130.308594 6.101562 135.246094 0.0117188 150.003906 L 26.945312 150.003906 " fill-opacity="1" fill-rule="nonzero"/><path fill="#c1815d" d="M 139.652344 150.003906 C 136.617188 147.050781 133.636719 146.582031 133.636719 146.582031 L 131.96875 150.003906 L 139.652344 150.003906 " fill-opacity="1" fill-rule="nonzero"/><g clip-path="url(#8d90fbd80b)"><path fill="#101821" d="M 147.691406 150.003906 C 141.597656 135.246094 121.972656 130.308594 121.972656 130.308594 L 120.03125 150.003906 L 147.691406 150.003906 " fill-opacity="1" fill-rule="nonzero"/></g><path fill="#d2926e" d="M 91.382812 124.257812 C 91.382812 124.257812 90.164062 109.722656 91.210938 86.960938 L 74.976562 91.058594 L 59.027344 84.691406 C 60.074219 107.453125 58.582031 125.292969 58.582031 125.292969 C 65.121094 140.113281 84.839844 139.078125 91.382812 124.257812 " fill-opacity="1" fill-rule="nonzero"/><path fill="#aa6954" d="M 59.375 105.378906 C 64.585938 109.378906 76.351562 118.496094 90.863281 112.476562 C 90.792969 107.402344 90.777344 98.710938 91.03125 91.441406 L 59.375 96.785156 C 59.410156 99.828125 59.40625 102.703125 59.375 105.378906 " fill-opacity="1" fill-rule="nonzero"/><path fill="#0a0e11" d="M 62.253906 150.003906 C 62.082031 139 61.8125 131.128906 61.402344 129.859375 L 59.203125 113.324219 L 42.757812 123.816406 C 42.757812 123.816406 35.445312 142.136719 34.125 146.582031 C 34.125 146.582031 39.925781 148.054688 45.097656 150.003906 L 62.253906 150.003906 " fill-opacity="1" fill-rule="nonzero"/><path fill="#0a0e11" d="M 107.011719 150.003906 C 111.46875 148.476562 115.703125 147.402344 115.703125 147.402344 C 114.378906 142.957031 107.070312 124.632812 107.070312 124.632812 L 90.894531 113.820312 L 88.425781 130.679688 C 88.023438 131.914062 87.757812 139.425781 87.582031 150.003906 L 107.011719 150.003906 " fill-opacity="1" fill-rule="nonzero"/><path fill="#c1815d" d="M 45.335938 55.90625 C 45.335938 55.90625 39.046875 49.1875 34.328125 56.457031 C 34.328125 56.457031 33.628906 66.523438 37.996094 72.625 C 37.996094 72.625 43.789062 83.265625 47.441406 76.640625 L 45.335938 55.90625 " fill-opacity="1" fill-rule="nonzero"/><path fill="#9b654d" d="M 44.988281 76.738281 C 44.046875 76.738281 42.742188 76.210938 41.542969 73.890625 C 41.542969 73.890625 43.410156 73.105469 42.949219 70.03125 C 42.492188 66.957031 39.804688 65.84375 41.542969 62.703125 C 41.542969 62.703125 41.59375 60.480469 39.796875 60.480469 C 39.105469 60.480469 38.140625 60.808594 36.796875 61.71875 C 36.796875 61.71875 37.289062 55.8125 40.8125 55.8125 C 41.671875 55.8125 42.710938 56.164062 43.964844 57.035156 C 44.34375 64.152344 45.371094 71.398438 46.203125 76.429688 C 46.019531 76.53125 45.574219 76.738281 44.988281 76.738281 " fill-opacity="1" fill-rule="nonzero"/><path fill="#c1815d" d="M 102.414062 55.90625 C 102.414062 55.90625 108.699219 49.1875 113.417969 56.457031 C 113.417969 56.457031 114.113281 66.523438 109.75 72.625 C 109.75 72.625 103.957031 83.265625 100.300781 76.640625 L 102.414062 55.90625 " fill-opacity="1" fill-rule="nonzero"/><path fill="#9b654d" d="M 102.757812 76.738281 C 102.132812 76.738281 101.671875 76.503906 101.511719 76.414062 C 102.34375 71.386719 103.363281 64.160156 103.746094 57.0625 C 105.015625 56.171875 106.066406 55.8125 106.929688 55.8125 C 110.457031 55.8125 110.949219 61.71875 110.949219 61.71875 C 109.601562 60.808594 108.640625 60.480469 107.949219 60.480469 C 106.152344 60.480469 106.203125 62.703125 106.203125 62.703125 C 107.9375 65.84375 105.25 66.957031 104.792969 70.03125 C 104.335938 73.105469 106.203125 73.890625 106.203125 73.890625 C 105.003906 76.210938 103.699219 76.738281 102.757812 76.738281 " fill-opacity="1" fill-rule="nonzero"/><path fill="#c1815d" d="M 103.570312 44.953125 C 103.570312 44.953125 102.105469 16.03125 74.210938 16.03125 L 74.175781 16.03125 C 74.066406 16.03125 73.964844 16.042969 73.855469 16.042969 C 73.75 16.042969 73.644531 16.03125 73.535156 16.03125 L 73.503906 16.03125 C 45.605469 16.03125 44.140625 44.953125 44.140625 44.953125 C 42.519531 59.605469 47.40625 83.046875 47.40625 83.046875 C 53.738281 96.988281 62.125 105.417969 62.125 105.417969 C 62.125 105.417969 67.109375 108.320312 73.796875 108.316406 L 73.796875 108.320312 L 73.910156 108.320312 L 73.910156 108.316406 C 80.601562 108.320312 85.589844 105.417969 85.589844 105.417969 C 85.589844 105.417969 93.972656 96.988281 100.300781 83.046875 C 100.300781 83.046875 105.191406 59.605469 103.570312 44.953125 " fill-opacity="1" fill-rule="nonzero"/><path fill="#84493d" d="M 62.003906 88.511719 C 62.003906 88.511719 68.167969 96.875 74.085938 95.214844 C 74.085938 95.214844 81.019531 97.175781 86.335938 88.511719 C 86.335938 88.511719 73.964844 89.964844 62.003906 88.511719 " fill-opacity="1" fill-rule="nonzero"/><path fill="#ffffff" d="M 63.472656 88.804688 C 63.472656 88.804688 64.261719 89.816406 65.4375 90.601562 C 65.4375 90.601562 69.039062 92.804688 74.476562 92.40625 C 74.476562 92.40625 79.824219 92.453125 83.382812 90.308594 L 85.28125 88.609375 L 74.171875 89.195312 L 63.472656 88.804688 " fill-opacity="1" fill-rule="nonzero"/><path fill="#9b654d" d="M 80.480469 74.9375 C 77.730469 64.996094 80.480469 53.484375 80.480469 53.484375 C 80.480469 53.484375 85.3125 51.527344 88.566406 51.527344 C 89.019531 51.527344 89.445312 51.5625 89.820312 51.652344 C 92.882812 52.359375 95.804688 57.667969 95.804688 57.667969 L 85.453125 57.667969 C 78.640625 61.742188 80.480469 74.9375 80.480469 74.9375 " fill-opacity="1" fill-rule="nonzero"/><path fill="#1d0c0e" d="M 101.652344 54.660156 C 101.652344 54.660156 100.390625 50.167969 95.058594 49.625 C 95.058594 49.625 83.136719 50.953125 79.863281 53.175781 C 79.863281 53.175781 79.46875 54.617188 81.175781 56.1875 C 81.175781 56.1875 93.050781 53.949219 95.320312 52.371094 C 95.320312 52.371094 100.738281 53.351562 101.652344 54.660156 " fill-opacity="1" fill-rule="nonzero"/><path fill="#1d0c0e" d="M 47.441406 53.960938 C 47.441406 53.960938 48.707031 49.472656 54.039062 48.925781 C 54.039062 48.925781 65.960938 50.257812 69.234375 52.480469 C 69.234375 52.480469 69.625 53.921875 67.921875 55.488281 C 67.921875 55.488281 56.046875 53.253906 53.777344 51.671875 C 53.777344 51.671875 48.359375 52.652344 47.441406 53.960938 " fill-opacity="1" fill-rule="nonzero"/><path fill="#ffffff" d="M 81.480469 62.15625 L 84.195312 58.507812 C 84.195312 58.507812 92.535156 56.632812 97.191406 58.507812 C 97.191406 58.507812 98.164062 60.460938 98.550781 62.203125 C 98.550781 62.203125 91.375 65.449219 81.480469 62.15625 " fill-opacity="1" fill-rule="nonzero"/><path fill="#89543a" d="M 93.972656 60.207031 C 93.972656 62.097656 92.4375 63.632812 90.542969 63.632812 C 88.652344 63.632812 87.113281 62.097656 87.113281 60.207031 C 87.113281 58.3125 88.652344 56.78125 90.542969 56.78125 C 92.4375 56.78125 93.972656 58.3125 93.972656 60.207031 " fill-opacity="1" fill-rule="nonzero"/><path fill="#342822" d="M 92.011719 60.207031 C 92.011719 61.015625 91.359375 61.671875 90.542969 61.671875 C 89.730469 61.671875 89.074219 61.015625 89.074219 60.207031 C 89.074219 59.394531 89.730469 58.738281 90.542969 58.738281 C 91.359375 58.738281 92.011719 59.394531 92.011719 60.207031 " fill-opacity="1" fill-rule="nonzero"/><path fill="#342822" d="M 81.816406 61.707031 C 81.816406 61.707031 82.980469 58.0625 84.050781 57.675781 C 84.050781 57.675781 91.40625 54.75 97.09375 57.214844 C 97.09375 57.214844 98.644531 61.621094 98.550781 62.203125 C 98.550781 62.203125 96.511719 58.863281 95.929688 58.617188 C 95.929688 58.617188 89.53125 56.972656 84.4375 59.367188 L 81.816406 61.707031 " fill-opacity="1" fill-rule="nonzero"/><path fill="#ffffff" d="M 93.125 59.609375 C 93.125 60.089844 92.734375 60.480469 92.25 60.480469 C 91.765625 60.480469 91.378906 60.089844 91.378906 59.609375 C 91.378906 59.128906 91.765625 58.738281 92.25 58.738281 C 92.734375 58.738281 93.125 59.128906 93.125 59.609375 " fill-opacity="1" fill-rule="nonzero"/><path fill="#ffffff" d="M 68.253906 61.835938 L 65.535156 58.1875 C 65.535156 58.1875 57.195312 56.3125 52.539062 58.1875 C 52.539062 58.1875 51.570312 60.140625 51.183594 61.886719 C 51.183594 61.886719 58.359375 65.128906 68.253906 61.835938 " fill-opacity="1" fill-rule="nonzero"/><path fill="#89543a" d="M 55.757812 59.886719 C 55.757812 61.777344 57.296875 63.3125 59.1875 63.3125 C 61.082031 63.3125 62.621094 61.777344 62.621094 59.886719 C 62.621094 57.996094 61.082031 56.457031 59.1875 56.457031 C 57.296875 56.457031 55.757812 57.996094 55.757812 59.886719 " fill-opacity="1" fill-rule="nonzero"/><path fill="#342822" d="M 57.71875 59.886719 C 57.71875 60.695312 58.378906 61.351562 59.1875 61.351562 C 60 61.351562 60.65625 60.695312 60.65625 59.886719 C 60.65625 59.074219 60 58.417969 59.1875 58.417969 C 58.378906 58.417969 57.71875 59.074219 57.71875 59.886719 " fill-opacity="1" fill-rule="nonzero"/><path fill="#342822" d="M 67.917969 61.382812 C 67.917969 61.382812 66.75 57.746094 65.683594 57.355469 C 65.683594 57.355469 58.324219 54.429688 52.640625 56.894531 C 52.640625 56.894531 51.085938 61.300781 51.183594 61.886719 C 51.183594 61.886719 53.222656 58.542969 53.808594 58.300781 C 53.808594 58.300781 60.203125 56.65625 65.292969 59.050781 L 67.917969 61.382812 " fill-opacity="1" fill-rule="nonzero"/><path fill="#ffffff" d="M 56.609375 59.289062 C 56.609375 59.769531 57.003906 60.160156 57.484375 60.160156 C 57.964844 60.160156 58.355469 59.769531 58.355469 59.289062 C 58.355469 58.808594 57.964844 58.417969 57.484375 58.417969 C 57.003906 58.417969 56.609375 58.808594 56.609375 59.289062 " fill-opacity="1" fill-rule="nonzero"/><path fill="#9b654d" d="M 75.578125 82.367188 C 74.527344 82.367188 73.910156 81.582031 73.910156 81.582031 C 73.210938 80.1875 70.066406 78.921875 70.066406 78.921875 C 70.226562 78.828125 70.429688 78.789062 70.660156 78.789062 C 72.023438 78.789062 74.304688 80.230469 74.304688 80.230469 C 74.710938 80.507812 75.175781 80.597656 75.613281 80.597656 C 76.492188 80.597656 77.273438 80.230469 77.273438 80.230469 C 78.703125 79.058594 80.132812 78.964844 80.554688 78.964844 C 80.632812 78.964844 80.675781 78.964844 80.675781 78.964844 C 81.460938 77.089844 80.222656 75.257812 80.222656 75.257812 C 82.871094 77.046875 81.421875 80.230469 81.421875 80.230469 C 81.246094 80.167969 81.050781 80.140625 80.84375 80.140625 C 79.605469 80.140625 77.96875 81.101562 77.96875 81.101562 C 77.035156 82.066406 76.222656 82.367188 75.578125 82.367188 " fill-opacity="1" fill-rule="nonzero"/><path fill="#9b6154" d="M 74.175781 90.679688 C 82.902344 90.15625 86.917969 88.28125 86.917969 88.28125 C 85.695312 88.933594 77.136719 87.714844 77.136719 87.714844 L 74.171875 88.84375 L 71.207031 87.714844 C 71.207031 87.714844 62.648438 88.933594 61.425781 88.28125 C 61.425781 88.28125 65.441406 90.15625 74.171875 90.679688 L 74.175781 90.679688 " fill-opacity="1" fill-rule="nonzero"/><path fill="#1d0c0e" d="M 44.316406 61.886719 C 44.316406 61.886719 47.253906 55.375 46.289062 46.8125 C 46.289062 46.8125 50.050781 32.160156 54.410156 27.800781 C 54.410156 27.800781 63.917969 30.765625 75.144531 31.636719 C 75.144531 31.636719 85.855469 31.113281 93.972656 27.800781 C 93.972656 27.800781 97.550781 43.324219 101.652344 46.113281 C 101.652344 46.113281 102.332031 57.839844 103.609375 59.214844 L 105.398438 53.769531 L 106.882812 53.242188 C 106.882812 53.242188 108.890625 34.164062 106.203125 23.175781 C 106.203125 23.175781 102.308594 -0.0195312 73.160156 0.941406 C 47.441406 1.789062 42.710938 19.644531 42.710938 24.183594 C 42.710938 24.183594 38.667969 48.160156 44.269531 61.351562 " fill-opacity="1" fill-rule="nonzero"/><path fill="#1d0c0e" d="M 98.550781 76.246094 C 98.550781 76.246094 92.265625 82.453125 91.414062 87.714844 C 91.414062 87.714844 83.308594 103.058594 78.753906 99.53125 L 77.9375 96.785156 L 74.171875 96.542969 L 74.171875 96.523438 L 74.011719 96.53125 L 73.855469 96.523438 L 73.855469 96.542969 L 70.085938 96.785156 L 69.273438 99.53125 C 64.714844 103.058594 56.609375 87.714844 56.609375 87.714844 C 55.757812 82.453125 50.441406 76.738281 50.441406 76.738281 C 48.558594 75.382812 45.09375 68.933594 45.09375 68.933594 L 46.902344 83.933594 C 48.214844 90.449219 61.425781 105.679688 61.425781 105.679688 C 65.914062 109.023438 72.382812 109.328125 73.855469 109.351562 L 73.855469 109.355469 C 73.855469 109.355469 73.917969 109.355469 74.011719 109.355469 C 74.105469 109.355469 74.171875 109.355469 74.171875 109.355469 L 74.171875 109.351562 C 75.640625 109.328125 82.109375 109.023438 86.597656 105.679688 C 86.597656 105.679688 99.808594 90.449219 101.121094 83.933594 L 102.933594 68.933594 C 102.933594 68.933594 100.433594 74.886719 98.550781 76.246094 " fill-opacity="1" fill-rule="nonzero"/><path fill="#1d0c0e" d="M 89.589844 83.179688 C 83.902344 82.042969 74.171875 82.367188 74.171875 82.367188 C 74.171875 82.367188 64.4375 82.042969 58.75 83.179688 C 58.75 83.179688 56.617188 84.203125 57.71875 92.453125 L 59.347656 93.773438 C 59.347656 93.773438 58.332031 87.886719 62.003906 85.402344 C 62.003906 85.402344 69.339844 89.195312 74.171875 85.402344 C 78.996094 89.195312 86.335938 85.402344 86.335938 85.402344 C 90.003906 87.886719 88.988281 93.773438 88.988281 93.773438 L 90.617188 92.453125 C 91.722656 84.203125 89.589844 83.179688 89.589844 83.179688 " fill-opacity="1" fill-rule="nonzero"/><g transform="matrix(1, 0, 0, 1, 74, 145)"><g clip-path="url(#9140bb073a)"><g fill="#58677e" fill-opacity="1"><g transform="translate(0.999997, 4.067974)"><g><path d="M 2.5 -1.21875 C 2.5 -0.925781 2.445312 -0.679688 2.34375 -0.484375 C 2.25 -0.296875 2.101562 -0.160156 1.90625 -0.078125 L 2.484375 0.578125 L 1.828125 0.578125 L 1.390625 0.03125 L 1.34375 0.03125 C 0.976562 0.03125 0.695312 -0.0703125 0.5 -0.28125 C 0.300781 -0.5 0.203125 -0.8125 0.203125 -1.21875 C 0.203125 -1.625 0.300781 -1.929688 0.5 -2.140625 C 0.695312 -2.347656 0.984375 -2.453125 1.359375 -2.453125 C 1.722656 -2.453125 2.003906 -2.34375 2.203125 -2.125 C 2.398438 -1.914062 2.5 -1.613281 2.5 -1.21875 Z M 0.734375 -1.21875 C 0.734375 -0.945312 0.785156 -0.738281 0.890625 -0.59375 C 0.992188 -0.457031 1.144531 -0.390625 1.34375 -0.390625 C 1.757812 -0.390625 1.96875 -0.664062 1.96875 -1.21875 C 1.96875 -1.757812 1.765625 -2.03125 1.359375 -2.03125 C 1.148438 -2.03125 0.992188 -1.960938 0.890625 -1.828125 C 0.785156 -1.691406 0.734375 -1.488281 0.734375 -1.21875 Z M 0.734375 -1.21875 "/></g></g></g><g fill="#58677e" fill-opacity="1"><g transform="translate(3.694763, 4.067974)"><g><path d="M 1.78125 0 L 1.609375 -0.578125 L 0.734375 -0.578125 L 0.546875 0 L 0 0 L 0.859375 -2.4375 L 1.484375 -2.4375 L 2.34375 0 Z M 1.484375 -1 C 1.328125 -1.53125 1.238281 -1.828125 1.21875 -1.890625 C 1.195312 -1.960938 1.179688 -2.015625 1.171875 -2.046875 C 1.128906 -1.910156 1.023438 -1.5625 0.859375 -1 Z M 1.484375 -1 "/></g></g></g><g clip-path="url(#c9ca84a60b)"><g fill="#58677e" fill-opacity="1"><g transform="translate(6.030779, 4.067974)"><g><path d="M 0.296875 -2.421875 L 1.0625 -2.421875 C 1.40625 -2.421875 1.648438 -2.367188 1.796875 -2.265625 C 1.953125 -2.171875 2.03125 -2.019531 2.03125 -1.8125 C 2.03125 -1.664062 1.992188 -1.546875 1.921875 -1.453125 C 1.859375 -1.359375 1.773438 -1.300781 1.671875 -1.28125 L 1.671875 -1.265625 C 1.816406 -1.234375 1.921875 -1.171875 1.984375 -1.078125 C 2.054688 -0.984375 2.09375 -0.859375 2.09375 -0.703125 C 2.09375 -0.484375 2.015625 -0.3125 1.859375 -0.1875 C 1.703125 -0.0625 1.484375 0 1.203125 0 L 0.296875 0 Z M 0.8125 -1.46875 L 1.109375 -1.46875 C 1.253906 -1.46875 1.359375 -1.488281 1.421875 -1.53125 C 1.484375 -1.570312 1.515625 -1.640625 1.515625 -1.734375 C 1.515625 -1.828125 1.476562 -1.894531 1.40625 -1.9375 C 1.34375 -1.976562 1.238281 -2 1.09375 -2 L 0.8125 -2 Z M 0.8125 -1.046875 L 0.8125 -0.421875 L 1.15625 -0.421875 C 1.289062 -0.421875 1.390625 -0.445312 1.453125 -0.5 C 1.523438 -0.5625 1.5625 -0.644531 1.5625 -0.75 C 1.5625 -0.945312 1.421875 -1.046875 1.140625 -1.046875 Z M 0.8125 -1.046875 "/></g></g></g></g></g></g></svg>