<svg xmlns="http://www.w3.org/2000/svg" xmlns:xlink="http://www.w3.org/1999/xlink" width="200" zoomAndPan="magnify" viewBox="0 0 150 149.999998" height="200" preserveAspectRatio="xMidYMid meet" version="1.0"><defs><g/><clipPath id="cde829b886"><path d="M 93 94 L 110.0625 94 L 110.0625 116 L 93 116 Z M 93 94 " clip-rule="nonzero"/></clipPath><clipPath id="8c544b4a14"><path d="M 40.3125 14 L 101 14 L 101 60 L 40.3125 60 Z M 40.3125 14 " clip-rule="nonzero"/></clipPath><clipPath id="9549225c0f"><path d="M 6 1 L 8.320312 1 L 8.320312 5 L 6 5 Z M 6 1 " clip-rule="nonzero"/></clipPath><clipPath id="b7fce4f41a"><rect x="0" width="9" y="0" height="5"/></clipPath></defs><path fill="#f89c63" d="M 70.777344 90.984375 L 80.507812 90.984375 C 80.167969 88.015625 79.183594 85.046875 79.738281 82.078125 C 76.957031 81.152344 74.167969 81.152344 71.382812 82.078125 C 71.941406 85.046875 71.113281 88.015625 70.777344 90.984375 " fill-opacity="1" fill-rule="nonzero"/><path fill="#1e1c1c" d="M 98.804688 159.703125 L 98.804688 94.671875 L 80.351562 90.984375 L 71.0625 90.984375 L 52.613281 94.671875 L 52.613281 159.703125 L 98.804688 159.703125 " fill-opacity="1" fill-rule="nonzero"/><path fill="#f89c63" d="M 106.613281 104.832031 L 97.363281 104.832031 C 98.867188 115.046875 100.191406 128.488281 101.464844 132.757812 L 108.660156 132.210938 C 109.246094 127.683594 108.363281 120.992188 107.753906 113.464844 C 107.503906 110.402344 107.085938 107.5 106.613281 104.832031 " fill-opacity="1" fill-rule="nonzero"/><path fill="#f89c63" d="M 103.046875 159.703125 L 107.703125 159.703125 C 108.046875 155.367188 108.304688 150.441406 108.304688 143.160156 C 108.304688 137.964844 109.003906 134.371094 108.644531 130.160156 L 101.101562 130.160156 C 100.738281 134.371094 101.308594 138.371094 101.308594 143.566406 C 101.308594 150.78125 102.351562 155.539062 103.046875 159.703125 " fill-opacity="1" fill-rule="nonzero"/><g clip-path="url(#cde829b886)"><path fill="#1e1c1c" d="M 110.085938 111.5 L 107.15625 100.652344 C 106.011719 96.410156 102.0625 93.78125 98.34375 94.773438 C 94.628906 95.765625 92.542969 100.011719 93.6875 104.253906 L 96.621094 115.101562 L 110.085938 111.5 " fill-opacity="1" fill-rule="nonzero"/></g><path fill="#f89c63" d="M 44.921875 104.832031 L 54.171875 104.832031 C 52.671875 115.046875 51.347656 128.488281 50.070312 132.757812 L 42.875 132.210938 C 42.289062 127.683594 43.175781 120.992188 43.785156 113.464844 C 44.03125 110.402344 44.449219 107.5 44.921875 104.832031 " fill-opacity="1" fill-rule="nonzero"/><path fill="#f89c63" d="M 43.832031 159.703125 L 48.492188 159.703125 C 49.1875 155.539062 50.226562 150.78125 50.226562 143.566406 C 50.226562 138.371094 50.796875 134.371094 50.433594 130.160156 L 42.890625 130.160156 C 42.535156 134.371094 43.230469 137.964844 43.230469 143.160156 C 43.230469 150.441406 43.492188 155.367188 43.832031 159.703125 " fill-opacity="1" fill-rule="nonzero"/><path fill="#1e1c1c" d="M 41.449219 111.5 L 44.382812 100.652344 C 45.527344 96.410156 49.472656 93.78125 53.191406 94.773438 C 56.910156 95.765625 58.996094 100.011719 57.847656 104.253906 L 54.917969 115.101562 L 41.449219 111.5 " fill-opacity="1" fill-rule="nonzero"/><path fill="#f89c63" d="M 70.777344 90.984375 C 70.789062 93.644531 72.964844 95.796875 75.640625 95.796875 C 78.320312 95.796875 80.492188 93.644531 80.507812 90.984375 L 70.777344 90.984375 " fill-opacity="1" fill-rule="nonzero"/><path fill="#f89c63" d="M 104.707031 59.335938 C 104.707031 62.582031 102.867188 65.214844 100.597656 65.214844 C 98.328125 65.214844 96.488281 62.582031 96.488281 59.335938 C 96.488281 56.089844 98.328125 53.457031 100.597656 53.457031 C 102.867188 53.457031 104.707031 56.089844 104.707031 59.335938 " fill-opacity="1" fill-rule="nonzero"/><path fill="#f89c63" d="M 54.808594 59.335938 C 54.808594 62.582031 52.96875 65.214844 50.699219 65.214844 C 48.429688 65.214844 46.589844 62.582031 46.589844 59.335938 C 46.589844 56.089844 48.429688 53.457031 50.699219 53.457031 C 52.96875 53.457031 54.808594 56.089844 54.808594 59.335938 " fill-opacity="1" fill-rule="nonzero"/><path fill="#f89c63" d="M 100.644531 62.164062 C 100.644531 67.121094 89.441406 87.058594 75.613281 87.058594 C 61.789062 87.058594 50.585938 67.367188 50.585938 62.164062 L 50.585938 41.535156 C 50.585938 27.785156 61.789062 16.640625 75.613281 16.640625 C 89.441406 16.640625 100.644531 27.785156 100.644531 41.535156 L 100.644531 62.164062 " fill-opacity="1" fill-rule="nonzero"/><path fill="#282321" d="M 64.382812 57.972656 C 64.382812 59.589844 63.5 60.902344 62.417969 60.902344 C 61.332031 60.902344 60.453125 59.589844 60.453125 57.972656 C 60.453125 56.355469 61.332031 55.042969 62.417969 55.042969 C 63.5 55.042969 64.382812 56.355469 64.382812 57.972656 " fill-opacity="1" fill-rule="nonzero"/><path fill="#282321" d="M 88.757812 57.972656 C 88.757812 59.589844 87.878906 60.902344 86.796875 60.902344 C 85.707031 60.902344 84.832031 59.589844 84.832031 57.972656 C 84.832031 56.355469 85.707031 55.042969 86.796875 55.042969 C 87.878906 55.042969 88.757812 56.355469 88.757812 57.972656 " fill-opacity="1" fill-rule="nonzero"/><path fill="#282321" d="M 90.515625 52.683594 C 88.964844 52.363281 87.8125 52.097656 86.6875 52.089844 C 86.128906 52.082031 85.574219 52.125 84.964844 52.234375 C 84.347656 52.332031 83.703125 52.519531 82.90625 52.683594 C 83.152344 51.914062 83.671875 51.289062 84.34375 50.828125 C 85.019531 50.371094 85.871094 50.117188 86.71875 50.136719 C 87.566406 50.148438 88.382812 50.421875 89.050781 50.863281 C 89.703125 51.3125 90.257812 51.90625 90.515625 52.683594 " fill-opacity="1" fill-rule="nonzero"/><path fill="#282321" d="M 66.34375 52.683594 C 64.789062 52.363281 63.640625 52.097656 62.515625 52.089844 C 61.957031 52.082031 61.402344 52.125 60.792969 52.234375 C 60.179688 52.332031 59.53125 52.519531 58.738281 52.683594 C 58.984375 51.914062 59.5 51.289062 60.175781 50.828125 C 60.847656 50.371094 61.699219 50.117188 62.546875 50.136719 C 63.394531 50.148438 64.210938 50.421875 64.875 50.863281 C 65.535156 51.3125 66.089844 51.90625 66.34375 52.683594 " fill-opacity="1" fill-rule="nonzero"/><path fill="#d76a44" d="M 75.359375 53.292969 L 73.054688 66.925781 L 77.597656 66.890625 L 77.589844 65.914062 L 74.214844 65.941406 L 76.328125 53.457031 L 75.359375 53.292969 " fill-opacity="1" fill-rule="nonzero"/><path fill="#f68554" d="M 62.566406 68.613281 C 59.550781 68.613281 57.113281 67.445312 57.113281 66.003906 C 57.113281 64.566406 59.550781 63.398438 62.566406 63.398438 C 65.578125 63.398438 68.015625 64.566406 68.015625 66.003906 C 68.015625 67.445312 65.578125 68.613281 62.566406 68.613281 " fill-opacity="1" fill-rule="nonzero"/><path fill="#f68554" d="M 88.488281 68.613281 C 85.480469 68.613281 83.039062 67.445312 83.039062 66.003906 C 83.039062 64.566406 85.480469 63.398438 88.488281 63.398438 C 91.503906 63.398438 93.941406 64.566406 93.941406 66.003906 C 93.941406 67.445312 91.503906 68.613281 88.488281 68.613281 " fill-opacity="1" fill-rule="nonzero"/><path fill="#a71933" d="M 68.796875 73.144531 C 68.796875 73.144531 72.976562 73.941406 77.386719 72.808594 C 79.792969 72.191406 82.171875 70.765625 84.136719 68.628906 C 84.136719 68.628906 85.914062 76.992188 79.042969 79.066406 C 71.894531 81.222656 68.796875 73.144531 68.796875 73.144531 " fill-opacity="1" fill-rule="nonzero"/><path fill="#ffffff" d="M 78.046875 75.007812 C 80.347656 74.136719 80.925781 73.953125 83.121094 72.460938 C 84.582031 71.46875 84.132812 68.628906 84.132812 68.628906 C 82.171875 70.765625 79.792969 72.191406 77.386719 72.808594 C 72.976562 73.941406 68.796875 73.144531 68.796875 73.144531 C 68.796875 73.144531 69.824219 74.929688 71.3125 75.433594 C 72.425781 75.808594 74.589844 76.3125 78.046875 75.007812 " fill-opacity="1" fill-rule="nonzero"/><path fill="#f36081" d="M 79.046875 79.078125 C 80.667969 78.589844 81.792969 77.746094 82.589844 76.75 C 81.828125 75.890625 80.101562 75.566406 78.265625 76.050781 C 76.210938 76.59375 74.777344 77.945312 74.824219 79.1875 C 76.03125 79.53125 77.4375 79.566406 79.046875 79.078125 " fill-opacity="1" fill-rule="nonzero"/><g clip-path="url(#8c544b4a14)"><path fill="#1c1815" d="M 93.921875 24.59375 C 89.097656 16.628906 73.875 9.996094 60.453125 19.570312 C 59.417969 20.3125 58.527344 21.023438 57.753906 21.699219 C 49.898438 26.535156 44.09375 20.648438 44.09375 20.648438 C 44.277344 24.320312 46.097656 26.722656 47.898438 28.226562 C 45.558594 28.304688 43.222656 27.640625 40.332031 26.242188 C 40.332031 26.242188 43.222656 34.601562 50.636719 37.804688 L 50.636719 59.519531 C 50.636719 59.519531 53.523438 59.273438 53.523438 55.207031 C 53.523438 50.824219 53.523438 54.65625 53.523438 49.429688 C 53.523438 41.761719 60.136719 39.605469 62.890625 39.042969 C 71.351562 39.054688 77.136719 39.097656 81.308594 39.097656 C 81.703125 39.097656 82.125 39.089844 82.554688 39.074219 C 82.746094 39.089844 82.941406 39.097656 83.152344 39.097656 C 94.195312 39.097656 97.800781 49.515625 97.800781 54.277344 C 97.800781 58.378906 100.074219 59.304688 100.703125 59.484375 C 100.703125 59.484375 100.703125 41.742188 100.703125 34.425781 C 100.703125 26.734375 96.320312 24.980469 93.921875 24.59375 " fill-opacity="1" fill-rule="nonzero"/></g><g transform="matrix(1, 0, 0, 1, 74, 145)"><g clip-path="url(#b7fce4f41a)"><g fill="#58677e" fill-opacity="1"><g transform="translate(0.999997, 4.067974)"><g><path d="M 2.5 -1.21875 C 2.5 -0.925781 2.445312 -0.679688 2.34375 -0.484375 C 2.25 -0.296875 2.101562 -0.160156 1.90625 -0.078125 L 2.484375 0.578125 L 1.828125 0.578125 L 1.390625 0.03125 L 1.34375 0.03125 C 0.976562 0.03125 0.695312 -0.0703125 0.5 -0.28125 C 0.300781 -0.5 0.203125 -0.8125 0.203125 -1.21875 C 0.203125 -1.625 0.300781 -1.929688 0.5 -2.140625 C 0.695312 -2.347656 0.984375 -2.453125 1.359375 -2.453125 C 1.722656 -2.453125 2.003906 -2.34375 2.203125 -2.125 C 2.398438 -1.914062 2.5 -1.613281 2.5 -1.21875 Z M 0.734375 -1.21875 C 0.734375 -0.945312 0.785156 -0.738281 0.890625 -0.59375 C 0.992188 -0.457031 1.144531 -0.390625 1.34375 -0.390625 C 1.757812 -0.390625 1.96875 -0.664062 1.96875 -1.21875 C 1.96875 -1.757812 1.765625 -2.03125 1.359375 -2.03125 C 1.148438 -2.03125 0.992188 -1.960938 0.890625 -1.828125 C 0.785156 -1.691406 0.734375 -1.488281 0.734375 -1.21875 Z M 0.734375 -1.21875 "/></g></g></g><g fill="#58677e" fill-opacity="1"><g transform="translate(3.694763, 4.067974)"><g><path d="M 1.78125 0 L 1.609375 -0.578125 L 0.734375 -0.578125 L 0.546875 0 L 0 0 L 0.859375 -2.4375 L 1.484375 -2.4375 L 2.34375 0 Z M 1.484375 -1 C 1.328125 -1.53125 1.238281 -1.828125 1.21875 -1.890625 C 1.195312 -1.960938 1.179688 -2.015625 1.171875 -2.046875 C 1.128906 -1.910156 1.023438 -1.5625 0.859375 -1 Z M 1.484375 -1 "/></g></g></g><g clip-path="url(#9549225c0f)"><g fill="#58677e" fill-opacity="1"><g transform="translate(6.030779, 4.067974)"><g><path d="M 0.296875 -2.421875 L 1.0625 -2.421875 C 1.40625 -2.421875 1.648438 -2.367188 1.796875 -2.265625 C 1.953125 -2.171875 2.03125 -2.019531 2.03125 -1.8125 C 2.03125 -1.664062 1.992188 -1.546875 1.921875 -1.453125 C 1.859375 -1.359375 1.773438 -1.300781 1.671875 -1.28125 L 1.671875 -1.265625 C 1.816406 -1.234375 1.921875 -1.171875 1.984375 -1.078125 C 2.054688 -0.984375 2.09375 -0.859375 2.09375 -0.703125 C 2.09375 -0.484375 2.015625 -0.3125 1.859375 -0.1875 C 1.703125 -0.0625 1.484375 0 1.203125 0 L 0.296875 0 Z M 0.8125 -1.46875 L 1.109375 -1.46875 C 1.253906 -1.46875 1.359375 -1.488281 1.421875 -1.53125 C 1.484375 -1.570312 1.515625 -1.640625 1.515625 -1.734375 C 1.515625 -1.828125 1.476562 -1.894531 1.40625 -1.9375 C 1.34375 -1.976562 1.238281 -2 1.09375 -2 L 0.8125 -2 Z M 0.8125 -1.046875 L 0.8125 -0.421875 L 1.15625 -0.421875 C 1.289062 -0.421875 1.390625 -0.445312 1.453125 -0.5 C 1.523438 -0.5625 1.5625 -0.644531 1.5625 -0.75 C 1.5625 -0.945312 1.421875 -1.046875 1.140625 -1.046875 Z M 0.8125 -1.046875 "/></g></g></g></g></g></g></svg>