<svg xmlns="http://www.w3.org/2000/svg" xmlns:xlink="http://www.w3.org/1999/xlink" width="200" zoomAndPan="magnify" viewBox="0 0 150 149.999998" height="200" preserveAspectRatio="xMidYMid meet" version="1.0"><defs><g/><clipPath id="190455dc5a"><path d="M 12.074219 26.546875 L 138.074219 26.546875 L 138.074219 123.296875 L 12.074219 123.296875 Z M 12.074219 26.546875 " clip-rule="nonzero"/></clipPath><clipPath id="e5a7f3d9ea"><path d="M 6 1 L 8.320312 1 L 8.320312 5 L 6 5 Z M 6 1 " clip-rule="nonzero"/></clipPath><clipPath id="821ebe170e"><rect x="0" width="9" y="0" height="5"/></clipPath></defs><path stroke-linecap="butt" transform="matrix(0.750908, 0, 0, 0.748821, -4.01873, -4.081505)" fill="none" stroke-linejoin="miter" d="M 95.310636 135.436187 L 105.220514 156.041499 C 105.246525 156.088448 105.282939 156.109314 105.340161 156.109314 C 105.392182 156.109314 105.428596 156.088448 105.449404 156.041499 L 115.374888 135.451837 " stroke="#9f5915" stroke-width="2" stroke-opacity="1" stroke-miterlimit="4"/><path stroke-linecap="butt" transform="matrix(0.750908, 0, 0, 0.748821, -4.01873, -4.081505)" fill="none" stroke-linejoin="miter" d="M 115.374888 135.451837 C 119.234799 139.322506 123.552489 142.134218 128.33316 143.89219 C 139.912892 148.148882 152.751517 146.307446 162.567758 138.753903 C 169.673739 133.286975 174.672896 125.216996 176.150274 116.291505 C 176.998206 111.179301 176.816135 106.160994 175.60406 101.231369 C 173.096679 91.017394 165.891859 82.284915 156.444962 77.678715 C 140.120973 69.7235 120.519702 75.393873 110.750279 90.454009 C 107.805926 94.987177 106.032032 99.99505 105.366171 105.336782 C 105.371373 105.352432 105.360969 105.362865 105.340161 105.362865 C 105.319353 105.368081 105.308949 105.357648 105.308949 105.336782 C 104.36738 98.216212 101.651918 92.013752 97.152157 86.734619 C 92.772042 81.591116 86.893742 77.694365 80.469227 75.691215 C 69.560558 72.284818 57.439814 74.366216 48.325847 81.29899 C 37.864553 89.259422 32.714538 101.554794 34.28035 114.653513 C 36.480812 132.989632 52.612325 146.787367 71.069148 146.114434 C 78.393615 145.84839 85.093837 143.490517 91.169815 139.051246 C 92.335071 138.200951 93.713611 136.995931 95.310636 135.436187 " stroke="#a6978c" stroke-width="2" stroke-opacity="1" stroke-miterlimit="4"/><path stroke-linecap="butt" transform="matrix(0.750908, 0, 0, 0.748821, -4.01873, -4.081505)" fill="none" stroke-linejoin="miter" d="M 115.374888 135.451837 C 113.725843 133.709514 112.253667 131.873294 110.95836 129.948393 C 109.631841 127.976543 108.502999 125.775165 107.582239 123.34426 C 106.557438 120.662961 105.886375 118.174674 105.574253 115.874182 C 105.532636 115.582056 105.459808 115.175166 105.360969 114.653513 C 105.360969 114.622214 105.345363 114.611781 105.319353 114.611781 C 105.293343 114.611781 105.277737 114.62743 105.277737 114.653513 C 104.788745 118.644162 103.628691 122.509614 101.813181 126.255086 C 100.184944 129.604101 97.916856 132.603609 95.310636 135.436187 " stroke="#f8c188" stroke-width="2" stroke-opacity="1" stroke-miterlimit="4"/><path stroke-linecap="butt" transform="matrix(0.750908, 0, 0, 0.748821, -4.01873, -4.081505)" fill="none" stroke-linejoin="miter" d="M 151.992019 109.958632 C 151.981615 109.160502 151.898383 108.367589 151.726716 107.579892 C 151.56025 106.797412 151.320957 106.035798 151.003633 105.29505 C 150.686308 104.559518 150.301358 103.860503 149.843579 103.198003 C 149.391001 102.535503 148.876 101.925168 148.298574 101.366999 C 147.721148 100.80883 147.096904 100.308043 146.425841 99.869854 C 145.749576 99.431665 145.036897 99.066507 144.293006 98.769165 C 143.543913 98.471822 142.774012 98.247511 141.983302 98.101448 C 141.192593 97.955385 140.396681 97.88757 139.590366 97.892787 C 138.78405 97.90322 137.988139 97.991901 137.202631 98.15883 C 136.411922 98.325759 135.652425 98.56572 134.913735 98.883929 C 134.169844 99.196921 133.467569 99.582944 132.806911 100.036783 C 132.14105 100.490621 131.532412 101.007058 130.96539 101.580877 C 130.40357 102.154696 129.904175 102.775463 129.467204 103.448396 C 129.025031 104.121329 128.660888 104.830778 128.35917 105.576743 C 128.062654 106.317491 127.838967 107.084321 127.688108 107.872018 C 127.54245 108.664931 127.474824 109.457844 127.485228 110.261191 C 127.495632 111.064537 127.584067 111.85745 127.750532 112.639931 C 127.916997 113.427627 128.156291 114.184025 128.473615 114.924773 C 128.790939 115.660304 129.17589 116.35932 129.633669 117.02182 C 130.086246 117.68432 130.601248 118.294654 131.178674 118.852823 C 131.7561 119.416209 132.380344 119.91178 133.056609 120.349969 C 133.727671 120.788158 134.44035 121.158532 135.189443 121.455874 C 135.933334 121.753217 136.703236 121.972311 137.493945 122.118374 C 138.284655 122.269654 139.085768 122.337469 139.886882 122.327036 C 140.693197 122.316602 141.489109 122.227921 142.274616 122.060992 C 143.065326 121.894063 143.824823 121.654103 144.568714 121.34111 C 145.307403 121.022902 146.009678 120.636878 146.670337 120.18304 C 147.336197 119.729201 147.950037 119.217981 148.511857 118.644162 C 149.073677 118.070343 149.573073 117.444359 150.010044 116.771426 C 150.452217 116.098493 150.821561 115.394261 151.118077 114.648296 C 151.414593 113.902332 151.638281 113.135501 151.78914 112.347805 C 151.934797 111.560108 152.002423 110.761978 151.992019 109.958632 " stroke="#808080" stroke-width="2" stroke-opacity="1" stroke-miterlimit="4"/><path stroke-linecap="butt" transform="matrix(0.750908, 0, 0, 0.748821, -4.01873, -4.081505)" fill="none" stroke-linejoin="miter" d="M 58.709111 109.583041 C 58.672697 110.386388 58.714313 111.179301 58.83396 111.972214 C 58.958809 112.765127 59.156486 113.537175 59.426992 114.293572 C 59.7027 115.044753 60.046034 115.764635 60.462197 116.453217 C 60.87836 117.136583 61.356947 117.778217 61.897959 118.367686 C 62.444173 118.962371 63.037205 119.494457 63.682257 119.969162 C 64.332512 120.443866 65.019181 120.850756 65.747466 121.195047 C 66.475751 121.534122 67.230046 121.800166 68.010351 121.993177 C 68.790657 122.180973 69.581366 122.295736 70.38248 122.332252 C 71.188795 122.368768 71.984707 122.327036 72.780618 122.207055 C 73.57653 122.087075 74.351633 121.888847 75.105928 121.617587 C 75.860224 121.346327 76.583307 121.002036 77.269975 120.584713 C 77.961846 120.172607 78.601696 119.692685 79.194729 119.155382 C 79.787761 118.612863 80.32357 118.023394 80.796956 117.376544 C 81.275543 116.729694 81.681302 116.046328 82.024636 115.321229 C 82.362768 114.590915 82.633274 113.839734 82.82575 113.06247 C 83.018225 112.285206 83.13267 111.497509 83.169084 110.694163 C 83.205498 109.896033 83.15868 109.097904 83.039033 108.30499 C 82.919386 107.512077 82.721709 106.74003 82.446001 105.983632 C 82.175495 105.232451 81.832161 104.51257 81.415998 103.829203 C 80.999835 103.140621 80.521248 102.504204 79.975034 101.909519 C 79.434022 101.32005 78.84099 100.782747 78.190736 100.308043 C 77.545683 99.833338 76.859014 99.426448 76.130729 99.087373 C 75.402444 98.748299 74.648149 98.482255 73.867844 98.289244 C 73.087538 98.096232 72.296829 97.981468 71.490513 97.944952 C 70.6894 97.908437 69.888286 97.950169 69.097577 98.070149 C 68.301665 98.190129 67.526562 98.388358 66.772267 98.659618 C 66.01277 98.936094 65.294889 99.275169 64.603018 99.692491 C 63.916349 100.104598 63.276499 100.584519 62.683467 101.127039 C 62.090434 101.664342 61.554625 102.259027 61.076037 102.90066 C 60.602652 103.547511 60.191691 104.236093 59.853559 104.961192 C 59.510225 105.68629 59.244921 106.437471 59.052445 107.214734 C 58.85997 107.991998 58.745525 108.784911 58.709111 109.583041 " stroke="#808080" stroke-width="2" stroke-opacity="1" stroke-miterlimit="4"/><g clip-path="url(#190455dc5a)"><path fill="#4d2f19" d="M 23.460938 26.644531 C 23.46875 26.59375 23.496094 26.5625 23.542969 26.550781 C 23.585938 26.535156 23.628906 26.542969 23.664062 26.578125 C 25.273438 28.148438 27.054688 29.519531 29.003906 30.691406 C 31.589844 32.246094 34.195312 33.527344 36.816406 34.535156 C 38.703125 35.257812 40.726562 35.910156 42.882812 36.492188 C 43.175781 36.570312 43.4375 36.5625 43.671875 36.476562 C 46.476562 35.40625 49.460938 34.53125 52.628906 33.847656 C 59.625 32.335938 66.640625 31.675781 73.726562 31.644531 C 76.613281 31.628906 79.300781 31.683594 81.785156 31.800781 C 86.078125 32.007812 90.496094 32.515625 95.042969 33.328125 C 99.03125 34.039062 102.9375 35.105469 106.769531 36.519531 C 106.914062 36.574219 107.0625 36.582031 107.210938 36.539062 C 108.484375 36.175781 109.820312 35.761719 111.21875 35.304688 C 114.726562 34.148438 118.171875 32.523438 121.253906 30.632812 C 123.132812 29.484375 124.863281 28.054688 126.597656 26.605469 C 126.621094 26.589844 126.640625 26.585938 126.667969 26.59375 C 126.691406 26.601562 126.703125 26.621094 126.710938 26.644531 C 127.453125 31.246094 127.300781 35.78125 126.25 40.246094 C 125.765625 42.296875 125.039062 44.222656 124.070312 46.023438 C 123.992188 46.167969 124.011719 46.292969 124.132812 46.402344 C 125.039062 47.234375 125.820312 47.984375 126.476562 48.652344 C 131.460938 53.75 134.855469 59.765625 136.65625 66.703125 C 136.820312 67.335938 137.058594 68.496094 137.371094 70.191406 C 137.601562 71.445312 137.757812 72.617188 137.839844 73.714844 C 138.125 77.503906 138.0625 81.277344 137.652344 85.042969 C 137.574219 85.761719 137.378906 86.917969 137.074219 88.515625 C 135.828125 95.015625 133.0625 100.796875 128.785156 105.863281 C 125.289062 110.007812 121.15625 113.363281 116.296875 116.015625 C 113.074219 117.773438 109.730469 119.164062 106.265625 120.183594 C 104.300781 120.757812 102.03125 121.285156 99.457031 121.757812 C 97.441406 122.125 95.128906 122.433594 92.527344 122.679688 C 84.527344 123.425781 76.191406 123.332031 68.207031 123.230469 C 63.445312 123.171875 58.832031 122.871094 54.363281 122.332031 C 52.199219 122.074219 50.074219 121.65625 48.011719 121.230469 C 39.957031 119.558594 32.296875 115.972656 26.050781 110.621094 C 20.871094 106.179688 17.0625 100.765625 14.714844 94.441406 C 12.761719 89.183594 12.042969 83.402344 12.136719 77.648438 C 12.179688 74.839844 12.445312 72.089844 12.925781 69.402344 C 14.527344 60.410156 19.226562 52.339844 26.117188 46.316406 C 26.238281 46.214844 26.253906 46.09375 26.171875 45.957031 C 25.8125 45.390625 25.460938 44.714844 25.121094 43.9375 C 24.046875 41.492188 23.375 38.628906 23.105469 35.359375 C 22.867188 32.4375 22.988281 29.53125 23.460938 26.644531 Z M 67.550781 97.335938 L 74.992188 112.765625 C 75.011719 112.800781 75.039062 112.816406 75.082031 112.816406 C 75.121094 112.816406 75.148438 112.800781 75.164062 112.765625 L 82.617188 97.347656 C 85.515625 100.246094 88.757812 102.351562 92.347656 103.667969 C 101.042969 106.855469 110.683594 105.476562 118.054688 99.820312 C 123.390625 95.726562 127.144531 89.683594 128.253906 83 C 128.890625 79.171875 128.753906 75.414062 127.84375 71.722656 C 125.960938 64.074219 120.550781 57.535156 113.457031 54.085938 C 101.199219 48.128906 86.480469 52.375 79.144531 63.652344 C 76.933594 67.046875 75.601562 70.796875 75.101562 74.796875 C 75.105469 74.808594 75.097656 74.816406 75.082031 74.816406 C 75.066406 74.820312 75.058594 74.8125 75.058594 74.796875 C 74.351562 69.464844 72.3125 64.820312 68.933594 60.867188 C 65.644531 57.015625 61.230469 54.097656 56.40625 52.597656 C 48.214844 50.046875 39.113281 51.605469 32.269531 56.796875 C 24.414062 62.757812 20.546875 71.964844 21.722656 81.773438 C 23.375 95.503906 35.488281 105.835938 49.347656 105.332031 C 54.847656 105.132812 59.878906 103.367188 64.441406 100.042969 C 65.316406 99.40625 66.351562 98.503906 67.550781 97.335938 Z M 67.550781 97.335938 " fill-opacity="1" fill-rule="nonzero"/></g><path fill="#ffffff" d="M 82.617188 97.347656 C 81.378906 96.042969 80.273438 94.667969 79.300781 93.226562 C 78.304688 91.75 77.457031 90.101562 76.765625 88.28125 C 75.996094 86.273438 75.492188 84.410156 75.257812 82.6875 C 75.226562 82.46875 75.171875 82.164062 75.097656 81.773438 C 75.097656 81.75 75.085938 81.742188 75.066406 81.742188 C 75.046875 81.742188 75.035156 81.753906 75.035156 81.773438 C 74.667969 84.761719 73.796875 87.65625 72.433594 90.460938 C 71.210938 92.96875 69.507812 95.214844 67.550781 97.335938 C 66.351562 98.503906 65.316406 99.40625 64.441406 100.042969 C 59.878906 103.367188 54.847656 105.132812 49.347656 105.332031 C 35.488281 105.835938 23.375 95.503906 21.722656 81.773438 C 20.546875 71.964844 24.414062 62.757812 32.269531 56.796875 C 39.113281 51.605469 48.214844 50.046875 56.40625 52.597656 C 61.230469 54.097656 65.644531 57.015625 68.933594 60.867188 C 72.3125 64.820312 74.351562 69.464844 75.058594 74.796875 C 75.058594 74.8125 75.066406 74.820312 75.082031 74.816406 C 75.097656 74.816406 75.105469 74.808594 75.101562 74.796875 C 75.601562 70.796875 76.933594 67.046875 79.144531 63.652344 C 86.480469 52.375 101.199219 48.128906 113.457031 54.085938 C 120.550781 57.535156 125.960938 64.074219 127.84375 71.722656 C 128.753906 75.414062 128.890625 79.171875 128.253906 83 C 127.144531 89.683594 123.390625 95.726562 118.054688 99.820312 C 110.683594 105.476562 101.042969 106.855469 92.347656 103.667969 C 88.757812 102.351562 85.515625 100.246094 82.617188 97.347656 Z M 110.113281 78.257812 C 110.105469 77.660156 110.042969 77.066406 109.914062 76.476562 C 109.789062 75.890625 109.609375 75.320312 109.371094 74.765625 C 109.132812 74.214844 108.84375 73.691406 108.5 73.195312 C 108.160156 72.699219 107.773438 72.242188 107.339844 71.824219 C 106.90625 71.40625 106.4375 71.03125 105.933594 70.703125 C 105.425781 70.375 104.890625 70.101562 104.332031 69.878906 C 103.769531 69.65625 103.191406 69.488281 102.597656 69.378906 C 102.003906 69.269531 101.40625 69.21875 100.800781 69.222656 C 100.195312 69.230469 99.597656 69.296875 99.007812 69.421875 C 98.414062 69.546875 97.84375 69.726562 97.289062 69.964844 C 96.730469 70.199219 96.203125 70.488281 95.707031 70.828125 C 95.207031 71.167969 94.75 71.554688 94.324219 71.984375 C 93.902344 72.414062 93.527344 72.878906 93.199219 73.382812 C 92.867188 73.886719 92.59375 74.417969 92.367188 74.976562 C 92.144531 75.53125 91.976562 76.105469 91.863281 76.695312 C 91.753906 77.289062 91.703125 77.882812 91.710938 78.484375 C 91.71875 79.085938 91.785156 79.679688 91.910156 80.265625 C 92.035156 80.855469 92.214844 81.421875 92.453125 81.976562 C 92.691406 82.527344 92.980469 83.050781 93.324219 83.546875 C 93.664062 84.042969 94.050781 84.5 94.484375 84.917969 C 94.917969 85.339844 95.386719 85.710938 95.894531 86.039062 C 96.398438 86.367188 96.933594 86.644531 97.496094 86.867188 C 98.054688 87.089844 98.632812 87.253906 99.226562 87.363281 C 99.820312 87.476562 100.421875 87.527344 101.023438 87.519531 C 101.628906 87.511719 102.226562 87.445312 102.816406 87.320312 C 103.410156 87.195312 103.980469 87.015625 104.539062 86.78125 C 105.09375 86.542969 105.621094 86.253906 106.117188 85.914062 C 106.617188 85.574219 107.078125 85.191406 107.5 84.761719 C 107.921875 84.332031 108.296875 83.863281 108.625 83.359375 C 108.957031 82.855469 109.234375 82.328125 109.457031 81.769531 C 109.679688 81.210938 109.847656 80.636719 109.960938 80.046875 C 110.070312 79.457031 110.121094 78.859375 110.113281 78.257812 Z M 40.066406 77.976562 C 40.039062 78.578125 40.070312 79.171875 40.160156 79.765625 C 40.253906 80.359375 40.402344 80.9375 40.605469 81.503906 C 40.8125 82.066406 41.070312 82.605469 41.382812 83.121094 C 41.695312 83.632812 42.054688 84.113281 42.460938 84.554688 C 42.871094 85 43.316406 85.398438 43.800781 85.753906 C 44.289062 86.109375 44.804688 86.414062 45.351562 86.671875 C 45.898438 86.925781 46.464844 87.125 47.050781 87.269531 C 47.636719 87.410156 48.230469 87.496094 48.832031 87.523438 C 49.4375 87.550781 50.035156 87.519531 50.632812 87.429688 C 51.230469 87.339844 51.8125 87.191406 52.378906 86.988281 C 52.945312 86.785156 53.488281 86.527344 54.003906 86.214844 C 54.523438 85.90625 55.003906 85.546875 55.449219 85.144531 C 55.894531 84.738281 56.296875 84.296875 56.652344 83.8125 C 57.011719 83.328125 57.316406 82.816406 57.574219 82.273438 C 57.828125 81.726562 58.03125 81.164062 58.175781 80.582031 C 58.320312 80 58.40625 79.410156 58.433594 78.808594 C 58.460938 78.210938 58.425781 77.613281 58.335938 77.019531 C 58.246094 76.425781 58.097656 75.847656 57.890625 75.28125 C 57.6875 74.71875 57.429688 74.179688 57.117188 73.667969 C 56.804688 73.152344 56.445312 72.675781 56.035156 72.230469 C 55.628906 71.789062 55.183594 71.386719 54.695312 71.03125 C 54.210938 70.675781 53.695312 70.371094 53.148438 70.117188 C 52.601562 69.863281 52.035156 69.664062 51.449219 69.519531 C 50.863281 69.375 50.269531 69.289062 49.664062 69.261719 C 49.0625 69.234375 48.460938 69.265625 47.867188 69.355469 C 47.269531 69.445312 46.6875 69.59375 46.121094 69.796875 C 45.550781 70.003906 45.011719 70.257812 44.492188 70.570312 C 43.976562 70.878906 43.496094 71.238281 43.050781 71.644531 C 42.605469 72.046875 42.203125 72.492188 41.84375 72.972656 C 41.488281 73.457031 41.179688 73.972656 40.925781 74.515625 C 40.667969 75.058594 40.46875 75.621094 40.324219 76.203125 C 40.179688 76.785156 40.09375 77.378906 40.066406 77.976562 Z M 40.066406 77.976562 " fill-opacity="1" fill-rule="nonzero"/><path fill="#000000" d="M 110.113281 78.257812 C 110.121094 78.859375 110.070312 79.457031 109.960938 80.046875 C 109.847656 80.636719 109.679688 81.210938 109.457031 81.769531 C 109.234375 82.328125 108.957031 82.855469 108.625 83.359375 C 108.296875 83.863281 107.921875 84.332031 107.5 84.761719 C 107.078125 85.191406 106.617188 85.574219 106.117188 85.914062 C 105.621094 86.253906 105.09375 86.542969 104.539062 86.78125 C 103.980469 87.015625 103.410156 87.195312 102.816406 87.320312 C 102.226562 87.445312 101.628906 87.511719 101.023438 87.519531 C 100.421875 87.527344 99.820312 87.476562 99.226562 87.363281 C 98.632812 87.253906 98.054688 87.089844 97.496094 86.867188 C 96.933594 86.644531 96.398438 86.367188 95.894531 86.039062 C 95.386719 85.710938 94.917969 85.339844 94.484375 84.917969 C 94.050781 84.5 93.664062 84.042969 93.324219 83.546875 C 92.980469 83.050781 92.691406 82.527344 92.453125 81.976562 C 92.214844 81.421875 92.035156 80.855469 91.910156 80.265625 C 91.785156 79.679688 91.71875 79.085938 91.710938 78.484375 C 91.703125 77.882812 91.753906 77.289062 91.863281 76.695312 C 91.976562 76.105469 92.144531 75.53125 92.367188 74.976562 C 92.59375 74.417969 92.867188 73.886719 93.199219 73.382812 C 93.527344 72.878906 93.902344 72.414062 94.324219 71.984375 C 94.75 71.554688 95.207031 71.167969 95.707031 70.828125 C 96.203125 70.488281 96.730469 70.199219 97.289062 69.964844 C 97.84375 69.726562 98.414062 69.546875 99.007812 69.421875 C 99.597656 69.296875 100.195312 69.230469 100.800781 69.222656 C 101.40625 69.21875 102.003906 69.269531 102.597656 69.378906 C 103.191406 69.488281 103.769531 69.65625 104.332031 69.878906 C 104.890625 70.101562 105.425781 70.375 105.933594 70.703125 C 106.4375 71.03125 106.90625 71.40625 107.339844 71.824219 C 107.773438 72.242188 108.160156 72.699219 108.5 73.195312 C 108.84375 73.691406 109.132812 74.214844 109.371094 74.765625 C 109.609375 75.320312 109.789062 75.890625 109.914062 76.476562 C 110.042969 77.066406 110.105469 77.660156 110.113281 78.257812 Z M 110.113281 78.257812 " fill-opacity="1" fill-rule="nonzero"/><path fill="#000000" d="M 40.066406 77.976562 C 40.09375 77.378906 40.179688 76.785156 40.324219 76.203125 C 40.46875 75.621094 40.667969 75.058594 40.925781 74.515625 C 41.179688 73.972656 41.488281 73.457031 41.84375 72.972656 C 42.203125 72.492188 42.605469 72.046875 43.050781 71.644531 C 43.496094 71.238281 43.976562 70.878906 44.492188 70.570312 C 45.011719 70.257812 45.550781 70.003906 46.121094 69.796875 C 46.6875 69.59375 47.269531 69.445312 47.867188 69.355469 C 48.460938 69.265625 49.0625 69.234375 49.664062 69.261719 C 50.269531 69.289062 50.863281 69.375 51.449219 69.519531 C 52.035156 69.664062 52.601562 69.863281 53.148438 70.117188 C 53.695312 70.371094 54.210938 70.675781 54.695312 71.03125 C 55.183594 71.386719 55.628906 71.789062 56.035156 72.230469 C 56.445312 72.675781 56.804688 73.152344 57.117188 73.667969 C 57.429688 74.179688 57.6875 74.71875 57.890625 75.28125 C 58.097656 75.847656 58.246094 76.425781 58.335938 77.019531 C 58.425781 77.613281 58.460938 78.210938 58.433594 78.808594 C 58.40625 79.410156 58.320312 80 58.175781 80.582031 C 58.03125 81.164062 57.828125 81.726562 57.574219 82.273438 C 57.316406 82.816406 57.011719 83.328125 56.652344 83.8125 C 56.296875 84.296875 55.894531 84.738281 55.449219 85.144531 C 55.003906 85.546875 54.523438 85.90625 54.003906 86.214844 C 53.488281 86.527344 52.945312 86.785156 52.378906 86.988281 C 51.8125 87.191406 51.230469 87.339844 50.632812 87.429688 C 50.035156 87.519531 49.4375 87.550781 48.832031 87.523438 C 48.230469 87.496094 47.636719 87.410156 47.050781 87.269531 C 46.464844 87.125 45.898438 86.925781 45.351562 86.671875 C 44.804688 86.414062 44.289062 86.109375 43.800781 85.753906 C 43.316406 85.398438 42.871094 85 42.460938 84.554688 C 42.054688 84.113281 41.695312 83.632812 41.382812 83.121094 C 41.070312 82.605469 40.8125 82.066406 40.605469 81.503906 C 40.402344 80.9375 40.253906 80.359375 40.160156 79.765625 C 40.070312 79.171875 40.039062 78.578125 40.066406 77.976562 Z M 40.066406 77.976562 " fill-opacity="1" fill-rule="nonzero"/><path fill="#f18211" d="M 82.617188 97.347656 L 75.164062 112.765625 C 75.148438 112.800781 75.121094 112.816406 75.082031 112.816406 C 75.039062 112.816406 75.011719 112.800781 74.992188 112.765625 L 67.550781 97.335938 C 69.507812 95.214844 71.210938 92.96875 72.433594 90.460938 C 73.796875 87.65625 74.667969 84.761719 75.035156 81.773438 C 75.035156 81.753906 75.046875 81.742188 75.066406 81.742188 C 75.085938 81.742188 75.097656 81.75 75.097656 81.773438 C 75.171875 82.164062 75.226562 82.46875 75.257812 82.6875 C 75.492188 84.410156 75.996094 86.273438 76.765625 88.28125 C 77.457031 90.101562 78.304688 91.75 79.300781 93.226562 C 80.273438 94.667969 81.378906 96.042969 82.617188 97.347656 Z M 82.617188 97.347656 " fill-opacity="1" fill-rule="nonzero"/><g transform="matrix(1, 0, 0, 1, 74, 145)"><g clip-path="url(#821ebe170e)"><g fill="#58677e" fill-opacity="1"><g transform="translate(0.999997, 4.067974)"><g><path d="M 2.5 -1.21875 C 2.5 -0.925781 2.445312 -0.679688 2.34375 -0.484375 C 2.25 -0.296875 2.101562 -0.160156 1.90625 -0.078125 L 2.484375 0.578125 L 1.828125 0.578125 L 1.390625 0.03125 L 1.34375 0.03125 C 0.976562 0.03125 0.695312 -0.0703125 0.5 -0.28125 C 0.300781 -0.5 0.203125 -0.8125 0.203125 -1.21875 C 0.203125 -1.625 0.300781 -1.929688 0.5 -2.140625 C 0.695312 -2.347656 0.984375 -2.453125 1.359375 -2.453125 C 1.722656 -2.453125 2.003906 -2.34375 2.203125 -2.125 C 2.398438 -1.914062 2.5 -1.613281 2.5 -1.21875 Z M 0.734375 -1.21875 C 0.734375 -0.945312 0.785156 -0.738281 0.890625 -0.59375 C 0.992188 -0.457031 1.144531 -0.390625 1.34375 -0.390625 C 1.757812 -0.390625 1.96875 -0.664062 1.96875 -1.21875 C 1.96875 -1.757812 1.765625 -2.03125 1.359375 -2.03125 C 1.148438 -2.03125 0.992188 -1.960938 0.890625 -1.828125 C 0.785156 -1.691406 0.734375 -1.488281 0.734375 -1.21875 Z M 0.734375 -1.21875 "/></g></g></g><g fill="#58677e" fill-opacity="1"><g transform="translate(3.694763, 4.067974)"><g><path d="M 1.78125 0 L 1.609375 -0.578125 L 0.734375 -0.578125 L 0.546875 0 L 0 0 L 0.859375 -2.4375 L 1.484375 -2.4375 L 2.34375 0 Z M 1.484375 -1 C 1.328125 -1.53125 1.238281 -1.828125 1.21875 -1.890625 C 1.195312 -1.960938 1.179688 -2.015625 1.171875 -2.046875 C 1.128906 -1.910156 1.023438 -1.5625 0.859375 -1 Z M 1.484375 -1 "/></g></g></g><g clip-path="url(#e5a7f3d9ea)"><g fill="#58677e" fill-opacity="1"><g transform="translate(6.030779, 4.067974)"><g><path d="M 0.296875 -2.421875 L 1.0625 -2.421875 C 1.40625 -2.421875 1.648438 -2.367188 1.796875 -2.265625 C 1.953125 -2.171875 2.03125 -2.019531 2.03125 -1.8125 C 2.03125 -1.664062 1.992188 -1.546875 1.921875 -1.453125 C 1.859375 -1.359375 1.773438 -1.300781 1.671875 -1.28125 L 1.671875 -1.265625 C 1.816406 -1.234375 1.921875 -1.171875 1.984375 -1.078125 C 2.054688 -0.984375 2.09375 -0.859375 2.09375 -0.703125 C 2.09375 -0.484375 2.015625 -0.3125 1.859375 -0.1875 C 1.703125 -0.0625 1.484375 0 1.203125 0 L 0.296875 0 Z M 0.8125 -1.46875 L 1.109375 -1.46875 C 1.253906 -1.46875 1.359375 -1.488281 1.421875 -1.53125 C 1.484375 -1.570312 1.515625 -1.640625 1.515625 -1.734375 C 1.515625 -1.828125 1.476562 -1.894531 1.40625 -1.9375 C 1.34375 -1.976562 1.238281 -2 1.09375 -2 L 0.8125 -2 Z M 0.8125 -1.046875 L 0.8125 -0.421875 L 1.15625 -0.421875 C 1.289062 -0.421875 1.390625 -0.445312 1.453125 -0.5 C 1.523438 -0.5625 1.5625 -0.644531 1.5625 -0.75 C 1.5625 -0.945312 1.421875 -1.046875 1.140625 -1.046875 Z M 0.8125 -1.046875 "/></g></g></g></g></g></g></svg>