<svg xmlns="http://www.w3.org/2000/svg" xmlns:xlink="http://www.w3.org/1999/xlink" width="500" zoomAndPan="magnify" viewBox="0 0 375 374.999991" height="500" preserveAspectRatio="xMidYMid meet" version="1.0"><defs><g/><clipPath id="852f507bce"><rect x="0" width="12" y="0" height="7"/></clipPath></defs><path fill="#000000" d="M 239.707031 279.121094 C 254.167969 328.308594 199.441406 341.648438 194.878906 366.464844 L 194.140625 366.339844 C 195.816406 333.644531 217.335938 319.898438 211.3125 300.183594 L 210.390625 300.316406 C 209.363281 310.804688 208.542969 318.277344 199.386719 336.496094 C 186.550781 362.035156 196.828125 380.953125 187.019531 357.902344 C 177.800781 381.5 187.851562 361.417969 172.976562 334.171875 C 162.183594 314.402344 162.980469 309.34375 161.535156 297.285156 C 153.191406 322.960938 181.527344 335.238281 179.726562 367.324219 C 165.460938 334.40625 121.46875 327.601562 133.101562 280.441406 C 134.421875 275.097656 110.816406 310.21875 144.648438 333.625 C 120.753906 324.355469 97.164062 288.558594 97.855469 262.726562 C 130.488281 269.761719 130.925781 259.378906 138.140625 265.4375 C 142.609375 269.191406 147.519531 272.433594 152.359375 275.722656 C 158.246094 279.730469 177.488281 262.96875 176.730469 247.296875 C 176.570312 244.011719 177.457031 244.871094 196.636719 244.972656 C 202.445312 245 191.195312 259.300781 217.882812 276.097656 C 222.410156 278.945312 234.445312 268.929688 238.085938 264.957031 C 239.253906 263.679688 240.335938 262.78125 242.320312 263.328125 C 253.429688 266.382812 264.546875 265.917969 275.640625 263.136719 C 283.230469 261.234375 261.316406 324.164062 230.230469 333.289062 C 251.058594 318.824219 250.625 292.855469 239.710938 279.121094 Z M 109.867188 28.222656 C 110.191406 30.480469 110.367188 32.480469 110.78125 34.425781 C 113.679688 48.03125 130.914062 43.5 143.4375 37.4375 C 124.28125 40.667969 119.476562 31.433594 124.910156 21.941406 C 130.8125 37.734375 143.792969 21.210938 180.722656 16.921875 C 222.328125 12.085938 247.726562 35.003906 253.390625 55.242188 C 257.398438 69.566406 250.414062 81.804688 253.070312 95.96875 C 253.457031 98.035156 251.714844 95.5625 248.726562 93.339844 C 239.105469 86.191406 216.105469 84.050781 199.3125 93.292969 C 193.621094 96.425781 188.453125 92.589844 170.652344 88.898438 C 154.4375 85.535156 142.09375 89.378906 127.714844 89.289062 C 106.75 89.160156 106.632812 64.136719 117.460938 57.875 C 106.6875 48.5625 104.035156 38.367188 109.867188 28.222656 Z M 193.863281 34.785156 C 222.355469 40.757812 220.457031 48.78125 234.886719 72 C 240.261719 69.035156 222.382812 26.925781 193.863281 34.785156 Z M 181.96875 45.046875 C 203.894531 51.988281 202.824219 62.703125 215.835938 82.488281 C 210.484375 62.054688 202.242188 45.472656 181.96875 45.046875 Z M 163.917969 50.792969 C 173.453125 52.527344 179.847656 57.996094 184.96875 65.324219 C 184.082031 57.429688 172.398438 49.238281 163.917969 50.792969 Z M 140.285156 58.753906 C 154.175781 56.519531 165.1875 60.40625 173.703125 72.265625 C 171.523438 61.859375 153.753906 54.070312 140.285156 58.753906 Z M 267.117188 192.082031 C 266.714844 212.886719 268.101562 216.894531 264.066406 223.460938 C 253.003906 241.449219 251.839844 240.339844 255.796875 243.542969 C 263.824219 250.035156 270.921875 251.679688 278.371094 252.71875 L 276.773438 234.792969 C 279.960938 240.339844 280.210938 246.609375 280.21875 252.941406 C 282.109375 252.90625 283.722656 253.136719 283.90625 250.621094 C 285.300781 231.414062 282.332031 213.03125 273.460938 195.816406 C 270.332031 189.742188 275.628906 186.367188 276.453125 178.445312 C 278.40625 159.679688 275.835938 156.410156 279.425781 150.949219 C 299.132812 120.933594 293.4375 87.960938 281.371094 70.488281 C 291.75 103.355469 274.035156 119.183594 277.195312 113.210938 C 285.160156 98.164062 281.4375 87.082031 278.121094 64.585938 C 276.640625 54.558594 274.425781 46.214844 265.601562 38.921875 C 269.222656 50.066406 277.546875 51.257812 257.746094 79.34375 C 248.304688 92.738281 265.617188 103.25 270.039062 164.027344 C 271.789062 188.074219 267.300781 182.757812 267.117188 192.082031 Z M 102.570312 194.25 C 92.910156 211.519531 89.257812 230.0625 90.558594 249.695312 C 90.753906 252.667969 91.34375 253.140625 94.503906 252.695312 C 95.152344 247.109375 95.246094 241.375 97.933594 236.109375 L 96.496094 252.960938 C 106.054688 251.34375 113.957031 248.320312 120.421875 242.121094 C 123.0625 239.589844 118.570312 237.730469 110.105469 222.222656 C 106.746094 216.070312 108.476562 206.9375 107.949219 195.128906 C 107.726562 190.070312 98.9375 150.207031 119.101562 90.503906 C 112.074219 87.359375 108.75 81.636719 107.78125 74.085938 C 92.085938 79.769531 84.238281 91.332031 82.742188 107.402344 C 79.773438 139.371094 97.964844 145.953125 97.953125 158.492188 C 97.914062 194.851562 105.484375 189.035156 102.566406 194.25 Z M 184.8125 229.101562 C 189.96875 221.839844 176.464844 211.6875 163.789062 213.84375 C 141.671875 217.609375 120.351562 263.328125 87.460938 254.371094 C 109.894531 275.246094 166.492188 254.917969 184.8125 229.101562 Z M 213.710938 214.417969 C 199.035156 209.84375 185.617188 223.058594 190.082031 228.574219 C 218.410156 263.59375 269.886719 270.667969 287.339844 254.304688 C 256.058594 263.828125 236.152344 221.410156 213.710938 214.414062 Z M 177.183594 155.785156 C 182.597656 148.304688 137.800781 115.496094 115.96875 155.472656 C 155.652344 134.578125 172.175781 162.710938 177.183594 155.785156 Z M 198.507812 155.929688 C 201.429688 158.097656 206.882812 154.390625 207.125 154.265625 C 232.917969 140.800781 248.976562 150.714844 259.75 154.964844 C 238.339844 115.097656 190.648438 150.09375 198.507812 155.929688 Z M 95.703125 194.574219 C 93.558594 196.925781 92.183594 196.917969 90.273438 194.453125 C 70.144531 168.453125 74.703125 135.269531 93.1875 159.066406 C 98.347656 151.507812 80.105469 139.226562 76.511719 148.480469 C 68.300781 169.636719 76.367188 182.464844 89.839844 200.585938 C 94.621094 207.011719 104.390625 185.054688 95.703125 194.574219 Z M 281.976562 159.066406 C 286.574219 152.617188 293.167969 145.375 295.824219 152.835938 C 301.207031 167.964844 293.792969 182.628906 284.25 195.09375 C 281.011719 199.332031 278.339844 190.882812 275.992188 191.914062 C 276.972656 197.800781 281.921875 205.453125 285.976562 199.871094 C 298.027344 183.28125 306.8125 167.945312 298.78125 149.082031 C 293.792969 137.355469 276.199219 153.988281 281.980469 159.066406 Z M 213.730469 164.773438 C 218.957031 169.648438 227.289062 170.234375 234.089844 166.308594 C 241.167969 162.222656 223.5625 152.726562 213.730469 164.773438 Z M 141.226562 161.632812 C 134.140625 166.242188 152.414062 173.410156 161.804688 164.898438 C 156.464844 156.8125 146.390625 158.273438 141.226562 161.632812 Z M 280.425781 164.167969 L 280.425781 177.648438 C 295.160156 177.796875 292.796875 163.820312 280.425781 164.167969 Z M 94.773438 177.53125 L 94.773438 164.285156 C 81.53125 163.5 80.910156 179.035156 94.773438 177.53125 Z M 165.035156 160.101562 C 158.132812 152.90625 138.535156 154.488281 136.429688 162.441406 C 145.699219 157.183594 155.15625 156.132812 165.035156 160.101562 Z M 210.707031 159.453125 C 228.765625 157.402344 221.425781 156.851562 238.988281 161.527344 C 235.035156 154.242188 215.847656 152.890625 210.707031 159.453125 Z M 168.265625 210.800781 C 166.574219 207.527344 167.300781 204.449219 169.3125 201.132812 C 160.351562 203.464844 162.480469 211.511719 168.265625 210.800781 Z M 206.234375 201.46875 C 208.269531 204.390625 208.617188 207.488281 207.253906 210.960938 C 215.046875 210.464844 212.277344 201.246094 206.234375 201.46875 Z M 282.617188 262.011719 C 280.234375 261.589844 279.351562 262.140625 279.085938 264.078125 C 276.800781 280.539062 274.03125 287.414062 282.617188 262.011719 Z M 91.800781 261.703125 C 98.863281 282.65625 98.945312 284.019531 95.257812 264.292969 C 94.820312 261.945312 94.871094 261.933594 91.800781 261.703125 Z M 91.800781 261.703125 " fill-opacity="1" fill-rule="nonzero"/><g transform="matrix(1, 0, 0, 1, 233, 368)"><g clip-path="url(#852f507bce)"><g fill="#34461d" fill-opacity="1"><g transform="translate(0.905507, 5.876293)"><g><path d="M 3.4375 -1.671875 C 3.4375 -1.273438 3.363281 -0.941406 3.21875 -0.671875 C 3.082031 -0.410156 2.878906 -0.222656 2.609375 -0.109375 L 3.421875 0.796875 L 2.515625 0.796875 L 1.90625 0.046875 L 1.859375 0.046875 C 1.347656 0.046875 0.953125 -0.0976562 0.671875 -0.390625 C 0.398438 -0.691406 0.265625 -1.117188 0.265625 -1.671875 C 0.265625 -2.222656 0.398438 -2.644531 0.671875 -2.9375 C 0.953125 -3.226562 1.347656 -3.375 1.859375 -3.375 C 2.367188 -3.375 2.757812 -3.226562 3.03125 -2.9375 C 3.300781 -2.644531 3.4375 -2.222656 3.4375 -1.671875 Z M 1.015625 -1.671875 C 1.015625 -1.296875 1.082031 -1.015625 1.21875 -0.828125 C 1.363281 -0.640625 1.578125 -0.546875 1.859375 -0.546875 C 2.421875 -0.546875 2.703125 -0.921875 2.703125 -1.671875 C 2.703125 -2.421875 2.421875 -2.796875 1.859375 -2.796875 C 1.578125 -2.796875 1.363281 -2.695312 1.21875 -2.5 C 1.082031 -2.3125 1.015625 -2.035156 1.015625 -1.671875 Z M 1.015625 -1.671875 "/></g></g></g><g fill="#34461d" fill-opacity="1"><g transform="translate(4.617178, 5.876293)"><g><path d="M 2.453125 0 L 2.21875 -0.796875 L 1 -0.796875 L 0.765625 0 L 0 0 L 1.171875 -3.34375 L 2.03125 -3.34375 L 3.21875 0 Z M 2.046875 -1.375 C 1.816406 -2.09375 1.6875 -2.5 1.65625 -2.59375 C 1.632812 -2.6875 1.617188 -2.765625 1.609375 -2.828125 C 1.554688 -2.628906 1.410156 -2.144531 1.171875 -1.375 Z M 2.046875 -1.375 "/></g></g></g><g fill="#34461d" fill-opacity="1"><g transform="translate(7.834719, 5.876293)"><g><path d="M 0.421875 -3.328125 L 1.453125 -3.328125 C 1.921875 -3.328125 2.257812 -3.257812 2.46875 -3.125 C 2.6875 -2.988281 2.796875 -2.773438 2.796875 -2.484375 C 2.796875 -2.285156 2.75 -2.117188 2.65625 -1.984375 C 2.5625 -1.859375 2.4375 -1.785156 2.28125 -1.765625 L 2.28125 -1.734375 C 2.5 -1.691406 2.65625 -1.601562 2.75 -1.46875 C 2.84375 -1.34375 2.890625 -1.175781 2.890625 -0.96875 C 2.890625 -0.664062 2.773438 -0.425781 2.546875 -0.25 C 2.328125 -0.0820312 2.03125 0 1.65625 0 L 0.421875 0 Z M 1.125 -2 L 1.53125 -2 C 1.71875 -2 1.851562 -2.03125 1.9375 -2.09375 C 2.03125 -2.15625 2.078125 -2.253906 2.078125 -2.390625 C 2.078125 -2.515625 2.03125 -2.601562 1.9375 -2.65625 C 1.84375 -2.71875 1.695312 -2.75 1.5 -2.75 L 1.125 -2.75 Z M 1.125 -1.453125 L 1.125 -0.578125 L 1.578125 -0.578125 C 1.773438 -0.578125 1.921875 -0.613281 2.015625 -0.6875 C 2.109375 -0.769531 2.15625 -0.882812 2.15625 -1.03125 C 2.15625 -1.3125 1.957031 -1.453125 1.5625 -1.453125 Z M 1.125 -1.453125 "/></g></g></g></g></g></svg>