<svg xmlns="http://www.w3.org/2000/svg" xmlns:xlink="http://www.w3.org/1999/xlink" width="500" zoomAndPan="magnify" viewBox="0 0 375 374.999991" height="500" preserveAspectRatio="xMidYMid meet" version="1.0"><defs><g/><clipPath id="3f1e959188"><path d="M 42.097656 229 L 342 229 L 342 375 L 42.097656 375 Z M 42.097656 229 " clip-rule="nonzero"/></clipPath><clipPath id="f546f3de44"><rect x="0" width="12" y="0" height="7"/></clipPath></defs><g clip-path="url(#3f1e959188)"><path fill="#100f0d" d="M 324.875 276.640625 C 299.757812 252.269531 266.089844 236.386719 251.105469 230.058594 C 235.722656 249.601562 215.277344 261.355469 192.625 261.355469 C 169.800781 261.355469 149.226562 249.410156 133.8125 229.605469 C 119.425781 235.601562 84.691406 251.671875 58.949219 276.640625 C 48.074219 287.203125 41.917969 301.699219 41.917969 316.851562 L 41.917969 393.246094 L 341.90625 393.246094 L 341.90625 316.851562 C 341.90625 301.699219 335.746094 287.203125 324.875 276.640625 " fill-opacity="1" fill-rule="nonzero"/></g><path fill="#100f0d" d="M 192.625 146.9375 C 185.492188 146.9375 145.796875 146.605469 114.273438 139.488281 C 114.769531 202.070312 149.648438 252.589844 192.625 252.589844 C 235.605469 252.589844 270.484375 202.070312 270.964844 139.488281 C 239.441406 146.605469 199.75 146.9375 192.625 146.9375 " fill-opacity="1" fill-rule="nonzero"/><path fill="#100f0d" d="M 258.402344 91.574219 C 285.121094 96.300781 302.414062 103.828125 302.414062 112.300781 C 302.414062 126.59375 253.25 138.171875 192.625 138.171875 C 131.988281 138.171875 82.839844 126.59375 82.839844 112.300781 C 82.839844 103.828125 100.132812 96.300781 126.851562 91.574219 C 128.910156 71.828125 133.054688 52.488281 142.425781 34.972656 C 158.257812 5.421875 178.414062 28.378906 192.625 28.378906 C 204.460938 28.378906 226.996094 5.421875 242.8125 34.972656 C 252.199219 52.488281 256.34375 71.828125 258.402344 91.574219 " fill-opacity="1" fill-rule="nonzero"/><g transform="matrix(1, 0, 0, 1, 233, 368)"><g clip-path="url(#f546f3de44)"><g fill="#34461d" fill-opacity="1"><g transform="translate(0.905507, 5.876293)"><g><path d="M 3.4375 -1.671875 C 3.4375 -1.273438 3.363281 -0.941406 3.21875 -0.671875 C 3.082031 -0.410156 2.878906 -0.222656 2.609375 -0.109375 L 3.421875 0.796875 L 2.515625 0.796875 L 1.90625 0.046875 L 1.859375 0.046875 C 1.347656 0.046875 0.953125 -0.0976562 0.671875 -0.390625 C 0.398438 -0.691406 0.265625 -1.117188 0.265625 -1.671875 C 0.265625 -2.222656 0.398438 -2.644531 0.671875 -2.9375 C 0.953125 -3.226562 1.347656 -3.375 1.859375 -3.375 C 2.367188 -3.375 2.757812 -3.226562 3.03125 -2.9375 C 3.300781 -2.644531 3.4375 -2.222656 3.4375 -1.671875 Z M 1.015625 -1.671875 C 1.015625 -1.296875 1.082031 -1.015625 1.21875 -0.828125 C 1.363281 -0.640625 1.578125 -0.546875 1.859375 -0.546875 C 2.421875 -0.546875 2.703125 -0.921875 2.703125 -1.671875 C 2.703125 -2.421875 2.421875 -2.796875 1.859375 -2.796875 C 1.578125 -2.796875 1.363281 -2.695312 1.21875 -2.5 C 1.082031 -2.3125 1.015625 -2.035156 1.015625 -1.671875 Z M 1.015625 -1.671875 "/></g></g></g><g fill="#34461d" fill-opacity="1"><g transform="translate(4.617178, 5.876293)"><g><path d="M 2.453125 0 L 2.21875 -0.796875 L 1 -0.796875 L 0.765625 0 L 0 0 L 1.171875 -3.34375 L 2.03125 -3.34375 L 3.21875 0 Z M 2.046875 -1.375 C 1.816406 -2.09375 1.6875 -2.5 1.65625 -2.59375 C 1.632812 -2.6875 1.617188 -2.765625 1.609375 -2.828125 C 1.554688 -2.628906 1.410156 -2.144531 1.171875 -1.375 Z M 2.046875 -1.375 "/></g></g></g><g fill="#34461d" fill-opacity="1"><g transform="translate(7.834719, 5.876293)"><g><path d="M 0.421875 -3.328125 L 1.453125 -3.328125 C 1.921875 -3.328125 2.257812 -3.257812 2.46875 -3.125 C 2.6875 -2.988281 2.796875 -2.773438 2.796875 -2.484375 C 2.796875 -2.285156 2.75 -2.117188 2.65625 -1.984375 C 2.5625 -1.859375 2.4375 -1.785156 2.28125 -1.765625 L 2.28125 -1.734375 C 2.5 -1.691406 2.65625 -1.601562 2.75 -1.46875 C 2.84375 -1.34375 2.890625 -1.175781 2.890625 -0.96875 C 2.890625 -0.664062 2.773438 -0.425781 2.546875 -0.25 C 2.328125 -0.0820312 2.03125 0 1.65625 0 L 0.421875 0 Z M 1.125 -2 L 1.53125 -2 C 1.71875 -2 1.851562 -2.03125 1.9375 -2.09375 C 2.03125 -2.15625 2.078125 -2.253906 2.078125 -2.390625 C 2.078125 -2.515625 2.03125 -2.601562 1.9375 -2.65625 C 1.84375 -2.71875 1.695312 -2.75 1.5 -2.75 L 1.125 -2.75 Z M 1.125 -1.453125 L 1.125 -0.578125 L 1.578125 -0.578125 C 1.773438 -0.578125 1.921875 -0.613281 2.015625 -0.6875 C 2.109375 -0.769531 2.15625 -0.882812 2.15625 -1.03125 C 2.15625 -1.3125 1.957031 -1.453125 1.5625 -1.453125 Z M 1.125 -1.453125 "/></g></g></g></g></g></svg>