<svg xmlns="http://www.w3.org/2000/svg" xmlns:xlink="http://www.w3.org/1999/xlink" width="500" zoomAndPan="magnify" viewBox="0 0 375 374.999991" height="500" preserveAspectRatio="xMidYMid meet" version="1.0"><defs><g/><clipPath id="fda698fcbb"><path d="M 29.359375 13.539062 L 345.84375 13.539062 L 345.84375 375 L 29.359375 375 Z M 29.359375 13.539062 " clip-rule="nonzero"/></clipPath><clipPath id="c775c9f863"><rect x="0" width="12" y="0" height="7"/></clipPath></defs><g clip-path="url(#fda698fcbb)"><path fill="#000000" d="M 251.570312 147.097656 C 248.269531 153.921875 243.789062 161.113281 239.316406 165.257812 C 232.179688 171.824219 205.40625 181.074219 194.101562 147.605469 C 192.125 141.675781 183.222656 141.675781 181.175781 147.605469 C 169.164062 183.050781 141.617188 170.480469 135.960938 165.257812 C 131.507812 161.132812 127.054688 153.996094 123.777344 147.207031 C 121.183594 141.828125 119.855469 135.925781 119.855469 129.953125 C 162 135.445312 215.015625 135.339844 255.492188 129.953125 C 255.492188 135.894531 254.15625 141.753906 251.570312 147.097656 Z M 300.5625 231.199219 L 317.445312 187.003906 C 320.273438 179.589844 314.832031 171.679688 306.847656 171.679688 L 265.519531 171.679688 C 273.328125 158.289062 278.140625 142.863281 278.097656 126.285156 C 341.417969 113.800781 336.1875 91.808594 273.789062 80.601562 C 267.289062 57.445312 254.714844 34.144531 245.105469 22.144531 C 238.398438 13.742188 226.808594 11.132812 217.203125 15.929688 L 197.703125 25.671875 C 191.347656 28.851562 183.859375 28.851562 177.5 25.671875 L 158.003906 15.929688 C 148.394531 11.132812 136.808594 13.742188 130.101562 22.144531 C 120.5625 34.144531 107.914062 57.445312 101.417969 80.601562 C 39.058594 91.832031 33.910156 113.816406 97.175781 126.285156 C 97.136719 142.863281 101.949219 158.285156 109.753906 171.679688 L 69.132812 171.679688 C 61.007812 171.679688 55.570312 179.941406 58.75 187.425781 L 76.972656 229.929688 C 48.644531 246.378906 29.359375 276.667969 29.359375 311.757812 L 29.359375 343.386719 C 29.359375 360.859375 43.527344 375.019531 61.007812 375.019531 L 314.199219 375.019531 C 331.675781 375.019531 345.84375 360.859375 345.84375 343.386719 L 345.84375 311.757812 C 345.84375 277.585938 327.621094 247.933594 300.5625 231.199219 " fill-opacity="1" fill-rule="nonzero"/></g><g transform="matrix(1, 0, 0, 1, 233, 368)"><g clip-path="url(#c775c9f863)"><g fill="#34461d" fill-opacity="1"><g transform="translate(0.905507, 5.876293)"><g><path d="M 3.4375 -1.671875 C 3.4375 -1.273438 3.363281 -0.941406 3.21875 -0.671875 C 3.082031 -0.410156 2.878906 -0.222656 2.609375 -0.109375 L 3.421875 0.796875 L 2.515625 0.796875 L 1.90625 0.046875 L 1.859375 0.046875 C 1.347656 0.046875 0.953125 -0.0976562 0.671875 -0.390625 C 0.398438 -0.691406 0.265625 -1.117188 0.265625 -1.671875 C 0.265625 -2.222656 0.398438 -2.644531 0.671875 -2.9375 C 0.953125 -3.226562 1.347656 -3.375 1.859375 -3.375 C 2.367188 -3.375 2.757812 -3.226562 3.03125 -2.9375 C 3.300781 -2.644531 3.4375 -2.222656 3.4375 -1.671875 Z M 1.015625 -1.671875 C 1.015625 -1.296875 1.082031 -1.015625 1.21875 -0.828125 C 1.363281 -0.640625 1.578125 -0.546875 1.859375 -0.546875 C 2.421875 -0.546875 2.703125 -0.921875 2.703125 -1.671875 C 2.703125 -2.421875 2.421875 -2.796875 1.859375 -2.796875 C 1.578125 -2.796875 1.363281 -2.695312 1.21875 -2.5 C 1.082031 -2.3125 1.015625 -2.035156 1.015625 -1.671875 Z M 1.015625 -1.671875 "/></g></g></g><g fill="#34461d" fill-opacity="1"><g transform="translate(4.617178, 5.876293)"><g><path d="M 2.453125 0 L 2.21875 -0.796875 L 1 -0.796875 L 0.765625 0 L 0 0 L 1.171875 -3.34375 L 2.03125 -3.34375 L 3.21875 0 Z M 2.046875 -1.375 C 1.816406 -2.09375 1.6875 -2.5 1.65625 -2.59375 C 1.632812 -2.6875 1.617188 -2.765625 1.609375 -2.828125 C 1.554688 -2.628906 1.410156 -2.144531 1.171875 -1.375 Z M 2.046875 -1.375 "/></g></g></g><g fill="#34461d" fill-opacity="1"><g transform="translate(7.834719, 5.876293)"><g><path d="M 0.421875 -3.328125 L 1.453125 -3.328125 C 1.921875 -3.328125 2.257812 -3.257812 2.46875 -3.125 C 2.6875 -2.988281 2.796875 -2.773438 2.796875 -2.484375 C 2.796875 -2.285156 2.75 -2.117188 2.65625 -1.984375 C 2.5625 -1.859375 2.4375 -1.785156 2.28125 -1.765625 L 2.28125 -1.734375 C 2.5 -1.691406 2.65625 -1.601562 2.75 -1.46875 C 2.84375 -1.34375 2.890625 -1.175781 2.890625 -0.96875 C 2.890625 -0.664062 2.773438 -0.425781 2.546875 -0.25 C 2.328125 -0.0820312 2.03125 0 1.65625 0 L 0.421875 0 Z M 1.125 -2 L 1.53125 -2 C 1.71875 -2 1.851562 -2.03125 1.9375 -2.09375 C 2.03125 -2.15625 2.078125 -2.253906 2.078125 -2.390625 C 2.078125 -2.515625 2.03125 -2.601562 1.9375 -2.65625 C 1.84375 -2.71875 1.695312 -2.75 1.5 -2.75 L 1.125 -2.75 Z M 1.125 -1.453125 L 1.125 -0.578125 L 1.578125 -0.578125 C 1.773438 -0.578125 1.921875 -0.613281 2.015625 -0.6875 C 2.109375 -0.769531 2.15625 -0.882812 2.15625 -1.03125 C 2.15625 -1.3125 1.957031 -1.453125 1.5625 -1.453125 Z M 1.125 -1.453125 "/></g></g></g></g></g></svg>