<svg xmlns="http://www.w3.org/2000/svg" xmlns:xlink="http://www.w3.org/1999/xlink" width="200" zoomAndPan="magnify" viewBox="0 0 150 149.999998" height="200" preserveAspectRatio="xMidYMid meet" version="1.0"><defs><g/><clipPath id="c6fc9aae51"><path d="M 19 109 L 130.742188 109 L 130.742188 150 L 19 150 Z M 19 109 " clip-rule="nonzero"/></clipPath><clipPath id="c029b338d0"><path d="M 93 107 L 130.742188 107 L 130.742188 150 L 93 150 Z M 93 107 " clip-rule="nonzero"/></clipPath><clipPath id="a53bd34587"><path d="M 6 1 L 8.320312 1 L 8.320312 5 L 6 5 Z M 6 1 " clip-rule="nonzero"/></clipPath><clipPath id="e859c32704"><rect x="0" width="9" y="0" height="5"/></clipPath></defs><g clip-path="url(#c6fc9aae51)"><path fill="#964f4f" d="M 130.515625 140.785156 C 130.558594 143.253906 130.558594 145.730469 130.667969 148.199219 C 130.722656 149.492188 130.324219 150.007812 128.953125 149.953125 C 126.414062 149.859375 123.871094 149.929688 121.335938 149.929688 C 88.164062 149.929688 55 149.902344 21.832031 149.972656 C 19.710938 149.976562 19.023438 149.417969 19.1875 147.328125 C 19.398438 144.722656 19.367188 142.097656 19.4375 139.480469 C 20.71875 139.421875 20.730469 140.398438 20.820312 141.246094 C 20.964844 142.699219 20.824219 144.160156 20.9375 145.609375 C 21 146.417969 21.128906 147.367188 22.140625 147.40625 C 23.320312 147.449219 23.488281 146.417969 23.488281 145.539062 C 23.488281 141.820312 23.832031 138.179688 24.738281 134.53125 C 26.089844 129.097656 29.40625 125.191406 33.71875 122.066406 C 40.351562 117.265625 47.953125 114.589844 55.824219 112.628906 C 58.496094 111.964844 61.183594 111.34375 63.914062 110.929688 C 65.160156 110.324219 65.984375 111.0625 66.761719 111.867188 C 69.386719 114.578125 72.183594 117.113281 74.992188 119.632812 C 75.207031 119.824219 75.40625 120.039062 75.621094 120.230469 C 78.726562 122.996094 79.285156 122.917969 82.316406 120.15625 C 85.480469 117.273438 88.691406 114.449219 91.398438 111.101562 C 91.976562 110.378906 92.683594 109.648438 93.808594 110.019531 C 98.496094 110.96875 103.140625 112.074219 107.570312 113.9375 C 113.121094 116.273438 118.136719 119.332031 121.726562 124.363281 C 125.234375 129.28125 126.4375 134.90625 126.816406 140.773438 C 126.917969 142.371094 126.929688 143.964844 127.261719 145.539062 C 127.390625 146.152344 127.355469 147.054688 128.234375 146.964844 C 129.039062 146.882812 128.980469 146.003906 129.027344 145.371094 C 129.105469 144.355469 129 143.332031 129.148438 142.324219 C 129.261719 141.535156 129.339844 140.65625 130.515625 140.785156 Z M 130.515625 140.785156 " fill-opacity="1" fill-rule="nonzero"/></g><path fill="#fe9881" d="M 67.375 89.199219 C 67.398438 88.140625 66.644531 87.734375 65.863281 87.292969 C 60.847656 84.453125 56.113281 81.269531 52.75 76.4375 C 51.996094 75.355469 50.984375 75.667969 50.007812 75.683594 C 44.199219 75.761719 39.710938 72.238281 38.402344 66.558594 C 37.148438 61.125 40.050781 57.046875 45.574219 56.472656 C 46.070312 56.417969 46.609375 56.519531 46.914062 55.972656 C 47.292969 55.734375 47.6875 55.632812 48.148438 55.675781 C 49.429688 55.792969 50.085938 55.097656 50.085938 53.886719 C 50.078125 48.292969 50.511719 42.675781 49.867188 37.113281 C 49.472656 33.730469 50.546875 31.289062 53.25 29.453125 C 57.511719 26.566406 62.40625 25.859375 67.359375 25.769531 C 69.582031 25.726562 71.496094 26.847656 73.328125 28.425781 C 75.910156 30.644531 79.058594 32.179688 81.492188 33.816406 C 79.355469 32.429688 76.828125 30.738281 74.21875 29.167969 C 73.792969 28.917969 73.195312 28.6875 73.453125 28.058594 C 73.707031 27.433594 74.332031 27.320312 74.933594 27.507812 C 76.320312 27.941406 77.695312 28.429688 78.949219 29.160156 C 86.699219 33.660156 94.722656 37.5 103.464844 39.683594 C 104.625 39.96875 105.441406 40.5625 105.296875 41.957031 C 105.167969 43.140625 105.960938 44.183594 105.878906 45.367188 C 105.945312 48.171875 105.871094 50.972656 105.933594 53.773438 C 105.960938 55.296875 106.339844 56.632812 107.960938 57.226562 C 108.101562 57.226562 108.257812 57.261719 108.394531 57.234375 C 116.167969 55.683594 118.851562 63.027344 116.300781 68.8125 C 114.175781 73.636719 109.492188 76.367188 104.210938 75.78125 C 103.09375 75.65625 102.453125 76 101.855469 76.859375 C 99.03125 80.910156 95.488281 84.214844 91.253906 86.714844 C 89.996094 87.457031 89.875 88.421875 89.96875 89.621094 C 87.925781 89.652344 86.054688 90.34375 84.226562 91.183594 C 80.054688 93.101562 75.898438 93.296875 71.707031 91.167969 C 70.292969 90.453125 68.773438 89.953125 67.371094 89.1875 Z M 67.375 89.199219 " fill-opacity="1" fill-rule="nonzero"/><path fill="#191919" d="M 104.816406 45.5625 C 104.742188 45.355469 104.574219 45.132812 104.609375 44.949219 C 105.261719 41.273438 102.941406 40.5625 100.042969 39.808594 C 92.691406 37.894531 85.992188 34.378906 79.398438 30.679688 C 77.71875 29.734375 75.929688 28.992188 74.078125 28.351562 C 77.5 30.695312 80.957031 32.9375 84.042969 35.757812 C 82.230469 34.628906 80.414062 33.503906 78.605469 32.375 C 77.558594 31.71875 76.464844 31.128906 75.492188 30.371094 C 69.078125 25.378906 62.328125 26.386719 55.570312 29.351562 C 51.621094 31.089844 50.855469 33.164062 51.023438 37.453125 C 51.261719 43.625 51.109375 49.808594 51.152344 55.992188 C 51.164062 57.324219 50.613281 57.664062 49.402344 57.234375 C 48.515625 56.925781 47.570312 56.765625 46.929688 55.976562 C 44.394531 48.921875 41.933594 41.839844 39.792969 34.652344 C 39.589844 33.964844 39.519531 33.242188 39.382812 32.539062 C 38.84375 31.472656 38.605469 30.363281 38.941406 29.183594 C 38.816406 25.378906 41.144531 23.027344 43.851562 20.929688 C 45.527344 19.632812 47.402344 18.632812 49.425781 18.027344 C 51.429688 17.429688 53.496094 17.050781 55.910156 16.484375 C 53.855469 15.589844 52.03125 15.261719 50.125 15.476562 C 48.097656 15.703125 46.152344 16.253906 44.316406 17.183594 C 42.601562 18.054688 41.230469 19.386719 39.796875 20.640625 C 43.65625 14.910156 49.921875 12.960938 56.730469 15.167969 C 57.421875 15.390625 58.148438 15.558594 58.777344 15.898438 C 60.140625 16.648438 60.710938 16.558594 60.816406 14.75 C 61.058594 10.613281 63.378906 7.519531 66.496094 5.085938 C 72.332031 0.53125 78.945312 0.0078125 85.902344 1.753906 C 86.292969 1.855469 86.644531 2.148438 87.277344 2.503906 C 82.902344 3.183594 79.152344 4.578125 76.019531 7.769531 C 77.414062 8.140625 78.480469 7.527344 79.574219 7.414062 C 93.746094 5.9375 104.300781 11.972656 112.277344 23.25 C 115.921875 28.40625 118.867188 34.058594 123.128906 38.78125 C 123.878906 39.613281 123.46875 39.949219 122.691406 40.382812 C 119.746094 42.023438 116.5625 42.675781 113.261719 42.519531 C 111.480469 42.429688 111.15625 43.191406 111.371094 44.65625 C 111.609375 45.292969 111.015625 45.226562 110.730469 45.414062 C 110.535156 45.488281 110.335938 45.523438 110.132812 45.519531 C 108.804688 45.410156 107.871094 43.933594 106.375 44.4375 C 105.765625 44.683594 105.582031 45.53125 104.824219 45.5625 Z M 104.816406 45.5625 " fill-opacity="1" fill-rule="nonzero"/><path fill="#fe9881" d="M 93.515625 110.628906 C 89.960938 114.160156 86.574219 117.847656 82.832031 121.203125 C 79.058594 124.582031 79.089844 124.722656 75.300781 121.347656 C 72.261719 118.640625 69.347656 115.789062 66.363281 113.023438 C 65.730469 112.433594 65.027344 111.921875 64.355469 111.375 C 62.125 110.863281 60.445312 108.875 60.792969 107.164062 C 62.03125 106.53125 63.386719 106.453125 64.730469 106.285156 C 66.789062 108.722656 66.847656 108.699219 69.894531 107.8125 C 76.921875 105.757812 82.308594 101.347656 86.992188 95.925781 C 87.417969 95.429688 87.84375 94.933594 88.261719 94.429688 C 89.207031 93.296875 89.925781 93.722656 90.539062 94.789062 C 90.933594 97.488281 91.503906 100.183594 91.667969 102.902344 C 91.800781 105.171875 92.449219 106.613281 94.941406 106.691406 C 95.339844 106.703125 95.726562 106.992188 96.121094 107.152344 C 96.726562 109.027344 96.050781 109.933594 93.515625 110.636719 Z M 93.515625 110.628906 " fill-opacity="1" fill-rule="nonzero"/><path fill="#964f4f" d="M 60.785156 107.164062 C 61.722656 108.78125 63.488281 109.699219 64.351562 111.375 C 62.050781 112.960938 59.265625 112.898438 56.703125 113.539062 C 49.566406 115.332031 42.730469 117.792969 36.359375 121.554688 C 28.425781 126.242188 24.925781 133.359375 24.621094 142.328125 C 24.570312 143.921875 24.574219 145.527344 24.613281 147.121094 C 24.65625 148.882812 23.566406 149.074219 22.179688 149.089844 C 20.738281 149.101562 19.851562 148.757812 19.796875 147.054688 C 19.71875 144.527344 20.214844 141.96875 19.4375 139.480469 C 19.636719 131.070312 22.734375 124.136719 29.660156 119.101562 C 37.609375 113.316406 46.683594 110.25 56.109375 108.019531 C 57.648438 107.65625 59.167969 107.117188 60.785156 107.167969 Z M 60.785156 107.164062 " fill-opacity="1" fill-rule="nonzero"/><path fill="#f7705c" d="M 90.53125 94.777344 C 89.179688 94.113281 88.851562 95.355469 88.273438 96.042969 C 83.359375 101.953125 77.625 106.6875 70.105469 108.882812 C 69.414062 109.089844 68.714844 109.292969 68.007812 109.449219 C 65.175781 110.085938 64.351562 109.285156 64.71875 106.273438 C 65.9375 102.980469 65.851562 99.46875 66.410156 96.0625 C 66.785156 93.78125 67.054688 91.484375 67.371094 89.191406 C 68.011719 88.4375 68.753906 88.507812 69.503906 88.980469 C 75.597656 92.84375 81.625 91.917969 87.488281 88.546875 C 89.171875 87.578125 89.570312 88.285156 89.96875 89.621094 C 90.25 91.324219 90.628906 93.027344 90.53125 94.769531 Z M 90.53125 94.777344 " fill-opacity="1" fill-rule="nonzero"/><g clip-path="url(#c029b338d0)"><path fill="#964f4f" d="M 93.515625 110.628906 C 94.226562 109.351562 95.757812 108.6875 96.121094 107.144531 C 106.996094 109.191406 116.859375 113.265625 124.183594 121.957031 C 128.710938 127.335938 130.375 133.839844 130.519531 140.785156 C 129.765625 142.757812 130.230469 144.820312 130.152344 146.839844 C 130.101562 148.195312 129.796875 149.070312 128.199219 149.082031 C 126.640625 149.089844 126.332031 148.273438 126.175781 146.898438 C 125.734375 143.074219 125.792969 139.214844 125.101562 135.402344 C 123.269531 125.230469 116.925781 118.996094 107.761719 115.207031 C 104.144531 113.707031 100.4375 112.421875 96.542969 111.785156 C 95.460938 111.613281 94.417969 111.296875 93.519531 110.625 Z M 93.515625 110.628906 " fill-opacity="1" fill-rule="nonzero"/></g><path fill="#191919" d="M 104.816406 45.5625 C 104.871094 44.652344 104.742188 43.707031 105.269531 42.882812 C 107.347656 42.820312 108.800781 44.273438 110.523438 45.074219 L 110.496094 45.058594 C 110.660156 45.210938 110.929688 45.246094 110.996094 45.511719 C 110.898438 49.65625 109.253906 53.402344 107.964844 57.234375 C 105.625 58.914062 105.300781 58.847656 105.101562 56.007812 C 104.863281 52.539062 104.898438 49.046875 104.816406 45.5625 Z M 104.816406 45.5625 " fill-opacity="1" fill-rule="nonzero"/><path fill="#191919" d="M 38.9375 29.179688 C 39.085938 30.296875 39.230469 31.417969 39.378906 32.535156 C 38.328125 35.546875 39.253906 38.507812 39.710938 41.453125 C 40.015625 43.417969 40.652344 45.332031 41.179688 47.433594 C 38.78125 44.828125 37.605469 34.417969 38.941406 29.183594 Z M 38.9375 29.179688 " fill-opacity="1" fill-rule="nonzero"/><path fill="#191919" d="M 110.996094 45.511719 C 110.828125 45.359375 110.664062 45.210938 110.496094 45.058594 C 110.785156 44.921875 111.074219 44.789062 111.359375 44.652344 C 114.101562 45.917969 117.144531 46.082031 119.996094 46.972656 C 116.835938 47.398438 113.988281 46.027344 110.996094 45.511719 Z M 110.996094 45.511719 " fill-opacity="1" fill-rule="nonzero"/><path fill="#191919" d="M 116.171875 26.644531 C 115.003906 24.890625 113.839844 23.132812 112.667969 21.378906 C 114.488281 22.703125 115.441406 24.613281 116.664062 26.34375 C 116.5 26.441406 116.335938 26.542969 116.171875 26.644531 Z M 116.171875 26.644531 " fill-opacity="1" fill-rule="nonzero"/><path fill="#191919" d="M 121.191406 31.65625 C 122.683594 32.03125 123.992188 32.753906 125.441406 33.0625 C 123.730469 33.5 122.363281 32.785156 121.191406 31.65625 Z M 121.191406 31.65625 " fill-opacity="1" fill-rule="nonzero"/><path fill="#ffffff" d="M 78.347656 78.238281 C 73.625 78.195312 69.972656 74.136719 70.367188 69.449219 C 70.449219 68.464844 70.921875 68.214844 71.753906 68.210938 C 76.179688 68.195312 80.605469 68.164062 85.035156 68.152344 C 85.808594 68.152344 86.398438 68.273438 86.496094 69.304688 C 86.929688 73.902344 82.972656 78.28125 78.347656 78.242188 Z M 78.347656 78.238281 " fill-opacity="1" fill-rule="nonzero"/><path fill="#f7705c" d="M 59.15625 66.914062 C 55.417969 66.914062 53.851562 65.84375 53.871094 63.320312 C 53.890625 60.007812 56.003906 58.164062 59.761719 58.175781 C 63.203125 58.183594 64.738281 59.605469 64.714844 62.765625 C 64.699219 65.660156 63.007812 66.917969 59.15625 66.914062 Z M 59.15625 66.914062 " fill-opacity="1" fill-rule="nonzero"/><path fill="#f7705c" d="M 97.214844 66.914062 C 96.707031 66.914062 96.203125 66.921875 95.695312 66.914062 C 92.117188 66.839844 90.546875 64.234375 92.171875 60.992188 C 92.765625 59.804688 93.65625 58.976562 95.125 59.460938 C 95.84375 59.695312 96.535156 59.632812 97.257812 59.582031 C 97.96875 59.535156 98.710938 59.542969 99.402344 59.695312 C 102.039062 60.292969 103.707031 62.144531 103.429688 64.0625 C 103.152344 65.964844 101.683594 66.855469 98.730469 66.917969 C 98.226562 66.925781 97.71875 66.917969 97.214844 66.917969 Z M 97.214844 66.914062 " fill-opacity="1" fill-rule="nonzero"/><path fill="#191919" d="M 100.824219 46.121094 C 96.09375 44.191406 91.191406 43.929688 86.277344 43.765625 C 84.980469 43.722656 83.933594 43.257812 83.96875 41.757812 C 84.003906 40.257812 85.109375 39.890625 86.371094 39.832031 C 90.039062 39.65625 93.59375 40.261719 97.011719 41.542969 C 99.042969 42.304688 99.960938 44.164062 100.824219 46.117188 Z M 100.824219 46.121094 " fill-opacity="1" fill-rule="nonzero"/><path fill="#191919" d="M 54.761719 46.644531 C 55.796875 44.324219 56.925781 42.558594 58.984375 41.78125 C 62.121094 40.597656 65.390625 39.875 68.765625 39.886719 C 70.109375 39.886719 71.566406 40.0625 71.605469 41.855469 C 71.640625 43.597656 70.214844 43.980469 68.878906 44.035156 C 65.757812 44.167969 62.632812 44.183594 59.597656 45.035156 C 58.089844 45.460938 56.621094 46.019531 54.761719 46.644531 Z M 54.761719 46.644531 " fill-opacity="1" fill-rule="nonzero"/><path fill="#f7705c" d="M 112.886719 63.011719 C 112.734375 63.929688 112.089844 64.0625 111.65625 64.394531 C 110.628906 65.175781 109.902344 65.75 111.378906 66.996094 C 112.734375 68.140625 111.910156 69.53125 110.929688 70.601562 C 109.851562 71.78125 108.433594 72.765625 106.933594 71.789062 C 105.582031 70.90625 105.902344 69.277344 106.664062 68.078125 C 108.128906 65.765625 109.890625 63.726562 112.886719 63.011719 Z M 112.886719 63.011719 " fill-opacity="1" fill-rule="nonzero"/><path fill="#f7705c" d="M 45.984375 65.113281 C 44.871094 64.261719 43.910156 63.527344 42.902344 62.757812 C 45.554688 62.40625 49.089844 65.519531 49.011719 68.046875 C 48.984375 68.902344 48.769531 69.703125 47.804688 69.847656 C 46.292969 70.074219 44.726562 70.222656 43.601562 68.855469 C 42.976562 68.09375 42.710938 67.148438 43.214844 66.222656 C 43.757812 65.234375 45 65.929688 45.984375 65.113281 Z M 45.984375 65.113281 " fill-opacity="1" fill-rule="nonzero"/><path fill="#191919" d="M 64.214844 51.753906 C 65.4375 52.042969 66.449219 52.558594 66.417969 54.015625 C 66.386719 55.3125 65.570312 56.082031 64.355469 56.105469 C 63.007812 56.125 62.195312 55.285156 62.203125 53.898438 C 62.210938 52.621094 62.941406 51.914062 64.214844 51.753906 Z M 64.214844 51.753906 " fill-opacity="1" fill-rule="nonzero"/><path fill="#191919" d="M 91.457031 52.066406 C 92.675781 52.148438 93.496094 52.726562 93.46875 54.058594 C 93.441406 55.457031 92.507812 56.195312 91.25 56.179688 C 90.003906 56.164062 89.300781 55.210938 89.316406 54.011719 C 89.332031 52.746094 90.152344 52.097656 91.460938 52.066406 Z M 91.457031 52.066406 " fill-opacity="1" fill-rule="nonzero"/><path fill="#f7705c" d="M 78.984375 63.550781 C 78.199219 59.507812 78.992188 55.425781 78.710938 51.371094 C 79.554688 54.234375 79.808594 61.121094 78.984375 63.550781 Z M 78.984375 63.550781 " fill-opacity="1" fill-rule="nonzero"/><path fill="#191919" d="M 96.089844 53.5 C 94.03125 51.585938 91.976562 49.875 88.761719 51.050781 C 89.796875 49.617188 90.539062 49.199219 91.855469 49.539062 C 93.894531 50.066406 95.410156 51.304688 96.085938 53.5 Z M 96.089844 53.5 " fill-opacity="1" fill-rule="nonzero"/><path fill="#191919" d="M 67.636719 50.929688 C 63.933594 49.324219 62.019531 52.0625 59.5 53.773438 C 60.515625 49.8125 64.820312 48.257812 67.636719 50.929688 Z M 67.636719 50.929688 " fill-opacity="1" fill-rule="nonzero"/><path fill="#191919" d="M 110.527344 45.074219 C 108.773438 44.347656 107.027344 43.613281 105.273438 42.882812 C 105.15625 42.4375 105.285156 42.09375 105.769531 42.339844 C 107.40625 43.160156 109.238281 43.65625 110.527344 45.074219 Z M 110.527344 45.074219 " fill-opacity="1" fill-rule="nonzero"/><g transform="matrix(1, 0, 0, 1, 74, 145)"><g clip-path="url(#e859c32704)"><g fill="#58677e" fill-opacity="1"><g transform="translate(0.999997, 4.067974)"><g><path d="M 2.5 -1.21875 C 2.5 -0.925781 2.445312 -0.679688 2.34375 -0.484375 C 2.25 -0.296875 2.101562 -0.160156 1.90625 -0.078125 L 2.484375 0.578125 L 1.828125 0.578125 L 1.390625 0.03125 L 1.34375 0.03125 C 0.976562 0.03125 0.695312 -0.0703125 0.5 -0.28125 C 0.300781 -0.5 0.203125 -0.8125 0.203125 -1.21875 C 0.203125 -1.625 0.300781 -1.929688 0.5 -2.140625 C 0.695312 -2.347656 0.984375 -2.453125 1.359375 -2.453125 C 1.722656 -2.453125 2.003906 -2.34375 2.203125 -2.125 C 2.398438 -1.914062 2.5 -1.613281 2.5 -1.21875 Z M 0.734375 -1.21875 C 0.734375 -0.945312 0.785156 -0.738281 0.890625 -0.59375 C 0.992188 -0.457031 1.144531 -0.390625 1.34375 -0.390625 C 1.757812 -0.390625 1.96875 -0.664062 1.96875 -1.21875 C 1.96875 -1.757812 1.765625 -2.03125 1.359375 -2.03125 C 1.148438 -2.03125 0.992188 -1.960938 0.890625 -1.828125 C 0.785156 -1.691406 0.734375 -1.488281 0.734375 -1.21875 Z M 0.734375 -1.21875 "/></g></g></g><g fill="#58677e" fill-opacity="1"><g transform="translate(3.694763, 4.067974)"><g><path d="M 1.78125 0 L 1.609375 -0.578125 L 0.734375 -0.578125 L 0.546875 0 L 0 0 L 0.859375 -2.4375 L 1.484375 -2.4375 L 2.34375 0 Z M 1.484375 -1 C 1.328125 -1.53125 1.238281 -1.828125 1.21875 -1.890625 C 1.195312 -1.960938 1.179688 -2.015625 1.171875 -2.046875 C 1.128906 -1.910156 1.023438 -1.5625 0.859375 -1 Z M 1.484375 -1 "/></g></g></g><g clip-path="url(#a53bd34587)"><g fill="#58677e" fill-opacity="1"><g transform="translate(6.030779, 4.067974)"><g><path d="M 0.296875 -2.421875 L 1.0625 -2.421875 C 1.40625 -2.421875 1.648438 -2.367188 1.796875 -2.265625 C 1.953125 -2.171875 2.03125 -2.019531 2.03125 -1.8125 C 2.03125 -1.664062 1.992188 -1.546875 1.921875 -1.453125 C 1.859375 -1.359375 1.773438 -1.300781 1.671875 -1.28125 L 1.671875 -1.265625 C 1.816406 -1.234375 1.921875 -1.171875 1.984375 -1.078125 C 2.054688 -0.984375 2.09375 -0.859375 2.09375 -0.703125 C 2.09375 -0.484375 2.015625 -0.3125 1.859375 -0.1875 C 1.703125 -0.0625 1.484375 0 1.203125 0 L 0.296875 0 Z M 0.8125 -1.46875 L 1.109375 -1.46875 C 1.253906 -1.46875 1.359375 -1.488281 1.421875 -1.53125 C 1.484375 -1.570312 1.515625 -1.640625 1.515625 -1.734375 C 1.515625 -1.828125 1.476562 -1.894531 1.40625 -1.9375 C 1.34375 -1.976562 1.238281 -2 1.09375 -2 L 0.8125 -2 Z M 0.8125 -1.046875 L 0.8125 -0.421875 L 1.15625 -0.421875 C 1.289062 -0.421875 1.390625 -0.445312 1.453125 -0.5 C 1.523438 -0.5625 1.5625 -0.644531 1.5625 -0.75 C 1.5625 -0.945312 1.421875 -1.046875 1.140625 -1.046875 Z M 0.8125 -1.046875 "/></g></g></g></g></g></g></svg>