<svg xmlns="http://www.w3.org/2000/svg" xmlns:xlink="http://www.w3.org/1999/xlink" width="200" zoomAndPan="magnify" viewBox="0 0 150 149.999998" height="200" preserveAspectRatio="xMidYMid meet" version="1.0"><defs><g/><clipPath id="31dd6d2200"><path d="M 16.097656 118 L 133.847656 118 L 133.847656 150 L 16.097656 150 Z M 16.097656 118 " clip-rule="nonzero"/></clipPath><clipPath id="33b9290039"><path d="M 115 126 L 133.847656 126 L 133.847656 148 L 115 148 Z M 115 126 " clip-rule="nonzero"/></clipPath><clipPath id="d6c9a46701"><path d="M 6 1 L 8.320312 1 L 8.320312 5 L 6 5 Z M 6 1 " clip-rule="nonzero"/></clipPath><clipPath id="a552767792"><rect x="0" width="9" y="0" height="5"/></clipPath></defs><path fill="#fe9881" d="M 100.742188 77.378906 C 100.804688 79.414062 100.757812 81.460938 100.636719 83.496094 C 100.566406 84.621094 99.964844 85.554688 99.433594 86.5 C 97.589844 89.738281 95.199219 92.535156 92.492188 95.066406 C 92.039062 95.496094 91.863281 95.921875 91.863281 96.523438 C 91.871094 101.269531 91.863281 106.019531 91.847656 110.761719 C 91.847656 111.171875 91.976562 111.609375 91.664062 111.976562 C 91.105469 111.714844 91.15625 111.179688 91.148438 110.71875 C 91.113281 109.128906 91.070312 107.539062 91.226562 105.949219 C 90.964844 104.875 91.164062 103.78125 91.140625 102.699219 C 91.105469 101.257812 91.140625 99.816406 91.121094 98.375 C 91.121094 98.042969 91.253906 97.609375 90.84375 97.441406 C 90.511719 97.300781 90.265625 97.632812 90.019531 97.816406 C 87.59375 99.644531 85 101.179688 82.199219 102.359375 C 79.859375 103.335938 77.484375 104.230469 74.953125 104.542969 C 73.058594 104.777344 71.269531 104.125 69.503906 103.566406 C 65.679688 102.34375 62.257812 100.359375 59.054688 97.976562 C 58.628906 97.660156 58.199219 97.347656 57.621094 97.433594 C 57.703125 96.226562 57.003906 95.46875 56.183594 94.691406 C 53.492188 92.132812 51.214844 89.242188 49.3125 86.035156 C 48.527344 84.707031 48.167969 83.335938 48.34375 81.808594 C 48.160156 81.015625 48.308594 80.203125 48.253906 79.40625 C 48.195312 78.5 48.429688 77.574219 47.773438 76.707031 C 47.375 76.175781 47.800781 75.328125 47.46875 74.664062 C 47.445312 71.722656 47.503906 68.777344 47.25 65.84375 C 47.226562 65.589844 47.234375 65.355469 47.390625 65.136719 C 47.6875 64.796875 48.070312 64.855469 48.464844 64.863281 C 49.808594 64.875 50.316406 64.402344 50.367188 63.046875 C 50.402344 61.992188 50.359375 60.933594 50.386719 59.878906 C 50.542969 53.152344 51.015625 46.464844 52.535156 39.886719 C 53.101562 37.441406 53.964844 35.109375 55.195312 32.90625 C 55.683594 32.035156 56.355469 31.617188 57.394531 31.570312 C 60.933594 31.433594 64.308594 32.21875 67.652344 33.230469 C 69.539062 33.800781 71.417969 34.394531 73.328125 34.855469 C 74.960938 35.257812 76.613281 34.90625 78.234375 34.566406 C 80.304688 34.128906 82.285156 33.386719 84.320312 32.820312 C 86.632812 32.175781 88.964844 31.730469 91.367188 31.570312 C 92.691406 31.484375 93.460938 32.105469 94.039062 33.195312 C 95.328125 35.605469 96.210938 38.15625 96.777344 40.820312 C 97.800781 45.617188 98.28125 50.472656 98.535156 55.363281 C 98.65625 57.789062 98.671875 60.210938 98.707031 62.636719 C 98.734375 64.464844 98.988281 64.761719 100.785156 64.988281 C 100.960938 65.011719 101.136719 65.039062 101.285156 65.136719 C 101.582031 65.300781 101.765625 65.546875 101.703125 65.90625 C 101.195312 68.777344 101.527344 71.667969 101.519531 74.550781 C 101.378906 74.953125 101.421875 75.378906 101.441406 75.792969 C 101.476562 76.453125 101.308594 77.015625 100.742188 77.40625 Z M 100.742188 77.378906 " fill-opacity="1" fill-rule="nonzero"/><g clip-path="url(#31dd6d2200)"><path fill="#964f4f" d="M 133.078125 147.609375 C 133.835938 149.175781 133.382812 149.957031 131.71875 149.957031 C 94.027344 149.957031 56.339844 149.957031 18.660156 149.957031 C 18.058594 149.957031 17.464844 149.925781 16.859375 149.957031 C 16.179688 149.992188 16.09375 149.703125 16.277344 149.128906 C 17.480469 145.453125 19.191406 142.046875 21.558594 138.972656 C 24.039062 136.140625 26.855469 133.707031 29.992188 131.625 C 30.394531 131.355469 30.671875 130.972656 30.601562 130.480469 C 30.523438 129.90625 30.785156 129.46875 31.03125 129.007812 C 31.101562 128.945312 31.171875 128.882812 31.238281 128.824219 C 31.589844 128.683594 31.894531 128.789062 32.050781 129.101562 C 32.515625 129.976562 33.097656 129.589844 33.640625 129.257812 C 35.519531 128.089844 37.421875 126.945312 39.386719 125.933594 C 44.328125 123.382812 49.476562 121.3125 54.714844 119.453125 C 55.308594 119.242188 55.945312 118.972656 56.367188 119.757812 C 58.320312 124.105469 60.207031 128.492188 62.320312 132.769531 C 62.949219 134.046875 62.921875 134.027344 63.898438 132.9375 C 66.457031 130.097656 69.035156 127.269531 71.609375 124.4375 C 71.992188 124.054688 72.402344 124.195312 72.753906 124.4375 C 74.054688 125.339844 75.347656 125.441406 76.636719 124.4375 C 76.988281 124.167969 77.34375 124.183594 77.730469 124.359375 C 80.488281 127.3125 83.265625 130.253906 86.003906 133.234375 C 86.632812 133.914062 86.871094 133.878906 87.226562 133.015625 C 89.140625 128.367188 91.050781 123.714844 93.15625 119.144531 C 93.558594 118.824219 93.96875 119.050781 94.359375 119.15625 C 98.535156 120.296875 102.539062 121.871094 106.453125 123.722656 C 108.644531 124.761719 110.746094 125.949219 112.816406 127.207031 C 114.03125 127.949219 114.066406 127.914062 114.929688 126.761719 C 115.148438 126.464844 115.417969 126.386719 115.757812 126.464844 C 116.160156 126.953125 116.167969 127.496094 116.019531 128.0625 C 115.8125 128.894531 116.125 129.460938 116.816406 129.933594 C 119.984375 132.097656 122.828125 134.648438 125.519531 137.390625 C 128.269531 140.195312 130.738281 143.214844 132.53125 146.746094 C 132.6875 147.050781 132.808594 147.390625 133.078125 147.628906 Z M 133.078125 147.609375 " fill-opacity="1" fill-rule="nonzero"/></g><path fill="#191919" d="M 101.125 65.449219 C 98.296875 65.449219 98.191406 65.355469 98.203125 62.566406 C 98.203125 55.34375 97.792969 48.15625 96.289062 41.074219 C 95.695312 38.269531 94.8125 35.570312 93.363281 33.082031 C 92.945312 32.367188 92.421875 32.042969 91.574219 32.085938 C 88.5625 32.226562 85.664062 32.933594 82.800781 33.808594 C 82.292969 33.964844 81.789062 34.105469 81.289062 34.289062 C 77.300781 35.765625 73.355469 35.71875 69.320312 34.3125 C 65.566406 33.003906 61.726562 32.007812 57.675781 32.042969 C 56.609375 32.050781 56 32.445312 55.511719 33.34375 C 53.386719 37.257812 52.566406 41.539062 51.949219 45.859375 C 51.136719 51.546875 50.832031 57.257812 50.875 63.003906 C 50.890625 65.1875 50.078125 65.800781 47.914062 65.292969 C 47.773438 65.257812 47.636719 65.25 47.496094 65.222656 C 46.675781 65.46875 46.394531 64.898438 46.289062 64.304688 C 46.054688 63.046875 45.800781 61.800781 45.609375 60.535156 C 45.539062 59.921875 45.199219 59.320312 45.566406 58.699219 C 45.207031 56.707031 44.34375 54.898438 43.566406 53.066406 C 42.492188 50.550781 41.339844 48.0625 40.230469 45.554688 C 40.003906 45.046875 39.855469 44.507812 39.664062 43.972656 C 39.203125 41.746094 39.226562 39.519531 39.8125 37.320312 C 40.625 34.261719 41.953125 31.519531 44.71875 29.71875 C 45.644531 29.117188 46.667969 28.777344 47.714844 28.558594 C 47.765625 28.460938 47.765625 28.382812 47.6875 28.347656 C 45.574219 27.492188 44.824219 25.605469 44.222656 23.667969 C 43.550781 21.511719 43.113281 19.308594 43.621094 17.039062 C 43.707031 16.636719 43.707031 16.164062 44.335938 16.234375 C 44.589844 19.054688 45.800781 21.328125 48.125 22.976562 C 48.300781 22.941406 48.457031 22.839844 48.628906 22.875 C 49.320312 23.03125 49.285156 22.671875 49.1875 22.175781 C 48.640625 19.433594 48.613281 16.679688 49.09375 13.929688 C 49.679688 10.574219 51.09375 7.625 53.25 4.976562 C 54.542969 3.398438 56.234375 2.382812 57.851562 1.25 C 58.625 0.925781 59.394531 0.59375 60.179688 0.289062 C 60.503906 0.164062 60.898438 0.0078125 61.132812 0.390625 C 61.386719 0.792969 61.027344 1.03125 60.785156 1.273438 C 59.5625 2.453125 58.46875 3.726562 57.507812 5.125 C 55.484375 8.078125 54.417969 11.335938 54.289062 14.90625 C 54.75 15.117188 54.792969 15.964844 55.351562 15.84375 C 55.789062 15.746094 55.988281 15.125 56.304688 14.75 C 60.144531 10.140625 64.957031 7.316406 70.996094 6.757812 C 71.433594 6.714844 71.898438 6.671875 72.054688 7.1875 C 72.21875 7.71875 71.765625 7.929688 71.398438 8.128906 C 69.390625 9.230469 67.53125 10.507812 66.5625 11.667969 C 68.738281 9.117188 72.273438 7.796875 76.28125 7.230469 C 78.769531 6.882812 80.742188 7.878906 82.714844 9.039062 C 84.835938 10.289062 86.789062 11.789062 88.808594 13.195312 C 90.632812 14.472656 92.554688 15.546875 94.710938 16.183594 C 100.027344 17.765625 104.207031 14.628906 105.632812 10.460938 C 105.769531 10.058594 105.882812 9.660156 106.078125 9.285156 C 106.222656 8.996094 106.40625 8.714844 106.800781 8.792969 C 107.167969 8.871094 107.28125 9.1875 107.308594 9.519531 C 107.402344 10.714844 107.4375 11.921875 107.324219 13.101562 C 107.113281 15.316406 106.601562 17.46875 105.585938 19.476562 C 105.308594 20.035156 104.984375 20.574219 104.46875 20.960938 C 105.953125 19.84375 107.515625 18.847656 108.859375 17.535156 C 109.445312 16.96875 110.128906 17.300781 110.378906 18.246094 C 110.835938 19.921875 110.835938 21.625 110.519531 23.328125 C 110.277344 24.628906 109.796875 25.832031 109.351562 26.542969 C 109.882812 25.738281 110.320312 24.375 110.605469 22.960938 C 110.6875 22.574219 110.667969 22.121094 111.164062 22.078125 C 111.691406 22.027344 111.847656 22.460938 112.011719 22.875 C 112.589844 24.296875 112.746094 25.808594 112.824219 27.308594 C 112.957031 29.832031 112.640625 32.296875 111.714844 34.664062 C 111.621094 34.917969 111.453125 35.171875 111.515625 35.46875 C 111.453125 35.773438 111.304688 36.085938 111.347656 36.382812 C 111.96875 40.726562 110.886719 44.777344 109.105469 48.65625 C 107.675781 51.78125 106.042969 54.8125 104.503906 57.894531 C 104.410156 58.078125 104.355469 58.289062 104.285156 58.480469 C 104.785156 59.378906 103.964844 60.027344 103.832031 60.804688 C 103.667969 61.808594 103.230469 62.734375 103.0625 63.746094 C 102.828125 65.195312 102.523438 65.40625 101.109375 65.433594 Z M 101.125 65.449219 " fill-opacity="1" fill-rule="nonzero"/><path fill="#191919" d="M 111.53125 35.484375 C 111.304688 34.445312 111.742188 33.484375 111.917969 32.496094 C 112.476562 29.335938 112.589844 26.210938 111.566406 23.117188 C 111.507812 22.917969 111.410156 22.734375 111.226562 22.261719 C 110.816406 24.820312 110.066406 26.953125 107.988281 28.636719 C 108.574219 27.273438 109.089844 26.148438 109.558594 24.996094 C 110.433594 22.863281 110.398438 20.671875 109.933594 18.460938 C 109.769531 17.648438 109.4375 17.554688 108.835938 18.164062 C 107.691406 19.316406 106.453125 20.359375 105.019531 21.136719 C 104.628906 21.34375 104.261719 21.632812 103.632812 21.546875 C 106.496094 17.878906 107.082031 13.703125 106.644531 9.257812 C 106.488281 9.703125 106.328125 10.15625 106.171875 10.601562 C 104.347656 15.980469 99.03125 18.460938 93.707031 16.445312 C 91.277344 15.527344 89.164062 14.085938 87.0625 12.609375 C 85.105469 11.238281 83.160156 9.859375 81.0625 8.699219 C 79.222656 7.675781 77.355469 7.589844 75.363281 7.910156 C 71.6875 8.503906 68.578125 10.128906 66.03125 12.835938 C 65.734375 13.152344 65.480469 13.546875 64.867188 13.71875 C 66.34375 10.609375 68.867188 8.863281 71.722656 7.398438 C 70.667969 7.230469 68.003906 7.71875 66.492188 8.234375 C 62.003906 9.761719 58.503906 12.566406 55.753906 16.382812 C 55.519531 16.707031 55.363281 17.308594 54.898438 17.1875 C 54.488281 17.074219 54.585938 16.472656 54.496094 16.070312 C 54.417969 15.695312 54.367188 15.308594 54.304688 14.925781 C 54.574219 14.96875 54.65625 14.785156 54.757812 14.585938 C 60.625 3.84375 73.484375 0.941406 83.472656 6.207031 C 85.875 7.476562 88.109375 8.996094 90.398438 10.445312 C 92.003906 11.464844 93.636719 12.425781 95.441406 13.054688 C 100.296875 14.742188 104.984375 12.261719 106.085938 7.421875 C 106.207031 6.882812 106.199219 6.304688 106.25 5.746094 C 106.277344 5.40625 106.199219 4.976562 106.652344 4.871094 C 107.183594 4.75 107.28125 5.230469 107.410156 5.570312 C 109 9.660156 109.339844 13.753906 107.457031 17.859375 C 107.421875 17.9375 107.410156 18.035156 107.324219 18.359375 C 109.273438 16.558594 110.265625 14.550781 110.433594 12.128906 C 110.460938 11.796875 110.320312 11.363281 110.773438 11.230469 C 111.21875 11.109375 111.394531 11.492188 111.523438 11.816406 C 114.875 19.589844 115.644531 27.398438 111.75 35.238281 C 111.707031 35.328125 111.621094 35.398438 111.558594 35.476562 Z M 111.53125 35.484375 " fill-opacity="1" fill-rule="nonzero"/><path fill="#fe9881" d="M 91.636719 105.582031 C 91.636719 107.714844 91.652344 109.84375 91.664062 111.976562 C 87.113281 114.621094 82.574219 117.257812 78.035156 119.90625 C 77.152344 120.421875 76.289062 120.945312 75.414062 121.46875 C 74.742188 122.316406 74.59375 122.316406 73.90625 121.46875 C 68.789062 118.414062 63.683594 115.347656 58.546875 112.316406 C 57.859375 111.90625 57.5625 111.460938 57.597656 110.648438 C 57.667969 108.972656 57.640625 107.285156 57.65625 105.601562 C 58.136719 105.058594 58.609375 105.355469 59.074219 105.625 C 61.464844 106.996094 63.960938 108.113281 66.640625 108.789062 C 70.273438 109.703125 73.941406 110.140625 77.703125 109.800781 C 81.5 109.453125 85.089844 108.480469 88.503906 106.796875 C 89.199219 106.457031 89.792969 105.949219 90.5 105.617188 C 90.886719 105.433594 91.269531 105.207031 91.652344 105.601562 Z M 91.636719 105.582031 " fill-opacity="1" fill-rule="nonzero"/><path fill="#f7705c" d="M 91.636719 105.582031 C 89.523438 106.683594 87.550781 108.046875 85.238281 108.769531 C 81.097656 110.0625 76.925781 110.710938 72.578125 110.324219 C 68.894531 110 65.367188 109.207031 61.988281 107.714844 C 60.863281 107.214844 59.78125 106.628906 58.714844 106.011719 C 58.375 105.816406 58.050781 105.601562 57.648438 105.589844 C 57.648438 102.867188 57.632812 100.140625 57.625 97.40625 C 57.65625 97.09375 57.683594 96.789062 57.746094 96.226562 C 59.019531 97.3125 60.257812 98.195312 61.527344 99.03125 C 65.324219 101.539062 69.382812 103.476562 73.929688 103.992188 C 76.070312 104.238281 78.121094 103.3125 80.148438 102.578125 C 84.050781 101.164062 87.601562 99.144531 90.808594 96.515625 C 91 96.359375 91.234375 96.019531 91.515625 96.238281 C 91.652344 96.351562 91.644531 96.691406 91.644531 96.925781 C 91.644531 99.808594 91.644531 102.691406 91.644531 105.574219 Z M 91.636719 105.582031 " fill-opacity="1" fill-rule="nonzero"/><path fill="#fe9881" d="M 103.457031 60.585938 C 103.667969 59.859375 103.910156 59.144531 104.3125 58.5 C 109.855469 58.261719 113.105469 62.238281 114.011719 65.5625 C 115.234375 70.042969 113.566406 74.742188 109.742188 77.109375 C 107.132812 78.726562 104.355469 79.066406 101.527344 77.546875 C 101.285156 77.414062 101.046875 77.230469 100.742188 77.390625 C 101.125 76.480469 100.707031 75.449219 101.144531 74.550781 C 101.484375 74.226562 101.851562 74.367188 102.234375 74.472656 C 105.4375 75.328125 107.996094 74.070312 109.246094 70.980469 C 110.09375 68.875 110.1875 66.769531 109.203125 64.648438 C 108.234375 62.550781 106.554688 61.554688 104.332031 61.34375 C 103.867188 61.300781 103.238281 61.441406 103.457031 60.59375 Z M 103.457031 60.585938 " fill-opacity="1" fill-rule="nonzero"/><path fill="#fe9881" d="M 45.582031 58.691406 C 45.933594 59.1875 45.996094 59.773438 46.074219 60.359375 C 46.238281 60.804688 46.039062 61.023438 45.609375 61.09375 C 45.402344 61.128906 45.191406 61.128906 44.980469 61.109375 C 41.332031 60.796875 38.957031 64.132812 38.949219 67.136719 C 38.949219 68.785156 39.203125 70.332031 39.980469 71.800781 C 40.851562 73.460938 42.152344 74.488281 43.996094 74.910156 C 44.902344 75.109375 45.722656 75.003906 46.5625 74.65625 C 46.9375 74.5 47.3125 74.203125 47.738281 74.542969 C 48.054688 74.707031 48.132812 74.996094 48.160156 75.328125 C 48.300781 77.476562 48.492188 79.632812 48.359375 81.792969 C 48.089844 80.542969 48.238281 79.265625 48.160156 78.007812 C 48.125 77.484375 47.984375 77.300781 47.453125 77.574219 C 42.675781 80.078125 36.050781 77.136719 34.707031 70.480469 C 33.441406 64.261719 37.910156 58.464844 43.933594 58.5 C 44.492188 58.5 45.050781 58.628906 45.601562 58.699219 Z M 45.582031 58.691406 " fill-opacity="1" fill-rule="nonzero"/><path fill="#964f4f" d="M 56.375 119.738281 C 56.023438 119.574219 55.683594 119.652344 55.351562 119.773438 C 49.660156 121.820312 44.011719 124 38.695312 126.910156 C 36.785156 127.949219 34.933594 129.121094 33.0625 130.238281 C 32.121094 130.804688 31.992188 130.769531 31.71875 129.722656 C 31.632812 129.375 31.5625 129.03125 31.25 128.8125 C 35.308594 125.292969 39.8125 122.4375 44.527344 119.886719 C 47.433594 118.316406 50.429688 116.917969 53.46875 115.609375 C 54.261719 115.269531 54.664062 115.390625 54.960938 116.21875 C 55.378906 117.40625 55.902344 118.570312 56.382812 119.738281 Z M 56.375 119.738281 " fill-opacity="1" fill-rule="nonzero"/><path fill="#964f4f" d="M 115.75 126.449219 C 115.253906 126.824219 115.207031 127.425781 115.023438 127.941406 C 114.746094 128.71875 114.40625 128.804688 113.714844 128.351562 C 109.699219 125.75 105.421875 123.636719 100.96875 121.886719 C 98.882812 121.066406 96.71875 120.4375 94.585938 119.738281 C 94.082031 119.574219 93.582031 119.433594 93.148438 119.109375 C 93.582031 118.035156 94.019531 116.972656 94.457031 115.898438 C 94.621094 115.496094 94.839844 115.277344 95.339844 115.46875 C 102.550781 118.289062 109.429688 121.738281 115.6875 126.351562 C 115.714844 126.367188 115.722656 126.414062 115.75 126.4375 Z M 115.75 126.449219 " fill-opacity="1" fill-rule="nonzero"/><path fill="#191919" d="M 44.351562 16.242188 C 43.609375 21.414062 43.960938 26.15625 49.636719 28.90625 C 48.472656 29.292969 47.546875 29.054688 46.675781 29.363281 C 44.179688 30.234375 42.570312 32.042969 41.464844 34.324219 C 40.179688 36.96875 39.726562 39.800781 39.875 42.726562 C 39.902344 43.160156 39.785156 43.5625 39.683594 43.964844 C 38.292969 40.742188 37.515625 37.414062 38.242188 33.914062 C 38.976562 30.382812 40.972656 27.878906 44.457031 26.679688 C 44.640625 26.621094 44.824219 26.542969 45.113281 26.425781 C 42.980469 24.3125 42.214844 21.746094 42.273438 18.90625 C 42.320312 16.925781 42.753906 15.003906 43.523438 13.167969 C 43.664062 12.828125 43.777344 12.339844 44.273438 12.4375 C 44.859375 12.550781 44.570312 13.054688 44.554688 13.398438 C 44.5 14.339844 44.421875 15.285156 44.351562 16.234375 Z M 44.351562 16.242188 " fill-opacity="1" fill-rule="nonzero"/><path fill="#191919" d="M 57.867188 1.257812 C 57.386719 2.21875 56.375 2.601562 55.632812 3.273438 C 52.464844 6.175781 50.386719 9.683594 49.660156 13.914062 C 49.074219 17.300781 49.066406 20.691406 50.410156 24.085938 C 49.40625 24.027344 48.8125 23.414062 48.148438 22.976562 C 47.277344 20.839844 46.847656 18.628906 46.894531 16.3125 C 47.03125 9.625 51.597656 3.335938 57.867188 1.25 Z M 57.867188 1.257812 " fill-opacity="1" fill-rule="nonzero"/><g clip-path="url(#33b9290039)"><path fill="#964f4f" d="M 133.078125 147.609375 C 132.015625 146.847656 131.480469 145.660156 130.785156 144.628906 C 126.949219 138.972656 122.113281 134.316406 116.542969 130.414062 C 115.515625 129.6875 115.09375 128.996094 115.503906 127.808594 C 115.652344 127.382812 115.671875 126.910156 115.75 126.464844 C 118.210938 128.046875 120.367188 129.992188 122.472656 132.011719 C 126.777344 136.132812 130.25 140.847656 132.632812 146.335938 C 132.816406 146.753906 132.929688 147.191406 133.078125 147.617188 Z M 133.078125 147.609375 " fill-opacity="1" fill-rule="nonzero"/></g><path fill="#964f4f" d="M 31.03125 128.996094 C 31.605469 130.839844 30.792969 131.914062 29.242188 132.875 C 26.71875 134.449219 24.464844 136.386719 22.34375 138.472656 C 22.117188 138.699219 21.871094 138.894531 21.550781 138.964844 C 23.523438 135.984375 26 133.441406 28.601562 131.023438 C 29.371094 130.308594 30.121094 129.558594 31.023438 128.996094 Z M 31.03125 128.996094 " fill-opacity="1" fill-rule="nonzero"/><path fill="#964f4f" d="M 73.894531 121.460938 C 74.402344 121.695312 74.898438 121.820312 75.40625 121.460938 C 75.484375 122.414062 76.367188 122.78125 76.875 123.417969 C 77.125 123.738281 77.441406 124.027344 77.71875 124.332031 C 77.386719 124.367188 77.171875 124.605469 76.925781 124.796875 C 75.320312 126.054688 74.105469 126.0625 72.507812 124.847656 C 72.238281 124.648438 72.011719 124.34375 71.609375 124.421875 C 72.046875 123.714844 72.726562 123.226562 73.265625 122.605469 C 73.5625 122.265625 73.835938 121.921875 73.894531 121.453125 Z M 73.894531 121.460938 " fill-opacity="1" fill-rule="nonzero"/><path fill="#191919" d="M 60.207031 83.015625 C 59.628906 83.164062 59.054688 83.320312 58.476562 83.46875 C 57.726562 83.660156 57.605469 83.347656 57.832031 82.683594 C 59.117188 78.839844 63.332031 75.617188 67.382812 75.398438 C 69.671875 75.277344 71.898438 75.425781 73.851562 76.777344 C 74.28125 77.074219 74.621094 76.980469 75.003906 76.71875 C 79.414062 73.703125 87.691406 75.546875 90.152344 83.117188 C 90.386719 83.84375 90.214844 84.140625 89.417969 83.835938 C 88.824219 83.609375 88.222656 83.425781 87.628906 83.214844 C 86.992188 83.25 86.398438 83.050781 85.832031 82.785156 C 82.941406 81.46875 79.859375 80.960938 76.734375 80.8125 C 72.332031 80.605469 67.960938 80.820312 63.699219 82.097656 C 62.546875 82.445312 61.4375 82.960938 60.207031 83.015625 Z M 60.207031 83.015625 " fill-opacity="1" fill-rule="nonzero"/><path fill="#f7705c" d="M 47.730469 74.542969 C 45.261719 76.148438 42.238281 75.730469 40.398438 73.390625 C 38.335938 70.769531 37.824219 67.789062 38.914062 64.636719 C 39.882812 61.84375 42.160156 60.429688 45.121094 60.59375 C 45.453125 60.613281 45.835938 60.769531 46.074219 60.359375 C 46.457031 61.414062 46.542969 62.523438 46.683594 63.617188 C 46.769531 64.261719 46.953125 64.832031 47.511719 65.214844 C 48.117188 65.894531 47.84375 66.75 47.90625 67.519531 C 48.0625 69.433594 47.792969 71.363281 48.132812 73.265625 C 48.21875 73.738281 48.003906 74.15625 47.730469 74.535156 Z M 47.730469 74.542969 " fill-opacity="1" fill-rule="nonzero"/><path fill="#f7705c" d="M 103.457031 60.585938 C 103.578125 60.796875 103.761719 60.847656 103.988281 60.839844 C 108.722656 60.699219 110.921875 65.25 110.363281 68.839844 C 109.910156 71.765625 108.589844 74.078125 105.613281 75.136719 C 104.015625 75.703125 102.566406 75.25 101.152344 74.542969 C 100.8125 73.738281 100.960938 72.882812 100.941406 72.054688 C 100.925781 70.480469 100.96875 68.898438 100.925781 67.328125 C 100.90625 66.683594 101.082031 66.078125 101.136719 65.449219 C 102.140625 65.128906 102.496094 64.375 102.636719 63.390625 C 102.777344 62.417969 103.011719 61.46875 103.457031 60.578125 Z M 103.457031 60.585938 " fill-opacity="1" fill-rule="nonzero"/><path fill="#191919" d="M 95.546875 53.675781 C 95.546875 54.464844 95.023438 54.132812 94.675781 54.035156 C 92.152344 53.355469 89.574219 53.003906 86.964844 53.023438 C 84.074219 53.039062 81.230469 53.457031 78.4375 54.253906 C 78.148438 54.332031 77.808594 54.601562 77.554688 54.304688 C 77.328125 54.042969 77.535156 53.703125 77.640625 53.40625 C 80.113281 46.542969 87.007812 45.597656 91.730469 47.703125 C 93.855469 48.65625 95.554688 51.449219 95.546875 53.675781 Z M 95.546875 53.675781 " fill-opacity="1" fill-rule="nonzero"/><path fill="#191919" d="M 60.992188 46.699219 C 65.699219 46.65625 69.136719 49.082031 70.578125 53.46875 C 70.667969 53.730469 70.875 54.027344 70.691406 54.261719 C 70.464844 54.558594 70.175781 54.261719 69.933594 54.191406 C 64.574219 52.648438 59.203125 52.59375 53.808594 53.972656 C 52.613281 54.28125 52.578125 54.261719 52.804688 53.074219 C 53.5625 49.046875 56.550781 46.726562 61 46.691406 Z M 60.992188 46.699219 " fill-opacity="1" fill-rule="nonzero"/><path fill="#f7705c" d="M 60.207031 83.015625 C 62.828125 81.53125 65.699219 80.847656 68.648438 80.535156 C 72.753906 80.089844 76.855469 80.105469 80.949219 80.734375 C 83.351562 81.101562 85.542969 82.019531 87.628906 83.222656 C 87.316406 83.425781 86.964844 83.441406 86.609375 83.40625 C 80.644531 82.902344 74.671875 83.003906 68.703125 82.996094 C 66.308594 82.996094 63.933594 83.347656 61.542969 83.214844 C 61.089844 83.1875 60.625 83.265625 60.207031 83.023438 Z M 60.207031 83.015625 " fill-opacity="1" fill-rule="nonzero"/><path fill="#f7705c" d="M 57.851562 69.476562 C 57.03125 69.554688 56.171875 69.285156 55.351562 68.855469 C 53.414062 67.851562 53.125 65.78125 54.828125 64.417969 C 56.707031 62.917969 60.042969 62.953125 61.605469 64.65625 C 62.574219 65.710938 62.597656 67.222656 61.542969 68.210938 C 60.546875 69.144531 59.324219 69.511719 57.851562 69.476562 Z M 57.851562 69.476562 " fill-opacity="1" fill-rule="nonzero"/><path fill="#f7705c" d="M 90.449219 69.476562 C 89.035156 69.554688 87.820312 69.050781 86.84375 67.949219 C 85.988281 66.988281 85.96875 65.871094 86.808594 64.917969 C 88.582031 62.898438 92.203125 62.777344 94.097656 64.683594 C 95.199219 65.792969 95.042969 67.632812 93.765625 68.550781 C 92.789062 69.257812 91.679688 69.511719 90.449219 69.476562 Z M 90.449219 69.476562 " fill-opacity="1" fill-rule="nonzero"/><path fill="#191919" d="M 85.253906 57.675781 C 86.546875 57.660156 87.761719 58.855469 87.777344 60.167969 C 87.792969 61.476562 86.640625 62.628906 85.273438 62.671875 C 83.980469 62.707031 82.785156 61.519531 82.773438 60.191406 C 82.773438 58.839844 83.882812 57.703125 85.246094 57.6875 Z M 85.253906 57.675781 " fill-opacity="1" fill-rule="nonzero"/><path fill="#191919" d="M 65.882812 60.191406 C 65.882812 61.511719 64.722656 62.664062 63.394531 62.683594 C 62.023438 62.699219 60.878906 61.511719 60.914062 60.085938 C 60.941406 58.875 62.152344 57.710938 63.421875 57.695312 C 64.703125 57.667969 65.898438 58.875 65.890625 60.191406 Z M 65.882812 60.191406 " fill-opacity="1" fill-rule="nonzero"/><path fill="#191919" d="M 74.167969 28.820312 C 76.4375 25.25 79.5625 23.222656 83.675781 23.074219 C 85.578125 23.003906 87.480469 23.335938 89.21875 24.332031 C 85.585938 23.921875 82.09375 24.105469 78.890625 26.113281 C 75.667969 28.121094 73.632812 30.792969 73.757812 34.828125 C 72.960938 33.570312 72.71875 32.210938 72.691406 30.882812 C 72.628906 27.78125 73.292969 24.933594 75.640625 22.609375 C 77.765625 20.515625 80.296875 19.738281 83.125 19.886719 C 87.042969 20.085938 90.683594 21.597656 94.421875 22.644531 C 93.410156 22.707031 92.4375 22.53125 91.46875 22.296875 C 88.597656 21.605469 85.726562 20.792969 82.75 20.933594 C 77.914062 21.152344 75.539062 23.617188 74.113281 27.710938 C 74.019531 27.992188 73.84375 28.296875 74.15625 28.839844 Z M 74.167969 28.820312 " fill-opacity="1" fill-rule="nonzero"/><path fill="#ffffff" d="M 86.878906 134.664062 L 74.65625 121.128906 L 91.679688 111.085938 L 95.171875 115.015625 Z M 86.878906 134.664062 " fill-opacity="1" fill-rule="nonzero"/><path fill="#ffffff" d="M 62.871094 135.101562 L 74.65625 121.128906 L 57.195312 111.085938 L 53.703125 115.015625 Z M 62.871094 135.101562 " fill-opacity="1" fill-rule="nonzero"/><g transform="matrix(1, 0, 0, 1, 74, 145)"><g clip-path="url(#a552767792)"><g fill="#58677e" fill-opacity="1"><g transform="translate(0.999997, 4.067974)"><g><path d="M 2.5 -1.21875 C 2.5 -0.925781 2.445312 -0.679688 2.34375 -0.484375 C 2.25 -0.296875 2.101562 -0.160156 1.90625 -0.078125 L 2.484375 0.578125 L 1.828125 0.578125 L 1.390625 0.03125 L 1.34375 0.03125 C 0.976562 0.03125 0.695312 -0.0703125 0.5 -0.28125 C 0.300781 -0.5 0.203125 -0.8125 0.203125 -1.21875 C 0.203125 -1.625 0.300781 -1.929688 0.5 -2.140625 C 0.695312 -2.347656 0.984375 -2.453125 1.359375 -2.453125 C 1.722656 -2.453125 2.003906 -2.34375 2.203125 -2.125 C 2.398438 -1.914062 2.5 -1.613281 2.5 -1.21875 Z M 0.734375 -1.21875 C 0.734375 -0.945312 0.785156 -0.738281 0.890625 -0.59375 C 0.992188 -0.457031 1.144531 -0.390625 1.34375 -0.390625 C 1.757812 -0.390625 1.96875 -0.664062 1.96875 -1.21875 C 1.96875 -1.757812 1.765625 -2.03125 1.359375 -2.03125 C 1.148438 -2.03125 0.992188 -1.960938 0.890625 -1.828125 C 0.785156 -1.691406 0.734375 -1.488281 0.734375 -1.21875 Z M 0.734375 -1.21875 "/></g></g></g><g fill="#58677e" fill-opacity="1"><g transform="translate(3.694763, 4.067974)"><g><path d="M 1.78125 0 L 1.609375 -0.578125 L 0.734375 -0.578125 L 0.546875 0 L 0 0 L 0.859375 -2.4375 L 1.484375 -2.4375 L 2.34375 0 Z M 1.484375 -1 C 1.328125 -1.53125 1.238281 -1.828125 1.21875 -1.890625 C 1.195312 -1.960938 1.179688 -2.015625 1.171875 -2.046875 C 1.128906 -1.910156 1.023438 -1.5625 0.859375 -1 Z M 1.484375 -1 "/></g></g></g><g clip-path="url(#d6c9a46701)"><g fill="#58677e" fill-opacity="1"><g transform="translate(6.030779, 4.067974)"><g><path d="M 0.296875 -2.421875 L 1.0625 -2.421875 C 1.40625 -2.421875 1.648438 -2.367188 1.796875 -2.265625 C 1.953125 -2.171875 2.03125 -2.019531 2.03125 -1.8125 C 2.03125 -1.664062 1.992188 -1.546875 1.921875 -1.453125 C 1.859375 -1.359375 1.773438 -1.300781 1.671875 -1.28125 L 1.671875 -1.265625 C 1.816406 -1.234375 1.921875 -1.171875 1.984375 -1.078125 C 2.054688 -0.984375 2.09375 -0.859375 2.09375 -0.703125 C 2.09375 -0.484375 2.015625 -0.3125 1.859375 -0.1875 C 1.703125 -0.0625 1.484375 0 1.203125 0 L 0.296875 0 Z M 0.8125 -1.46875 L 1.109375 -1.46875 C 1.253906 -1.46875 1.359375 -1.488281 1.421875 -1.53125 C 1.484375 -1.570312 1.515625 -1.640625 1.515625 -1.734375 C 1.515625 -1.828125 1.476562 -1.894531 1.40625 -1.9375 C 1.34375 -1.976562 1.238281 -2 1.09375 -2 L 0.8125 -2 Z M 0.8125 -1.046875 L 0.8125 -0.421875 L 1.15625 -0.421875 C 1.289062 -0.421875 1.390625 -0.445312 1.453125 -0.5 C 1.523438 -0.5625 1.5625 -0.644531 1.5625 -0.75 C 1.5625 -0.945312 1.421875 -1.046875 1.140625 -1.046875 Z M 0.8125 -1.046875 "/></g></g></g></g></g></g></svg>