<svg xmlns="http://www.w3.org/2000/svg" xmlns:xlink="http://www.w3.org/1999/xlink" width="200" zoomAndPan="magnify" viewBox="0 0 150 149.999998" height="200" preserveAspectRatio="xMidYMid meet" version="1.0"><defs><g/><clipPath id="bc21645fe2"><path d="M 41 10.089844 L 109 10.089844 L 109 108 L 41 108 Z M 41 10.089844 " clip-rule="nonzero"/></clipPath><clipPath id="66fa1de2ee"><path d="M 6 1 L 8.320312 1 L 8.320312 5 L 6 5 Z M 6 1 " clip-rule="nonzero"/></clipPath><clipPath id="1360eff2ae"><rect x="0" width="9" y="0" height="5"/></clipPath></defs><path fill="#f5a065" d="M 41.832031 54.285156 C 40.851562 53.207031 39.339844 52.691406 38.488281 54.171875 C 37.265625 56.304688 37.394531 59.144531 37.574219 61.5 C 37.71875 63.402344 37.953125 65.304688 38.449219 67.152344 C 38.875 68.75 39.464844 70.945312 40.886719 71.941406 C 41.207031 72.167969 41.652344 72.394531 42.0625 72.480469 C 42.289062 72.527344 43.644531 72.550781 43.1875 71.960938 " fill-opacity="1" fill-rule="nonzero"/><path fill="#f5a065" d="M 108.046875 54.285156 C 109.027344 53.207031 110.539062 52.691406 111.386719 54.171875 C 112.613281 56.304688 112.484375 59.144531 112.304688 61.5 C 112.160156 63.402344 111.925781 65.304688 111.429688 67.152344 C 111 68.75 110.414062 70.945312 108.992188 71.941406 C 108.671875 72.167969 108.226562 72.394531 107.816406 72.480469 C 107.589844 72.527344 106.234375 72.550781 106.691406 71.960938 " fill-opacity="1" fill-rule="nonzero"/><path fill="#e89860" d="M 149.75 150.335938 C 145.253906 139.042969 135.851562 130.039062 123.734375 126.316406 L 104.152344 119.074219 C 96.277344 116.492188 95.863281 111.5625 95.863281 103.261719 L 95.863281 85.636719 L 54.125 85.636719 L 54.125 103.277344 C 54.125 111.570312 54.484375 115.925781 46.628906 118.519531 L 26.296875 126.347656 C 14.175781 130.054688 4.761719 139.050781 0.253906 150.339844 L 149.75 150.339844 Z M 149.75 150.335938 " fill-opacity="1" fill-rule="nonzero"/><path fill="#aad8f4" d="M 149.75 150.335938 C 145.253906 139.042969 135.851562 130.039062 123.734375 126.316406 L 104.152344 119.074219 C 102.4375 118.507812 100.851562 116.539062 99.777344 115.742188 C 94.410156 118.976562 74.863281 144.003906 74.863281 144.003906 C 74.863281 144.003906 59.601562 123.113281 51.609375 115.742188 C 50.5 116.851562 48.914062 117.753906 46.621094 118.519531 L 26.289062 126.347656 C 14.167969 130.054688 4.757812 139.050781 0.25 150.339844 L 149.75 150.339844 Z M 149.75 150.335938 " fill-opacity="1" fill-rule="nonzero"/><g clip-path="url(#bc21645fe2)"><path fill="#f5a065" d="M 108.226562 50.695312 C 108.140625 27.074219 93.714844 10.101562 75.0625 10.101562 C 75.050781 10.101562 75.039062 10.101562 75.027344 10.101562 C 75.015625 10.101562 75.003906 10.101562 74.996094 10.101562 C 56.339844 10.101562 41.917969 27.074219 41.832031 50.695312 C 41.792969 61.464844 42.160156 68.5625 43.257812 76.378906 C 46.65625 100.679688 68.96875 107.496094 74.996094 107.496094 C 82.375 107.496094 103.402344 100.6875 106.800781 76.378906 C 107.890625 68.5625 108.261719 61.464844 108.226562 50.695312 Z M 108.226562 50.695312 " fill-opacity="1" fill-rule="nonzero"/></g><path fill="#dadada" d="M 101.648438 77.972656 C 95.148438 86.972656 92.027344 98.226562 74.867188 96.976562 C 60.703125 95.949219 56.820312 85.671875 50.8125 79.320312 C 45.746094 73.957031 41.914062 62.371094 41.847656 55.007812 C 41.917969 63.460938 42.324219 69.652344 43.261719 76.375 C 46.664062 100.675781 68.976562 107.492188 75 107.492188 C 82.382812 107.492188 103.40625 100.679688 106.804688 76.375 C 107.3125 72.757812 107.660156 69.296875 107.886719 65.554688 C 106.476562 69.957031 104.359375 74.210938 101.648438 77.972656 Z M 101.648438 77.972656 " fill-opacity="1" fill-rule="nonzero"/><path fill="#dadada" d="M 110.175781 51.585938 C 110.359375 51.089844 110.546875 50.585938 110.726562 50.078125 C 111.621094 47.601562 111.457031 44.992188 111.480469 42.394531 C 111.515625 38.789062 110.878906 35.171875 109.605469 31.804688 C 108.796875 29.675781 107.65625 27.546875 105.738281 26.324219 C 104.117188 25.289062 102.027344 25.035156 100.203125 25.636719 C 95.558594 27.183594 93.816406 34.425781 93.761719 38.761719 C 93.699219 44.296875 96.199219 49.746094 100.191406 53.570312 C 102.269531 55.5625 104.285156 57.59375 105.496094 60.273438 C 106.730469 62.996094 108.117188 58.945312 108.324219 57.820312 C 108.726562 55.636719 109.433594 53.628906 110.175781 51.585938 Z M 110.175781 51.585938 " fill-opacity="1" fill-rule="nonzero"/><path fill="#dadada" d="M 38.765625 51.585938 C 38.582031 51.089844 38.398438 50.585938 38.21875 50.078125 C 37.324219 47.601562 37.484375 44.992188 37.464844 42.394531 C 37.429688 38.789062 38.0625 35.171875 39.339844 31.804688 C 40.148438 29.675781 41.289062 27.546875 43.207031 26.324219 C 44.828125 25.289062 46.917969 25.035156 48.738281 25.636719 C 53.386719 27.183594 55.128906 34.425781 55.179688 38.761719 C 55.246094 44.296875 52.746094 49.746094 48.75 53.570312 C 46.675781 55.5625 44.660156 57.59375 43.449219 60.273438 C 42.210938 62.996094 40.828125 58.945312 40.621094 57.820312 C 40.214844 55.636719 39.511719 53.628906 38.765625 51.585938 Z M 38.765625 51.585938 " fill-opacity="1" fill-rule="nonzero"/><path fill="#ffffff" d="M 66.175781 74.464844 C 62.84375 75.53125 60.714844 77.960938 58.234375 80.261719 C 55.730469 82.582031 52.785156 82.902344 49.503906 82.5 C 50.945312 84.21875 52.574219 85.835938 54.558594 86.863281 C 61.175781 90.289062 80.417969 89.148438 75.941406 77.410156 C 74.550781 73.742188 69.382812 73.441406 66.175781 74.464844 Z M 66.175781 74.464844 " fill-opacity="1" fill-rule="nonzero"/><path fill="#ffffff" d="M 83.882812 74.464844 C 87.210938 75.53125 89.34375 77.960938 91.824219 80.261719 C 94.328125 82.582031 97.273438 82.902344 100.554688 82.5 C 99.113281 84.21875 97.484375 85.835938 95.5 86.863281 C 88.878906 90.289062 69.636719 89.148438 74.117188 77.410156 C 75.507812 73.742188 80.671875 73.441406 83.882812 74.464844 Z M 83.882812 74.464844 " fill-opacity="1" fill-rule="nonzero"/><path fill="#ffffff" d="M 54.109375 107.4375 L 41.300781 118.824219 L 62.5 143.832031 L 74.863281 133.527344 Z M 54.109375 107.4375 " fill-opacity="1" fill-rule="nonzero"/><path fill="#dadada" d="M 74.863281 133.527344 L 74.863281 143.941406 L 70.058594 137.53125 Z M 74.863281 133.527344 " fill-opacity="1" fill-rule="nonzero"/><path fill="#ffffff" d="M 96.105469 107.328125 L 108.914062 118.714844 L 87.714844 143.726562 L 75.351562 133.417969 Z M 96.105469 107.328125 " fill-opacity="1" fill-rule="nonzero"/><path fill="#dadada" d="M 75.351562 133.417969 L 75.351562 143.832031 L 80.152344 137.421875 Z M 75.351562 133.417969 " fill-opacity="1" fill-rule="nonzero"/><path fill="#ffffff" d="M 56.914062 52.914062 C 55.40625 54.09375 54.304688 55.769531 53.855469 57.695312 C 57.269531 61.121094 60.679688 64.542969 64.097656 67.96875 C 66.019531 67.515625 67.695312 66.410156 68.871094 64.902344 Z M 56.914062 52.914062 " fill-opacity="0.42" fill-rule="nonzero"/><path fill="#ffffff" d="M 82.867188 52.773438 C 81.140625 54.050781 79.910156 55.972656 79.53125 58.183594 C 82.792969 61.492188 86.070312 64.777344 89.351562 68.066406 C 91.570312 67.691406 93.496094 66.453125 94.777344 64.710938 C 90.808594 60.734375 86.835938 56.753906 82.867188 52.773438 Z M 82.867188 52.773438 " fill-opacity="0.42" fill-rule="nonzero"/><path fill="#000000" d="M 79.386719 60.484375 L 70.671875 60.484375 C 70.210938 60.484375 69.839844 60.109375 69.839844 59.652344 C 69.839844 59.195312 70.214844 58.820312 70.671875 58.820312 L 79.386719 58.820312 C 79.847656 58.820312 80.21875 59.195312 80.21875 59.652344 C 80.21875 60.109375 79.847656 60.484375 79.386719 60.484375 Z M 79.386719 60.484375 " fill-opacity="1" fill-rule="nonzero"/><path fill="#000000" d="M 53.617188 60.484375 C 53.523438 60.484375 53.433594 60.46875 53.339844 60.441406 L 40.089844 55.800781 C 39.65625 55.648438 39.425781 55.167969 39.574219 54.734375 C 39.726562 54.300781 40.203125 54.070312 40.636719 54.21875 L 53.886719 58.859375 C 54.320312 59.011719 54.550781 59.492188 54.402344 59.925781 C 54.28125 60.273438 53.964844 60.484375 53.617188 60.484375 Z M 53.617188 60.484375 " fill-opacity="1" fill-rule="nonzero"/><path fill="#000000" d="M 96.441406 59.628906 C 96.09375 59.628906 95.777344 59.414062 95.65625 59.070312 C 95.503906 58.632812 95.730469 58.160156 96.167969 58.003906 L 109.421875 53.363281 C 109.851562 53.214844 110.328125 53.4375 110.484375 53.878906 C 110.632812 54.3125 110.40625 54.785156 109.96875 54.941406 L 96.71875 59.582031 C 96.625 59.617188 96.53125 59.628906 96.441406 59.628906 Z M 96.441406 59.628906 " fill-opacity="1" fill-rule="nonzero"/><path fill="#000000" d="M 62.148438 69.039062 C 56.988281 69.039062 52.785156 64.832031 52.785156 59.652344 C 52.785156 54.472656 56.980469 50.269531 62.148438 50.269531 C 67.308594 50.269531 71.507812 54.472656 71.507812 59.652344 C 71.507812 64.832031 67.308594 69.039062 62.148438 69.039062 Z M 62.148438 51.941406 C 57.90625 51.941406 54.453125 55.398438 54.453125 59.652344 C 54.453125 63.90625 57.90625 67.367188 62.148438 67.367188 C 66.390625 67.367188 69.839844 63.90625 69.839844 59.652344 C 69.839844 55.398438 66.390625 51.941406 62.148438 51.941406 Z M 62.148438 51.941406 " fill-opacity="1" fill-rule="nonzero"/><path fill="#000000" d="M 87.910156 69.039062 C 82.75 69.039062 78.550781 64.832031 78.550781 59.652344 C 78.550781 54.472656 82.746094 50.269531 87.910156 50.269531 C 93.070312 50.269531 97.273438 54.472656 97.273438 59.652344 C 97.273438 64.832031 93.074219 69.039062 87.910156 69.039062 Z M 87.910156 51.941406 C 83.667969 51.941406 80.21875 55.398438 80.21875 59.652344 C 80.21875 63.90625 83.667969 67.367188 87.910156 67.367188 C 92.152344 67.367188 95.605469 63.90625 95.605469 59.652344 C 95.609375 55.398438 92.160156 51.941406 87.910156 51.941406 Z M 87.910156 51.941406 " fill-opacity="1" fill-rule="nonzero"/><g transform="matrix(1, 0, 0, 1, 74, 145)"><g clip-path="url(#1360eff2ae)"><g fill="#58677e" fill-opacity="1"><g transform="translate(0.999997, 4.067974)"><g><path d="M 2.5 -1.21875 C 2.5 -0.925781 2.445312 -0.679688 2.34375 -0.484375 C 2.25 -0.296875 2.101562 -0.160156 1.90625 -0.078125 L 2.484375 0.578125 L 1.828125 0.578125 L 1.390625 0.03125 L 1.34375 0.03125 C 0.976562 0.03125 0.695312 -0.0703125 0.5 -0.28125 C 0.300781 -0.5 0.203125 -0.8125 0.203125 -1.21875 C 0.203125 -1.625 0.300781 -1.929688 0.5 -2.140625 C 0.695312 -2.347656 0.984375 -2.453125 1.359375 -2.453125 C 1.722656 -2.453125 2.003906 -2.34375 2.203125 -2.125 C 2.398438 -1.914062 2.5 -1.613281 2.5 -1.21875 Z M 0.734375 -1.21875 C 0.734375 -0.945312 0.785156 -0.738281 0.890625 -0.59375 C 0.992188 -0.457031 1.144531 -0.390625 1.34375 -0.390625 C 1.757812 -0.390625 1.96875 -0.664062 1.96875 -1.21875 C 1.96875 -1.757812 1.765625 -2.03125 1.359375 -2.03125 C 1.148438 -2.03125 0.992188 -1.960938 0.890625 -1.828125 C 0.785156 -1.691406 0.734375 -1.488281 0.734375 -1.21875 Z M 0.734375 -1.21875 "/></g></g></g><g fill="#58677e" fill-opacity="1"><g transform="translate(3.694763, 4.067974)"><g><path d="M 1.78125 0 L 1.609375 -0.578125 L 0.734375 -0.578125 L 0.546875 0 L 0 0 L 0.859375 -2.4375 L 1.484375 -2.4375 L 2.34375 0 Z M 1.484375 -1 C 1.328125 -1.53125 1.238281 -1.828125 1.21875 -1.890625 C 1.195312 -1.960938 1.179688 -2.015625 1.171875 -2.046875 C 1.128906 -1.910156 1.023438 -1.5625 0.859375 -1 Z M 1.484375 -1 "/></g></g></g><g clip-path="url(#66fa1de2ee)"><g fill="#58677e" fill-opacity="1"><g transform="translate(6.030779, 4.067974)"><g><path d="M 0.296875 -2.421875 L 1.0625 -2.421875 C 1.40625 -2.421875 1.648438 -2.367188 1.796875 -2.265625 C 1.953125 -2.171875 2.03125 -2.019531 2.03125 -1.8125 C 2.03125 -1.664062 1.992188 -1.546875 1.921875 -1.453125 C 1.859375 -1.359375 1.773438 -1.300781 1.671875 -1.28125 L 1.671875 -1.265625 C 1.816406 -1.234375 1.921875 -1.171875 1.984375 -1.078125 C 2.054688 -0.984375 2.09375 -0.859375 2.09375 -0.703125 C 2.09375 -0.484375 2.015625 -0.3125 1.859375 -0.1875 C 1.703125 -0.0625 1.484375 0 1.203125 0 L 0.296875 0 Z M 0.8125 -1.46875 L 1.109375 -1.46875 C 1.253906 -1.46875 1.359375 -1.488281 1.421875 -1.53125 C 1.484375 -1.570312 1.515625 -1.640625 1.515625 -1.734375 C 1.515625 -1.828125 1.476562 -1.894531 1.40625 -1.9375 C 1.34375 -1.976562 1.238281 -2 1.09375 -2 L 0.8125 -2 Z M 0.8125 -1.046875 L 0.8125 -0.421875 L 1.15625 -0.421875 C 1.289062 -0.421875 1.390625 -0.445312 1.453125 -0.5 C 1.523438 -0.5625 1.5625 -0.644531 1.5625 -0.75 C 1.5625 -0.945312 1.421875 -1.046875 1.140625 -1.046875 Z M 0.8125 -1.046875 "/></g></g></g></g></g></g></svg>