<svg xmlns="http://www.w3.org/2000/svg" xmlns:xlink="http://www.w3.org/1999/xlink" width="200" zoomAndPan="magnify" viewBox="0 0 150 149.999998" height="200" preserveAspectRatio="xMidYMid meet" version="1.0"><defs><g/><clipPath id="a821d8a701"><path d="M 89 61 L 140.695312 61 L 140.695312 122 L 89 122 Z M 89 61 " clip-rule="nonzero"/></clipPath><clipPath id="6fec5cdde3"><path d="M 9.445312 61 L 61 61 L 61 122 L 9.445312 122 Z M 9.445312 61 " clip-rule="nonzero"/></clipPath><clipPath id="e2d6f0ebde"><path d="M 9.445312 4.328125 L 140.695312 4.328125 L 140.695312 113 L 9.445312 113 Z M 9.445312 4.328125 " clip-rule="nonzero"/></clipPath><clipPath id="89f0648769"><path d="M 11 58 L 140 58 L 140 149.828125 L 11 149.828125 Z M 11 58 " clip-rule="nonzero"/></clipPath><clipPath id="8c2ec2d284"><path d="M 6 1 L 8.320312 1 L 8.320312 5 L 6 5 Z M 6 1 " clip-rule="nonzero"/></clipPath><clipPath id="a1cef904ca"><rect x="0" width="9" y="0" height="5"/></clipPath></defs><g clip-path="url(#a821d8a701)"><path stroke-linecap="butt" transform="matrix(0.750871, 0, 0, 0.749155, -24.44721, -18.054789)" fill="none" stroke-linejoin="miter" d="M 217.697485 174.681271 C 215.028711 172.480876 212.885368 169.889415 211.267457 166.912103 C 210.195785 164.935919 209.691163 162.886736 209.077293 160.675912 C 207.620653 155.435634 202.709692 151.071343 198.324163 148.140959 C 197.502202 147.588253 195.08834 145.883208 191.08778 143.020608 C 189.251372 141.706628 187.40456 140.215365 185.557748 138.541605 C 182.649669 135.908431 180.870486 134.265956 180.225402 133.61418 C 178.477433 131.84135 176.760678 130.105019 175.069934 128.410402 C 171.402321 124.723958 167.464189 121.230439 163.265942 117.929846 " stroke="#a5b7c1" stroke-width="2" stroke-opacity="1" stroke-miterlimit="4"/></g><path stroke-linecap="butt" transform="matrix(0.750871, 0, 0, 0.749155, -24.44721, -18.054789)" fill="none" stroke-linejoin="miter" d="M 163.265942 117.929846 C 162.600049 117.132073 161.798897 116.365584 160.862485 115.635596 C 160.560752 115.400956 160.420291 115.390528 160.435897 115.60431 " stroke="#263742" stroke-width="2" stroke-opacity="1" stroke-miterlimit="4"/><path stroke-linecap="butt" transform="matrix(0.750871, 0, 0, 0.749155, -24.44721, -18.054789)" fill="none" stroke-linejoin="miter" d="M 160.435897 115.60431 C 158.677524 114.373758 156.934757 113.148419 155.202395 111.912652 C 151.878133 109.550616 148.397802 107.485791 144.7562 105.718175 C 141.801301 104.284268 138.976458 103.31964 136.281673 102.82429 C 131.00135 101.859662 126.215245 103.043287 121.36151 105.248896 C 117.67829 106.927871 114.203161 108.888412 110.930922 111.130521 C 109.760407 111.933509 107.793942 113.330916 105.031527 115.322743 C 104.885863 115.432241 104.797424 115.526097 104.771412 115.60431 " stroke="#a5b7c1" stroke-width="2" stroke-opacity="1" stroke-miterlimit="4"/><path stroke-linecap="butt" transform="matrix(0.750871, 0, 0, 0.749155, -24.44721, -18.054789)" fill="none" stroke-linejoin="miter" d="M 104.771412 115.60431 C 104.734996 115.567811 104.708985 115.531311 104.703783 115.50524 C 104.69858 115.458312 104.672569 115.427027 104.625748 115.411385 C 104.578928 115.395742 104.537309 115.400956 104.500893 115.437456 C 103.803787 116.078803 103.111882 116.709722 102.430383 117.335427 " stroke="#263742" stroke-width="2" stroke-opacity="1" stroke-miterlimit="4"/><g clip-path="url(#6fec5cdde3)"><path stroke-linecap="butt" transform="matrix(0.750871, 0, 0, 0.749155, -24.44721, -18.054789)" fill="none" stroke-linejoin="miter" d="M 102.430383 117.335427 C 97.852369 120.9958 93.508458 124.911669 89.403853 129.07782 C 87.458197 131.054004 85.200404 133.264828 82.630473 135.705077 C 78.999276 139.151667 75.539754 142.014267 72.25711 144.287661 C 67.195284 147.796822 61.836927 151.060915 58.1381 156.259479 C 57.357756 157.354462 56.723077 158.663228 56.286085 159.914638 C 55.849093 161.176476 55.417303 163.105732 54.824242 164.607424 C 53.263556 168.565007 50.802873 171.92817 47.442195 174.702128 " stroke="#a5b7c1" stroke-width="2" stroke-opacity="1" stroke-miterlimit="4"/></g><path stroke-linecap="butt" transform="matrix(0.750871, 0, 0, 0.749155, -24.44721, -18.054789)" fill="none" stroke-linejoin="miter" d="M 160.435897 115.60431 C 161.211038 117.507496 161.632424 119.478466 161.700053 121.522435 C 161.757279 123.22748 161.372309 124.864741 160.784451 126.423789 C 160.758439 126.481145 160.768844 126.533287 160.810462 126.580215 C 160.85208 126.627143 160.904103 126.642786 160.961329 126.627143 C 163.156694 126.095294 166.007548 125.208879 165.274026 122.241995 C 165.065934 121.39208 164.394839 119.958173 163.265942 117.929846 " stroke="#808080" stroke-width="2" stroke-opacity="1" stroke-miterlimit="4"/><path stroke-linecap="butt" transform="matrix(0.750871, 0, 0, 0.749155, -24.44721, -18.054789)" fill="none" stroke-linejoin="miter" d="M 102.430383 117.335427 C 101.353509 118.998759 100.266231 120.573449 99.844845 122.565276 C 99.251784 125.33402 102.211886 126.064009 104.027485 126.736641 C 104.074306 126.752284 104.115924 126.741856 104.157542 126.705356 C 104.193958 126.668857 104.204363 126.627143 104.188756 126.580215 C 103.013039 122.846843 103.205524 119.18647 104.771412 115.60431 " stroke="#808080" stroke-width="2" stroke-opacity="1" stroke-miterlimit="4"/><path stroke-linecap="butt" transform="matrix(0.750871, 0, 0, 0.749155, -24.44721, -18.054789)" fill="none" stroke-linejoin="miter" d="M 83.525267 119.301183 C 84.00908 117.966346 84.263992 116.568938 84.30561 115.114175 C 84.342026 113.664625 84.154744 112.251575 83.743763 110.880239 " stroke="#263742" stroke-width="2" stroke-opacity="1" stroke-miterlimit="4"/><path stroke-linecap="butt" transform="matrix(0.750871, 0, 0, 0.749155, -24.44721, -18.054789)" fill="none" stroke-linejoin="miter" d="M 83.743763 110.880239 C 83.067465 108.612059 81.902153 106.771444 80.25823 105.358394 C 78.858814 104.159127 77.30333 103.439566 75.586575 103.210141 C 74.23398 103.027644 72.907396 103.168428 71.606824 103.637706 C 70.306252 104.106985 69.14094 104.863045 68.105684 105.905886 C 66.680257 107.339793 65.681418 109.112623 65.119571 111.224377 C 64.677376 112.872066 64.557724 114.551041 64.750208 116.2613 C 64.942693 117.976774 65.43691 119.556679 66.23286 121.011442 C 67.09644 122.591347 68.214932 123.853185 69.598741 124.791742 C 70.98255 125.730299 72.465202 126.246506 74.057102 126.329933 C 75.50854 126.408146 76.907956 126.121365 78.255349 125.464375 C 79.44147 124.880384 80.492333 124.061753 81.402733 122.992841 C 82.313134 121.929143 83.020645 120.69859 83.525267 119.301183 " stroke="#a5b7c1" stroke-width="2" stroke-opacity="1" stroke-miterlimit="4"/><path stroke-linecap="butt" transform="matrix(0.750871, 0, 0, 0.749155, -24.44721, -18.054789)" fill="none" stroke-linejoin="miter" d="M 83.743763 110.880239 C 82.906194 109.368119 81.954176 108.226208 80.882504 107.45972 C 77.839166 105.25411 73.86982 105.744246 71.331103 108.518204 C 68.386608 111.719726 68.168112 116.887005 70.613187 120.333596 C 72.82416 123.446477 76.679055 124.614459 80.07615 122.80513 C 81.366317 122.122069 82.516023 120.954086 83.525267 119.301183 " stroke="#808080" stroke-width="2" stroke-opacity="1" stroke-miterlimit="4"/><path stroke-linecap="butt" transform="matrix(0.750871, 0, 0, 0.749155, -24.44721, -18.054789)" fill="none" stroke-linejoin="miter" d="M 181.26586 111.172235 C 180.579158 113.596841 180.573956 116.021447 181.245051 118.440839 " stroke="#263742" stroke-width="2" stroke-opacity="1" stroke-miterlimit="4"/><path stroke-linecap="butt" transform="matrix(0.750871, 0, 0, 0.749155, -24.44721, -18.054789)" fill="none" stroke-linejoin="miter" d="M 181.245051 118.440839 C 181.541581 119.530608 181.973371 120.542164 182.524814 121.475507 C 183.430012 122.992841 184.574515 124.18168 185.963526 125.047238 C 187.248491 125.845012 188.621896 126.28822 190.078536 126.366433 C 191.535177 126.444646 192.939795 126.15265 194.29239 125.49566 C 195.58776 124.864741 196.716656 123.952255 197.684282 122.758202 C 198.65711 121.558934 199.375026 120.182384 199.848434 118.62855 C 200.384269 116.871362 200.550743 115.067247 200.347853 113.221418 C 200.150167 111.370375 199.598724 109.680972 198.709133 108.153209 C 197.944396 106.844443 196.992377 105.765102 195.853076 104.920401 C 194.708573 104.080914 193.475631 103.538636 192.138642 103.298783 C 191.014948 103.095429 189.896456 103.126714 188.783167 103.38221 C 187.664675 103.637706 186.613812 104.106985 185.635782 104.790046 C 184.605729 105.509606 183.710935 106.416878 182.961806 107.517076 C 182.207474 108.617273 181.640425 109.832184 181.26586 111.172235 " stroke="#a5b7c1" stroke-width="2" stroke-opacity="1" stroke-miterlimit="4"/><path stroke-linecap="butt" transform="matrix(0.750871, 0, 0, 0.749155, -24.44721, -18.054789)" fill="none" stroke-linejoin="miter" d="M 181.245051 118.440839 C 181.864123 119.874745 182.691287 121.027085 183.716138 121.903072 C 188.122476 125.662515 194.15713 123.02934 195.676199 117.830776 C 196.180821 116.078803 196.227641 114.285116 195.811458 112.439287 C 194.599325 107.084297 188.616693 103.97663 183.929432 107.68393 C 182.795333 108.580774 181.905741 109.743542 181.26586 111.172235 " stroke="#808080" stroke-width="2" stroke-opacity="1" stroke-miterlimit="4"/><path stroke-linecap="butt" transform="matrix(0.750871, 0, 0, 0.749155, -24.44721, -18.054789)" fill="none" stroke-linejoin="miter" d="M 132.567239 173.878283 C 142.862567 173.878283 153.090266 173.163937 163.198313 171.526676 C 167.027197 170.900971 171.048566 170.207482 175.267621 169.440993 C 176.994781 169.128141 178.721941 168.919573 180.449101 168.825717 C 181.161814 168.789217 181.702852 168.862216 182.077417 169.044714 C 183.138684 169.576563 184.236367 170.270052 185.370465 171.130396 C 187.420167 172.68423 189.345014 174.425775 191.145005 176.355031 C 191.197028 176.412387 191.243849 176.407173 191.285467 176.339389 C 191.321883 176.271604 191.327086 176.188177 191.295872 176.089107 C 190.302235 172.88237 188.647907 170.061484 186.338091 167.631664 C 182.030596 163.100518 176.958365 159.528787 171.064172 157.776813 C 163.76016 155.602489 155.863086 154.929856 148.148092 154.564862 C 143.242334 154.330223 138.050451 154.21551 132.572441 154.21551 C 127.099634 154.21551 121.90775 154.330223 116.99679 154.559648 C 109.286999 154.924642 101.384723 155.597275 94.08071 157.766385 C 88.186517 159.518358 83.114286 163.084875 78.806791 167.621235 C 76.496975 170.045841 74.842648 172.866727 73.843808 176.073464 C 73.812594 176.172534 73.817797 176.255961 73.859415 176.323746 C 73.901033 176.391531 73.947854 176.396745 73.999877 176.339389 C 75.799869 174.415346 77.724715 172.673801 79.769215 171.119968 C 80.908516 170.254409 82.006199 169.56092 83.062263 169.034285 C 83.436828 168.851788 83.977866 168.773575 84.690579 168.815288 C 86.417739 168.909144 88.144899 169.117712 89.877261 169.430565 C 94.091114 170.197053 98.117686 170.895757 101.94657 171.516247 C 112.049414 173.158723 122.282315 173.878283 132.567239 173.878283 " stroke="#808080" stroke-width="2" stroke-opacity="1" stroke-miterlimit="4"/><path stroke-linecap="butt" transform="matrix(0.750871, 0, 0, 0.749155, -24.44721, -18.054789)" fill="none" stroke-linejoin="miter" d="M 131.162621 157.396176 C 131.209442 157.328391 131.214644 157.260607 131.178228 157.187608 C 131.13661 157.114609 131.079384 157.078109 130.996148 157.083324 L 121.012956 157.218893 C 120.92972 157.224107 120.872495 157.260607 120.836079 157.333606 C 120.804865 157.406604 120.810067 157.474389 120.856888 157.53696 L 125.944726 164.445783 C 125.986344 164.497925 126.038367 164.523996 126.105997 164.523996 C 126.173626 164.523996 126.230852 164.492711 126.267268 164.440569 L 131.162621 157.396176 " stroke="#808080" stroke-width="2" stroke-opacity="1" stroke-miterlimit="4"/><path stroke-linecap="butt" transform="matrix(0.750871, 0, 0, 0.749155, -24.44721, -18.054789)" fill="none" stroke-linejoin="miter" d="M 138.856805 164.414498 C 138.903626 164.477069 138.960851 164.513568 139.038886 164.513568 C 139.11692 164.513568 139.179347 164.482283 139.226168 164.419712 L 144.105914 157.641244 C 144.157937 157.568245 144.16314 157.490032 144.126724 157.406604 C 144.085105 157.328391 144.017475 157.286678 143.929037 157.281464 L 134.169544 157.031182 C 134.081105 157.031182 134.013475 157.067681 133.966654 157.151108 C 133.925036 157.234536 133.930238 157.312749 133.982261 157.385748 L 138.856805 164.414498 " stroke="#808080" stroke-width="2" stroke-opacity="1" stroke-miterlimit="4"/><path stroke-linecap="butt" transform="matrix(0.750871, 0, 0, 0.749155, -24.44721, -18.054789)" fill="none" stroke-linejoin="miter" d="M 113.682932 164.054718 C 113.719348 164.10686 113.776573 164.132931 113.844203 164.132931 C 113.911833 164.127717 113.963856 164.101646 114.000272 164.044289 L 118.286957 157.709028 C 118.333778 157.641244 118.333778 157.568245 118.29216 157.50046 C 118.250541 157.427461 118.188114 157.396176 118.11008 157.40139 L 109.411853 158.053166 C 109.333819 158.05838 109.276594 158.100094 109.24538 158.173093 C 109.214167 158.246092 109.224571 158.308662 109.271392 158.371233 L 113.682932 164.054718 " stroke="#808080" stroke-width="2" stroke-opacity="1" stroke-miterlimit="4"/><path stroke-linecap="butt" transform="matrix(0.750871, 0, 0, 0.749155, -24.44721, -18.054789)" fill="none" stroke-linejoin="miter" d="M 151.045767 164.096432 C 151.082183 164.153788 151.134206 164.179859 151.196633 164.185073 C 151.264263 164.185073 151.316286 164.164216 151.357904 164.112074 L 155.800659 158.386875 C 155.847479 158.329519 155.857884 158.261734 155.821468 158.188735 C 155.790254 158.120951 155.738231 158.079237 155.660197 158.074023 L 147.008791 157.406604 C 146.930757 157.396176 146.868329 157.427461 146.826711 157.50046 C 146.785093 157.568245 146.785093 157.63603 146.831913 157.703814 L 151.045767 164.096432 " stroke="#808080" stroke-width="2" stroke-opacity="1" stroke-miterlimit="4"/><path stroke-linecap="butt" transform="matrix(0.750871, 0, 0, 0.749155, -24.44721, -18.054789)" fill="none" stroke-linejoin="miter" d="M 102.664486 163.783579 C 102.700902 163.825293 102.747722 163.84615 102.799745 163.840935 C 102.85697 163.840935 102.898589 163.814864 102.929802 163.773151 L 106.42574 158.611086 C 106.462156 158.548516 106.462156 158.491159 106.42574 158.428589 C 106.389324 158.371233 106.337301 158.345162 106.264469 158.350376 L 99.230975 159.236791 C 99.163345 159.242005 99.116525 159.278505 99.095716 159.335861 C 99.069704 159.398431 99.080109 159.455788 99.121727 159.50793 L 102.664486 163.783579 " stroke="#808080" stroke-width="2" stroke-opacity="1" stroke-miterlimit="4"/><path stroke-linecap="butt" transform="matrix(0.750871, 0, 0, 0.749155, -24.44721, -18.054789)" fill="none" stroke-linejoin="miter" d="M 162.095427 163.705366 C 162.131843 163.762722 162.183866 163.788793 162.246294 163.794008 C 162.313924 163.799222 162.365946 163.773151 162.407565 163.726223 L 165.887896 159.591357 C 165.939918 159.534001 165.950323 159.466216 165.919109 159.398431 C 165.893098 159.325432 165.841075 159.283719 165.763041 159.27329 L 158.968852 158.381661 C 158.885615 158.371233 158.823188 158.397304 158.776367 158.470303 C 158.734749 158.538087 158.734749 158.611086 158.78157 158.678871 L 162.095427 163.705366 " stroke="#808080" stroke-width="2" stroke-opacity="1" stroke-miterlimit="4"/><path stroke-linecap="butt" transform="matrix(0.750871, 0, 0, 0.749155, -24.44721, -18.054789)" fill="none" stroke-linejoin="miter" d="M 96.213648 160.055421 C 96.250064 160.003279 96.250064 159.956351 96.213648 159.904209 C 96.177232 159.857282 96.125209 159.836425 96.067984 159.857282 L 91.385924 161.228618 C 91.339104 161.244261 91.30789 161.275546 91.292283 161.322474 C 91.281879 161.369401 91.292283 161.411115 91.328699 161.447615 L 93.565683 163.689723 C 93.643718 163.767937 93.711347 163.762722 93.773775 163.668867 L 96.213648 160.055421 " stroke="#808080" stroke-width="2" stroke-opacity="1" stroke-miterlimit="4"/><path stroke-linecap="butt" transform="matrix(0.750871, 0, 0, 0.749155, -24.44721, -18.054789)" fill="none" stroke-linejoin="miter" d="M 168.998864 159.841639 C 168.931234 159.825996 168.884414 159.841639 168.842795 159.893781 C 168.801177 159.945923 168.801177 160.003279 168.837593 160.060636 L 171.24105 163.705366 C 171.303478 163.804436 171.37631 163.80965 171.459546 163.726223 L 173.691328 161.494542 C 173.727744 161.458043 173.743351 161.411115 173.727744 161.358973 C 173.71734 161.306831 173.686126 161.270332 173.634103 161.254689 L 168.998864 159.841639 " stroke="#808080" stroke-width="2" stroke-opacity="1" stroke-miterlimit="4"/><path stroke-linecap="butt" transform="matrix(0.750871, 0, 0, 0.749155, -24.44721, -18.054789)" fill="none" stroke-linejoin="miter" d="M 122.115842 164.821206 C 122.079426 164.76385 122.032605 164.737779 121.964975 164.737779 C 121.902548 164.737779 121.850525 164.76385 121.814109 164.815992 L 117.719908 170.504691 C 117.67829 170.567262 117.673087 170.629832 117.704301 170.697617 C 117.735515 170.760188 117.787538 170.796687 117.865572 170.801901 L 126.048772 171.010469 C 126.126806 171.010469 126.178829 170.979184 126.215245 170.9114 C 126.251661 170.843615 126.251661 170.781044 126.20484 170.718474 L 122.115842 164.821206 " stroke="#808080" stroke-width="2" stroke-opacity="1" stroke-miterlimit="4"/><path stroke-linecap="butt" transform="matrix(0.750871, 0, 0, 0.749155, -24.44721, -18.054789)" fill="none" stroke-linejoin="miter" d="M 143.200716 164.946347 C 143.122682 164.852491 143.04985 164.857706 142.98222 164.951561 L 138.747557 170.833186 C 138.716344 170.8749 138.711141 170.927042 138.737153 170.97397 C 138.768367 171.026112 138.809985 171.052183 138.86721 171.046969 L 147.430177 170.760188 C 147.487402 170.760188 147.52902 170.734116 147.549829 170.681974 C 147.575841 170.629832 147.570638 170.582905 147.534222 170.541191 L 143.200716 164.946347 " stroke="#808080" stroke-width="2" stroke-opacity="1" stroke-miterlimit="4"/><path stroke-linecap="butt" transform="matrix(0.750871, 0, 0, 0.749155, -24.44721, -18.054789)" fill="none" stroke-linejoin="miter" d="M 128.134889 170.916614 C 128.11408 170.947899 128.11408 170.979184 128.129687 171.010469 C 128.145294 171.046969 128.176507 171.062612 128.212924 171.062612 L 136.853924 171.062612 C 136.89034 171.062612 136.921554 171.046969 136.937161 171.010469 C 136.952768 170.979184 136.952768 170.947899 136.926756 170.916614 L 132.608857 164.868134 C 132.556834 164.800349 132.510014 164.800349 132.457991 164.868134 L 128.134889 170.916614 " stroke="#808080" stroke-width="2" stroke-opacity="1" stroke-miterlimit="4"/><path stroke-linecap="butt" transform="matrix(0.750871, 0, 0, 0.749155, -24.44721, -18.054789)" fill="none" stroke-linejoin="miter" d="M 153.693732 165.050631 C 153.626102 164.96199 153.558472 164.96199 153.490842 165.050631 L 149.651554 170.389979 C 149.62034 170.431693 149.615138 170.473406 149.641149 170.520334 C 149.667161 170.567262 149.708779 170.588119 149.760802 170.582905 L 157.30412 170.01977 C 157.356143 170.014556 157.387356 169.988485 157.408166 169.941557 C 157.428975 169.899843 157.423772 169.852916 157.392559 169.816416 L 153.693732 165.050631 " stroke="#808080" stroke-width="2" stroke-opacity="1" stroke-miterlimit="4"/><path stroke-linecap="butt" transform="matrix(0.750871, 0, 0, 0.749155, -24.44721, -18.054789)" fill="none" stroke-linejoin="miter" d="M 111.65404 164.982847 C 111.591612 164.888991 111.523983 164.883777 111.451151 164.977632 L 107.689896 169.826845 C 107.658682 169.868558 107.65348 169.910272 107.669087 169.9572 C 107.689896 170.004128 107.726312 170.030199 107.778335 170.035413 L 115.311248 170.619404 C 115.363271 170.624618 115.40489 170.603761 115.430901 170.556833 C 115.456913 170.509906 115.456913 170.462978 115.425699 170.421264 L 111.65404 164.982847 " stroke="#808080" stroke-width="2" stroke-opacity="1" stroke-miterlimit="4"/><path stroke-linecap="butt" transform="matrix(0.750871, 0, 0, 0.749155, -24.44721, -18.054789)" fill="none" stroke-linejoin="miter" d="M 101.972581 165.092345 C 101.930963 165.034989 101.884142 165.029774 101.837322 165.087131 L 98.778376 168.721433 C 98.757567 168.747504 98.752365 168.773575 98.762769 168.80486 C 98.773174 168.836145 98.799185 168.851788 98.830399 168.857002 L 104.969099 169.65999 C 105.000313 169.665204 105.031527 169.654776 105.047134 169.62349 C 105.067943 169.592205 105.067943 169.56092 105.047134 169.529635 L 101.972581 165.092345 " stroke="#808080" stroke-width="2" stroke-opacity="1" stroke-miterlimit="4"/><path stroke-linecap="butt" transform="matrix(0.750871, 0, 0, 0.749155, -24.44721, -18.054789)" fill="none" stroke-linejoin="miter" d="M 163.265942 165.118416 C 163.208717 165.050631 163.156694 165.055846 163.104671 165.128844 L 160.144569 169.49835 C 160.118558 169.534849 160.118558 169.571348 160.144569 169.607848 C 160.165378 169.644347 160.196592 169.65999 160.23821 169.654776 L 166.200033 168.909144 C 166.241651 168.90393 166.267663 168.883073 166.283269 168.84136 C 166.298876 168.80486 166.293674 168.773575 166.267663 168.74229 L 163.265942 165.118416 " stroke="#808080" stroke-width="2" stroke-opacity="1" stroke-miterlimit="4"/><path stroke-linecap="butt" transform="matrix(0.750871, 0, 0, 0.749155, -24.44721, -18.054789)" fill="none" stroke-linejoin="miter" d="M 169.305799 168.335581 C 169.279788 168.377295 169.279788 168.413795 169.300597 168.450294 C 169.326608 168.486793 169.363024 168.502436 169.404642 168.492008 L 173.28555 167.68902 C 173.327168 167.683806 173.353179 167.657735 173.363584 167.621235 C 173.379191 167.579522 173.368786 167.548236 173.337572 167.516951 L 171.345096 165.525124 C 171.287871 165.472982 171.235848 165.478196 171.19423 165.540767 L 169.305799 168.335581 " stroke="#808080" stroke-width="2" stroke-opacity="1" stroke-miterlimit="4"/><path stroke-linecap="butt" transform="matrix(0.750871, 0, 0, 0.749155, -24.44721, -18.054789)" fill="none" stroke-linejoin="miter" d="M 91.864535 167.55345 C 91.838524 167.584736 91.833321 167.616021 91.843726 167.65252 C 91.85413 167.694234 91.880142 167.715091 91.916558 167.720305 L 95.589373 168.387724 C 95.630992 168.398152 95.662205 168.382509 95.688217 168.34601 C 95.709026 168.30951 95.709026 168.273011 95.688217 168.241726 L 93.966259 165.624194 C 93.919439 165.551195 93.872618 165.545981 93.815393 165.608551 L 91.864535 167.55345 " stroke="#808080" stroke-width="2" stroke-opacity="1" stroke-miterlimit="4"/><g clip-path="url(#e2d6f0ebde)"><path fill="#4b6e83" d="M 139.015625 112.808594 C 137.011719 111.160156 135.402344 109.21875 134.1875 106.988281 C 133.382812 105.507812 133.003906 103.972656 132.542969 102.316406 C 131.449219 98.390625 127.761719 95.121094 124.46875 92.925781 C 123.851562 92.511719 122.039062 91.234375 119.035156 89.089844 C 117.65625 88.105469 116.269531 86.988281 114.882812 85.734375 C 112.699219 83.761719 111.363281 82.53125 110.878906 82.042969 C 109.566406 80.714844 108.277344 79.414062 107.007812 78.144531 C 104.253906 75.382812 101.296875 72.765625 98.144531 70.292969 C 97.644531 69.695312 97.042969 69.121094 96.339844 68.574219 C 96.113281 68.398438 96.007812 68.390625 96.019531 68.550781 C 94.699219 67.628906 93.390625 66.710938 92.089844 65.785156 C 89.59375 64.015625 86.980469 62.46875 84.246094 61.144531 C 82.027344 60.070312 79.90625 59.347656 77.882812 58.976562 C 73.917969 58.253906 70.324219 59.140625 66.679688 60.792969 C 63.914062 62.050781 61.304688 63.519531 58.847656 65.199219 C 57.96875 65.800781 56.492188 66.847656 54.417969 68.339844 C 54.308594 68.421875 54.242188 68.492188 54.222656 68.550781 C 54.195312 68.523438 54.175781 68.496094 54.171875 68.476562 C 54.167969 68.441406 54.148438 68.417969 54.113281 68.40625 C 54.078125 68.394531 54.046875 68.398438 54.019531 68.425781 C 53.496094 68.90625 52.976562 69.378906 52.464844 69.847656 C 49.027344 72.589844 45.765625 75.523438 42.683594 78.644531 C 41.222656 80.125 39.527344 81.78125 37.597656 83.609375 C 34.871094 86.191406 32.273438 88.335938 29.808594 90.039062 C 26.007812 92.667969 21.984375 95.113281 19.207031 99.007812 C 18.621094 99.828125 18.144531 100.808594 17.816406 101.746094 C 17.488281 102.691406 17.164062 104.136719 16.71875 105.261719 C 15.546875 108.226562 13.699219 110.746094 11.175781 112.824219 C 10.746094 110.863281 10.433594 109.132812 10.234375 107.632812 C 9.757812 104.113281 9.503906 100.152344 9.460938 95.746094 C 9.398438 88.535156 10.292969 81.320312 12.503906 74.382812 C 15.902344 63.71875 22.429688 54.167969 31.179688 47.210938 C 36.808594 42.738281 43.050781 39.230469 50.007812 36.785156 C 54.703125 35.136719 59.238281 34.066406 63.867188 33.3125 C 64.335938 33.238281 64.507812 33.019531 64.644531 32.546875 C 66.828125 24.988281 69.015625 17.578125 71.199219 10.3125 C 71.777344 8.390625 72.632812 5.621094 74.359375 4.554688 C 76.933594 2.964844 78.984375 10.441406 79.386719 11.832031 C 81.683594 19.734375 83.753906 26.703125 85.597656 32.738281 C 85.730469 33.167969 85.9375 33.277344 86.375 33.34375 C 89.730469 33.875 93.023438 34.609375 96.253906 35.542969 C 104.144531 37.828125 111.328125 41.425781 117.8125 46.332031 C 118.238281 46.65625 119.394531 47.640625 121.269531 49.28125 C 122.601562 50.441406 123.683594 51.457031 124.511719 52.320312 C 129.964844 58.007812 134.074219 64.550781 136.839844 71.945312 C 137.097656 72.636719 137.488281 73.832031 138.003906 75.527344 C 139.820312 81.476562 140.625 87.875 140.695312 94.144531 C 140.738281 97.832031 140.550781 101.742188 140.132812 105.871094 C 139.898438 108.175781 139.527344 110.484375 139.015625 112.808594 Z M 38.269531 71.320312 C 38.632812 70.320312 38.824219 69.273438 38.855469 68.183594 C 38.882812 67.097656 38.742188 66.039062 38.433594 65.011719 C 37.925781 63.3125 37.050781 61.933594 35.816406 60.875 C 34.765625 59.976562 33.597656 59.4375 32.308594 59.265625 C 31.292969 59.128906 30.296875 59.234375 29.320312 59.585938 C 28.34375 59.9375 27.46875 60.503906 26.691406 61.285156 C 25.621094 62.359375 24.871094 63.6875 24.449219 65.269531 C 24.117188 66.503906 24.027344 67.761719 24.171875 69.042969 C 24.316406 70.328125 24.6875 71.511719 25.285156 72.601562 C 25.933594 73.785156 26.773438 74.730469 27.8125 75.433594 C 28.851562 76.136719 29.964844 76.523438 31.160156 76.585938 C 32.25 76.644531 33.300781 76.429688 34.3125 75.9375 C 35.203125 75.5 35.992188 74.886719 36.675781 74.085938 C 37.359375 73.289062 37.890625 72.367188 38.269531 71.320312 Z M 111.660156 65.230469 C 111.144531 67.046875 111.140625 68.863281 111.644531 70.675781 C 111.867188 71.492188 112.191406 72.25 112.605469 72.949219 C 113.285156 74.085938 114.144531 74.976562 115.1875 75.625 C 116.152344 76.222656 117.183594 76.554688 118.277344 76.613281 C 119.371094 76.671875 120.425781 76.453125 121.441406 75.960938 C 122.414062 75.488281 123.261719 74.804688 123.988281 73.910156 C 124.71875 73.011719 125.257812 71.980469 125.613281 70.816406 C 126.015625 69.5 126.140625 68.148438 125.988281 66.765625 C 125.839844 65.378906 125.425781 64.113281 124.757812 62.96875 C 124.183594 61.988281 123.46875 61.179688 122.613281 60.546875 C 121.753906 59.917969 120.828125 59.511719 119.824219 59.332031 C 118.980469 59.179688 118.140625 59.203125 117.304688 59.394531 C 116.464844 59.585938 115.675781 59.9375 114.941406 60.449219 C 114.167969 60.988281 113.496094 61.667969 112.933594 62.492188 C 112.367188 63.316406 111.941406 64.226562 111.660156 65.230469 Z M 111.660156 65.230469 " fill-opacity="1" fill-rule="nonzero"/></g><g clip-path="url(#89f0648769)"><path fill="#ffffff" d="M 96.019531 68.550781 C 96.601562 69.976562 96.917969 71.453125 96.96875 72.984375 C 97.011719 74.261719 96.722656 75.488281 96.28125 76.65625 C 96.261719 76.699219 96.269531 76.738281 96.300781 76.773438 C 96.332031 76.808594 96.371094 76.820312 96.414062 76.808594 C 98.0625 76.410156 100.203125 75.746094 99.652344 73.523438 C 99.496094 72.886719 98.992188 71.8125 98.144531 70.292969 C 101.296875 72.765625 104.253906 75.382812 107.007812 78.144531 C 108.277344 79.414062 109.566406 80.714844 110.878906 82.042969 C 111.363281 82.53125 112.699219 83.761719 114.882812 85.734375 C 116.269531 86.988281 117.65625 88.105469 119.035156 89.089844 C 122.039062 91.234375 123.851562 92.511719 124.46875 92.925781 C 127.761719 95.121094 131.449219 98.390625 132.542969 102.316406 C 133.003906 103.972656 133.382812 105.507812 134.1875 106.988281 C 135.402344 109.21875 137.011719 111.160156 139.015625 112.808594 C 138.179688 116.460938 136.714844 119.875 134.617188 123.042969 C 131.933594 127.101562 128.582031 130.660156 124.789062 133.699219 C 120.707031 136.964844 116.410156 139.6875 111.890625 141.867188 C 109.691406 142.925781 107.160156 143.960938 104.300781 144.96875 C 101.71875 145.878906 99.292969 146.613281 97.023438 147.167969 C 88.746094 149.203125 80.328125 150.070312 71.777344 149.773438 C 71.277344 149.757812 69.957031 149.679688 67.828125 149.546875 C 66.527344 149.460938 65.214844 149.339844 63.882812 149.171875 C 60.308594 148.726562 56.574219 148.015625 52.683594 147.042969 C 43.992188 144.867188 36.058594 141.308594 28.875 136.367188 C 23.816406 132.890625 19.097656 128.445312 15.6875 123.296875 C 13.527344 120.039062 12.023438 116.546875 11.175781 112.824219 C 13.699219 110.746094 15.546875 108.226562 16.71875 105.261719 C 17.164062 104.136719 17.488281 102.691406 17.816406 101.746094 C 18.144531 100.808594 18.621094 99.828125 19.207031 99.007812 C 21.984375 95.113281 26.007812 92.667969 29.808594 90.039062 C 32.273438 88.335938 34.871094 86.191406 37.597656 83.609375 C 39.527344 81.78125 41.222656 80.125 42.683594 78.644531 C 45.765625 75.523438 49.027344 72.589844 52.464844 69.847656 C 51.65625 71.09375 50.839844 72.273438 50.523438 73.765625 C 50.078125 75.839844 52.300781 76.386719 53.664062 76.890625 C 53.699219 76.902344 53.730469 76.894531 53.761719 76.867188 C 53.789062 76.839844 53.796875 76.808594 53.785156 76.773438 C 52.902344 73.976562 53.046875 71.234375 54.222656 68.550781 C 54.242188 68.492188 54.308594 68.421875 54.417969 68.339844 C 56.492188 66.847656 57.96875 65.800781 58.847656 65.199219 C 61.304688 63.519531 63.914062 62.050781 66.679688 60.792969 C 70.324219 59.140625 73.917969 58.253906 77.882812 58.976562 C 79.90625 59.347656 82.027344 60.070312 84.246094 61.144531 C 86.980469 62.46875 89.59375 64.015625 92.089844 65.785156 C 93.390625 66.710938 94.699219 67.628906 96.019531 68.550781 Z M 75.09375 112.207031 C 82.824219 112.207031 90.503906 111.671875 98.09375 110.445312 C 100.96875 109.976562 103.988281 109.457031 107.15625 108.882812 C 108.453125 108.648438 109.75 108.492188 111.046875 108.421875 C 111.582031 108.394531 111.988281 108.449219 112.269531 108.585938 C 113.066406 108.984375 113.890625 109.503906 114.742188 110.148438 C 116.28125 111.3125 117.726562 112.617188 119.078125 114.0625 C 119.117188 114.105469 119.152344 114.101562 119.183594 114.050781 C 119.210938 114 119.214844 113.9375 119.191406 113.863281 C 118.445312 111.460938 117.203125 109.347656 115.46875 107.527344 C 112.234375 104.132812 108.425781 101.457031 104 100.144531 C 98.515625 98.515625 92.585938 98.011719 86.792969 97.738281 C 83.109375 97.5625 79.210938 97.476562 75.097656 97.476562 C 70.988281 97.476562 67.089844 97.5625 63.402344 97.734375 C 57.613281 98.007812 51.679688 98.511719 46.195312 100.136719 C 41.769531 101.449219 37.960938 104.121094 34.726562 107.519531 C 32.992188 109.335938 31.75 111.449219 31 113.851562 C 30.976562 113.925781 30.980469 113.988281 31.011719 114.039062 C 31.042969 114.089844 31.078125 114.09375 31.117188 114.050781 C 32.46875 112.609375 33.914062 111.304688 35.449219 110.140625 C 36.304688 109.492188 37.128906 108.972656 37.921875 108.578125 C 38.203125 108.441406 38.609375 108.382812 39.144531 108.414062 C 40.441406 108.484375 41.738281 108.640625 43.039062 108.875 C 46.203125 109.449219 49.226562 109.972656 52.101562 110.4375 C 59.6875 111.667969 67.371094 112.207031 75.09375 112.207031 Z M 75.09375 112.207031 " fill-opacity="1" fill-rule="nonzero"/></g><path fill="#ffffff" d="M 38.433594 65.011719 C 37.804688 63.878906 37.089844 63.023438 36.285156 62.449219 C 34 60.796875 31.019531 61.164062 29.113281 63.242188 C 26.902344 65.640625 26.738281 69.511719 28.574219 72.09375 C 30.234375 74.425781 33.128906 75.300781 35.679688 73.945312 C 36.648438 73.433594 37.511719 72.558594 38.269531 71.320312 C 37.890625 72.367188 37.359375 73.289062 36.675781 74.085938 C 35.992188 74.886719 35.203125 75.5 34.3125 75.9375 C 33.300781 76.429688 32.25 76.644531 31.160156 76.585938 C 29.964844 76.523438 28.851562 76.136719 27.8125 75.433594 C 26.773438 74.730469 25.933594 73.785156 25.285156 72.601562 C 24.6875 71.511719 24.316406 70.328125 24.171875 69.042969 C 24.027344 67.761719 24.117188 66.503906 24.449219 65.269531 C 24.871094 63.6875 25.621094 62.359375 26.691406 61.285156 C 27.46875 60.503906 28.34375 59.9375 29.320312 59.585938 C 30.296875 59.234375 31.292969 59.128906 32.308594 59.265625 C 33.597656 59.4375 34.765625 59.976562 35.816406 60.875 C 37.050781 61.933594 37.925781 63.3125 38.433594 65.011719 Z M 38.433594 65.011719 " fill-opacity="1" fill-rule="nonzero"/><path fill="#ffffff" d="M 111.644531 70.675781 C 112.109375 71.75 112.730469 72.613281 113.5 73.269531 C 116.808594 76.085938 121.339844 74.113281 122.480469 70.21875 C 122.859375 68.90625 122.894531 67.5625 122.582031 66.179688 C 121.671875 62.167969 117.179688 59.839844 113.660156 62.617188 C 112.808594 63.289062 112.140625 64.160156 111.660156 65.230469 C 111.941406 64.226562 112.367188 63.316406 112.933594 62.492188 C 113.496094 61.667969 114.167969 60.988281 114.941406 60.449219 C 115.675781 59.9375 116.464844 59.585938 117.304688 59.394531 C 118.140625 59.203125 118.980469 59.179688 119.824219 59.332031 C 120.828125 59.511719 121.753906 59.917969 122.613281 60.546875 C 123.46875 61.179688 124.183594 61.988281 124.757812 62.96875 C 125.425781 64.113281 125.839844 65.378906 125.988281 66.765625 C 126.140625 68.148438 126.015625 69.5 125.613281 70.816406 C 125.257812 71.980469 124.71875 73.011719 123.988281 73.910156 C 123.261719 74.804688 122.414062 75.488281 121.441406 75.960938 C 120.425781 76.453125 119.371094 76.671875 118.277344 76.613281 C 117.183594 76.554688 116.152344 76.222656 115.1875 75.625 C 114.144531 74.976562 113.285156 74.085938 112.605469 72.949219 C 112.191406 72.25 111.867188 71.492188 111.644531 70.675781 Z M 111.644531 70.675781 " fill-opacity="1" fill-rule="nonzero"/><path fill="#000000" d="M 38.433594 65.011719 C 38.742188 66.039062 38.882812 67.097656 38.855469 68.183594 C 38.824219 69.273438 38.632812 70.320312 38.269531 71.320312 C 37.511719 72.558594 36.648438 73.433594 35.679688 73.945312 C 33.128906 75.300781 30.234375 74.425781 28.574219 72.09375 C 26.738281 69.511719 26.902344 65.640625 29.113281 63.242188 C 31.019531 61.164062 34 60.796875 36.285156 62.449219 C 37.089844 63.023438 37.804688 63.878906 38.433594 65.011719 Z M 38.433594 65.011719 " fill-opacity="1" fill-rule="nonzero"/><path fill="#000000" d="M 111.644531 70.675781 C 111.140625 68.863281 111.144531 67.046875 111.660156 65.230469 C 112.140625 64.160156 112.808594 63.289062 113.660156 62.617188 C 117.179688 59.839844 121.671875 62.167969 122.582031 66.179688 C 122.894531 67.5625 122.859375 68.90625 122.480469 70.21875 C 121.339844 74.113281 116.808594 76.085938 113.5 73.269531 C 112.730469 72.613281 112.109375 71.75 111.644531 70.675781 Z M 111.644531 70.675781 " fill-opacity="1" fill-rule="nonzero"/><path fill="#000000" d="M 54.222656 68.550781 C 53.046875 71.234375 52.902344 73.976562 53.785156 76.773438 C 53.796875 76.808594 53.789062 76.839844 53.761719 76.867188 C 53.730469 76.894531 53.699219 76.902344 53.664062 76.890625 C 52.300781 76.386719 50.078125 75.839844 50.523438 73.765625 C 50.839844 72.273438 51.65625 71.09375 52.464844 69.847656 C 52.976562 69.378906 53.496094 68.90625 54.019531 68.425781 C 54.046875 68.398438 54.078125 68.394531 54.113281 68.40625 C 54.148438 68.417969 54.167969 68.441406 54.171875 68.476562 C 54.175781 68.496094 54.195312 68.523438 54.222656 68.550781 Z M 54.222656 68.550781 " fill-opacity="1" fill-rule="nonzero"/><path fill="#000000" d="M 98.144531 70.292969 C 98.992188 71.8125 99.496094 72.886719 99.652344 73.523438 C 100.203125 75.746094 98.0625 76.410156 96.414062 76.808594 C 96.371094 76.820312 96.332031 76.808594 96.300781 76.773438 C 96.269531 76.738281 96.261719 76.699219 96.28125 76.65625 C 96.722656 75.488281 97.011719 74.261719 96.96875 72.984375 C 96.917969 71.453125 96.601562 69.976562 96.019531 68.550781 C 96.007812 68.390625 96.113281 68.398438 96.339844 68.574219 C 97.042969 69.121094 97.644531 69.695312 98.144531 70.292969 Z M 98.144531 70.292969 " fill-opacity="1" fill-rule="nonzero"/><path fill="#000000" d="M 75.097656 97.476562 C 79.210938 97.476562 83.109375 97.5625 86.792969 97.738281 C 92.585938 98.011719 98.515625 98.515625 104 100.144531 C 108.425781 101.457031 112.234375 104.132812 115.46875 107.527344 C 117.203125 109.347656 118.445312 111.460938 119.191406 113.863281 C 119.214844 113.9375 119.210938 114 119.183594 114.050781 C 119.152344 114.101562 119.117188 114.105469 119.078125 114.0625 C 117.726562 112.617188 116.28125 111.3125 114.742188 110.148438 C 113.890625 109.503906 113.066406 108.984375 112.269531 108.585938 C 111.988281 108.449219 111.582031 108.394531 111.046875 108.421875 C 109.75 108.492188 108.453125 108.648438 107.15625 108.882812 C 103.988281 109.457031 100.96875 109.976562 98.09375 110.445312 C 90.503906 111.671875 82.824219 112.207031 75.09375 112.207031 C 67.371094 112.207031 59.6875 111.667969 52.101562 110.4375 C 49.226562 109.972656 46.203125 109.449219 43.039062 108.875 C 41.738281 108.640625 40.441406 108.484375 39.144531 108.414062 C 38.609375 108.382812 38.203125 108.441406 37.921875 108.578125 C 37.128906 108.972656 36.304688 109.492188 35.449219 110.140625 C 33.914062 111.304688 32.46875 112.609375 31.117188 114.050781 C 31.078125 114.09375 31.042969 114.089844 31.011719 114.039062 C 30.980469 113.988281 30.976562 113.925781 31 113.851562 C 31.75 111.449219 32.992188 109.335938 34.726562 107.519531 C 37.960938 104.121094 41.769531 101.449219 46.195312 100.136719 C 51.679688 98.511719 57.613281 98.007812 63.402344 97.734375 C 67.089844 97.5625 70.988281 97.476562 75.097656 97.476562 Z M 74.039062 99.859375 C 74.074219 99.808594 74.078125 99.757812 74.050781 99.703125 C 74.019531 99.648438 73.976562 99.621094 73.914062 99.625 L 66.417969 99.726562 C 66.355469 99.730469 66.3125 99.757812 66.285156 99.8125 C 66.261719 99.867188 66.265625 99.917969 66.300781 99.964844 L 70.121094 105.140625 C 70.152344 105.179688 70.191406 105.199219 70.242188 105.199219 C 70.292969 105.199219 70.335938 105.175781 70.363281 105.136719 Z M 79.816406 105.117188 C 79.851562 105.164062 79.894531 105.191406 79.953125 105.191406 C 80.011719 105.191406 80.058594 105.167969 80.09375 105.121094 L 83.757812 100.042969 C 83.796875 99.988281 83.800781 99.929688 83.773438 99.867188 C 83.742188 99.808594 83.691406 99.777344 83.625 99.773438 L 76.296875 99.585938 C 76.230469 99.585938 76.179688 99.613281 76.144531 99.675781 C 76.113281 99.738281 76.117188 99.796875 76.15625 99.851562 Z M 60.914062 104.847656 C 60.941406 104.886719 60.984375 104.90625 61.035156 104.90625 C 61.085938 104.902344 61.125 104.882812 61.152344 104.839844 L 64.371094 100.09375 C 64.40625 100.042969 64.40625 99.988281 64.375 99.9375 C 64.34375 99.882812 64.296875 99.859375 64.238281 99.863281 L 57.707031 100.351562 C 57.648438 100.355469 57.605469 100.386719 57.582031 100.441406 C 57.558594 100.496094 57.566406 100.542969 57.601562 100.589844 Z M 88.96875 104.878906 C 88.996094 104.921875 89.035156 104.941406 89.082031 104.945312 C 89.132812 104.945312 89.171875 104.929688 89.203125 104.890625 L 92.539062 100.601562 C 92.574219 100.558594 92.582031 100.507812 92.554688 100.453125 C 92.53125 100.402344 92.492188 100.371094 92.433594 100.367188 L 85.9375 99.867188 C 85.878906 99.859375 85.832031 99.882812 85.800781 99.9375 C 85.769531 99.988281 85.769531 100.039062 85.804688 100.089844 Z M 52.640625 104.644531 C 52.667969 104.675781 52.703125 104.691406 52.742188 104.6875 C 52.785156 104.6875 52.816406 104.667969 52.839844 104.636719 L 55.464844 100.769531 C 55.492188 100.722656 55.492188 100.679688 55.464844 100.632812 C 55.4375 100.589844 55.398438 100.570312 55.34375 100.574219 L 50.0625 101.238281 C 50.011719 101.242188 49.976562 101.269531 49.960938 101.3125 C 49.941406 101.359375 49.949219 101.402344 49.980469 101.441406 Z M 97.265625 104.585938 C 97.292969 104.628906 97.332031 104.648438 97.378906 104.652344 C 97.429688 104.65625 97.46875 104.636719 97.5 104.601562 L 100.113281 101.503906 C 100.152344 101.460938 100.160156 101.410156 100.136719 101.359375 C 100.117188 101.304688 100.078125 101.273438 100.019531 101.265625 L 94.917969 100.597656 C 94.855469 100.589844 94.808594 100.609375 94.773438 100.664062 C 94.742188 100.714844 94.742188 100.769531 94.777344 100.820312 Z M 47.796875 101.851562 C 47.824219 101.8125 47.824219 101.777344 47.796875 101.738281 C 47.769531 101.703125 47.730469 101.6875 47.6875 101.703125 L 44.171875 102.730469 C 44.136719 102.742188 44.113281 102.765625 44.101562 102.800781 C 44.09375 102.835938 44.101562 102.867188 44.128906 102.894531 L 45.808594 104.574219 C 45.867188 104.632812 45.917969 104.628906 45.964844 104.558594 Z M 102.449219 101.691406 C 102.398438 101.679688 102.363281 101.691406 102.332031 101.730469 C 102.300781 101.769531 102.300781 101.8125 102.328125 101.855469 L 104.132812 104.585938 C 104.179688 104.660156 104.234375 104.664062 104.296875 104.601562 L 105.972656 102.929688 C 106 102.902344 106.011719 102.867188 106 102.828125 C 105.992188 102.789062 105.96875 102.761719 105.929688 102.75 Z M 67.246094 105.421875 C 67.21875 105.378906 67.183594 105.359375 67.132812 105.359375 C 67.085938 105.359375 67.046875 105.378906 67.019531 105.417969 L 63.945312 109.679688 C 63.914062 109.726562 63.910156 109.773438 63.933594 109.824219 C 63.957031 109.871094 63.996094 109.898438 64.054688 109.902344 L 70.199219 110.058594 C 70.257812 110.058594 70.296875 110.035156 70.324219 109.984375 C 70.351562 109.933594 70.351562 109.886719 70.316406 109.839844 Z M 83.078125 105.515625 C 83.019531 105.445312 82.964844 105.449219 82.914062 105.519531 L 79.734375 109.925781 C 79.710938 109.957031 79.707031 109.996094 79.726562 110.03125 C 79.75 110.070312 79.78125 110.089844 79.824219 110.085938 L 86.253906 109.871094 C 86.296875 109.871094 86.328125 109.851562 86.34375 109.8125 C 86.363281 109.773438 86.359375 109.738281 86.332031 109.707031 Z M 71.765625 109.988281 C 71.75 110.011719 71.75 110.035156 71.761719 110.058594 C 71.773438 110.085938 71.796875 110.097656 71.824219 110.097656 L 78.3125 110.097656 C 78.339844 110.097656 78.363281 110.085938 78.375 110.058594 C 78.386719 110.035156 78.386719 110.011719 78.367188 109.988281 L 75.125 105.457031 C 75.085938 105.40625 75.050781 105.40625 75.011719 105.457031 Z M 90.957031 105.59375 C 90.90625 105.527344 90.855469 105.527344 90.804688 105.59375 L 87.921875 109.59375 C 87.898438 109.625 87.894531 109.65625 87.914062 109.691406 C 87.933594 109.726562 87.964844 109.742188 88.003906 109.738281 L 93.667969 109.316406 C 93.707031 109.3125 93.730469 109.292969 93.746094 109.257812 C 93.761719 109.226562 93.757812 109.191406 93.734375 109.164062 Z M 59.390625 105.542969 C 59.34375 105.472656 59.292969 105.46875 59.238281 105.539062 L 56.414062 109.171875 C 56.390625 109.203125 56.386719 109.234375 56.398438 109.269531 C 56.414062 109.304688 56.441406 109.324219 56.480469 109.328125 L 62.136719 109.765625 C 62.175781 109.769531 62.207031 109.753906 62.226562 109.71875 C 62.246094 109.683594 62.246094 109.648438 62.222656 109.617188 Z M 52.121094 105.625 C 52.089844 105.582031 52.054688 105.578125 52.019531 105.621094 L 49.722656 108.34375 C 49.707031 108.363281 49.703125 108.382812 49.710938 108.40625 C 49.71875 108.429688 49.738281 108.441406 49.761719 108.445312 L 54.371094 109.046875 C 54.394531 109.050781 54.417969 109.042969 54.429688 109.019531 C 54.445312 108.996094 54.445312 108.972656 54.429688 108.949219 Z M 98.144531 105.644531 C 98.101562 105.59375 98.0625 105.597656 98.023438 105.652344 L 95.800781 108.925781 C 95.78125 108.953125 95.78125 108.980469 95.800781 109.007812 C 95.816406 109.035156 95.839844 109.046875 95.871094 109.042969 L 100.347656 108.484375 C 100.378906 108.480469 100.398438 108.464844 100.410156 108.433594 C 100.421875 108.40625 100.417969 108.382812 100.398438 108.359375 Z M 102.679688 108.054688 C 102.660156 108.085938 102.660156 108.113281 102.675781 108.140625 C 102.695312 108.167969 102.722656 108.179688 102.753906 108.171875 L 105.667969 107.570312 C 105.699219 107.566406 105.71875 107.546875 105.726562 107.519531 C 105.738281 107.488281 105.730469 107.464844 105.707031 107.441406 L 104.210938 105.949219 C 104.167969 105.910156 104.128906 105.914062 104.097656 105.960938 Z M 44.53125 107.46875 C 44.511719 107.492188 44.507812 107.515625 44.515625 107.542969 C 44.523438 107.574219 44.542969 107.589844 44.570312 107.59375 L 47.328125 108.09375 C 47.359375 108.101562 47.382812 108.089844 47.402344 108.0625 C 47.417969 108.035156 47.417969 108.007812 47.402344 107.984375 L 46.109375 106.023438 C 46.074219 105.96875 46.039062 105.964844 45.996094 106.011719 Z M 44.53125 107.46875 " fill-opacity="1" fill-rule="nonzero"/><path fill="#ffffff" d="M 74.039062 99.859375 L 70.363281 105.136719 C 70.335938 105.175781 70.292969 105.199219 70.242188 105.199219 C 70.191406 105.199219 70.152344 105.179688 70.121094 105.140625 L 66.300781 99.964844 C 66.265625 99.917969 66.261719 99.867188 66.285156 99.8125 C 66.3125 99.757812 66.355469 99.730469 66.417969 99.726562 L 73.914062 99.625 C 73.976562 99.621094 74.019531 99.648438 74.050781 99.703125 C 74.078125 99.757812 74.074219 99.808594 74.039062 99.859375 Z M 74.039062 99.859375 " fill-opacity="1" fill-rule="nonzero"/><path fill="#ffffff" d="M 79.816406 105.117188 L 76.15625 99.851562 C 76.117188 99.796875 76.113281 99.738281 76.144531 99.675781 C 76.179688 99.613281 76.230469 99.585938 76.296875 99.585938 L 83.625 99.773438 C 83.691406 99.777344 83.742188 99.808594 83.773438 99.867188 C 83.800781 99.929688 83.796875 99.988281 83.757812 100.042969 L 80.09375 105.121094 C 80.058594 105.167969 80.011719 105.191406 79.953125 105.191406 C 79.894531 105.191406 79.851562 105.164062 79.816406 105.117188 Z M 79.816406 105.117188 " fill-opacity="1" fill-rule="nonzero"/><path fill="#ffffff" d="M 60.914062 104.847656 L 57.601562 100.589844 C 57.566406 100.542969 57.558594 100.496094 57.582031 100.441406 C 57.605469 100.386719 57.648438 100.355469 57.707031 100.351562 L 64.238281 99.863281 C 64.296875 99.859375 64.34375 99.882812 64.375 99.9375 C 64.40625 99.988281 64.40625 100.042969 64.371094 100.09375 L 61.152344 104.839844 C 61.125 104.882812 61.085938 104.902344 61.035156 104.90625 C 60.984375 104.90625 60.941406 104.886719 60.914062 104.847656 Z M 60.914062 104.847656 " fill-opacity="1" fill-rule="nonzero"/><path fill="#ffffff" d="M 88.96875 104.878906 L 85.804688 100.089844 C 85.769531 100.039062 85.769531 99.988281 85.800781 99.9375 C 85.832031 99.882812 85.878906 99.859375 85.9375 99.867188 L 92.433594 100.367188 C 92.492188 100.371094 92.53125 100.402344 92.554688 100.453125 C 92.582031 100.507812 92.574219 100.558594 92.539062 100.601562 L 89.203125 104.890625 C 89.171875 104.929688 89.132812 104.945312 89.082031 104.945312 C 89.035156 104.941406 88.996094 104.921875 88.96875 104.878906 Z M 88.96875 104.878906 " fill-opacity="1" fill-rule="nonzero"/><path fill="#ffffff" d="M 52.640625 104.644531 L 49.980469 101.441406 C 49.949219 101.402344 49.941406 101.359375 49.960938 101.3125 C 49.976562 101.269531 50.011719 101.242188 50.0625 101.238281 L 55.34375 100.574219 C 55.398438 100.570312 55.4375 100.589844 55.464844 100.632812 C 55.492188 100.679688 55.492188 100.722656 55.464844 100.769531 L 52.839844 104.636719 C 52.816406 104.667969 52.785156 104.6875 52.742188 104.6875 C 52.703125 104.691406 52.667969 104.675781 52.640625 104.644531 Z M 52.640625 104.644531 " fill-opacity="1" fill-rule="nonzero"/><path fill="#ffffff" d="M 97.265625 104.585938 L 94.777344 100.820312 C 94.742188 100.769531 94.742188 100.714844 94.773438 100.664062 C 94.808594 100.609375 94.855469 100.589844 94.917969 100.597656 L 100.019531 101.265625 C 100.078125 101.273438 100.117188 101.304688 100.136719 101.359375 C 100.160156 101.410156 100.152344 101.460938 100.113281 101.503906 L 97.5 104.601562 C 97.46875 104.636719 97.429688 104.65625 97.378906 104.652344 C 97.332031 104.648438 97.292969 104.628906 97.265625 104.585938 Z M 97.265625 104.585938 " fill-opacity="1" fill-rule="nonzero"/><path fill="#ffffff" d="M 47.796875 101.851562 L 45.964844 104.558594 C 45.917969 104.628906 45.867188 104.632812 45.808594 104.574219 L 44.128906 102.894531 C 44.101562 102.867188 44.09375 102.835938 44.101562 102.800781 C 44.113281 102.765625 44.136719 102.742188 44.171875 102.730469 L 47.6875 101.703125 C 47.730469 101.6875 47.769531 101.703125 47.796875 101.738281 C 47.824219 101.777344 47.824219 101.8125 47.796875 101.851562 Z M 47.796875 101.851562 " fill-opacity="1" fill-rule="nonzero"/><path fill="#ffffff" d="M 102.449219 101.691406 L 105.929688 102.75 C 105.96875 102.761719 105.992188 102.789062 106 102.828125 C 106.011719 102.867188 106 102.902344 105.972656 102.929688 L 104.296875 104.601562 C 104.234375 104.664062 104.179688 104.660156 104.132812 104.585938 L 102.328125 101.855469 C 102.300781 101.8125 102.300781 101.769531 102.332031 101.730469 C 102.363281 101.691406 102.398438 101.679688 102.449219 101.691406 Z M 102.449219 101.691406 " fill-opacity="1" fill-rule="nonzero"/><path fill="#ffffff" d="M 67.246094 105.421875 L 70.316406 109.839844 C 70.351562 109.886719 70.351562 109.933594 70.324219 109.984375 C 70.296875 110.035156 70.257812 110.058594 70.199219 110.058594 L 64.054688 109.902344 C 63.996094 109.898438 63.957031 109.871094 63.933594 109.824219 C 63.910156 109.773438 63.914062 109.726562 63.945312 109.679688 L 67.019531 105.417969 C 67.046875 105.378906 67.085938 105.359375 67.132812 105.359375 C 67.183594 105.359375 67.21875 105.378906 67.246094 105.421875 Z M 67.246094 105.421875 " fill-opacity="1" fill-rule="nonzero"/><path fill="#ffffff" d="M 83.078125 105.515625 L 86.332031 109.707031 C 86.359375 109.738281 86.363281 109.773438 86.34375 109.8125 C 86.328125 109.851562 86.296875 109.871094 86.253906 109.871094 L 79.824219 110.085938 C 79.78125 110.089844 79.75 110.070312 79.726562 110.03125 C 79.707031 109.996094 79.710938 109.957031 79.734375 109.925781 L 82.914062 105.519531 C 82.964844 105.449219 83.019531 105.445312 83.078125 105.515625 Z M 83.078125 105.515625 " fill-opacity="1" fill-rule="nonzero"/><path fill="#ffffff" d="M 71.765625 109.988281 L 75.011719 105.457031 C 75.050781 105.40625 75.085938 105.40625 75.125 105.457031 L 78.367188 109.988281 C 78.386719 110.011719 78.386719 110.035156 78.375 110.058594 C 78.363281 110.085938 78.339844 110.097656 78.3125 110.097656 L 71.824219 110.097656 C 71.796875 110.097656 71.773438 110.085938 71.761719 110.058594 C 71.75 110.035156 71.75 110.011719 71.765625 109.988281 Z M 71.765625 109.988281 " fill-opacity="1" fill-rule="nonzero"/><path fill="#ffffff" d="M 90.957031 105.59375 L 93.734375 109.164062 C 93.757812 109.191406 93.761719 109.226562 93.746094 109.257812 C 93.730469 109.292969 93.707031 109.3125 93.667969 109.316406 L 88.003906 109.738281 C 87.964844 109.742188 87.933594 109.726562 87.914062 109.691406 C 87.894531 109.65625 87.898438 109.625 87.921875 109.59375 L 90.804688 105.59375 C 90.855469 105.527344 90.90625 105.527344 90.957031 105.59375 Z M 90.957031 105.59375 " fill-opacity="1" fill-rule="nonzero"/><path fill="#ffffff" d="M 59.390625 105.542969 L 62.222656 109.617188 C 62.246094 109.648438 62.246094 109.683594 62.226562 109.71875 C 62.207031 109.753906 62.175781 109.769531 62.136719 109.765625 L 56.480469 109.328125 C 56.441406 109.324219 56.414062 109.304688 56.398438 109.269531 C 56.386719 109.234375 56.390625 109.203125 56.414062 109.171875 L 59.238281 105.539062 C 59.292969 105.46875 59.34375 105.472656 59.390625 105.542969 Z M 59.390625 105.542969 " fill-opacity="1" fill-rule="nonzero"/><path fill="#ffffff" d="M 52.121094 105.625 L 54.429688 108.949219 C 54.445312 108.972656 54.445312 108.996094 54.429688 109.019531 C 54.417969 109.042969 54.394531 109.050781 54.371094 109.046875 L 49.761719 108.445312 C 49.738281 108.441406 49.71875 108.429688 49.710938 108.40625 C 49.703125 108.382812 49.707031 108.363281 49.722656 108.34375 L 52.019531 105.621094 C 52.054688 105.578125 52.089844 105.582031 52.121094 105.625 Z M 52.121094 105.625 " fill-opacity="1" fill-rule="nonzero"/><path fill="#ffffff" d="M 98.144531 105.644531 L 100.398438 108.359375 C 100.417969 108.382812 100.421875 108.40625 100.410156 108.433594 C 100.398438 108.464844 100.378906 108.480469 100.347656 108.484375 L 95.871094 109.042969 C 95.839844 109.046875 95.816406 109.035156 95.800781 109.007812 C 95.78125 108.980469 95.78125 108.953125 95.800781 108.925781 L 98.023438 105.652344 C 98.0625 105.597656 98.101562 105.59375 98.144531 105.644531 Z M 98.144531 105.644531 " fill-opacity="1" fill-rule="nonzero"/><path fill="#ffffff" d="M 102.679688 108.054688 L 104.097656 105.960938 C 104.128906 105.914062 104.167969 105.910156 104.210938 105.949219 L 105.707031 107.441406 C 105.730469 107.464844 105.738281 107.488281 105.726562 107.519531 C 105.71875 107.546875 105.699219 107.566406 105.667969 107.570312 L 102.753906 108.171875 C 102.722656 108.179688 102.695312 108.167969 102.675781 108.140625 C 102.660156 108.113281 102.660156 108.085938 102.679688 108.054688 Z M 102.679688 108.054688 " fill-opacity="1" fill-rule="nonzero"/><path fill="#ffffff" d="M 44.53125 107.46875 L 45.996094 106.011719 C 46.039062 105.964844 46.074219 105.96875 46.109375 106.023438 L 47.402344 107.984375 C 47.417969 108.007812 47.417969 108.035156 47.402344 108.0625 C 47.382812 108.089844 47.359375 108.101562 47.328125 108.09375 L 44.570312 107.59375 C 44.542969 107.589844 44.523438 107.574219 44.515625 107.542969 C 44.507812 107.515625 44.511719 107.492188 44.53125 107.46875 Z M 44.53125 107.46875 " fill-opacity="1" fill-rule="nonzero"/><g transform="matrix(1, 0, 0, 1, 74, 145)"><g clip-path="url(#a1cef904ca)"><g fill="#58677e" fill-opacity="1"><g transform="translate(0.999997, 4.067974)"><g><path d="M 2.5 -1.21875 C 2.5 -0.925781 2.445312 -0.679688 2.34375 -0.484375 C 2.25 -0.296875 2.101562 -0.160156 1.90625 -0.078125 L 2.484375 0.578125 L 1.828125 0.578125 L 1.390625 0.03125 L 1.34375 0.03125 C 0.976562 0.03125 0.695312 -0.0703125 0.5 -0.28125 C 0.300781 -0.5 0.203125 -0.8125 0.203125 -1.21875 C 0.203125 -1.625 0.300781 -1.929688 0.5 -2.140625 C 0.695312 -2.347656 0.984375 -2.453125 1.359375 -2.453125 C 1.722656 -2.453125 2.003906 -2.34375 2.203125 -2.125 C 2.398438 -1.914062 2.5 -1.613281 2.5 -1.21875 Z M 0.734375 -1.21875 C 0.734375 -0.945312 0.785156 -0.738281 0.890625 -0.59375 C 0.992188 -0.457031 1.144531 -0.390625 1.34375 -0.390625 C 1.757812 -0.390625 1.96875 -0.664062 1.96875 -1.21875 C 1.96875 -1.757812 1.765625 -2.03125 1.359375 -2.03125 C 1.148438 -2.03125 0.992188 -1.960938 0.890625 -1.828125 C 0.785156 -1.691406 0.734375 -1.488281 0.734375 -1.21875 Z M 0.734375 -1.21875 "/></g></g></g><g fill="#58677e" fill-opacity="1"><g transform="translate(3.694763, 4.067974)"><g><path d="M 1.78125 0 L 1.609375 -0.578125 L 0.734375 -0.578125 L 0.546875 0 L 0 0 L 0.859375 -2.4375 L 1.484375 -2.4375 L 2.34375 0 Z M 1.484375 -1 C 1.328125 -1.53125 1.238281 -1.828125 1.21875 -1.890625 C 1.195312 -1.960938 1.179688 -2.015625 1.171875 -2.046875 C 1.128906 -1.910156 1.023438 -1.5625 0.859375 -1 Z M 1.484375 -1 "/></g></g></g><g clip-path="url(#8c2ec2d284)"><g fill="#58677e" fill-opacity="1"><g transform="translate(6.030779, 4.067974)"><g><path d="M 0.296875 -2.421875 L 1.0625 -2.421875 C 1.40625 -2.421875 1.648438 -2.367188 1.796875 -2.265625 C 1.953125 -2.171875 2.03125 -2.019531 2.03125 -1.8125 C 2.03125 -1.664062 1.992188 -1.546875 1.921875 -1.453125 C 1.859375 -1.359375 1.773438 -1.300781 1.671875 -1.28125 L 1.671875 -1.265625 C 1.816406 -1.234375 1.921875 -1.171875 1.984375 -1.078125 C 2.054688 -0.984375 2.09375 -0.859375 2.09375 -0.703125 C 2.09375 -0.484375 2.015625 -0.3125 1.859375 -0.1875 C 1.703125 -0.0625 1.484375 0 1.203125 0 L 0.296875 0 Z M 0.8125 -1.46875 L 1.109375 -1.46875 C 1.253906 -1.46875 1.359375 -1.488281 1.421875 -1.53125 C 1.484375 -1.570312 1.515625 -1.640625 1.515625 -1.734375 C 1.515625 -1.828125 1.476562 -1.894531 1.40625 -1.9375 C 1.34375 -1.976562 1.238281 -2 1.09375 -2 L 0.8125 -2 Z M 0.8125 -1.046875 L 0.8125 -0.421875 L 1.15625 -0.421875 C 1.289062 -0.421875 1.390625 -0.445312 1.453125 -0.5 C 1.523438 -0.5625 1.5625 -0.644531 1.5625 -0.75 C 1.5625 -0.945312 1.421875 -1.046875 1.140625 -1.046875 Z M 0.8125 -1.046875 "/></g></g></g></g></g></g></svg>