<svg xmlns="http://www.w3.org/2000/svg" xmlns:xlink="http://www.w3.org/1999/xlink" width="200" zoomAndPan="magnify" viewBox="0 0 150 149.999998" height="200" preserveAspectRatio="xMidYMid meet" version="1.0"><defs><g/><clipPath id="4e067b4184"><path d="M 6 1 L 8.320312 1 L 8.320312 5 L 6 5 Z M 6 1 " clip-rule="nonzero"/></clipPath><clipPath id="76f212733f"><rect x="0" width="9" y="0" height="5"/></clipPath></defs><path fill="#000000" d="M 113.859375 39.003906 C 113.859375 40.28125 113.796875 41.554688 113.671875 42.828125 C 113.546875 44.097656 113.359375 45.363281 113.109375 46.613281 C 112.859375 47.867188 112.550781 49.105469 112.179688 50.328125 C 111.8125 51.550781 111.382812 52.75 110.894531 53.933594 C 110.40625 55.113281 109.859375 56.265625 109.257812 57.390625 C 108.65625 58.519531 108.003906 59.613281 107.292969 60.675781 C 106.585938 61.738281 105.828125 62.761719 105.019531 63.75 C 104.207031 64.738281 103.351562 65.683594 102.449219 66.585938 C 101.550781 67.492188 100.605469 68.347656 99.617188 69.15625 C 98.632812 69.96875 97.609375 70.726562 96.550781 71.4375 C 95.488281 72.148438 94.394531 72.804688 93.269531 73.40625 C 92.144531 74.007812 90.992188 74.554688 89.816406 75.042969 C 88.636719 75.53125 87.4375 75.960938 86.21875 76.332031 C 84.996094 76.703125 83.761719 77.011719 82.507812 77.261719 C 81.257812 77.511719 80 77.699219 78.730469 77.824219 C 77.460938 77.949219 76.1875 78.011719 74.910156 78.011719 C 73.636719 78.011719 72.363281 77.949219 71.09375 77.824219 C 69.824219 77.699219 68.5625 77.511719 67.3125 77.261719 C 66.0625 77.011719 64.824219 76.703125 63.605469 76.332031 C 62.386719 75.960938 61.183594 75.53125 60.007812 75.042969 C 58.828125 74.554688 57.675781 74.007812 56.550781 73.40625 C 55.425781 72.804688 54.335938 72.148438 53.273438 71.4375 C 52.210938 70.726562 51.191406 69.96875 50.203125 69.15625 C 49.21875 68.347656 48.273438 67.492188 47.371094 66.585938 C 46.46875 65.683594 45.613281 64.738281 44.804688 63.75 C 43.996094 62.761719 43.238281 61.738281 42.527344 60.675781 C 41.820312 59.613281 41.164062 58.519531 40.5625 57.390625 C 39.960938 56.265625 39.417969 55.113281 38.929688 53.933594 C 38.441406 52.75 38.011719 51.550781 37.640625 50.328125 C 37.269531 49.105469 36.960938 47.867188 36.710938 46.613281 C 36.464844 45.363281 36.277344 44.097656 36.152344 42.828125 C 36.027344 41.554688 35.964844 40.28125 35.964844 39.003906 C 35.964844 37.726562 36.027344 36.453125 36.152344 35.179688 C 36.277344 33.910156 36.464844 32.648438 36.710938 31.394531 C 36.960938 30.140625 37.269531 28.902344 37.640625 27.679688 C 38.011719 26.457031 38.441406 25.257812 38.929688 24.078125 C 39.417969 22.898438 39.960938 21.742188 40.5625 20.617188 C 41.164062 19.488281 41.820312 18.394531 42.527344 17.332031 C 43.238281 16.269531 43.996094 15.246094 44.804688 14.257812 C 45.613281 13.269531 46.46875 12.324219 47.371094 11.421875 C 48.273438 10.519531 49.21875 9.660156 50.203125 8.851562 C 51.191406 8.039062 52.210938 7.28125 53.273438 6.570312 C 54.335938 5.859375 55.425781 5.207031 56.550781 4.601562 C 57.675781 4 58.828125 3.457031 60.007812 2.964844 C 61.183594 2.476562 62.386719 2.046875 63.605469 1.675781 C 64.824219 1.304688 66.0625 0.996094 67.3125 0.746094 C 68.5625 0.496094 69.824219 0.308594 71.09375 0.183594 C 72.363281 0.0585938 73.636719 -0.00390625 74.910156 -0.00390625 C 76.1875 -0.00390625 77.460938 0.0585938 78.730469 0.183594 C 80 0.308594 81.257812 0.496094 82.507812 0.746094 C 83.761719 0.996094 84.996094 1.304688 86.21875 1.675781 C 87.4375 2.046875 88.636719 2.476562 89.816406 2.964844 C 90.992188 3.457031 92.144531 4 93.269531 4.601562 C 94.394531 5.207031 95.488281 5.859375 96.550781 6.570312 C 97.609375 7.28125 98.632812 8.039062 99.617188 8.851562 C 100.605469 9.660156 101.550781 10.519531 102.449219 11.421875 C 103.351562 12.324219 104.207031 13.269531 105.019531 14.257812 C 105.828125 15.246094 106.585938 16.269531 107.292969 17.332031 C 108.003906 18.394531 108.65625 19.488281 109.257812 20.617188 C 109.859375 21.742188 110.40625 22.898438 110.894531 24.078125 C 111.382812 25.257812 111.8125 26.457031 112.179688 27.679688 C 112.550781 28.902344 112.859375 30.140625 113.109375 31.394531 C 113.359375 32.648438 113.546875 33.910156 113.671875 35.179688 C 113.796875 36.453125 113.859375 37.726562 113.859375 39.003906 Z M 113.859375 39.003906 " fill-opacity="1" fill-rule="nonzero"/><path fill="#000000" d="M 74.910156 80.714844 C 71.867188 80.714844 68.835938 80.914062 65.820312 81.316406 C 62.804688 81.714844 59.824219 82.316406 56.886719 83.109375 C 53.949219 83.90625 51.078125 84.890625 48.269531 86.066406 C 45.460938 87.242188 42.742188 88.597656 40.113281 90.132812 C 37.484375 91.671875 34.964844 93.371094 32.5625 95.242188 C 30.15625 97.109375 27.886719 99.128906 25.75 101.300781 C 23.609375 103.46875 21.625 105.769531 19.789062 108.203125 C 17.957031 110.636719 16.289062 113.179688 14.792969 115.832031 C 14.546875 116.261719 14.316406 116.703125 14.101562 117.152344 C 13.886719 117.597656 13.6875 118.054688 13.503906 118.515625 C 13.316406 118.972656 13.144531 119.441406 12.992188 119.914062 C 12.835938 120.382812 12.695312 120.859375 12.570312 121.34375 C 12.449219 121.824219 12.339844 122.308594 12.246094 122.796875 C 12.152344 123.285156 12.078125 123.773438 12.015625 124.265625 C 11.957031 124.761719 11.910156 125.253906 11.882812 125.75 C 11.855469 126.246094 11.839844 126.742188 11.84375 127.238281 C 11.847656 127.734375 11.867188 128.230469 11.90625 128.726562 C 11.941406 129.222656 11.992188 129.71875 12.0625 130.210938 C 12.128906 130.703125 12.210938 131.191406 12.3125 131.675781 C 12.414062 132.164062 12.527344 132.648438 12.660156 133.125 C 12.792969 133.605469 12.9375 134.078125 13.101562 134.546875 C 13.261719 135.019531 13.441406 135.480469 13.632812 135.9375 C 13.824219 136.398438 14.03125 136.847656 14.253906 137.292969 C 14.476562 137.738281 14.710938 138.171875 14.960938 138.601562 C 15.210938 139.03125 15.476562 139.453125 15.753906 139.863281 C 16.03125 140.277344 16.320312 140.675781 16.625 141.070312 C 16.929688 141.464844 17.246094 141.84375 17.574219 142.21875 C 17.902344 142.589844 18.242188 142.949219 18.59375 143.300781 C 18.945312 143.652344 19.308594 143.988281 19.683594 144.316406 C 20.058594 144.640625 20.441406 144.953125 20.835938 145.257812 C 21.230469 145.558594 21.636719 145.84375 22.046875 146.121094 C 22.460938 146.394531 22.882812 146.65625 23.3125 146.902344 C 23.742188 147.148438 24.179688 147.382812 24.628906 147.601562 C 25.074219 147.820312 25.523438 148.023438 25.984375 148.214844 C 26.441406 148.402344 26.90625 148.578125 27.375 148.734375 C 27.847656 148.894531 28.320312 149.039062 28.800781 149.164062 C 29.277344 149.292969 29.761719 149.40625 30.25 149.5 C 30.734375 149.597656 31.222656 149.679688 31.714844 149.742188 C 32.207031 149.808594 32.703125 149.855469 33.195312 149.886719 C 33.691406 149.917969 34.1875 149.9375 34.683594 149.933594 L 115.152344 149.933594 C 115.648438 149.9375 116.144531 149.921875 116.640625 149.886719 C 117.132812 149.855469 117.628906 149.808594 118.121094 149.742188 C 118.613281 149.679688 119.101562 149.597656 119.585938 149.503906 C 120.074219 149.40625 120.558594 149.292969 121.035156 149.167969 C 121.515625 149.039062 121.992188 148.894531 122.460938 148.738281 C 122.929688 148.578125 123.394531 148.40625 123.855469 148.214844 C 124.3125 148.027344 124.765625 147.824219 125.210938 147.605469 C 125.65625 147.386719 126.09375 147.152344 126.523438 146.90625 C 126.953125 146.65625 127.375 146.398438 127.789062 146.121094 C 128.203125 145.847656 128.605469 145.558594 129 145.257812 C 129.394531 144.957031 129.78125 144.644531 130.152344 144.316406 C 130.527344 143.992188 130.890625 143.652344 131.242188 143.304688 C 131.59375 142.953125 131.9375 142.589844 132.265625 142.21875 C 132.59375 141.847656 132.910156 141.464844 133.210938 141.070312 C 133.515625 140.679688 133.808594 140.277344 134.085938 139.863281 C 134.363281 139.453125 134.625 139.03125 134.875 138.605469 C 135.125 138.175781 135.363281 137.738281 135.582031 137.292969 C 135.804688 136.847656 136.011719 136.398438 136.203125 135.941406 C 136.398438 135.480469 136.574219 135.019531 136.734375 134.546875 C 136.898438 134.078125 137.042969 133.605469 137.175781 133.125 C 137.308594 132.644531 137.421875 132.164062 137.523438 131.675781 C 137.621094 131.191406 137.707031 130.699219 137.773438 130.207031 C 137.839844 129.714844 137.894531 129.222656 137.929688 128.726562 C 137.964844 128.230469 137.984375 127.734375 137.988281 127.238281 C 137.992188 126.742188 137.976562 126.246094 137.949219 125.75 C 137.921875 125.253906 137.875 124.757812 137.8125 124.265625 C 137.753906 123.773438 137.675781 123.28125 137.582031 122.792969 C 137.488281 122.304688 137.378906 121.820312 137.257812 121.339844 C 137.132812 120.859375 136.992188 120.382812 136.835938 119.910156 C 136.679688 119.441406 136.507812 118.972656 136.324219 118.511719 C 136.136719 118.050781 135.9375 117.597656 135.71875 117.152344 C 135.503906 116.703125 135.273438 116.261719 135.03125 115.832031 C 133.53125 113.175781 131.867188 110.632812 130.03125 108.203125 C 128.199219 105.769531 126.210938 103.46875 124.074219 101.296875 C 121.9375 99.128906 119.664062 97.109375 117.261719 95.238281 C 114.855469 93.371094 112.339844 91.667969 109.710938 90.132812 C 107.082031 88.597656 104.363281 87.242188 101.554688 86.066406 C 98.746094 84.890625 95.875 83.902344 92.933594 83.109375 C 89.996094 82.3125 87.019531 81.714844 84.003906 81.3125 C 80.984375 80.914062 77.953125 80.714844 74.910156 80.714844 Z M 74.910156 80.714844 " fill-opacity="1" fill-rule="nonzero"/><g transform="matrix(1, 0, 0, 1, 74, 145)"><g clip-path="url(#76f212733f)"><g fill="#58677e" fill-opacity="1"><g transform="translate(0.999997, 4.067974)"><g><path d="M 2.5 -1.21875 C 2.5 -0.925781 2.445312 -0.679688 2.34375 -0.484375 C 2.25 -0.296875 2.101562 -0.160156 1.90625 -0.078125 L 2.484375 0.578125 L 1.828125 0.578125 L 1.390625 0.03125 L 1.34375 0.03125 C 0.976562 0.03125 0.695312 -0.0703125 0.5 -0.28125 C 0.300781 -0.5 0.203125 -0.8125 0.203125 -1.21875 C 0.203125 -1.625 0.300781 -1.929688 0.5 -2.140625 C 0.695312 -2.347656 0.984375 -2.453125 1.359375 -2.453125 C 1.722656 -2.453125 2.003906 -2.34375 2.203125 -2.125 C 2.398438 -1.914062 2.5 -1.613281 2.5 -1.21875 Z M 0.734375 -1.21875 C 0.734375 -0.945312 0.785156 -0.738281 0.890625 -0.59375 C 0.992188 -0.457031 1.144531 -0.390625 1.34375 -0.390625 C 1.757812 -0.390625 1.96875 -0.664062 1.96875 -1.21875 C 1.96875 -1.757812 1.765625 -2.03125 1.359375 -2.03125 C 1.148438 -2.03125 0.992188 -1.960938 0.890625 -1.828125 C 0.785156 -1.691406 0.734375 -1.488281 0.734375 -1.21875 Z M 0.734375 -1.21875 "/></g></g></g><g fill="#58677e" fill-opacity="1"><g transform="translate(3.694763, 4.067974)"><g><path d="M 1.78125 0 L 1.609375 -0.578125 L 0.734375 -0.578125 L 0.546875 0 L 0 0 L 0.859375 -2.4375 L 1.484375 -2.4375 L 2.34375 0 Z M 1.484375 -1 C 1.328125 -1.53125 1.238281 -1.828125 1.21875 -1.890625 C 1.195312 -1.960938 1.179688 -2.015625 1.171875 -2.046875 C 1.128906 -1.910156 1.023438 -1.5625 0.859375 -1 Z M 1.484375 -1 "/></g></g></g><g clip-path="url(#4e067b4184)"><g fill="#58677e" fill-opacity="1"><g transform="translate(6.030779, 4.067974)"><g><path d="M 0.296875 -2.421875 L 1.0625 -2.421875 C 1.40625 -2.421875 1.648438 -2.367188 1.796875 -2.265625 C 1.953125 -2.171875 2.03125 -2.019531 2.03125 -1.8125 C 2.03125 -1.664062 1.992188 -1.546875 1.921875 -1.453125 C 1.859375 -1.359375 1.773438 -1.300781 1.671875 -1.28125 L 1.671875 -1.265625 C 1.816406 -1.234375 1.921875 -1.171875 1.984375 -1.078125 C 2.054688 -0.984375 2.09375 -0.859375 2.09375 -0.703125 C 2.09375 -0.484375 2.015625 -0.3125 1.859375 -0.1875 C 1.703125 -0.0625 1.484375 0 1.203125 0 L 0.296875 0 Z M 0.8125 -1.46875 L 1.109375 -1.46875 C 1.253906 -1.46875 1.359375 -1.488281 1.421875 -1.53125 C 1.484375 -1.570312 1.515625 -1.640625 1.515625 -1.734375 C 1.515625 -1.828125 1.476562 -1.894531 1.40625 -1.9375 C 1.34375 -1.976562 1.238281 -2 1.09375 -2 L 0.8125 -2 Z M 0.8125 -1.046875 L 0.8125 -0.421875 L 1.15625 -0.421875 C 1.289062 -0.421875 1.390625 -0.445312 1.453125 -0.5 C 1.523438 -0.5625 1.5625 -0.644531 1.5625 -0.75 C 1.5625 -0.945312 1.421875 -1.046875 1.140625 -1.046875 Z M 0.8125 -1.046875 "/></g></g></g></g></g></g></svg>