<svg xmlns="http://www.w3.org/2000/svg" xmlns:xlink="http://www.w3.org/1999/xlink" width="500" zoomAndPan="magnify" viewBox="0 0 375 374.999991" height="500" preserveAspectRatio="xMidYMid meet" version="1.0"><defs><g/><clipPath id="86ba478630"><path d="M 0 163 L 201 163 L 201 363.75 L 0 363.75 Z M 0 163 " clip-rule="nonzero"/></clipPath><clipPath id="1f53b90e85"><path d="M 0.121094 5 L 11 5 L 11 19 L 0.121094 19 Z M 0.121094 5 " clip-rule="nonzero"/></clipPath><clipPath id="f45e43d707"><rect x="0" width="32" y="0" height="21"/></clipPath></defs><path fill="#e65d0d" d="M 371.3125 227.703125 C 371.3125 229.664062 371.265625 231.621094 371.167969 233.578125 C 371.070312 235.535156 370.925781 237.488281 370.734375 239.4375 C 370.542969 241.386719 370.304688 243.328125 370.015625 245.265625 C 369.730469 247.203125 369.394531 249.132812 369.011719 251.054688 C 368.628906 252.976562 368.199219 254.886719 367.722656 256.789062 C 367.25 258.6875 366.726562 260.578125 366.15625 262.449219 C 365.589844 264.324219 364.972656 266.183594 364.316406 268.03125 C 363.65625 269.875 362.949219 271.703125 362.199219 273.511719 C 361.449219 275.320312 360.65625 277.113281 359.820312 278.882812 C 358.980469 280.652344 358.101562 282.402344 357.175781 284.128906 C 356.253906 285.859375 355.289062 287.5625 354.28125 289.242188 C 353.273438 290.921875 352.226562 292.578125 351.136719 294.207031 C 350.050781 295.835938 348.921875 297.4375 347.753906 299.011719 C 346.589844 300.582031 345.382812 302.128906 344.140625 303.640625 C 342.898438 305.15625 341.617188 306.640625 340.304688 308.089844 C 338.988281 309.542969 337.636719 310.960938 336.25 312.34375 C 334.867188 313.730469 333.449219 315.082031 331.996094 316.398438 C 330.546875 317.710938 329.0625 318.992188 327.546875 320.234375 C 326.035156 321.476562 324.488281 322.683594 322.917969 323.847656 C 321.34375 325.015625 319.742188 326.144531 318.113281 327.230469 C 316.484375 328.320312 314.828125 329.367188 313.148438 330.375 C 311.46875 331.382812 309.765625 332.347656 308.035156 333.269531 C 306.308594 334.195312 304.558594 335.074219 302.789062 335.914062 C 301.019531 336.75 299.226562 337.542969 297.417969 338.292969 C 295.609375 339.042969 293.78125 339.75 291.9375 340.40625 C 290.089844 341.066406 288.230469 341.683594 286.355469 342.25 C 284.484375 342.820312 282.59375 343.34375 280.695312 343.816406 C 278.792969 344.292969 276.882812 344.722656 274.960938 345.105469 C 273.042969 345.488281 271.113281 345.824219 269.171875 346.109375 C 267.234375 346.398438 265.292969 346.636719 263.34375 346.828125 C 261.394531 347.019531 259.441406 347.164062 257.484375 347.261719 C 255.527344 347.355469 253.570312 347.40625 251.609375 347.40625 C 249.652344 347.40625 247.691406 347.355469 245.734375 347.261719 C 243.78125 347.164062 241.828125 347.019531 239.875 346.828125 C 237.925781 346.636719 235.984375 346.398438 234.046875 346.109375 C 232.109375 345.824219 230.179688 345.488281 228.257812 345.105469 C 226.335938 344.722656 224.425781 344.292969 222.523438 343.816406 C 220.625 343.34375 218.738281 342.820312 216.863281 342.25 C 214.988281 341.683594 213.128906 341.066406 211.285156 340.40625 C 209.4375 339.75 207.613281 339.042969 205.800781 338.292969 C 203.992188 337.542969 202.203125 336.75 200.429688 335.914062 C 198.660156 335.074219 196.910156 334.195312 195.183594 333.269531 C 193.453125 332.347656 191.75 331.382812 190.070312 330.375 C 188.390625 329.367188 186.734375 328.320312 185.105469 327.230469 C 183.476562 326.144531 181.875 325.015625 180.304688 323.847656 C 178.730469 322.683594 177.1875 321.476562 175.671875 320.234375 C 174.15625 318.992188 172.675781 317.710938 171.222656 316.398438 C 169.769531 315.082031 168.351562 313.730469 166.96875 312.34375 C 165.582031 310.960938 164.230469 309.542969 162.917969 308.089844 C 161.601562 306.640625 160.320312 305.15625 159.078125 303.640625 C 157.835938 302.128906 156.632812 300.582031 155.464844 299.011719 C 154.296875 297.4375 153.167969 295.835938 152.082031 294.207031 C 150.992188 292.578125 149.945312 290.921875 148.9375 289.242188 C 147.929688 287.5625 146.964844 285.859375 146.042969 284.128906 C 145.117188 282.402344 144.238281 280.652344 143.398438 278.882812 C 142.5625 277.113281 141.769531 275.320312 141.019531 273.511719 C 140.269531 271.703125 139.566406 269.875 138.90625 268.03125 C 138.246094 266.183594 137.628906 264.324219 137.0625 262.449219 C 136.492188 260.578125 135.972656 258.6875 135.496094 256.789062 C 135.019531 254.886719 134.589844 252.976562 134.207031 251.054688 C 133.824219 249.132812 133.492188 247.203125 133.203125 245.265625 C 132.914062 243.328125 132.675781 241.386719 132.484375 239.4375 C 132.292969 237.488281 132.148438 235.535156 132.050781 233.578125 C 131.957031 231.621094 131.90625 229.664062 131.90625 227.703125 C 131.90625 225.746094 131.957031 223.785156 132.050781 221.828125 C 132.148438 219.875 132.292969 217.921875 132.484375 215.96875 C 132.675781 214.019531 132.914062 212.078125 133.203125 210.140625 C 133.492188 208.203125 133.824219 206.273438 134.207031 204.351562 C 134.589844 202.429688 135.019531 200.519531 135.496094 198.617188 C 135.972656 196.71875 136.492188 194.832031 137.0625 192.957031 C 137.628906 191.082031 138.246094 189.222656 138.90625 187.375 C 139.566406 185.53125 140.269531 183.707031 141.019531 181.894531 C 141.769531 180.085938 142.5625 178.292969 143.398438 176.523438 C 144.238281 174.753906 145.117188 173.003906 146.042969 171.277344 C 146.964844 169.546875 147.929688 167.84375 148.9375 166.164062 C 149.945312 164.484375 150.992188 162.828125 152.082031 161.199219 C 153.167969 159.570312 154.296875 157.96875 155.464844 156.398438 C 156.632812 154.824219 157.835938 153.28125 159.078125 151.765625 C 160.320312 150.25 161.601562 148.769531 162.917969 147.316406 C 164.230469 145.863281 165.582031 144.445312 166.96875 143.0625 C 168.351562 141.675781 169.769531 140.324219 171.222656 139.011719 C 172.675781 137.695312 174.15625 136.414062 175.671875 135.171875 C 177.1875 133.929688 178.730469 132.722656 180.304688 131.558594 C 181.875 130.390625 183.476562 129.261719 185.105469 128.175781 C 186.734375 127.085938 188.390625 126.039062 190.070312 125.03125 C 191.75 124.023438 193.453125 123.058594 195.183594 122.136719 C 196.910156 121.210938 198.660156 120.332031 200.429688 119.492188 C 202.203125 118.65625 203.992188 117.863281 205.800781 117.113281 C 207.613281 116.363281 209.4375 115.660156 211.285156 115 C 213.128906 114.339844 214.988281 113.722656 216.863281 113.15625 C 218.738281 112.585938 220.625 112.0625 222.523438 111.589844 C 224.425781 111.113281 226.335938 110.683594 228.257812 110.300781 C 230.179688 109.917969 232.109375 109.585938 234.046875 109.296875 C 235.984375 109.007812 237.925781 108.769531 239.875 108.578125 C 241.828125 108.386719 243.78125 108.242188 245.734375 108.144531 C 247.691406 108.050781 249.652344 108 251.609375 108 C 253.570312 108 255.527344 108.050781 257.484375 108.144531 C 259.441406 108.242188 261.394531 108.386719 263.34375 108.578125 C 265.292969 108.769531 267.234375 109.007812 269.171875 109.296875 C 271.113281 109.585938 273.042969 109.917969 274.960938 110.300781 C 276.882812 110.683594 278.792969 111.113281 280.695312 111.589844 C 282.59375 112.0625 284.484375 112.585938 286.355469 113.15625 C 288.230469 113.722656 290.089844 114.339844 291.9375 115 C 293.78125 115.660156 295.609375 116.363281 297.417969 117.113281 C 299.226562 117.863281 301.019531 118.65625 302.789062 119.492188 C 304.558594 120.332031 306.308594 121.210938 308.035156 122.136719 C 309.765625 123.058594 311.46875 124.023438 313.148438 125.03125 C 314.828125 126.039062 316.484375 127.085938 318.113281 128.175781 C 319.742188 129.261719 321.34375 130.390625 322.917969 131.558594 C 324.488281 132.722656 326.035156 133.929688 327.546875 135.171875 C 329.0625 136.414062 330.546875 137.695312 331.996094 139.011719 C 333.449219 140.324219 334.867188 141.675781 336.253906 143.0625 C 337.636719 144.445312 338.988281 145.863281 340.304688 147.316406 C 341.617188 148.769531 342.898438 150.25 344.140625 151.765625 C 345.382812 153.28125 346.589844 154.824219 347.753906 156.398438 C 348.921875 157.96875 350.050781 159.570312 351.136719 161.199219 C 352.226562 162.828125 353.273438 164.484375 354.28125 166.164062 C 355.289062 167.84375 356.253906 169.546875 357.175781 171.277344 C 358.101562 173.003906 358.980469 174.753906 359.820312 176.523438 C 360.65625 178.292969 361.449219 180.085938 362.199219 181.894531 C 362.949219 183.707031 363.65625 185.53125 364.316406 187.375 C 364.972656 189.222656 365.589844 191.082031 366.15625 192.957031 C 366.726562 194.832031 367.25 196.71875 367.722656 198.617188 C 368.199219 200.519531 368.628906 202.429688 369.011719 204.351562 C 369.394531 206.273438 369.730469 208.203125 370.015625 210.140625 C 370.304688 212.078125 370.542969 214.019531 370.734375 215.96875 C 370.925781 217.921875 371.070312 219.875 371.167969 221.828125 C 371.265625 223.785156 371.3125 225.746094 371.3125 227.703125 Z M 371.3125 227.703125 " fill-opacity="1" fill-rule="nonzero"/><path stroke-linecap="round" transform="matrix(0.755744, 0, 0, 0.755744, 0.0000045, 0.232022)" fill="none" stroke-linejoin="round" d="M 197.229181 234.100998 C 206.398545 213.358802 222.850678 196.648231 240.781074 182.759798 C 256.432051 170.62874 274.088503 160.058645 293.698743 157.30887 C 302.950806 156.011514 313.448539 156.931551 319.89914 163.692277 C 323.139946 167.077809 324.990359 171.600465 325.858709 176.210991 C 329.549197 195.542118 317.061496 214.351202 302.547644 227.64006 C 288.038961 240.928918 270.682296 251.561038 259.450601 267.718552 C 253.697782 275.988553 248.730612 286.320886 239.028867 289.060324 C 233.710223 290.559261 227.93156 289.329099 222.928209 286.972148 C 210.290614 280.991904 201.61745 267.418765 201.519244 253.442463 C 201.421038 239.941686 208.579757 227.428141 216.932458 216.821865 C 234.588911 194.389487 258.701132 177.100016 285.599311 167.548165 C 292.628811 165.061996 300.557675 163.118546 307.359751 166.178446 C 315.578064 169.879271 319.330577 180.128904 317.841977 189.019155 C 316.348208 197.909406 310.698764 205.54882 304.398057 211.99942 C 298.102518 218.450021 290.969642 224.120141 285.351211 231.159979 C 281.159354 236.421767 277.758316 242.479543 272.372478 246.511168 C 264.727896 252.217469 253.511707 253.540669 248.539369 261.691789 C 246.389168 265.201371 245.820606 269.470759 243.887493 273.109559 C 239.561249 281.260679 227.910885 284.418786 220.059552 279.570498 C 212.099677 274.660184 209.582495 264.048739 210.538714 254.750157 C 212.492502 235.858373 225.238641 220.041996 238.051973 206.019176 C 242.512605 201.139875 247.071443 196.301925 252.317725 192.270299 C 259.311045 186.899967 267.348452 183.080261 275.349678 179.369098 C 280.332354 177.058666 285.459754 174.72756 290.93863 174.360578 C 296.417506 173.988428 302.39775 175.978397 305.302588 180.64061 C 308.962063 186.512311 306.548257 194.46185 302.191 199.832181 C 297.818237 205.202513 291.812149 208.970533 286.979367 213.932533 C 279.360629 221.747684 274.920672 232.240248 267.270921 240.019218 C 261.182133 246.221718 253.361813 250.382563 246.399506 255.571988 C 238.801442 261.23177 232.159598 268.168234 226.840953 276.019566 C 220.261134 274.179491 216.570646 266.658958 216.947965 259.831039 C 217.330452 252.99795 220.829696 246.779943 224.499509 241.011618 C 238.248386 219.349384 256.147769 199.532394 279.179722 188.217999 C 282.120741 186.781086 285.258173 185.447548 288.529992 185.592273 C 291.801811 185.73183 295.197681 187.742474 295.941981 190.921255 C 296.991237 195.459418 292.628811 199.222269 289.000349 202.132275 C 265.472196 221.039565 252.891457 253.292569 225.181784 265.278902 C 222.561228 262.172483 224.499509 257.46892 226.618697 254.000688 C 238.568849 234.421461 254.168138 217.059627 272.372478 203.088494 C 275.241134 200.881438 279.221072 198.710563 282.239623 200.721207 C 265.999408 217.902134 249.759194 235.077892 233.529317 252.258819 C 240.310717 227.211054 267.229571 213.932533 282.797848 193.169662 L 197.280868 234.100998 Z M 197.229181 234.100998 " stroke="#ffffff" stroke-width="13.84" stroke-opacity="0.3" stroke-miterlimit="4"/><path stroke-linecap="round" transform="matrix(0.755744, 0, 0, 0.755744, 0.0000045, 0.232022)" fill="none" stroke-linejoin="round" d="M 197.229181 219.261515 C 224.959528 173.321659 275.360016 142.598606 332.939898 142.598606 C 420.421002 142.598606 491.331092 213.508696 491.331092 300.9898 C 491.331092 388.470905 420.421002 459.380995 332.939898 459.380995 C 301.922225 459.380995 272.98239 450.459731 248.549706 435.051685 " stroke="#000000" stroke-width="9.729999" stroke-opacity="1" stroke-miterlimit="4"/><path stroke-linecap="round" transform="matrix(0.755744, 0, 0, 0.755744, 0.0000045, 0.232022)" fill="none" stroke-linejoin="round" d="M 487.532061 289.680574 C 422.45749 248.661369 327.042353 238.882093 250.487987 266.762333 " stroke="#000000" stroke-width="9.729999" stroke-opacity="1" stroke-miterlimit="4"/><path stroke-linecap="round" transform="matrix(0.755744, 0, 0, 0.755744, 0.0000045, 0.232022)" fill="none" stroke-linejoin="round" d="M 280.187629 190.600793 C 260.370639 282.62006 289.630936 396.539324 365.022333 451.720906 " stroke="#000000" stroke-width="9.729999" stroke-opacity="1" stroke-miterlimit="4"/><path stroke-linecap="round" transform="matrix(0.755744, 0, 0, 0.755744, 0.0000045, 0.232022)" fill="none" stroke-linejoin="round" d="M 269.441796 309.342501 C 293.41963 302.292325 319.847452 303.589682 342.90008 313.322439 C 388.007767 332.34861 416.187795 380.810816 464.939451 385.307629 " stroke="#000000" stroke-width="9.729999" stroke-opacity="1" stroke-miterlimit="4"/><path stroke-linecap="round" transform="matrix(0.755744, 0, 0, 0.755744, 0.0000045, 0.232022)" fill="none" stroke-linejoin="round" d="M 248.539369 216.38769 C 256.401038 218.501709 264.867452 219.28219 273.509603 219.008246 C 296.288287 218.300127 317.940183 208.391632 336.661398 195.381887 C 355.372275 182.372142 368.71799 168.871365 385.857567 153.840638 " stroke="#000000" stroke-width="9.729999" stroke-opacity="1" stroke-miterlimit="4"/><path stroke-linecap="round" transform="matrix(0.755744, 0, 0, 0.755744, 0.0000045, 0.232022)" fill="none" stroke-linejoin="round" d="M 223.181478 215.901827 C 229.492522 207.78172 236.682255 200.369731 244.611118 193.831262 C 247.758887 191.23138 251.020369 188.771055 254.390394 186.450286 " stroke="#ffffff" stroke-width="9.729999" stroke-opacity="1" stroke-miterlimit="4"/><path stroke-linecap="round" transform="matrix(0.755744, 0, 0, 0.755744, 0.0000045, 0.232022)" fill="none" stroke-linejoin="round" d="M 276.559166 174.009103 C 280.869904 172.091497 285.289186 170.38064 289.82218 168.902378 " stroke="#ffffff" stroke-width="9.729999" stroke-opacity="1" stroke-miterlimit="4"/><path fill="#dbdaba" d="M 196.46875 263.675781 C 196.46875 316.917969 153.308594 360.0625 100.082031 360.0625 C 46.855469 360.0625 3.671875 316.917969 3.671875 263.675781 C 3.671875 220.109375 32.582031 183.289062 72.273438 171.363281 C 81.082031 168.71875 90.417969 167.289062 100.074219 167.289062 C 109.734375 167.289062 119.082031 168.71875 127.878906 171.363281 C 167.554688 183.296875 196.464844 220.117188 196.464844 263.675781 Z M 196.46875 263.675781 " fill-opacity="1" fill-rule="nonzero"/><path stroke-linecap="round" transform="matrix(0.755744, 0, 0, 0.755744, 0.0000045, 0.232022)" fill="none" stroke-linejoin="round" d="M 52.638551 275.848997 C 59.54917 268.240596 67.529721 261.588414 76.38896 256.181901 " stroke="#ffffff" stroke-width="9.729999" stroke-opacity="1" stroke-miterlimit="4"/><path stroke-linecap="round" transform="matrix(0.755744, 0, 0, 0.755744, 0.0000045, 0.232022)" fill-opacity="1" fill="#0c2750" fill-rule="nonzero" stroke-linejoin="round" d="M 132.418217 298.808587 L 85.072461 333.211792 L 103.157919 388.858561 L 161.678514 388.858561 L 179.758804 333.211792 Z M 132.418217 298.808587 " stroke="#000000" stroke-width="9.729999" stroke-opacity="1" stroke-miterlimit="4"/><path fill="#0c2750" d="M 127.886719 171.355469 L 100.082031 191.546875 L 72.28125 171.355469 C 81.089844 168.710938 90.425781 167.28125 100.082031 167.28125 C 109.742188 167.28125 119.089844 168.710938 127.886719 171.355469 Z M 127.886719 171.355469 " fill-opacity="1" fill-rule="nonzero"/><path fill="#0c2750" d="M 20.867188 208.695312 L 31.476562 241.382812 L 3.679688 261.589844 C 3.890625 252.394531 5.410156 243.074219 8.394531 233.886719 C 11.382812 224.695312 15.628906 216.246094 20.867188 208.695312 Z M 20.867188 208.695312 " fill-opacity="1" fill-rule="nonzero"/><path stroke-linecap="round" transform="matrix(0.755744, 0, 0, 0.755744, 0.0000045, 0.232022)" fill-opacity="1" fill="#0c2750" fill-rule="nonzero" stroke-linejoin="round" d="M 30.841929 425.778947 L 76.311428 425.778947 C 76.311428 425.778947 90.37043 469.031052 90.37043 469.031052 C 78.880298 465.009764 67.777821 459.27762 57.44032 451.762256 C 47.09765 444.241724 38.20223 435.439342 30.841929 425.768609 Z M 30.841929 425.778947 " stroke="#000000" stroke-width="9.729999" stroke-opacity="1" stroke-miterlimit="4"/><path stroke-linecap="round" transform="matrix(0.755744, 0, 0, 0.755744, 0.0000045, 0.232022)" fill="none" stroke-linejoin="round" d="M 103.157919 388.858561 L 74.631585 428.130728 " stroke="#000000" stroke-width="9.729999" stroke-opacity="1" stroke-miterlimit="4"/><path stroke-linecap="round" transform="matrix(0.755744, 0, 0, 0.755744, 0.0000045, 0.232022)" fill-opacity="1" fill="#0c2750" fill-rule="nonzero" stroke-linejoin="round" d="M 174.450497 469.051727 L 188.509499 425.809959 L 233.978998 425.809959 C 226.598022 435.480692 217.728446 444.267568 207.380607 451.7881 C 197.037937 459.308632 185.919955 465.040777 174.450497 469.062065 Z M 174.450497 469.051727 " stroke="#000000" stroke-width="9.729999" stroke-opacity="1" stroke-miterlimit="4"/><path stroke-linecap="round" transform="matrix(0.755744, 0, 0, 0.755744, 0.0000045, 0.232022)" fill="none" stroke-linejoin="round" d="M 161.678514 388.858561 L 190.210018 428.130728 " stroke="#000000" stroke-width="9.729999" stroke-opacity="1" stroke-miterlimit="4"/><path stroke-linecap="round" transform="matrix(0.755744, 0, 0, 0.755744, 0.0000045, 0.232022)" fill-opacity="1" fill="#0c2750" fill-rule="nonzero" stroke-linejoin="round" d="M 259.967476 345.839049 L 223.191815 319.101102 L 237.230142 275.848997 C 244.161437 285.860867 249.769531 297.0202 253.728794 309.18227 C 257.67772 321.339171 259.698701 333.692485 259.967476 345.839049 Z M 259.967476 345.839049 " stroke="#000000" stroke-width="9.729999" stroke-opacity="1" stroke-miterlimit="4"/><path stroke-linecap="round" transform="matrix(0.755744, 0, 0, 0.755744, 0.0000045, 0.232022)" fill="none" stroke-linejoin="round" d="M 179.758804 333.211792 L 225.920916 318.212077 " stroke="#000000" stroke-width="9.729999" stroke-opacity="1" stroke-miterlimit="4"/><path stroke-linecap="round" transform="matrix(0.755744, 0, 0, 0.755744, 0.0000045, 0.232022)" fill="none" stroke-linejoin="round" d="M 130.650504 108.521033 C 124.168891 112.051289 121.780928 120.171397 125.311185 126.658179 C 128.841441 133.139792 136.961548 135.527755 143.448331 131.997498 C 149.929944 128.47241 152.317907 120.352303 148.78765 113.860352 C 145.262562 107.368401 137.142455 104.990776 130.650504 108.521033 Z M 130.650504 108.521033 " stroke="#000000" stroke-width="9.729999" stroke-opacity="1" stroke-miterlimit="4"/><path fill="#d72d3c" d="M 185.453125 9.496094 L 163.460938 21.492188 L 164.164062 28.648438 L 150.71875 35.980469 L 147.550781 30.167969 L 119.082031 45.691406 C 103.210938 54.34375 97.363281 74.226562 106.015625 90.105469 C 114.667969 105.976562 134.550781 111.824219 150.429688 103.171875 C 166.300781 94.519531 172.152344 74.636719 163.496094 58.757812 C 162.992188 57.828125 162.441406 56.933594 161.863281 56.082031 L 194.511719 26.117188 Z M 185.453125 9.496094 " fill-opacity="1" fill-rule="nonzero"/><path stroke-linecap="round" transform="matrix(0.755744, 0, 0, 0.755744, 0.0000045, 0.232022)" fill="none" stroke-linejoin="round" d="M 167.648421 60.53952 C 154.199332 66.468077 144.001387 79.271073 141.220599 93.712562 C 140.590011 96.979212 140.331574 100.400925 141.179249 103.621057 C 142.032093 106.841189 144.130606 109.859739 147.180168 111.188108 C 150.141863 112.480296 153.641107 112.030614 156.540776 110.609208 C 159.440445 109.187801 161.807733 106.887707 163.921752 104.448057 C 167.689771 100.0908 170.749671 95.180487 173.799234 90.290849 C 175.830553 87.039705 177.861872 83.788561 179.877685 80.537417 C 183.149504 75.291135 186.529867 69.708884 186.659086 63.532227 C 186.669423 62.86029 186.638411 62.162508 186.292105 61.599114 C 185.89928 60.968527 185.170486 60.62222 184.477873 60.358614 C 179.092035 58.34797 172.879197 59.500602 167.90169 62.369258 C 162.908677 65.237915 158.990764 69.652028 155.631076 74.31941 C 151.857888 79.539848 148.637756 85.287499 147.2577 91.577868 C 146.782175 93.779756 146.528906 96.110862 147.118143 98.281738 C 147.71255 100.457782 149.289019 102.468426 151.459894 103.078338 C 153.930557 103.770951 156.592463 102.530451 158.432539 100.742063 C 160.262276 98.938169 161.497608 96.638075 162.981039 94.539562 C 166.981652 88.87978 172.910209 84.62073 176.042472 78.428566 C 177.851535 74.862128 178.601004 70.871853 179.340135 66.928096 C 179.459016 66.29234 179.552054 65.54804 179.128216 65.062177 C 178.74056 64.612496 178.058285 64.560808 177.469047 64.612496 C 175.112097 64.819246 173.008415 66.132109 171.070134 67.49149 C 161.301195 74.309072 152.540163 84.067673 151.31 95.919619 C 152.731407 96.860331 154.690363 96.550206 156.122107 95.619831 C 157.548682 94.689456 158.55142 93.257712 159.507639 91.862149 C 163.399708 86.228211 167.302115 80.589104 171.189015 74.960335 L 167.658759 60.53952 Z M 167.648421 60.53952 " stroke="#ffffff" stroke-width="9.729999" stroke-opacity="0.3" stroke-miterlimit="4"/><path stroke-linecap="round" transform="matrix(0.755744, 0, 0, 0.755744, 0.0000045, 0.232022)" fill="none" stroke-linejoin="round" d="M 245.391599 12.258221 L 216.291533 28.131454 L 217.221908 37.600605 L 199.431069 47.30235 L 195.239212 39.611249 L 157.569357 60.151864 C 136.568723 71.600647 128.831104 97.909588 140.279886 118.920559 C 151.728669 139.921193 178.03761 147.658812 199.048581 136.21003 C 220.049215 124.761247 227.792003 98.452306 216.338052 77.441335 C 215.671283 76.211172 214.942489 75.027529 214.177514 73.900741 L 257.377932 34.251255 Z M 245.391599 12.258221 " stroke="#000000" stroke-width="9.729999" stroke-opacity="1" stroke-miterlimit="4"/><path stroke-linecap="round" transform="matrix(0.755744, 0, 0, 0.755744, 0.0000045, 0.232022)" fill-opacity="1" fill="#a10b1a" fill-rule="nonzero" stroke-linejoin="round" d="M 194.241643 98.168025 C 194.241643 99.217281 194.138268 100.251032 193.931518 101.279613 C 193.729937 102.303026 193.430149 103.300595 193.026987 104.267151 C 192.628993 105.233707 192.137962 106.148576 191.553893 107.022095 C 190.974993 107.890445 190.313393 108.69677 189.574261 109.435902 C 188.83513 110.175033 188.028805 110.836633 187.160455 111.415533 C 186.292105 111.994433 185.372067 112.485464 184.405511 112.888627 C 183.438954 113.286621 182.441385 113.591577 181.417973 113.793158 C 180.389391 113.999908 179.355641 114.098115 178.311554 114.098115 C 177.262297 114.098115 176.228547 113.999908 175.199966 113.793158 C 174.176553 113.591577 173.178984 113.286621 172.212428 112.888627 C 171.245871 112.485464 170.331003 111.994433 169.457484 111.415533 C 168.589134 110.836633 167.787977 110.175033 167.043677 109.435902 C 166.304546 108.69677 165.648115 107.890445 165.064046 107.022095 C 164.485146 106.148576 163.994114 105.233707 163.590952 104.267151 C 163.192958 103.300595 162.888002 102.303026 162.68642 101.279613 C 162.47967 100.251032 162.381464 99.217281 162.381464 98.168025 C 162.381464 97.123937 162.47967 96.090187 162.68642 95.061606 C 162.888002 94.038193 163.192958 93.040624 163.590952 92.074068 C 163.994114 91.107512 164.485146 90.187474 165.064046 89.319124 C 165.648115 88.450774 166.304546 87.644449 167.043677 86.905317 C 167.787977 86.166186 168.589134 85.504586 169.457484 84.925686 C 170.331003 84.341617 171.245871 83.850586 172.212428 83.452592 C 173.178984 83.054598 174.176553 82.749642 175.199966 82.548061 C 176.228547 82.341311 177.262297 82.237936 178.311554 82.237936 C 179.355641 82.237936 180.389391 82.341311 181.417973 82.548061 C 182.441385 82.749642 183.438954 83.054598 184.405511 83.452592 C 185.372067 83.850586 186.292105 84.341617 187.160455 84.925686 C 188.028805 85.504586 188.83513 86.166186 189.574261 86.905317 C 190.313393 87.644449 190.974993 88.450774 191.553893 89.319124 C 192.137962 90.187474 192.628993 91.107512 193.026987 92.074068 C 193.430149 93.040624 193.729937 94.038193 193.931518 95.061606 C 194.138268 96.090187 194.241643 97.123937 194.241643 98.168025 Z M 194.241643 98.168025 " stroke="#000000" stroke-width="9.729999" stroke-opacity="1" stroke-miterlimit="4"/><path stroke-linecap="round" transform="matrix(0.755744, 0, 0, 0.755744, 0.0000045, 0.232022)" fill="none" stroke-linejoin="round" d="M 197.999325 21.091616 L 191.858849 9.81857 " stroke="#000000" stroke-width="9.729999" stroke-opacity="1" stroke-miterlimit="4"/><path stroke-linecap="round" transform="matrix(0.755744, 0, 0, 0.755744, 0.0000045, 0.232022)" fill="none" stroke-linejoin="round" d="M 185.868267 27.07186 L 178.358072 20.569572 " stroke="#000000" stroke-width="9.729999" stroke-opacity="1" stroke-miterlimit="4"/><path stroke-linecap="round" transform="matrix(0.755744, 0, 0, 0.755744, 0.0000045, 0.232022)" fill="none" stroke-linejoin="round" d="M 209.649689 14.697871 L 208.259295 4.861739 " stroke="#000000" stroke-width="9.729999" stroke-opacity="1" stroke-miterlimit="4"/><path stroke-linecap="round" transform="matrix(0.755744, 0, 0, 0.755744, 0.0000045, 0.232022)" fill="none" stroke-linejoin="round" d="M 21.27974 298.849937 C 28.950166 281.519117 42.688706 267.547984 57.678082 255.93897 C 70.76019 245.797881 85.522142 236.969655 101.91225 234.669561 C 109.639533 233.578954 118.410902 234.359436 123.812247 239.998543 C 126.520672 242.831018 128.06096 246.609375 128.789754 250.460094 C 131.870329 266.617608 121.43979 282.340948 109.298395 293.448593 C 97.172506 304.561407 82.658654 313.44132 73.272203 326.952435 C 68.460096 333.868223 64.309589 342.500037 56.210157 344.789793 C 51.759863 346.050968 46.93225 345.022387 42.761068 343.037587 C 32.190973 338.039405 24.949553 326.699166 24.861685 315.007452 C 24.778985 303.718901 30.759229 293.267687 37.742211 284.398111 C 52.498994 265.651052 72.651953 251.199225 95.141187 243.218674 C 101.007719 241.140837 107.649564 239.517849 113.330021 242.071212 C 120.19929 245.162125 123.341891 253.731913 122.091053 261.159408 C 120.840215 268.592071 116.121146 274.970309 110.859358 280.361316 C 105.59757 285.752323 99.638 290.492068 94.939606 296.379275 C 91.430024 300.777881 88.59238 305.848426 84.090398 309.208114 C 77.701822 313.978871 68.330877 315.090152 64.170033 321.902565 C 62.381646 324.838416 61.900952 328.410022 60.277964 331.449248 C 56.659839 338.261661 46.921912 340.897724 40.357599 336.850592 C 33.710586 332.751773 31.601735 323.882197 32.397723 316.108396 C 34.031048 300.317863 44.689012 287.101367 55.388326 275.378641 C 59.120164 271.300497 62.929533 267.258534 67.307465 263.888508 C 73.148153 259.402033 79.867529 256.207745 86.561061 253.111663 C 90.721905 251.17855 95.011968 249.229931 99.591481 248.919806 C 104.170994 248.609681 109.169176 250.26885 111.588152 254.171257 C 114.648052 259.08157 112.642577 265.718246 108.98827 270.20989 C 105.339132 274.701534 100.309938 277.849304 96.267975 281.989473 C 89.900074 288.517605 86.188911 297.288975 79.800335 303.801601 C 74.709116 308.980689 68.180984 312.459258 62.350633 316.801008 C 55.998238 321.530415 50.452169 327.329753 46.001875 333.888898 C 40.502324 332.34861 37.411411 326.058241 37.731874 320.362278 C 38.052336 314.650808 40.977849 309.451045 44.037749 304.628601 C 55.527882 286.522467 70.491415 269.96179 89.739843 260.508145 C 92.18983 259.298658 94.820725 258.197714 97.549825 258.311426 C 100.278925 258.430307 103.132076 260.110151 103.752326 262.772058 C 104.631013 266.560752 100.981875 269.698184 97.947819 272.137834 C 78.29106 287.949042 67.767484 314.898908 44.611481 324.921116 C 42.419931 322.321234 44.037749 318.387815 45.810631 315.488146 C 55.801826 299.118712 68.842584 284.620367 84.049048 272.93899 C 86.452517 271.098915 89.781193 269.279515 92.298374 270.959359 C 78.730404 285.318148 65.162433 299.682106 51.578957 314.040896 C 57.249076 293.107455 79.748648 281.99981 92.758393 264.648314 L 21.27974 298.860275 Z M 21.27974 298.849937 " stroke="#ffffff" stroke-width="11.57" stroke-opacity="0.3" stroke-miterlimit="4"/><g clip-path="url(#86ba478630)"><path stroke-linecap="round" transform="matrix(0.755744, 0, 0, 0.755744, 0.0000045, 0.232022)" fill="none" stroke-linejoin="round" d="M 259.967476 348.588825 C 259.967476 419.038896 202.85795 476.127747 132.428554 476.127747 C 61.999158 476.127747 4.85862 419.038896 4.85862 348.588825 C 4.85862 290.941749 43.112543 242.221105 95.632218 226.44091 C 107.287751 222.941666 119.641065 221.049903 132.418217 221.049903 C 145.200537 221.049903 157.569357 222.941666 169.209384 226.44091 C 221.708384 242.231443 259.962307 290.952086 259.962307 348.588825 Z M 259.967476 348.588825 " stroke="#000000" stroke-width="9.729999" stroke-opacity="1" stroke-miterlimit="4"/></g><path stroke-linecap="round" transform="matrix(0.755744, 0, 0, 0.755744, 0.0000045, 0.232022)" fill="none" stroke-linejoin="round" d="M 132.418217 298.808587 L 132.418217 250.26885 " stroke="#000000" stroke-width="9.729999" stroke-opacity="1" stroke-miterlimit="4"/><path stroke-linecap="round" transform="matrix(0.755744, 0, 0, 0.755744, 0.0000045, 0.232022)" fill="none" stroke-linejoin="round" d="M 169.219721 226.430572 L 132.428554 253.147844 L 95.642556 226.430572 C 107.298089 222.931328 119.651403 221.039565 132.428554 221.039565 C 145.210874 221.039565 157.579695 222.931328 169.219721 226.430572 Z M 169.219721 226.430572 " stroke="#000000" stroke-width="9.729999" stroke-opacity="1" stroke-miterlimit="4"/><path stroke-linecap="round" transform="matrix(0.755744, 0, 0, 0.755744, 0.0000045, 0.232022)" fill="none" stroke-linejoin="round" d="M 27.61146 275.83866 L 41.649787 319.090765 L 4.868957 345.828712 C 5.14807 333.661473 7.158714 321.328834 11.107639 309.171932 C 15.061733 297.009862 20.680165 285.829855 27.61146 275.83866 Z M 27.61146 275.83866 " stroke="#000000" stroke-width="9.729999" stroke-opacity="1" stroke-miterlimit="4"/><path stroke-linecap="round" transform="matrix(0.755744, 0, 0, 0.755744, 0.0000045, 0.232022)" fill="none" stroke-linejoin="round" d="M 85.072461 333.211792 L 38.910349 318.212077 " stroke="#000000" stroke-width="9.729999" stroke-opacity="1" stroke-miterlimit="4"/><g transform="matrix(1, 0, 0, 1, 261, 289)"><g clip-path="url(#f45e43d707)"><g clip-path="url(#1f53b90e85)"><g fill="#c88067" fill-opacity="1"><g transform="translate(0.131413, 15.843204)"><g><path d="M 10.5625 -5.125 C 10.5625 -3.914062 10.347656 -2.90625 9.921875 -2.09375 C 9.492188 -1.28125 8.867188 -0.6875 8.046875 -0.3125 L 10.5 2.4375 L 7.734375 2.4375 L 5.859375 0.140625 L 5.703125 0.140625 C 4.128906 0.140625 2.921875 -0.3125 2.078125 -1.21875 C 1.242188 -2.125 0.828125 -3.429688 0.828125 -5.140625 C 0.828125 -6.835938 1.25 -8.132812 2.09375 -9.03125 C 2.9375 -9.925781 4.140625 -10.375 5.703125 -10.375 C 7.273438 -10.375 8.476562 -9.921875 9.3125 -9.015625 C 10.144531 -8.117188 10.5625 -6.820312 10.5625 -5.125 Z M 3.109375 -5.125 C 3.109375 -3.976562 3.320312 -3.113281 3.75 -2.53125 C 4.1875 -1.957031 4.835938 -1.671875 5.703125 -1.671875 C 7.421875 -1.671875 8.28125 -2.820312 8.28125 -5.125 C 8.28125 -7.425781 7.421875 -8.578125 5.703125 -8.578125 C 4.847656 -8.578125 4.203125 -8.285156 3.765625 -7.703125 C 3.328125 -7.117188 3.109375 -6.257812 3.109375 -5.125 Z M 3.109375 -5.125 "/></g></g></g></g><g fill="#c88067" fill-opacity="1"><g transform="translate(11.525947, 15.843204)"><g><path d="M 7.546875 0 L 6.796875 -2.4375 L 3.078125 -2.4375 L 2.328125 0 L 0 0 L 3.609375 -10.265625 L 6.25 -10.265625 L 9.875 0 Z M 6.28125 -4.25 C 5.59375 -6.445312 5.207031 -7.691406 5.125 -7.984375 C 5.039062 -8.273438 4.976562 -8.503906 4.9375 -8.671875 C 4.78125 -8.078125 4.34375 -6.601562 3.625 -4.25 Z M 6.28125 -4.25 "/></g></g></g><g fill="#c88067" fill-opacity="1"><g transform="translate(21.403543, 15.843204)"><g><path d="M 1.28125 -10.21875 L 4.46875 -10.21875 C 5.914062 -10.21875 6.96875 -10.007812 7.625 -9.59375 C 8.28125 -9.1875 8.609375 -8.53125 8.609375 -7.625 C 8.609375 -7.019531 8.460938 -6.519531 8.171875 -6.125 C 7.890625 -5.738281 7.507812 -5.503906 7.03125 -5.421875 L 7.03125 -5.359375 C 7.675781 -5.210938 8.140625 -4.941406 8.421875 -4.546875 C 8.710938 -4.148438 8.859375 -3.625 8.859375 -2.96875 C 8.859375 -2.03125 8.519531 -1.300781 7.84375 -0.78125 C 7.175781 -0.257812 6.265625 0 5.109375 0 L 1.28125 0 Z M 3.453125 -6.171875 L 4.703125 -6.171875 C 5.296875 -6.171875 5.722656 -6.257812 5.984375 -6.4375 C 6.242188 -6.625 6.375 -6.925781 6.375 -7.34375 C 6.375 -7.738281 6.226562 -8.019531 5.9375 -8.1875 C 5.65625 -8.351562 5.207031 -8.4375 4.59375 -8.4375 L 3.453125 -8.4375 Z M 3.453125 -4.453125 L 3.453125 -1.796875 L 4.859375 -1.796875 C 5.460938 -1.796875 5.90625 -1.90625 6.1875 -2.125 C 6.46875 -2.351562 6.609375 -2.707031 6.609375 -3.1875 C 6.609375 -4.03125 6.003906 -4.453125 4.796875 -4.453125 Z M 3.453125 -4.453125 "/></g></g></g></g></g></svg>