<svg xmlns="http://www.w3.org/2000/svg" xmlns:xlink="http://www.w3.org/1999/xlink" width="500" zoomAndPan="magnify" viewBox="0 0 375 374.999991" height="500" preserveAspectRatio="xMidYMid meet" version="1.0"><defs><g/><clipPath id="8b69623b83"><rect x="0" width="33" y="0" height="20"/></clipPath></defs><path fill="#040203" d="M 362.578125 311.386719 C 359.144531 319.5 354.375 326.992188 348.921875 333.890625 C 339.597656 345.730469 327.355469 355.066406 313.957031 361.882812 C 306.699219 365.46875 299.054688 368.300781 291.175781 370.238281 C 272.359375 375.152344 252.222656 374.394531 233.644531 368.777344 C 221.777344 365.269531 210.546875 359.613281 200.65625 352.175781 C 191.074219 345.113281 182.855469 336.320312 175.964844 326.648438 C 169.355469 339.011719 159.917969 349.894531 148.480469 358.019531 C 138.140625 365.324219 126.40625 370.722656 114.023438 373.464844 C 98.113281 377.191406 81.265625 376.375 65.625 371.804688 C 52.625 367.921875 40.417969 361.1875 30.484375 351.917969 C 25.125 347.027344 20.429688 341.414062 16.414062 335.371094 C 6.632812 320.613281 1.410156 302.980469 1.105469 285.3125 C 0.820312 275.84375 2.144531 266.332031 4.945312 257.277344 C 7.113281 249.636719 10.585938 242.414062 14.761719 235.679688 C 21.308594 224.964844 30.234375 215.785156 40.5 208.59375 C 33.042969 207.679688 25.429688 206.449219 18.65625 203.007812 C 15.117188 201.152344 11.761719 198.75 9.398438 195.480469 C 6.058594 190.933594 4.363281 185.449219 3.066406 180.019531 C 0.480469 168.378906 0.0390625 156.300781 1.328125 144.460938 C 2.972656 130.875 6.574219 117.507812 12.140625 105.003906 C 16.347656 95.125 21.394531 85.589844 27.417969 76.695312 C 39.941406 57.628906 56.167969 40.933594 75.207031 28.324219 C 83.636719 22.554688 92.628906 17.613281 102.019531 13.597656 C 117.421875 6.800781 133.984375 2.765625 150.714844 1.097656 C 162.476562 -0.0351562 174.433594 0.445312 185.996094 2.925781 C 191.773438 4.195312 197.492188 6.035156 202.578125 9.101562 C 204.597656 10.222656 206 12.101562 207.507812 13.789062 C 211.703125 18.980469 214.652344 25.171875 216.160156 31.664062 C 232.664062 22.984375 251.457031 18.8125 270.082031 19.492188 C 287.734375 19.910156 305.28125 24.855469 320.449219 33.917969 C 333.148438 41.460938 344.269531 51.703125 352.5625 63.941406 C 360.472656 75.613281 366.175781 88.839844 368.867188 102.691406 C 371.410156 116.316406 371.238281 130.507812 367.964844 143.988281 C 364.996094 156.101562 360.074219 167.78125 353.050781 178.113281 C 348.648438 184.582031 343.511719 190.535156 337.910156 195.980469 C 345.945312 203.644531 353.167969 212.300781 358.457031 222.101562 C 373.390625 249.132812 374.992188 283.101562 362.578125 311.386719 Z M 362.578125 311.386719 " fill-opacity="1" fill-rule="nonzero"/><path fill="#040203" d="M 150.71875 1.097656 C 162.480469 -0.0351562 174.433594 0.441406 186 2.929688 C 191.773438 4.195312 197.492188 6.035156 202.578125 9.101562 C 204.597656 10.21875 206.003906 12.105469 207.511719 13.792969 C 211.707031 18.984375 214.648438 25.167969 216.160156 31.660156 C 232.664062 22.988281 251.460938 18.816406 270.082031 19.492188 C 287.738281 19.914062 305.28125 24.859375 320.449219 33.914062 C 333.148438 41.460938 344.269531 51.703125 352.5625 63.945312 C 360.46875 75.617188 366.171875 88.839844 368.863281 102.691406 C 371.414062 116.320312 371.234375 130.503906 367.964844 143.992188 C 365 156.105469 360.070312 167.78125 353.050781 178.109375 C 348.652344 184.582031 343.515625 190.53125 337.910156 195.984375 C 345.945312 203.648438 353.164062 212.304688 358.457031 222.105469 C 373.390625 249.136719 374.988281 283.101562 362.582031 311.390625 C 359.140625 319.5 354.378906 326.996094 348.925781 333.890625 C 339.597656 345.726562 327.355469 355.070312 313.960938 361.882812 C 306.699219 365.472656 299.054688 368.300781 291.179688 370.242188 C 272.355469 375.152344 252.226562 374.394531 233.644531 368.777344 C 221.777344 365.273438 210.546875 359.609375 200.652344 352.179688 C 191.074219 345.117188 182.859375 336.324219 175.96875 326.648438 C 169.351562 339.011719 159.921875 349.890625 148.484375 358.023438 C 138.140625 365.320312 126.40625 370.726562 114.027344 373.464844 C 98.113281 377.195312 81.269531 376.375 65.625 371.804688 C 52.621094 367.925781 40.421875 361.191406 30.488281 351.917969 C 25.125 347.027344 20.433594 341.414062 16.417969 335.371094 C 6.636719 320.617188 1.410156 302.980469 1.101562 285.3125 C 0.820312 275.839844 2.148438 266.332031 4.949219 257.28125 C 7.109375 249.632812 10.585938 242.414062 14.765625 235.679688 C 21.3125 224.96875 30.230469 215.785156 40.5 208.59375 C 33.039062 207.683594 25.425781 206.449219 18.660156 203.007812 C 15.121094 201.148438 11.761719 198.75 9.398438 195.480469 C 6.058594 190.9375 4.359375 185.449219 3.0625 180.023438 C 0.480469 168.382812 0.0390625 156.304688 1.328125 144.460938 C 2.972656 130.878906 6.574219 117.507812 12.144531 105.003906 C 16.351562 95.125 21.398438 85.59375 27.417969 76.695312 C 39.9375 57.628906 56.171875 40.9375 75.207031 28.324219 C 83.636719 22.554688 92.628906 17.609375 102.023438 13.597656 C 117.425781 6.800781 133.984375 2.761719 150.71875 1.097656 Z M 154.671875 6.777344 C 158.945312 9.898438 162.894531 13.429688 166.863281 16.925781 C 169.132812 16.191406 171.414062 15.464844 173.675781 14.703125 C 179.40625 12.824219 185.335938 11.671875 191.273438 10.660156 C 179.503906 6.816406 166.949219 6.171875 154.671875 6.777344 Z M 125.105469 11.839844 C 131.566406 16.25 137.601562 21.261719 143.339844 26.574219 C 150 23.417969 156.761719 20.421875 163.734375 18.027344 C 159.75 14.28125 155.417969 10.933594 150.988281 7.730469 C 150.28125 7.042969 149.246094 7.328125 148.375 7.359375 C 140.511719 8.207031 132.71875 9.691406 125.105469 11.839844 Z M 120.175781 13.261719 C 115.058594 14.902344 109.9375 16.554688 104.992188 18.664062 C 94.871094 23.035156 85.164062 28.398438 76.167969 34.777344 C 57.769531 47.601562 42.242188 64.375 30.242188 83.269531 C 23.84375 93.425781 18.304688 104.1875 14.421875 115.558594 C 21.460938 119.707031 28.1875 124.390625 34.6875 129.335938 C 37.28125 125.113281 39.996094 120.960938 42.988281 117.007812 C 43.4375 116.351562 44.015625 115.726562 44.179688 114.925781 C 42.710938 112.070312 39.449219 110.421875 38.457031 107.277344 C 37.730469 103.492188 41.339844 99.707031 45.082031 99.722656 C 47.242188 99.78125 48.320312 101.882812 49.824219 103.085938 C 50.570312 103.183594 51.0625 102.5 51.585938 102.09375 C 52.425781 101.269531 53.394531 100.5 53.882812 99.402344 C 52.3125 97.605469 49.898438 96.097656 49.78125 93.464844 C 49.480469 90.8125 51.492188 88.613281 53.660156 87.417969 C 55.421875 86.519531 57.90625 86.503906 59.257812 88.132812 C 60.203125 88.917969 60.863281 90.371094 62.203125 90.480469 C 63.625 89.734375 64.601562 88.402344 65.65625 87.234375 C 64.304688 85.679688 62.417969 84.4375 61.746094 82.40625 C 60.652344 78.097656 65.382812 73.691406 69.617188 74.851562 C 71.402344 75.472656 72.261719 77.332031 73.679688 78.457031 C 75.414062 77.890625 76.566406 76.375 77.738281 75.070312 C 76.449219 73.875 74.941406 72.800781 74.140625 71.1875 C 73.367188 69.34375 73.777344 67.078125 75.101562 65.582031 C 76.480469 63.9375 78.488281 62.453125 80.757812 62.792969 C 83.019531 63.132812 84.171875 65.339844 85.859375 66.617188 C 87.464844 65.9375 88.683594 64.632812 89.847656 63.390625 C 88.460938 61.882812 86.621094 60.554688 86.078125 58.476562 C 85.210938 54.609375 89.128906 50.765625 92.921875 51.058594 C 95.347656 51.3125 96.441406 53.835938 98.414062 54.875 C 99.949219 54.253906 101.085938 52.980469 102.339844 51.941406 C 101.128906 50.585938 99.578125 49.417969 98.886719 47.683594 C 97.605469 43.453125 102.132812 39.054688 106.304688 39.851562 C 108.601562 40.347656 109.457031 42.878906 111.394531 43.917969 C 112.945312 43.140625 114.179688 41.878906 115.460938 40.734375 C 113.9375 39.121094 111.765625 37.609375 111.691406 35.179688 C 111.582031 32.375 113.742188 30.078125 116.117188 28.933594 C 117.757812 28.113281 119.878906 28.246094 121.242188 29.542969 C 123.355469 31.257812 124.496094 34.371094 127.296875 35.09375 C 131.632812 32.570312 136.023438 30.117188 140.546875 27.929688 C 134.921875 22.546875 128.785156 17.660156 122.242188 13.429688 C 121.640625 12.898438 120.867188 13.007812 120.175781 13.261719 Z M 169.289062 19.101562 C 175.789062 25.582031 181.917969 32.4375 187.539062 39.695312 C 189.613281 42.28125 191.609375 44.929688 193.601562 47.578125 C 195.996094 45.503906 198.480469 43.542969 201.03125 41.671875 C 201.515625 41.226562 202.242188 40.855469 202.335938 40.140625 C 203.347656 32.289062 202.738281 24.296875 200.941406 16.605469 C 200.722656 15.839844 200.210938 15.210938 199.75 14.578125 C 198.070312 13.992188 196.371094 13.183594 194.542969 13.339844 C 185.878906 13.90625 177.5 16.429688 169.289062 19.101562 Z M 204.683594 19.617188 C 204.941406 22.011719 205.417969 24.378906 205.550781 26.789062 C 205.757812 30.621094 205.636719 34.460938 205.507812 38.292969 C 207.230469 37.148438 208.929688 35.953125 210.613281 34.75 C 209.4375 29.445312 207.804688 24.128906 204.683594 19.617188 Z M 145.542969 28.621094 C 156.363281 38.859375 166.070312 50.277344 174.355469 62.660156 C 175.226562 63.925781 176.089844 65.191406 176.90625 66.488281 C 179.257812 63.320312 181.621094 60.148438 184.292969 57.234375 C 186.589844 54.730469 188.988281 52.3125 191.285156 49.808594 L 191.242188 49.488281 C 189.578125 47.222656 188.023438 44.867188 186.214844 42.707031 C 180.191406 34.582031 173.355469 27.085938 166.027344 20.125 C 159.042969 22.554688 152.179688 25.355469 145.542969 28.621094 Z M 234.757812 29.992188 C 236.078125 31.101562 237.390625 32.234375 238.632812 33.441406 C 252.628906 31.339844 266.820312 29.894531 280.984375 30.765625 C 282.347656 29.582031 283.699219 28.378906 284.902344 27.027344 C 268.273438 23.753906 250.960938 25.28125 234.757812 29.992188 Z M 139.65625 31.5 C 136.21875 33.351562 132.761719 35.191406 129.515625 37.355469 C 130.945312 39.351562 132.304688 41.421875 134.019531 43.199219 C 135.109375 44.359375 136.335938 45.636719 136.414062 47.332031 C 136.625 51.449219 132.011719 55.097656 128.058594 53.746094 C 126.226562 52.746094 125.171875 50.828125 123.816406 49.308594 C 122.28125 50.347656 120.753906 51.558594 119.832031 53.203125 C 121.246094 54.902344 123.585938 56.199219 123.644531 58.675781 C 123.753906 62.511719 119.625 66.175781 115.804688 65.121094 C 113.566406 64.464844 112.796875 61.882812 110.957031 60.773438 C 109.308594 61.28125 108.15625 62.847656 107.15625 64.1875 C 108.234375 65.984375 110.570312 66.972656 110.996094 69.214844 C 111.722656 73.214844 107.449219 77.363281 103.460938 76.40625 C 101.367188 75.820312 100.46875 73.683594 99.03125 72.28125 C 98.433594 71.800781 97.839844 72.410156 97.367188 72.75 C 96.320312 73.652344 95.300781 74.644531 94.613281 75.855469 C 96.007812 77.402344 98.027344 78.597656 98.546875 80.75 C 99.207031 83.003906 97.800781 85.21875 96.136719 86.625 C 94.609375 88.054688 92.214844 88.71875 90.285156 87.710938 C 88.617188 86.917969 87.84375 85.125 86.5 83.960938 C 85.867188 83.769531 85.371094 84.273438 84.925781 84.636719 C 83.976562 85.5 83.019531 86.429688 82.449219 87.601562 C 83.734375 89.246094 85.652344 90.414062 86.503906 92.378906 C 87.828125 96.570312 83.167969 101.367188 78.9375 99.917969 C 77.054688 99.246094 76.160156 97.304688 74.707031 96.078125 C 74.242188 95.476562 73.582031 96.042969 73.164062 96.363281 C 72.136719 97.207031 71.140625 98.15625 70.554688 99.367188 C 71.480469 100.96875 73.304688 101.796875 74.21875 103.414062 C 75.191406 105.039062 74.65625 107.128906 73.675781 108.617188 C 72.335938 110.480469 70.242188 112.207031 67.792969 111.902344 C 65.359375 111.726562 64.171875 109.292969 62.605469 107.769531 C 61.035156 108.730469 59.726562 110.046875 58.65625 111.539062 C 60.308594 113.417969 62.949219 115.03125 62.894531 117.84375 C 62.5625 121.375 59 124.839844 55.308594 123.976562 C 53.308594 123.367188 52.261719 121.410156 51.085938 119.847656 C 50.746094 119.183594 49.949219 119.183594 49.324219 118.996094 C 48.167969 118.765625 47.078125 118.324219 46.007812 117.84375 C 42.664062 122.082031 39.625 126.5625 36.921875 131.234375 C 49.992188 141.167969 61.394531 153.121094 71.8125 165.761719 C 73.71875 168.082031 75.417969 170.5625 77.292969 172.902344 C 77.175781 169.179688 77.511719 165.457031 77.339844 161.738281 C 77.808594 161.417969 77.65625 160.707031 77.816406 160.230469 C 79.054688 150.386719 82.105469 140.71875 87.089844 132.128906 C 92.75 122.621094 100.359375 114.25 109.4375 107.902344 C 120.941406 99.609375 134.960938 95.207031 149.050781 94.324219 C 154.019531 94.125 159.023438 94.1875 163.9375 95.035156 C 165.660156 89.601562 167.59375 84.222656 169.988281 79.050781 C 171.480469 75.675781 173.332031 72.46875 174.902344 69.140625 C 174.566406 67.746094 173.496094 66.675781 172.722656 65.507812 C 172.246094 64.6875 171.761719 63.878906 171.230469 63.09375 C 165.269531 54.5 158.769531 46.269531 151.542969 38.703125 C 148.730469 35.761719 145.941406 32.777344 142.828125 30.148438 C 141.691406 30.386719 140.683594 30.992188 139.65625 31.5 Z M 117.882812 31.171875 C 116.605469 31.511719 115.386719 32.289062 114.746094 33.46875 C 114.148438 34.527344 114.257812 36.003906 115.21875 36.820312 C 116.378906 38.074219 118.320312 39.074219 118.246094 41.03125 C 117.957031 42.75 116.339844 43.710938 115.117188 44.746094 C 113.875 45.742188 112.351562 46.945312 110.652344 46.425781 C 108.890625 46.050781 107.847656 44.464844 106.753906 43.1875 C 106.273438 42.625 105.550781 42.003906 104.757812 42.296875 C 102.984375 42.847656 101.125 44.414062 101.394531 46.460938 C 101.394531 47.917969 102.855469 48.644531 103.777344 49.527344 C 104.792969 50.316406 105.765625 51.769531 104.988281 53.042969 C 104.0625 54.488281 102.574219 55.429688 101.300781 56.546875 C 100.019531 57.65625 98.054688 58.070312 96.554688 57.167969 C 95.21875 56.285156 94.386719 54.847656 93.125 53.890625 C 90.789062 53.277344 88.039062 55.792969 88.6875 58.195312 C 89.59375 60.066406 91.851562 60.910156 92.621094 62.886719 C 92.828125 64.398438 91.597656 65.476562 90.601562 66.398438 C 89.378906 67.460938 88.246094 68.789062 86.628906 69.242188 C 84.890625 69.621094 83.449219 68.3125 82.425781 67.082031 C 81.75 66.382812 81.101562 65.277344 79.964844 65.480469 C 77.625 65.636719 75.390625 68.792969 76.964844 70.859375 C 78.054688 72.175781 79.585938 73.140625 80.367188 74.699219 C 80.789062 76.511719 79.082031 77.816406 77.910156 78.90625 C 76.585938 79.984375 75.140625 81.613281 73.234375 81.054688 C 71.171875 80.535156 70.308594 78.3125 68.582031 77.328125 C 66.265625 77.210938 64 79.398438 64.183594 81.738281 C 64.925781 83.746094 67.171875 84.625 68.195312 86.453125 C 68.546875 87.269531 68.417969 88.277344 67.816406 88.949219 C 66.675781 90.308594 65.367188 91.546875 63.921875 92.582031 C 62.261719 93.726562 59.976562 93.070312 58.71875 91.640625 C 58 90.945312 57.527344 89.980469 56.636719 89.492188 C 54.53125 89.1875 52.707031 91.164062 52.296875 93.082031 C 52.535156 95.867188 56.011719 96.78125 56.636719 99.375 C 56.8125 101.253906 55.007812 102.34375 53.878906 103.539062 C 52.691406 104.578125 51.476562 106.144531 49.710938 105.875 C 47.707031 105.648438 46.816406 103.554688 45.300781 102.511719 C 44.03125 102.105469 42.867188 103.042969 42.082031 103.933594 C 41.253906 104.84375 40.542969 106.246094 41.273438 107.417969 C 42.394531 109.3125 44.421875 110.414062 45.742188 112.160156 C 46.691406 113.191406 46.800781 114.675781 47.523438 115.832031 C 48.835938 116.707031 50.554688 116.167969 51.910156 116.917969 C 53.375 117.847656 54.21875 119.394531 55.171875 120.78125 C 55.699219 121.632812 56.867188 121.65625 57.660156 121.183594 C 58.988281 120.429688 60.296875 119.101562 60.144531 117.453125 C 60.109375 116.25 58.945312 115.578125 58.175781 114.824219 C 57.035156 113.867188 55.859375 112.5 56.214844 110.898438 C 56.640625 109.421875 57.84375 108.355469 58.890625 107.300781 C 60.027344 106.277344 61.355469 104.933594 63.042969 105.375 C 65.21875 105.777344 65.886719 108.347656 67.769531 109.226562 C 70.0625 109.335938 72.550781 106.964844 71.796875 104.589844 C 70.964844 103.210938 69.398438 102.484375 68.496094 101.152344 C 67.691406 100.121094 67.566406 98.550781 68.4375 97.519531 C 69.53125 96.121094 70.820312 94.859375 72.238281 93.789062 C 73.371094 92.882812 75.144531 92.847656 76.261719 93.804688 C 77.644531 94.8125 78.359375 96.476562 79.71875 97.496094 C 82.074219 98.027344 84.785156 95.332031 83.832031 92.960938 C 82.699219 91.097656 80.195312 90.203125 79.707031 87.929688 C 79.269531 86.027344 81.058594 84.785156 82.214844 83.601562 C 83.488281 82.410156 85.046875 80.753906 86.992188 81.386719 C 89.3125 81.957031 89.949219 84.824219 92.121094 85.617188 C 94.261719 85.410156 96.558594 83.261719 95.917969 80.988281 C 94.875 79.140625 92.464844 78.328125 91.878906 76.179688 C 91.414062 74.527344 92.953125 73.324219 93.949219 72.261719 C 95.382812 70.941406 97.007812 69.101562 99.179688 69.570312 C 101.597656 70.054688 102.164062 72.996094 104.292969 73.933594 C 106.582031 74.089844 108.933594 71.6875 108.261719 69.363281 C 107.488281 67.828125 105.75 67.125 104.796875 65.726562 C 104.046875 64.742188 104.128906 63.226562 105 62.339844 C 106.242188 60.933594 107.542969 59.511719 109.164062 58.527344 C 110.808594 57.574219 113.054688 58.230469 114.027344 59.835938 C 114.929688 60.921875 115.550781 62.8125 117.289062 62.617188 C 119.28125 62.453125 121.265625 60.429688 120.933594 58.363281 C 119.898438 56.265625 116.722656 55.199219 117.039062 52.496094 C 117.628906 50.660156 119.378906 49.535156 120.707031 48.242188 C 121.8125 47.117188 123.507812 46.542969 125.003906 47.195312 C 126.628906 48.089844 127.332031 49.957031 128.75 51.070312 C 130.988281 52.078125 133.480469 49.972656 133.75 47.738281 C 133.902344 46.90625 133.210938 46.308594 132.722656 45.753906 C 130.566406 43.660156 128.886719 41.152344 127.160156 38.714844 C 126.371094 37.46875 124.851562 37.117188 123.722656 36.289062 C 122.035156 35.015625 121.085938 33.054688 119.574219 31.609375 C 119.140625 31.144531 118.488281 30.960938 117.882812 31.171875 Z M 238.257812 36.257812 C 232.984375 43.605469 227.320312 50.664062 221.808594 57.835938 C 224.433594 60.933594 227.230469 63.882812 229.925781 66.921875 C 233.890625 71.257812 237.65625 75.773438 241.640625 80.089844 C 245.058594 80.070312 248.488281 79.535156 251.914062 79.347656 C 263.285156 78.410156 274.660156 77.554688 286.035156 76.597656 C 290.828125 68.660156 296.167969 61.058594 301 53.140625 C 299.660156 51.621094 298.246094 50.171875 296.824219 48.730469 C 291.699219 43.601562 286.753906 38.285156 281.425781 33.359375 C 278.203125 33.464844 274.984375 33.316406 271.769531 33.363281 C 260.535156 33.328125 249.351562 34.628906 238.257812 36.257812 Z M 303.3125 54.8125 C 298.359375 62.417969 293.414062 70.027344 288.445312 77.625 C 293.929688 91.308594 299.679688 104.882812 304.917969 118.660156 C 305.054688 119.535156 306.011719 119.601562 306.699219 119.816406 C 313.109375 121.515625 319.503906 123.292969 325.902344 125.03125 C 329.945312 126.113281 333.941406 127.371094 337.976562 128.476562 C 343.335938 119.445312 349.5625 110.964844 354.96875 101.96875 C 355.222656 101.601562 355.269531 101.214844 355.101562 100.808594 C 350.503906 87.394531 344.042969 74.597656 335.726562 63.105469 C 324.933594 60.300781 314.171875 57.347656 303.3125 54.8125 Z M 339.363281 56.949219 C 338.929688 58.339844 337.707031 59.675781 337.753906 61.101562 C 345.867188 72.292969 352.273438 84.707031 356.976562 97.703125 C 357.53125 99.183594 357.878906 100.808594 358.949219 102.035156 C 360.511719 103.96875 361.917969 106.039062 363.644531 107.835938 C 362.96875 102.734375 361.710938 97.734375 360.167969 92.832031 C 355.703125 79.667969 348.949219 67.105469 339.363281 56.949219 Z M 194.855469 68.296875 C 193.097656 69.003906 191.273438 69.597656 189.648438 70.589844 C 184.582031 79.242188 180.527344 88.484375 177.355469 97.996094 C 180 98.957031 182.628906 99.972656 185.179688 101.160156 C 198.695312 107.359375 210.203125 117.652344 218.117188 130.214844 C 221.984375 128.460938 225.757812 126.503906 229.550781 124.59375 C 230.5625 120.566406 231.34375 116.484375 232.339844 112.453125 C 234.53125 102.210938 237.082031 92.054688 239.332031 81.828125 C 232.859375 74.359375 226.273438 66.992188 219.625 59.675781 C 211.363281 62.527344 203.070312 65.300781 194.855469 68.296875 Z M 185.003906 65.207031 C 177.839844 74.277344 173.03125 85.015625 169.714844 96.027344 C 171.367188 96.398438 173 96.847656 174.644531 97.226562 C 178.019531 87.472656 181.859375 77.769531 187.527344 69.097656 C 186.691406 67.792969 185.859375 66.492188 185.003906 65.207031 Z M 144.726562 100.8125 C 138.453125 102.855469 132.675781 106.296875 127.808594 110.742188 C 122.617188 115.367188 117.847656 120.898438 115.851562 127.691406 C 113.800781 134.5625 113.542969 141.789062 113.40625 148.90625 C 113.058594 161.152344 111 173.574219 105.390625 184.578125 C 103.757812 187.589844 101.910156 190.476562 99.929688 193.269531 C 118.914062 194.445312 137.191406 202.222656 151.832031 214.246094 C 156.644531 218.074219 160.8125 222.625 164.84375 227.25 C 165.527344 228.304688 166.792969 227.675781 167.789062 227.558594 C 169.285156 227.503906 169.914062 225.964844 170.382812 224.777344 C 170.179688 223.933594 169.613281 223.238281 169.191406 222.5 C 164.84375 215.433594 163.183594 206.964844 163.523438 198.75 C 164.007812 188.527344 167.699219 178.625 173.460938 170.222656 C 177.535156 164.085938 182.554688 158.644531 187.929688 153.632812 C 193.488281 148.289062 199.769531 143.628906 204.519531 137.496094 C 206.078125 135.375 207.753906 133.121094 208.035156 130.421875 C 208.132812 129.214844 208.328125 128.007812 208.261719 126.796875 C 207.65625 125.753906 206.804688 124.878906 206.019531 123.972656 C 201.226562 118.507812 195.613281 113.730469 189.355469 110.019531 C 176.097656 101.984375 160.054688 98.917969 144.726562 100.8125 Z M 121.675781 107.566406 C 118.390625 109.289062 115.769531 112.039062 113.617188 115.015625 C 110.742188 118.769531 108.625 123.101562 107.472656 127.6875 C 104.9375 136.785156 106.019531 146.324219 105.070312 155.621094 C 104.28125 163.964844 102.78125 172.40625 99.035156 179.976562 C 96.675781 184.976562 93.507812 189.714844 89.1875 193.222656 C 91.441406 193.066406 93.71875 193.355469 95.960938 193.019531 C 98.65625 190.183594 100.746094 186.816406 102.589844 183.378906 C 105.175781 178.40625 107.046875 173.074219 108.253906 167.605469 C 110.445312 158.460938 110.457031 149.011719 110.832031 139.675781 C 111.136719 135.144531 111.890625 130.636719 113.117188 126.265625 C 114.394531 121.660156 117.230469 117.703125 120.273438 114.097656 C 123.804688 110.15625 127.8125 106.664062 132.023438 103.464844 C 128.441406 104.449219 124.957031 105.820312 121.675781 107.566406 Z M 104.890625 119.285156 C 96.625 127.050781 90.261719 136.875 86.664062 147.628906 C 86.148438 149.335938 85.507812 151.035156 85.398438 152.824219 C 83.933594 156.941406 83.632812 161.359375 83.265625 165.679688 C 82.875 174.238281 84.109375 182.929688 87.210938 190.925781 C 91.402344 187.476562 94.472656 182.863281 96.796875 178 C 101.59375 167.320312 102.5625 155.433594 102.714844 143.867188 C 102.605469 136.121094 103.496094 128.191406 106.621094 121.035156 C 107.472656 118.992188 108.71875 117.15625 109.730469 115.191406 C 107.949219 116.347656 106.414062 117.820312 104.890625 119.285156 Z M 9.582031 131.382812 C 8.796875 134.71875 8.105469 138.097656 7.789062 141.511719 C 12.785156 144.242188 17.460938 147.53125 21.882812 151.113281 C 22.289062 151.4375 22.722656 151.730469 23.199219 151.949219 C 26.144531 145.023438 29.585938 138.308594 33.382812 131.816406 C 26.878906 127.082031 20.40625 122.261719 13.394531 118.28125 C 11.714844 122.523438 10.765625 126.992188 9.582031 131.382812 Z M 303.828125 122.078125 C 299.222656 125.886719 295.003906 130.125 290.511719 134.070312 C 284.363281 139.519531 278.140625 144.894531 272.257812 150.632812 C 272.683594 156.40625 273.511719 162.148438 274.027344 167.914062 C 276.097656 168.550781 278.296875 168.449219 280.410156 168.882812 C 290.292969 170.453125 299.953125 173.351562 309.070312 177.488281 C 314.308594 179.679688 319.152344 182.660156 324.070312 185.480469 C 330 178.359375 335.628906 170.980469 341.285156 163.636719 C 339.8125 152.753906 338.59375 141.832031 336.8125 130.996094 C 332.675781 129.894531 328.542969 128.773438 324.441406 127.546875 C 317.574219 125.710938 310.71875 123.816406 303.828125 122.078125 Z M 219.679688 132.738281 C 226.453125 145.101562 230.019531 159.367188 229.042969 173.484375 C 242.535156 168.710938 256.972656 167.03125 271.226562 167.6875 C 270.625 162.078125 270.046875 156.472656 269.4375 150.867188 C 264.90625 147.765625 260.164062 144.996094 255.53125 142.039062 C 247.257812 137.050781 239.105469 131.847656 230.628906 127.191406 C 226.972656 129.03125 223.273438 130.773438 219.679688 132.738281 Z M 211.027344 130.320312 C 210.121094 136.242188 205.933594 140.820312 201.882812 144.914062 C 197.09375 149.507812 191.894531 153.65625 187.257812 158.414062 C 181.265625 164.324219 175.800781 170.914062 172.066406 178.5 C 169.128906 184.285156 167.074219 190.601562 166.589844 197.082031 C 165.734375 205.511719 167.609375 214.234375 171.902344 221.550781 C 173 219.875 174.058594 218.175781 175.0625 216.441406 C 171.90625 210.585938 170.933594 203.789062 171.488281 197.210938 C 172.445312 185.929688 178.28125 175.660156 185.625 167.277344 C 190.164062 161.890625 195.429688 157.191406 200.734375 152.582031 C 206.105469 147.75 211.335938 142.523438 214.597656 135.984375 C 213.609375 133.980469 212.394531 132.085938 211.027344 130.320312 Z M 35.613281 133.671875 C 31.765625 140.175781 28.28125 146.914062 25.367188 153.890625 C 34.199219 161.355469 42.113281 169.851562 49.3125 178.878906 C 52.113281 182.707031 54.894531 186.558594 57.265625 190.671875 C 64.628906 188.75 71.832031 186.238281 78.828125 183.253906 C 78.515625 181.855469 78.261719 180.4375 77.890625 179.046875 C 77.515625 177.640625 76.390625 176.632812 75.589844 175.472656 C 73.539062 172.65625 71.398438 169.90625 69.269531 167.148438 C 59.1875 154.929688 48.042969 143.519531 35.613281 133.671875 Z M 198.753906 158.167969 C 193.464844 162.800781 188.570312 167.894531 184.304688 173.492188 C 179.410156 180.230469 175.488281 187.949219 174.542969 196.316406 C 173.863281 202.074219 174.488281 208.09375 176.96875 213.382812 C 180.222656 209.175781 183.375 204.875 187.066406 201.027344 C 197.023438 190.183594 209.445312 181.679688 223.023438 176.035156 C 223.816406 168.34375 223.324219 160.515625 221.46875 153.007812 C 220.800781 150.523438 220.136719 148 218.894531 145.726562 C 218.609375 143.359375 217.277344 141.273438 216.253906 139.160156 C 211.78125 146.613281 205.34375 152.613281 198.753906 158.167969 Z M 7.320312 144.324219 C 6.035156 155.339844 6.261719 166.589844 8.636719 177.449219 C 9.75 182.277344 11.15625 187.144531 13.84375 191.363281 C 13.527344 178.730469 17 166.328125 21.929688 154.800781 C 17.261719 151.039062 12.476562 147.398438 7.320312 144.324219 Z M 19.207031 171.304688 C 17.464844 178.226562 16.140625 185.429688 16.925781 192.589844 C 16.894531 192.886719 16.839844 193.488281 16.8125 193.789062 C 29.222656 197.140625 42.199219 194.4375 54.375 191.359375 C 51.878906 187.507812 49.371094 183.648438 46.535156 180.035156 C 40.042969 171.410156 32.304688 163.84375 24.316406 156.617188 C 22.238281 161.367188 20.589844 166.304688 19.207031 171.304688 Z M 345.410156 164.613281 C 344.441406 164.953125 343.28125 165.15625 342.742188 166.132812 C 337.445312 173.257812 331.988281 180.261719 326.265625 187.054688 C 328.765625 188.558594 331.03125 190.410156 333.402344 192.109375 C 342.75 183.328125 350.527344 172.785156 355.808594 161.082031 C 352.300781 162.128906 348.914062 163.550781 345.410156 164.613281 Z M 210.824219 189.066406 C 215.378906 190.394531 219.953125 191.789062 224.167969 194.015625 C 236.101562 200.164062 246.476562 210.441406 250.449219 223.503906 C 252.972656 231.136719 253.113281 239.40625 251.417969 247.230469 C 260.796875 249.128906 270.085938 251.425781 279.265625 254.136719 C 280.722656 248.171875 281.734375 242.109375 282.425781 236.011719 C 284.035156 221.203125 283.492188 205.925781 279.007812 191.632812 C 277.140625 185.699219 274.589844 179.945312 271.050781 174.808594 C 270.613281 174.210938 270.097656 173.503906 269.261719 173.609375 C 248.824219 172.539062 228.011719 177.910156 210.824219 189.066406 Z M 278.082031 174.464844 C 279.605469 177.457031 281.171875 180.429688 282.441406 183.550781 C 284.773438 189.089844 286.261719 194.9375 287.414062 200.828125 C 290.613281 219.082031 289.296875 237.921875 284.886719 255.863281 C 292.441406 258.222656 299.832031 261.070312 307.207031 263.933594 C 309.363281 256.757812 311.433594 249.5625 313.683594 242.417969 C 318.355469 228.050781 323.71875 213.917969 329.015625 199.765625 C 329.359375 198.882812 329.710938 198.003906 330.082031 197.128906 C 328.023438 195.375 325.886719 193.671875 323.441406 192.496094 C 322.953125 191.992188 322.371094 191.601562 321.804688 191.207031 C 308.71875 182.460938 293.660156 176.710938 278.082031 174.464844 Z M 54.082031 194.410156 C 45.769531 196.398438 37.304688 198.144531 28.722656 198.113281 C 26.402344 198.128906 24.09375 197.871094 21.78125 197.988281 C 23.425781 198.960938 25.25 199.554688 27.082031 200.0625 C 34.199219 202.003906 41.566406 202.921875 48.921875 203.351562 C 50.828125 203.117188 52.445312 201.929688 54.210938 201.246094 C 63.035156 197.421875 72.417969 195.152344 81.863281 193.492188 C 81.03125 191.121094 80.230469 188.746094 79.460938 186.355469 C 71.121094 189.398438 62.734375 192.375 54.082031 194.410156 Z M 202.839844 194.566406 C 193.941406 201.304688 186.546875 209.878906 180.46875 219.207031 C 176.90625 224.570312 174.269531 230.457031 171.492188 236.238281 C 172.460938 237.925781 173.464844 239.589844 174.441406 241.273438 C 196.644531 240.265625 218.96875 241.457031 240.882812 245.234375 C 242.441406 245.535156 244.011719 245.757812 245.601562 245.90625 C 246.660156 240.25 246.84375 234.378906 245.664062 228.726562 C 244.410156 222.816406 241.707031 217.234375 237.910156 212.542969 C 229.894531 202.34375 217.667969 195.949219 204.972656 193.867188 C 204.164062 193.648438 203.445312 194.085938 202.839844 194.566406 Z M 89.816406 201.566406 C 84.140625 205.125 78.75 209.171875 73.894531 213.785156 C 62.894531 224.710938 53.699219 237.652344 48.097656 252.164062 C 47.679688 253.355469 47.011719 254.492188 46.855469 255.761719 C 55.824219 264.660156 66.484375 271.878906 78.054688 276.96875 C 80.769531 269.882812 83.625 262.816406 87.355469 256.191406 C 90.230469 250.96875 93.566406 246.003906 97.21875 241.289062 C 107.199219 228.3125 119.703125 217.207031 134.125 209.386719 C 128.90625 206.390625 123.28125 204.160156 117.519531 202.4375 C 110.347656 200.398438 102.925781 199.070312 95.449219 199.113281 C 93.292969 199.042969 91.585938 200.5625 89.816406 201.566406 Z M 64.878906 203.554688 C 55.90625 206.578125 47.25 210.765625 39.722656 216.554688 C 38.640625 217.515625 37.179688 218.289062 36.753906 219.773438 C 34.925781 225.214844 34.066406 230.9375 33.695312 236.648438 C 34.972656 242.148438 38.503906 246.832031 42.289062 250.902344 C 45.128906 243.996094 48.398438 237.25 52.496094 230.996094 C 60.28125 218.851562 70.109375 207.902344 82.035156 199.710938 C 76.207031 200.398438 70.417969 201.566406 64.878906 203.554688 Z M 334.785156 201.617188 C 334.496094 202.464844 334.210938 203.320312 333.914062 204.167969 C 325.667969 224.496094 318.828125 245.359375 312.585938 266.378906 C 318.574219 269.074219 324.453125 272.023438 330.246094 275.121094 C 333.699219 265.734375 338.453125 256.15625 346.933594 250.34375 C 349.277344 249.023438 351.648438 247.722656 354.1875 246.8125 C 356.515625 245.949219 358.960938 245.519531 361.382812 245.023438 C 360.621094 241.609375 359.414062 238.324219 358.101562 235.09375 C 354.265625 225.382812 348.695312 216.386719 341.816406 208.535156 C 339.609375 206.101562 337.53125 203.480469 334.785156 201.617188 Z M 138.824219 213.636719 C 133.484375 216.160156 128.566406 219.492188 123.832031 222.996094 C 112.082031 231.914062 102.128906 243.125 94.394531 255.671875 C 89.929688 263.183594 86.316406 271.183594 83.386719 279.414062 C 97.039062 285.261719 111.808594 288.21875 126.589844 289.242188 C 127.132812 286.71875 128.027344 284.296875 129.078125 281.949219 C 135.144531 268.046875 145.507812 256.324219 157.671875 247.410156 C 160.804688 245.15625 164.054688 243.070312 167.378906 241.105469 C 164.890625 236.746094 161.714844 232.820312 158.414062 229.054688 C 157.367188 227.835938 156.367188 226.5625 155.085938 225.582031 C 154.582031 224.621094 153.734375 223.917969 152.984375 223.160156 C 149.285156 219.527344 145.25 216.222656 140.871094 213.453125 C 140.234375 212.886719 139.460938 213.363281 138.824219 213.636719 Z M 17.25 243.203125 C 20.441406 240.464844 23.894531 237.996094 27.640625 236.070312 C 27.816406 233.15625 28.453125 230.300781 28.679688 227.394531 C 24.042969 231.996094 20.40625 237.515625 17.25 243.203125 Z M 14.875 253.410156 C 13.375 254.984375 11.507812 256.417969 10.863281 258.597656 C 10.253906 260.464844 9.554688 262.34375 9.335938 264.304688 C 10.425781 269.511719 13.261719 274.136719 16.160156 278.523438 C 23.851562 289.890625 34.664062 298.808594 46.371094 305.804688 C 62.53125 315.574219 80.898438 321.253906 99.507812 323.960938 C 104.402344 324.546875 109.351562 325.15625 114.269531 325.140625 C 120.050781 325.34375 125.878906 325.226562 131.609375 324.363281 C 132.652344 316.761719 131.796875 308.996094 129.65625 301.65625 C 128.878906 299.460938 127.890625 297.347656 127.046875 295.179688 C 120.460938 294.675781 113.859375 294.050781 107.382812 292.71875 C 99.167969 291.207031 91.144531 288.738281 83.378906 285.683594 C 74.667969 282.246094 66.222656 278.054688 58.496094 272.746094 C 46.578125 264.707031 35.605469 254.582031 28.847656 241.734375 C 23.566406 244.800781 19.207031 249.167969 14.875 253.410156 Z M 156.574219 255.640625 C 155.753906 256.277344 154.914062 256.898438 154.179688 257.632812 C 154.621094 258.605469 155.414062 259.359375 156.042969 260.210938 C 167.714844 277.605469 172.199219 299.488281 168.949219 320.125 C 168.515625 323.121094 167.734375 326.058594 167.257812 329.050781 C 173.226562 320.253906 176.839844 310.023438 178.707031 299.601562 C 180.4375 289.167969 180.527344 278.378906 178.230469 268.023438 C 176.550781 260.464844 173.929688 253.085938 170.214844 246.289062 C 165.355469 248.917969 160.914062 252.238281 156.574219 255.640625 Z M 177.320312 247.152344 C 180.769531 254.507812 183.226562 262.308594 184.78125 270.277344 C 185.136719 272.007812 185.21875 273.796875 185.757812 275.488281 C 185.746094 278.757812 186.128906 282.019531 185.992188 285.289062 C 186.019531 289.773438 185.519531 294.234375 184.988281 298.679688 C 188.269531 297.625 191.484375 296.382812 194.726562 295.222656 C 209.640625 289.117188 224.335938 280.996094 234.699219 268.363281 C 238.585938 263.363281 241.984375 257.835938 243.808594 251.738281 C 221.929688 247.566406 199.558594 246.234375 177.320312 247.152344 Z M 347.496094 257.378906 C 347.253906 257.65625 346.828125 257.875 346.820312 258.289062 C 345.265625 259.550781 343.988281 261.113281 342.84375 262.75 C 339.585938 267.433594 337.296875 272.714844 335.558594 278.132812 C 337.851562 279.570312 340.160156 280.988281 342.4375 282.453125 C 343.675781 283.378906 344.933594 284.285156 346.222656 285.140625 C 351.601562 288.761719 356.527344 293.015625 361.214844 297.484375 C 365.542969 282.441406 366.226562 266.269531 362.808594 250.976562 C 357.203125 251.5 351.746094 253.667969 347.496094 257.378906 Z M 243 267.011719 C 236.273438 277.351562 226.46875 285.335938 215.902344 291.511719 C 209.867188 295.128906 203.398438 297.917969 196.925781 300.632812 C 192.515625 302.285156 188.101562 303.929688 183.652344 305.472656 C 182.605469 309.59375 181.457031 313.699219 179.839844 317.636719 C 179.535156 318.695312 178.734375 319.882812 179.421875 320.953125 C 180.5 323 181.976562 324.808594 183.347656 326.667969 C 190.9375 336.84375 200.460938 345.601562 211.300781 352.21875 C 220.03125 347.082031 227.722656 340.347656 234.882812 333.226562 C 254.808594 312.675781 269.660156 287.203125 277.691406 259.726562 C 268.542969 256.949219 259.195312 254.855469 249.863281 252.800781 C 248.113281 257.773438 245.886719 262.589844 243 267.011719 Z M 277.851562 277.554688 C 269.292969 298.929688 256.601562 318.566406 241.050781 335.523438 C 237.554688 338.898438 234.179688 342.414062 230.453125 345.550781 C 226.304688 349.296875 221.6875 352.46875 217.167969 355.738281 C 222.296875 358.699219 227.898438 360.726562 233.523438 362.523438 C 249.464844 367.5625 266.636719 368.886719 283.101562 365.863281 C 283.660156 363.417969 284.070312 360.945312 284.53125 358.480469 C 285.867188 350.84375 287.703125 343.308594 289.109375 335.691406 C 291.574219 325.257812 293.644531 314.730469 296.257812 304.332031 C 298.988281 292.730469 302.25 281.257812 305.398438 269.765625 C 298.277344 266.546875 290.859375 264.058594 283.476562 261.527344 C 281.742188 266.914062 280.011719 272.316406 277.851562 277.554688 Z M 142.980469 269.832031 C 138.582031 275.71875 134.695312 282.121094 132.460938 289.160156 C 131.382812 291.917969 133.1875 294.578125 134.058594 297.113281 C 139.273438 309.671875 138.875 323.976562 134.796875 336.792969 C 130.957031 348.816406 123.570312 359.800781 113.539062 367.511719 C 122.753906 365.359375 131.546875 361.582031 139.667969 356.75 C 144.96875 353.382812 150.210938 349.75 154.496094 345.132812 C 159.410156 336.742188 162.046875 327.175781 163.363281 317.59375 C 165.683594 300.066406 162.265625 281.707031 153.125 266.507812 C 152.097656 264.960938 151.070312 263.410156 149.917969 261.957031 C 147.320312 264.316406 145.105469 267.050781 142.980469 269.832031 Z M 311.035156 272.195312 C 305.113281 292.066406 300.339844 312.25 295.925781 332.507812 C 293.597656 343.15625 291.515625 353.859375 289.300781 364.535156 C 301.492188 361.753906 313.101562 356.582031 323.402344 349.5 C 328.628906 345.929688 333.601562 341.945312 337.964844 337.347656 C 336.207031 334.484375 334.378906 331.644531 332.984375 328.578125 C 329.820312 321.957031 327.890625 314.792969 326.917969 307.539062 C 325.875 298.699219 326.28125 289.632812 328.671875 281.03125 C 326.882812 279.914062 325.027344 278.90625 323.148438 277.949219 C 319.148438 275.960938 315.230469 273.765625 311.035156 272.195312 Z M 7.4375 275.484375 C 6.304688 285.53125 7.316406 295.75 9.742188 305.542969 C 10.261719 307.324219 10.617188 309.191406 11.445312 310.867188 C 12.300781 314.589844 13.949219 318.066406 15.578125 321.503906 C 16.046875 322.40625 16.40625 323.40625 17.117188 324.15625 C 21.085938 327.914062 25.082031 331.664062 29.535156 334.851562 C 49.570312 349.585938 74.949219 356.394531 99.679688 354.953125 C 106.644531 354.449219 113.644531 353.664062 120.359375 351.679688 C 121.65625 351.40625 121.964844 349.929688 122.664062 348.996094 C 126.25 343.28125 128.949219 337.019531 130.621094 330.484375 C 122.792969 331.402344 114.855469 331.359375 107.007812 330.640625 C 99.375 330.105469 91.828125 328.71875 84.367188 327.054688 C 75.367188 325.015625 66.542969 322.175781 58.105469 318.4375 C 44.789062 312.460938 32.253906 304.53125 21.726562 294.375 C 16.113281 288.789062 11.300781 282.394531 7.4375 275.484375 Z M 333.925781 284.179688 C 333.203125 287.429688 332.738281 290.730469 332.515625 294.054688 C 331.898438 300.382812 332.542969 306.792969 333.886719 312.992188 C 335.320312 319.941406 338.117188 326.636719 342.1875 332.453125 C 347.847656 326.136719 352.554688 318.992188 356.144531 311.3125 C 357.195312 308.859375 358.480469 306.449219 358.992188 303.816406 C 358.457031 302.976562 357.726562 302.300781 357.035156 301.609375 C 351.785156 296.515625 346.054688 291.910156 339.9375 287.886719 C 337.972656 286.589844 336.042969 285.230469 333.925781 284.179688 Z M 28.574219 341.175781 C 33.722656 347.835938 40.46875 353.097656 47.621094 357.460938 C 53.992188 361.109375 60.695312 364.269531 67.785156 366.242188 C 77.191406 368.863281 86.980469 370.222656 96.753906 369.882812 C 97.882812 369.84375 99.070312 369.824219 100.058594 369.199219 C 105.316406 366.304688 110.636719 363.285156 114.933594 359.035156 C 85.328125 364.640625 53.382812 358.460938 28.574219 341.175781 Z M 28.574219 341.175781 " fill-opacity="1" fill-rule="nonzero"/><path fill="#d38537" d="M 173.675781 14.703125 C 179.40625 12.824219 185.335938 11.671875 191.273438 10.660156 C 179.503906 6.816406 166.949219 6.171875 154.671875 6.777344 C 158.945312 9.898438 162.894531 13.429688 166.863281 16.925781 C 169.132812 16.191406 171.414062 15.464844 173.675781 14.703125 Z M 173.675781 14.703125 " fill-opacity="1" fill-rule="nonzero"/><path fill="#d38537" d="M 42.988281 117.007812 C 43.4375 116.351562 44.015625 115.726562 44.179688 114.925781 C 42.710938 112.070312 39.449219 110.421875 38.457031 107.277344 C 37.730469 103.492188 41.339844 99.707031 45.082031 99.722656 C 47.242188 99.78125 48.320312 101.882812 49.824219 103.085938 C 50.570312 103.183594 51.0625 102.5 51.585938 102.09375 C 52.425781 101.269531 53.394531 100.5 53.882812 99.402344 C 52.3125 97.605469 49.898438 96.097656 49.78125 93.464844 C 49.480469 90.8125 51.492188 88.613281 53.660156 87.417969 C 55.421875 86.519531 57.90625 86.503906 59.257812 88.132812 C 60.203125 88.917969 60.863281 90.371094 62.203125 90.480469 C 63.625 89.734375 64.601562 88.402344 65.65625 87.234375 C 64.304688 85.679688 62.417969 84.4375 61.746094 82.40625 C 60.652344 78.097656 65.382812 73.691406 69.617188 74.851562 C 71.402344 75.472656 72.261719 77.332031 73.679688 78.457031 C 75.414062 77.890625 76.566406 76.375 77.738281 75.070312 C 76.449219 73.875 74.941406 72.800781 74.140625 71.1875 C 73.367188 69.34375 73.777344 67.078125 75.101562 65.582031 C 76.480469 63.9375 78.488281 62.453125 80.757812 62.792969 C 83.019531 63.132812 84.171875 65.339844 85.859375 66.617188 C 87.464844 65.9375 88.683594 64.632812 89.847656 63.390625 C 88.460938 61.882812 86.621094 60.554688 86.078125 58.476562 C 85.210938 54.609375 89.128906 50.765625 92.921875 51.058594 C 95.347656 51.3125 96.441406 53.835938 98.414062 54.875 C 99.949219 54.253906 101.085938 52.980469 102.339844 51.941406 C 101.128906 50.585938 99.578125 49.417969 98.886719 47.683594 C 97.605469 43.453125 102.132812 39.054688 106.304688 39.851562 C 108.601562 40.347656 109.457031 42.878906 111.394531 43.917969 C 112.945312 43.140625 114.179688 41.878906 115.460938 40.734375 C 113.9375 39.121094 111.765625 37.609375 111.691406 35.179688 C 111.582031 32.375 113.742188 30.078125 116.117188 28.933594 C 117.757812 28.113281 119.878906 28.246094 121.238281 29.542969 C 123.355469 31.257812 124.496094 34.371094 127.296875 35.09375 C 131.632812 32.570312 136.023438 30.117188 140.546875 27.929688 C 134.921875 22.546875 128.785156 17.660156 122.242188 13.429688 C 121.640625 12.898438 120.867188 13.007812 120.175781 13.261719 C 115.058594 14.902344 109.9375 16.554688 104.992188 18.664062 C 94.871094 23.035156 85.164062 28.398438 76.167969 34.777344 C 57.769531 47.601562 42.242188 64.375 30.242188 83.269531 C 23.84375 93.425781 18.304688 104.1875 14.421875 115.558594 C 21.460938 119.707031 28.1875 124.390625 34.6875 129.335938 C 37.28125 125.113281 39.996094 120.960938 42.988281 117.007812 Z M 42.988281 117.007812 " fill-opacity="1" fill-rule="nonzero"/><path fill="#d38537" d="M 171.230469 63.09375 C 165.269531 54.5 158.769531 46.269531 151.542969 38.703125 C 148.730469 35.761719 145.941406 32.777344 142.828125 30.148438 C 141.691406 30.386719 140.683594 30.992188 139.65625 31.5 C 136.21875 33.351562 132.761719 35.191406 129.515625 37.355469 C 130.945312 39.351562 132.304688 41.421875 134.019531 43.199219 C 135.109375 44.359375 136.335938 45.636719 136.414062 47.332031 C 136.625 51.449219 132.011719 55.097656 128.058594 53.746094 C 126.226562 52.746094 125.171875 50.828125 123.816406 49.308594 C 122.28125 50.347656 120.753906 51.558594 119.832031 53.203125 C 121.246094 54.902344 123.585938 56.199219 123.644531 58.675781 C 123.753906 62.511719 119.625 66.175781 115.804688 65.121094 C 113.566406 64.464844 112.796875 61.882812 110.957031 60.773438 C 109.308594 61.28125 108.15625 62.847656 107.15625 64.1875 C 108.234375 65.984375 110.570312 66.972656 110.996094 69.214844 C 111.722656 73.214844 107.449219 77.363281 103.460938 76.40625 C 101.367188 75.820312 100.46875 73.683594 99.03125 72.28125 C 98.433594 71.800781 97.839844 72.410156 97.367188 72.75 C 96.320312 73.652344 95.300781 74.644531 94.613281 75.855469 C 96.007812 77.402344 98.027344 78.597656 98.546875 80.75 C 99.207031 83.003906 97.800781 85.21875 96.136719 86.625 C 94.609375 88.054688 92.214844 88.71875 90.285156 87.710938 C 88.617188 86.917969 87.84375 85.125 86.5 83.960938 C 85.867188 83.769531 85.371094 84.273438 84.925781 84.636719 C 83.976562 85.5 83.019531 86.429688 82.449219 87.601562 C 83.734375 89.246094 85.652344 90.414062 86.503906 92.378906 C 87.828125 96.570312 83.167969 101.367188 78.9375 99.917969 C 77.054688 99.246094 76.160156 97.304688 74.707031 96.078125 C 74.242188 95.476562 73.582031 96.042969 73.164062 96.363281 C 72.136719 97.207031 71.140625 98.15625 70.554688 99.363281 C 71.480469 100.96875 73.304688 101.796875 74.21875 103.414062 C 75.191406 105.039062 74.65625 107.128906 73.675781 108.617188 C 72.335938 110.480469 70.242188 112.207031 67.792969 111.902344 C 65.359375 111.726562 64.171875 109.292969 62.605469 107.769531 C 61.035156 108.730469 59.726562 110.046875 58.65625 111.539062 C 60.308594 113.417969 62.949219 115.03125 62.894531 117.84375 C 62.5625 121.375 59 124.839844 55.308594 123.976562 C 53.308594 123.367188 52.261719 121.410156 51.085938 119.847656 C 50.746094 119.183594 49.949219 119.183594 49.324219 118.996094 C 48.167969 118.765625 47.078125 118.324219 46.007812 117.84375 C 42.664062 122.082031 39.625 126.5625 36.921875 131.234375 C 49.992188 141.167969 61.394531 153.121094 71.8125 165.761719 C 73.71875 168.082031 75.417969 170.5625 77.292969 172.902344 C 77.175781 169.179688 77.511719 165.457031 77.339844 161.738281 C 77.808594 161.417969 77.65625 160.707031 77.816406 160.230469 C 79.054688 150.386719 82.105469 140.71875 87.089844 132.128906 C 92.75 122.621094 100.359375 114.25 109.4375 107.902344 C 120.941406 99.609375 134.960938 95.207031 149.050781 94.324219 C 154.019531 94.125 159.023438 94.1875 163.9375 95.035156 C 165.660156 89.601562 167.59375 84.222656 169.988281 79.050781 C 171.480469 75.675781 173.332031 72.46875 174.902344 69.140625 C 174.566406 67.746094 173.496094 66.675781 172.722656 65.507812 C 172.246094 64.6875 171.761719 63.878906 171.230469 63.09375 Z M 171.230469 63.09375 " fill-opacity="1" fill-rule="nonzero"/><path fill="#d38537" d="M 21.929688 154.800781 C 17.261719 151.039062 12.476562 147.398438 7.320312 144.324219 C 6.035156 155.339844 6.261719 166.589844 8.636719 177.449219 C 9.75 182.277344 11.15625 187.144531 13.84375 191.363281 C 13.527344 178.730469 17 166.328125 21.929688 154.800781 Z M 21.929688 154.800781 " fill-opacity="1" fill-rule="nonzero"/><path fill="#d38537" d="M 199.75 14.578125 C 198.070312 13.992188 196.371094 13.183594 194.542969 13.339844 C 185.878906 13.90625 177.5 16.429688 169.289062 19.101562 C 175.789062 25.582031 181.917969 32.4375 187.539062 39.695312 C 189.613281 42.28125 191.609375 44.929688 193.601562 47.578125 C 195.996094 45.503906 198.480469 43.542969 201.03125 41.671875 C 201.515625 41.226562 202.242188 40.855469 202.335938 40.140625 C 203.347656 32.289062 202.734375 24.296875 200.941406 16.605469 C 200.722656 15.839844 200.210938 15.210938 199.75 14.578125 Z M 199.75 14.578125 " fill-opacity="1" fill-rule="nonzero"/><path fill="#d38537" d="M 210.613281 34.75 C 209.4375 29.445312 207.804688 24.128906 204.683594 19.617188 C 204.941406 22.011719 205.417969 24.378906 205.550781 26.789062 C 205.757812 30.621094 205.636719 34.460938 205.507812 38.292969 C 207.230469 37.148438 208.929688 35.953125 210.613281 34.75 Z M 210.613281 34.75 " fill-opacity="1" fill-rule="nonzero"/><path fill="#d38537" d="M 54.375 191.359375 C 51.878906 187.507812 49.371094 183.648438 46.535156 180.035156 C 40.042969 171.410156 32.304688 163.84375 24.316406 156.617188 C 22.238281 161.367188 20.589844 166.304688 19.207031 171.304688 C 17.464844 178.226562 16.140625 185.429688 16.925781 192.589844 C 16.894531 192.886719 16.839844 193.488281 16.8125 193.789062 C 29.222656 197.140625 42.199219 194.4375 54.375 191.359375 Z M 54.375 191.359375 " fill-opacity="1" fill-rule="nonzero"/><path fill="#d38537" d="M 54.082031 194.410156 C 45.769531 196.398438 37.304688 198.144531 28.722656 198.113281 C 26.402344 198.128906 24.09375 197.871094 21.78125 197.988281 C 23.425781 198.960938 25.25 199.554688 27.082031 200.0625 C 34.199219 202.003906 41.566406 202.921875 48.921875 203.351562 C 50.828125 203.117188 52.445312 201.929688 54.210938 201.246094 C 63.035156 197.421875 72.417969 195.152344 81.863281 193.492188 C 81.03125 191.121094 80.230469 188.746094 79.460938 186.355469 C 71.121094 189.398438 62.734375 192.375 54.082031 194.410156 Z M 54.082031 194.410156 " fill-opacity="1" fill-rule="nonzero"/><path fill="#fefeff" d="M 163.734375 18.027344 C 159.75 14.28125 155.417969 10.933594 150.988281 7.730469 C 150.28125 7.042969 149.246094 7.328125 148.375 7.359375 C 140.511719 8.207031 132.71875 9.691406 125.105469 11.839844 C 131.566406 16.25 137.601562 21.261719 143.339844 26.574219 C 150 23.417969 156.761719 20.421875 163.734375 18.027344 Z M 163.734375 18.027344 " fill-opacity="1" fill-rule="nonzero"/><path fill="#fefeff" d="M 174.355469 62.660156 C 175.226562 63.925781 176.089844 65.191406 176.90625 66.488281 C 179.257812 63.320312 181.621094 60.148438 184.292969 57.234375 C 186.589844 54.730469 188.988281 52.3125 191.285156 49.808594 L 191.242188 49.488281 C 189.578125 47.222656 188.023438 44.867188 186.214844 42.707031 C 180.191406 34.582031 173.355469 27.085938 166.027344 20.125 C 159.042969 22.554688 152.179688 25.351562 145.542969 28.621094 C 156.363281 38.859375 166.070312 50.277344 174.355469 62.660156 Z M 174.355469 62.660156 " fill-opacity="1" fill-rule="nonzero"/><path fill="#fefeff" d="M 280.984375 30.765625 C 282.347656 29.582031 283.699219 28.378906 284.902344 27.027344 C 268.273438 23.753906 250.960938 25.28125 234.757812 29.992188 C 236.078125 31.101562 237.390625 32.234375 238.632812 33.441406 C 252.628906 31.339844 266.820312 29.894531 280.984375 30.765625 Z M 280.984375 30.765625 " fill-opacity="1" fill-rule="nonzero"/><path fill="#fefeff" d="M 45.742188 112.160156 C 46.691406 113.191406 46.800781 114.675781 47.523438 115.832031 C 48.835938 116.707031 50.554688 116.167969 51.910156 116.917969 C 53.375 117.847656 54.21875 119.394531 55.171875 120.78125 C 55.699219 121.632812 56.867188 121.65625 57.660156 121.183594 C 58.988281 120.429688 60.296875 119.101562 60.144531 117.453125 C 60.109375 116.25 58.945312 115.578125 58.175781 114.824219 C 57.035156 113.867188 55.859375 112.5 56.214844 110.898438 C 56.640625 109.421875 57.84375 108.355469 58.890625 107.300781 C 60.027344 106.277344 61.355469 104.933594 63.042969 105.375 C 65.21875 105.777344 65.886719 108.347656 67.769531 109.226562 C 70.0625 109.335938 72.550781 106.964844 71.796875 104.589844 C 70.964844 103.210938 69.398438 102.484375 68.496094 101.152344 C 67.691406 100.121094 67.566406 98.550781 68.4375 97.519531 C 69.53125 96.121094 70.820312 94.859375 72.238281 93.789062 C 73.371094 92.882812 75.144531 92.847656 76.261719 93.804688 C 77.644531 94.8125 78.359375 96.476562 79.71875 97.496094 C 82.074219 98.027344 84.785156 95.332031 83.832031 92.960938 C 82.699219 91.097656 80.195312 90.203125 79.707031 87.929688 C 79.269531 86.027344 81.058594 84.785156 82.214844 83.601562 C 83.488281 82.410156 85.046875 80.753906 86.992188 81.386719 C 89.3125 81.957031 89.949219 84.824219 92.121094 85.617188 C 94.261719 85.410156 96.558594 83.261719 95.917969 80.988281 C 94.875 79.140625 92.464844 78.328125 91.878906 76.179688 C 91.414062 74.527344 92.953125 73.324219 93.949219 72.261719 C 95.382812 70.941406 97.007812 69.101562 99.179688 69.570312 C 101.597656 70.054688 102.164062 72.996094 104.292969 73.933594 C 106.582031 74.089844 108.933594 71.6875 108.261719 69.363281 C 107.488281 67.828125 105.75 67.125 104.796875 65.726562 C 104.046875 64.742188 104.128906 63.226562 105 62.339844 C 106.242188 60.933594 107.542969 59.511719 109.164062 58.527344 C 110.808594 57.574219 113.054688 58.230469 114.027344 59.835938 C 114.929688 60.921875 115.550781 62.8125 117.289062 62.617188 C 119.28125 62.453125 121.265625 60.429688 120.933594 58.363281 C 119.898438 56.265625 116.722656 55.199219 117.039062 52.496094 C 117.628906 50.660156 119.378906 49.535156 120.707031 48.242188 C 121.8125 47.117188 123.507812 46.542969 125.003906 47.195312 C 126.628906 48.089844 127.332031 49.957031 128.75 51.070312 C 130.988281 52.078125 133.480469 49.972656 133.75 47.738281 C 133.902344 46.90625 133.210938 46.308594 132.722656 45.753906 C 130.566406 43.660156 128.886719 41.152344 127.160156 38.714844 C 126.371094 37.46875 124.851562 37.117188 123.722656 36.289062 C 122.035156 35.015625 121.085938 33.054688 119.574219 31.609375 C 119.140625 31.144531 118.488281 30.960938 117.882812 31.171875 C 116.605469 31.511719 115.386719 32.289062 114.746094 33.46875 C 114.148438 34.527344 114.257812 36.003906 115.21875 36.820312 C 116.378906 38.074219 118.320312 39.074219 118.246094 41.03125 C 117.957031 42.75 116.339844 43.710938 115.117188 44.746094 C 113.875 45.742188 112.351562 46.945312 110.652344 46.425781 C 108.890625 46.050781 107.847656 44.464844 106.753906 43.1875 C 106.273438 42.625 105.550781 42.003906 104.757812 42.296875 C 102.984375 42.847656 101.125 44.414062 101.394531 46.460938 C 101.394531 47.917969 102.855469 48.644531 103.777344 49.527344 C 104.792969 50.316406 105.765625 51.769531 104.988281 53.042969 C 104.0625 54.488281 102.574219 55.429688 101.300781 56.546875 C 100.019531 57.65625 98.054688 58.070312 96.554688 57.167969 C 95.21875 56.285156 94.386719 54.847656 93.125 53.890625 C 90.789062 53.277344 88.039062 55.792969 88.6875 58.195312 C 89.59375 60.066406 91.851562 60.910156 92.621094 62.886719 C 92.828125 64.398438 91.597656 65.476562 90.601562 66.398438 C 89.378906 67.460938 88.246094 68.789062 86.628906 69.242188 C 84.890625 69.621094 83.449219 68.3125 82.425781 67.082031 C 81.75 66.382812 81.101562 65.277344 79.964844 65.480469 C 77.625 65.636719 75.390625 68.792969 76.964844 70.859375 C 78.054688 72.175781 79.585938 73.140625 80.367188 74.699219 C 80.789062 76.511719 79.082031 77.816406 77.910156 78.90625 C 76.585938 79.984375 75.140625 81.613281 73.234375 81.054688 C 71.171875 80.535156 70.308594 78.3125 68.582031 77.328125 C 66.265625 77.210938 64 79.398438 64.183594 81.738281 C 64.925781 83.746094 67.171875 84.625 68.195312 86.453125 C 68.546875 87.269531 68.417969 88.277344 67.816406 88.949219 C 66.675781 90.308594 65.367188 91.546875 63.921875 92.582031 C 62.261719 93.726562 59.976562 93.070312 58.71875 91.640625 C 58 90.945312 57.527344 89.980469 56.636719 89.492188 C 54.53125 89.1875 52.707031 91.164062 52.296875 93.082031 C 52.535156 95.867188 56.011719 96.78125 56.636719 99.375 C 56.8125 101.253906 55.007812 102.34375 53.878906 103.539062 C 52.691406 104.578125 51.476562 106.144531 49.710938 105.875 C 47.707031 105.648438 46.816406 103.554688 45.300781 102.511719 C 44.03125 102.105469 42.867188 103.042969 42.082031 103.933594 C 41.253906 104.84375 40.542969 106.246094 41.273438 107.417969 C 42.394531 109.3125 44.421875 110.414062 45.742188 112.160156 Z M 45.742188 112.160156 " fill-opacity="1" fill-rule="nonzero"/><path fill="#fefeff" d="M 241.640625 80.089844 C 245.058594 80.070312 248.488281 79.535156 251.914062 79.347656 C 263.285156 78.410156 274.660156 77.554688 286.035156 76.597656 C 290.828125 68.660156 296.167969 61.058594 301 53.140625 C 299.660156 51.621094 298.246094 50.171875 296.824219 48.730469 C 291.699219 43.601562 286.753906 38.285156 281.425781 33.359375 C 278.203125 33.464844 274.984375 33.316406 271.769531 33.363281 C 260.535156 33.328125 249.351562 34.628906 238.257812 36.257812 C 232.984375 43.605469 227.320312 50.664062 221.808594 57.835938 C 224.433594 60.933594 227.230469 63.882812 229.925781 66.921875 C 233.890625 71.257812 237.65625 75.773438 241.640625 80.089844 Z M 241.640625 80.089844 " fill-opacity="1" fill-rule="nonzero"/><path fill="#fefeff" d="M 304.917969 118.660156 C 305.054688 119.535156 306.011719 119.601562 306.699219 119.816406 C 313.109375 121.515625 319.503906 123.292969 325.902344 125.03125 C 329.945312 126.113281 333.941406 127.371094 337.976562 128.476562 C 343.335938 119.445312 349.5625 110.964844 354.96875 101.96875 C 355.222656 101.601562 355.265625 101.214844 355.101562 100.808594 C 350.503906 87.394531 344.042969 74.597656 335.726562 63.105469 C 324.933594 60.300781 314.171875 57.347656 303.3125 54.8125 C 298.359375 62.417969 293.414062 70.027344 288.445312 77.625 C 293.929688 91.308594 299.679688 104.882812 304.917969 118.660156 Z M 304.917969 118.660156 " fill-opacity="1" fill-rule="nonzero"/><path fill="#fefeff" d="M 232.339844 112.453125 C 234.53125 102.210938 237.082031 92.054688 239.332031 81.828125 C 232.859375 74.359375 226.273438 66.992188 219.625 59.679688 C 211.363281 62.527344 203.070312 65.300781 194.855469 68.296875 C 193.097656 69.003906 191.273438 69.597656 189.648438 70.589844 C 184.582031 79.242188 180.527344 88.484375 177.355469 97.996094 C 180 98.957031 182.628906 99.972656 185.179688 101.160156 C 198.695312 107.359375 210.203125 117.652344 218.117188 130.214844 C 221.984375 128.460938 225.757812 126.503906 229.550781 124.59375 C 230.5625 120.566406 231.34375 116.484375 232.339844 112.453125 Z M 232.339844 112.453125 " fill-opacity="1" fill-rule="nonzero"/><path fill="#fefeff" d="M 174.644531 97.226562 C 178.019531 87.472656 181.859375 77.769531 187.527344 69.097656 C 186.691406 67.792969 185.859375 66.492188 185.003906 65.207031 C 177.839844 74.277344 173.03125 85.015625 169.714844 96.027344 C 171.367188 96.398438 173 96.847656 174.644531 97.226562 Z M 174.644531 97.226562 " fill-opacity="1" fill-rule="nonzero"/><path fill="#fefeff" d="M 13.394531 118.28125 C 11.714844 122.523438 10.765625 126.992188 9.582031 131.382812 C 8.796875 134.71875 8.105469 138.097656 7.789062 141.511719 C 12.785156 144.242188 17.460938 147.53125 21.882812 151.113281 C 22.289062 151.4375 22.722656 151.730469 23.199219 151.949219 C 26.144531 145.023438 29.585938 138.308594 33.382812 131.816406 C 26.878906 127.082031 20.40625 122.261719 13.394531 118.28125 Z M 13.394531 118.28125 " fill-opacity="1" fill-rule="nonzero"/><path fill="#fefeff" d="M 255.53125 142.039062 C 247.257812 137.050781 239.105469 131.847656 230.628906 127.191406 C 226.972656 129.03125 223.273438 130.773438 219.679688 132.738281 C 226.453125 145.101562 230.019531 159.367188 229.042969 173.484375 C 242.535156 168.710938 256.972656 167.03125 271.226562 167.6875 C 270.625 162.078125 270.046875 156.472656 269.4375 150.867188 C 264.90625 147.765625 260.164062 144.996094 255.53125 142.039062 Z M 255.53125 142.039062 " fill-opacity="1" fill-rule="nonzero"/><path fill="#fefeff" d="M 201.882812 144.914062 C 197.09375 149.507812 191.894531 153.65625 187.257812 158.414062 C 181.265625 164.324219 175.800781 170.914062 172.066406 178.5 C 169.128906 184.285156 167.074219 190.601562 166.589844 197.082031 C 165.734375 205.511719 167.609375 214.234375 171.902344 221.550781 C 173 219.875 174.058594 218.175781 175.0625 216.441406 C 171.90625 210.585938 170.933594 203.789062 171.488281 197.210938 C 172.445312 185.929688 178.28125 175.660156 185.625 167.277344 C 190.164062 161.890625 195.429688 157.191406 200.734375 152.582031 C 206.105469 147.75 211.335938 142.523438 214.597656 135.984375 C 213.609375 133.980469 212.394531 132.085938 211.027344 130.320312 C 210.121094 136.242188 205.933594 140.820312 201.882812 144.914062 Z M 201.882812 144.914062 " fill-opacity="1" fill-rule="nonzero"/><path fill="#fefeff" d="M 48.097656 252.164062 C 47.679688 253.355469 47.011719 254.492188 46.855469 255.761719 C 55.824219 264.660156 66.484375 271.878906 78.054688 276.96875 C 80.769531 269.882812 83.625 262.816406 87.355469 256.191406 C 90.230469 250.96875 93.566406 246.003906 97.21875 241.289062 C 107.199219 228.3125 119.703125 217.207031 134.125 209.386719 C 128.90625 206.390625 123.28125 204.160156 117.519531 202.4375 C 110.347656 200.398438 102.925781 199.070312 95.449219 199.113281 C 93.292969 199.042969 91.585938 200.5625 89.816406 201.566406 C 84.140625 205.125 78.75 209.171875 73.894531 213.785156 C 62.894531 224.710938 53.699219 237.652344 48.097656 252.164062 Z M 48.097656 252.164062 " fill-opacity="1" fill-rule="nonzero"/><path fill="#fefeff" d="M 52.496094 230.996094 C 60.28125 218.851562 70.109375 207.902344 82.035156 199.710938 C 76.207031 200.398438 70.417969 201.566406 64.878906 203.554688 C 55.90625 206.578125 47.25 210.765625 39.722656 216.554688 C 38.640625 217.515625 37.179688 218.289062 36.753906 219.773438 C 34.925781 225.214844 34.066406 230.9375 33.695312 236.648438 C 34.972656 242.148438 38.503906 246.832031 42.289062 250.902344 C 45.128906 243.996094 48.398438 237.25 52.496094 230.996094 Z M 52.496094 230.996094 " fill-opacity="1" fill-rule="nonzero"/><path fill="#fefeff" d="M 129.078125 281.949219 C 135.144531 268.046875 145.507812 256.324219 157.671875 247.410156 C 160.804688 245.15625 164.054688 243.070312 167.378906 241.105469 C 164.890625 236.746094 161.714844 232.820312 158.414062 229.054688 C 157.367188 227.835938 156.367188 226.5625 155.085938 225.582031 C 154.582031 224.621094 153.734375 223.917969 152.984375 223.160156 C 149.285156 219.527344 145.25 216.222656 140.867188 213.453125 C 140.234375 212.886719 139.460938 213.363281 138.824219 213.636719 C 133.484375 216.160156 128.566406 219.492188 123.832031 222.996094 C 112.082031 231.914062 102.128906 243.125 94.394531 255.671875 C 89.929688 263.183594 86.316406 271.183594 83.386719 279.414062 C 97.039062 285.261719 111.808594 288.21875 126.589844 289.242188 C 127.132812 286.71875 128.027344 284.296875 129.078125 281.949219 Z M 129.078125 281.949219 " fill-opacity="1" fill-rule="nonzero"/><path fill="#fefeff" d="M 28.679688 227.394531 C 24.042969 231.996094 20.40625 237.515625 17.25 243.203125 C 20.441406 240.464844 23.894531 237.996094 27.640625 236.070312 C 27.816406 233.15625 28.453125 230.300781 28.679688 227.394531 Z M 28.679688 227.394531 " fill-opacity="1" fill-rule="nonzero"/><path fill="#fefeff" d="M 46.371094 305.804688 C 62.53125 315.574219 80.898438 321.253906 99.507812 323.960938 C 104.402344 324.546875 109.351562 325.15625 114.269531 325.140625 C 120.050781 325.34375 125.878906 325.226562 131.609375 324.363281 C 132.652344 316.761719 131.796875 308.996094 129.65625 301.65625 C 128.878906 299.460938 127.890625 297.347656 127.046875 295.179688 C 120.460938 294.675781 113.859375 294.050781 107.382812 292.71875 C 99.167969 291.207031 91.144531 288.738281 83.378906 285.683594 C 74.667969 282.246094 66.222656 278.054688 58.496094 272.746094 C 46.578125 264.707031 35.605469 254.582031 28.847656 241.734375 C 23.566406 244.800781 19.207031 249.167969 14.875 253.410156 C 13.375 254.984375 11.507812 256.417969 10.863281 258.597656 C 10.253906 260.464844 9.554688 262.34375 9.335938 264.304688 C 10.425781 269.511719 13.261719 274.136719 16.160156 278.523438 C 23.851562 289.890625 34.664062 298.808594 46.371094 305.804688 Z M 46.371094 305.804688 " fill-opacity="1" fill-rule="nonzero"/><path fill="#fefeff" d="M 149.917969 261.957031 C 147.320312 264.316406 145.105469 267.050781 142.980469 269.832031 C 138.582031 275.71875 134.695312 282.121094 132.460938 289.160156 C 131.382812 291.917969 133.1875 294.578125 134.058594 297.113281 C 139.273438 309.671875 138.875 323.976562 134.796875 336.792969 C 130.957031 348.816406 123.570312 359.800781 113.539062 367.511719 C 122.753906 365.359375 131.546875 361.582031 139.667969 356.75 C 144.96875 353.382812 150.210938 349.75 154.496094 345.132812 C 159.410156 336.742188 162.046875 327.175781 163.363281 317.59375 C 165.683594 300.066406 162.265625 281.707031 153.125 266.507812 C 152.097656 264.960938 151.070312 263.410156 149.917969 261.957031 Z M 149.917969 261.957031 " fill-opacity="1" fill-rule="nonzero"/><path fill="#fefeff" d="M 358.949219 102.035156 C 360.511719 103.96875 361.917969 106.039062 363.644531 107.835938 C 362.96875 102.734375 361.710938 97.734375 360.167969 92.832031 C 355.703125 79.667969 348.949219 67.105469 339.363281 56.949219 C 338.929688 58.339844 337.707031 59.679688 337.753906 61.101562 C 345.867188 72.292969 352.273438 84.707031 356.976562 97.703125 C 357.53125 99.183594 357.878906 100.808594 358.949219 102.035156 Z M 358.949219 102.035156 " fill-opacity="1" fill-rule="nonzero"/><path fill="#fefeff" d="M 336.8125 130.996094 C 332.675781 129.894531 328.542969 128.773438 324.441406 127.546875 C 317.574219 125.710938 310.71875 123.816406 303.828125 122.078125 C 299.222656 125.886719 295.003906 130.125 290.511719 134.070312 C 284.363281 139.519531 278.140625 144.894531 272.257812 150.632812 C 272.683594 156.40625 273.511719 162.148438 274.027344 167.914062 C 276.097656 168.550781 278.296875 168.449219 280.410156 168.882812 C 290.292969 170.453125 299.953125 173.351562 309.070312 177.488281 C 314.308594 179.679688 319.152344 182.660156 324.070312 185.480469 C 330 178.359375 335.628906 170.980469 341.285156 163.636719 C 339.8125 152.753906 338.59375 141.832031 336.8125 130.996094 Z M 336.8125 130.996094 " fill-opacity="1" fill-rule="nonzero"/><path fill="#fefeff" d="M 345.410156 164.613281 C 344.441406 164.953125 343.28125 165.15625 342.742188 166.132812 C 337.445312 173.257812 331.988281 180.261719 326.265625 187.054688 C 328.765625 188.558594 331.03125 190.410156 333.402344 192.109375 C 342.75 183.328125 350.527344 172.785156 355.808594 161.082031 C 352.300781 162.128906 348.914062 163.550781 345.410156 164.613281 Z M 345.410156 164.613281 " fill-opacity="1" fill-rule="nonzero"/><path fill="#fefeff" d="M 57.265625 190.671875 C 64.628906 188.75 71.832031 186.238281 78.828125 183.253906 C 78.515625 181.855469 78.261719 180.4375 77.890625 179.046875 C 77.515625 177.640625 76.390625 176.632812 75.589844 175.472656 C 73.539062 172.65625 71.398438 169.90625 69.269531 167.148438 C 59.1875 154.929688 48.042969 143.519531 35.613281 133.671875 C 31.765625 140.175781 28.28125 146.914062 25.367188 153.890625 C 34.199219 161.355469 42.113281 169.851562 49.3125 178.878906 C 52.113281 182.707031 54.894531 186.558594 57.265625 190.671875 Z M 57.265625 190.671875 " fill-opacity="1" fill-rule="nonzero"/><path fill="#fefeff" d="M 95.960938 193.019531 C 98.65625 190.183594 100.746094 186.816406 102.589844 183.378906 C 105.175781 178.40625 107.046875 173.074219 108.253906 167.605469 C 110.445312 158.460938 110.457031 149.011719 110.832031 139.675781 C 111.136719 135.144531 111.890625 130.636719 113.117188 126.265625 C 114.394531 121.660156 117.230469 117.703125 120.273438 114.097656 C 123.804688 110.15625 127.8125 106.664062 132.023438 103.464844 C 128.441406 104.449219 124.957031 105.820312 121.675781 107.566406 C 118.390625 109.289062 115.769531 112.039062 113.617188 115.015625 C 110.742188 118.769531 108.625 123.101562 107.472656 127.6875 C 104.9375 136.785156 106.019531 146.324219 105.070312 155.621094 C 104.28125 163.964844 102.78125 172.40625 99.035156 179.976562 C 96.675781 184.976562 93.507812 189.714844 89.1875 193.222656 C 91.441406 193.066406 93.71875 193.355469 95.960938 193.019531 Z M 95.960938 193.019531 " fill-opacity="1" fill-rule="nonzero"/><path fill="#fefeff" d="M 170.214844 246.289062 C 165.355469 248.917969 160.914062 252.238281 156.574219 255.640625 C 155.753906 256.277344 154.914062 256.898438 154.179688 257.632812 C 154.621094 258.605469 155.414062 259.359375 156.042969 260.210938 C 167.714844 277.605469 172.199219 299.488281 168.949219 320.125 C 168.515625 323.121094 167.734375 326.058594 167.257812 329.050781 C 173.226562 320.253906 176.839844 310.023438 178.707031 299.601562 C 180.4375 289.167969 180.527344 278.378906 178.230469 268.023438 C 176.550781 260.464844 173.929688 253.085938 170.214844 246.289062 Z M 170.214844 246.289062 " fill-opacity="1" fill-rule="nonzero"/><path fill="#fefeff" d="M 99.679688 354.953125 C 106.644531 354.449219 113.644531 353.664062 120.359375 351.679688 C 121.65625 351.40625 121.964844 349.929688 122.664062 348.996094 C 126.25 343.28125 128.949219 337.019531 130.621094 330.484375 C 122.792969 331.402344 114.855469 331.359375 107.007812 330.640625 C 99.375 330.105469 91.828125 328.71875 84.367188 327.054688 C 75.367188 325.011719 66.542969 322.175781 58.105469 318.4375 C 44.789062 312.460938 32.253906 304.53125 21.726562 294.375 C 16.113281 288.789062 11.300781 282.394531 7.4375 275.484375 C 6.304688 285.53125 7.316406 295.75 9.742188 305.542969 C 10.261719 307.324219 10.617188 309.191406 11.445312 310.867188 C 12.300781 314.589844 13.949219 318.066406 15.578125 321.503906 C 16.046875 322.40625 16.40625 323.40625 17.117188 324.15625 C 21.085938 327.914062 25.082031 331.664062 29.535156 334.851562 C 49.570312 349.585938 74.949219 356.394531 99.679688 354.953125 Z M 99.679688 354.953125 " fill-opacity="1" fill-rule="nonzero"/><path fill="#fefeff" d="M 28.574219 341.175781 C 33.722656 347.835938 40.46875 353.097656 47.621094 357.460938 C 53.992188 361.109375 60.695312 364.269531 67.785156 366.242188 C 77.191406 368.863281 86.980469 370.222656 96.753906 369.882812 C 97.882812 369.84375 99.070312 369.824219 100.058594 369.199219 C 105.316406 366.304688 110.636719 363.285156 114.933594 359.035156 C 85.328125 364.640625 53.382812 358.460938 28.574219 341.175781 Z M 28.574219 341.175781 " fill-opacity="1" fill-rule="nonzero"/><path fill="#dbd708" d="M 173.460938 170.222656 C 177.535156 164.085938 182.554688 158.644531 187.929688 153.632812 C 193.488281 148.289062 199.769531 143.628906 204.519531 137.496094 C 206.078125 135.375 207.753906 133.121094 208.035156 130.421875 C 208.132812 129.214844 208.328125 128.007812 208.261719 126.796875 C 207.65625 125.753906 206.804688 124.878906 206.019531 123.972656 C 201.226562 118.507812 195.613281 113.730469 189.355469 110.019531 C 176.097656 101.984375 160.054688 98.917969 144.726562 100.8125 C 138.453125 102.855469 132.675781 106.296875 127.808594 110.742188 C 122.617188 115.367188 117.847656 120.898438 115.851562 127.691406 C 113.800781 134.5625 113.542969 141.789062 113.40625 148.90625 C 113.058594 161.152344 111 173.574219 105.390625 184.578125 C 103.757812 187.589844 101.910156 190.476562 99.929688 193.269531 C 118.914062 194.445312 137.191406 202.222656 151.832031 214.246094 C 156.644531 218.074219 160.8125 222.625 164.84375 227.25 C 165.527344 228.304688 166.792969 227.675781 167.789062 227.558594 C 169.285156 227.503906 169.914062 225.964844 170.382812 224.777344 C 170.179688 223.933594 169.613281 223.238281 169.191406 222.5 C 164.84375 215.433594 163.183594 206.964844 163.523438 198.75 C 164.007812 188.527344 167.699219 178.625 173.460938 170.222656 Z M 173.460938 170.222656 " fill-opacity="1" fill-rule="nonzero"/><path fill="#dbd708" d="M 106.621094 121.035156 C 107.472656 118.992188 108.71875 117.15625 109.730469 115.191406 C 107.949219 116.347656 106.414062 117.820312 104.890625 119.285156 C 96.625 127.050781 90.261719 136.875 86.664062 147.628906 C 86.148438 149.335938 85.507812 151.035156 85.398438 152.824219 C 83.933594 156.941406 83.632812 161.359375 83.265625 165.679688 C 82.875 174.238281 84.109375 182.929688 87.210938 190.925781 C 91.402344 187.476562 94.472656 182.859375 96.796875 178 C 101.59375 167.320312 102.5625 155.433594 102.714844 143.867188 C 102.605469 136.121094 103.496094 128.191406 106.621094 121.035156 Z M 106.621094 121.035156 " fill-opacity="1" fill-rule="nonzero"/><path fill="#dbd708" d="M 221.46875 153.007812 C 220.800781 150.523438 220.136719 148 218.894531 145.726562 C 218.609375 143.359375 217.277344 141.273438 216.253906 139.160156 C 211.78125 146.613281 205.34375 152.613281 198.753906 158.167969 C 193.464844 162.800781 188.570312 167.894531 184.304688 173.492188 C 179.410156 180.230469 175.488281 187.949219 174.542969 196.316406 C 173.863281 202.074219 174.488281 208.09375 176.96875 213.382812 C 180.222656 209.175781 183.375 204.875 187.066406 201.027344 C 197.023438 190.183594 209.445312 181.679688 223.023438 176.035156 C 223.816406 168.34375 223.324219 160.515625 221.46875 153.007812 Z M 221.46875 153.007812 " fill-opacity="1" fill-rule="nonzero"/><path fill="#c1613f" d="M 250.449219 223.503906 C 252.972656 231.136719 253.113281 239.40625 251.417969 247.230469 C 260.796875 249.128906 270.085938 251.425781 279.265625 254.136719 C 280.722656 248.171875 281.734375 242.109375 282.425781 236.011719 C 284.035156 221.203125 283.492188 205.925781 279.007812 191.632812 C 277.140625 185.699219 274.589844 179.945312 271.050781 174.808594 C 270.613281 174.210938 270.097656 173.503906 269.261719 173.609375 C 248.824219 172.539062 228.011719 177.910156 210.824219 189.066406 C 215.378906 190.394531 219.953125 191.789062 224.167969 194.015625 C 236.101562 200.164062 246.476562 210.441406 250.449219 223.503906 Z M 250.449219 223.503906 " fill-opacity="1" fill-rule="nonzero"/><path fill="#c1613f" d="M 287.414062 200.828125 C 290.613281 219.082031 289.296875 237.921875 284.886719 255.863281 C 292.441406 258.222656 299.832031 261.070312 307.207031 263.933594 C 309.363281 256.757812 311.433594 249.5625 313.683594 242.417969 C 318.355469 228.050781 323.71875 213.917969 329.015625 199.765625 C 329.359375 198.882812 329.710938 198.003906 330.082031 197.128906 C 328.023438 195.375 325.886719 193.671875 323.441406 192.496094 C 322.953125 191.992188 322.371094 191.601562 321.804688 191.207031 C 308.71875 182.460938 293.660156 176.710938 278.082031 174.464844 C 279.605469 177.457031 281.171875 180.429688 282.441406 183.550781 C 284.773438 189.089844 286.261719 194.9375 287.414062 200.828125 Z M 287.414062 200.828125 " fill-opacity="1" fill-rule="nonzero"/><path fill="#c1613f" d="M 240.882812 245.234375 C 242.441406 245.535156 244.011719 245.757812 245.601562 245.90625 C 246.660156 240.25 246.84375 234.378906 245.664062 228.726562 C 244.410156 222.816406 241.707031 217.234375 237.910156 212.542969 C 229.894531 202.34375 217.667969 195.949219 204.972656 193.867188 C 204.164062 193.648438 203.445312 194.085938 202.839844 194.566406 C 193.941406 201.304688 186.546875 209.878906 180.46875 219.207031 C 176.90625 224.570312 174.269531 230.457031 171.492188 236.238281 C 172.460938 237.925781 173.464844 239.589844 174.441406 241.273438 C 196.644531 240.265625 218.96875 241.457031 240.882812 245.234375 Z M 240.882812 245.234375 " fill-opacity="1" fill-rule="nonzero"/><path fill="#c1613f" d="M 330.246094 275.121094 C 333.699219 265.734375 338.453125 256.15625 346.933594 250.34375 C 349.277344 249.023438 351.648438 247.722656 354.1875 246.8125 C 356.515625 245.949219 358.960938 245.519531 361.382812 245.023438 C 360.621094 241.609375 359.414062 238.324219 358.101562 235.09375 C 354.265625 225.382812 348.695312 216.386719 341.816406 208.535156 C 339.609375 206.101562 337.53125 203.480469 334.785156 201.617188 C 334.496094 202.464844 334.210938 203.320312 333.914062 204.167969 C 325.667969 224.496094 318.828125 245.359375 312.585938 266.378906 C 318.574219 269.074219 324.453125 272.023438 330.246094 275.121094 Z M 330.246094 275.121094 " fill-opacity="1" fill-rule="nonzero"/><path fill="#c1613f" d="M 185.757812 275.488281 C 185.746094 278.757812 186.128906 282.019531 185.992188 285.289062 C 186.019531 289.773438 185.519531 294.234375 184.988281 298.679688 C 188.269531 297.625 191.484375 296.382812 194.726562 295.222656 C 209.640625 289.117188 224.335938 280.996094 234.699219 268.363281 C 238.585938 263.363281 241.984375 257.835938 243.808594 251.738281 C 221.929688 247.566406 199.558594 246.234375 177.320312 247.152344 C 180.769531 254.507812 183.226562 262.308594 184.78125 270.277344 C 185.136719 272.007812 185.21875 273.796875 185.757812 275.488281 Z M 185.757812 275.488281 " fill-opacity="1" fill-rule="nonzero"/><path fill="#c1613f" d="M 277.691406 259.726562 C 268.542969 256.949219 259.195312 254.855469 249.863281 252.800781 C 248.113281 257.773438 245.886719 262.589844 243 267.011719 C 236.273438 277.351562 226.46875 285.335938 215.902344 291.511719 C 209.867188 295.128906 203.398438 297.917969 196.925781 300.632812 C 192.515625 302.285156 188.101562 303.929688 183.652344 305.472656 C 182.605469 309.59375 181.457031 313.699219 179.839844 317.636719 C 179.535156 318.695312 178.734375 319.882812 179.421875 320.953125 C 180.5 323 181.976562 324.808594 183.347656 326.667969 C 190.9375 336.84375 200.460938 345.601562 211.300781 352.21875 C 220.03125 347.082031 227.722656 340.347656 234.882812 333.226562 C 254.808594 312.675781 269.660156 287.203125 277.691406 259.726562 Z M 277.691406 259.726562 " fill-opacity="1" fill-rule="nonzero"/><path fill="#c1613f" d="M 305.398438 269.765625 C 298.277344 266.546875 290.859375 264.058594 283.476562 261.527344 C 281.742188 266.914062 280.011719 272.316406 277.851562 277.554688 C 269.292969 298.929688 256.601562 318.566406 241.050781 335.523438 C 237.554688 338.898438 234.179688 342.414062 230.453125 345.550781 C 226.304688 349.296875 221.6875 352.46875 217.167969 355.738281 C 222.296875 358.699219 227.898438 360.726562 233.523438 362.523438 C 249.464844 367.5625 266.636719 368.886719 283.101562 365.863281 C 283.660156 363.417969 284.070312 360.945312 284.53125 358.480469 C 285.867188 350.84375 287.703125 343.308594 289.109375 335.691406 C 291.574219 325.257812 293.644531 314.730469 296.257812 304.332031 C 298.988281 292.730469 302.25 281.257812 305.398438 269.765625 Z M 305.398438 269.765625 " fill-opacity="1" fill-rule="nonzero"/><path fill="#c1613f" d="M 362.808594 250.976562 C 357.203125 251.5 351.746094 253.667969 347.496094 257.378906 C 347.253906 257.65625 346.828125 257.875 346.820312 258.289062 C 345.265625 259.550781 343.988281 261.113281 342.84375 262.75 C 339.585938 267.433594 337.296875 272.714844 335.558594 278.132812 C 337.851562 279.570312 340.160156 280.988281 342.4375 282.453125 C 343.675781 283.378906 344.933594 284.285156 346.222656 285.140625 C 351.601562 288.761719 356.527344 293.015625 361.214844 297.484375 C 365.542969 282.441406 366.226562 266.269531 362.808594 250.976562 Z M 362.808594 250.976562 " fill-opacity="1" fill-rule="nonzero"/><path fill="#c1613f" d="M 357.035156 301.609375 C 351.785156 296.515625 346.054688 291.910156 339.9375 287.886719 C 337.972656 286.589844 336.042969 285.230469 333.925781 284.179688 C 333.203125 287.429688 332.738281 290.730469 332.515625 294.054688 C 331.898438 300.382812 332.542969 306.792969 333.886719 312.992188 C 335.320312 319.941406 338.117188 326.636719 342.1875 332.453125 C 347.847656 326.136719 352.554688 318.992188 356.144531 311.3125 C 357.195312 308.859375 358.480469 306.449219 358.992188 303.816406 C 358.457031 302.976562 357.726562 302.300781 357.035156 301.609375 Z M 357.035156 301.609375 " fill-opacity="1" fill-rule="nonzero"/><path fill="#c1613f" d="M 326.917969 307.539062 C 325.875 298.699219 326.28125 289.632812 328.671875 281.03125 C 326.882812 279.914062 325.027344 278.90625 323.148438 277.949219 C 319.148438 275.960938 315.230469 273.765625 311.035156 272.195312 C 305.113281 292.066406 300.339844 312.25 295.925781 332.507812 C 293.597656 343.15625 291.515625 353.859375 289.300781 364.535156 C 301.492188 361.753906 313.101562 356.582031 323.402344 349.5 C 328.628906 345.929688 333.601562 341.945312 337.964844 337.347656 C 336.207031 334.484375 334.378906 331.644531 332.984375 328.578125 C 329.820312 321.957031 327.890625 314.792969 326.917969 307.539062 Z M 326.917969 307.539062 " fill-opacity="1" fill-rule="nonzero"/><g transform="matrix(1, 0, 0, 1, 233, 174)"><g clip-path="url(#8b69623b83)"><g fill="#c88067" fill-opacity="1"><g transform="translate(0.852802, 15.293041)"><g><path d="M 10.5625 -5.125 C 10.5625 -3.914062 10.347656 -2.90625 9.921875 -2.09375 C 9.492188 -1.28125 8.867188 -0.6875 8.046875 -0.3125 L 10.5 2.4375 L 7.734375 2.4375 L 5.859375 0.140625 L 5.703125 0.140625 C 4.128906 0.140625 2.921875 -0.3125 2.078125 -1.21875 C 1.242188 -2.125 0.828125 -3.429688 0.828125 -5.140625 C 0.828125 -6.835938 1.25 -8.132812 2.09375 -9.03125 C 2.9375 -9.925781 4.140625 -10.375 5.703125 -10.375 C 7.273438 -10.375 8.476562 -9.921875 9.3125 -9.015625 C 10.144531 -8.117188 10.5625 -6.820312 10.5625 -5.125 Z M 3.109375 -5.125 C 3.109375 -3.976562 3.320312 -3.113281 3.75 -2.53125 C 4.1875 -1.957031 4.835938 -1.671875 5.703125 -1.671875 C 7.421875 -1.671875 8.28125 -2.820312 8.28125 -5.125 C 8.28125 -7.425781 7.421875 -8.578125 5.703125 -8.578125 C 4.847656 -8.578125 4.203125 -8.285156 3.765625 -7.703125 C 3.328125 -7.117188 3.109375 -6.257812 3.109375 -5.125 Z M 3.109375 -5.125 "/></g></g></g><g fill="#c88067" fill-opacity="1"><g transform="translate(12.247335, 15.293041)"><g><path d="M 7.546875 0 L 6.796875 -2.4375 L 3.078125 -2.4375 L 2.328125 0 L 0 0 L 3.609375 -10.265625 L 6.25 -10.265625 L 9.875 0 Z M 6.28125 -4.25 C 5.59375 -6.445312 5.207031 -7.691406 5.125 -7.984375 C 5.039062 -8.273438 4.976562 -8.503906 4.9375 -8.671875 C 4.78125 -8.078125 4.34375 -6.601562 3.625 -4.25 Z M 6.28125 -4.25 "/></g></g></g><g fill="#c88067" fill-opacity="1"><g transform="translate(22.124931, 15.293041)"><g><path d="M 1.28125 -10.21875 L 4.46875 -10.21875 C 5.914062 -10.21875 6.96875 -10.007812 7.625 -9.59375 C 8.28125 -9.1875 8.609375 -8.53125 8.609375 -7.625 C 8.609375 -7.019531 8.460938 -6.519531 8.171875 -6.125 C 7.890625 -5.738281 7.507812 -5.503906 7.03125 -5.421875 L 7.03125 -5.359375 C 7.675781 -5.210938 8.140625 -4.941406 8.421875 -4.546875 C 8.710938 -4.148438 8.859375 -3.625 8.859375 -2.96875 C 8.859375 -2.03125 8.519531 -1.300781 7.84375 -0.78125 C 7.175781 -0.257812 6.265625 0 5.109375 0 L 1.28125 0 Z M 3.453125 -6.171875 L 4.703125 -6.171875 C 5.296875 -6.171875 5.722656 -6.257812 5.984375 -6.4375 C 6.242188 -6.625 6.375 -6.925781 6.375 -7.34375 C 6.375 -7.738281 6.226562 -8.019531 5.9375 -8.1875 C 5.65625 -8.351562 5.207031 -8.4375 4.59375 -8.4375 L 3.453125 -8.4375 Z M 3.453125 -4.453125 L 3.453125 -1.796875 L 4.859375 -1.796875 C 5.460938 -1.796875 5.90625 -1.90625 6.1875 -2.125 C 6.46875 -2.351562 6.609375 -2.707031 6.609375 -3.1875 C 6.609375 -4.03125 6.003906 -4.453125 4.796875 -4.453125 Z M 3.453125 -4.453125 "/></g></g></g></g></g></svg>