<svg xmlns="http://www.w3.org/2000/svg" xmlns:xlink="http://www.w3.org/1999/xlink" width="500" zoomAndPan="magnify" viewBox="0 0 375 374.999991" height="500" preserveAspectRatio="xMidYMid meet" version="1.0"><defs><clipPath id="549ea53f4f"><path d="M 3 0 L 373 0 L 373 362.25 L 3 362.25 Z M 3 0 " clip-rule="nonzero"/></clipPath></defs><path fill="#ffffff" d="M 184.597656 4.300781 C 185.441406 4.457031 186.367188 4.527344 187.03125 4.839844 C 186.847656 5.382812 186.320312 5.566406 185.691406 5.65625 C 184.671875 5.683594 183.488281 5.863281 183.792969 4.574219 C 184.109375 4.527344 184.566406 4.625 184.597656 4.300781 Z M 184.597656 4.300781 " fill-opacity="1" fill-rule="evenodd"/><path fill="#ffffff" d="M 183.800781 9.179688 C 184.347656 12.105469 189.03125 11.917969 189.484375 9.457031 C 189.800781 7.722656 188.46875 7.75 188.125 5.929688 C 193.957031 7 195.585938 11.890625 201.121094 12.433594 C 215.226562 13.816406 227.890625 15.535156 239.851562 18.933594 C 270.398438 27.640625 295.457031 44.21875 314.316406 63.105469 C 331.414062 80.207031 345.8125 101.875 354.132812 127.328125 C 356.617188 134.90625 357.898438 142.320312 363.34375 147.375 C 363.328125 151.371094 354.402344 148.6875 357.921875 153.609375 C 359.738281 156.566406 364.519531 162.535156 362.257812 167.976562 C 361.574219 169.628906 359.277344 170.613281 356.84375 170.136719 C 357.671875 165.59375 358.863281 162.136719 356.84375 158.484375 C 355.957031 156.875 353.652344 156.089844 354.402344 154.429688 C 356.238281 149.617188 346.761719 150.609375 350.066406 154.429688 C 351.777344 159.722656 356.84375 167.664062 350.886719 171.496094 C 348.78125 171.339844 346.050781 171.824219 344.382812 171.226562 C 345.734375 168.386719 347.777344 165.761719 347.632812 162.285156 C 347.5 158.980469 344.660156 157.042969 344.109375 154.152344 C 343.71875 152.082031 340.230469 152.195312 339.507812 153.871094 L 339.507812 155.238281 C 341.195312 158.820312 343.558594 164.695312 341.140625 168.242188 C 338.894531 171.527344 334.210938 171.582031 329.761719 170.136719 C 331.351562 166.597656 335.347656 163.675781 334.90625 159.035156 C 334.589844 155.722656 331.714844 153.96875 330.304688 151.175781 C 329.660156 150.074219 326.578125 150.503906 326.78125 151.988281 C 326.808594 155.136719 329.714844 159.332031 328.402344 163.09375 C 326.507812 168.597656 318.523438 169.414062 313.785156 165.804688 C 315.292969 162.4375 319.527344 159.160156 318.929688 154.429688 C 318.691406 152.574219 317 151.644531 317.3125 149.277344 C 317.28125 148.84375 317.425781 148.242188 317.035156 148.191406 C 316.882812 147.800781 316.609375 147.53125 316.214844 147.375 C 315.0625 145.359375 310.445312 147.003906 311.882812 149.277344 C 311.765625 151.261719 312.382812 152.777344 312.15625 154.699219 C 311.226562 162.613281 301 163.144531 294.824219 159.304688 C 296.742188 154.820312 304.574219 151.371094 300.78125 144.667969 C 301.027344 144.101562 301.199219 143.464844 301.597656 143.039062 C 302.886719 139.820312 297.011719 137.777344 296.179688 141.144531 C 294.238281 147.148438 291.8125 155.089844 283.722656 153.609375 C 280.722656 153.0625 277.484375 150.113281 275.324219 148.730469 C 278.730469 145.160156 285.332031 142.597656 283.445312 135.457031 C 283.832031 135.386719 283.765625 134.859375 283.992188 134.640625 C 288.199219 131.53125 279.890625 126.648438 279.660156 132.207031 C 279.175781 134.382812 277.453125 134.855469 275.871094 135.996094 C 273.363281 137.792969 270.757812 140.878906 269.367188 141.421875 C 262.957031 143.917969 259.207031 138.03125 255.007812 135.457031 C 258.085938 131.574219 263.746094 130.28125 267.46875 127.046875 C 267.972656 125.382812 268.382812 123.628906 269.640625 122.714844 C 272.242188 120.394531 266.941406 116.558594 265.035156 119.460938 C 264.523438 120.21875 263.992188 120.953125 263.410156 121.632812 C 256.875 120.914062 251.839844 128.15625 247.433594 128.140625 C 245.953125 128.128906 243.222656 126.527344 242.019531 125.703125 C 241.066406 125.054688 235.917969 120.957031 236.054688 119.738281 C 236.34375 117.246094 243.578125 116.925781 246.078125 115.949219 C 249.601562 114.570312 250.484375 112.628906 252.585938 110.519531 C 256.171875 106.699219 247.925781 102.914062 247.164062 107.8125 C 246.644531 110.25 244.53125 108.5625 242.5625 108.628906 C 240.964844 108.679688 238.589844 109.25 236.867188 109.714844 C 234.382812 110.375 232.410156 112.425781 230.371094 112.691406 C 224.773438 113.433594 221.765625 107.359375 218.183594 104.558594 C 221.441406 99.609375 230.738281 100.679688 235.519531 97.25 C 236.324219 96.695312 237.015625 96.042969 237.414062 95.078125 C 237.285156 91.980469 231.742188 89.894531 231.183594 93.996094 C 231.027344 94.558594 230.621094 94.875 230.371094 95.355469 C 227.332031 94.558594 224.539062 93.433594 220.625 93.996094 C 217.90625 94.382812 215.773438 96.371094 213.308594 96.710938 C 209.832031 97.171875 207.707031 94.785156 205.730469 92.914062 C 204.46875 91.707031 201.109375 89.363281 201.121094 87.757812 C 201.171875 82.710938 212.238281 85.261719 216.558594 85.054688 C 218.527344 84.957031 219.667969 84.253906 221.160156 84.785156 C 226.351562 84.242188 222.441406 76.964844 218.457031 79.636719 C 216.648438 82.230469 214.5625 79.097656 211.953125 78.28125 C 210.65625 77.871094 209 77.757812 207.890625 77.742188 C 204.089844 77.660156 200.808594 80.355469 197.601562 80.171875 C 193.578125 79.949219 189.839844 74.445312 188.390625 71.777344 C 192.980469 65.933594 204.316406 71.640625 210.066406 68.515625 C 214.289062 66.652344 207.453125 61.609375 206.277344 65.816406 C 204.535156 68.28125 202.164062 63.4375 200.039062 62.5625 C 194.679688 60.355469 189.878906 64.527344 186.230469 64.460938 C 181.78125 64.378906 180.296875 58.984375 179.464844 54.972656 C 185.023438 50.890625 193.847656 54.558594 199.5 56.058594 C 200.988281 56.902344 202.570312 55.773438 203.292969 54.972656 C 204.164062 51.515625 200.148438 49.410156 198.144531 51.449219 C 195.121094 53.5625 192.65625 48.902344 188.945312 47.929688 C 184.871094 46.859375 182.117188 48.089844 178.109375 49.015625 C 175.335938 47.910156 174.25 43.664062 174.320312 40.617188 C 174.816406 39.386719 177.140625 38.535156 178.921875 38.441406 C 182.519531 38.257812 190.144531 40.308594 191.375 41.699219 C 195.269531 48.039062 200.5 36.90625 193 38.171875 C 190.007812 38.945312 188.929688 35.847656 186.5 34.652344 C 182.367188 32.605469 176.683594 33.144531 172.960938 34.378906 C 171.828125 32.476562 171.410156 28.609375 171.882812 25.984375 C 176.644531 24.050781 184.050781 25.683594 186.777344 28.417969 C 187.421875 29.5625 188.089844 30.445312 189.210938 30.589844 C 194.292969 31.234375 193.34375 23.328125 187.855469 25.164062 C 184.90625 24.367188 182.628906 21.054688 179.460938 20.566406 C 176.84375 20.160156 175.027344 21.726562 171.609375 21.105469 C 171.128906 19.722656 171.230469 16.808594 171.609375 15.414062 C 174.765625 12.472656 179.789062 14.945312 182.710938 16.765625 C 185.800781 22.527344 192.039062 13.90625 185.144531 12.976562 C 181.015625 12.289062 176.644531 9.800781 172.152344 11.894531 C 171.210938 10.875 171.679688 8.703125 172.152344 7.554688 C 175.226562 5.136719 182.03125 6.292969 183.800781 9.179688 Z M 183.800781 9.179688 " fill-opacity="1" fill-rule="evenodd"/><path fill="#ffffff" d="M 161.042969 9.996094 C 163.621094 8.597656 169.339844 9.648438 167.8125 13.242188 C 162.164062 13.113281 157.289062 15.585938 154 18.664062 C 153.480469 18.726562 153.402344 18.359375 152.910156 18.394531 C 150.941406 16.851562 148.757812 18.691406 148.578125 20.023438 C 148.152344 23.277344 154.335938 25.90625 154.542969 20.828125 C 154.941406 20.601562 154.933594 19.960938 155.085938 19.476562 C 158.421875 17.285156 165.773438 16.394531 166.730469 21.371094 C 159.824219 21.605469 157.011719 25.921875 153.453125 29.507812 C 146.371094 29.535156 152.828125 38.773438 156.164062 33.839844 C 156.105469 32.988281 156.34375 31.851562 155.890625 31.398438 C 156.894531 29.46875 160.863281 27.125 163.480469 27.609375 C 165.132812 27.917969 168.484375 31.007812 168.621094 31.941406 C 169.101562 35.195312 163.085938 35.972656 160.496094 38.988281 C 158.949219 40.773438 158.257812 44.082031 156.703125 44.402344 C 149.1875 45.847656 159.890625 55.113281 159.957031 46.839844 C 161.234375 40.585938 173.253906 39.324219 171.875 47.660156 C 171.304688 51.070312 165.972656 53.128906 164.019531 57.140625 C 162.863281 59.507812 163.148438 61.210938 162.125 63.648438 C 161.957031 64.027344 161.074219 63.679688 161.042969 64.179688 C 151.71875 65.132812 164.578125 75.03125 163.746094 66.351562 C 164.074219 64.535156 165.9375 63.808594 167.265625 62.292969 C 169.371094 59.886719 170.886719 56.171875 174.847656 56.332031 C 176.011719 59.082031 179.277344 61.855469 179.453125 64.730469 C 179.71875 69.113281 172.183594 74.941406 173.492188 81.808594 C 173.09375 81.941406 172.808594 82.207031 172.410156 82.347656 C 164.867188 81.203125 171.226562 92.199219 174.847656 86.40625 L 174.847656 84.785156 C 174.835938 84.4375 174.503906 84.40625 174.578125 83.972656 C 178.175781 80.707031 179.8125 75.480469 184.058594 72.855469 C 186.597656 75.285156 188.277344 78.574219 190.558594 81.261719 C 190.066406 88.347656 187.46875 93.351562 186.769531 100.230469 C 186.417969 100.246094 186.382812 100.574219 185.953125 100.496094 C 177.730469 101.097656 188.046875 111.347656 188.9375 103.476562 C 192.472656 99.625 193.574219 93.304688 197.328125 89.660156 C 199.742188 93.074219 204.378906 94.644531 205.992188 98.332031 C 208.519531 104.097656 202.332031 111.546875 204.636719 119.460938 C 204.152344 119.886719 203.574219 120.207031 203.007812 120.550781 C 197.328125 122.589844 205.09375 129.589844 207.34375 124.609375 C 207.34375 123.898438 207.445312 123.070312 207.074219 122.714844 C 207.832031 119.152344 211.050781 116.726562 212.21875 112.964844 C 212.9375 110.6875 212.246094 108.550781 214.386719 107.003906 C 217.089844 109.34375 223.886719 111.96875 224.675781 118.109375 C 224.789062 118.929688 224.457031 120.476562 224.410156 121.363281 C 224.132812 126.351562 225.625 135.691406 222.511719 137.351562 C 219.683594 138.140625 220.78125 141.871094 222.777344 142.777344 C 224.492188 142.851562 226.050781 142.785156 226.84375 141.960938 C 226.84375 141.117188 227.484375 140.191406 226.84375 139.523438 C 229.175781 134.628906 231.996094 130.21875 232.808594 123.804688 C 239.019531 125.683594 244.351562 131.46875 244.714844 139.523438 C 244.855469 142.523438 243.792969 146.25 244.175781 149.542969 C 244.457031 151.976562 245.640625 153.929688 243.640625 155.503906 C 240.238281 157.847656 245.394531 162.0625 247.964844 159.304688 C 248.097656 158.328125 248.410156 157.734375 247.964844 156.867188 C 248.066406 153.089844 251.1875 151.78125 251.765625 147.917969 C 252.230469 144.757812 250.953125 142.214844 252.300781 138.703125 C 255.871094 139.394531 258.546875 143.289062 262.316406 144.667969 C 262.984375 146.945312 264.84375 148.71875 265.300781 151.984375 C 265.851562 155.894531 264.589844 160.40625 265.027344 163.90625 C 265.253906 165.671875 266.46875 167.035156 265.027344 168.242188 C 262.886719 172.914062 271.328125 173.546875 269.90625 169.058594 C 269.484375 166.617188 272.1875 164.0625 272.617188 160.929688 C 273.070312 157.648438 271.273438 155.179688 272.617188 151.988281 C 281.621094 154.871094 288.050781 160.941406 286.960938 173.121094 C 288.1875 173.988281 289.578125 173.019531 291.027344 173.664062 C 290.5 175.0625 289.296875 175.007812 288.050781 174.476562 C 287.148438 175.921875 287.074219 178.199219 286.417969 179.894531 C 284.371094 184.132812 292.226562 186.082031 291.574219 180.980469 C 291.148438 179.382812 293.316406 177.695312 292.105469 175.292969 C 296.601562 172.777344 291.980469 165.898438 292.652344 162.285156 C 297.894531 163.730469 302.769531 165.527344 305.925781 169.058594 C 306.121094 170.941406 306.78125 172.355469 307.546875 173.664062 C 306.953125 178.027344 307.601562 183.640625 305.652344 186.667969 C 305.019531 187.433594 305.613281 188.71875 305.925781 189.382812 C 306.789062 190.433594 309.113281 190.363281 309.984375 189.382812 L 309.984375 188.839844 C 309.890625 185.757812 310.710938 182.234375 310.804688 178.539062 C 311.566406 179.414062 310.136719 181.53125 311.066406 182.605469 C 312.476562 182.015625 311.917969 178.046875 311.617188 176.644531 C 314.3125 175.960938 312.390625 171.96875 312.695312 169.597656 C 317.582031 170.574219 321.722656 171.746094 324.066406 175.015625 C 326.703125 178.695312 325.914062 187.019531 323.800781 191.003906 C 319.601562 194.273438 329.296875 197.28125 327.589844 191.816406 C 326.171875 189.617188 330.003906 186.957031 330.570312 183.695312 C 331.351562 179.167969 328.824219 177.21875 328.398438 173.394531 C 330.511719 173.953125 332.769531 173.375 334.902344 173.941406 C 339.078125 175.042969 342.253906 181.125 341.667969 185.316406 C 341.363281 187.511719 339.027344 192.160156 338.425781 193.988281 C 338.039062 196.449219 339.753906 196.808594 341.136719 197.503906 C 342.035156 197.148438 342.824219 196.667969 343.300781 195.886719 L 343.300781 194.53125 C 342.007812 192.660156 343.914062 191.199219 344.65625 189.105469 C 345.15625 187.671875 345.6875 185.8125 345.734375 184.230469 C 345.878906 179.445312 343.03125 178.789062 342.214844 175.015625 C 351.652344 173.910156 358.496094 185.214844 350.882812 191.546875 C 345.542969 195.390625 357.820312 197.84375 353.859375 192.09375 L 353.859375 191.007812 C 354.902344 189.796875 356.171875 188.808594 357.109375 187.488281 C 358.578125 181.371094 355.394531 178.398438 353.859375 174.480469 C 358.75 172.691406 360.835938 177.820312 363.605469 179.898438 C 363.628906 180.277344 363.480469 180.488281 363.335938 180.707031 C 358.859375 181.867188 363.914062 188.03125 366.320312 184.5 C 366.339844 183.226562 366.453125 181.832031 365.503906 181.523438 C 364.484375 178.917969 362.710938 175.648438 362.253906 173.394531 C 364.207031 171.164062 368.8125 174.027344 367.949219 176.378906 C 366.785156 178.828125 369.027344 180.976562 367.675781 184.777344 C 366.558594 187.914062 363.214844 190.398438 362.253906 193.992188 C 361.378906 197.242188 361.597656 201.015625 361.171875 204.550781 C 358.703125 225.128906 350.394531 246.378906 342.492188 260.101562 C 340.28125 266.480469 335.933594 270.710938 333.277344 276.640625 C 324.984375 287.359375 316.578125 297.449219 306.738281 306.710938 C 297.683594 315.246094 287.433594 321.90625 276.671875 328.933594 C 265.617188 334.542969 253.277344 340.75 240.660156 344.917969 C 235.507812 346.628906 230.347656 347.894531 226.578125 351.699219 C 225.332031 349.960938 225.085938 347.230469 221.703125 347.628906 C 220.675781 346.679688 222.546875 346.324219 223.601562 346.542969 C 232.367188 347.359375 223.070312 334.804688 220.890625 343.292969 C 220.332031 343.367188 220.8125 344.484375 220.347656 344.660156 C 216.664062 345.652344 213.277344 344.191406 212.765625 341.136719 C 218.648438 342.179688 222.863281 337.492188 226.308594 334.351562 C 235.09375 334.46875 224.917969 322.691406 223.324219 331.375 C 221.832031 333.757812 218.632812 334.449219 215.742188 335.445312 C 214.027344 334.078125 212.332031 332.714844 210.324219 331.644531 C 210.40625 330.09375 213.070312 331.136719 214.386719 330.835938 C 218.585938 329.152344 220.296875 325 223.324219 322.164062 C 230.800781 320.105469 219.003906 311.058594 219.535156 319.726562 C 217.582031 324.195312 211.519531 325.875 207.628906 322.164062 C 206.128906 317.683594 209.511719 317.539062 211.683594 315.382812 C 214.140625 312.941406 215.574219 307.855469 217.097656 305.089844 C 223.777344 305.5 219.308594 295.992188 214.929688 299.941406 L 214.929688 302.113281 C 214.800781 302.378906 214.566406 302.882812 214.386719 303.183594 C 213.148438 305.347656 207.222656 311.515625 204.640625 311.054688 C 203.238281 310.804688 200.539062 305.890625 200.578125 304.816406 C 200.632812 303.449219 201.628906 303.371094 202.207031 302.378906 C 204.34375 298.6875 206.207031 293.4375 206.808594 289.105469 C 207.175781 289.019531 207.328125 288.71875 207.886719 288.828125 C 215.667969 288.234375 206.738281 278.800781 204.910156 285.578125 C 202.605469 289.761719 199.695312 293.371094 195.972656 296.152344 C 194.132812 295.457031 193.4375 293.625 192.1875 291.816406 C 191.210938 290.414062 189.078125 288.554688 188.9375 286.933594 C 188.664062 283.800781 193.335938 280.230469 193.535156 276.09375 C 193.617188 274.550781 192.734375 273.714844 192.996094 271.757812 C 193.476562 271.515625 193.789062 271.113281 194.351562 270.945312 C 201.945312 271.015625 194.515625 261.078125 191.914062 266.882812 C 188.691406 270.703125 185.574219 274.617188 183.25 279.351562 C 179.371094 276.730469 176.90625 272.691406 173.769531 269.320312 C 173.15625 266.070312 176.75 262.816406 177.023438 259.292969 C 177.222656 256.605469 175.265625 252.5 178.378906 251.976562 C 185.363281 248.800781 173.164062 241.957031 173.769531 249.269531 C 171.535156 253.449219 168.71875 257.039062 167.535156 262.273438 C 165.605469 261.769531 163.976562 259.785156 162.394531 258.210938 C 160.894531 256.707031 158.566406 255.089844 157.78125 253.601562 C 155.796875 249.777344 158.933594 246.90625 159.683594 243.308594 C 160.425781 239.765625 158.832031 234.734375 161.582031 233.824219 C 166.984375 230.101562 155.402344 224.339844 156.167969 231.921875 C 156.042969 233.902344 154.261719 234.535156 153.457031 235.988281 C 151.808594 238.949219 151.910156 242.402344 150.207031 245.472656 C 147.996094 245.378906 146.773438 243.308594 145.335938 241.949219 C 142.953125 239.691406 140.148438 238.132812 138.828125 235.175781 C 138.289062 230.140625 140.535156 225.136719 140.460938 220.820312 C 140.433594 219.078125 139.589844 217.890625 140.734375 217.023438 C 148.195312 213.800781 135.871094 206.695312 136.394531 213.773438 C 134.042969 217.914062 131.722656 222.097656 131.789062 228.679688 C 129.21875 228.332031 127.761719 225.859375 125.566406 224.066406 C 123.789062 222.613281 120.453125 221.121094 119.339844 219.1875 C 118.316406 217.425781 118.851562 215.421875 119.066406 212.957031 C 119.53125 207.492188 118.953125 202.113281 120.957031 200.222656 C 124.527344 195.78125 115.644531 192.679688 115.277344 198.058594 C 114.945312 202.167969 111.589844 204.445312 111.210938 208.347656 C 111.03125 210.238281 112.339844 211.613281 110.941406 213.773438 C 103.988281 209.730469 93.992188 207.53125 96.320312 195.074219 C 96.367188 194.21875 97.683594 194.640625 97.671875 193.710938 C 97.023438 191.183594 97.695312 189.054688 99.296875 188.023438 C 102.074219 183.855469 92.375 182.578125 94.421875 186.941406 C 94.386719 189.011719 96.253906 188.570312 95.773438 189.921875 C 94.914062 190.703125 95.398438 188.5 94.148438 188.84375 C 89.851562 190.335938 90.773438 197.824219 90.628906 202.652344 C 86.769531 201.796875 82.679688 198.890625 78.714844 197.242188 C 74.808594 192.320312 77.558594 183.695312 80.339844 179.351562 C 85.847656 175.335938 73.210938 170.664062 74.648438 177.453125 C 75.417969 180.023438 72.480469 181.878906 71.945312 185.320312 C 71.34375 189.160156 72.371094 191.574219 72.214844 194.261719 C 67.53125 192.980469 62.878906 191.675781 60.027344 188.570312 C 59.289062 183.101562 58.910156 180.132812 60.027344 174.746094 C 60.386719 174.472656 60.84375 174.300781 61.105469 173.941406 C 66.707031 171.917969 60.699219 164.746094 56.777344 168.519531 C 56.546875 169.1875 56.425781 169.96875 56.503906 170.953125 C 56.140625 173.859375 53.53125 175.046875 52.988281 178.542969 C 52.246094 183.238281 53.894531 185.789062 54.335938 188.570312 C 50.234375 189.542969 49.578125 187.0625 47.835938 185.859375 C 46.792969 185.140625 45.113281 184.90625 44.046875 183.96875 C 42.8125 182.875 42.367188 181.558594 41.335938 180.707031 C 40.253906 175.933594 41.597656 172.917969 44.046875 170.414062 C 52.261719 168.777344 41.238281 158.691406 39.714844 166.621094 C 39.21875 169.101562 37.894531 170.769531 36.464844 172.308594 C 36.5625 174.054688 36.046875 175.40625 36.191406 176.917969 C 36.539062 180.390625 38.949219 183.039062 38.898438 185.859375 C 34.726562 188.222656 31.550781 184.257812 28.886719 182.609375 C 26.242188 179.28125 27.304688 173.390625 30.5 171.5 C 32.195312 171.742188 32.523438 170.625 33.210938 169.871094 C 33.148438 168.214844 32.351562 167.300781 31.855469 166.082031 C 29.175781 165.191406 26.601562 166.714844 27.253906 169.0625 L 27.253906 169.871094 C 22.921875 173.722656 23.210938 181.648438 26.171875 186.394531 C 20.3125 189.253906 13.964844 183.351562 16.964844 177.1875 C 17.28125 176.960938 17.695312 176.832031 18.320312 176.921875 C 24.1875 175.757812 16.140625 169.191406 15.347656 174.75 C 14.984375 176.277344 13.511719 177.128906 13.175781 178.8125 C 12.472656 182.300781 14.527344 185.671875 15.347656 188.300781 C 12.617188 190.695312 7.183594 187.066406 9.382812 183.699219 C 10.855469 183.722656 10.78125 182.203125 11.550781 181.523438 C 10.929688 179.800781 9.578125 178.929688 7.753906 179.085938 C 8.945312 173.585938 10.664062 168.617188 12.898438 164.183594 C 15.023438 152.941406 16.8125 141.355469 20.753906 131.933594 L 20.753906 130.035156 C 23.191406 124.882812 25.335938 119.449219 27.253906 113.777344 C 29.757812 110.777344 30.644531 107.015625 32.398438 103.753906 C 32.75 103.113281 33.617188 102.804688 34.027344 102.128906 C 34.59375 101.199219 34.59375 99.753906 35.109375 98.875 C 36.367188 96.75 38.90625 94.339844 40.253906 91.832031 C 40.496094 91.398438 40.273438 90.589844 40.53125 90.199219 C 41.648438 88.46875 43.820312 86.300781 45.402344 84.242188 C 47.015625 82.144531 48.332031 79.542969 49.734375 78.011719 C 62.609375 63.933594 76.617188 49.859375 93.605469 39.53125 C 104.984375 32.609375 118.078125 26.222656 132.0625 21.375 C 135.695312 20.117188 140.910156 19.574219 143.976562 17.578125 C 147.664062 15.183594 149.265625 9.820312 154.265625 8.363281 C 154.933594 10.894531 159.585938 13.742188 161.042969 9.996094 Z M 161.042969 9.996094 " fill-opacity="1" fill-rule="evenodd"/><path fill="#010101" d="M 185.140625 12.972656 C 192.035156 13.902344 185.796875 22.527344 182.707031 16.765625 L 182.707031 16.226562 L 185.691406 16.226562 C 186.457031 15.054688 183.929688 14.535156 185.140625 12.972656 Z M 185.140625 12.972656 " fill-opacity="1" fill-rule="evenodd"/><path fill="#010101" d="M 156.707031 44.402344 C 157.4375 45.109375 156.570312 46.996094 156.984375 47.382812 C 158.621094 47.769531 158.230469 46.105469 159.6875 46.308594 C 159.746094 46.511719 159.691406 46.839844 159.964844 46.839844 C 159.898438 55.113281 149.195312 45.847656 156.707031 44.402344 Z M 156.707031 44.402344 " fill-opacity="1" fill-rule="evenodd"/><path fill="#010101" d="M 210.0625 68.519531 L 209.25 68.519531 C 209.015625 67.511719 210.152344 67.25 209.515625 66.632812 C 208.902344 65.375 207.101562 66.859375 206.269531 66.082031 L 206.269531 65.816406 C 207.445312 61.609375 214.285156 66.65625 210.0625 68.519531 Z M 210.0625 68.519531 " fill-opacity="1" fill-rule="evenodd"/><path fill="#010101" d="M 172.417969 82.351562 C 172.960938 83.378906 171.21875 84.136719 171.0625 85.328125 C 171.367188 85.386719 171.484375 85.628906 171.605469 85.871094 C 173.359375 86.175781 172.941406 84.320312 174.855469 84.789062 L 174.855469 86.410156 C 171.234375 92.203125 164.875 81.210938 172.417969 82.351562 Z M 172.417969 82.351562 " fill-opacity="1" fill-rule="evenodd"/><path fill="#010101" d="M 235.515625 97.257812 C 234.367188 97.21875 235.246094 95.167969 234.96875 94.269531 C 233.890625 92.957031 232.246094 94.648438 231.179688 94 C 231.738281 89.898438 237.285156 91.984375 237.410156 95.082031 C 237.011719 96.046875 236.320312 96.699219 235.515625 97.257812 Z M 235.515625 97.257812 " fill-opacity="1" fill-rule="evenodd"/><path fill="#010101" d="M 203.011719 120.554688 C 203.449219 121.378906 203.351562 122.75 203.835938 123.53125 C 205.542969 123.972656 205.730469 121.777344 207.078125 122.714844 C 207.449219 123.074219 207.34375 123.898438 207.34375 124.613281 C 205.097656 129.589844 197.332031 122.59375 203.011719 120.554688 Z M 203.011719 120.554688 " fill-opacity="1" fill-rule="evenodd"/><path fill="#010101" d="M 317.027344 148.1875 C 317.421875 148.238281 317.277344 148.839844 317.304688 149.273438 C 316.535156 149.625 315.984375 147.984375 317.027344 148.1875 Z M 317.027344 148.1875 " fill-opacity="1" fill-rule="evenodd"/><path fill="#d81921" d="M 368.761719 159.578125 C 366.847656 157.417969 365.742188 154.464844 363.339844 152.804688 C 364.0625 151.941406 362.753906 150.636719 364.15625 150.363281 C 367.503906 151.496094 370.128906 154.597656 368.761719 159.578125 Z M 368.761719 159.578125 " fill-opacity="1" fill-rule="evenodd"/><path fill="#ffffff" d="M 363.339844 152.804688 C 365.742188 154.464844 366.847656 157.417969 368.761719 159.578125 C 368.582031 162.5625 366.996094 164.128906 366.050781 166.347656 C 365.851562 166.363281 365.765625 166.390625 365.777344 166.621094 C 365.597656 163.359375 365.246094 155.914062 361.710938 153.875 C 361.710938 153.613281 361.9375 153.5625 361.984375 153.34375 C 362.222656 152.9375 362.667969 152.761719 363.339844 152.804688 Z M 363.339844 152.804688 " fill-opacity="1" fill-rule="evenodd"/><path fill="#010101" d="M 80.34375 179.351562 C 78.429688 179.460938 79.328125 176.753906 77.898438 176.378906 C 76.113281 175.945312 76.179688 178.503906 74.652344 177.453125 C 73.214844 170.660156 85.851562 175.335938 80.34375 179.351562 Z M 80.34375 179.351562 " fill-opacity="1" fill-rule="evenodd"/><path fill="#ffffff" d="M 96.585938 186.390625 C 97.152344 186.289062 97.300781 186.574219 97.671875 186.667969 C 97.710938 187.152344 97.335938 187.234375 97.398438 187.75 C 96.449219 187.632812 96.25 187.179688 96.585938 186.390625 Z M 96.585938 186.390625 " fill-opacity="1" fill-rule="evenodd"/><path fill="#ffffff" d="M 8.03125 190.191406 C 7.8125 189.679688 7.585938 189.203125 7.484375 188.566406 C 7.703125 188.5 7.804688 188.339844 7.757812 188.019531 C 8.792969 187.957031 9.109375 189.511719 8.574219 190.191406 Z M 8.03125 190.191406 " fill-opacity="1" fill-rule="evenodd"/><path fill="#ffffff" d="M 34.839844 206.996094 C 33.347656 211.117188 40.839844 212.542969 41.890625 208.894531 C 41.40625 207.929688 41.9375 205.949219 40.792969 205.640625 C 39.652344 202.875 38.441406 199.417969 39.179688 196.148438 C 40.539062 190.054688 47.785156 190.011719 53.25 192.632812 C 50.46875 196.160156 47.019531 199.039062 46.480469 204.824219 C 46.375 206.203125 47.433594 206.414062 47.835938 207.265625 C 47.851562 207.640625 47.710938 207.859375 47.570312 208.078125 C 40.886719 211.589844 53.292969 217.910156 53.25 210.511719 C 53.179688 205.417969 53.367188 199.269531 57.316406 196.699219 C 60.582031 194.5625 66.933594 195.355469 69.503906 198.054688 C 66.761719 201.65625 57.890625 207.496094 62.734375 213.222656 C 62.648438 213.589844 62.355469 213.746094 62.460938 214.308594 C 58.660156 218.78125 70.886719 221.847656 68.695312 215.117188 C 68.6875 214.589844 67.957031 214.78125 68.152344 214.042969 C 70.25 209.992188 71.464844 205.074219 75.464844 202.929688 C 81.386719 202.511719 85.378906 204.019531 88.738281 206.183594 C 85.003906 210.394531 79.054688 212.390625 78.175781 219.460938 C 74.851562 223.019531 81.496094 228.011719 83.585938 223.796875 C 87.710938 218.949219 90.214844 210.753906 99.027344 211.605469 C 102.820312 211.964844 105.238281 215.191406 108.5 216.75 C 105.511719 221.285156 97.019531 221.636719 97.398438 228.679688 C 97.125 228.933594 96.855469 229.207031 96.585938 229.492188 C 95.253906 229.78125 95.082031 231.222656 94.421875 232.195312 C 95.300781 235.378906 99.957031 236.914062 102.003906 233.820312 C 102.003906 233.101562 102.109375 232.269531 101.738281 231.921875 L 101.738281 231.113281 C 106.773438 229.492188 109.429688 223.457031 115.820312 223.792969 C 120.113281 224.023438 122.960938 226.59375 125.292969 228.679688 C 126.621094 229.847656 128.457031 230.835938 128.8125 232.464844 C 124.277344 235.875 117.339844 236.882812 113.644531 241.136719 C 106.011719 242.601562 116.921875 252.121094 117.710938 244.386719 C 118.015625 244.332031 118.128906 244.085938 118.253906 243.84375 C 124.375 245.84375 128.007812 241.074219 132.601562 240.871094 C 134.371094 240.785156 135.527344 241.996094 137.484375 242.488281 C 141.351562 243.476562 141.476562 243.171875 143.980469 245.472656 C 146.269531 247.574219 148.410156 249.816406 144.792969 251.699219 C 140.601562 253.898438 132.300781 252.457031 129.085938 255.5 C 124.515625 257.429688 130.875 263.976562 133.683594 260.101562 C 136.089844 258.039062 137.785156 260.667969 140.734375 260.644531 C 144.765625 260.609375 148.769531 257.4375 152.914062 258.207031 C 154.566406 258.503906 160.964844 262.859375 161.046875 264.4375 C 161.226562 268.101562 148.574219 270.460938 145.335938 269.320312 C 137.507812 268.984375 143.898438 279.914062 147.769531 274.738281 C 149.550781 273.371094 151.371094 276.179688 153.191406 276.359375 C 155.074219 276.554688 157.199219 275.75 158.878906 275.28125 C 161.4375 274.5625 164.582031 272.613281 166.734375 272.574219 C 167.753906 272.546875 169.417969 273.359375 170.792969 273.921875 C 174.632812 275.5 177.371094 277.503906 178.640625 280.980469 C 174.660156 284.921875 164.945312 285.371094 159.417969 283.402344 C 158.453125 282.921875 157.214844 283.21875 156.441406 283.679688 C 155.613281 284.398438 155.566406 285.875 155.625 287.472656 C 156.445312 288.878906 160.746094 289.675781 161.3125 287.472656 C 161.851562 287.464844 161.660156 286.738281 162.394531 286.929688 C 165.257812 288.675781 168.117188 290.386719 172.414062 290.457031 C 175.683594 290.507812 178.613281 288.332031 180.8125 288.289062 C 182.292969 288.25 185.628906 289.675781 187.03125 290.726562 C 188.285156 291.644531 190.640625 294.339844 190.5625 295.871094 C 190.5 297.097656 188.285156 298.738281 187.03125 299.121094 C 181.417969 300.859375 174.515625 297.644531 170.519531 296.6875 C 168.34375 296.675781 167.628906 298.121094 166.734375 299.398438 C 167.320312 301.96875 172.003906 304.183594 173.230469 300.757812 C 173.53125 300.695312 173.648438 300.453125 173.769531 300.207031 C 178.203125 302.960938 183.730469 305.691406 190.027344 304.273438 C 191.4375 303.953125 192.464844 303.03125 193.808594 303.183594 C 195.929688 303.441406 196.910156 305.625 197.875 307.257812 C 198.589844 308.480469 199.3125 309.832031 199.496094 311.050781 C 195.578125 314.546875 186.074219 312.417969 181.894531 310.507812 C 175.730469 305.699219 174.472656 317.429688 182.160156 314.839844 C 185.980469 319.015625 196.300781 320.132812 201.664062 316.746094 C 203.011719 319.085938 204.414062 321.386719 204.640625 324.871094 C 201.648438 327.617188 194.980469 326.144531 191.917969 324.320312 C 190.710938 321.308594 186.195312 322.589844 185.953125 325.140625 C 185.742188 327.480469 188.242188 329.453125 191.097656 328.660156 C 192.707031 328.054688 194.332031 330.066406 196.242188 330.558594 C 199.261719 331.339844 203.410156 330.53125 205.457031 330.558594 C 206.738281 331.519531 206.890625 334.066406 206.8125 335.972656 C 202.765625 337.035156 197.332031 336.035156 194.621094 334.078125 C 189.929688 329.351562 186.054688 339.78125 193.273438 338.960938 C 197.152344 340.421875 202.828125 340.710938 207.078125 340.316406 C 207.484375 342.117188 207.550781 344.089844 206.808594 345.464844 C 204.023438 346.085938 200.1875 345.660156 198.140625 344.660156 C 197.21875 341.707031 192.140625 341.953125 191.914062 345.191406 C 191.789062 347.003906 193.230469 347.316406 193.808594 348.980469 C 187.734375 348.660156 191.882812 357.550781 195.707031 353.863281 C 197.714844 354.703125 203.164062 354.308594 205.996094 355.214844 C 206.207031 356.15625 205.695312 356.359375 205.453125 356.84375 C 204.917969 357.125 204.292969 357.308594 204.097656 357.929688 C 196.105469 360.675781 188.402344 354.464844 181.894531 353.324219 C 176.949219 352.457031 171.847656 353.113281 167.269531 352.773438 C 149.398438 351.496094 131.351562 345.746094 117.441406 340.316406 C 105.039062 335.464844 93.464844 328.769531 83.042969 321.355469 C 73.011719 314.195312 64.332031 306.773438 55.96875 297.765625 C 46.558594 287.640625 38.261719 276.328125 31.589844 263.632812 C 25.625 252.28125 20.367188 240.148438 16.964844 226.507812 C 16.730469 225.59375 16.9375 224.683594 16.699219 223.792969 C 16.214844 222.015625 13.691406 218.800781 13.988281 216.476562 C 14.160156 215.144531 17.3125 213.425781 14.53125 212.144531 C 8.828125 209.820312 4.605469 195.476562 13.175781 193.988281 C 13.703125 197.320312 11.570312 200.640625 12.640625 204.28125 C 13.300781 206.566406 16.78125 206.777344 16.421875 209.429688 C 14.605469 213.011719 22.703125 213.558594 21.03125 209.707031 C 19.800781 204.546875 13.429688 201.960938 15.609375 195.070312 C 16.367188 192.695312 19.160156 191.039062 22.386719 191.273438 C 22.449219 192.65625 21.644531 195.371094 20.753906 196.699219 C 20.351562 201.433594 21.996094 204.132812 24.554688 205.90625 C 24.636719 206.527344 24.507812 206.953125 24.277344 207.261719 C 21.625 211.21875 31.644531 213.304688 29.699219 207.808594 C 27.472656 203.714844 23.617188 195.910156 27.796875 191.273438 C 28.171875 190.867188 29.175781 190.804688 29.425781 190.191406 C 31.859375 190.507812 34.441406 189.671875 36.195312 190.191406 C 34.492188 193.648438 30.722656 197.410156 32.402344 202.652344 C 32.933594 204.320312 35.214844 204.601562 34.839844 206.996094 Z M 34.839844 206.996094 " fill-opacity="1" fill-rule="evenodd"/><path fill="#ffffff" d="M 94.964844 191.277344 C 95.398438 191.199219 95.425781 191.53125 95.777344 191.546875 C 95.929688 192.785156 95.300781 193.234375 95.5 194.53125 C 94.8125 193.960938 94.980469 192.527344 94.964844 191.277344 Z M 94.964844 191.277344 " fill-opacity="1" fill-rule="evenodd"/><path fill="#010101" d="M 120.957031 200.222656 C 119.660156 199.710938 120.152344 197.417969 118.253906 197.507812 C 116.929688 197.457031 116.835938 198.625 115.542969 198.59375 C 115.480469 198.386719 115.535156 198.058594 115.273438 198.058594 C 115.644531 192.675781 124.527344 195.777344 120.957031 200.222656 Z M 120.957031 200.222656 " fill-opacity="1" fill-rule="evenodd"/><path fill="#ffffff" d="M 94.964844 197.242188 C 95.378906 196.753906 95.21875 199.136719 95.5 199.675781 C 94.410156 199.785156 95.207031 197.984375 94.964844 197.242188 Z M 94.964844 197.242188 " fill-opacity="1" fill-rule="evenodd"/><path fill="#010101" d="M 161.585938 233.820312 C 161.242188 233.832031 161.207031 234.171875 160.773438 234.089844 C 160.308594 233.4375 161.441406 232.554688 161.046875 231.113281 C 160.980469 230.359375 160.042969 230.496094 159.683594 230.03125 C 158.125 230.265625 158.042969 231.992188 156.171875 231.921875 C 155.40625 224.335938 166.984375 230.097656 161.585938 233.820312 Z M 161.585938 233.820312 " fill-opacity="1" fill-rule="evenodd"/><path fill="#010101" d="M 96.585938 229.492188 C 97.796875 229.804688 96.605469 232.539062 97.398438 233.273438 C 97.769531 233.265625 97.996094 233.410156 98.210938 233.546875 C 99.929688 233.554688 99.957031 231.863281 101.738281 231.921875 C 102.109375 232.269531 102 233.101562 102 233.820312 C 99.957031 236.914062 95.296875 235.378906 94.417969 232.195312 C 95.078125 231.222656 95.253906 229.78125 96.585938 229.492188 Z M 96.585938 229.492188 " fill-opacity="1" fill-rule="evenodd"/><path fill="#010101" d="M 129.089844 255.5 L 129.898438 255.5 C 130.109375 256.886719 129.519531 257.472656 129.632812 258.75 C 129.695312 259.132812 130.074219 259.210938 130.171875 259.5625 C 131.835938 260.027344 132.628906 258.550781 133.6875 259.289062 L 133.6875 260.101562 C 130.878906 263.976562 124.515625 257.429688 129.089844 255.5 Z M 129.089844 255.5 " fill-opacity="1" fill-rule="evenodd"/><path fill="#010101" d="M 145.332031 269.316406 C 145.480469 270.980469 143.394531 271.609375 143.976562 272.84375 C 143.851562 274.84375 147.601562 273.007812 147.765625 274.734375 C 143.894531 279.910156 137.503906 268.980469 145.332031 269.316406 Z M 145.332031 269.316406 " fill-opacity="1" fill-rule="evenodd"/><path fill="#010101" d="M 217.101562 305.089844 C 215.492188 303.296875 218.535156 302.445312 218.726562 300.753906 C 217.183594 300.804688 216.371094 302.824219 214.933594 302.109375 L 214.933594 299.9375 C 219.3125 295.988281 223.78125 305.496094 217.101562 305.089844 Z M 217.101562 305.089844 " fill-opacity="1" fill-rule="evenodd"/><path fill="#010101" d="M 194.625 334.074219 C 194.734375 334.460938 194.953125 334.535156 194.625 334.886719 C 194.078125 335.171875 192.410156 334.710938 191.101562 334.886719 C 190.53125 336.527344 193.640625 336.636719 193.539062 338.679688 C 193.378906 338.699219 193.21875 338.726562 193.273438 338.953125 C 186.058594 339.777344 189.933594 329.347656 194.625 334.074219 Z M 194.625 334.074219 " fill-opacity="1" fill-rule="evenodd"/><path fill="#ffffff" d="M 196.523438 351.148438 C 196.183594 350.578125 195.738281 350.125 195.167969 349.792969 C 195.421875 348.957031 196.667969 349.125 197.066406 348.4375 C 199.492188 347.117188 203.277344 349.746094 206.539062 348.4375 C 206.957031 349.421875 207.003906 350.144531 206.8125 351.148438 C 204.859375 352.769531 198.125 353.980469 196.523438 351.148438 Z M 196.523438 351.148438 " fill-opacity="1" fill-rule="evenodd"/><path fill="#ffffff" d="M 220.890625 348.175781 C 220.765625 348.953125 219.9375 349.019531 220.082031 350.070312 C 218.375 351.097656 214.148438 351.292969 213.035156 349.535156 C 216.171875 349.496094 218.023438 348.191406 220.890625 347.902344 Z M 220.890625 348.175781 " fill-opacity="1" fill-rule="evenodd"/><path fill="#ffffff" d="M 221.433594 352.777344 C 221.984375 353.039062 222.503906 353.335938 223.058594 353.597656 C 220.496094 355.523438 214.496094 357.132812 211.414062 354.683594 C 214.664062 353.953125 218.226562 353.539062 221.433594 352.777344 Z M 221.433594 352.777344 " fill-opacity="1" fill-rule="evenodd"/><path fill="#d81921" d="M 44.046875 170.40625 C 41.597656 172.914062 40.257812 175.925781 41.339844 180.699219 C 42.371094 181.554688 42.816406 182.867188 44.046875 183.960938 C 45.113281 184.902344 46.792969 185.132812 47.835938 185.855469 C 49.578125 187.058594 50.238281 189.535156 54.335938 188.5625 C 53.898438 185.785156 52.25 183.230469 52.992188 178.535156 C 53.53125 175.039062 56.140625 173.851562 56.507812 170.949219 C 57.644531 171.761719 57.832031 169.675781 59.492188 170.132812 C 59.492188 170.394531 59.8125 170.347656 60.027344 170.40625 C 61.332031 171.230469 59.398438 173.644531 61.105469 173.9375 C 60.847656 174.296875 60.390625 174.46875 60.027344 174.742188 C 58.914062 180.128906 59.289062 183.09375 60.027344 188.5625 C 62.882812 191.671875 67.53125 192.976562 72.214844 194.253906 C 72.375 191.570312 71.34375 189.15625 71.949219 185.3125 C 72.484375 181.875 75.417969 180.019531 74.648438 177.449219 C 76.175781 178.5 76.109375 175.9375 77.898438 176.371094 C 79.328125 176.746094 78.429688 179.457031 80.339844 179.347656 C 77.558594 183.691406 74.808594 192.3125 78.714844 197.238281 C 82.679688 198.886719 86.773438 201.789062 90.628906 202.648438 C 90.773438 197.820312 89.851562 190.332031 94.152344 188.835938 C 95.398438 188.496094 94.914062 190.699219 95.777344 189.917969 C 96.257812 188.5625 94.386719 189.007812 94.421875 186.9375 C 95.988281 184.46875 98.480469 185.613281 99.296875 188.019531 C 97.695312 189.046875 97.027344 191.179688 97.671875 193.707031 C 97.6875 194.632812 96.367188 194.214844 96.320312 195.066406 C 93.996094 207.527344 103.988281 209.722656 110.941406 213.769531 C 112.339844 211.605469 111.03125 210.234375 111.210938 208.34375 C 111.589844 204.441406 114.945312 202.164062 115.277344 198.054688 C 115.539062 198.054688 115.484375 198.382812 115.542969 198.589844 C 116.839844 198.621094 116.933594 197.453125 118.253906 197.503906 C 120.15625 197.414062 119.664062 199.707031 120.960938 200.21875 C 118.957031 202.109375 119.53125 207.488281 119.066406 212.949219 C 118.855469 215.414062 118.316406 217.421875 119.339844 219.183594 C 120.457031 221.117188 123.792969 222.609375 125.566406 224.0625 C 127.765625 225.855469 129.21875 228.328125 131.792969 228.675781 C 131.722656 222.089844 134.042969 217.90625 136.394531 213.769531 C 138.300781 214.132812 137.785156 212.085938 139.921875 212.679688 C 141.078125 213.789062 139.792969 216.0625 140.734375 217.019531 C 139.589844 217.886719 140.433594 219.070312 140.460938 220.816406 C 140.535156 225.132812 138.292969 230.136719 138.828125 235.171875 C 140.148438 238.128906 142.953125 239.6875 145.335938 241.945312 C 146.773438 243.304688 147.996094 245.375 150.207031 245.46875 C 151.910156 242.398438 151.808594 238.941406 153.460938 235.984375 C 154.261719 234.53125 156.042969 233.894531 156.167969 231.917969 C 158.042969 231.988281 158.121094 230.265625 159.683594 230.027344 C 160.042969 230.488281 160.980469 230.355469 161.046875 231.109375 C 161.4375 232.550781 160.308594 233.433594 160.773438 234.085938 C 161.207031 234.167969 161.238281 233.828125 161.585938 233.816406 C 158.832031 234.726562 160.429688 239.761719 159.683594 243.304688 C 158.933594 246.898438 155.796875 249.769531 157.785156 253.59375 C 158.570312 255.085938 160.894531 256.703125 162.394531 258.203125 C 163.976562 259.78125 165.605469 261.765625 167.539062 262.269531 C 168.722656 257.035156 171.539062 253.441406 173.769531 249.261719 C 175.707031 249.386719 176.820312 246.742188 178.640625 248.449219 C 178.933594 249.960938 176.933594 251 178.382812 251.972656 C 175.265625 252.496094 177.226562 256.601562 177.027344 259.285156 C 176.753906 262.8125 173.160156 266.0625 173.769531 269.316406 C 176.910156 272.683594 179.371094 276.722656 183.25 279.347656 C 185.578125 274.613281 188.695312 270.695312 191.917969 266.878906 C 192.136719 268.820312 194.058594 265.964844 195.164062 267.144531 C 196.195312 268.871094 193.210938 269.101562 194.355469 270.941406 C 193.789062 271.105469 193.480469 271.507812 193 271.753906 C 192.734375 273.710938 193.617188 274.546875 193.535156 276.089844 C 193.339844 280.226562 188.667969 283.796875 188.941406 286.929688 C 189.078125 288.546875 191.210938 290.40625 192.1875 291.8125 C 193.4375 293.617188 194.132812 295.453125 195.976562 296.144531 C 199.699219 293.363281 202.609375 289.757812 204.914062 285.574219 C 205.910156 286.972656 207.386719 284.351562 208.707031 285.300781 C 208.550781 286.507812 207.804688 287.105469 207.078125 287.734375 C 206.847656 288.613281 207.785156 288.308594 207.890625 288.824219 C 207.332031 288.710938 207.179688 289.011719 206.8125 289.101562 C 206.210938 293.433594 204.347656 298.679688 202.210938 302.375 C 201.632812 303.367188 200.632812 303.445312 200.582031 304.8125 C 200.542969 305.882812 203.238281 310.800781 204.640625 311.046875 C 207.226562 311.511719 213.152344 305.34375 214.390625 303.179688 C 214.570312 302.878906 214.800781 302.375 214.933594 302.105469 C 216.371094 302.824219 217.183594 300.804688 218.726562 300.753906 C 218.535156 302.445312 215.492188 303.296875 217.101562 305.085938 C 215.578125 307.847656 214.144531 312.933594 211.6875 315.378906 C 209.511719 317.535156 206.128906 317.675781 207.628906 322.15625 C 211.523438 325.871094 217.585938 324.191406 219.535156 319.722656 C 220.835938 320.367188 221.277344 318.101562 223.058594 318.367188 C 223.757812 319.730469 222.128906 321.15625 223.328125 322.15625 C 220.300781 324.996094 218.589844 329.148438 214.390625 330.832031 C 213.074219 331.132812 210.410156 330.089844 210.328125 331.640625 C 212.335938 332.707031 214.03125 334.074219 215.746094 335.441406 C 218.636719 334.445312 221.832031 333.753906 223.328125 331.371094 C 224.203125 332.0625 225.769531 329.960938 227.125 331.097656 C 227.503906 332.746094 225.492188 333.128906 226.3125 334.347656 C 222.867188 337.488281 218.652344 342.175781 212.769531 341.132812 C 213.28125 344.1875 216.667969 345.648438 220.347656 344.65625 C 220.816406 344.480469 220.335938 343.363281 220.894531 343.289062 C 221.226562 345.066406 223.605469 343.554688 224.683594 343.566406 C 225.035156 345.1875 222.535156 345.066406 223.605469 346.539062 C 222.550781 346.320312 220.679688 346.675781 221.703125 347.625 C 221.503906 347.875 221.207031 348.035156 220.894531 348.171875 L 220.894531 347.898438 C 218.023438 348.183594 216.175781 349.488281 213.035156 349.53125 C 214.152344 351.289062 218.375 351.09375 220.082031 350.066406 C 220.835938 350.988281 221.945312 350.058594 222.785156 350.605469 C 223.683594 351.777344 221.132812 351.355469 221.433594 352.769531 C 218.222656 353.53125 214.664062 353.949219 211.414062 354.675781 C 208.558594 352.867188 207.613281 356.285156 205.457031 356.839844 C 205.699219 356.355469 206.210938 356.152344 206 355.210938 C 203.167969 354.304688 197.71875 354.699219 195.710938 353.859375 C 195.800781 352.691406 194.210938 353.195312 194.355469 351.957031 C 195.421875 352.035156 196.238281 351.855469 196.523438 351.148438 C 198.125 353.984375 204.859375 352.769531 206.8125 351.148438 C 207.003906 350.148438 206.957031 349.421875 206.539062 348.441406 C 203.277344 349.75 199.492188 347.117188 197.066406 348.441406 C 197.566406 345.949219 194.230469 347.304688 194.355469 345.1875 C 195.269531 344.269531 197.539062 346.101562 198.144531 344.65625 C 200.191406 345.65625 204.027344 346.082031 206.8125 345.460938 C 207.554688 344.085938 207.488281 342.113281 207.082031 340.3125 C 202.828125 340.707031 197.15625 340.417969 193.277344 338.957031 C 193.222656 338.726562 193.382812 338.699219 193.539062 338.683594 C 193.640625 336.640625 190.53125 336.53125 191.101562 334.890625 C 192.410156 334.714844 194.082031 335.171875 194.625 334.890625 C 194.953125 334.539062 194.734375 334.464844 194.625 334.074219 C 197.335938 336.03125 202.769531 337.035156 206.816406 335.972656 C 206.894531 334.066406 206.742188 331.515625 205.460938 330.558594 C 203.414062 330.53125 199.269531 331.339844 196.246094 330.558594 C 194.335938 330.0625 192.710938 328.050781 191.101562 328.660156 C 190.875 326.453125 188.078125 326.808594 187.855469 324.59375 C 189.089844 323.371094 191.144531 325.996094 191.921875 324.316406 C 194.984375 326.144531 201.65625 327.617188 204.644531 324.871094 C 204.417969 321.386719 203.015625 319.082031 201.667969 316.742188 C 196.304688 320.128906 185.984375 319.011719 182.167969 314.839844 C 182.257812 314.207031 182.125 313.800781 181.898438 313.484375 C 181.136719 312.980469 179.367188 313.492188 178.644531 312.941406 C 178.878906 312.179688 178.265625 312.230469 178.386719 311.585938 C 179.050781 310.730469 180.972656 311.109375 181.898438 310.507812 C 186.082031 312.414062 195.582031 314.542969 199.5 311.046875 C 199.316406 309.832031 198.59375 308.476562 197.878906 307.253906 C 196.917969 305.625 195.933594 303.4375 193.8125 303.179688 C 192.472656 303.027344 191.441406 303.949219 190.03125 304.269531 C 183.734375 305.6875 178.207031 302.957031 173.773438 300.203125 C 173.652344 300.449219 173.535156 300.691406 173.234375 300.753906 C 173.335938 298.667969 170.6875 300.125 169.441406 299.933594 C 168.339844 298.316406 171.128906 297.765625 170.523438 296.683594 C 174.519531 297.640625 181.421875 300.859375 187.039062 299.121094 C 188.289062 298.738281 190.507812 297.09375 190.566406 295.871094 C 190.644531 294.335938 188.289062 291.640625 187.039062 290.722656 C 185.636719 289.671875 182.300781 288.246094 180.820312 288.289062 C 178.617188 288.328125 175.6875 290.507812 172.421875 290.457031 C 168.121094 290.382812 165.261719 288.671875 162.398438 286.929688 C 161.664062 286.734375 161.855469 287.460938 161.316406 287.46875 C 161.136719 285.566406 158.527344 287.734375 157.527344 286.65625 L 157.527344 285.574219 C 157.441406 284.066406 160.460938 285.058594 159.421875 283.402344 C 164.949219 285.371094 174.664062 284.921875 178.644531 280.976562 C 177.375 277.5 174.636719 275.496094 170.796875 273.917969 C 169.421875 273.355469 167.757812 272.542969 166.738281 272.570312 C 164.585938 272.609375 161.445312 274.558594 158.886719 275.277344 C 157.203125 275.75 155.078125 276.554688 153.195312 276.359375 C 151.375 276.175781 149.558594 273.367188 147.777344 274.734375 C 147.609375 273.011719 143.863281 274.847656 143.988281 272.84375 C 143.402344 271.609375 145.492188 270.980469 145.34375 269.316406 C 148.582031 270.460938 161.230469 268.101562 161.050781 264.433594 C 160.972656 262.859375 154.574219 258.503906 152.921875 258.203125 C 148.773438 257.433594 144.769531 260.605469 140.738281 260.640625 C 137.789062 260.667969 136.09375 258.035156 133.6875 260.097656 L 133.6875 259.285156 C 132.632812 258.550781 131.835938 260.023438 130.175781 259.558594 C 130.078125 259.210938 129.699219 259.132812 129.636719 258.746094 C 129.523438 257.472656 130.113281 256.882812 129.898438 255.496094 L 129.09375 255.496094 C 132.308594 252.457031 140.609375 253.894531 144.796875 251.699219 C 148.414062 249.816406 146.277344 247.570312 143.988281 245.46875 C 141.484375 243.167969 141.359375 243.472656 137.492188 242.484375 C 135.53125 241.992188 134.375 240.78125 132.609375 240.867188 C 128.015625 241.070312 124.382812 245.839844 118.261719 243.84375 C 118.136719 244.082031 118.019531 244.328125 117.71875 244.382812 C 116.707031 243.640625 115.511719 246.21875 113.929688 244.929688 C 112.828125 243.621094 115.078125 241.984375 113.652344 241.132812 C 117.34375 236.878906 124.28125 235.871094 128.820312 232.464844 C 128.460938 230.832031 126.625 229.847656 125.296875 228.675781 C 122.964844 226.59375 120.117188 224.019531 115.824219 223.792969 C 109.4375 223.453125 106.78125 229.492188 101.746094 231.109375 L 101.746094 231.917969 C 99.964844 231.859375 99.9375 233.550781 98.214844 233.546875 C 98.003906 233.40625 97.777344 233.265625 97.40625 233.273438 C 96.613281 232.535156 97.804688 229.804688 96.59375 229.492188 C 96.859375 229.203125 97.132812 228.929688 97.40625 228.675781 C 97.027344 221.632812 105.515625 221.285156 108.507812 216.746094 C 105.246094 215.191406 102.824219 211.964844 99.035156 211.601562 C 90.222656 210.75 87.71875 218.945312 83.59375 223.792969 C 83.378906 222.097656 82.601562 223.855469 81.429688 223.519531 C 79.703125 222.988281 80.460938 217.699219 78.179688 219.457031 C 79.058594 212.386719 85.011719 210.390625 88.746094 206.179688 C 85.386719 204.015625 81.390625 202.507812 75.46875 202.925781 C 71.472656 205.070312 70.253906 209.988281 68.15625 214.039062 C 67.964844 214.777344 68.695312 214.585938 68.699219 215.113281 C 66.679688 215.292969 67.027344 217.234375 65.453125 217.019531 C 63.75 216.785156 64.820312 214.363281 62.46875 214.304688 C 62.359375 213.746094 62.652344 213.585938 62.742188 213.222656 C 57.894531 207.492188 66.765625 201.65625 69.511719 198.054688 C 66.9375 195.351562 60.589844 194.558594 57.324219 196.699219 C 53.371094 199.265625 53.1875 205.414062 53.257812 210.507812 C 51.75 210.539062 51.984375 212.300781 50.285156 212.140625 C 48.800781 211.363281 49.503906 208.40625 47.578125 208.074219 C 47.71875 207.859375 47.855469 207.636719 47.84375 207.261719 C 47.4375 206.410156 46.378906 206.199219 46.488281 204.820312 C 47.027344 199.035156 50.472656 196.15625 53.257812 192.628906 C 47.789062 190.007812 40.546875 190.050781 39.183594 196.148438 C 38.449219 199.414062 39.65625 202.871094 40.800781 205.640625 C 39.210938 206.019531 39.730469 208.527344 38.367188 209.167969 C 36.109375 209.648438 36.851562 205.875 34.84375 206.992188 C 35.21875 204.597656 32.9375 204.316406 32.40625 202.648438 C 30.726562 197.40625 34.5 193.648438 36.199219 190.191406 C 34.449219 189.671875 31.863281 190.503906 29.429688 190.191406 C 29.183594 190.804688 28.175781 190.867188 27.804688 191.273438 C 23.625 195.910156 27.476562 203.714844 29.703125 207.804688 C 28.019531 207.652344 28.5625 209.730469 26.71875 209.429688 C 26.0625 208.910156 25.984375 207.816406 25.636719 206.992188 C 25.011719 206.902344 24.601562 207.039062 24.28125 207.261719 C 24.511719 206.949219 24.640625 206.527344 24.5625 205.90625 C 22 204.128906 20.355469 201.429688 20.761719 196.699219 C 21.648438 195.367188 22.453125 192.65625 22.394531 191.273438 C 19.164062 191.035156 16.375 192.691406 15.617188 195.066406 C 13.4375 201.960938 19.808594 204.546875 21.039062 209.703125 C 19.796875 208.214844 19.710938 210.578125 18.863281 211.054688 C 17.554688 211.085938 17.859375 208.410156 16.429688 209.429688 C 16.785156 206.773438 13.304688 206.566406 12.644531 204.28125 C 11.578125 200.636719 13.710938 197.320312 13.183594 193.984375 C 4.613281 195.472656 8.832031 209.820312 14.535156 212.140625 C 13.949219 212.816406 14.300781 214.445312 13.183594 214.582031 C 12.742188 213.929688 12.746094 212.847656 12.367188 212.140625 C 8.3125 212.070312 6.515625 207.488281 6.949219 202.648438 C 7.390625 197.78125 10.992188 193.300781 8.035156 190.460938 L 8.035156 190.191406 L 8.578125 190.191406 C 9.117188 189.511719 8.800781 187.960938 7.761719 188.023438 C 7.808594 188.339844 7.707031 188.503906 7.492188 188.566406 C 7.316406 186.980469 6.261719 184.167969 7.492188 182.878906 C 8.207031 182.238281 8.519531 183.652344 9.390625 183.691406 C 7.191406 187.0625 12.625 190.6875 15.355469 188.296875 C 14.535156 185.667969 12.480469 182.296875 13.183594 178.808594 C 13.519531 177.125 14.992188 176.273438 15.355469 174.746094 C 15.683594 175.5 16.453125 175.640625 17.246094 175.292969 C 16.878906 176.550781 17.851562 176.496094 18.328125 176.914062 C 17.703125 176.828125 17.289062 176.957031 16.972656 177.183594 C 13.972656 183.347656 20.320312 189.25 26.179688 186.390625 C 23.21875 181.644531 22.929688 173.71875 27.261719 169.867188 L 27.261719 169.058594 C 28.816406 169.050781 29.0625 166.992188 30.785156 167.972656 C 31.113281 169.433594 29.023438 170.574219 30.507812 171.496094 C 27.308594 173.382812 26.25 179.277344 28.890625 182.601562 C 31.554688 184.253906 34.730469 188.21875 38.90625 185.855469 C 38.957031 183.035156 36.546875 180.382812 36.199219 176.914062 C 36.054688 175.398438 36.566406 174.050781 36.472656 172.304688 C 37.902344 170.765625 39.222656 169.097656 39.722656 166.617188 C 40.910156 167.257812 42.746094 165.160156 44.054688 166.617188 C 44.867188 167.925781 42.734375 169.414062 44.046875 170.40625 Z M 97.398438 187.75 C 97.335938 187.234375 97.710938 187.152344 97.671875 186.667969 C 97.300781 186.574219 97.152344 186.289062 96.585938 186.386719 C 96.25 187.179688 96.449219 187.632812 97.398438 187.75 Z M 95.5 194.527344 C 95.296875 193.230469 95.925781 192.78125 95.777344 191.542969 C 95.425781 191.527344 95.398438 191.195312 94.964844 191.273438 C 94.980469 192.523438 94.8125 193.957031 95.5 194.527344 Z M 95.5 199.671875 C 95.21875 199.132812 95.378906 196.746094 94.964844 197.238281 C 95.207031 197.980469 94.40625 199.78125 95.5 199.671875 Z M 95.5 199.671875 " fill-opacity="1" fill-rule="evenodd"/><path fill="#d81921" d="M 184.597656 4.300781 C 184.566406 4.625 184.109375 4.527344 183.792969 4.574219 C 183.488281 5.863281 184.671875 5.683594 185.691406 5.65625 C 184.8125 7.335938 187.609375 6.976562 187.03125 9.179688 C 185.597656 10.5 184.316406 7.074219 183.792969 9.179688 C 182.027344 6.292969 175.222656 5.136719 172.148438 7.550781 C 171.675781 8.703125 171.203125 10.875 172.148438 11.894531 C 176.640625 9.800781 181.011719 12.289062 185.140625 12.972656 C 183.929688 14.535156 186.453125 15.058594 185.6875 16.226562 L 182.707031 16.226562 L 182.707031 16.765625 C 179.78125 14.945312 174.757812 12.46875 171.601562 15.410156 C 171.222656 16.808594 171.121094 19.722656 171.601562 21.101562 C 175.023438 21.726562 176.835938 20.160156 179.457031 20.566406 C 182.625 21.050781 184.898438 24.367188 187.847656 25.164062 C 187.769531 25.804688 187.320312 26.285156 187.847656 26.792969 C 188.703125 27.335938 190.058594 26.363281 190.832031 27.335938 C 190.265625 29.613281 187.820312 26.980469 186.769531 28.417969 C 184.046875 25.6875 176.636719 24.050781 171.878906 25.984375 C 171.402344 28.609375 171.824219 32.476562 172.957031 34.378906 C 176.679688 33.144531 182.359375 32.605469 186.496094 34.652344 C 188.925781 35.851562 190 38.945312 192.996094 38.171875 C 192.886719 39.726562 195.1875 38.871094 195.164062 40.339844 C 194.691406 42.761719 192.414062 40.3125 191.371094 41.699219 C 190.140625 40.308594 182.511719 38.257812 178.917969 38.441406 C 177.136719 38.535156 174.808594 39.386719 174.3125 40.617188 C 174.246094 43.664062 175.332031 47.910156 178.101562 49.015625 C 182.113281 48.089844 184.867188 46.863281 188.9375 47.929688 C 192.652344 48.902344 195.117188 53.5625 198.140625 51.449219 C 198.320312 52.71875 200.652344 51.828125 200.851562 53.078125 C 201.144531 54.730469 198.359375 54.4375 199.496094 56.058594 C 193.84375 54.558594 185.019531 50.890625 179.457031 54.976562 C 180.292969 58.984375 181.777344 64.378906 186.226562 64.460938 C 189.875 64.527344 194.671875 60.359375 200.035156 62.5625 C 202.160156 63.4375 204.53125 68.28125 206.273438 65.816406 L 206.273438 66.082031 C 207.105469 66.859375 208.902344 65.375 209.515625 66.632812 C 210.152344 67.25 209.015625 67.511719 209.25 68.519531 L 210.0625 68.519531 C 204.3125 71.644531 192.976562 65.933594 188.386719 71.777344 C 189.832031 74.445312 193.574219 79.949219 197.597656 80.171875 C 200.804688 80.355469 204.085938 77.660156 207.886719 77.742188 C 208.996094 77.757812 210.652344 77.871094 211.945312 78.285156 C 214.558594 79.097656 216.644531 82.230469 218.453125 79.636719 C 218.558594 81.0625 220.703125 80.457031 221.429688 81.261719 C 222.015625 83.066406 219.621094 83.703125 221.15625 84.789062 C 219.664062 84.253906 218.523438 84.957031 216.554688 85.054688 C 212.234375 85.265625 201.167969 82.710938 201.117188 87.761719 C 201.105469 89.363281 204.464844 91.710938 205.726562 92.914062 C 207.703125 94.785156 209.828125 97.175781 213.300781 96.710938 C 215.769531 96.371094 217.902344 94.386719 220.621094 93.996094 C 224.53125 93.433594 227.328125 94.558594 230.367188 95.355469 C 230.617188 94.875 231.023438 94.558594 231.179688 93.996094 C 232.246094 94.644531 233.890625 92.953125 234.96875 94.265625 C 235.242188 95.164062 234.367188 97.214844 235.515625 97.253906 C 230.730469 100.683594 221.4375 99.609375 218.179688 104.558594 C 221.761719 107.359375 224.769531 113.433594 230.367188 112.695312 C 232.40625 112.425781 234.378906 110.375 236.863281 109.714844 C 238.585938 109.25 240.960938 108.679688 242.558594 108.628906 C 244.527344 108.566406 246.636719 110.25 247.15625 107.8125 C 249.628906 107.257812 251.683594 108.203125 252.578125 110.519531 C 250.480469 112.628906 249.59375 114.570312 246.074219 115.949219 C 243.574219 116.925781 236.339844 117.246094 236.050781 119.738281 C 235.914062 120.957031 241.0625 125.054688 242.015625 125.703125 C 243.21875 126.527344 245.949219 128.132812 247.429688 128.140625 C 251.835938 128.160156 256.871094 120.914062 263.402344 121.632812 C 263.988281 120.953125 264.519531 120.21875 265.03125 119.460938 C 264.953125 120.984375 267.542969 119.851562 268.28125 120.550781 C 268.988281 121.015625 268.390625 122.789062 269.636719 122.714844 C 268.378906 123.628906 267.964844 125.386719 267.464844 127.050781 C 263.742188 130.28125 258.082031 131.574219 255.003906 135.457031 C 259.203125 138.035156 262.953125 143.917969 269.363281 141.421875 C 270.753906 140.878906 273.359375 137.792969 275.867188 135.996094 C 277.449219 134.859375 279.171875 134.382812 279.65625 132.207031 C 280.410156 132.925781 280.996094 131.945312 281.820312 131.929688 C 282.898438 132.476562 283.230469 133.773438 283.988281 134.640625 C 283.757812 134.859375 283.828125 135.386719 283.441406 135.457031 C 285.328125 142.597656 278.722656 145.160156 275.316406 148.730469 C 277.480469 150.113281 280.71875 153.0625 283.71875 153.609375 C 291.808594 155.085938 294.234375 147.148438 296.171875 141.144531 C 297.28125 141.988281 298.257812 140.832031 299.15625 140.605469 C 300.503906 140.878906 300.238281 142.769531 301.59375 143.039062 C 301.195312 143.464844 301.023438 144.101562 300.777344 144.667969 C 304.570312 151.371094 296.738281 154.820312 294.816406 159.304688 C 300.996094 163.144531 311.222656 162.613281 312.152344 154.699219 C 312.378906 152.777344 311.761719 151.261719 311.878906 149.277344 C 313.414062 148.730469 314.226562 147.464844 316.210938 147.375 C 316.605469 147.53125 316.878906 147.800781 317.03125 148.191406 C 315.984375 147.988281 316.535156 149.628906 317.304688 149.277344 C 316.996094 151.640625 318.6875 152.570312 318.921875 154.429688 C 319.519531 159.160156 315.289062 162.4375 313.78125 165.804688 C 318.519531 169.414062 326.503906 168.597656 328.398438 163.09375 C 329.707031 159.332031 326.804688 155.136719 326.777344 151.988281 C 327.453125 154.152344 328.785156 150.792969 330.300781 151.175781 C 331.707031 153.96875 334.585938 155.722656 334.902344 159.035156 C 335.34375 163.675781 331.347656 166.597656 329.753906 170.136719 C 334.207031 171.582031 338.890625 171.527344 341.136719 168.242188 C 343.554688 164.695312 341.1875 158.820312 339.503906 155.238281 C 341.085938 155.523438 341.980469 153.285156 343.847656 154.960938 C 344.152344 154.925781 344.074219 154.472656 344.105469 154.15625 C 344.65625 157.042969 347.496094 158.980469 347.628906 162.289062 C 347.773438 165.765625 345.730469 168.386719 344.378906 171.230469 C 346.046875 171.824219 348.777344 171.339844 350.882812 171.496094 C 356.839844 167.664062 351.777344 159.722656 350.0625 154.429688 C 351.402344 154.667969 351.097656 153.285156 352.234375 153.34375 C 353.363281 153.265625 353.050781 155.585938 354.398438 154.429688 C 353.648438 156.089844 355.953125 156.875 356.839844 158.484375 C 358.859375 162.136719 357.667969 165.59375 356.839844 170.136719 C 359.273438 170.613281 361.570312 169.628906 362.253906 167.976562 C 364.515625 162.535156 359.734375 156.566406 357.917969 153.609375 C 358.613281 153.390625 358.621094 152.496094 359.003906 151.988281 C 360.058594 152.382812 360.1875 153.691406 361.980469 153.34375 C 361.933594 153.558594 361.707031 153.609375 361.707031 153.875 C 365.242188 155.910156 365.59375 163.355469 365.773438 166.621094 C 365.761719 166.390625 365.847656 166.359375 366.046875 166.347656 C 365.6875 169.492188 370.046875 172.628906 368.207031 176.375 L 367.949219 176.375 C 368.8125 174.027344 364.207031 171.160156 362.25 173.394531 C 362.710938 175.644531 364.484375 178.914062 365.503906 181.519531 C 364.910156 181.472656 364.644531 181.746094 364.691406 182.335938 C 363.785156 182.25 364.25 180.785156 363.335938 180.703125 C 363.480469 180.488281 363.628906 180.273438 363.605469 179.894531 C 360.835938 177.816406 358.75 172.691406 353.859375 174.476562 C 355.394531 178.398438 358.578125 181.367188 357.105469 187.484375 C 356.171875 188.808594 354.902344 189.792969 353.859375 191.003906 L 353.859375 192.089844 C 352.816406 192.390625 353.207031 194.144531 352.769531 195.070312 C 350.382812 195.070312 352.75 191.769531 350.882812 191.546875 C 358.496094 185.214844 351.652344 173.90625 342.210938 175.015625 C 343.03125 178.785156 345.878906 179.445312 345.734375 184.230469 C 345.6875 185.808594 345.15625 187.667969 344.65625 189.101562 C 343.914062 191.195312 342.003906 192.65625 343.300781 194.527344 C 341.9375 193.578125 341.222656 195.238281 340.855469 196.148438 C 339.964844 195.601562 339.984375 194.128906 339.5 193.171875 C 338.949219 193.25 338.972656 193.90625 338.421875 193.984375 C 339.027344 192.160156 341.359375 187.511719 341.667969 185.316406 C 342.25 181.121094 339.074219 175.042969 334.902344 173.941406 C 332.769531 173.371094 330.511719 173.953125 328.398438 173.390625 C 328.820312 177.214844 331.351562 179.164062 330.566406 183.691406 C 330.003906 186.957031 326.171875 189.617188 327.585938 191.816406 C 326.285156 191.769531 326.226562 192.984375 324.609375 192.632812 C 324.398438 192.03125 324.453125 191.167969 323.800781 191.003906 C 325.914062 187.019531 326.703125 178.695312 324.066406 175.015625 C 321.71875 171.746094 317.582031 170.574219 312.695312 169.597656 C 312.390625 171.96875 314.3125 175.960938 311.613281 176.640625 C 311.917969 178.046875 312.476562 182.015625 311.066406 182.605469 C 310.136719 181.53125 311.566406 179.414062 310.804688 178.539062 C 310.707031 182.234375 309.890625 185.753906 309.984375 188.839844 C 309.296875 187.511719 308.144531 189.203125 307.273438 188.566406 C 307.109375 187.917969 306.886719 187.332031 307.007812 186.390625 C 306.152344 186.101562 306.289062 186.269531 305.652344 186.667969 C 307.597656 183.640625 306.953125 178.027344 307.542969 173.660156 C 306.78125 172.355469 306.117188 170.941406 305.925781 169.058594 C 302.769531 165.527344 297.894531 163.730469 292.652344 162.285156 C 291.976562 165.898438 296.601562 172.777344 292.105469 175.292969 C 293.3125 177.695312 291.148438 179.382812 291.574219 180.980469 C 290.117188 180.015625 289.984375 182.375 288.324219 182.0625 C 286.980469 182.050781 288.285156 179.386719 286.417969 179.894531 C 287.074219 178.199219 287.148438 175.921875 288.050781 174.476562 C 289.292969 175.007812 290.496094 175.0625 291.027344 173.660156 C 289.578125 173.019531 288.1875 173.988281 286.960938 173.121094 C 288.050781 160.941406 281.617188 154.871094 272.613281 151.984375 C 271.273438 155.175781 273.066406 157.648438 272.613281 160.929688 C 272.1875 164.0625 269.484375 166.617188 269.902344 169.054688 C 268.277344 169.050781 268.285156 170.6875 266.65625 170.6875 C 266.222656 169.578125 266.140625 169.347656 266.382812 167.972656 C 265.824219 167.386719 265.507812 168.003906 265.027344 168.242188 C 266.46875 167.03125 265.253906 165.671875 265.027344 163.90625 C 264.585938 160.40625 265.851562 155.894531 265.300781 151.984375 C 264.839844 148.71875 262.980469 146.945312 262.316406 144.667969 C 258.546875 143.285156 255.871094 139.390625 252.300781 138.703125 C 250.953125 142.214844 252.230469 144.757812 251.765625 147.917969 C 251.1875 151.78125 248.0625 153.085938 247.964844 156.863281 C 246.523438 155.8125 246.675781 158.347656 244.988281 157.945312 C 244.246094 157.421875 244.609375 155.792969 243.640625 155.503906 C 245.640625 153.929688 244.457031 151.976562 244.175781 149.542969 C 243.792969 146.25 244.855469 142.523438 244.714844 139.523438 C 244.351562 131.46875 239.019531 125.683594 232.808594 123.804688 C 231.996094 130.21875 229.175781 134.628906 226.84375 139.523438 C 225.5 138.457031 225.433594 142.171875 223.863281 140.875 C 222.089844 140.515625 224.476562 137.597656 222.507812 137.351562 C 225.625 135.691406 224.132812 126.351562 224.410156 121.363281 C 224.457031 120.476562 224.789062 118.929688 224.675781 118.105469 C 223.882812 111.964844 217.089844 109.339844 214.386719 107 C 212.246094 108.550781 212.933594 110.6875 212.21875 112.964844 C 211.046875 116.726562 207.832031 119.152344 207.074219 122.714844 C 205.726562 121.777344 205.539062 123.972656 203.832031 123.527344 C 203.347656 122.746094 203.445312 121.378906 203.007812 120.550781 C 203.574219 120.207031 204.152344 119.886719 204.636719 119.460938 C 202.328125 111.546875 208.515625 104.097656 205.992188 98.332031 C 204.375 94.644531 199.738281 93.074219 197.328125 89.660156 C 193.574219 93.304688 192.472656 99.625 188.933594 103.476562 C 187.621094 102.53125 186.769531 105.285156 185.136719 104.019531 C 184.125 102.652344 187.171875 102.078125 185.949219 100.496094 C 186.382812 100.574219 186.417969 100.246094 186.769531 100.226562 C 187.46875 93.347656 190.0625 88.347656 190.558594 81.257812 C 188.277344 78.574219 186.59375 75.285156 184.058594 72.855469 C 179.8125 75.480469 178.175781 80.707031 174.578125 83.972656 C 174.503906 84.40625 174.835938 84.4375 174.847656 84.785156 C 172.933594 84.316406 173.355469 86.171875 171.597656 85.863281 C 171.476562 85.625 171.359375 85.382812 171.054688 85.324219 C 171.214844 84.132812 172.953125 83.375 172.410156 82.347656 C 172.808594 82.207031 173.09375 81.941406 173.492188 81.808594 C 172.183594 74.941406 179.71875 69.113281 179.453125 64.730469 C 179.273438 61.855469 176.007812 59.082031 174.847656 56.332031 C 170.886719 56.171875 169.371094 59.886719 167.265625 62.292969 C 165.9375 63.808594 164.074219 64.535156 163.742188 66.351562 C 162.25 65.601562 162.128906 67.785156 160.222656 67.4375 C 160.082031 66.023438 161.96875 65.527344 161.039062 64.179688 C 161.074219 63.679688 161.957031 64.023438 162.121094 63.648438 C 163.144531 61.207031 162.863281 59.507812 164.015625 57.140625 C 165.972656 53.125 171.304688 51.070312 171.875 47.65625 C 173.25 39.320312 161.230469 40.582031 159.957031 46.839844 C 159.683594 46.839844 159.738281 46.507812 159.675781 46.304688 C 158.222656 46.101562 158.613281 47.765625 156.972656 47.382812 C 156.5625 46.996094 157.429688 45.109375 156.699219 44.402344 C 158.253906 44.082031 158.949219 40.773438 160.496094 38.988281 C 163.085938 35.972656 169.101562 35.191406 168.621094 31.941406 C 168.480469 31.007812 165.132812 27.917969 163.476562 27.609375 C 160.859375 27.125 156.894531 29.46875 155.890625 31.398438 C 154.773438 30.574219 154.285156 32.953125 152.910156 31.941406 C 152.703125 30.761719 154.269531 30.457031 153.453125 29.503906 C 157.007812 25.921875 159.824219 21.605469 166.726562 21.371094 C 165.773438 16.394531 158.421875 17.285156 155.085938 19.476562 C 154.933594 19.957031 154.941406 20.601562 154.539062 20.828125 C 153.9375 20.078125 152.914062 19.742188 152.910156 18.390625 C 153.398438 18.359375 153.480469 18.722656 153.996094 18.664062 C 157.285156 15.585938 162.164062 13.113281 167.808594 13.238281 C 169.335938 9.648438 163.621094 8.597656 161.039062 9.996094 C 160.78125 8.800781 158.179688 9.957031 157.519531 9.179688 C 158.757812 6.738281 162.175781 5.917969 166.179688 7.011719 C 167.511719 7.367188 168.105469 8.4375 169.164062 8.363281 C 171 8.25 173.378906 5.183594 175.933594 4.570312 C 179.058594 3.820312 181.003906 4.617188 184.597656 4.300781 Z M 184.597656 4.300781 " fill-opacity="1" fill-rule="evenodd"/><path fill="#010101" d="M 350.058594 154.425781 C 346.757812 150.609375 356.230469 149.613281 354.394531 154.425781 C 353.046875 155.582031 353.359375 153.261719 352.230469 153.339844 C 351.09375 153.28125 351.402344 154.667969 350.058594 154.425781 Z M 350.058594 154.425781 " fill-opacity="1" fill-rule="evenodd"/><path fill="#010101" d="M 296.179688 141.144531 C 297.015625 137.777344 302.886719 139.816406 301.601562 143.039062 C 300.246094 142.769531 300.507812 140.878906 299.160156 140.601562 C 298.265625 140.828125 297.289062 141.984375 296.179688 141.144531 Z M 296.179688 141.144531 " fill-opacity="1" fill-rule="evenodd"/><path fill="#010101" d="M 218.457031 79.636719 C 222.441406 76.964844 226.347656 84.242188 221.160156 84.789062 C 219.625 83.703125 222.019531 83.066406 221.433594 81.261719 C 220.707031 80.460938 218.5625 81.066406 218.457031 79.636719 Z M 218.457031 79.636719 " fill-opacity="1" fill-rule="evenodd"/><path fill="#010101" d="M 193.003906 38.175781 C 200.5 36.90625 195.269531 48.039062 191.375 41.703125 C 192.417969 40.3125 194.699219 42.761719 195.167969 40.339844 C 195.195312 38.871094 192.890625 39.730469 193.003906 38.175781 Z M 193.003906 38.175781 " fill-opacity="1" fill-rule="evenodd"/><path fill="#010101" d="M 163.75 66.355469 C 164.582031 75.03125 151.722656 65.132812 161.046875 64.183594 C 161.972656 65.53125 160.089844 66.027344 160.226562 67.441406 C 162.132812 67.789062 162.253906 65.605469 163.75 66.355469 Z M 163.75 66.355469 " fill-opacity="1" fill-rule="evenodd"/><path fill="#010101" d="M 327.589844 191.8125 C 329.296875 197.277344 319.601562 194.265625 323.800781 191 C 324.453125 191.164062 324.398438 192.027344 324.613281 192.628906 C 326.226562 192.984375 326.285156 191.765625 327.589844 191.8125 Z M 327.589844 191.8125 " fill-opacity="1" fill-rule="evenodd"/><path fill="#010101" d="M 353.859375 192.089844 C 357.820312 197.84375 345.539062 195.390625 350.882812 191.546875 C 352.75 191.769531 350.382812 195.070312 352.769531 195.070312 C 353.207031 194.148438 352.8125 192.390625 353.859375 192.089844 Z M 353.859375 192.089844 " fill-opacity="1" fill-rule="evenodd"/><path fill="#010101" d="M 219.535156 319.726562 C 219.003906 311.0625 230.800781 320.105469 223.324219 322.164062 C 222.128906 321.160156 223.757812 319.734375 223.058594 318.371094 C 221.277344 318.105469 220.832031 320.375 219.535156 319.726562 Z M 219.535156 319.726562 " fill-opacity="1" fill-rule="evenodd"/><path fill="#010101" d="M 83.585938 223.789062 C 81.496094 228.007812 74.851562 223.011719 78.171875 219.457031 C 80.453125 217.699219 79.695312 222.984375 81.425781 223.519531 C 82.59375 223.851562 83.371094 222.097656 83.585938 223.789062 Z M 83.585938 223.789062 " fill-opacity="1" fill-rule="evenodd"/><path fill="#010101" d="M 173.230469 300.757812 C 172.003906 304.183594 167.320312 301.972656 166.734375 299.402344 C 167.628906 298.125 168.34375 296.679688 170.519531 296.691406 C 171.125 297.769531 168.339844 298.320312 169.441406 299.941406 C 170.683594 300.128906 173.332031 298.671875 173.230469 300.757812 Z M 173.230469 300.757812 " fill-opacity="1" fill-rule="evenodd"/><g clip-path="url(#549ea53f4f)"><path fill="#010101" d="M 194.351562 362.265625 L 194.351562 361.722656 C 189.335938 360.351562 186.046875 357.851562 181.617188 357.113281 C 178.28125 356.558594 174.890625 357.089844 171.601562 356.84375 C 125.011719 353.394531 91.242188 335.023438 64.082031 310.777344 C 42.867188 291.835938 25.816406 267.535156 16.15625 235.988281 C 14.738281 231.351562 13.394531 225.0625 11.285156 220.273438 C 10.210938 217.871094 9.078125 216.113281 7.21875 214.042969 C 2.886719 209.214844 2.253906 201.113281 5.589844 193.992188 C 0.28125 184.605469 6.035156 171.328125 9.109375 162.832031 C 9.976562 160.425781 10.460938 157.910156 11.007812 155.242188 C 13.457031 143.175781 15.578125 133.910156 19.132812 124.613281 C 33.398438 87.304688 57.636719 59.164062 88.195312 38.722656 C 92.15625 36.066406 96.53125 34.085938 100.644531 31.671875 C 110.75 25.773438 122.007812 21.171875 134.5 17.3125 C 136.757812 16.621094 140.175781 16.046875 142.082031 14.875 C 144.667969 13.300781 146.601562 9.304688 149.394531 7.292969 C 154.582031 3.566406 161.09375 1.984375 168.894531 4.304688 C 174.261719 0.542969 179.929688 0.0273438 185.691406 1.328125 C 191.503906 2.648438 195.53125 6.722656 200.035156 8.371094 C 204.828125 10.128906 210.679688 10.03125 215.742188 10.816406 C 252.289062 16.460938 280.300781 29.804688 303.761719 49.296875 C 328.726562 70.023438 347.402344 95.476562 358.46875 130.035156 C 359.289062 132.609375 359.824219 135.683594 360.902344 137.898438 C 362.15625 140.46875 364.640625 143.941406 366.867188 146.566406 C 370.484375 150.851562 374 153.785156 371.734375 161.746094 C 371.210938 163.609375 369.789062 165.558594 369.839844 167.160156 C 369.882812 168.378906 371.023438 169.648438 371.460938 170.953125 C 374.738281 180.667969 369.089844 188.746094 365.234375 195.609375 C 361.421875 241.25 342.007812 274.214844 317.03125 301.296875 C 299.007812 320.832031 274.6875 336.222656 246.890625 346.542969 C 242.191406 348.289062 237.097656 349.273438 232.808594 351.699219 C 227.210938 354.851562 222.40625 361.003906 213.300781 359.550781 C 211.945312 359.335938 211.121094 358.320312 209.785156 358.46875 C 209.765625 358.46875 204.261719 361.445312 203.835938 362.261719 C 200.667969 362.261719 197.503906 362.261719 194.351562 362.261719 Z M 161.042969 10 C 159.589844 13.742188 154.9375 10.898438 154.269531 8.367188 C 149.269531 9.820312 147.667969 15.183594 143.980469 17.582031 C 140.910156 19.578125 135.695312 20.117188 132.066406 21.375 C 118.082031 26.226562 104.984375 32.613281 93.609375 39.535156 C 76.617188 49.863281 62.613281 63.9375 49.734375 78.011719 C 48.332031 79.542969 47.019531 82.144531 45.402344 84.242188 C 43.820312 86.300781 41.652344 88.472656 40.53125 90.199219 C 40.273438 90.59375 40.5 91.398438 40.253906 91.832031 C 38.90625 94.34375 36.367188 96.75 35.109375 98.875 C 34.59375 99.753906 34.59375 101.199219 34.03125 102.128906 C 33.617188 102.804688 32.753906 103.113281 32.402344 103.757812 C 30.648438 107.015625 29.757812 110.777344 27.257812 113.777344 C 25.335938 119.449219 23.191406 124.886719 20.753906 130.035156 L 20.753906 131.933594 C 16.8125 141.359375 15.027344 152.941406 12.898438 164.183594 C 10.664062 168.617188 8.945312 173.585938 7.757812 179.089844 C 9.578125 178.929688 10.933594 179.800781 11.550781 181.523438 C 10.78125 182.203125 10.859375 183.726562 9.386719 183.699219 C 8.511719 183.65625 8.203125 182.242188 7.484375 182.882812 C 6.253906 184.171875 7.308594 186.984375 7.484375 188.570312 C 7.582031 189.210938 7.808594 189.6875 8.03125 190.199219 L 8.03125 190.464844 C 10.988281 193.308594 7.382812 197.785156 6.945312 202.65625 C 6.507812 207.496094 8.308594 212.078125 12.363281 212.148438 C 12.742188 212.855469 12.734375 213.9375 13.175781 214.585938 C 14.296875 214.449219 13.941406 212.820312 14.53125 212.148438 C 17.3125 213.429688 14.160156 215.148438 13.988281 216.480469 C 13.691406 218.804688 16.214844 222.019531 16.699219 223.796875 C 16.9375 224.6875 16.730469 225.597656 16.964844 226.511719 C 20.371094 240.152344 25.625 252.285156 31.589844 263.636719 C 38.261719 276.332031 46.558594 287.644531 55.96875 297.769531 C 64.332031 306.777344 73.011719 314.199219 83.042969 321.359375 C 93.460938 328.773438 105.039062 335.46875 117.441406 340.320312 C 131.351562 345.75 149.398438 351.5 167.269531 352.777344 C 171.847656 353.117188 176.949219 352.460938 181.894531 353.328125 C 188.402344 354.46875 196.105469 360.679688 204.097656 357.933594 C 204.292969 357.3125 204.917969 357.128906 205.453125 356.847656 C 207.609375 356.292969 208.554688 352.871094 211.410156 354.683594 C 214.492188 357.132812 220.492188 355.523438 223.054688 353.601562 C 222.5 353.335938 221.980469 353.042969 221.429688 352.777344 C 221.128906 351.363281 223.679688 351.785156 222.78125 350.613281 C 221.941406 350.066406 220.832031 350.996094 220.078125 350.074219 C 219.933594 349.019531 220.765625 348.957031 220.890625 348.179688 C 221.203125 348.042969 221.5 347.882812 221.699219 347.628906 C 225.085938 347.230469 225.332031 349.964844 226.578125 351.703125 C 230.347656 347.894531 235.507812 346.628906 240.660156 344.917969 C 253.273438 340.75 265.613281 334.542969 276.671875 328.933594 C 287.433594 321.910156 297.683594 315.246094 306.738281 306.710938 C 316.578125 297.453125 324.984375 287.363281 333.277344 276.640625 C 335.933594 270.714844 340.28125 266.484375 342.492188 260.105469 C 350.390625 246.382812 358.703125 225.128906 361.171875 204.554688 C 361.597656 201.015625 361.375 197.246094 362.253906 193.992188 C 363.214844 190.402344 366.558594 187.914062 367.671875 184.777344 C 369.027344 180.980469 366.785156 178.828125 367.949219 176.378906 L 368.207031 176.378906 C 370.046875 172.632812 365.6875 169.496094 366.046875 166.351562 C 366.992188 164.132812 368.578125 162.566406 368.757812 159.578125 C 370.128906 154.601562 367.5 151.496094 364.152344 150.367188 C 362.753906 150.636719 364.0625 151.945312 363.339844 152.804688 C 362.664062 152.761719 362.21875 152.941406 361.984375 153.347656 C 360.1875 153.695312 360.058594 152.386719 359.003906 151.992188 C 358.621094 152.496094 358.613281 153.394531 357.921875 153.613281 C 354.398438 148.691406 363.324219 151.375 363.339844 147.378906 C 357.894531 142.324219 356.613281 134.914062 354.128906 127.332031 C 345.808594 101.878906 331.410156 80.210938 314.316406 63.109375 C 295.457031 44.226562 270.394531 27.644531 239.847656 18.941406 C 227.886719 15.539062 215.222656 13.820312 201.121094 12.441406 C 195.582031 11.894531 193.957031 7.003906 188.121094 5.933594 C 188.464844 7.753906 189.796875 7.726562 189.484375 9.460938 C 189.027344 11.921875 184.34375 12.109375 183.796875 9.183594 C 184.316406 7.078125 185.597656 10.507812 187.035156 9.183594 C 187.613281 6.984375 184.8125 7.339844 185.691406 5.660156 C 186.320312 5.570312 186.847656 5.386719 187.035156 4.84375 C 186.367188 4.535156 185.445312 4.460938 184.597656 4.304688 C 181.007812 4.621094 179.0625 3.824219 175.9375 4.578125 C 173.386719 5.191406 171.007812 8.253906 169.171875 8.371094 C 168.109375 8.445312 167.519531 7.375 166.183594 7.015625 C 162.179688 5.925781 158.761719 6.746094 157.523438 9.183594 C 158.183594 9.960938 160.785156 8.804688 161.042969 10 Z M 161.042969 10 " fill-opacity="1" fill-rule="evenodd"/></g><path fill="#010101" d="M 155.894531 31.398438 C 156.347656 31.851562 156.105469 32.988281 156.167969 33.839844 C 152.832031 38.773438 146.375 29.53125 153.457031 29.507812 C 154.277344 30.460938 152.707031 30.765625 152.914062 31.941406 C 154.289062 32.957031 154.777344 30.574219 155.894531 31.398438 Z M 155.894531 31.398438 " fill-opacity="1" fill-rule="evenodd"/><path fill="#010101" d="M 198.144531 51.449219 C 200.144531 49.410156 204.164062 51.515625 203.289062 54.976562 C 202.566406 55.777344 200.984375 56.902344 199.5 56.058594 C 198.363281 54.4375 201.148438 54.730469 200.855469 53.078125 C 200.652344 51.828125 198.324219 52.71875 198.144531 51.449219 Z M 198.144531 51.449219 " fill-opacity="1" fill-rule="evenodd"/><path fill="#010101" d="M 188.941406 103.476562 C 188.050781 111.347656 177.734375 101.097656 185.957031 100.496094 C 187.179688 102.078125 184.128906 102.652344 185.140625 104.019531 C 186.773438 105.285156 187.625 102.53125 188.941406 103.476562 Z M 188.941406 103.476562 " fill-opacity="1" fill-rule="evenodd"/><path fill="#010101" d="M 247.160156 107.816406 C 247.925781 102.914062 256.171875 106.699219 252.582031 110.519531 C 251.6875 108.203125 249.632812 107.257812 247.160156 107.816406 Z M 247.160156 107.816406 " fill-opacity="1" fill-rule="evenodd"/><path fill="#010101" d="M 279.65625 132.207031 C 279.890625 126.648438 288.195312 131.53125 283.988281 134.640625 C 283.230469 133.777344 282.902344 132.476562 281.824219 131.929688 C 281 131.945312 280.414062 132.925781 279.65625 132.207031 Z M 279.65625 132.207031 " fill-opacity="1" fill-rule="evenodd"/><path fill="#010101" d="M 226.847656 139.523438 C 227.488281 140.1875 226.847656 141.117188 226.847656 141.960938 C 226.054688 142.78125 224.496094 142.851562 222.78125 142.777344 C 220.785156 141.871094 219.6875 138.140625 222.515625 137.351562 C 224.480469 137.597656 222.09375 140.511719 223.871094 140.875 C 225.4375 142.171875 225.503906 138.457031 226.847656 139.523438 Z M 226.847656 139.523438 " fill-opacity="1" fill-rule="evenodd"/><path fill="#010101" d="M 311.878906 149.273438 C 310.441406 147 315.058594 145.355469 316.214844 147.371094 C 314.226562 147.460938 313.414062 148.726562 311.878906 149.273438 Z M 311.878906 149.273438 " fill-opacity="1" fill-rule="evenodd"/><path fill="#010101" d="M 326.78125 151.988281 C 326.578125 150.507812 329.660156 150.074219 330.304688 151.179688 C 328.789062 150.796875 327.460938 154.15625 326.78125 151.988281 Z M 326.78125 151.988281 " fill-opacity="1" fill-rule="evenodd"/><path fill="#010101" d="M 339.507812 155.242188 L 339.507812 153.875 C 340.230469 152.195312 343.71875 152.082031 344.109375 154.15625 C 344.074219 154.472656 344.15625 154.925781 343.847656 154.960938 C 341.984375 153.285156 341.089844 155.523438 339.507812 155.242188 Z M 339.507812 155.242188 " fill-opacity="1" fill-rule="evenodd"/><path fill="#010101" d="M 247.96875 156.871094 C 248.410156 157.738281 248.101562 158.335938 247.96875 159.308594 C 245.394531 162.066406 240.238281 157.851562 243.640625 155.507812 C 244.613281 155.796875 244.246094 157.425781 244.988281 157.949219 C 246.675781 158.355469 246.523438 155.816406 247.96875 156.871094 Z M 247.96875 156.871094 " fill-opacity="1" fill-rule="evenodd"/><path fill="#010101" d="M 39.714844 166.621094 C 41.238281 158.691406 52.261719 168.777344 44.046875 170.414062 C 42.734375 169.421875 44.867188 167.929688 44.046875 166.621094 C 42.742188 165.164062 40.90625 167.261719 39.714844 166.621094 Z M 39.714844 166.621094 " fill-opacity="1" fill-rule="evenodd"/><path fill="#010101" d="M 56.507812 170.949219 C 56.429688 169.964844 56.546875 169.1875 56.78125 168.515625 C 60.699219 164.746094 66.707031 171.914062 61.105469 173.941406 C 59.398438 173.644531 61.332031 171.234375 60.027344 170.410156 C 59.8125 170.347656 59.492188 170.398438 59.492188 170.132812 C 57.832031 169.679688 57.644531 171.765625 56.507812 170.949219 Z M 56.507812 170.949219 " fill-opacity="1" fill-rule="evenodd"/><path fill="#010101" d="M 269.910156 169.058594 C 271.335938 173.546875 262.894531 172.917969 265.035156 168.242188 C 265.511719 168.003906 265.832031 167.386719 266.390625 167.976562 C 266.148438 169.347656 266.230469 169.578125 266.664062 170.6875 C 268.292969 170.6875 268.285156 169.050781 269.910156 169.058594 Z M 269.910156 169.058594 " fill-opacity="1" fill-rule="evenodd"/><path fill="#010101" d="M 27.257812 169.058594 C 26.601562 166.710938 29.179688 165.1875 31.859375 166.078125 C 32.355469 167.300781 33.152344 168.210938 33.214844 169.867188 C 32.527344 170.621094 32.195312 171.738281 30.503906 171.496094 C 29.019531 170.574219 31.109375 169.4375 30.78125 167.976562 C 29.058594 166.996094 28.8125 169.050781 27.257812 169.058594 Z M 27.257812 169.058594 " fill-opacity="1" fill-rule="evenodd"/><path fill="#010101" d="M 15.351562 174.746094 C 16.140625 169.183594 24.1875 175.75 18.320312 176.914062 C 17.847656 176.496094 16.875 176.550781 17.238281 175.292969 C 16.449219 175.640625 15.679688 175.5 15.351562 174.746094 Z M 15.351562 174.746094 " fill-opacity="1" fill-rule="evenodd"/><path fill="#010101" d="M 291.574219 180.980469 C 292.226562 186.082031 284.371094 184.132812 286.417969 179.894531 C 288.285156 179.386719 286.984375 182.050781 288.324219 182.0625 C 289.984375 182.375 290.121094 180.015625 291.574219 180.980469 Z M 291.574219 180.980469 " fill-opacity="1" fill-rule="evenodd"/><path fill="#010101" d="M 94.421875 186.941406 C 92.378906 182.578125 102.078125 183.851562 99.300781 188.023438 C 98.484375 185.613281 95.992188 184.472656 94.421875 186.941406 Z M 94.421875 186.941406 " fill-opacity="1" fill-rule="evenodd"/><path fill="#010101" d="M 309.988281 188.839844 L 309.988281 189.382812 C 309.117188 190.363281 306.792969 190.433594 305.929688 189.382812 C 305.617188 188.71875 305.023438 187.433594 305.65625 186.667969 C 306.296875 186.269531 306.15625 186.101562 307.011719 186.390625 C 306.894531 187.332031 307.113281 187.921875 307.277344 188.566406 C 308.148438 189.207031 309.304688 187.511719 309.988281 188.839844 Z M 309.988281 188.839844 " fill-opacity="1" fill-rule="evenodd"/><path fill="#010101" d="M 343.304688 194.527344 L 343.304688 195.882812 C 342.828125 196.667969 342.039062 197.148438 341.136719 197.503906 C 339.757812 196.804688 338.042969 196.449219 338.429688 193.984375 C 338.976562 193.90625 338.953125 193.25 339.507812 193.167969 C 339.988281 194.125 339.96875 195.601562 340.859375 196.144531 C 341.226562 195.238281 341.941406 193.578125 343.304688 194.527344 Z M 343.304688 194.527344 " fill-opacity="1" fill-rule="evenodd"/><path fill="#010101" d="M 29.699219 207.808594 C 31.644531 213.308594 21.625 211.21875 24.277344 207.265625 C 24.59375 207.042969 25.007812 206.90625 25.632812 206.992188 C 25.976562 207.820312 26.054688 208.914062 26.714844 209.433594 C 28.554688 209.734375 28.015625 207.65625 29.699219 207.808594 Z M 29.699219 207.808594 " fill-opacity="1" fill-rule="evenodd"/><path fill="#010101" d="M 40.792969 205.644531 C 41.9375 205.953125 41.40625 207.929688 41.890625 208.898438 C 40.839844 212.542969 33.347656 211.121094 34.839844 206.996094 C 36.847656 205.882812 36.101562 209.65625 38.359375 209.171875 C 39.722656 208.53125 39.207031 206.023438 40.792969 205.644531 Z M 40.792969 205.644531 " fill-opacity="1" fill-rule="evenodd"/><path fill="#010101" d="M 53.25 210.507812 C 53.292969 217.910156 40.886719 211.589844 47.570312 208.074219 C 49.496094 208.40625 48.792969 211.363281 50.28125 212.144531 C 51.976562 212.300781 51.746094 210.539062 53.25 210.507812 Z M 53.25 210.507812 " fill-opacity="1" fill-rule="evenodd"/><path fill="#010101" d="M 21.03125 209.703125 C 22.703125 213.554688 14.609375 213.007812 16.421875 209.429688 C 17.855469 208.410156 17.550781 211.082031 18.859375 211.054688 C 19.703125 210.578125 19.792969 208.214844 21.03125 209.703125 Z M 21.03125 209.703125 " fill-opacity="1" fill-rule="evenodd"/><path fill="#010101" d="M 136.394531 213.773438 C 135.871094 206.695312 148.195312 213.800781 140.734375 217.023438 C 139.789062 216.066406 141.078125 213.792969 139.921875 212.6875 C 137.78125 212.089844 138.300781 214.140625 136.394531 213.773438 Z M 136.394531 213.773438 " fill-opacity="1" fill-rule="evenodd"/><path fill="#010101" d="M 68.695312 215.117188 C 70.886719 221.847656 58.660156 218.78125 62.460938 214.308594 C 64.8125 214.367188 63.742188 216.789062 65.445312 217.023438 C 67.019531 217.238281 66.671875 215.296875 68.695312 215.117188 Z M 68.695312 215.117188 " fill-opacity="1" fill-rule="evenodd"/><path fill="#010101" d="M 117.707031 244.386719 C 116.917969 252.125 106.007812 242.605469 113.640625 241.140625 C 115.066406 241.988281 112.816406 243.625 113.917969 244.933594 C 115.5 246.226562 116.695312 243.644531 117.707031 244.386719 Z M 117.707031 244.386719 " fill-opacity="1" fill-rule="evenodd"/><path fill="#010101" d="M 191.917969 266.878906 C 194.519531 261.074219 201.949219 271.007812 194.351562 270.941406 C 193.210938 269.101562 196.195312 268.871094 195.164062 267.144531 C 194.058594 265.964844 192.136719 268.820312 191.917969 266.878906 Z M 191.917969 266.878906 " fill-opacity="1" fill-rule="evenodd"/><path fill="#010101" d="M 161.3125 287.46875 C 160.746094 289.675781 156.445312 288.875 155.625 287.46875 C 155.566406 285.875 155.613281 284.394531 156.441406 283.675781 C 157.214844 283.214844 158.453125 282.917969 159.417969 283.402344 C 160.457031 285.058594 157.4375 284.066406 157.523438 285.574219 L 157.523438 286.65625 C 158.523438 287.734375 161.132812 285.566406 161.3125 287.46875 Z M 161.3125 287.46875 " fill-opacity="1" fill-rule="evenodd"/><path fill="#010101" d="M 204.914062 285.578125 C 206.742188 278.800781 215.671875 288.230469 207.890625 288.828125 C 207.785156 288.308594 206.84375 288.617188 207.078125 287.738281 C 207.804688 287.109375 208.550781 286.511719 208.707031 285.300781 C 207.386719 284.355469 205.910156 286.976562 204.914062 285.578125 Z M 204.914062 285.578125 " fill-opacity="1" fill-rule="evenodd"/><path fill="#010101" d="M 182.164062 314.839844 C 174.476562 317.425781 175.730469 305.699219 181.894531 310.507812 C 180.96875 311.109375 179.046875 310.730469 178.382812 311.585938 C 178.265625 312.234375 178.875 312.183594 178.640625 312.941406 C 179.367188 313.496094 181.132812 312.980469 181.894531 313.488281 C 182.125 313.800781 182.257812 314.207031 182.164062 314.839844 Z M 182.164062 314.839844 " fill-opacity="1" fill-rule="evenodd"/><path fill="#010101" d="M 191.101562 328.65625 C 188.246094 329.449219 185.746094 327.472656 185.960938 325.132812 C 186.199219 322.582031 190.71875 321.304688 191.921875 324.316406 C 191.144531 325.992188 189.089844 323.371094 187.855469 324.59375 C 188.078125 326.808594 190.875 326.453125 191.101562 328.65625 Z M 191.101562 328.65625 " fill-opacity="1" fill-rule="evenodd"/><path fill="#010101" d="M 223.328125 331.371094 C 224.921875 322.6875 235.097656 334.464844 226.3125 334.347656 C 225.492188 333.132812 227.503906 332.746094 227.125 331.097656 C 225.769531 329.960938 224.203125 332.0625 223.328125 331.371094 Z M 223.328125 331.371094 " fill-opacity="1" fill-rule="evenodd"/><path fill="#010101" d="M 220.890625 343.289062 C 223.070312 334.800781 232.371094 347.355469 223.601562 346.539062 C 222.535156 345.066406 225.03125 345.1875 224.679688 343.566406 C 223.601562 343.554688 221.226562 345.066406 220.890625 343.289062 Z M 220.890625 343.289062 " fill-opacity="1" fill-rule="evenodd"/><path fill="#010101" d="M 195.707031 353.863281 C 191.882812 357.550781 187.734375 348.660156 193.808594 348.980469 C 193.230469 347.316406 191.789062 347.003906 191.917969 345.1875 C 192.144531 341.953125 197.21875 341.707031 198.140625 344.65625 C 197.535156 346.101562 195.265625 344.273438 194.351562 345.1875 C 194.226562 347.304688 197.5625 345.949219 197.066406 348.441406 C 196.664062 349.128906 195.417969 348.960938 195.164062 349.792969 C 195.734375 350.128906 196.183594 350.582031 196.519531 351.152344 C 196.234375 351.859375 195.417969 352.039062 194.351562 351.957031 C 194.207031 353.195312 195.796875 352.691406 195.707031 353.863281 Z M 195.707031 353.863281 " fill-opacity="1" fill-rule="evenodd"/><path fill="#010101" d="M 152.917969 18.394531 C 152.921875 19.742188 153.945312 20.078125 154.546875 20.828125 C 154.34375 25.90625 148.15625 23.277344 148.585938 20.023438 C 148.761719 18.691406 150.949219 16.851562 152.917969 18.394531 Z M 152.917969 18.394531 " fill-opacity="1" fill-rule="evenodd"/><path fill="#010101" d="M 187.855469 25.164062 C 193.34375 23.328125 194.292969 31.234375 189.210938 30.589844 C 188.089844 30.445312 187.421875 29.5625 186.777344 28.417969 C 187.828125 26.980469 190.273438 29.613281 190.835938 27.335938 C 190.0625 26.363281 188.710938 27.335938 187.855469 26.792969 C 187.328125 26.289062 187.773438 25.804688 187.855469 25.164062 Z M 187.855469 25.164062 " fill-opacity="1" fill-rule="evenodd"/><path fill="#010101" d="M 265.035156 119.460938 C 266.9375 116.558594 272.242188 120.394531 269.640625 122.714844 C 268.394531 122.789062 268.992188 121.015625 268.285156 120.550781 C 267.542969 119.851562 264.957031 120.984375 265.035156 119.460938 Z M 265.035156 119.460938 " fill-opacity="1" fill-rule="evenodd"/><path fill="#010101" d="M 365.503906 181.515625 C 366.453125 181.828125 366.339844 183.222656 366.320312 184.496094 C 363.917969 188.027344 358.859375 181.863281 363.339844 180.703125 C 364.253906 180.785156 363.789062 182.246094 364.695312 182.332031 C 364.648438 181.746094 364.914062 181.46875 365.503906 181.515625 Z M 365.503906 181.515625 " fill-opacity="1" fill-rule="evenodd"/><path fill="#010101" d="M 173.773438 249.269531 C 173.167969 241.957031 185.367188 248.800781 178.382812 251.976562 C 176.9375 251.007812 178.933594 249.964844 178.644531 248.453125 C 176.824219 246.746094 175.707031 249.390625 173.773438 249.269531 Z M 173.773438 249.269531 " fill-opacity="1" fill-rule="evenodd"/></svg>