<svg xmlns="http://www.w3.org/2000/svg" xmlns:xlink="http://www.w3.org/1999/xlink" width="500" zoomAndPan="magnify" viewBox="0 0 375 374.999991" height="500" preserveAspectRatio="xMidYMid meet" version="1.0"><path fill="#ff004f" d="M 219.917969 149.917969 C 192.433594 91.441406 149.382812 49.613281 108.996094 36.929688 L 100.378906 18.59375 L 57.710938 38.664062 C 8 62.046875 0.0351562 149.769531 39.914062 234.597656 C 79.792969 319.425781 152.414062 369.230469 202.113281 345.839844 L 244.78125 325.773438 L 236.164062 307.4375 C 252.148438 268.230469 247.40625 208.390625 219.910156 149.90625 Z M 219.917969 149.917969 " fill-opacity="1" fill-rule="nonzero"/><path fill="#010113" d="M 175.457031 353.035156 C 157.078125 353.035156 136.910156 345.910156 116.542969 331.945312 C 85.710938 310.792969 58.050781 276.433594 38.660156 235.1875 C 19.269531 193.941406 10.457031 150.71875 13.839844 113.464844 C 17.246094 75.949219 32.621094 48.941406 57.117188 37.417969 L 101.03125 16.753906 L 109.980469 35.792969 C 151.988281 49.265625 194.53125 92.699219 221.15625 149.332031 C 247.78125 205.964844 254.082031 266.453125 237.664062 307.402344 L 246.613281 326.441406 L 202.699219 347.105469 C 194.261719 351.070312 185.101562 353.035156 175.449219 353.042969 Z M 99.714844 20.433594 L 58.300781 39.917969 C 34.71875 51.007812 19.914062 77.222656 16.601562 113.71875 C 13.265625 150.484375 21.988281 193.203125 41.167969 234.011719 C 80.65625 318.011719 152.597656 367.628906 201.53125 344.601562 L 242.945312 325.117188 L 234.65625 307.488281 L 234.882812 306.929688 C 251.300781 266.660156 245.085938 206.722656 218.664062 150.519531 C 192.242188 94.304688 150.0625 51.296875 108.578125 38.261719 L 108.003906 38.078125 L 99.714844 20.449219 Z M 99.714844 20.433594 " fill-opacity="1" fill-rule="nonzero"/><path fill="#010113" d="M 102.015625 205.40625 L 134.835938 48.878906 C 126.207031 43.695312 117.539062 39.621094 108.980469 36.929688 L 100.359375 18.59375 L 57.691406 38.664062 C 26.265625 53.449219 11.546875 93.953125 15.03125 143.175781 L 64.0625 162.707031 L 102.015625 205.398438 Z M 102.015625 205.40625 " fill-opacity="1" fill-rule="nonzero"/><path fill="#ff004f" d="M 262.585938 129.832031 C 263.769531 132.34375 264.914062 134.875 266.019531 137.417969 C 267.128906 139.964844 268.199219 142.519531 269.230469 145.089844 C 270.261719 147.660156 271.253906 150.238281 272.207031 152.824219 C 273.160156 155.414062 274.074219 158.007812 274.945312 160.609375 C 275.816406 163.207031 276.648438 165.8125 277.433594 168.417969 C 278.222656 171.023438 278.96875 173.632812 279.671875 176.238281 C 280.375 178.84375 281.035156 181.449219 281.652344 184.046875 C 282.269531 186.648438 282.839844 189.242188 283.371094 191.828125 C 283.898438 194.417969 284.382812 196.996094 284.820312 199.5625 C 285.257812 202.132812 285.652344 204.6875 286 207.230469 C 286.347656 209.773438 286.648438 212.300781 286.90625 214.816406 C 287.164062 217.328125 287.375 219.820312 287.539062 222.296875 C 287.703125 224.769531 287.820312 227.222656 287.890625 229.65625 C 287.964844 232.085938 287.988281 234.496094 287.96875 236.878906 C 287.949219 239.261719 287.878906 241.613281 287.765625 243.941406 C 287.652344 246.269531 287.492188 248.566406 287.289062 250.835938 C 287.082031 253.101562 286.832031 255.335938 286.53125 257.539062 C 286.234375 259.742188 285.890625 261.90625 285.503906 264.035156 C 285.113281 266.167969 284.679688 268.257812 284.203125 270.3125 C 283.722656 272.367188 283.199219 274.378906 282.628906 276.351562 C 282.0625 278.324219 281.449219 280.253906 280.796875 282.140625 C 280.140625 284.027344 279.441406 285.871094 278.699219 287.667969 C 277.957031 289.460938 277.171875 291.210938 276.347656 292.910156 C 275.519531 294.613281 274.652344 296.265625 273.746094 297.867188 C 272.835938 299.46875 271.886719 301.019531 270.898438 302.519531 C 269.910156 304.019531 268.882812 305.464844 267.816406 306.855469 C 266.75 308.25 265.644531 309.589844 264.503906 310.871094 C 263.363281 312.152344 262.183594 313.378906 260.972656 314.550781 C 259.757812 315.71875 258.507812 316.832031 257.226562 317.886719 C 255.941406 318.941406 254.625 319.9375 253.273438 320.871094 C 251.925781 321.808594 250.542969 322.683594 249.128906 323.5 C 247.71875 324.316406 246.273438 325.070312 244.800781 325.761719 C 243.328125 326.457031 241.828125 327.085938 240.296875 327.65625 C 238.769531 328.226562 237.214844 328.730469 235.632812 329.175781 C 234.050781 329.617188 232.445312 329.996094 230.816406 330.3125 C 229.183594 330.628906 227.53125 330.882812 225.855469 331.074219 C 224.179688 331.261719 222.484375 331.386719 220.769531 331.449219 C 219.054688 331.511719 217.320312 331.507812 215.566406 331.441406 C 213.816406 331.375 212.046875 331.246094 210.261719 331.050781 C 208.476562 330.855469 206.679688 330.597656 204.863281 330.277344 C 203.050781 329.957031 201.226562 329.570312 199.390625 329.121094 C 197.554688 328.675781 195.707031 328.164062 193.851562 327.589844 C 191.996094 327.015625 190.132812 326.378906 188.261719 325.683594 C 186.390625 324.984375 184.515625 324.226562 182.632812 323.40625 C 180.75 322.585938 178.867188 321.703125 176.980469 320.765625 C 175.09375 319.824219 173.207031 318.824219 171.316406 317.765625 C 169.429688 316.707031 167.542969 315.589844 165.65625 314.414062 C 163.773438 313.238281 161.890625 312.007812 160.015625 310.722656 C 158.136719 309.433594 156.265625 308.09375 154.402344 306.695312 C 152.535156 305.296875 150.679688 303.847656 148.832031 302.34375 C 146.984375 300.839844 145.148438 299.285156 143.320312 297.679688 C 141.496094 296.074219 139.679688 294.417969 137.878906 292.714844 C 136.078125 291.007812 134.292969 289.257812 132.523438 287.457031 C 130.75 285.65625 128.996094 283.8125 127.261719 281.921875 C 125.523438 280.03125 123.808594 278.101562 122.109375 276.125 C 120.410156 274.148438 118.734375 272.132812 117.078125 270.074219 C 115.421875 268.019531 113.792969 265.921875 112.183594 263.789062 C 110.574219 261.65625 108.988281 259.488281 107.429688 257.285156 C 105.871094 255.078125 104.339844 252.84375 102.835938 250.574219 C 101.332031 248.304688 99.859375 246.003906 98.410156 243.671875 C 96.964844 241.34375 95.550781 238.984375 94.164062 236.601562 C 92.777344 234.214844 91.425781 231.808594 90.105469 229.375 C 88.785156 226.941406 87.5 224.484375 86.246094 222.007812 C 84.992188 219.53125 83.777344 217.035156 82.59375 214.523438 C 81.414062 212.011719 80.269531 209.480469 79.160156 206.9375 C 78.050781 204.390625 76.980469 201.835938 75.949219 199.265625 C 74.917969 196.695312 73.925781 194.117188 72.972656 191.53125 C 72.019531 188.941406 71.109375 186.347656 70.234375 183.746094 C 69.363281 181.144531 68.535156 178.542969 67.746094 175.9375 C 66.957031 173.328125 66.210938 170.722656 65.507812 168.117188 C 64.804688 165.511719 64.144531 162.90625 63.527344 160.308594 C 62.910156 157.707031 62.339844 155.113281 61.8125 152.527344 C 61.28125 149.9375 60.800781 147.359375 60.359375 144.792969 C 59.921875 142.222656 59.527344 139.667969 59.179688 137.125 C 58.832031 134.582031 58.53125 132.050781 58.273438 129.539062 C 58.019531 127.027344 57.808594 124.535156 57.644531 122.058594 C 57.480469 119.585938 57.359375 117.132812 57.289062 114.699219 C 57.21875 112.265625 57.191406 109.859375 57.210938 107.476562 C 57.234375 105.09375 57.300781 102.738281 57.414062 100.410156 C 57.527344 98.085938 57.6875 95.785156 57.890625 93.519531 C 58.097656 91.25 58.351562 89.015625 58.648438 86.816406 C 58.945312 84.613281 59.289062 82.449219 59.675781 80.316406 C 60.066406 78.1875 60.5 76.097656 60.980469 74.042969 C 61.457031 71.988281 61.980469 69.972656 62.550781 68 C 63.117188 66.027344 63.730469 64.097656 64.386719 62.214844 C 65.042969 60.328125 65.738281 58.484375 66.480469 56.6875 C 67.222656 54.894531 68.007812 53.144531 68.832031 51.441406 C 69.660156 49.742188 70.527344 48.089844 71.4375 46.488281 C 72.34375 44.886719 73.292969 43.335938 74.28125 41.835938 C 75.269531 40.335938 76.296875 38.890625 77.363281 37.496094 C 78.429688 36.105469 79.535156 34.765625 80.675781 33.484375 C 81.816406 32.199219 82.996094 30.972656 84.210938 29.804688 C 85.421875 28.632812 86.671875 27.523438 87.957031 26.46875 C 89.238281 25.414062 90.554688 24.417969 91.90625 23.480469 C 93.253906 22.546875 94.636719 21.671875 96.050781 20.855469 C 97.464844 20.039062 98.90625 19.285156 100.378906 18.59375 C 101.851562 17.898438 103.351562 17.269531 104.882812 16.699219 C 106.410156 16.128906 107.964844 15.625 109.546875 15.179688 C 111.128906 14.738281 112.734375 14.355469 114.367188 14.039062 C 115.996094 13.722656 117.648438 13.472656 119.324219 13.28125 C 121 13.09375 122.695312 12.96875 124.410156 12.90625 C 126.125 12.84375 127.859375 12.847656 129.613281 12.914062 C 131.367188 12.980469 133.132812 13.109375 134.917969 13.304688 C 136.703125 13.5 138.503906 13.757812 140.316406 14.078125 C 142.128906 14.398438 143.953125 14.785156 145.789062 15.234375 C 147.628906 15.679688 149.472656 16.191406 151.328125 16.765625 C 153.183594 17.339844 155.050781 17.976562 156.917969 18.671875 C 158.789062 19.371094 160.667969 20.128906 162.546875 20.949219 C 164.429688 21.769531 166.3125 22.648438 168.199219 23.589844 C 170.085938 24.53125 171.976562 25.53125 173.863281 26.589844 C 175.75 27.648438 177.636719 28.765625 179.523438 29.941406 C 181.40625 31.113281 183.289062 32.34375 185.164062 33.632812 C 187.042969 34.921875 188.914062 36.261719 190.777344 37.660156 C 192.644531 39.054688 194.5 40.507812 196.347656 42.011719 C 198.195312 43.511719 200.03125 45.066406 201.859375 46.675781 C 203.6875 48.28125 205.5 49.933594 207.300781 51.640625 C 209.101562 53.34375 210.886719 55.097656 212.660156 56.898438 C 214.429688 58.695312 216.183594 60.542969 217.917969 62.433594 C 219.65625 64.320312 221.375 66.253906 223.070312 68.230469 C 224.769531 70.207031 226.445312 72.222656 228.101562 74.28125 C 229.757812 76.335938 231.390625 78.433594 233 80.566406 C 234.605469 82.699219 236.191406 84.867188 237.75 87.070312 C 239.308594 89.273438 240.839844 91.511719 242.34375 93.78125 C 243.847656 96.050781 245.324219 98.351562 246.769531 100.683594 C 248.214844 103.011719 249.632812 105.371094 251.015625 107.753906 C 252.402344 110.136719 253.753906 112.546875 255.074219 114.980469 C 256.394531 117.414062 257.683594 119.871094 258.933594 122.347656 C 260.1875 124.824219 261.40625 127.316406 262.585938 129.832031 Z M 262.585938 129.832031 " fill-opacity="1" fill-rule="nonzero"/><path fill="#010113" d="M 218.125 332.964844 C 199.746094 332.964844 179.578125 325.839844 159.210938 311.875 C 128.378906 290.722656 100.71875 256.367188 81.328125 215.121094 C 61.9375 173.875 53.125 130.648438 56.507812 93.394531 C 59.914062 55.882812 75.289062 28.871094 99.785156 17.347656 C 124.28125 5.820312 154.890625 11.199219 185.941406 32.5 C 216.773438 53.648438 244.433594 88.007812 263.824219 129.253906 C 283.214844 170.5 292.027344 213.726562 288.644531 250.976562 C 285.238281 288.492188 269.863281 315.5 245.367188 327.027344 C 236.929688 330.992188 227.769531 332.964844 218.117188 332.964844 Z M 127.035156 14.183594 C 117.78125 14.183594 109.023438 16.058594 100.960938 19.847656 C 52.027344 42.875 44.332031 129.941406 83.828125 213.941406 C 116.769531 284.019531 172.300781 330.15625 218.21875 330.164062 C 227.34375 330.164062 236.078125 328.34375 244.191406 324.535156 C 267.773438 313.445312 282.578125 287.226562 285.898438 250.734375 C 289.238281 213.96875 280.511719 171.25 261.332031 130.441406 C 242.152344 89.628906 214.820312 55.664062 184.390625 34.792969 C 164.5 21.148438 144.867188 14.191406 127.046875 14.191406 Z M 127.035156 14.183594 " fill-opacity="1" fill-rule="nonzero"/><path fill="#ffeacf" d="M 240.65625 140.152344 C 241.664062 142.292969 242.640625 144.449219 243.59375 146.613281 C 244.546875 148.78125 245.46875 150.957031 246.363281 153.140625 C 247.253906 155.324219 248.117188 157.515625 248.953125 159.710938 C 249.785156 161.90625 250.585938 164.109375 251.359375 166.3125 C 252.128906 168.515625 252.867188 170.722656 253.574219 172.925781 C 254.28125 175.132812 254.953125 177.335938 255.597656 179.539062 C 256.238281 181.742188 256.84375 183.941406 257.417969 186.136719 C 257.992188 188.332031 258.53125 190.519531 259.035156 192.699219 C 259.539062 194.878906 260.007812 197.050781 260.441406 199.210938 C 260.878906 201.371094 261.277344 203.523438 261.640625 205.660156 C 262.003906 207.796875 262.332031 209.917969 262.621094 212.027344 C 262.914062 214.132812 263.167969 216.222656 263.386719 218.296875 C 263.605469 220.371094 263.789062 222.421875 263.933594 224.457031 C 264.082031 226.488281 264.191406 228.5 264.261719 230.492188 C 264.335938 232.480469 264.371094 234.445312 264.367188 236.382812 C 264.367188 238.324219 264.328125 240.238281 264.253906 242.121094 C 264.175781 244.007812 264.066406 245.863281 263.917969 247.691406 C 263.769531 249.519531 263.582031 251.316406 263.359375 253.082031 C 263.140625 254.84375 262.882812 256.578125 262.585938 258.273438 C 262.292969 259.972656 261.960938 261.632812 261.59375 263.261719 C 261.230469 264.886719 260.828125 266.476562 260.390625 268.027344 C 259.953125 269.578125 259.480469 271.089844 258.972656 272.5625 C 258.464844 274.035156 257.921875 275.464844 257.347656 276.855469 C 256.769531 278.246094 256.160156 279.59375 255.515625 280.898438 C 254.875 282.203125 254.195312 283.460938 253.488281 284.675781 C 252.777344 285.894531 252.035156 287.0625 251.261719 288.1875 C 250.488281 289.308594 249.683594 290.386719 248.847656 291.414062 C 248.011719 292.445312 247.148438 293.425781 246.25 294.355469 C 245.355469 295.289062 244.429688 296.171875 243.476562 297.003906 C 242.523438 297.835938 241.539062 298.621094 240.53125 299.351562 C 239.519531 300.082031 238.484375 300.761719 237.421875 301.390625 C 236.359375 302.019531 235.269531 302.597656 234.15625 303.121094 C 233.042969 303.644531 231.902344 304.117188 230.742188 304.535156 C 229.578125 304.953125 228.394531 305.316406 227.1875 305.628906 C 225.980469 305.941406 224.753906 306.199219 223.503906 306.402344 C 222.253906 306.605469 220.984375 306.757812 219.695312 306.851562 C 218.40625 306.949219 217.097656 306.992188 215.773438 306.980469 C 214.445312 306.964844 213.105469 306.898438 211.746094 306.78125 C 210.386719 306.660156 209.015625 306.484375 207.625 306.257812 C 206.238281 306.027344 204.835938 305.746094 203.421875 305.410156 C 202.007812 305.074219 200.582031 304.683594 199.144531 304.242188 C 197.707031 303.800781 196.257812 303.304688 194.800781 302.757812 C 193.34375 302.207031 191.878906 301.609375 190.40625 300.957031 C 188.929688 300.304688 187.453125 299.601562 185.964844 298.847656 C 184.480469 298.089844 182.988281 297.285156 181.496094 296.429688 C 180 295.574219 178.5 294.671875 177 293.714844 C 175.5 292.761719 174 291.757812 172.496094 290.707031 C 170.996094 289.65625 169.496094 288.558594 167.996094 287.414062 C 166.496094 286.269531 164.996094 285.078125 163.503906 283.84375 C 162.007812 282.609375 160.519531 281.328125 159.03125 280.003906 C 157.546875 278.679688 156.066406 277.3125 154.59375 275.90625 C 153.121094 274.496094 151.65625 273.046875 150.199219 271.554688 C 148.742188 270.066406 147.296875 268.535156 145.859375 266.964844 C 144.421875 265.398438 143 263.792969 141.585938 262.148438 C 140.171875 260.507812 138.769531 258.828125 137.382812 257.113281 C 135.996094 255.402344 134.625 253.65625 133.265625 251.875 C 131.910156 250.097656 130.570312 248.285156 129.246094 246.445312 C 127.921875 244.605469 126.617188 242.734375 125.328125 240.835938 C 124.039062 238.9375 122.773438 237.011719 121.523438 235.0625 C 120.277344 233.109375 119.050781 231.132812 117.84375 229.132812 C 116.640625 227.136719 115.457031 225.113281 114.296875 223.070312 C 113.136719 221.027344 112 218.964844 110.886719 216.882812 C 109.777344 214.804688 108.6875 212.707031 107.628906 210.589844 C 106.566406 208.476562 105.53125 206.347656 104.527344 204.203125 C 103.519531 202.0625 102.539062 199.90625 101.585938 197.742188 C 100.636719 195.574219 99.710938 193.398438 98.820312 191.214844 C 97.925781 189.03125 97.0625 186.839844 96.230469 184.644531 C 95.394531 182.449219 94.59375 180.246094 93.824219 178.042969 C 93.050781 175.839844 92.3125 173.632812 91.605469 171.425781 C 90.898438 169.222656 90.226562 167.015625 89.585938 164.8125 C 88.945312 162.609375 88.335938 160.414062 87.761719 158.21875 C 87.191406 156.023438 86.652344 153.835938 86.144531 151.65625 C 85.640625 149.476562 85.171875 147.304688 84.738281 145.144531 C 84.304688 142.980469 83.902344 140.832031 83.539062 138.695312 C 83.175781 136.558594 82.851562 134.4375 82.558594 132.328125 C 82.265625 130.222656 82.011719 128.132812 81.792969 126.058594 C 81.574219 123.984375 81.390625 121.933594 81.246094 119.898438 C 81.101562 117.863281 80.992188 115.855469 80.917969 113.863281 C 80.847656 111.875 80.8125 109.910156 80.8125 107.972656 C 80.8125 106.03125 80.851562 104.117188 80.925781 102.234375 C 81.003906 100.347656 81.113281 98.488281 81.261719 96.664062 C 81.414062 94.835938 81.597656 93.039062 81.820312 91.273438 C 82.042969 89.507812 82.300781 87.777344 82.59375 86.082031 C 82.886719 84.382812 83.21875 82.722656 83.585938 81.09375 C 83.953125 79.46875 84.355469 77.878906 84.792969 76.328125 C 85.230469 74.777344 85.703125 73.265625 86.207031 71.792969 C 86.714844 70.320312 87.257812 68.890625 87.835938 67.5 C 88.410156 66.109375 89.019531 64.761719 89.664062 63.457031 C 90.308594 62.152344 90.984375 60.894531 91.691406 59.675781 C 92.402344 58.460938 93.144531 57.292969 93.917969 56.167969 C 94.691406 55.046875 95.496094 53.96875 96.332031 52.941406 C 97.167969 51.910156 98.03125 50.929688 98.929688 49.996094 C 99.824219 49.066406 100.75 48.183594 101.703125 47.351562 C 102.65625 46.515625 103.640625 45.734375 104.648438 45.003906 C 105.660156 44.273438 106.695312 43.589844 107.757812 42.960938 C 108.820312 42.335938 109.910156 41.757812 111.023438 41.234375 C 112.136719 40.710938 113.277344 40.238281 114.4375 39.820312 C 115.601562 39.402344 116.785156 39.035156 117.992188 38.726562 C 119.199219 38.414062 120.429688 38.15625 121.679688 37.953125 C 122.929688 37.746094 124.195312 37.597656 125.484375 37.5 C 126.777344 37.40625 128.082031 37.363281 129.40625 37.375 C 130.734375 37.386719 132.074219 37.453125 133.433594 37.574219 C 134.792969 37.695312 136.164062 37.871094 137.554688 38.097656 C 138.941406 38.328125 140.34375 38.609375 141.757812 38.945312 C 143.171875 39.28125 144.597656 39.671875 146.035156 40.113281 C 147.476562 40.554688 148.921875 41.050781 150.378906 41.597656 C 151.835938 42.144531 153.300781 42.746094 154.777344 43.398438 C 156.25 44.050781 157.730469 44.753906 159.214844 45.507812 C 160.699219 46.261719 162.191406 47.070312 163.6875 47.925781 C 165.179688 48.78125 166.679688 49.683594 168.179688 50.640625 C 169.679688 51.59375 171.179688 52.597656 172.683594 53.648438 C 174.183594 54.699219 175.6875 55.796875 177.1875 56.941406 C 178.6875 58.085938 180.183594 59.273438 181.679688 60.511719 C 183.171875 61.746094 184.664062 63.027344 186.148438 64.351562 C 187.632812 65.675781 189.113281 67.042969 190.585938 68.449219 C 192.058594 69.859375 193.523438 71.308594 194.980469 72.800781 C 196.4375 74.289062 197.882812 75.820312 199.320312 77.386719 C 200.757812 78.957031 202.183594 80.5625 203.597656 82.207031 C 205.011719 83.847656 206.410156 85.527344 207.796875 87.238281 C 209.183594 88.953125 210.554688 90.699219 211.914062 92.480469 C 213.269531 94.257812 214.613281 96.066406 215.933594 97.910156 C 217.257812 99.75 218.566406 101.621094 219.851562 103.519531 C 221.140625 105.417969 222.40625 107.34375 223.65625 109.292969 C 224.902344 111.246094 226.128906 113.21875 227.335938 115.21875 C 228.542969 117.21875 229.726562 119.242188 230.882812 121.285156 C 232.042969 123.328125 233.179688 125.390625 234.292969 127.46875 C 235.40625 129.550781 236.492188 131.648438 237.550781 133.765625 C 238.613281 135.878906 239.648438 138.007812 240.65625 140.152344 Z M 240.65625 140.152344 " fill-opacity="1" fill-rule="nonzero"/><path fill="#ff004f" d="M 219.921875 149.90625 C 220.730469 151.625 221.519531 153.347656 222.285156 155.082031 C 223.054688 156.816406 223.804688 158.554688 224.53125 160.300781 C 225.257812 162.046875 225.964844 163.796875 226.652344 165.546875 C 227.335938 167.300781 228 169.054688 228.640625 170.8125 C 229.28125 172.566406 229.898438 174.324219 230.496094 176.078125 C 231.089844 177.832031 231.664062 179.585938 232.210938 181.335938 C 232.757812 183.085938 233.28125 184.828125 233.78125 186.570312 C 234.28125 188.308594 234.753906 190.042969 235.207031 191.769531 C 235.65625 193.496094 236.078125 195.214844 236.476562 196.921875 C 236.878906 198.632812 237.25 200.328125 237.597656 202.015625 C 237.945312 203.703125 238.265625 205.375 238.558594 207.039062 C 238.855469 208.699219 239.121094 210.34375 239.363281 211.976562 C 239.605469 213.605469 239.820312 215.21875 240.007812 216.816406 C 240.195312 218.414062 240.355469 219.992188 240.488281 221.550781 C 240.621094 223.109375 240.726562 224.648438 240.804688 226.164062 C 240.882812 227.683594 240.933594 229.179688 240.957031 230.652344 C 240.980469 232.121094 240.976562 233.570312 240.945312 234.996094 C 240.910156 236.417969 240.851562 237.816406 240.765625 239.1875 C 240.679688 240.558594 240.566406 241.902344 240.425781 243.21875 C 240.285156 244.535156 240.117188 245.820312 239.921875 247.078125 C 239.726562 248.335938 239.503906 249.5625 239.253906 250.757812 C 239.003906 251.953125 238.730469 253.117188 238.425781 254.25 C 238.125 255.378906 237.796875 256.476562 237.441406 257.542969 C 237.085938 258.605469 236.703125 259.636719 236.296875 260.628906 C 235.890625 261.625 235.460938 262.582031 235.003906 263.503906 C 234.546875 264.425781 234.0625 265.308594 233.554688 266.15625 C 233.050781 267.003906 232.519531 267.8125 231.964844 268.585938 C 231.40625 269.355469 230.828125 270.089844 230.226562 270.78125 C 229.625 271.472656 229 272.125 228.351562 272.738281 C 227.703125 273.351562 227.035156 273.921875 226.34375 274.453125 C 225.652344 274.984375 224.9375 275.476562 224.203125 275.921875 C 223.46875 276.371094 222.714844 276.777344 221.941406 277.140625 C 221.167969 277.507812 220.371094 277.828125 219.558594 278.109375 C 218.746094 278.386719 217.914062 278.625 217.066406 278.820312 C 216.214844 279.015625 215.347656 279.164062 214.460938 279.273438 C 213.578125 279.382812 212.675781 279.449219 211.757812 279.46875 C 210.84375 279.492188 209.910156 279.472656 208.960938 279.40625 C 208.015625 279.34375 207.050781 279.238281 206.078125 279.085938 C 205.101562 278.9375 204.113281 278.746094 203.109375 278.507812 C 202.109375 278.273438 201.097656 277.996094 200.070312 277.675781 C 199.046875 277.355469 198.011719 276.992188 196.964844 276.585938 C 195.921875 276.183594 194.867188 275.734375 193.800781 275.246094 C 192.738281 274.757812 191.667969 274.230469 190.585938 273.660156 C 189.507812 273.089844 188.421875 272.476562 187.328125 271.824219 C 186.234375 271.175781 185.136719 270.484375 184.035156 269.753906 C 182.929688 269.023438 181.824219 268.253906 180.710938 267.445312 C 179.601562 266.636719 178.488281 265.792969 177.371094 264.90625 C 176.253906 264.023438 175.136719 263.105469 174.019531 262.148438 C 172.898438 261.191406 171.78125 260.199219 170.660156 259.167969 C 169.542969 258.140625 168.425781 257.078125 167.308594 255.984375 C 166.195312 254.886719 165.082031 253.757812 163.972656 252.59375 C 162.859375 251.429688 161.753906 250.238281 160.652344 249.011719 C 159.550781 247.785156 158.453125 246.527344 157.363281 245.242188 C 156.273438 243.957031 155.1875 242.640625 154.109375 241.300781 C 153.035156 239.957031 151.964844 238.585938 150.902344 237.1875 C 149.839844 235.792969 148.789062 234.371094 147.746094 232.921875 C 146.703125 231.472656 145.671875 230.003906 144.652344 228.507812 C 143.628906 227.015625 142.621094 225.496094 141.621094 223.960938 C 140.625 222.421875 139.640625 220.863281 138.667969 219.285156 C 137.695312 217.707031 136.738281 216.113281 135.796875 214.5 C 134.851562 212.882812 133.925781 211.253906 133.011719 209.609375 C 132.097656 207.964844 131.203125 206.304688 130.324219 204.628906 C 129.445312 202.957031 128.582031 201.269531 127.738281 199.574219 C 126.890625 197.875 126.066406 196.167969 125.257812 194.449219 C 124.449219 192.730469 123.664062 191.003906 122.894531 189.273438 C 122.125 187.539062 121.375 185.796875 120.648438 184.054688 C 119.921875 182.308594 119.214844 180.558594 118.527344 178.804688 C 117.84375 177.054688 117.179688 175.300781 116.539062 173.542969 C 115.898438 171.789062 115.28125 170.03125 114.683594 168.277344 C 114.089844 166.523438 113.519531 164.769531 112.96875 163.019531 C 112.421875 161.269531 111.898438 159.527344 111.398438 157.785156 C 110.898438 156.046875 110.425781 154.3125 109.976562 152.585938 C 109.523438 150.859375 109.101562 149.140625 108.703125 147.433594 C 108.304688 145.722656 107.929688 144.027344 107.582031 142.339844 C 107.234375 140.652344 106.914062 138.976562 106.621094 137.316406 C 106.324219 135.65625 106.058594 134.011719 105.816406 132.378906 C 105.574219 130.75 105.363281 129.136719 105.175781 127.539062 C 104.988281 125.941406 104.828125 124.363281 104.695312 122.804688 C 104.5625 121.246094 104.457031 119.707031 104.378906 118.1875 C 104.300781 116.671875 104.25 115.175781 104.226562 113.703125 C 104.203125 112.230469 104.207031 110.785156 104.238281 109.359375 C 104.269531 107.9375 104.328125 106.539062 104.414062 105.167969 C 104.5 103.796875 104.613281 102.453125 104.753906 101.136719 C 104.894531 99.820312 105.066406 98.53125 105.261719 97.277344 C 105.457031 96.019531 105.675781 94.792969 105.925781 93.597656 C 106.175781 92.398438 106.453125 91.238281 106.753906 90.105469 C 107.054688 88.972656 107.386719 87.875 107.738281 86.8125 C 108.09375 85.75 108.476562 84.71875 108.882812 83.726562 C 109.289062 82.730469 109.722656 81.773438 110.179688 80.851562 C 110.636719 79.929688 111.117188 79.042969 111.625 78.199219 C 112.132812 77.351562 112.660156 76.539062 113.21875 75.769531 C 113.773438 75 114.351562 74.265625 114.953125 73.574219 C 115.554688 72.882812 116.179688 72.230469 116.828125 71.617188 C 117.476562 71.003906 118.144531 70.433594 118.835938 69.902344 C 119.527344 69.371094 120.242188 68.878906 120.976562 68.433594 C 121.710938 67.984375 122.464844 67.578125 123.238281 67.210938 C 124.011719 66.847656 124.808594 66.527344 125.621094 66.246094 C 126.433594 65.964844 127.265625 65.730469 128.117188 65.535156 C 128.964844 65.339844 129.832031 65.1875 130.71875 65.082031 C 131.601562 64.972656 132.503906 64.90625 133.421875 64.882812 C 134.339844 64.863281 135.269531 64.882812 136.21875 64.945312 C 137.167969 65.011719 138.128906 65.117188 139.105469 65.265625 C 140.078125 65.417969 141.066406 65.609375 142.070312 65.84375 C 143.070312 66.082031 144.085938 66.359375 145.109375 66.679688 C 146.132812 67 147.167969 67.363281 148.214844 67.769531 C 149.261719 68.171875 150.316406 68.621094 151.378906 69.109375 C 152.441406 69.597656 153.515625 70.125 154.59375 70.695312 C 155.671875 71.265625 156.761719 71.878906 157.851562 72.527344 C 158.945312 73.179688 160.042969 73.871094 161.148438 74.601562 C 162.25 75.332031 163.355469 76.101562 164.46875 76.910156 C 165.578125 77.71875 166.695312 78.5625 167.808594 79.445312 C 168.925781 80.332031 170.042969 81.25 171.164062 82.207031 C 172.28125 83.164062 173.398438 84.15625 174.519531 85.183594 C 175.636719 86.214844 176.753906 87.277344 177.871094 88.371094 C 178.984375 89.46875 180.097656 90.597656 181.210938 91.761719 C 182.320312 92.925781 183.425781 94.117188 184.527344 95.34375 C 185.628906 96.570312 186.726562 97.824219 187.816406 99.113281 C 188.90625 100.398438 189.992188 101.710938 191.070312 103.054688 C 192.148438 104.398438 193.214844 105.769531 194.277344 107.167969 C 195.339844 108.5625 196.390625 109.984375 197.433594 111.433594 C 198.476562 112.878906 199.507812 114.351562 200.53125 115.847656 C 201.550781 117.339844 202.5625 118.855469 203.558594 120.394531 C 204.554688 121.933594 205.539062 123.492188 206.511719 125.070312 C 207.484375 126.648438 208.441406 128.242188 209.386719 129.855469 C 210.328125 131.46875 211.257812 133.101562 212.167969 134.746094 C 213.082031 136.390625 213.976562 138.050781 214.855469 139.726562 C 215.738281 141.398438 216.597656 143.085938 217.445312 144.78125 C 218.289062 146.480469 219.113281 148.1875 219.921875 149.90625 Z M 219.921875 149.90625 " fill-opacity="1" fill-rule="nonzero"/><path fill="#010113" d="M 210.941406 280.984375 C 199.761719 280.984375 186.714844 274.953125 173.050781 263.269531 C 154.636719 247.515625 137.1875 223.304688 123.925781 195.085938 C 110.660156 166.863281 103.140625 137.972656 102.757812 113.746094 C 102.363281 89.105469 109.414062 72.113281 122.609375 65.90625 C 135.804688 59.699219 153.382812 65.105469 172.101562 81.121094 C 190.515625 96.875 207.960938 121.085938 221.226562 149.316406 C 234.492188 177.535156 242.011719 206.429688 242.394531 230.65625 C 242.785156 255.292969 235.738281 272.285156 222.542969 278.492188 C 218.976562 280.167969 215.082031 281.003906 210.941406 281.003906 Z M 134.304688 66.292969 C 130.59375 66.292969 127.089844 67.023438 123.855469 68.539062 C 98.488281 80.476562 99.699219 136.683594 126.566406 193.839844 C 153.433594 250.988281 195.9375 287.777344 221.304688 275.84375 C 246.675781 263.90625 245.453125 207.691406 218.59375 150.542969 C 195.144531 100.667969 159.785156 66.292969 134.304688 66.292969 Z M 134.304688 66.292969 " fill-opacity="1" fill-rule="nonzero"/><path fill="#ffeacf" d="M 204.214844 157.296875 C 204.828125 158.605469 205.433594 159.921875 206.019531 161.242188 C 206.609375 162.5625 207.1875 163.886719 207.75 165.210938 C 208.308594 166.539062 208.859375 167.867188 209.390625 169.199219 C 209.925781 170.53125 210.441406 171.859375 210.945312 173.191406 C 211.449219 174.523438 211.933594 175.855469 212.40625 177.183594 C 212.878906 178.515625 213.332031 179.839844 213.773438 181.164062 C 214.210938 182.488281 214.632812 183.808594 215.039062 185.121094 C 215.445312 186.4375 215.832031 187.746094 216.203125 189.050781 C 216.574219 190.351562 216.925781 191.648438 217.261719 192.9375 C 217.597656 194.222656 217.914062 195.503906 218.210938 196.773438 C 218.511719 198.042969 218.792969 199.300781 219.054688 200.546875 C 219.316406 201.796875 219.558594 203.035156 219.785156 204.257812 C 220.007812 205.480469 220.214844 206.691406 220.398438 207.890625 C 220.585938 209.085938 220.753906 210.265625 220.902344 211.433594 C 221.046875 212.601562 221.175781 213.75 221.285156 214.882812 C 221.394531 216.019531 221.484375 217.132812 221.550781 218.234375 C 221.621094 219.332031 221.671875 220.410156 221.699219 221.46875 C 221.730469 222.527344 221.742188 223.570312 221.730469 224.585938 C 221.722656 225.605469 221.691406 226.605469 221.644531 227.578125 C 221.59375 228.554688 221.527344 229.507812 221.4375 230.4375 C 221.351562 231.367188 221.242188 232.273438 221.113281 233.15625 C 220.988281 234.039062 220.839844 234.894531 220.675781 235.726562 C 220.507812 236.558594 220.324219 237.363281 220.117188 238.144531 C 219.914062 238.925781 219.691406 239.679688 219.449219 240.402344 C 219.203125 241.128906 218.945312 241.828125 218.664062 242.5 C 218.382812 243.167969 218.085938 243.8125 217.769531 244.425781 C 217.453125 245.039062 217.117188 245.621094 216.765625 246.175781 C 216.414062 246.730469 216.042969 247.253906 215.65625 247.75 C 215.269531 248.242188 214.863281 248.707031 214.441406 249.140625 C 214.019531 249.574219 213.582031 249.972656 213.128906 250.34375 C 212.671875 250.714844 212.203125 251.054688 211.714844 251.363281 C 211.230469 251.671875 210.726562 251.945312 210.210938 252.1875 C 209.691406 252.433594 209.160156 252.644531 208.613281 252.824219 C 208.066406 253 207.503906 253.148438 206.929688 253.261719 C 206.351562 253.375 205.765625 253.457031 205.160156 253.507812 C 204.558594 253.554688 203.945312 253.570312 203.316406 253.554688 C 202.6875 253.539062 202.050781 253.488281 201.398438 253.40625 C 200.746094 253.324219 200.082031 253.210938 199.410156 253.0625 C 198.734375 252.914062 198.050781 252.738281 197.355469 252.523438 C 196.660156 252.3125 195.957031 252.070312 195.242188 251.792969 C 194.53125 251.515625 193.808594 251.207031 193.078125 250.867188 C 192.34375 250.527344 191.605469 250.15625 190.859375 249.753906 C 190.113281 249.351562 189.359375 248.917969 188.597656 248.457031 C 187.839844 247.992188 187.074219 247.496094 186.300781 246.972656 C 185.527344 246.445312 184.75 245.890625 183.96875 245.308594 C 183.1875 244.722656 182.398438 244.109375 181.609375 243.464844 C 180.816406 242.824219 180.023438 242.152344 179.226562 241.453125 C 178.429688 240.753906 177.632812 240.03125 176.828125 239.277344 C 176.027344 238.523438 175.226562 237.742188 174.421875 236.933594 C 173.617188 236.128906 172.816406 235.296875 172.011719 234.4375 C 171.207031 233.582031 170.402344 232.699219 169.601562 231.792969 C 168.796875 230.886719 167.996094 229.953125 167.195312 229 C 166.398438 228.046875 165.601562 227.074219 164.804688 226.074219 C 164.011719 225.078125 163.222656 224.058594 162.433594 223.015625 C 161.648438 221.976562 160.867188 220.917969 160.085938 219.835938 C 159.308594 218.757812 158.539062 217.660156 157.769531 216.542969 C 157.003906 215.425781 156.242188 214.292969 155.488281 213.140625 C 154.734375 211.992188 153.988281 210.824219 153.25 209.644531 C 152.507812 208.460938 151.777344 207.261719 151.054688 206.050781 C 150.332031 204.839844 149.617188 203.617188 148.914062 202.378906 C 148.210938 201.144531 147.515625 199.894531 146.828125 198.636719 C 146.144531 197.375 145.46875 196.105469 144.808594 194.828125 C 144.144531 193.546875 143.492188 192.261719 142.851562 190.964844 C 142.210938 189.667969 141.582031 188.367188 140.96875 187.058594 C 140.351562 185.746094 139.75 184.433594 139.160156 183.113281 C 138.570312 181.792969 137.992188 180.46875 137.433594 179.144531 C 136.871094 177.816406 136.324219 176.488281 135.789062 175.15625 C 135.257812 173.824219 134.738281 172.492188 134.234375 171.160156 C 133.734375 169.828125 133.246094 168.5 132.773438 167.171875 C 132.300781 165.839844 131.847656 164.515625 131.410156 163.191406 C 130.96875 161.867188 130.546875 160.546875 130.140625 159.230469 C 129.738281 157.917969 129.347656 156.609375 128.976562 155.304688 C 128.605469 154.003906 128.253906 152.707031 127.917969 151.417969 C 127.582031 150.132812 127.265625 148.851562 126.96875 147.582031 C 126.667969 146.3125 126.386719 145.054688 126.125 143.804688 C 125.863281 142.558594 125.621094 141.320312 125.398438 140.097656 C 125.171875 138.875 124.96875 137.664062 124.78125 136.464844 C 124.59375 135.269531 124.425781 134.085938 124.28125 132.921875 C 124.132812 131.753906 124.003906 130.605469 123.894531 129.46875 C 123.785156 128.335938 123.699219 127.21875 123.628906 126.121094 C 123.558594 125.023438 123.507812 123.945312 123.480469 122.886719 C 123.449219 121.824219 123.4375 120.785156 123.449219 119.765625 C 123.457031 118.75 123.488281 117.75 123.535156 116.777344 C 123.585938 115.800781 123.652344 114.847656 123.742188 113.917969 C 123.832031 112.988281 123.9375 112.082031 124.066406 111.199219 C 124.191406 110.316406 124.339844 109.460938 124.507812 108.628906 C 124.671875 107.796875 124.859375 106.988281 125.0625 106.210938 C 125.265625 105.429688 125.492188 104.675781 125.734375 103.949219 C 125.976562 103.222656 126.238281 102.527344 126.515625 101.855469 C 126.796875 101.183594 127.09375 100.542969 127.410156 99.929688 C 127.726562 99.316406 128.0625 98.734375 128.414062 98.179688 C 128.765625 97.625 129.136719 97.101562 129.523438 96.605469 C 129.914062 96.113281 130.316406 95.648438 130.738281 95.214844 C 131.160156 94.78125 131.597656 94.378906 132.054688 94.007812 C 132.507812 93.640625 132.976562 93.300781 133.464844 92.992188 C 133.953125 92.683594 134.453125 92.410156 134.972656 92.164062 C 135.488281 91.921875 136.019531 91.710938 136.566406 91.53125 C 137.117188 91.351562 137.675781 91.207031 138.253906 91.09375 C 138.828125 90.980469 139.417969 90.898438 140.019531 90.847656 C 140.621094 90.800781 141.234375 90.785156 141.863281 90.800781 C 142.492188 90.816406 143.132812 90.867188 143.78125 90.949219 C 144.433594 91.03125 145.097656 91.144531 145.769531 91.292969 C 146.445312 91.4375 147.128906 91.617188 147.824219 91.832031 C 148.519531 92.042969 149.222656 92.285156 149.9375 92.5625 C 150.648438 92.839844 151.371094 93.144531 152.105469 93.484375 C 152.835938 93.824219 153.574219 94.195312 154.320312 94.597656 C 155.066406 95 155.820312 95.433594 156.582031 95.898438 C 157.339844 96.363281 158.109375 96.859375 158.878906 97.382812 C 159.652344 97.910156 160.429688 98.464844 161.210938 99.046875 C 161.996094 99.632812 162.78125 100.246094 163.570312 100.886719 C 164.363281 101.53125 165.15625 102.203125 165.953125 102.898438 C 166.75 103.597656 167.550781 104.324219 168.351562 105.078125 C 169.152344 105.832031 169.953125 106.613281 170.757812 107.417969 C 171.5625 108.226562 172.367188 109.058594 173.171875 109.917969 C 173.972656 110.773438 174.777344 111.65625 175.582031 112.5625 C 176.382812 113.46875 177.183594 114.398438 177.984375 115.351562 C 178.785156 116.308594 179.582031 117.28125 180.375 118.28125 C 181.167969 119.277344 181.960938 120.296875 182.746094 121.335938 C 183.53125 122.378906 184.316406 123.4375 185.09375 124.515625 C 185.871094 125.597656 186.644531 126.695312 187.410156 127.8125 C 188.175781 128.929688 188.9375 130.0625 189.691406 131.210938 C 190.445312 132.363281 191.191406 133.53125 191.929688 134.710938 C 192.671875 135.894531 193.402344 137.089844 194.125 138.300781 C 194.847656 139.511719 195.5625 140.738281 196.265625 141.972656 C 196.972656 143.210938 197.667969 144.460938 198.351562 145.71875 C 199.035156 146.976562 199.710938 148.246094 200.375 149.527344 C 201.039062 150.804688 201.6875 152.09375 202.328125 153.390625 C 202.96875 154.683594 203.597656 155.988281 204.214844 157.296875 Z M 204.214844 157.296875 " fill-opacity="1" fill-rule="nonzero"/><path fill="#ff004f" d="M 188.566406 164.660156 C 189.320312 166.261719 190.046875 167.875 190.746094 169.492188 C 191.445312 171.113281 192.113281 172.730469 192.75 174.351562 C 193.386719 175.972656 193.988281 177.582031 194.558594 179.1875 C 195.128906 180.792969 195.660156 182.382812 196.15625 183.957031 C 196.652344 185.535156 197.109375 187.085938 197.527344 188.617188 C 197.945312 190.144531 198.320312 191.644531 198.65625 193.113281 C 198.992188 194.582031 199.285156 196.015625 199.539062 197.410156 C 199.789062 198.804688 199.996094 200.15625 200.15625 201.464844 C 200.320312 202.773438 200.4375 204.03125 200.511719 205.238281 C 200.585938 206.445312 200.613281 207.59375 200.597656 208.691406 C 200.582031 209.785156 200.519531 210.820312 200.414062 211.792969 C 200.308594 212.765625 200.15625 213.671875 199.960938 214.511719 C 199.765625 215.351562 199.527344 216.125 199.246094 216.824219 C 198.964844 217.523438 198.640625 218.152344 198.273438 218.707031 C 197.90625 219.261719 197.5 219.738281 197.054688 220.140625 C 196.605469 220.542969 196.121094 220.867188 195.597656 221.113281 C 195.074219 221.359375 194.515625 221.527344 193.921875 221.613281 C 193.328125 221.703125 192.699219 221.710938 192.039062 221.640625 C 191.378906 221.570312 190.6875 221.417969 189.96875 221.1875 C 189.25 220.960938 188.503906 220.652344 187.734375 220.265625 C 186.960938 219.878906 186.167969 219.417969 185.351562 218.878906 C 184.535156 218.339844 183.699219 217.730469 182.84375 217.042969 C 181.992188 216.359375 181.121094 215.601562 180.238281 214.773438 C 179.359375 213.949219 178.464844 213.054688 177.5625 212.097656 C 176.660156 211.136719 175.75 210.117188 174.835938 209.035156 C 173.921875 207.949219 173.003906 206.8125 172.089844 205.617188 C 171.171875 204.421875 170.257812 203.171875 169.347656 201.875 C 168.433594 200.578125 167.53125 199.238281 166.632812 197.851562 C 165.738281 196.464844 164.851562 195.039062 163.980469 193.578125 C 163.105469 192.113281 162.25 190.621094 161.410156 189.097656 C 160.566406 187.574219 159.746094 186.027344 158.945312 184.457031 C 158.144531 182.882812 157.367188 181.296875 156.613281 179.695312 C 155.859375 178.09375 155.132812 176.480469 154.433594 174.863281 C 153.734375 173.242188 153.070312 171.625 152.429688 170.003906 C 151.792969 168.382812 151.191406 166.769531 150.621094 165.167969 C 150.054688 163.5625 149.519531 161.972656 149.023438 160.394531 C 148.527344 158.820312 148.070312 157.269531 147.652344 155.738281 C 147.234375 154.210938 146.859375 152.710938 146.523438 151.242188 C 146.1875 149.769531 145.894531 148.339844 145.644531 146.945312 C 145.394531 145.546875 145.1875 144.199219 145.023438 142.890625 C 144.859375 141.582031 144.742188 140.324219 144.667969 139.117188 C 144.59375 137.910156 144.566406 136.761719 144.582031 135.664062 C 144.597656 134.570312 144.660156 133.535156 144.765625 132.5625 C 144.875 131.589844 145.023438 130.683594 145.21875 129.84375 C 145.414062 129.003906 145.652344 128.230469 145.933594 127.53125 C 146.214844 126.828125 146.539062 126.203125 146.90625 125.648438 C 147.273438 125.09375 147.679688 124.617188 148.125 124.214844 C 148.574219 123.8125 149.058594 123.488281 149.582031 123.242188 C 150.105469 122.996094 150.664062 122.828125 151.257812 122.738281 C 151.851562 122.652344 152.480469 122.644531 153.140625 122.714844 C 153.800781 122.785156 154.492188 122.9375 155.210938 123.167969 C 155.929688 123.394531 156.675781 123.703125 157.449219 124.089844 C 158.21875 124.476562 159.011719 124.9375 159.832031 125.476562 C 160.648438 126.015625 161.480469 126.625 162.335938 127.3125 C 163.191406 127.996094 164.058594 128.753906 164.941406 129.578125 C 165.824219 130.40625 166.714844 131.300781 167.617188 132.257812 C 168.519531 133.21875 169.429688 134.238281 170.34375 135.320312 C 171.257812 136.402344 172.175781 137.542969 173.09375 138.738281 C 174.007812 139.933594 174.921875 141.179688 175.835938 142.480469 C 176.746094 143.777344 177.648438 145.117188 178.546875 146.503906 C 179.441406 147.890625 180.328125 149.316406 181.199219 150.777344 C 182.074219 152.238281 182.929688 153.734375 183.773438 155.257812 C 184.613281 156.78125 185.433594 158.328125 186.234375 159.898438 C 187.035156 161.46875 187.8125 163.058594 188.566406 164.660156 Z M 188.566406 164.660156 " fill-opacity="1" fill-rule="nonzero"/><path fill="#010113" d="M 192.886719 223.304688 C 181.816406 223.304688 165.667969 202.75 155.160156 180.386719 C 148.945312 167.167969 144.78125 153.925781 143.4375 143.097656 C 142.015625 131.695312 143.960938 124.136719 148.902344 121.808594 C 153.84375 119.480469 160.902344 122.8125 168.78125 131.171875 C 176.257812 139.113281 183.796875 150.769531 190.011719 163.988281 C 196.222656 177.203125 200.390625 190.449219 201.730469 201.273438 C 203.152344 212.679688 201.207031 220.238281 196.265625 222.566406 C 195.210938 223.0625 194.078125 223.296875 192.886719 223.296875 Z M 152.328125 124.257812 C 151.570312 124.257812 150.878906 124.398438 150.253906 124.695312 C 146.714844 126.359375 145.382812 132.925781 146.59375 142.707031 C 147.898438 153.203125 151.960938 166.105469 158.035156 179.027344 C 164.109375 191.945312 171.445312 203.308594 178.699219 211.011719 C 185.453125 218.1875 191.359375 221.34375 194.898438 219.679688 C 198.4375 218.015625 199.769531 211.449219 198.558594 201.667969 C 197.25 191.171875 193.191406 178.269531 187.117188 165.347656 C 181.042969 152.425781 173.703125 141.066406 166.453125 133.359375 C 160.886719 127.441406 155.890625 124.257812 152.328125 124.257812 Z M 152.328125 124.257812 " fill-opacity="1" fill-rule="nonzero"/><path fill="#000000" d="M 180.003906 175.09375 C 178.097656 175.09375 176.265625 174.039062 175.359375 172.207031 C 174.085938 169.644531 175.140625 166.535156 177.703125 165.269531 L 316.800781 96.386719 C 319.363281 95.113281 322.476562 96.167969 323.738281 98.730469 C 325.011719 101.292969 323.957031 104.40625 321.394531 105.671875 L 182.304688 174.554688 C 181.566406 174.921875 180.78125 175.09375 180.015625 175.09375 Z M 180.003906 175.09375 " fill-opacity="1" fill-rule="nonzero"/><path fill="#010113" d="M 183.832031 177.648438 L 211.902344 163.742188 C 216.171875 161.625 217.921875 156.445312 215.804688 152.175781 C 213.695312 147.902344 208.519531 146.148438 204.242188 148.261719 L 176.171875 162.164062 L 172.265625 173.734375 Z M 183.832031 177.648438 " fill-opacity="1" fill-rule="nonzero"/><path fill="#ffc600" d="M 315.03125 102.394531 L 314.625 75.714844 L 350.144531 57.109375 L 350.554688 83.78125 Z M 315.03125 102.394531 " fill-opacity="1" fill-rule="nonzero"/><path fill="#010113" d="M 313.605469 104.789062 L 313.152344 74.84375 L 351.574219 54.714844 L 352.027344 84.660156 Z M 316.105469 76.597656 L 316.460938 99.988281 L 349.082031 82.898438 L 348.726562 59.507812 Z M 316.105469 76.597656 " fill-opacity="1" fill-rule="nonzero"/><path fill="#ffc600" d="M 315.03125 102.394531 L 336.714844 117.910156 L 372.238281 99.308594 L 350.554688 83.78125 Z M 315.03125 102.394531 " fill-opacity="1" fill-rule="nonzero"/><path fill="#010113" d="M 336.59375 119.628906 L 312.246094 102.191406 L 350.667969 82.0625 L 375.015625 99.5 Z M 317.820312 102.585938 L 336.835938 116.203125 L 369.457031 99.113281 L 350.441406 85.496094 Z M 317.820312 102.585938 " fill-opacity="1" fill-rule="nonzero"/></svg>