<svg xmlns="http://www.w3.org/2000/svg" xmlns:xlink="http://www.w3.org/1999/xlink" width="500" zoomAndPan="magnify" viewBox="0 0 375 374.999991" height="500" preserveAspectRatio="xMidYMid meet" version="1.0"><defs><g/><clipPath id="7bbd44b594"><rect x="0" width="32" y="0" height="20"/></clipPath></defs><path fill="#283640" d="M 187.394531 223.660156 C 185.550781 220.167969 183.664062 216.671875 181.742188 213.179688 L 173.433594 198.105469 L 162.492188 178.183594 L 149.726562 155.019531 L 135.964844 130.066406 L 122.019531 104.761719 L 108.722656 80.621094 L 96.882812 59.132812 L 87.34375 41.78125 L 80.882812 30.050781 L 78.332031 25.394531 C 77.960938 24.722656 77.664062 24.023438 77.433594 23.296875 C 77.199219 22.566406 77.042969 21.820312 76.960938 21.0625 C 76.875 20.300781 76.867188 19.539062 76.933594 18.777344 C 76.996094 18.015625 77.136719 17.269531 77.351562 16.535156 C 77.5625 15.800781 77.847656 15.09375 78.199219 14.414062 C 78.550781 13.734375 78.964844 13.097656 79.445312 12.5 C 79.921875 11.902344 80.453125 11.359375 81.039062 10.867188 C 81.625 10.375 82.253906 9.945312 82.921875 9.574219 C 83.59375 9.207031 84.292969 8.90625 85.019531 8.675781 C 85.75 8.445312 86.496094 8.289062 87.253906 8.203125 C 88.015625 8.121094 88.777344 8.109375 89.539062 8.175781 C 90.300781 8.242188 91.046875 8.382812 91.78125 8.59375 C 92.515625 8.808594 93.222656 9.089844 93.902344 9.445312 C 94.582031 9.796875 95.21875 10.210938 95.816406 10.6875 C 96.414062 11.167969 96.957031 11.699219 97.449219 12.285156 C 97.941406 12.871094 98.371094 13.496094 98.742188 14.167969 L 101.609375 19.40625 L 109.441406 33.632812 L 121.035156 54.734375 L 135.273438 80.597656 L 150.953125 109.082031 L 166.914062 138.074219 L 181.980469 165.441406 L 194.984375 189.066406 C 200.765625 199.546875 206.085938 210.320312 212.707031 220.335938 C 216.597656 226.421875 221.09375 232.015625 226.199219 237.125 C 231.304688 242.230469 236.902344 246.726562 242.988281 250.617188 C 246.882812 253.101562 251.039062 255.019531 255.460938 256.363281 C 259.882812 257.710938 264.402344 258.433594 269.023438 258.539062 L 356.367188 258.539062 C 357.132812 258.539062 357.886719 258.613281 358.636719 258.765625 C 359.386719 258.914062 360.117188 259.132812 360.824219 259.425781 C 361.53125 259.71875 362.199219 260.078125 362.835938 260.503906 C 363.472656 260.929688 364.0625 261.410156 364.601562 261.953125 C 365.140625 262.492188 365.625 263.082031 366.050781 263.714844 C 366.472656 264.351562 366.832031 265.023438 367.125 265.730469 C 367.417969 266.4375 367.640625 267.164062 367.789062 267.914062 C 367.9375 268.664062 368.011719 269.421875 368.011719 270.1875 L 368.011719 276.007812 C 368.011719 288.871094 352.371094 299.300781 333.074219 299.300781 L 269.023438 299.300781 C 262.746094 299.378906 256.59375 298.554688 250.5625 296.828125 C 244.527344 295.101562 238.867188 292.550781 233.582031 289.167969 C 228.777344 285.839844 224.347656 282.066406 220.292969 277.851562 C 216.238281 273.636719 212.644531 269.0625 209.503906 264.128906 C 202.546875 253.214844 196.300781 241.90625 190.765625 230.207031 C 189.65625 228.015625 188.535156 225.832031 187.394531 223.660156 Z M 187.394531 223.660156 " fill-opacity="1" fill-rule="nonzero"/><path fill="#202d35" d="M 78.300781 25.453125 C 79.175781 26.964844 79.992188 28.539062 80.863281 30.050781 L 87.328125 41.757812 C 90.472656 47.578125 93.675781 53.34375 96.875 59.109375 C 100.835938 66.269531 104.738281 73.492188 108.699219 80.652344 C 113.125 88.691406 117.546875 96.726562 122.039062 104.761719 C 126.636719 113.203125 131.277344 121.648438 135.953125 130.089844 C 140.554688 138.417969 145.136719 146.746094 149.695312 155.070312 C 153.949219 162.757812 158.199219 170.503906 162.449219 178.1875 C 166.117188 184.828125 169.785156 191.464844 173.398438 198.105469 C 176.191406 203.105469 178.988281 208.113281 181.722656 213.121094 C 183.644531 216.613281 185.566406 220.167969 187.371094 223.660156 C 188.535156 225.816406 189.644531 228.027344 190.75 230.183594 C 196.277344 241.898438 202.527344 253.210938 209.5 264.128906 C 212.628906 269.066406 216.21875 273.644531 220.269531 277.859375 C 224.316406 282.074219 228.746094 285.84375 233.554688 289.167969 C 238.84375 292.554688 244.507812 295.109375 250.546875 296.835938 C 256.582031 298.558594 262.742188 299.382812 269.023438 299.300781 L 333.074219 299.300781 C 352.347656 299.300781 368.011719 288.878906 368.011719 276.007812 L 368.011719 270.1875 C 368.011719 269.421875 367.933594 268.664062 367.78125 267.917969 C 367.632812 267.167969 367.410156 266.441406 367.117188 265.734375 C 366.824219 265.03125 366.464844 264.359375 366.039062 263.722656 C 365.613281 263.089844 365.132812 262.5 364.589844 261.960938 C 364.050781 261.421875 363.464844 260.9375 362.828125 260.515625 C 362.195312 260.089844 361.523438 259.730469 360.816406 259.4375 C 360.113281 259.144531 359.386719 258.921875 358.636719 258.769531 C 357.886719 258.621094 357.128906 258.542969 356.367188 258.539062 L 269.023438 258.539062 C 264.402344 258.433594 259.882812 257.710938 255.464844 256.367188 C 251.042969 255.019531 246.886719 253.105469 242.992188 250.621094 C 236.902344 246.742188 231.300781 242.246094 226.195312 237.140625 C 221.085938 232.035156 216.59375 226.433594 212.714844 220.339844 C 206.074219 210.324219 200.777344 199.558594 195.011719 189.078125 C 190.644531 181.21875 186.335938 173.296875 181.96875 165.4375 C 176.960938 156.351562 171.933594 147.230469 166.886719 138.070312 C 161.585938 128.402344 156.269531 118.738281 150.933594 109.070312 C 145.75 99.578125 140.527344 90.085938 135.269531 80.597656 C 130.550781 71.976562 125.777344 63.359375 121.058594 54.742188 C 117.152344 47.695312 113.308594 40.648438 109.414062 33.664062 C 106.792969 28.886719 104.171875 24.171875 101.609375 19.394531 C 100.621094 17.648438 99.6875 15.960938 98.699219 14.214844 C 98.335938 13.542969 97.910156 12.910156 97.421875 12.324219 C 96.933594 11.734375 96.390625 11.203125 95.796875 10.722656 C 95.203125 10.242188 94.566406 9.824219 93.886719 9.46875 C 93.210938 9.117188 92.503906 8.832031 91.769531 8.617188 C 91.035156 8.402344 90.289062 8.265625 89.527344 8.199219 C 88.765625 8.132812 88.003906 8.144531 87.246094 8.226562 C 86.484375 8.3125 85.742188 8.472656 85.011719 8.707031 C 84.285156 8.941406 83.585938 9.242188 82.917969 9.613281 C 82.246094 9.980469 81.617188 10.410156 81.027344 10.902344 C 80.441406 11.394531 79.90625 11.9375 79.425781 12.535156 C 78.945312 13.132812 78.53125 13.773438 78.175781 14.453125 C 77.820312 15.132812 77.535156 15.839844 77.324219 16.574219 C 77.109375 17.308594 76.96875 18.058594 76.902344 18.824219 C 76.835938 19.585938 76.84375 20.347656 76.925781 21.109375 C 77.011719 21.871094 77.167969 22.617188 77.398438 23.347656 C 77.632812 24.078125 77.933594 24.78125 78.300781 25.453125 Z M 197.671875 218.246094 C 199.363281 221.097656 201.109375 223.953125 202.972656 226.746094 C 207.324219 233.558594 212.363281 239.820312 218.089844 245.527344 C 223.820312 251.234375 230.097656 256.25 236.925781 260.578125 C 241.734375 263.617188 246.863281 265.953125 252.3125 267.585938 C 257.765625 269.21875 263.332031 270.085938 269.023438 270.1875 L 356.367188 270.1875 L 356.367188 276.007812 C 356.367188 280.785156 347.28125 287.65625 333.074219 287.65625 L 269.023438 287.65625 C 263.882812 287.726562 258.839844 287.0625 253.894531 285.664062 C 248.949219 284.265625 244.308594 282.191406 239.964844 279.445312 C 235.804688 276.535156 231.976562 273.242188 228.476562 269.566406 C 224.976562 265.890625 221.875 261.90625 219.171875 257.609375 C 213.019531 248.066406 207.503906 238.167969 202.632812 227.910156 L 201.179688 224.941406 C 200.007812 222.730469 198.84375 220.457031 197.679688 218.246094 Z M 197.671875 218.246094 " fill-opacity="1" fill-rule="nonzero"/><path fill="#ef8825" d="M 108.890625 80.9375 C 113.257812 88.859375 117.625 96.835938 122.050781 104.753906 C 122.632812 105.863281 123.214844 106.910156 123.855469 108.015625 L 142.253906 93.285156 C 139.925781 89.035156 137.597656 84.839844 135.269531 80.589844 L 126.007812 63.820312 Z M 108.890625 80.9375 " fill-opacity="1" fill-rule="nonzero"/><path fill="#c7c1b5" d="M 187.605469 223.660156 C 189.449219 220.167969 191.335938 216.671875 193.257812 213.179688 L 201.566406 198.105469 L 212.539062 178.183594 L 225.304688 155.019531 L 239.0625 130.042969 L 253.007812 104.738281 L 266.308594 80.597656 L 278.144531 59.109375 L 287.65625 41.78125 L 294.117188 30.050781 L 296.667969 25.394531 C 297.039062 24.722656 297.335938 24.023438 297.566406 23.296875 C 297.800781 22.566406 297.957031 21.820312 298.039062 21.0625 C 298.125 20.300781 298.132812 19.539062 298.066406 18.777344 C 298.003906 18.015625 297.863281 17.269531 297.648438 16.535156 C 297.4375 15.800781 297.152344 15.09375 296.800781 14.414062 C 296.449219 13.734375 296.035156 13.097656 295.554688 12.5 C 295.078125 11.902344 294.546875 11.359375 293.960938 10.867188 C 293.375 10.375 292.746094 9.945312 292.078125 9.574219 C 291.40625 9.207031 290.707031 8.90625 289.980469 8.675781 C 289.25 8.445312 288.503906 8.289062 287.746094 8.203125 C 286.984375 8.121094 286.222656 8.109375 285.460938 8.175781 C 284.699219 8.242188 283.953125 8.382812 283.21875 8.59375 C 282.484375 8.808594 281.777344 9.089844 281.097656 9.445312 C 280.417969 9.796875 279.78125 10.210938 279.183594 10.6875 C 278.585938 11.167969 278.042969 11.699219 277.550781 12.285156 C 277.058594 12.871094 276.628906 13.496094 276.257812 14.167969 L 273.390625 19.40625 L 265.582031 33.632812 L 253.964844 54.734375 L 239.726562 80.597656 L 224.046875 109.082031 L 208.085938 138.074219 L 193.019531 165.441406 L 180.015625 189.066406 C 174.234375 199.546875 168.914062 210.320312 162.292969 220.335938 C 158.402344 226.421875 153.90625 232.015625 148.800781 237.125 C 143.695312 242.230469 138.097656 246.726562 132.011719 250.617188 C 128.117188 253.101562 123.960938 255.019531 119.539062 256.363281 C 115.117188 257.710938 110.597656 258.433594 105.976562 258.539062 L 18.632812 258.539062 C 17.867188 258.539062 17.113281 258.613281 16.363281 258.765625 C 15.613281 258.914062 14.882812 259.132812 14.175781 259.425781 C 13.46875 259.71875 12.800781 260.078125 12.164062 260.503906 C 11.527344 260.929688 10.9375 261.410156 10.398438 261.953125 C 9.859375 262.492188 9.375 263.082031 8.949219 263.714844 C 8.527344 264.351562 8.167969 265.023438 7.875 265.730469 C 7.582031 266.4375 7.359375 267.164062 7.210938 267.914062 C 7.0625 268.664062 6.988281 269.421875 6.988281 270.1875 L 6.988281 276.007812 C 6.988281 288.871094 22.628906 299.300781 41.925781 299.300781 L 105.976562 299.300781 C 112.253906 299.378906 118.40625 298.554688 124.4375 296.828125 C 130.472656 295.101562 136.132812 292.550781 141.417969 289.167969 C 146.222656 285.839844 150.652344 282.066406 154.707031 277.851562 C 158.761719 273.636719 162.355469 269.0625 165.496094 264.128906 C 172.453125 253.214844 178.699219 241.90625 184.234375 230.207031 C 185.34375 228.015625 186.464844 225.832031 187.605469 223.660156 Z M 187.605469 223.660156 " fill-opacity="1" fill-rule="nonzero"/><path fill="#a6a197" d="M 292.097656 9.613281 C 291.429688 9.242188 290.730469 8.941406 290.003906 8.707031 C 289.277344 8.472656 288.53125 8.3125 287.773438 8.226562 C 287.011719 8.144531 286.253906 8.132812 285.492188 8.199219 C 284.730469 8.265625 283.980469 8.402344 283.246094 8.617188 C 282.511719 8.832031 281.808594 9.117188 281.128906 9.46875 C 280.453125 9.824219 279.816406 10.242188 279.222656 10.722656 C 278.625 11.203125 278.085938 11.734375 277.597656 12.324219 C 277.109375 12.910156 276.679688 13.542969 276.316406 14.214844 C 275.328125 15.960938 274.394531 17.648438 273.40625 19.394531 C 270.84375 24.171875 268.222656 28.886719 265.605469 33.664062 C 261.703125 40.648438 257.859375 47.695312 253.957031 54.742188 C 249.242188 63.359375 244.464844 71.976562 239.75 80.597656 C 234.507812 90.085938 229.289062 99.578125 224.085938 109.070312 C 218.730469 118.738281 213.410156 128.402344 208.128906 138.070312 C 203.066406 147.210938 198.039062 156.332031 193.050781 165.4375 C 188.683594 173.296875 184.375 181.21875 180.003906 189.078125 C 174.242188 199.558594 168.941406 210.324219 162.304688 220.339844 C 158.425781 226.433594 153.929688 232.035156 148.824219 237.140625 C 143.714844 242.246094 138.117188 246.742188 132.023438 250.621094 C 128.128906 253.109375 123.96875 255.023438 119.542969 256.367188 C 115.121094 257.710938 110.601562 258.4375 105.976562 258.539062 L 18.632812 258.539062 C 17.871094 258.542969 17.113281 258.617188 16.363281 258.769531 C 15.613281 258.921875 14.886719 259.144531 14.183594 259.4375 C 13.476562 259.730469 12.804688 260.089844 12.171875 260.515625 C 11.535156 260.9375 10.949219 261.421875 10.410156 261.960938 C 9.867188 262.5 9.386719 263.089844 8.960938 263.722656 C 8.535156 264.359375 8.175781 265.03125 7.882812 265.734375 C 7.589844 266.441406 7.367188 267.167969 7.21875 267.917969 C 7.066406 268.664062 6.988281 269.421875 6.988281 270.1875 L 6.988281 276.007812 C 6.988281 288.878906 22.652344 299.300781 41.925781 299.300781 L 105.976562 299.300781 C 112.257812 299.382812 118.414062 298.558594 124.453125 296.832031 C 130.488281 295.109375 136.152344 292.554688 141.441406 289.167969 C 146.246094 285.84375 150.675781 282.074219 154.726562 277.859375 C 158.773438 273.644531 162.363281 269.066406 165.496094 264.128906 C 172.464844 253.210938 178.714844 241.898438 184.246094 230.183594 C 185.351562 228.027344 186.457031 225.816406 187.621094 223.660156 C 189.425781 220.167969 191.347656 216.613281 193.269531 213.121094 C 196.007812 208.113281 198.800781 203.105469 201.597656 198.105469 C 205.207031 191.464844 208.875 184.828125 212.542969 178.1875 C 216.796875 170.503906 221.046875 162.757812 225.296875 155.070312 C 229.839844 146.746094 234.417969 138.417969 239.039062 130.089844 C 243.699219 121.648438 248.335938 113.203125 252.957031 104.761719 C 257.445312 96.726562 261.871094 88.691406 266.296875 80.652344 C 270.257812 73.492188 274.15625 66.269531 278.117188 59.109375 C 281.320312 53.34375 284.523438 47.578125 287.667969 41.757812 L 294.128906 30.050781 C 295.003906 28.539062 295.820312 26.964844 296.691406 25.453125 C 297.0625 24.78125 297.363281 24.082031 297.597656 23.351562 C 297.828125 22.621094 297.984375 21.875 298.070312 21.113281 C 298.15625 20.351562 298.164062 19.589844 298.101562 18.828125 C 298.035156 18.066406 297.894531 17.316406 297.683594 16.578125 C 297.46875 15.84375 297.183594 15.136719 296.832031 14.457031 C 296.480469 13.777344 296.0625 13.136719 295.582031 12.539062 C 295.105469 11.941406 294.570312 11.398438 293.984375 10.90625 C 293.398438 10.414062 292.769531 9.980469 292.097656 9.613281 Z M 173.828125 224.941406 L 172.371094 227.910156 C 167.5 238.167969 161.988281 248.066406 155.835938 257.609375 C 153.132812 261.90625 150.03125 265.890625 146.53125 269.566406 C 143.027344 273.242188 139.199219 276.535156 135.039062 279.445312 C 130.699219 282.195312 126.054688 284.265625 121.105469 285.664062 C 116.160156 287.0625 111.117188 287.726562 105.976562 287.65625 L 41.925781 287.65625 C 27.71875 287.65625 18.632812 280.785156 18.632812 276.007812 L 18.632812 270.1875 L 105.976562 270.1875 C 111.664062 270.082031 117.230469 269.214844 122.679688 267.585938 C 128.128906 265.953125 133.257812 263.617188 138.0625 260.578125 C 144.890625 256.25 151.167969 251.234375 156.898438 245.527344 C 162.625 239.820312 167.664062 233.558594 172.015625 226.746094 C 173.878906 223.953125 175.625 221.097656 177.316406 218.246094 C 176.15625 220.457031 174.992188 222.730469 173.828125 224.941406 Z M 173.828125 224.941406 " fill-opacity="1" fill-rule="nonzero"/><path fill="#fdc42e" d="M 266.109375 80.9375 C 261.742188 88.859375 257.375 96.835938 252.949219 104.753906 C 252.367188 105.863281 251.785156 106.910156 251.144531 108.015625 L 232.746094 93.285156 C 235.074219 89.035156 237.402344 84.839844 239.730469 80.589844 L 248.992188 63.820312 Z M 266.109375 80.9375 " fill-opacity="1" fill-rule="nonzero"/><path fill="#fdc42e" d="M 280.667969 345.886719 L 222.4375 357.53125 L 152.5625 357.53125 L 94.332031 345.886719 L 140.917969 328.417969 L 123.445312 281.832031 L 170.03125 299.300781 L 187.5 252.71875 L 204.96875 299.300781 L 251.554688 281.832031 L 234.082031 328.417969 Z M 280.667969 345.886719 " fill-opacity="1" fill-rule="nonzero"/><path fill="#ef8825" d="M 187.5 252.71875 L 187.5 357.53125 L 152.5625 357.53125 L 94.332031 345.886719 L 140.917969 328.417969 L 123.445312 281.832031 L 170.03125 299.300781 Z M 187.5 252.71875 " fill-opacity="1" fill-rule="nonzero"/><path fill="#c7c1b5" d="M 222.4375 334.238281 L 222.4375 357.53125 C 222.4375 363.9375 206.773438 369.175781 187.5 369.175781 C 168.226562 369.175781 152.5625 363.9375 152.5625 357.53125 L 152.5625 334.238281 Z M 222.4375 334.238281 " fill-opacity="1" fill-rule="nonzero"/><path fill="#a6a197" d="M 187.5 334.238281 L 187.5 369.175781 C 168.226562 369.175781 152.5625 363.9375 152.5625 357.53125 L 152.5625 334.238281 Z M 187.5 334.238281 " fill-opacity="1" fill-rule="nonzero"/><path fill="#603f21" d="M 222.4375 334.238281 C 222.4375 334.621094 222.382812 335 222.269531 335.378906 C 222.15625 335.761719 221.988281 336.136719 221.765625 336.511719 C 221.542969 336.886719 221.265625 337.253906 220.933594 337.621094 C 220.601562 337.984375 220.214844 338.34375 219.777344 338.695312 C 219.339844 339.046875 218.851562 339.394531 218.3125 339.730469 C 217.773438 340.066406 217.183594 340.390625 216.550781 340.710938 C 215.914062 341.027344 215.234375 341.332031 214.507812 341.628906 C 213.78125 341.921875 213.015625 342.203125 212.203125 342.472656 C 211.394531 342.742188 210.550781 343 209.664062 343.242188 C 208.78125 343.484375 207.863281 343.710938 206.910156 343.921875 C 205.960938 344.132812 204.980469 344.332031 203.96875 344.511719 C 202.960938 344.691406 201.925781 344.851562 200.871094 345 C 199.8125 345.144531 198.738281 345.273438 197.640625 345.382812 C 196.546875 345.496094 195.4375 345.585938 194.316406 345.660156 C 193.195312 345.734375 192.0625 345.792969 190.925781 345.828125 C 189.785156 345.867188 188.644531 345.886719 187.5 345.886719 C 186.355469 345.886719 185.214844 345.867188 184.074219 345.828125 C 182.9375 345.792969 181.804688 345.734375 180.683594 345.660156 C 179.5625 345.585938 178.453125 345.496094 177.359375 345.382812 C 176.261719 345.273438 175.1875 345.144531 174.128906 345 C 173.074219 344.851562 172.039062 344.691406 171.03125 344.511719 C 170.019531 344.332031 169.039062 344.132812 168.089844 343.921875 C 167.136719 343.710938 166.21875 343.484375 165.335938 343.242188 C 164.449219 343 163.605469 342.742188 162.796875 342.472656 C 161.984375 342.203125 161.21875 341.921875 160.492188 341.628906 C 159.765625 341.332031 159.085938 341.027344 158.449219 340.710938 C 157.816406 340.390625 157.226562 340.066406 156.6875 339.730469 C 156.148438 339.394531 155.660156 339.046875 155.222656 338.695312 C 154.785156 338.34375 154.398438 337.984375 154.066406 337.621094 C 153.734375 337.253906 153.457031 336.886719 153.234375 336.511719 C 153.011719 336.136719 152.84375 335.761719 152.730469 335.378906 C 152.617188 335 152.5625 334.621094 152.5625 334.238281 C 152.5625 333.859375 152.617188 333.476562 152.730469 333.097656 C 152.84375 332.71875 153.011719 332.339844 153.234375 331.96875 C 153.457031 331.59375 153.734375 331.222656 154.066406 330.859375 C 154.398438 330.492188 154.785156 330.136719 155.222656 329.78125 C 155.660156 329.429688 156.148438 329.085938 156.6875 328.75 C 157.226562 328.414062 157.816406 328.085938 158.449219 327.769531 C 159.085938 327.453125 159.765625 327.144531 160.492188 326.851562 C 161.21875 326.554688 161.984375 326.273438 162.796875 326.003906 C 163.605469 325.734375 164.449219 325.480469 165.335938 325.238281 C 166.21875 324.996094 167.136719 324.769531 168.089844 324.554688 C 169.039062 324.34375 170.019531 324.148438 171.03125 323.96875 C 172.039062 323.789062 173.074219 323.625 174.128906 323.480469 C 175.1875 323.332031 176.261719 323.207031 177.359375 323.09375 C 178.453125 322.984375 179.5625 322.890625 180.683594 322.816406 C 181.804688 322.742188 182.9375 322.6875 184.074219 322.648438 C 185.214844 322.613281 186.355469 322.59375 187.5 322.59375 C 188.644531 322.59375 189.785156 322.613281 190.925781 322.648438 C 192.0625 322.6875 193.195312 322.742188 194.316406 322.816406 C 195.4375 322.890625 196.546875 322.984375 197.640625 323.09375 C 198.738281 323.207031 199.8125 323.332031 200.871094 323.480469 C 201.925781 323.625 202.960938 323.789062 203.96875 323.96875 C 204.980469 324.148438 205.960938 324.34375 206.910156 324.554688 C 207.863281 324.769531 208.78125 324.996094 209.664062 325.238281 C 210.550781 325.480469 211.394531 325.734375 212.203125 326.003906 C 213.015625 326.273438 213.78125 326.554688 214.507812 326.851562 C 215.234375 327.144531 215.914062 327.453125 216.550781 327.769531 C 217.183594 328.085938 217.773438 328.414062 218.3125 328.75 C 218.851562 329.085938 219.339844 329.429688 219.777344 329.78125 C 220.214844 330.132812 220.601562 330.492188 220.933594 330.859375 C 221.265625 331.222656 221.542969 331.59375 221.765625 331.96875 C 221.988281 332.339844 222.15625 332.71875 222.269531 333.097656 C 222.382812 333.476562 222.4375 333.859375 222.4375 334.238281 Z M 222.4375 334.238281 " fill-opacity="1" fill-rule="nonzero"/><path fill="#4d331a" d="M 187.5 322.59375 L 187.5 345.886719 C 168.226562 345.886719 152.5625 340.644531 152.5625 334.238281 C 152.5625 327.832031 168.226562 322.59375 187.5 322.59375 Z M 187.5 322.59375 " fill-opacity="1" fill-rule="nonzero"/><path fill="#222325" d="M 169.558594 203.113281 L 73.207031 28.21875 C 72.917969 27.714844 72.65625 27.199219 72.417969 26.671875 C 72.183594 26.144531 71.972656 25.605469 71.789062 25.058594 C 71.605469 24.507812 71.449219 23.953125 71.324219 23.386719 C 71.195312 22.824219 71.09375 22.253906 71.023438 21.679688 C 70.953125 21.105469 70.910156 20.527344 70.894531 19.949219 C 70.882812 19.371094 70.894531 18.792969 70.941406 18.214844 C 70.984375 17.640625 71.054688 17.066406 71.15625 16.496094 C 71.257812 15.925781 71.382812 15.363281 71.539062 14.804688 C 71.695312 14.246094 71.878906 13.699219 72.089844 13.160156 C 72.300781 12.621094 72.539062 12.09375 72.804688 11.578125 C 73.066406 11.0625 73.355469 10.5625 73.667969 10.074219 C 73.980469 9.589844 74.316406 9.117188 74.675781 8.664062 C 75.035156 8.210938 75.417969 7.777344 75.820312 7.363281 C 76.222656 6.945312 76.648438 6.554688 77.089844 6.179688 C 77.53125 5.804688 77.992188 5.457031 78.46875 5.128906 C 78.945312 4.800781 79.4375 4.496094 79.945312 4.21875 C 80.449219 3.9375 80.972656 3.6875 81.503906 3.460938 C 82.035156 3.230469 82.578125 3.03125 83.128906 2.859375 C 83.683594 2.683594 84.242188 2.539062 84.808594 2.421875 C 85.375 2.304688 85.945312 2.214844 86.523438 2.152344 C 87.097656 2.09375 87.675781 2.0625 88.253906 2.058594 C 88.832031 2.054688 89.410156 2.078125 89.984375 2.132812 C 90.5625 2.1875 91.132812 2.269531 91.703125 2.378906 C 92.269531 2.492188 92.832031 2.628906 93.386719 2.796875 C 93.941406 2.960938 94.484375 3.15625 95.019531 3.375 C 95.554688 3.597656 96.078125 3.84375 96.585938 4.117188 C 97.097656 4.390625 97.59375 4.6875 98.074219 5.007812 C 98.554688 5.328125 99.019531 5.675781 99.464844 6.042969 C 99.914062 6.410156 100.339844 6.800781 100.75 7.210938 C 101.15625 7.621094 101.542969 8.050781 101.910156 8.5 C 102.273438 8.949219 102.617188 9.414062 102.933594 9.898438 C 103.253906 10.378906 103.546875 10.878906 103.816406 11.390625 L 192.601562 172.6875 L 182.398438 178.304688 L 93.609375 16.996094 C 93.238281 16.316406 92.753906 15.730469 92.144531 15.246094 C 91.539062 14.761719 90.863281 14.414062 90.117188 14.203125 C 89.5625 14.042969 89 13.964844 88.421875 13.972656 C 87.847656 13.980469 87.285156 14.074219 86.734375 14.246094 C 86.1875 14.421875 85.675781 14.671875 85.199219 15 C 84.726562 15.324219 84.308594 15.714844 83.949219 16.164062 C 83.589844 16.613281 83.304688 17.105469 83.089844 17.640625 C 82.878906 18.175781 82.746094 18.730469 82.699219 19.304688 C 82.648438 19.878906 82.683594 20.445312 82.804688 21.007812 C 82.925781 21.574219 83.125 22.105469 83.402344 22.609375 L 179.765625 197.507812 Z M 169.558594 203.113281 " fill-opacity="1" fill-rule="nonzero"/><path fill="#222325" d="M 227.980469 292.390625 C 218.703125 285.46875 210.9375 277.136719 204.6875 267.390625 C 198.140625 257.207031 192.257812 246.65625 187.039062 235.730469 L 185.578125 232.820312 C 184.488281 230.652344 183.382812 228.5 182.257812 226.355469 L 192.566406 220.941406 C 193.730469 223.140625 194.871094 225.355469 195.984375 227.578125 L 197.445312 230.492188 C 202.441406 240.96875 208.070312 251.09375 214.332031 260.871094 C 219.808594 269.449219 226.617188 276.796875 234.757812 282.910156 Z M 227.980469 292.390625 " fill-opacity="1" fill-rule="nonzero"/><path fill="#222325" d="M 333.074219 305.125 L 269.023438 305.125 C 260.328125 305.164062 251.894531 303.703125 243.722656 300.734375 L 247.738281 289.804688 C 254.613281 292.296875 261.707031 293.519531 269.023438 293.476562 L 333.074219 293.476562 C 348.855469 293.476562 362.1875 285.476562 362.1875 276.007812 L 362.1875 270.1875 C 362.1875 269.804688 362.152344 269.425781 362.078125 269.050781 C 362.003906 268.675781 361.890625 268.3125 361.746094 267.957031 C 361.601562 267.605469 361.421875 267.269531 361.207031 266.953125 C 360.996094 266.632812 360.753906 266.339844 360.484375 266.070312 C 360.214844 265.796875 359.917969 265.558594 359.601562 265.34375 C 359.285156 265.132812 358.949219 264.953125 358.59375 264.804688 C 358.242188 264.660156 357.878906 264.550781 357.503906 264.476562 C 357.128906 264.402344 356.75 264.363281 356.367188 264.363281 L 269.023438 264.363281 C 263.871094 264.261719 258.824219 263.46875 253.890625 261.984375 C 248.953125 260.503906 244.308594 258.382812 239.953125 255.628906 C 233.5 251.519531 227.566406 246.757812 222.152344 241.351562 C 216.738281 235.945312 211.96875 230.015625 207.851562 223.566406 C 203.304688 216.695312 199.308594 209.394531 195.921875 203.09375 L 206.179688 197.574219 C 209.445312 203.652344 213.289062 210.675781 217.5625 217.144531 C 221.210938 222.878906 225.433594 228.148438 230.226562 232.960938 C 235.023438 237.773438 240.28125 242.011719 246.003906 245.675781 C 249.449219 247.878906 253.125 249.574219 257.03125 250.769531 C 260.9375 251.964844 264.9375 252.613281 269.023438 252.71875 L 356.367188 252.71875 C 356.9375 252.71875 357.507812 252.746094 358.078125 252.800781 C 358.648438 252.859375 359.214844 252.941406 359.773438 253.054688 C 360.335938 253.164062 360.890625 253.304688 361.4375 253.46875 C 361.984375 253.636719 362.523438 253.828125 363.050781 254.046875 C 363.582031 254.265625 364.097656 254.511719 364.601562 254.78125 C 365.105469 255.050781 365.597656 255.34375 366.070312 255.660156 C 366.546875 255.980469 367.007812 256.320312 367.449219 256.683594 C 367.890625 257.046875 368.3125 257.429688 368.71875 257.832031 C 369.125 258.238281 369.507812 258.660156 369.871094 259.105469 C 370.234375 259.546875 370.574219 260.003906 370.890625 260.480469 C 371.210938 260.957031 371.503906 261.445312 371.773438 261.953125 C 372.042969 262.457031 372.285156 262.972656 372.503906 263.5 C 372.722656 264.03125 372.917969 264.566406 373.082031 265.117188 C 373.25 265.664062 373.386719 266.21875 373.5 266.777344 C 373.609375 267.339844 373.695312 267.90625 373.75 268.472656 C 373.808594 269.042969 373.835938 269.613281 373.835938 270.1875 L 373.835938 276.007812 C 373.835938 292.3125 355.929688 305.125 333.074219 305.125 Z M 333.074219 305.125 " fill-opacity="1" fill-rule="nonzero"/><path fill="#222325" d="M 123.445312 112.964844 C 122.820312 112.964844 122.210938 112.871094 121.617188 112.671875 C 121.023438 112.476562 120.476562 112.195312 119.972656 111.824219 C 119.472656 111.449219 119.039062 111.007812 118.679688 110.496094 C 118.320312 109.988281 118.050781 109.433594 117.867188 108.832031 C 117.6875 108.234375 117.601562 107.625 117.617188 107 C 117.632812 106.375 117.746094 105.765625 117.957031 105.179688 C 118.167969 104.589844 118.46875 104.050781 118.851562 103.558594 C 119.238281 103.066406 119.691406 102.644531 120.210938 102.296875 L 130.019531 95.757812 L 108.796875 83.019531 C 108.417969 82.789062 108.070312 82.523438 107.75 82.214844 C 107.433594 81.910156 107.152344 81.570312 106.914062 81.199219 C 106.671875 80.828125 106.476562 80.433594 106.324219 80.019531 C 106.171875 79.601562 106.070312 79.175781 106.015625 78.738281 C 105.964844 78.296875 105.960938 77.859375 106.003906 77.417969 C 106.050781 76.980469 106.148438 76.550781 106.289062 76.132812 C 106.433594 75.714844 106.625 75.316406 106.859375 74.941406 C 107.09375 74.566406 107.367188 74.222656 107.679688 73.910156 L 119.324219 62.265625 C 119.597656 62.003906 119.890625 61.769531 120.207031 61.5625 C 120.527344 61.359375 120.859375 61.183594 121.210938 61.046875 C 121.5625 60.90625 121.925781 60.800781 122.296875 60.730469 C 122.667969 60.660156 123.042969 60.628906 123.421875 60.628906 C 123.796875 60.632812 124.171875 60.671875 124.542969 60.75 C 124.914062 60.824219 125.273438 60.9375 125.621094 61.082031 C 125.96875 61.230469 126.300781 61.410156 126.617188 61.617188 C 126.929688 61.828125 127.21875 62.070312 127.488281 62.335938 C 127.753906 62.601562 127.992188 62.894531 128.203125 63.207031 C 128.414062 63.523438 128.59375 63.851562 128.738281 64.203125 C 128.886719 64.550781 128.996094 64.910156 129.074219 65.28125 C 129.148438 65.652344 129.1875 66.023438 129.191406 66.402344 C 129.195312 66.78125 129.164062 67.15625 129.09375 67.527344 C 129.023438 67.898438 128.917969 68.261719 128.777344 68.613281 C 128.636719 68.960938 128.464844 69.296875 128.261719 69.613281 C 128.054688 69.933594 127.820312 70.226562 127.558594 70.5 L 121.195312 76.863281 L 143.902344 90.496094 C 144.113281 90.621094 144.3125 90.757812 144.503906 90.910156 C 144.699219 91.0625 144.878906 91.222656 145.050781 91.398438 C 145.222656 91.574219 145.382812 91.757812 145.53125 91.949219 C 145.679688 92.144531 145.816406 92.347656 145.9375 92.558594 C 146.0625 92.769531 146.171875 92.988281 146.265625 93.214844 C 146.359375 93.4375 146.441406 93.667969 146.507812 93.902344 C 146.574219 94.140625 146.625 94.378906 146.664062 94.621094 C 146.699219 94.859375 146.71875 95.105469 146.726562 95.347656 C 146.730469 95.59375 146.722656 95.835938 146.695312 96.078125 C 146.671875 96.324219 146.632812 96.5625 146.578125 96.800781 C 146.523438 97.039062 146.453125 97.273438 146.367188 97.503906 C 146.28125 97.730469 146.183594 97.953125 146.070312 98.171875 C 145.957031 98.390625 145.832031 98.597656 145.691406 98.796875 C 145.554688 99 145.402344 99.191406 145.238281 99.375 C 145.078125 99.554688 144.902344 99.726562 144.71875 99.886719 C 144.535156 100.046875 144.339844 100.195312 144.136719 100.328125 L 126.667969 111.976562 C 125.695312 112.628906 124.621094 112.960938 123.445312 112.964844 Z M 123.445312 112.964844 " fill-opacity="1" fill-rule="nonzero"/><path fill="#222325" d="M 105.976562 305.125 L 41.925781 305.125 C 19.070312 305.125 1.164062 292.3125 1.164062 276.007812 L 1.164062 270.1875 C 1.164062 269.613281 1.191406 269.042969 1.25 268.472656 C 1.304688 267.90625 1.386719 267.339844 1.5 266.777344 C 1.613281 266.21875 1.75 265.664062 1.917969 265.117188 C 2.082031 264.566406 2.277344 264.03125 2.496094 263.5 C 2.714844 262.972656 2.957031 262.457031 3.226562 261.953125 C 3.496094 261.445312 3.789062 260.957031 4.109375 260.480469 C 4.425781 260.003906 4.765625 259.546875 5.128906 259.105469 C 5.492188 258.660156 5.875 258.238281 6.28125 257.832031 C 6.6875 257.429688 7.109375 257.046875 7.550781 256.683594 C 7.992188 256.320312 8.453125 255.980469 8.929688 255.660156 C 9.402344 255.34375 9.894531 255.050781 10.398438 254.78125 C 10.902344 254.511719 11.417969 254.265625 11.949219 254.046875 C 12.476562 253.828125 13.015625 253.636719 13.5625 253.46875 C 14.109375 253.304688 14.664062 253.164062 15.226562 253.054688 C 15.785156 252.941406 16.351562 252.859375 16.921875 252.800781 C 17.492188 252.746094 18.0625 252.71875 18.632812 252.71875 L 105.976562 252.71875 C 110.066406 252.613281 114.0625 251.960938 117.96875 250.761719 C 121.878906 249.5625 125.554688 247.859375 128.996094 245.652344 C 134.714844 241.988281 139.972656 237.75 144.769531 232.9375 C 149.566406 228.125 153.785156 222.855469 157.429688 217.121094 C 162.183594 209.941406 166.375 202.121094 170.425781 194.558594 C 171.910156 191.78125 173.398438 189.015625 174.910156 186.257812 L 271.183594 11.390625 C 271.464844 10.898438 271.769531 10.421875 272.09375 9.960938 C 272.421875 9.5 272.773438 9.058594 273.144531 8.628906 C 273.511719 8.203125 273.902344 7.796875 274.316406 7.40625 C 274.726562 7.015625 275.152344 6.648438 275.597656 6.300781 C 276.046875 5.953125 276.507812 5.628906 276.984375 5.324219 C 277.460938 5.023438 277.953125 4.746094 278.457031 4.488281 C 278.964844 4.234375 279.480469 4.003906 280.007812 3.800781 C 280.535156 3.59375 281.070312 3.414062 281.613281 3.261719 C 282.15625 3.109375 282.707031 2.984375 283.265625 2.882812 C 283.820312 2.785156 284.382812 2.714844 284.945312 2.667969 C 285.507812 2.621094 286.074219 2.605469 286.640625 2.617188 C 287.207031 2.625 287.769531 2.664062 288.332031 2.726562 C 288.890625 2.792969 289.449219 2.882812 290.003906 3.003906 C 290.554688 3.121094 291.101562 3.265625 291.640625 3.4375 C 292.179688 3.609375 292.707031 3.808594 293.226562 4.03125 C 293.746094 4.253906 294.253906 4.5 294.75 4.773438 C 295.246094 5.046875 295.726562 5.339844 296.195312 5.660156 C 296.660156 5.980469 297.113281 6.320312 297.546875 6.683594 C 297.980469 7.046875 298.394531 7.429688 298.789062 7.832031 C 299.1875 8.234375 299.5625 8.65625 299.917969 9.097656 C 300.273438 9.539062 300.609375 9.992188 300.917969 10.464844 C 301.230469 10.9375 301.519531 11.421875 301.78125 11.921875 C 302.046875 12.421875 302.285156 12.933594 302.5 13.457031 C 302.714844 13.980469 302.902344 14.515625 303.066406 15.054688 C 303.226562 15.597656 303.363281 16.144531 303.472656 16.699219 C 303.582031 17.253906 303.664062 17.8125 303.71875 18.375 C 303.777344 18.941406 303.804688 19.503906 303.804688 20.070312 C 303.804688 20.636719 303.777344 21.199219 303.722656 21.761719 C 303.667969 22.324219 303.585938 22.882812 303.476562 23.4375 C 303.371094 23.992188 303.234375 24.542969 303.074219 25.085938 C 302.910156 25.625 302.722656 26.160156 302.507812 26.683594 C 302.296875 27.207031 302.058594 27.71875 301.792969 28.21875 L 198.359375 215.960938 C 196.453125 219.414062 194.589844 222.878906 192.765625 226.363281 C 191.632812 228.511719 190.527344 230.667969 189.4375 232.832031 L 187.976562 235.742188 C 182.757812 246.667969 176.875 257.21875 170.328125 267.402344 C 164.078125 277.148438 156.3125 285.480469 147.035156 292.402344 L 140.257812 282.933594 C 148.394531 276.8125 155.199219 269.457031 160.667969 260.871094 C 166.929688 251.09375 172.558594 240.96875 177.554688 230.492188 L 179.015625 227.578125 C 180.140625 225.355469 181.28125 223.140625 182.433594 220.941406 C 184.296875 217.390625 186.199219 213.851562 188.140625 210.332031 L 291.585938 22.609375 C 291.769531 22.277344 291.917969 21.925781 292.035156 21.5625 C 292.152344 21.195312 292.230469 20.824219 292.269531 20.445312 C 292.3125 20.066406 292.316406 19.683594 292.285156 19.304688 C 292.253906 18.921875 292.183594 18.550781 292.074219 18.183594 C 291.96875 17.816406 291.828125 17.460938 291.652344 17.121094 C 291.476562 16.78125 291.269531 16.464844 291.03125 16.164062 C 290.789062 15.867188 290.523438 15.59375 290.234375 15.347656 C 289.941406 15.101562 289.625 14.886719 289.292969 14.703125 C 288.957031 14.519531 288.605469 14.371094 288.242188 14.253906 C 287.878906 14.140625 287.507812 14.0625 287.128906 14.019531 C 286.746094 13.976562 286.367188 13.972656 285.988281 14.007812 C 285.605469 14.039062 285.234375 14.109375 284.867188 14.214844 C 284.5 14.320312 284.144531 14.464844 283.808594 14.640625 C 283.46875 14.816406 283.148438 15.023438 282.851562 15.261719 C 282.554688 15.5 282.28125 15.765625 282.035156 16.058594 C 281.789062 16.347656 281.574219 16.664062 281.390625 16.996094 L 185.113281 191.878906 C 183.617188 194.59375 182.160156 197.316406 180.691406 200.03125 C 176.511719 207.828125 172.191406 215.898438 167.148438 223.519531 C 163.03125 229.976562 158.265625 235.914062 152.851562 241.328125 C 147.4375 246.746094 141.503906 251.511719 135.046875 255.628906 C 130.691406 258.382812 126.046875 260.503906 121.109375 261.984375 C 116.175781 263.46875 111.128906 264.261719 105.976562 264.363281 L 18.632812 264.363281 C 18.25 264.363281 17.871094 264.402344 17.496094 264.476562 C 17.121094 264.550781 16.757812 264.660156 16.40625 264.804688 C 16.050781 264.953125 15.714844 265.132812 15.398438 265.34375 C 15.082031 265.558594 14.785156 265.796875 14.515625 266.070312 C 14.246094 266.339844 14.003906 266.632812 13.792969 266.953125 C 13.578125 267.269531 13.398438 267.605469 13.253906 267.957031 C 13.109375 268.3125 12.996094 268.675781 12.921875 269.050781 C 12.847656 269.425781 12.8125 269.804688 12.8125 270.1875 L 12.8125 276.007812 C 12.8125 285.476562 26.144531 293.476562 41.925781 293.476562 L 105.976562 293.476562 C 113.292969 293.519531 120.386719 292.296875 127.261719 289.804688 L 131.277344 300.734375 C 123.105469 303.703125 114.671875 305.164062 105.976562 305.125 Z M 105.976562 305.125 " fill-opacity="1" fill-rule="nonzero"/><path fill="#222325" d="M 251.554688 112.964844 C 250.378906 112.964844 249.304688 112.640625 248.328125 111.988281 L 230.859375 100.339844 C 230.65625 100.207031 230.460938 100.058594 230.277344 99.898438 C 230.089844 99.738281 229.917969 99.566406 229.753906 99.386719 C 229.589844 99.203125 229.441406 99.011719 229.300781 98.808594 C 229.160156 98.609375 229.035156 98.398438 228.921875 98.183594 C 228.808594 97.964844 228.710938 97.742188 228.628906 97.515625 C 228.542969 97.285156 228.472656 97.050781 228.417969 96.8125 C 228.363281 96.574219 228.320312 96.335938 228.296875 96.089844 C 228.273438 95.847656 228.261719 95.605469 228.269531 95.359375 C 228.273438 95.117188 228.296875 94.871094 228.332031 94.632812 C 228.367188 94.390625 228.417969 94.152344 228.484375 93.914062 C 228.550781 93.679688 228.632812 93.449219 228.730469 93.226562 C 228.824219 93 228.933594 92.78125 229.054688 92.570312 C 229.179688 92.359375 229.316406 92.15625 229.464844 91.960938 C 229.613281 91.769531 229.769531 91.585938 229.941406 91.410156 C 230.113281 91.234375 230.296875 91.074219 230.488281 90.921875 C 230.679688 90.769531 230.882812 90.632812 231.089844 90.507812 L 253.800781 76.875 L 247.429688 70.5 C 247.167969 70.226562 246.933594 69.933594 246.726562 69.613281 C 246.523438 69.296875 246.351562 68.960938 246.210938 68.613281 C 246.070312 68.261719 245.964844 67.898438 245.894531 67.527344 C 245.824219 67.15625 245.792969 66.78125 245.796875 66.402344 C 245.800781 66.023438 245.839844 65.652344 245.914062 65.28125 C 245.992188 64.910156 246.101562 64.550781 246.25 64.203125 C 246.394531 63.851562 246.574219 63.523438 246.785156 63.207031 C 246.996094 62.894531 247.234375 62.601562 247.5 62.335938 C 247.769531 62.070312 248.058594 61.828125 248.371094 61.617188 C 248.6875 61.40625 249.019531 61.230469 249.367188 61.082031 C 249.714844 60.9375 250.074219 60.824219 250.445312 60.75 C 250.816406 60.671875 251.191406 60.632812 251.566406 60.628906 C 251.945312 60.628906 252.320312 60.660156 252.691406 60.730469 C 253.0625 60.800781 253.425781 60.90625 253.777344 61.046875 C 254.128906 61.183594 254.460938 61.359375 254.78125 61.5625 C 255.097656 61.769531 255.390625 62.003906 255.664062 62.265625 L 267.308594 73.910156 C 267.621094 74.222656 267.894531 74.566406 268.128906 74.941406 C 268.363281 75.316406 268.554688 75.714844 268.699219 76.132812 C 268.839844 76.550781 268.9375 76.980469 268.984375 77.417969 C 269.027344 77.859375 269.023438 78.296875 268.972656 78.738281 C 268.917969 79.175781 268.816406 79.601562 268.664062 80.019531 C 268.511719 80.433594 268.316406 80.828125 268.074219 81.199219 C 267.835938 81.570312 267.554688 81.910156 267.238281 82.214844 C 266.917969 82.523438 266.570312 82.789062 266.191406 83.019531 L 244.972656 95.757812 L 254.785156 102.296875 C 255.304688 102.644531 255.757812 103.0625 256.140625 103.558594 C 256.527344 104.050781 256.824219 104.589844 257.035156 105.175781 C 257.246094 105.765625 257.359375 106.371094 257.375 106.996094 C 257.390625 107.621094 257.308594 108.234375 257.128906 108.832031 C 256.945312 109.429688 256.675781 109.984375 256.316406 110.496094 C 255.957031 111.003906 255.523438 111.449219 255.023438 111.820312 C 254.519531 112.191406 253.972656 112.476562 253.378906 112.671875 C 252.785156 112.867188 252.175781 112.964844 251.554688 112.964844 Z M 251.554688 112.964844 " fill-opacity="1" fill-rule="nonzero"/><path fill="#222325" d="M 222.4375 363.355469 C 222.078125 363.355469 221.726562 363.320312 221.371094 363.257812 C 221.019531 363.191406 220.679688 363.09375 220.34375 362.964844 C 220.007812 362.839844 219.691406 362.679688 219.386719 362.492188 C 219.078125 362.304688 218.792969 362.09375 218.527344 361.851562 C 218.261719 361.613281 218.023438 361.351562 217.804688 361.066406 C 217.585938 360.78125 217.398438 360.480469 217.238281 360.160156 C 217.074219 359.839844 216.945312 359.507812 216.84375 359.164062 C 216.742188 358.820312 216.675781 358.472656 216.636719 358.117188 C 216.601562 357.761719 216.597656 357.402344 216.628906 357.046875 C 216.660156 356.691406 216.722656 356.339844 216.816406 355.992188 C 216.910156 355.648438 217.035156 355.316406 217.191406 354.992188 C 217.347656 354.671875 217.53125 354.367188 217.742188 354.078125 C 217.957031 353.789062 218.191406 353.523438 218.453125 353.277344 C 218.714844 353.035156 218.996094 352.816406 219.300781 352.621094 C 219.601562 352.429688 219.917969 352.265625 220.25 352.132812 C 220.582031 352 220.921875 351.894531 221.273438 351.824219 L 259.5 344.171875 L 232.015625 333.871094 C 231.65625 333.738281 231.316406 333.570312 230.988281 333.367188 C 230.664062 333.167969 230.363281 332.9375 230.082031 332.675781 C 229.800781 332.414062 229.550781 332.128906 229.328125 331.816406 C 229.101562 331.503906 228.910156 331.175781 228.753906 330.828125 C 228.59375 330.480469 228.472656 330.117188 228.382812 329.746094 C 228.296875 329.371094 228.246094 328.996094 228.234375 328.613281 C 228.222656 328.230469 228.246094 327.847656 228.308594 327.472656 C 228.371094 327.09375 228.46875 326.726562 228.605469 326.367188 L 241.578125 291.785156 L 206.988281 304.757812 C 206.632812 304.890625 206.265625 304.988281 205.886719 305.050781 C 205.507812 305.113281 205.128906 305.140625 204.746094 305.125 C 204.363281 305.113281 203.988281 305.0625 203.613281 304.976562 C 203.242188 304.890625 202.882812 304.765625 202.535156 304.609375 C 202.183594 304.449219 201.855469 304.257812 201.546875 304.035156 C 201.234375 303.8125 200.949219 303.5625 200.6875 303.28125 C 200.425781 303.003906 200.195312 302.699219 199.992188 302.375 C 199.792969 302.050781 199.625 301.710938 199.488281 301.351562 L 187.5 269.300781 L 175.488281 301.328125 C 175.351562 301.6875 175.183594 302.027344 174.984375 302.351562 C 174.78125 302.675781 174.550781 302.980469 174.289062 303.257812 C 174.027344 303.539062 173.742188 303.789062 173.429688 304.011719 C 173.121094 304.234375 172.792969 304.425781 172.441406 304.585938 C 172.09375 304.742188 171.734375 304.867188 171.363281 304.953125 C 170.988281 305.039062 170.613281 305.089844 170.230469 305.101562 C 169.847656 305.117188 169.46875 305.089844 169.089844 305.027344 C 168.714844 304.96875 168.34375 304.867188 167.988281 304.734375 L 133.398438 291.761719 L 146.371094 326.34375 C 146.507812 326.703125 146.605469 327.070312 146.667969 327.449219 C 146.730469 327.824219 146.753906 328.207031 146.742188 328.589844 C 146.730469 328.972656 146.679688 329.347656 146.59375 329.722656 C 146.503906 330.09375 146.382812 330.457031 146.222656 330.804688 C 146.066406 331.152344 145.875 331.480469 145.648438 331.792969 C 145.425781 332.105469 145.175781 332.390625 144.894531 332.652344 C 144.613281 332.914062 144.3125 333.144531 143.988281 333.34375 C 143.660156 333.546875 143.320312 333.714844 142.960938 333.847656 L 115.476562 344.148438 L 153.726562 351.824219 C 154.089844 351.910156 154.441406 352.03125 154.785156 352.183594 C 155.125 352.335938 155.449219 352.523438 155.753906 352.738281 C 156.058594 352.953125 156.339844 353.199219 156.597656 353.46875 C 156.855469 353.738281 157.085938 354.03125 157.289062 354.34375 C 157.492188 354.660156 157.660156 354.992188 157.800781 355.339844 C 157.9375 355.6875 158.042969 356.042969 158.109375 356.410156 C 158.179688 356.777344 158.214844 357.148438 158.210938 357.523438 C 158.210938 357.898438 158.171875 358.265625 158.097656 358.632812 C 158.027344 359 157.917969 359.355469 157.777344 359.703125 C 157.632812 360.046875 157.460938 360.378906 157.253906 360.691406 C 157.050781 361.003906 156.816406 361.292969 156.554688 361.558594 C 156.292969 361.828125 156.007812 362.066406 155.703125 362.28125 C 155.394531 362.492188 155.070312 362.675781 154.726562 362.824219 C 154.382812 362.976562 154.03125 363.089844 153.664062 363.171875 C 153.300781 363.253906 152.933594 363.300781 152.558594 363.3125 C 152.183594 363.324219 151.8125 363.296875 151.445312 363.238281 L 93.214844 351.589844 C 92.59375 351.46875 92.007812 351.25 91.460938 350.933594 C 90.910156 350.617188 90.425781 350.226562 90.003906 349.753906 C 89.585938 349.28125 89.25 348.753906 89 348.171875 C 88.753906 347.589844 88.601562 346.980469 88.550781 346.351562 C 88.5 345.71875 88.550781 345.097656 88.703125 344.484375 C 88.855469 343.867188 89.101562 343.292969 89.441406 342.761719 C 89.777344 342.226562 90.195312 341.757812 90.6875 341.359375 C 91.175781 340.960938 91.71875 340.652344 92.3125 340.429688 L 133.441406 325.007812 L 118.015625 283.882812 C 117.816406 283.359375 117.695312 282.816406 117.65625 282.257812 C 117.613281 281.699219 117.652344 281.148438 117.769531 280.601562 C 117.886719 280.050781 118.082031 279.53125 118.347656 279.042969 C 118.617188 278.550781 118.949219 278.105469 119.34375 277.710938 C 119.738281 277.3125 120.183594 276.980469 120.675781 276.714844 C 121.164062 276.445312 121.683594 276.253906 122.230469 276.132812 C 122.78125 276.015625 123.332031 275.976562 123.890625 276.019531 C 124.449219 276.058594 124.992188 276.179688 125.515625 276.375 L 166.648438 291.808594 L 182.066406 250.667969 C 182.273438 250.113281 182.558594 249.597656 182.925781 249.128906 C 183.289062 248.660156 183.714844 248.257812 184.203125 247.917969 C 184.691406 247.582031 185.214844 247.324219 185.78125 247.144531 C 186.347656 246.96875 186.929688 246.878906 187.523438 246.878906 C 188.117188 246.878906 188.695312 246.96875 189.261719 247.144531 C 189.828125 247.324219 190.355469 247.582031 190.84375 247.917969 C 191.332031 248.257812 191.757812 248.660156 192.121094 249.128906 C 192.484375 249.597656 192.773438 250.113281 192.980469 250.667969 L 208.398438 291.808594 L 249.53125 276.375 C 250.054688 276.179688 250.597656 276.058594 251.15625 276.019531 C 251.714844 275.976562 252.265625 276.015625 252.8125 276.132812 C 253.363281 276.253906 253.882812 276.445312 254.371094 276.714844 C 254.863281 276.980469 255.308594 277.3125 255.703125 277.710938 C 256.097656 278.105469 256.429688 278.550781 256.699219 279.042969 C 256.964844 279.53125 257.160156 280.050781 257.277344 280.601562 C 257.394531 281.148438 257.433594 281.699219 257.390625 282.257812 C 257.351562 282.816406 257.230469 283.359375 257.03125 283.882812 L 241.605469 325.007812 L 282.734375 340.429688 C 283.328125 340.652344 283.871094 340.960938 284.359375 341.359375 C 284.851562 341.757812 285.269531 342.226562 285.605469 342.761719 C 285.945312 343.292969 286.191406 343.867188 286.34375 344.484375 C 286.496094 345.097656 286.546875 345.71875 286.496094 346.351562 C 286.445312 346.980469 286.292969 347.589844 286.046875 348.171875 C 285.796875 348.753906 285.460938 349.28125 285.042969 349.753906 C 284.621094 350.226562 284.136719 350.617188 283.585938 350.933594 C 283.039062 351.25 282.453125 351.46875 281.832031 351.589844 L 223.601562 363.238281 C 223.21875 363.316406 222.832031 363.355469 222.4375 363.355469 Z M 222.4375 363.355469 " fill-opacity="1" fill-rule="nonzero"/><path fill="#222325" d="M 187.5 351.707031 C 167.210938 351.707031 146.738281 346.304688 146.738281 334.238281 C 146.738281 322.175781 167.210938 316.769531 187.5 316.769531 C 207.789062 316.769531 228.261719 322.175781 228.261719 334.238281 C 228.261719 346.304688 207.789062 351.707031 187.5 351.707031 Z M 158.914062 334.238281 C 161.652344 336.394531 171.40625 340.0625 187.5 340.0625 C 203.59375 340.0625 213.347656 336.394531 216.085938 334.238281 C 213.347656 332.085938 203.59375 328.417969 187.5 328.417969 C 171.40625 328.417969 161.652344 332.085938 158.914062 334.238281 Z M 216.765625 334.9375 Z M 216.765625 334.9375 " fill-opacity="1" fill-rule="nonzero"/><path fill="#222325" d="M 187.5 375 C 167.210938 375 146.738281 369.597656 146.738281 357.53125 L 146.738281 334.238281 C 146.738281 333.855469 146.777344 333.476562 146.851562 333.101562 C 146.925781 332.726562 147.035156 332.363281 147.183594 332.011719 C 147.328125 331.65625 147.507812 331.320312 147.71875 331.003906 C 147.933594 330.6875 148.175781 330.390625 148.445312 330.121094 C 148.714844 329.851562 149.007812 329.609375 149.328125 329.398438 C 149.644531 329.183594 149.980469 329.003906 150.332031 328.859375 C 150.6875 328.714844 151.050781 328.601562 151.425781 328.527344 C 151.800781 328.453125 152.179688 328.417969 152.5625 328.417969 C 152.945312 328.417969 153.324219 328.453125 153.699219 328.527344 C 154.074219 328.601562 154.4375 328.714844 154.789062 328.859375 C 155.144531 329.003906 155.480469 329.183594 155.796875 329.398438 C 156.113281 329.609375 156.410156 329.851562 156.679688 330.121094 C 156.949219 330.390625 157.191406 330.6875 157.402344 331.003906 C 157.617188 331.320312 157.796875 331.65625 157.941406 332.011719 C 158.089844 332.363281 158.199219 332.726562 158.273438 333.101562 C 158.347656 333.476562 158.386719 333.855469 158.386719 334.238281 L 158.386719 357.035156 C 160.097656 359.0625 170.09375 363.355469 187.5 363.355469 C 204.90625 363.355469 214.902344 359.0625 216.613281 357.035156 L 216.613281 334.238281 C 216.613281 333.855469 216.652344 333.476562 216.726562 333.101562 C 216.800781 332.726562 216.910156 332.363281 217.058594 332.011719 C 217.203125 331.65625 217.382812 331.320312 217.597656 331.003906 C 217.808594 330.6875 218.050781 330.390625 218.320312 330.121094 C 218.589844 329.851562 218.886719 329.609375 219.203125 329.398438 C 219.519531 329.183594 219.855469 329.003906 220.210938 328.859375 C 220.5625 328.714844 220.925781 328.601562 221.300781 328.527344 C 221.675781 328.453125 222.054688 328.417969 222.4375 328.417969 C 222.820312 328.417969 223.199219 328.453125 223.574219 328.527344 C 223.949219 328.601562 224.3125 328.714844 224.667969 328.859375 C 225.019531 329.003906 225.355469 329.183594 225.671875 329.398438 C 225.992188 329.609375 226.285156 329.851562 226.554688 330.121094 C 226.824219 330.390625 227.066406 330.6875 227.28125 331.003906 C 227.492188 331.320312 227.671875 331.65625 227.816406 332.011719 C 227.964844 332.363281 228.074219 332.726562 228.148438 333.101562 C 228.222656 333.476562 228.261719 333.855469 228.261719 334.238281 L 228.261719 357.53125 C 228.261719 369.597656 207.789062 375 187.5 375 Z M 187.5 375 " fill-opacity="1" fill-rule="nonzero"/><g transform="matrix(1, 0, 0, 1, 285, 270)"><g clip-path="url(#7bbd44b594)"><g fill="#16263b" fill-opacity="1"><g transform="translate(0.306548, 15.3476)"><g><path d="M 10.5625 -5.125 C 10.5625 -3.914062 10.347656 -2.90625 9.921875 -2.09375 C 9.492188 -1.28125 8.867188 -0.6875 8.046875 -0.3125 L 10.5 2.4375 L 7.734375 2.4375 L 5.859375 0.140625 L 5.703125 0.140625 C 4.128906 0.140625 2.921875 -0.3125 2.078125 -1.21875 C 1.242188 -2.125 0.828125 -3.429688 0.828125 -5.140625 C 0.828125 -6.835938 1.25 -8.132812 2.09375 -9.03125 C 2.9375 -9.925781 4.140625 -10.375 5.703125 -10.375 C 7.273438 -10.375 8.476562 -9.921875 9.3125 -9.015625 C 10.144531 -8.117188 10.5625 -6.820312 10.5625 -5.125 Z M 3.109375 -5.125 C 3.109375 -3.976562 3.320312 -3.113281 3.75 -2.53125 C 4.1875 -1.957031 4.835938 -1.671875 5.703125 -1.671875 C 7.421875 -1.671875 8.28125 -2.820312 8.28125 -5.125 C 8.28125 -7.425781 7.421875 -8.578125 5.703125 -8.578125 C 4.847656 -8.578125 4.203125 -8.285156 3.765625 -7.703125 C 3.328125 -7.117188 3.109375 -6.257812 3.109375 -5.125 Z M 3.109375 -5.125 "/></g></g></g><g fill="#16263b" fill-opacity="1"><g transform="translate(11.701082, 15.3476)"><g><path d="M 7.546875 0 L 6.796875 -2.4375 L 3.078125 -2.4375 L 2.328125 0 L 0 0 L 3.609375 -10.265625 L 6.25 -10.265625 L 9.875 0 Z M 6.28125 -4.25 C 5.59375 -6.445312 5.207031 -7.691406 5.125 -7.984375 C 5.039062 -8.273438 4.976562 -8.503906 4.9375 -8.671875 C 4.78125 -8.078125 4.34375 -6.601562 3.625 -4.25 Z M 6.28125 -4.25 "/></g></g></g><g fill="#16263b" fill-opacity="1"><g transform="translate(21.578678, 15.3476)"><g><path d="M 1.28125 -10.21875 L 4.46875 -10.21875 C 5.914062 -10.21875 6.96875 -10.007812 7.625 -9.59375 C 8.28125 -9.1875 8.609375 -8.53125 8.609375 -7.625 C 8.609375 -7.019531 8.460938 -6.519531 8.171875 -6.125 C 7.890625 -5.738281 7.507812 -5.503906 7.03125 -5.421875 L 7.03125 -5.359375 C 7.675781 -5.210938 8.140625 -4.941406 8.421875 -4.546875 C 8.710938 -4.148438 8.859375 -3.625 8.859375 -2.96875 C 8.859375 -2.03125 8.519531 -1.300781 7.84375 -0.78125 C 7.175781 -0.257812 6.265625 0 5.109375 0 L 1.28125 0 Z M 3.453125 -6.171875 L 4.703125 -6.171875 C 5.296875 -6.171875 5.722656 -6.257812 5.984375 -6.4375 C 6.242188 -6.625 6.375 -6.925781 6.375 -7.34375 C 6.375 -7.738281 6.226562 -8.019531 5.9375 -8.1875 C 5.65625 -8.351562 5.207031 -8.4375 4.59375 -8.4375 L 3.453125 -8.4375 Z M 3.453125 -4.453125 L 3.453125 -1.796875 L 4.859375 -1.796875 C 5.460938 -1.796875 5.90625 -1.90625 6.1875 -2.125 C 6.46875 -2.351562 6.609375 -2.707031 6.609375 -3.1875 C 6.609375 -4.03125 6.003906 -4.453125 4.796875 -4.453125 Z M 3.453125 -4.453125 "/></g></g></g></g></g></svg>