<svg xmlns="http://www.w3.org/2000/svg" xmlns:xlink="http://www.w3.org/1999/xlink" width="500" zoomAndPan="magnify" viewBox="0 0 375 374.999991" height="500" preserveAspectRatio="xMidYMid meet" version="1.0"><defs><g/><clipPath id="63be4cd29a"><path d="M 298 88 L 351.75 88 L 351.75 216 L 298 216 Z M 298 88 " clip-rule="nonzero"/></clipPath><clipPath id="56496e2653"><rect x="0" width="32" y="0" height="20"/></clipPath></defs><path fill="#4d4d4d" d="M 270.300781 250.601562 L 269.097656 252.707031 L 269.097656 232.714844 C 253.277344 240.183594 236.519531 244.839844 219.386719 246.476562 L 219.386719 302.234375 L 273.335938 302.234375 L 272.832031 299.75 L 291.707031 255.421875 L 291.707031 250.601562 Z M 270.300781 250.601562 " fill-opacity="1" fill-rule="nonzero"/><path fill="#4d4d4d" d="M 219.386719 320.21875 L 276.988281 320.21875 L 273.335938 302.234375 L 219.386719 302.234375 Z M 219.386719 320.21875 " fill-opacity="1" fill-rule="nonzero"/><path fill="#4d4d4d" d="M 128.59375 320.21875 L 70.992188 320.21875 L 74.644531 302.234375 L 128.59375 302.234375 Z M 128.59375 320.21875 " fill-opacity="1" fill-rule="nonzero"/><path fill="#4d4d4d" d="M 77.679688 250.601562 L 78.882812 252.707031 L 78.882812 232.714844 C 94.703125 240.183594 111.460938 244.839844 128.59375 246.476562 L 128.59375 302.234375 L 74.644531 302.234375 C 74.644531 302.234375 75.148438 299.75 75.148438 299.75 L 56.273438 255.421875 L 56.273438 250.601562 Z M 77.679688 250.601562 " fill-opacity="1" fill-rule="nonzero"/><path fill="#fcbc3a" d="M 302.023438 91.882812 C 273.777344 68.984375 240.074219 56.695312 205.523438 56.695312 L 146.191406 56.695312 C 111.640625 56.695312 77.9375 68.984375 49.691406 91.882812 L 49.691406 211.988281 C 77.9375 234.886719 111.640625 247.179688 146.191406 247.179688 L 205.523438 247.179688 C 240.070312 247.179688 273.777344 234.886719 302.023438 211.988281 Z M 302.023438 91.882812 " fill-opacity="1" fill-rule="nonzero"/><path fill="#fcbc3a" d="M 114.074219 28.152344 C 114.074219 26.839844 111.4375 25.648438 107.144531 24.769531 C 99.675781 23.238281 93.808594 17.367188 92.28125 9.894531 C 91.402344 5.59375 90.210938 2.953125 88.898438 2.953125 C 87.585938 2.953125 86.394531 5.59375 85.515625 9.894531 C 83.988281 17.367188 78.121094 23.238281 70.652344 24.769531 C 66.359375 25.648438 63.722656 26.839844 63.722656 28.152344 C 63.722656 29.464844 66.359375 30.65625 70.652344 31.539062 C 78.121094 33.070312 83.988281 38.9375 85.515625 46.410156 C 86.394531 50.710938 87.585938 53.351562 88.898438 53.351562 C 90.210938 53.351562 91.402344 50.710938 92.28125 46.410156 C 93.8125 38.9375 99.675781 33.070312 107.144531 31.539062 C 111.441406 30.65625 114.078125 29.464844 114.078125 28.152344 Z M 114.074219 28.152344 " fill-opacity="1" fill-rule="nonzero"/><path fill="#fcbc3a" d="M 58.433594 58.191406 C 58.433594 57.332031 56.703125 56.550781 53.894531 55.976562 C 49.003906 54.972656 45.164062 51.132812 44.164062 46.238281 C 43.585938 43.425781 42.808594 41.695312 41.949219 41.695312 C 41.089844 41.695312 40.3125 43.425781 39.734375 46.238281 C 38.734375 51.132812 34.894531 54.972656 30.003906 55.976562 C 27.191406 56.554688 25.464844 57.332031 25.464844 58.191406 C 25.464844 59.050781 27.191406 59.832031 30.003906 60.40625 C 34.894531 61.410156 38.734375 65.253906 39.734375 70.144531 C 40.3125 72.960938 41.089844 74.6875 41.949219 74.6875 C 42.808594 74.6875 43.585938 72.960938 44.164062 70.144531 C 45.164062 65.253906 49.003906 61.410156 53.894531 60.40625 C 56.703125 59.832031 58.433594 59.050781 58.433594 58.191406 Z M 58.433594 58.191406 " fill-opacity="1" fill-rule="nonzero"/><path fill="#fcbc3a" d="M 290.40625 27.53125 C 290.40625 26.25 287.832031 25.089844 283.640625 24.230469 C 276.359375 22.738281 270.636719 17.011719 269.144531 9.722656 C 268.289062 5.527344 267.125 2.953125 265.847656 2.953125 C 264.566406 2.953125 263.40625 5.527344 262.546875 9.722656 C 261.054688 17.011719 255.335938 22.738281 248.050781 24.230469 C 243.859375 25.089844 241.289062 26.25 241.289062 27.53125 C 241.289062 28.8125 243.859375 29.972656 248.050781 30.832031 C 255.335938 32.328125 261.054688 38.050781 262.546875 45.339844 C 263.40625 49.535156 264.566406 52.109375 265.847656 52.109375 C 267.125 52.109375 268.289062 49.535156 269.144531 45.339844 C 270.636719 38.050781 276.359375 32.328125 283.640625 30.832031 C 287.832031 29.972656 290.40625 28.8125 290.40625 27.53125 Z M 290.40625 27.53125 " fill-opacity="1" fill-rule="nonzero"/><path fill="#fcbc3a" d="M 327.265625 58.210938 C 327.265625 57.242188 325.320312 56.363281 322.148438 55.710938 C 316.636719 54.582031 312.308594 50.25 311.179688 44.734375 C 310.53125 41.558594 309.652344 39.609375 308.683594 39.609375 C 307.714844 39.609375 306.835938 41.558594 306.1875 44.734375 C 305.058594 50.25 300.726562 54.582031 295.214844 55.710938 C 292.046875 56.363281 290.097656 57.242188 290.097656 58.210938 C 290.097656 59.179688 292.046875 60.058594 295.21875 60.707031 C 300.730469 61.839844 305.058594 66.171875 306.1875 71.6875 C 306.835938 74.859375 307.714844 76.808594 308.683594 76.808594 C 309.652344 76.808594 310.53125 74.859375 311.179688 71.6875 C 312.308594 66.171875 316.636719 61.839844 322.148438 60.707031 C 325.320312 60.058594 327.269531 59.179688 327.269531 58.210938 Z M 327.265625 58.210938 " fill-opacity="1" fill-rule="nonzero"/><path fill="#fcbc3a" d="M 301.722656 91.660156 C 301.820312 91.738281 301.925781 91.804688 302.023438 91.882812 L 302.023438 211.988281 C 301.925781 212.066406 301.820312 212.132812 301.722656 212.210938 L 348.726562 206.222656 L 348.726562 97.648438 Z M 301.722656 91.660156 " fill-opacity="1" fill-rule="nonzero"/><path fill="#fcbc3a" d="M 175.75 178.34375 C 154.296875 178.34375 134.183594 179.519531 115.84375 181.441406 C 126.601562 203.519531 149.039062 218.859375 175.234375 218.859375 C 201.433594 218.859375 223.945312 203.472656 234.683594 181.335938 C 216.601562 179.476562 196.820312 178.34375 175.75 178.34375 Z M 175.75 178.34375 " fill-opacity="1" fill-rule="nonzero"/><path fill="#fcbc3a" d="M 175.75 126.722656 C 196.820312 126.722656 216.601562 125.589844 234.683594 123.730469 C 223.945312 101.59375 201.472656 86.207031 175.234375 86.207031 C 148.996094 86.207031 126.601562 101.546875 115.84375 123.625 C 134.183594 125.546875 154.296875 126.722656 175.75 126.722656 Z M 175.75 126.722656 " fill-opacity="1" fill-rule="nonzero"/><path fill="#fcbc3a" d="M 175.261719 126.722656 C 140.105469 126.722656 107.863281 123.847656 82.699219 119.0625 L 82.699219 186.003906 C 107.863281 181.21875 140.105469 178.34375 175.261719 178.34375 C 210.417969 178.34375 242.664062 181.21875 267.828125 186.003906 L 267.828125 119.0625 C 242.664062 123.847656 210.417969 126.722656 175.261719 126.722656 Z M 175.261719 126.722656 " fill-opacity="1" fill-rule="nonzero"/><path fill="#000000" d="M 269.097656 232.714844 C 253.277344 240.183594 236.519531 244.839844 219.386719 246.476562 L 219.386719 259.582031 C 236.519531 257.945312 253.277344 253.289062 269.097656 245.820312 Z M 269.097656 232.714844 " fill-opacity="1" fill-rule="nonzero"/><path fill="#dd4e22" d="M 128.59375 320.21875 L 128.59375 371.488281 L 60.527344 371.753906 L 70.992188 320.21875 Z M 128.59375 320.21875 " fill-opacity="1" fill-rule="nonzero"/><path fill="#dd4e22" d="M 215.71875 234.070312 L 156.386719 234.070312 C 152.984375 234.070312 149.589844 233.953125 146.210938 233.714844 C 97.484375 230.304688 59.886719 189.332031 59.886719 140.449219 L 59.886719 82.386719 C 55.421875 85.335938 51.027344 88.449219 46.792969 91.882812 L 46.792969 211.988281 C 75.035156 234.886719 108.742188 247.175781 143.289062 247.175781 L 202.621094 247.175781 C 237.171875 247.175781 270.875 234.886719 299.121094 211.988281 L 299.121094 208.378906 C 273.808594 225.109375 245.085938 234.070312 215.714844 234.070312 Z M 215.71875 234.070312 " fill-opacity="1" fill-rule="nonzero"/><path fill="#dd4e22" d="M 270.300781 250.601562 L 291.707031 250.601562 L 291.707031 243.484375 C 291.707031 239.035156 288.101562 235.425781 283.652344 235.425781 C 280.765625 235.425781 278.097656 236.972656 276.660156 239.480469 Z M 270.300781 250.601562 " fill-opacity="1" fill-rule="nonzero"/><path fill="#dd4e22" d="M 77.679688 250.601562 L 56.273438 250.601562 L 56.273438 243.484375 C 56.273438 239.035156 59.882812 235.425781 64.328125 235.425781 C 67.21875 235.425781 69.886719 236.972656 71.320312 239.480469 Z M 77.679688 250.601562 " fill-opacity="1" fill-rule="nonzero"/><path fill="#dd4e22" d="M 49.691406 211.988281 L 49.691406 91.882812 C 49.789062 91.804688 49.894531 91.738281 49.992188 91.660156 L 2.988281 97.648438 L 2.988281 206.222656 L 49.992188 212.210938 C 49.894531 212.132812 49.789062 212.066406 49.691406 211.988281 Z M 49.691406 211.988281 " fill-opacity="1" fill-rule="nonzero"/><path fill="#dd4e22" d="M 314.929688 174.460938 C 315.023438 143.214844 315.117188 93.367188 315.117188 93.367188 L 301.722656 91.660156 C 301.820312 91.738281 301.925781 91.804688 302.023438 91.882812 L 302.023438 211.988281 C 301.925781 212.066406 301.820312 212.132812 301.722656 212.214844 L 348.726562 206.222656 L 348.726562 194.785156 L 339.308594 195.988281 C 326.347656 197.636719 314.890625 187.535156 314.929688 174.460938 Z M 314.929688 174.460938 " fill-opacity="1" fill-rule="nonzero"/><path fill="#dd4e22" d="M 219.386719 320.21875 L 219.386719 371.488281 L 287.453125 371.753906 L 276.988281 320.21875 Z M 219.386719 320.21875 " fill-opacity="1" fill-rule="nonzero"/><path fill="#a52a16" d="M 81.101562 341.484375 C 82.839844 332.921875 90.363281 326.773438 99.089844 326.773438 L 128.59375 326.773438 L 128.59375 320.21875 L 70.992188 320.21875 L 60.527344 371.753906 L 74.964844 371.699219 Z M 81.101562 341.484375 " fill-opacity="1" fill-rule="nonzero"/><path fill="#a52a16" d="M 232.484375 335.238281 C 232.484375 330.5625 236.269531 326.769531 240.945312 326.769531 L 278.320312 326.769531 L 276.988281 320.21875 L 219.386719 320.21875 L 219.386719 371.488281 L 232.484375 371.539062 Z M 232.484375 335.238281 " fill-opacity="1" fill-rule="nonzero"/><path fill="#000000" d="M 78.882812 232.714844 L 78.882812 245.820312 C 94.703125 253.289062 111.460938 257.945312 128.59375 259.582031 L 128.59375 246.476562 C 111.460938 244.839844 94.703125 240.183594 78.882812 232.714844 Z M 78.882812 232.714844 " fill-opacity="1" fill-rule="nonzero"/><path stroke-linecap="round" transform="matrix(0.73789, 0, 0, 0.73848, 0.0358779, 0)" fill="none" stroke-linejoin="round" d="M 237.468882 171.59938 C 189.824566 171.59938 146.129434 167.706246 112.026691 161.226506 L 112.026691 251.874099 C 146.129434 245.39436 189.824566 241.501226 237.468882 241.501226 C 285.113198 241.501226 328.813624 245.39436 362.916366 251.874099 L 362.916366 161.226506 C 328.813624 167.706246 285.113198 171.59938 237.468882 171.59938 Z M 237.468882 171.59938 " stroke="#000000" stroke-width="8" stroke-opacity="1" stroke-miterlimit="4"/><path stroke-linecap="round" transform="matrix(0.73789, 0, 0, 0.73848, 0.0358779, 0)" fill="none" stroke-linejoin="round" d="M 238.130608 241.501226 C 209.056988 241.501226 181.799145 243.093391 156.944693 245.695866 C 171.523854 275.592592 201.931516 296.364787 237.431825 296.364787 C 272.937428 296.364787 303.445672 275.529117 317.998364 245.553047 C 293.493304 243.035205 266.685435 241.501226 238.130608 241.501226 Z M 238.130608 241.501226 " stroke="#000000" stroke-width="8" stroke-opacity="1" stroke-miterlimit="4"/><path stroke-linecap="round" transform="matrix(0.73789, 0, 0, 0.73848, 0.0358779, 0)" fill="none" stroke-linejoin="round" d="M 238.130608 171.59938 C 266.685435 171.59938 293.493304 170.0654 317.998364 167.547559 C 303.445672 137.571489 272.990366 116.735819 237.431825 116.735819 C 201.873284 116.735819 171.523854 137.508014 156.944693 167.40474 C 181.799145 170.007215 209.056988 171.59938 238.130608 171.59938 Z M 238.130608 171.59938 " stroke="#000000" stroke-width="8" stroke-opacity="1" stroke-miterlimit="4"/><g clip-path="url(#63be4cd29a)"><path stroke-linecap="round" transform="matrix(0.73789, 0, 0, 0.73848, 0.0358779, 0)" fill="none" stroke-linejoin="round" d="M 408.850781 124.120078 C 408.983126 124.225869 409.126059 124.315792 409.258405 124.421584 L 409.258405 287.060409 C 409.126059 287.166201 408.983126 287.256124 408.850781 287.361915 L 472.551232 279.252984 L 472.551232 132.229009 Z M 408.850781 124.120078 " stroke="#000000" stroke-width="8" stroke-opacity="1" stroke-miterlimit="4"/></g><path stroke-linecap="round" transform="matrix(0.73789, 0, 0, 0.73848, 0.0358779, 0)" fill="none" stroke-linejoin="round" d="M 67.293972 287.060409 L 67.293972 124.421584 C 67.426317 124.315792 67.56925 124.225869 67.701595 124.120078 L 4.001145 132.229009 L 4.001145 279.252984 L 67.701595 287.361915 C 67.56925 287.256124 67.426317 287.166201 67.293972 287.060409 Z M 67.293972 287.060409 " stroke="#000000" stroke-width="8" stroke-opacity="1" stroke-miterlimit="4"/><path stroke-linecap="round" transform="matrix(0.73789, 0, 0, 0.73848, 0.0358779, 0)" fill="none" stroke-linejoin="round" d="M 243.752638 76.773016 L 234.409058 76.773016 " stroke="#000000" stroke-width="8" stroke-opacity="1" stroke-miterlimit="4"/><path stroke-linecap="round" transform="matrix(0.73789, 0, 0, 0.73848, 0.0358779, 0)" fill="none" stroke-linejoin="round" d="M 217.733547 76.773016 L 198.072326 76.773016 C 151.248551 76.773016 105.573533 93.414045 67.293972 124.421584 L 67.293972 287.060409 C 105.573533 318.067948 151.248551 334.714267 198.072326 334.714267 L 278.48005 334.714267 C 325.303826 334.714267 370.978843 318.067948 409.258405 287.060409 L 409.258405 124.421584 C 370.978843 93.414045 325.303826 76.773016 278.48005 76.773016 L 263.514441 76.773016 " stroke="#000000" stroke-width="8" stroke-opacity="1" stroke-miterlimit="4"/><path stroke-linecap="round" transform="matrix(0.73789, 0, 0, 0.73848, 0.0358779, 0)" fill="none" stroke-linejoin="round" d="M 337.495477 375.692671 C 337.495477 366.753275 341.83111 358.369285 349.12069 353.201362 L 364.636856 342.199028 " stroke="#000000" stroke-width="8" stroke-opacity="1" stroke-miterlimit="4"/><path stroke-linecap="round" transform="matrix(0.73789, 0, 0, 0.73848, 0.0358779, 0)" fill="none" stroke-linejoin="round" d="M 297.267792 433.6189 L 375.330358 433.6189 L 370.380643 409.265658 L 297.267792 409.265658 Z M 297.267792 433.6189 " stroke="#000000" stroke-width="8" stroke-opacity="1" stroke-miterlimit="4"/><path stroke-linecap="round" transform="matrix(0.73789, 0, 0, 0.73848, 0.0358779, 0)" fill="none" stroke-linejoin="round" d="M 366.26735 339.347942 L 395.277445 339.347942 L 395.277445 329.710321 C 395.277445 323.685486 390.391255 318.79791 384.361602 318.79791 C 380.449475 318.79791 376.833801 320.892585 374.885677 324.288498 Z M 366.26735 339.347942 " stroke="#000000" stroke-width="8" stroke-opacity="1" stroke-miterlimit="4"/><path stroke-linecap="round" transform="matrix(0.73789, 0, 0, 0.73848, 0.0358779, 0)" fill="none" stroke-linejoin="round" d="M 389.512482 503.404376 L 375.330358 433.6189 L 297.267792 433.6189 L 297.267792 503.044684 " stroke="#000000" stroke-width="8" stroke-opacity="1" stroke-miterlimit="4"/><path stroke-linecap="round" transform="matrix(0.73789, 0, 0, 0.73848, 0.0358779, 0)" fill="none" stroke-linejoin="round" d="M 366.26735 339.347942 L 364.636856 342.199028 L 364.636856 315.126939 C 343.196913 325.240623 320.486456 331.545807 297.267792 333.762142 L 297.267792 409.265658 L 370.380643 409.265658 L 369.697741 405.901483 L 395.277445 345.875289 L 395.277445 339.347942 Z M 366.26735 339.347942 " stroke="#000000" stroke-width="8" stroke-opacity="1" stroke-miterlimit="4"/><path stroke-linecap="round" transform="matrix(0.73789, 0, 0, 0.73848, 0.0358779, 0)" fill="none" stroke-linejoin="round" d="M 133.996015 375.692671 C 133.996015 366.753275 129.665676 358.369285 122.370801 353.201362 L 106.854636 342.199028 " stroke="#000000" stroke-width="8" stroke-opacity="1" stroke-miterlimit="4"/><path stroke-linecap="round" transform="matrix(0.73789, 0, 0, 0.73848, 0.0358779, 0)" fill="none" stroke-linejoin="round" d="M 174.223699 433.6189 L 96.161134 433.6189 L 101.110849 409.265658 L 174.223699 409.265658 Z M 174.223699 433.6189 " stroke="#000000" stroke-width="8" stroke-opacity="1" stroke-miterlimit="4"/><path stroke-linecap="round" transform="matrix(0.73789, 0, 0, 0.73848, 0.0358779, 0)" fill="none" stroke-linejoin="round" d="M 105.224141 339.347942 L 76.214047 339.347942 L 76.214047 329.710321 C 76.214047 323.685486 81.10553 318.79791 87.129889 318.79791 C 91.04731 318.79791 94.662985 320.892585 96.605814 324.288498 Z M 105.224141 339.347942 " stroke="#000000" stroke-width="8" stroke-opacity="1" stroke-miterlimit="4"/><path stroke-linecap="round" transform="matrix(0.73789, 0, 0, 0.73848, 0.0358779, 0)" fill="none" stroke-linejoin="round" d="M 81.979009 503.404376 L 96.161134 433.6189 L 174.223699 433.6189 L 174.223699 503.044684 " stroke="#000000" stroke-width="8" stroke-opacity="1" stroke-miterlimit="4"/><path stroke-linecap="round" transform="matrix(0.73789, 0, 0, 0.73848, 0.0358779, 0)" fill="none" stroke-linejoin="round" d="M 105.224141 339.347942 L 106.854636 342.199028 L 106.854636 315.126939 C 128.294578 325.240623 151.005035 331.545807 174.223699 333.762142 L 174.223699 409.265658 L 101.110849 409.265658 C 101.110849 409.265658 101.793751 405.901483 101.793751 405.901483 L 76.214047 345.875289 L 76.214047 339.347942 Z M 105.224141 339.347942 " stroke="#000000" stroke-width="8" stroke-opacity="1" stroke-miterlimit="4"/><path stroke-linecap="round" transform="matrix(0.73789, 0, 0, 0.73848, 0.0358779, 0)" fill="none" stroke-linejoin="round" d="M 237.468882 171.59938 C 249.522894 171.59938 261.322803 171.34548 272.778614 170.869417 C 266.865425 139.026124 253.286795 116.735819 237.468882 116.735819 C 221.650969 116.735819 208.077632 139.026124 202.15915 170.869417 C 213.614961 171.34548 225.41487 171.59938 237.468882 171.59938 Z M 237.468882 171.59938 " stroke="#000000" stroke-width="8" stroke-opacity="1" stroke-miterlimit="4"/><path stroke-linecap="round" transform="matrix(0.73789, 0, 0, 0.73848, 0.0358779, 0)" fill="none" stroke-linejoin="round" d="M 237.468882 241.501226 C 225.41487 241.501226 213.620255 241.755126 202.15915 242.231189 C 208.077632 274.074482 221.650969 296.364787 237.468882 296.364787 C 253.292089 296.364787 266.865425 274.074482 272.783908 242.231189 C 261.322803 241.755126 249.528188 241.501226 237.468882 241.501226 Z M 237.468882 241.501226 " stroke="#000000" stroke-width="8" stroke-opacity="1" stroke-miterlimit="4"/><path stroke-linecap="round" transform="matrix(0.73789, 0, 0, 0.73848, 0.0358779, 0)" fill="none" stroke-linejoin="round" d="M 126.743491 18.778022 C 125.981182 17.074776 125.393569 15.271028 125.012414 13.398515 C 123.816012 7.574684 122.201399 3.998925 120.427972 3.998925 C 118.649251 3.998925 117.034638 7.574684 115.84353 13.398515 C 113.773649 23.517488 105.822342 31.462443 95.700572 33.53596 C 89.877378 34.731406 86.304054 36.344729 86.304054 38.122029 C 86.304054 39.899329 89.877378 41.512652 95.700572 42.702808 C 105.822342 44.776325 113.768355 52.726569 115.84353 62.845542 C 117.034638 68.669374 118.649251 72.245132 120.427972 72.245132 C 122.206693 72.245132 123.821306 68.669374 125.012414 62.845542 C 127.087589 52.726569 135.033602 44.776325 145.155372 42.702808 C 150.978566 41.512652 154.55189 39.899329 154.55189 38.122029 C 154.55189 36.344729 150.978566 34.731406 145.155372 33.53596 C 141.116193 32.710785 137.421111 30.949353 134.308349 28.484407 " stroke="#000000" stroke-width="8" stroke-opacity="1" stroke-miterlimit="4"/><path stroke-linecap="round" transform="matrix(0.73789, 0, 0, 0.73848, 0.0358779, 0)" fill="none" stroke-linejoin="round" d="M 79.141525 78.798926 C 79.141525 77.635218 76.796366 76.577301 72.990114 75.799732 C 66.362261 74.440309 61.158443 69.240649 59.803226 62.6128 C 59.019742 58.8043 57.966273 56.461015 56.801635 56.461015 C 55.636996 56.461015 54.583527 58.8043 53.800043 62.6128 C 52.444827 69.240649 47.241008 74.440309 40.613155 75.799732 C 36.801609 76.58259 34.461744 77.635218 34.461744 78.798926 C 34.461744 79.962634 36.801609 81.020551 40.613155 81.79812 C 47.241008 83.157543 52.444827 88.362493 53.800043 94.985052 C 54.583527 98.798841 55.636996 101.136837 56.801635 101.136837 C 57.966273 101.136837 59.019742 98.798841 59.803226 94.985052 C 61.158443 88.362493 66.362261 83.157543 72.990114 81.79812 C 76.796366 81.020551 79.141525 79.962634 79.141525 78.798926 Z M 79.141525 78.798926 " stroke="#000000" stroke-width="8" stroke-opacity="1" stroke-miterlimit="4"/><path stroke-linecap="round" transform="matrix(0.73789, 0, 0, 0.73848, 0.0358779, 0)" fill="none" stroke-linejoin="round" d="M 393.514605 37.280985 C 393.514605 35.546001 390.025982 33.974995 384.345721 32.811287 C 374.478054 30.790666 366.722618 23.036136 364.700381 13.165773 C 363.541036 7.484761 361.96348 3.998925 360.232403 3.998925 C 358.496033 3.998925 356.92377 7.484761 355.759131 13.165773 C 353.736895 23.036136 345.986753 30.790666 336.113792 32.811287 C 330.43353 33.974995 326.950201 35.546001 326.950201 37.280985 C 326.950201 39.015968 330.43353 40.586975 336.113792 41.750683 C 345.986753 43.776593 353.736895 51.525833 355.759131 61.396196 C 356.92377 67.077209 358.496033 70.563044 360.232403 70.563044 C 361.96348 70.563044 363.541036 67.077209 364.700381 61.396196 C 366.722618 51.525833 374.478054 43.776593 384.345721 41.750683 C 390.025982 40.586975 393.514605 39.015968 393.514605 37.280985 Z M 393.514605 37.280985 " stroke="#000000" stroke-width="8" stroke-opacity="1" stroke-miterlimit="4"/><path stroke-linecap="round" transform="matrix(0.73789, 0, 0, 0.73848, 0.0358779, 0)" fill="none" stroke-linejoin="round" d="M 414.901609 97.074437 C 415.780382 101.369579 416.97149 104.009081 418.284356 104.009081 C 419.591927 104.009081 420.783035 101.369579 421.667102 97.074437 C 423.197014 89.605545 429.062559 83.739397 436.532129 82.205418 C 440.830705 81.327347 443.467024 80.137191 443.467024 78.825374 C 443.467024 77.513557 440.830705 76.323401 436.532129 75.44004 C 429.062559 73.911351 423.197014 68.045203 421.667102 60.576311 C 420.788329 56.275879 419.597221 53.636377 418.284356 53.636377 C 416.97149 53.636377 415.780382 56.275879 414.901609 60.576311 C 413.371697 68.045203 407.500859 73.911351 400.031289 75.44004 C 395.738006 76.323401 393.096394 77.513557 393.096394 78.825374 C 393.096394 80.137191 395.738006 81.327347 400.036583 82.205418 C 401.900005 82.591557 403.668138 83.242176 405.293339 84.125537 " stroke="#000000" stroke-width="8" stroke-opacity="1" stroke-miterlimit="4"/><g transform="matrix(1, 0, 0, 1, 226, 280)"><g clip-path="url(#56496e2653)"><g fill="#665656" fill-opacity="1"><g transform="translate(0.180727, 15.499728)"><g><path d="M 10.5625 -5.125 C 10.5625 -3.914062 10.347656 -2.90625 9.921875 -2.09375 C 9.492188 -1.28125 8.867188 -0.6875 8.046875 -0.3125 L 10.5 2.4375 L 7.734375 2.4375 L 5.859375 0.140625 L 5.703125 0.140625 C 4.128906 0.140625 2.921875 -0.3125 2.078125 -1.21875 C 1.242188 -2.125 0.828125 -3.429688 0.828125 -5.140625 C 0.828125 -6.835938 1.25 -8.132812 2.09375 -9.03125 C 2.9375 -9.925781 4.140625 -10.375 5.703125 -10.375 C 7.273438 -10.375 8.476562 -9.921875 9.3125 -9.015625 C 10.144531 -8.117188 10.5625 -6.820312 10.5625 -5.125 Z M 3.109375 -5.125 C 3.109375 -3.976562 3.320312 -3.113281 3.75 -2.53125 C 4.1875 -1.957031 4.835938 -1.671875 5.703125 -1.671875 C 7.421875 -1.671875 8.28125 -2.820312 8.28125 -5.125 C 8.28125 -7.425781 7.421875 -8.578125 5.703125 -8.578125 C 4.847656 -8.578125 4.203125 -8.285156 3.765625 -7.703125 C 3.328125 -7.117188 3.109375 -6.257812 3.109375 -5.125 Z M 3.109375 -5.125 "/></g></g></g><g fill="#665656" fill-opacity="1"><g transform="translate(11.575261, 15.499728)"><g><path d="M 7.546875 0 L 6.796875 -2.4375 L 3.078125 -2.4375 L 2.328125 0 L 0 0 L 3.609375 -10.265625 L 6.25 -10.265625 L 9.875 0 Z M 6.28125 -4.25 C 5.59375 -6.445312 5.207031 -7.691406 5.125 -7.984375 C 5.039062 -8.273438 4.976562 -8.503906 4.9375 -8.671875 C 4.78125 -8.078125 4.34375 -6.601562 3.625 -4.25 Z M 6.28125 -4.25 "/></g></g></g><g fill="#665656" fill-opacity="1"><g transform="translate(21.452857, 15.499728)"><g><path d="M 1.28125 -10.21875 L 4.46875 -10.21875 C 5.914062 -10.21875 6.96875 -10.007812 7.625 -9.59375 C 8.28125 -9.1875 8.609375 -8.53125 8.609375 -7.625 C 8.609375 -7.019531 8.460938 -6.519531 8.171875 -6.125 C 7.890625 -5.738281 7.507812 -5.503906 7.03125 -5.421875 L 7.03125 -5.359375 C 7.675781 -5.210938 8.140625 -4.941406 8.421875 -4.546875 C 8.710938 -4.148438 8.859375 -3.625 8.859375 -2.96875 C 8.859375 -2.03125 8.519531 -1.300781 7.84375 -0.78125 C 7.175781 -0.257812 6.265625 0 5.109375 0 L 1.28125 0 Z M 3.453125 -6.171875 L 4.703125 -6.171875 C 5.296875 -6.171875 5.722656 -6.257812 5.984375 -6.4375 C 6.242188 -6.625 6.375 -6.925781 6.375 -7.34375 C 6.375 -7.738281 6.226562 -8.019531 5.9375 -8.1875 C 5.65625 -8.351562 5.207031 -8.4375 4.59375 -8.4375 L 3.453125 -8.4375 Z M 3.453125 -4.453125 L 3.453125 -1.796875 L 4.859375 -1.796875 C 5.460938 -1.796875 5.90625 -1.90625 6.1875 -2.125 C 6.46875 -2.351562 6.609375 -2.707031 6.609375 -3.1875 C 6.609375 -4.03125 6.003906 -4.453125 4.796875 -4.453125 Z M 3.453125 -4.453125 "/></g></g></g></g></g></svg>