<svg xmlns="http://www.w3.org/2000/svg" xmlns:xlink="http://www.w3.org/1999/xlink" width="500" zoomAndPan="magnify" viewBox="0 0 375 374.999991" height="500" preserveAspectRatio="xMidYMid meet" version="1.0"><path fill="#f9b800" d="M 369.539062 187.5 C 369.539062 190.480469 369.464844 193.457031 369.320312 196.433594 C 369.171875 199.40625 368.953125 202.378906 368.664062 205.34375 C 368.371094 208.308594 368.007812 211.265625 367.570312 214.210938 C 367.132812 217.15625 366.621094 220.09375 366.042969 223.015625 C 365.460938 225.9375 364.808594 228.84375 364.082031 231.730469 C 363.359375 234.621094 362.566406 237.492188 361.699219 240.34375 C 360.835938 243.195312 359.902344 246.023438 358.898438 248.828125 C 357.894531 251.632812 356.820312 254.410156 355.683594 257.164062 C 354.542969 259.914062 353.335938 262.636719 352.0625 265.332031 C 350.789062 268.023438 349.449219 270.683594 348.042969 273.3125 C 346.640625 275.941406 345.171875 278.53125 343.640625 281.085938 C 342.109375 283.640625 340.515625 286.160156 338.859375 288.636719 C 337.203125 291.113281 335.488281 293.546875 333.714844 295.941406 C 331.941406 298.332031 330.109375 300.679688 328.21875 302.984375 C 326.328125 305.289062 324.382812 307.542969 322.382812 309.75 C 320.382812 311.957031 318.328125 314.113281 316.222656 316.222656 C 314.113281 318.328125 311.957031 320.382812 309.75 322.382812 C 307.542969 324.382812 305.289062 326.328125 302.984375 328.21875 C 300.679688 330.109375 298.332031 331.941406 295.941406 333.714844 C 293.546875 335.488281 291.113281 337.203125 288.636719 338.859375 C 286.160156 340.515625 283.640625 342.109375 281.085938 343.640625 C 278.53125 345.171875 275.941406 346.640625 273.3125 348.042969 C 270.683594 349.449219 268.023438 350.789062 265.332031 352.0625 C 262.636719 353.335938 259.914062 354.542969 257.164062 355.683594 C 254.410156 356.820312 251.632812 357.894531 248.828125 358.898438 C 246.023438 359.902344 243.195312 360.835938 240.34375 361.699219 C 237.492188 362.566406 234.621094 363.359375 231.730469 364.082031 C 228.84375 364.808594 225.9375 365.460938 223.015625 366.042969 C 220.09375 366.621094 217.15625 367.132812 214.210938 367.570312 C 211.265625 368.007812 208.308594 368.371094 205.34375 368.664062 C 202.378906 368.953125 199.40625 369.171875 196.433594 369.320312 C 193.457031 369.464844 190.480469 369.539062 187.5 369.539062 C 184.519531 369.539062 181.542969 369.464844 178.566406 369.320312 C 175.59375 369.171875 172.621094 368.953125 169.65625 368.664062 C 166.691406 368.371094 163.734375 368.007812 160.789062 367.570312 C 157.84375 367.132812 154.90625 366.621094 151.984375 366.042969 C 149.0625 365.460938 146.15625 364.808594 143.269531 364.082031 C 140.378906 363.359375 137.507812 362.566406 134.65625 361.699219 C 131.804688 360.835938 128.976562 359.902344 126.171875 358.898438 C 123.367188 357.894531 120.589844 356.820312 117.835938 355.683594 C 115.085938 354.542969 112.363281 353.335938 109.667969 352.0625 C 106.976562 350.789062 104.316406 349.449219 101.6875 348.042969 C 99.058594 346.640625 96.46875 345.171875 93.914062 343.640625 C 91.359375 342.109375 88.839844 340.515625 86.363281 338.859375 C 83.886719 337.203125 81.453125 335.488281 79.058594 333.714844 C 76.667969 331.941406 74.320312 330.109375 72.015625 328.21875 C 69.710938 326.328125 67.457031 324.382812 65.25 322.382812 C 63.042969 320.382812 60.886719 318.328125 58.777344 316.222656 C 56.671875 314.113281 54.617188 311.957031 52.617188 309.75 C 50.617188 307.542969 48.671875 305.289062 46.78125 302.984375 C 44.890625 300.679688 43.058594 298.332031 41.285156 295.941406 C 39.511719 293.546875 37.796875 291.113281 36.140625 288.636719 C 34.484375 286.160156 32.890625 283.640625 31.359375 281.085938 C 29.828125 278.53125 28.359375 275.941406 26.957031 273.3125 C 25.550781 270.683594 24.210938 268.023438 22.9375 265.332031 C 21.664062 262.636719 20.457031 259.914062 19.316406 257.164062 C 18.179688 254.410156 17.105469 251.632812 16.101562 248.828125 C 15.097656 246.023438 14.164062 243.195312 13.300781 240.34375 C 12.433594 237.492188 11.640625 234.621094 10.917969 231.730469 C 10.191406 228.84375 9.539062 225.9375 8.957031 223.015625 C 8.378906 220.09375 7.867188 217.15625 7.429688 214.210938 C 6.992188 211.265625 6.628906 208.308594 6.335938 205.34375 C 6.046875 202.378906 5.828125 199.40625 5.679688 196.433594 C 5.535156 193.457031 5.460938 190.480469 5.460938 187.5 C 5.460938 184.519531 5.535156 181.542969 5.679688 178.566406 C 5.828125 175.59375 6.046875 172.621094 6.335938 169.65625 C 6.628906 166.691406 6.992188 163.734375 7.429688 160.789062 C 7.867188 157.84375 8.378906 154.90625 8.957031 151.984375 C 9.539062 149.0625 10.191406 146.15625 10.917969 143.269531 C 11.640625 140.378906 12.433594 137.507812 13.300781 134.65625 C 14.164062 131.804688 15.097656 128.976562 16.101562 126.171875 C 17.105469 123.367188 18.179688 120.589844 19.316406 117.835938 C 20.457031 115.085938 21.664062 112.363281 22.9375 109.667969 C 24.210938 106.976562 25.550781 104.316406 26.957031 101.6875 C 28.359375 99.058594 29.828125 96.46875 31.359375 93.914062 C 32.890625 91.359375 34.484375 88.839844 36.140625 86.363281 C 37.796875 83.886719 39.511719 81.453125 41.285156 79.058594 C 43.058594 76.667969 44.890625 74.320312 46.78125 72.015625 C 48.671875 69.710938 50.617188 67.457031 52.617188 65.25 C 54.617188 63.042969 56.671875 60.886719 58.777344 58.777344 C 60.886719 56.671875 63.042969 54.617188 65.25 52.617188 C 67.457031 50.617188 69.710938 48.671875 72.015625 46.78125 C 74.320312 44.890625 76.667969 43.058594 79.058594 41.285156 C 81.453125 39.511719 83.886719 37.796875 86.363281 36.140625 C 88.839844 34.484375 91.359375 32.890625 93.914062 31.359375 C 96.46875 29.828125 99.058594 28.359375 101.6875 26.957031 C 104.316406 25.550781 106.976562 24.210938 109.667969 22.9375 C 112.363281 21.664062 115.085938 20.457031 117.835938 19.316406 C 120.589844 18.179688 123.367188 17.105469 126.171875 16.101562 C 128.976562 15.097656 131.804688 14.164062 134.65625 13.300781 C 137.507812 12.433594 140.378906 11.640625 143.269531 10.917969 C 146.15625 10.191406 149.0625 9.539062 151.984375 8.957031 C 154.90625 8.378906 157.84375 7.867188 160.789062 7.429688 C 163.734375 6.992188 166.691406 6.628906 169.65625 6.335938 C 172.621094 6.046875 175.59375 5.828125 178.566406 5.679688 C 181.542969 5.535156 184.519531 5.460938 187.5 5.460938 C 190.480469 5.460938 193.457031 5.535156 196.433594 5.679688 C 199.40625 5.828125 202.378906 6.046875 205.34375 6.335938 C 208.308594 6.628906 211.265625 6.992188 214.210938 7.429688 C 217.15625 7.867188 220.09375 8.378906 223.015625 8.957031 C 225.9375 9.539062 228.84375 10.191406 231.730469 10.917969 C 234.621094 11.640625 237.492188 12.433594 240.34375 13.300781 C 243.195312 14.164062 246.023438 15.097656 248.828125 16.101562 C 251.632812 17.105469 254.410156 18.179688 257.164062 19.316406 C 259.914062 20.457031 262.636719 21.664062 265.332031 22.9375 C 268.023438 24.210938 270.683594 25.550781 273.3125 26.957031 C 275.941406 28.359375 278.53125 29.828125 281.085938 31.359375 C 283.640625 32.890625 286.160156 34.484375 288.636719 36.140625 C 291.113281 37.796875 293.546875 39.511719 295.941406 41.285156 C 298.332031 43.058594 300.679688 44.890625 302.984375 46.78125 C 305.289062 48.671875 307.542969 50.617188 309.75 52.617188 C 311.957031 54.617188 314.113281 56.671875 316.222656 58.777344 C 318.328125 60.886719 320.382812 63.042969 322.382812 65.25 C 324.382812 67.457031 326.328125 69.710938 328.21875 72.015625 C 330.109375 74.320312 331.941406 76.667969 333.714844 79.058594 C 335.488281 81.453125 337.203125 83.886719 338.859375 86.363281 C 340.515625 88.839844 342.109375 91.359375 343.640625 93.914062 C 345.171875 96.46875 346.640625 99.058594 348.042969 101.6875 C 349.449219 104.316406 350.789062 106.976562 352.0625 109.667969 C 353.335938 112.363281 354.542969 115.085938 355.683594 117.835938 C 356.820312 120.589844 357.894531 123.367188 358.898438 126.171875 C 359.902344 128.976562 360.835938 131.804688 361.699219 134.65625 C 362.566406 137.507812 363.359375 140.378906 364.082031 143.269531 C 364.808594 146.15625 365.460938 149.0625 366.042969 151.984375 C 366.621094 154.90625 367.132812 157.84375 367.570312 160.789062 C 368.007812 163.734375 368.371094 166.691406 368.664062 169.65625 C 368.953125 172.621094 369.171875 175.59375 369.320312 178.566406 C 369.464844 181.542969 369.539062 184.519531 369.539062 187.5 Z M 369.539062 187.5 " fill-opacity="1" fill-rule="nonzero"/><path fill="#f9b800" d="M 57.363281 118.691406 C 48.644531 133.925781 38.996094 154.089844 31.730469 178.828125 C 22.296875 210.953125 20.261719 239.285156 20.414062 259.863281 C 13.804688 244.417969 4.601562 217.195312 5.527344 182.539062 C 6.175781 158.382812 11.527344 138.679688 16.421875 125.148438 C 21.285156 123.699219 26.671875 122.351562 32.542969 121.265625 C 41.699219 119.566406 50.078125 118.863281 57.363281 118.691406 Z M 57.363281 118.691406 " fill-opacity="1" fill-rule="nonzero"/><path fill="#355fc5" d="M 183.769531 188.464844 C 180.445312 196.394531 177.167969 205.792969 174.613281 216.542969 C 170.605469 233.402344 169.601562 248.425781 169.722656 260.304688 C 189.347656 262.546875 227.777344 264.214844 271.222656 247.242188 C 326.851562 225.507812 357.421875 186.207031 368.703125 169.96875 C 367.570312 158.113281 364.9375 142.8125 358.828125 125.835938 C 351.113281 104.390625 340.703125 88.199219 332.433594 77.339844 C 328.394531 91.828125 318.054688 120.996094 291.277344 146.546875 C 248.742188 187.128906 196.28125 188.480469 183.769531 188.464844 Z M 183.769531 188.464844 " fill-opacity="1" fill-rule="nonzero"/><path fill="#f1f1f1" d="M 332.433594 77.339844 C 330.675781 83.535156 328.304688 90.46875 325.0625 97.855469 C 322.46875 103.773438 319.714844 109.066406 317.019531 113.71875 C 306.710938 97.199219 291.8125 76.832031 270.8125 56.429688 C 245.777344 32.101562 220.765625 16.179688 201.660156 6.003906 C 218.589844 7.371094 249.949219 12.222656 282.71875 32.320312 C 307.136719 47.296875 323.089844 65.066406 332.433594 77.339844 Z M 332.433594 77.339844 " fill-opacity="1" fill-rule="nonzero"/><path fill="#355fc5" d="M 183.769531 188.464844 C 192.875 188.578125 203.984375 187.921875 216.382812 185.417969 C 235.464844 181.570312 250.554688 174.769531 261.042969 168.960938 C 251.71875 150.347656 230.890625 115.011719 190.402344 85.75 C 143.980469 52.203125 97.34375 45.160156 76.402344 43.285156 C 66.207031 51.140625 52.832031 63.167969 40.292969 80.390625 C 28.050781 97.199219 20.78125 113.21875 16.421875 125.148438 C 27.890625 121.660156 71.4375 109.902344 119.097656 131.265625 C 157.09375 148.296875 176.757812 176.996094 183.769531 188.464844 Z M 183.769531 188.464844 " fill-opacity="1" fill-rule="nonzero"/><path fill="#ebece9" d="M 134.839844 139.609375 C 142.570312 144.371094 152.03125 151.167969 161.617188 160.648438 C 171.699219 170.613281 178.839844 180.496094 183.769531 188.46875 C 177.835938 202.085938 164.574219 237.457031 172.039062 282.722656 C 179.445312 327.632812 203.039062 356.722656 213.003906 367.765625 C 199.542969 369.917969 178.898438 371.519531 154.617188 366.578125 C 136.855469 362.960938 122.578125 356.953125 112.308594 351.648438 C 104.648438 333.1875 90.859375 292.949219 96.6875 241.308594 C 102.332031 191.308594 123.503906 156 134.839844 139.609375 Z M 134.839844 139.609375 " fill-opacity="1" fill-rule="nonzero"/><path fill="#355fc5" d="M 20.414062 259.863281 C 20.585938 241.164062 22.410156 217.917969 28.242188 191.84375 C 34.96875 161.796875 44.953125 137.203125 54.042969 118.800781 C 64.550781 118.316406 79.679688 118.789062 97.097656 123.421875 C 113.453125 127.773438 126.164062 134.289062 134.84375 139.609375 C 123.253906 156.449219 105.738281 186.730469 98.566406 228.320312 C 88.4375 287.050781 104.867188 333.921875 113.164062 353.714844 C 98.894531 347.296875 76.269531 334.933594 54.894531 312.214844 C 36.683594 292.859375 26.261719 273.296875 20.414062 259.863281 Z M 20.414062 259.863281 " fill-opacity="1" fill-rule="nonzero"/><path fill="#f9b800" d="M 317.019531 113.722656 C 311.761719 122.8125 303.582031 134.734375 291.277344 146.546875 C 280.367188 157.019531 269.578125 164.175781 261.042969 168.960938 C 251.449219 150.078125 230.496094 115.09375 190.402344 85.75 C 145 52.519531 99.480469 44.398438 78.136719 41.964844 C 90.398438 32.832031 111.5 19.480469 140.738281 11.695312 C 168.328125 4.355469 191.960938 4.949219 206.828125 6.472656 C 224.074219 16.875 245.023438 31.605469 266.351562 52.070312 C 289.269531 74.054688 305.640625 95.964844 317.019531 113.722656 Z M 317.019531 113.722656 " fill-opacity="1" fill-rule="nonzero"/><path fill="#fefefe" d="M 345.613281 277.765625 C 355.152344 255.667969 360.4375 231.300781 360.4375 205.703125 C 360.4375 130.875 315.285156 66.589844 250.742188 38.609375 C 228.570312 28.992188 204.105469 23.664062 178.398438 23.664062 C 152.691406 23.664062 128.226562 28.992188 106.054688 38.609375 C 69.84375 54.308594 39.738281 81.429688 20.285156 115.429688 C 38.625 72.933594 72.695312 38.8125 115.15625 20.40625 C 137.328125 10.789062 161.792969 5.460938 187.5 5.460938 C 213.207031 5.460938 237.671875 10.789062 259.84375 20.40625 C 324.386719 48.386719 369.539062 112.671875 369.539062 187.5 C 369.539062 220.347656 360.839844 251.164062 345.613281 277.765625 Z M 345.613281 277.765625 " fill-opacity="0.8" fill-rule="nonzero"/><path fill="#f1f1f1" d="M 213.003906 367.765625 C 209.507812 363.910156 205.863281 359.53125 202.21875 354.59375 C 197.726562 348.511719 194.023438 342.648438 190.976562 337.257812 C 207.347656 336.703125 226.492188 334.78125 247.5 330.1875 C 282.785156 322.476562 311.121094 309.902344 331.636719 298.699219 C 322.21875 310.910156 304.863281 330.214844 277.453125 345.796875 C 251.757812 360.402344 227.917969 365.65625 213.003906 367.765625 Z M 213.003906 367.765625 " fill-opacity="1" fill-rule="nonzero"/><path fill="#f9b800" d="M 169.722656 260.304688 C 169.964844 270.5625 171.242188 283.820312 175.234375 298.761719 C 179.554688 314.933594 185.667969 327.882812 190.976562 337.257812 C 207.703125 336.6875 227.441406 334.691406 249.167969 329.820312 C 283.734375 322.070312 311.503906 309.699219 331.636719 298.699219 C 340.601562 287.085938 352.699219 268.546875 360.828125 243.300781 C 370.742188 212.5 370.230469 185.78125 368.707031 169.96875 C 357.519531 186.164062 333.144531 216.726562 290.929688 238.378906 C 238.347656 265.347656 189.261719 262.503906 169.722656 260.304688 Z M 169.722656 260.304688 " fill-opacity="1" fill-rule="nonzero"/><path fill="#1d1d1b" d="M 187.5 375 C 162.191406 375 137.632812 370.042969 114.515625 360.261719 C 92.1875 350.820312 72.136719 337.300781 54.917969 320.082031 C 37.699219 302.863281 24.179688 282.8125 14.738281 260.484375 C 4.957031 237.367188 0 212.808594 0 187.5 C 0 162.191406 4.957031 137.632812 14.738281 114.515625 C 24.179688 92.1875 37.699219 72.136719 54.917969 54.917969 C 72.136719 37.699219 92.1875 24.179688 114.515625 14.738281 C 137.632812 4.957031 162.191406 0 187.5 0 C 212.808594 0 237.367188 4.957031 260.484375 14.738281 C 282.8125 24.179688 302.863281 37.699219 320.082031 54.917969 C 337.300781 72.136719 350.820312 92.1875 360.261719 114.515625 C 370.042969 137.632812 375 162.191406 375 187.5 C 375 212.808594 370.042969 237.367188 360.261719 260.484375 C 350.820312 282.8125 337.300781 302.863281 320.082031 320.082031 C 302.863281 337.300781 282.8125 350.820312 260.484375 360.261719 C 237.367188 370.042969 212.808594 375 187.5 375 Z M 187.5 10.921875 C 90.136719 10.921875 10.921875 90.136719 10.921875 187.5 C 10.921875 284.863281 90.136719 364.078125 187.5 364.078125 C 284.863281 364.078125 364.078125 284.863281 364.078125 187.5 C 364.078125 90.136719 284.863281 10.921875 187.5 10.921875 Z M 187.5 10.921875 " fill-opacity="1" fill-rule="nonzero"/><path fill="#1d1d1b" d="M 186.113281 193.949219 C 185.296875 193.949219 184.484375 193.941406 183.675781 193.925781 L 180.683594 193.875 L 179.117188 191.328125 C 169.382812 175.5 147.085938 146.785156 107.148438 132.296875 C 91.269531 126.539062 74.554688 123.796875 57.476562 124.152344 C 44.269531 124.425781 30.980469 126.523438 17.976562 130.382812 L 14.867188 119.910156 C 28.808594 115.773438 43.066406 113.527344 57.25 113.234375 C 75.679688 112.851562 93.722656 115.808594 110.871094 122.03125 C 130.964844 129.320312 149.0625 140.742188 164.671875 155.992188 C 173.125 164.25 180.554688 173.332031 186.792969 183.023438 C 204.34375 182.902344 242.699219 179.066406 277.554688 151.300781 C 307.6875 127.300781 321.171875 97.023438 327.179688 75.847656 L 337.6875 78.832031 C 333.847656 92.363281 328.320312 105.304688 321.253906 117.300781 C 311.570312 133.746094 299.15625 148.058594 284.359375 159.84375 C 266.417969 174.136719 245.800781 184.125 223.085938 189.539062 C 210.9375 192.433594 198.207031 193.945312 186.113281 193.949219 Z M 186.113281 193.949219 " fill-opacity="1" fill-rule="nonzero"/><path fill="#1d1d1b" d="M 256.171875 171.433594 C 243.394531 146.261719 219.183594 110.4375 176.382812 82.71875 C 139.175781 58.617188 102.082031 50.203125 77.515625 47.390625 L 78.757812 36.539062 C 94.621094 38.355469 110.371094 41.753906 125.566406 46.640625 C 145.617188 53.089844 164.710938 62.144531 182.320312 73.550781 C 227.160156 102.59375 252.527344 140.121094 265.910156 166.488281 Z M 256.171875 171.433594 " fill-opacity="1" fill-rule="nonzero"/><path fill="#1d1d1b" d="M 312.421875 116.667969 C 297.273438 93.035156 279.1875 71.386719 258.671875 52.328125 C 241.96875 36.808594 223.574219 22.953125 204.007812 11.152344 L 209.648438 1.796875 C 229.859375 13.988281 248.851562 28.296875 266.105469 44.324219 C 287.296875 64.007812 305.972656 86.367188 321.617188 110.773438 Z M 312.421875 116.667969 " fill-opacity="1" fill-rule="nonzero"/><path fill="#1d1d1b" d="M 208.957031 371.433594 C 200.898438 362.535156 193.75 352.816406 187.707031 342.542969 C 179.894531 329.25 173.921875 314.996094 169.957031 300.171875 C 163.640625 276.546875 162.515625 252.109375 166.613281 227.542969 C 169.015625 213.128906 173.105469 199.246094 178.765625 186.28125 L 188.773438 190.652344 C 180.253906 210.167969 167.847656 249.984375 180.507812 297.351562 C 188.789062 328.3125 204.949219 350.738281 217.050781 364.101562 Z M 208.957031 371.433594 " fill-opacity="1" fill-rule="nonzero"/><path fill="#1d1d1b" d="M 193.828125 267.144531 C 185.523438 267.144531 177.257812 266.671875 169.09375 265.730469 L 170.347656 254.878906 C 193.175781 257.519531 238.597656 258.390625 286.347656 234.578125 C 325.460938 215.070312 350.28125 186.984375 364.214844 166.859375 L 373.195312 173.078125 C 364.242188 186.007812 353.894531 198.003906 342.429688 208.730469 C 327.125 223.054688 309.894531 235.039062 291.222656 244.351562 C 268.105469 255.878906 243.238281 263.128906 217.316406 265.894531 C 209.484375 266.726562 201.636719 267.144531 193.828125 267.144531 Z M 193.828125 267.144531 " fill-opacity="1" fill-rule="nonzero"/><path fill="#1d1d1b" d="M 191.160156 342.71875 L 190.792969 331.800781 C 220.335938 330.800781 249.542969 325.582031 277.605469 316.289062 C 295.328125 310.417969 312.625 302.890625 329.011719 293.910156 L 334.261719 303.492188 C 317.292969 312.785156 299.386719 320.582031 281.039062 326.65625 C 251.984375 336.28125 221.746094 341.683594 191.160156 342.71875 Z M 191.160156 342.71875 " fill-opacity="1" fill-rule="nonzero"/><path fill="#1d1d1b" d="M 108.136719 355.851562 C 102.609375 342.847656 98.261719 329.289062 95.210938 315.550781 C 91.34375 298.132812 89.535156 280.28125 89.835938 262.492188 C 90.304688 234.921875 95.78125 207.8125 106.105469 181.917969 C 112.527344 165.816406 120.679688 150.539062 130.34375 136.507812 L 139.339844 142.703125 C 125.347656 163.019531 101.726562 205.621094 100.757812 262.675781 C 100.238281 293.222656 106.101562 323.132812 118.1875 351.582031 Z M 108.136719 355.851562 " fill-opacity="1" fill-rule="nonzero"/><path fill="#1d1d1b" d="M 14.953125 259.90625 C 14.78125 237.746094 17.183594 215.609375 22.101562 194.105469 C 28.351562 166.761719 38.621094 140.476562 52.621094 115.984375 L 62.105469 121.40625 C 48.636719 144.964844 38.761719 170.242188 32.75 196.542969 C 28.023438 217.21875 25.710938 238.511719 25.875 259.824219 Z M 14.953125 259.90625 " fill-opacity="1" fill-rule="nonzero"/><path fill="#2b2b2b" d="M 358.492188 250.089844 C 341.375 296.839844 305.628906 334.613281 260.25 354.417969 C 260.234375 354.425781 260.222656 354.429688 260.210938 354.4375 C 258.160156 355.371094 256.082031 356.25 253.984375 357.074219 C 251.886719 357.898438 249.765625 358.664062 247.625 359.371094 C 247.617188 359.375 247.609375 359.378906 247.601562 359.378906 C 228.789062 365.960938 208.5625 369.539062 187.5 369.539062 C 166.4375 369.539062 146.210938 365.960938 127.394531 359.378906 C 127.386719 359.378906 127.378906 359.375 127.371094 359.371094 C 125.230469 358.664062 123.113281 357.894531 121.015625 357.074219 C 118.917969 356.25 116.839844 355.371094 114.789062 354.4375 C 114.773438 354.429688 114.761719 354.425781 114.75 354.417969 C 50.421875 326.34375 5.460938 262.171875 5.460938 187.5 C 5.460938 150.992188 16.207031 116.996094 34.714844 88.5 C 27.566406 108.015625 23.664062 129.097656 23.664062 151.09375 C 23.664062 225.765625 68.625 289.9375 132.957031 318.011719 C 132.96875 318.019531 132.980469 318.023438 132.996094 318.027344 C 135.046875 318.964844 137.125 319.84375 139.21875 320.667969 C 141.316406 321.492188 143.4375 322.257812 145.578125 322.964844 C 145.585938 322.96875 145.59375 322.972656 145.601562 322.972656 C 164.417969 329.554688 184.644531 333.132812 205.707031 333.132812 C 226.765625 333.132812 246.992188 329.554688 265.808594 322.972656 C 265.816406 322.972656 265.824219 322.96875 265.832031 322.964844 C 267.972656 322.257812 270.09375 321.488281 272.191406 320.667969 C 274.289062 319.84375 276.363281 318.964844 278.414062 318.027344 C 278.429688 318.023438 278.441406 318.019531 278.453125 318.011719 C 311.332031 303.664062 339.152344 279.882812 358.492188 250.089844 Z M 358.492188 250.089844 " fill-opacity="0.2" fill-rule="nonzero"/></svg>